<?xml version="1.0" encoding="UTF-8" standalone="no"?>
<!-- Created with matplotlib (https://matplotlib.org/) -->

<svg
   xmlns:dc="http://purl.org/dc/elements/1.1/"
   xmlns:cc="http://creativecommons.org/ns#"
   xmlns:rdf="http://www.w3.org/1999/02/22-rdf-syntax-ns#"
   xmlns:svg="http://www.w3.org/2000/svg"
   xmlns="http://www.w3.org/2000/svg"
   xmlns:sodipodi="http://sodipodi.sourceforge.net/DTD/sodipodi-0.dtd"
   xmlns:inkscape="http://www.inkscape.org/namespaces/inkscape"
   height="247.13281pt"
   version="1.1"
   viewBox="0 0 642.51013 247.1328"
   width="642.51013pt"
   id="svg109"
   sodipodi:docname="combined_gsea_clusters_angiogenesis_bbb_annot.svg"
   inkscape:version="0.92.3 (2405546, 2018-03-11)"
   inkscape:export-filename="combined_gsea_clusters_angiogenesis_bbb_annot.png"
   inkscape:export-xdpi="300"
   inkscape:export-ydpi="300">
  <metadata
     id="metadata113">
    <rdf:RDF>
      <cc:Work
         rdf:about="">
        <dc:format>image/svg+xml</dc:format>
        <dc:type
           rdf:resource="http://purl.org/dc/dcmitype/StillImage" />
        <dc:title />
      </cc:Work>
    </rdf:RDF>
  </metadata>
  <sodipodi:namedview
     pagecolor="#ffffff"
     bordercolor="#666666"
     borderopacity="1"
     objecttolerance="10"
     gridtolerance="10"
     guidetolerance="10"
     inkscape:pageopacity="0"
     inkscape:pageshadow="2"
     inkscape:window-width="896"
     inkscape:window-height="770"
     id="namedview111"
     showgrid="false"
     fit-margin-top="0"
     fit-margin-left="0"
     fit-margin-right="0"
     fit-margin-bottom="0"
     inkscape:zoom="0.69996429"
     inkscape:cx="61.580446"
     inkscape:cy="126.30216"
     inkscape:window-x="1920"
     inkscape:window-y="809"
     inkscape:window-maximized="0"
     inkscape:current-layer="text_15" />
  <defs
     id="defs4"
     style="stroke-linecap:butt;stroke-linejoin:round">
    <style
       type="text/css"
       id="style2">
*{stroke-linecap:butt;stroke-linejoin:round;}
  </style>
  </defs>
  <g
     id="figure_1"
     style="stroke-linecap:butt;stroke-linejoin:round"
     transform="translate(-146.44736,4.7307031)">
    <g
       id="axes_1"
       style="stroke-linecap:butt;stroke-linejoin:round">
      <g
         id="patch_2"
         style="stroke-linecap:butt;stroke-linejoin:round">
        <path
           clip-path="url(#pbed92f9e49)"
           d="m 163.59344,45.3735 c 1.40099,0 2.74479,-0.501175 3.73544,-1.393147 0.99065,-0.891971 1.54727,-2.101914 1.54727,-3.363353 0,-1.261439 -0.55662,-2.471382 -1.54727,-3.363353 -0.99065,-0.891972 -2.33445,-1.393147 -3.73544,-1.393147 -1.40099,0 -2.74479,0.501175 -3.73543,1.393147 -0.99065,0.891971 -1.54727,2.101914 -1.54727,3.363353 0,1.261439 0.55662,2.471382 1.54727,3.363353 0.99064,0.891972 2.33444,1.393147 3.73543,1.393147 z"
           style="fill:#7a0177;stroke-linecap:butt;stroke-linejoin:round"
           id="path9"
           inkscape:connector-curvature="0" />
      </g>
      <g
         id="patch_3"
         style="stroke-linecap:butt;stroke-linejoin:round">
        <path
           clip-path="url(#pbed92f9e49)"
           d="m 163.59344,58.9635 c 1.40099,0 2.74479,-0.501175 3.73544,-1.393147 0.99065,-0.891971 1.54727,-2.101914 1.54727,-3.363353 0,-1.261439 -0.55662,-2.471382 -1.54727,-3.363353 -0.99065,-0.891972 -2.33445,-1.393147 -3.73544,-1.393147 -1.40099,0 -2.74479,0.501175 -3.73543,1.393147 -0.99065,0.891971 -1.54727,2.101914 -1.54727,3.363353 0,1.261439 0.55662,2.471382 1.54727,3.363353 0.99064,0.891972 2.33444,1.393147 3.73543,1.393147 z"
           style="fill:#7a0177;stroke-linecap:butt;stroke-linejoin:round"
           id="path12"
           inkscape:connector-curvature="0" />
      </g>
      <g
         id="patch_4"
         style="stroke-linecap:butt;stroke-linejoin:round">
        <path
           clip-path="url(#pbed92f9e49)"
           d="m 163.59344,72.5535 c 1.40099,0 2.74479,-0.501175 3.73544,-1.393147 0.99065,-0.891971 1.54727,-2.101914 1.54727,-3.363353 0,-1.261439 -0.55662,-2.471382 -1.54727,-3.363353 -0.99065,-0.891972 -2.33445,-1.393147 -3.73544,-1.393147 -1.40099,0 -2.74479,0.501175 -3.73543,1.393147 -0.99065,0.891971 -1.54727,2.101914 -1.54727,3.363353 0,1.261439 0.55662,2.471382 1.54727,3.363353 0.99064,0.891972 2.33444,1.393147 3.73543,1.393147 z"
           style="fill:#7a0177;stroke-linecap:butt;stroke-linejoin:round"
           id="path15"
           inkscape:connector-curvature="0" />
      </g>
      <g
         id="patch_5"
         style="stroke-linecap:butt;stroke-linejoin:round">
        <path
           clip-path="url(#pbed92f9e49)"
           d="m 163.59344,86.1435 c 1.40099,0 2.74479,-0.501175 3.73544,-1.393147 0.99065,-0.891971 1.54727,-2.101914 1.54727,-3.363353 0,-1.261439 -0.55662,-2.471382 -1.54727,-3.363353 -0.99065,-0.891972 -2.33445,-1.393147 -3.73544,-1.393147 -1.40099,0 -2.74479,0.501175 -3.73543,1.393147 -0.99065,0.891971 -1.54727,2.101914 -1.54727,3.363353 0,1.261439 0.55662,2.471382 1.54727,3.363353 0.99064,0.891972 2.33444,1.393147 3.73543,1.393147 z"
           style="fill:#feebe2;stroke-linecap:butt;stroke-linejoin:round"
           id="path18"
           inkscape:connector-curvature="0" />
      </g>
      <g
         id="patch_6"
         style="stroke-linecap:butt;stroke-linejoin:round">
        <path
           clip-path="url(#pbed92f9e49)"
           d="m 163.59344,99.7335 c 1.40099,0 2.74479,-0.501175 3.73544,-1.393147 0.99065,-0.891971 1.54727,-2.101914 1.54727,-3.363353 0,-1.261439 -0.55662,-2.471382 -1.54727,-3.363353 -0.99065,-0.891972 -2.33445,-1.393147 -3.73544,-1.393147 -1.40099,0 -2.74479,0.501175 -3.73543,1.393147 -0.99065,0.891971 -1.54727,2.101914 -1.54727,3.363353 0,1.261439 0.55662,2.471382 1.54727,3.363353 0.99064,0.891972 2.33444,1.393147 3.73543,1.393147 z"
           style="fill:#feebe2;stroke-linecap:butt;stroke-linejoin:round"
           id="path21"
           inkscape:connector-curvature="0" />
      </g>
      <g
         id="patch_7"
         style="stroke-linecap:butt;stroke-linejoin:round">
        <path
           clip-path="url(#pbed92f9e49)"
           d="m 163.59344,113.3235 c 1.40099,0 2.74479,-0.50117 3.73544,-1.39315 0.99065,-0.89197 1.54727,-2.10191 1.54727,-3.36335 0,-1.26144 -0.55662,-2.47138 -1.54727,-3.36335 -0.99065,-0.89198 -2.33445,-1.39315 -3.73544,-1.39315 -1.40099,0 -2.74479,0.50117 -3.73543,1.39315 -0.99065,0.89197 -1.54727,2.10191 -1.54727,3.36335 0,1.26144 0.55662,2.47138 1.54727,3.36335 0.99064,0.89198 2.33444,1.39315 3.73543,1.39315 z"
           style="fill:#c51b8a;stroke-linecap:butt;stroke-linejoin:round"
           id="path24"
           inkscape:connector-curvature="0" />
      </g>
      <g
         id="patch_8"
         style="stroke-linecap:butt;stroke-linejoin:round">
        <path
           clip-path="url(#pbed92f9e49)"
           d="m 163.59344,126.9135 c 1.40099,0 2.74479,-0.50118 3.73544,-1.39315 0.99065,-0.89197 1.54727,-2.10191 1.54727,-3.36335 0,-1.26144 -0.55662,-2.47138 -1.54727,-3.36335 -0.99065,-0.89198 -2.33445,-1.39315 -3.73544,-1.39315 -1.40099,0 -2.74479,0.50117 -3.73543,1.39315 -0.99065,0.89197 -1.54727,2.10191 -1.54727,3.36335 0,1.26144 0.55662,2.47138 1.54727,3.36335 0.99064,0.89197 2.33444,1.39315 3.73543,1.39315 z"
           style="fill:#c51b8a;stroke-linecap:butt;stroke-linejoin:round"
           id="path27"
           inkscape:connector-curvature="0" />
      </g>
      <g
         id="patch_9"
         style="stroke-linecap:butt;stroke-linejoin:round">
        <path
           clip-path="url(#pbed92f9e49)"
           d="m 163.59344,140.5035 c 1.40099,0 2.74479,-0.50117 3.73544,-1.39315 0.99065,-0.89197 1.54727,-2.10191 1.54727,-3.36335 0,-1.26144 -0.55662,-2.47138 -1.54727,-3.36335 -0.99065,-0.89198 -2.33445,-1.39315 -3.73544,-1.39315 -1.40099,0 -2.74479,0.50117 -3.73543,1.39315 -0.99065,0.89197 -1.54727,2.10191 -1.54727,3.36335 0,1.26144 0.55662,2.47138 1.54727,3.36335 0.99064,0.89198 2.33444,1.39315 3.73543,1.39315 z"
           style="fill:#c51b8a;stroke-linecap:butt;stroke-linejoin:round"
           id="path30"
           inkscape:connector-curvature="0" />
      </g>
      <g
         id="patch_10"
         style="stroke-linecap:butt;stroke-linejoin:round">
        <path
           clip-path="url(#pbed92f9e49)"
           d="m 163.59344,154.0935 c 1.40099,0 2.74479,-0.50118 3.73544,-1.39315 0.99065,-0.89197 1.54727,-2.10191 1.54727,-3.36335 0,-1.26144 -0.55662,-2.47138 -1.54727,-3.36335 -0.99065,-0.89198 -2.33445,-1.39315 -3.73544,-1.39315 -1.40099,0 -2.74479,0.50117 -3.73543,1.39315 -0.99065,0.89197 -1.54727,2.10191 -1.54727,3.36335 0,1.26144 0.55662,2.47138 1.54727,3.36335 0.99064,0.89197 2.33444,1.39315 3.73543,1.39315 z"
           style="fill:#c51b8a;stroke-linecap:butt;stroke-linejoin:round"
           id="path33"
           inkscape:connector-curvature="0" />
      </g>
      <g
         id="patch_11"
         style="stroke-linecap:butt;stroke-linejoin:round">
        <path
           clip-path="url(#pbed92f9e49)"
           d="m 163.59344,167.6835 c 1.40099,0 2.74479,-0.50118 3.73544,-1.39315 0.99065,-0.89197 1.54727,-2.10191 1.54727,-3.36335 0,-1.26144 -0.55662,-2.47138 -1.54727,-3.36335 -0.99065,-0.89198 -2.33445,-1.39315 -3.73544,-1.39315 -1.40099,0 -2.74479,0.50117 -3.73543,1.39315 -0.99065,0.89197 -1.54727,2.10191 -1.54727,3.36335 0,1.26144 0.55662,2.47138 1.54727,3.36335 0.99064,0.89197 2.33444,1.39315 3.73543,1.39315 z"
           style="fill:#c51b8a;stroke-linecap:butt;stroke-linejoin:round"
           id="path36"
           inkscape:connector-curvature="0" />
      </g>
      <g
         id="patch_12"
         style="stroke-linecap:butt;stroke-linejoin:round">
        <path
           clip-path="url(#pbed92f9e49)"
           d="m 163.59344,181.2735 c 1.40099,0 2.74479,-0.50118 3.73544,-1.39315 0.99065,-0.89197 1.54727,-2.10191 1.54727,-3.36335 0,-1.26144 -0.55662,-2.47138 -1.54727,-3.36335 -0.99065,-0.89198 -2.33445,-1.39315 -3.73544,-1.39315 -1.40099,0 -2.74479,0.50117 -3.73543,1.39315 -0.99065,0.89197 -1.54727,2.10191 -1.54727,3.36335 0,1.26144 0.55662,2.47138 1.54727,3.36335 0.99064,0.89197 2.33444,1.39315 3.73543,1.39315 z"
           style="fill:#c51b8a;stroke-linecap:butt;stroke-linejoin:round"
           id="path39"
           inkscape:connector-curvature="0" />
      </g>
      <g
         id="patch_13"
         style="stroke-linecap:butt;stroke-linejoin:round">
        <path
           clip-path="url(#pbed92f9e49)"
           d="m 163.59344,190.107 v 27.18"
           style="fill:#1f77b4;stroke:#000000;stroke-linecap:butt;stroke-linejoin:miter"
           id="path42"
           inkscape:connector-curvature="0" />
      </g>
      <g
         id="patch_14"
         style="stroke-linecap:butt;stroke-linejoin:round">
        <path
           clip-path="url(#pbed92f9e49)"
           d="m 163.59344,203.697 v 13.59"
           style="fill:#1f77b4;stroke:#000000;stroke-linecap:butt;stroke-linejoin:miter"
           id="path45"
           inkscape:connector-curvature="0" />
      </g>
      <g
         id="patch_15"
         style="stroke-linecap:butt;stroke-linejoin:round">
        <path
           clip-path="url(#pbed92f9e49)"
           d="m 163.59344,194.8635 c 1.40099,0 2.74479,-0.50118 3.73544,-1.39315 0.99065,-0.89197 1.54727,-2.10191 1.54727,-3.36335 0,-1.26144 -0.55662,-2.47138 -1.54727,-3.36335 -0.99065,-0.89198 -2.33445,-1.39315 -3.73544,-1.39315 -1.40099,0 -2.74479,0.50117 -3.73543,1.39315 -0.99065,0.89197 -1.54727,2.10191 -1.54727,3.36335 0,1.26144 0.55662,2.47138 1.54727,3.36335 0.99064,0.89197 2.33444,1.39315 3.73543,1.39315 z"
           style="fill:#c51b8a;stroke-linecap:butt;stroke-linejoin:round"
           id="path48"
           inkscape:connector-curvature="0" />
      </g>
      <g
         id="patch_16"
         style="stroke-linecap:butt;stroke-linejoin:round">
        <path
           clip-path="url(#pbed92f9e49)"
           d="m 163.59344,208.4535 c 1.40099,0 2.74479,-0.50118 3.73544,-1.39315 0.99065,-0.89197 1.54727,-2.10191 1.54727,-3.36335 0,-1.26144 -0.55662,-2.47138 -1.54727,-3.36335 -0.99065,-0.89198 -2.33445,-1.39315 -3.73544,-1.39315 -1.40099,0 -2.74479,0.50117 -3.73543,1.39315 -0.99065,0.89197 -1.54727,2.10191 -1.54727,3.36335 0,1.26144 0.55662,2.47138 1.54727,3.36335 0.99064,0.89197 2.33444,1.39315 3.73543,1.39315 z"
           style="fill:#c51b8a;stroke-linecap:butt;stroke-linejoin:round"
           id="path51"
           inkscape:connector-curvature="0" />
      </g>
      <g
         id="patch_17"
         style="stroke-linecap:butt;stroke-linejoin:round">
        <path
           clip-path="url(#pbed92f9e49)"
           d="m 163.59344,222.0435 c 1.40099,0 2.74479,-0.50118 3.73544,-1.39315 0.99065,-0.89197 1.54727,-2.10191 1.54727,-3.36335 0,-1.26144 -0.55662,-2.47138 -1.54727,-3.36335 -0.99065,-0.89198 -2.33445,-1.39315 -3.73544,-1.39315 -1.40099,0 -2.74479,0.50117 -3.73543,1.39315 -0.99065,0.89197 -1.54727,2.10191 -1.54727,3.36335 0,1.26144 0.55662,2.47138 1.54727,3.36335 0.99064,0.89197 2.33444,1.39315 3.73543,1.39315 z"
           style="fill:#c51b8a;stroke-linecap:butt;stroke-linejoin:round"
           id="path54"
           inkscape:connector-curvature="0" />
      </g>
      <g
         id="text_1"
         style="stroke-linecap:butt;stroke-linejoin:round">
        <text
           style="font-style:normal;font-weight:normal;font-size:12px;font-family:'DejaVu Sans';text-anchor:start;stroke-linecap:butt;stroke-linejoin:round"
           x="169.63081"
           y="43.655437"
           id="text57">KEGG_ARRHYTHMOGENIC_RIGHT_VENTRICULAR_CARDIOMYOPATHY_ARVC</text>
      </g>
      <g
         id="text_2"
         style="stroke-linecap:butt;stroke-linejoin:round">
        <text
           style="font-style:normal;font-weight:normal;font-size:12px;font-family:'DejaVu Sans';text-anchor:start;stroke-linecap:butt;stroke-linejoin:round"
           x="169.63081"
           y="57.245438"
           id="text60">BIOCARTA_AT1R_PATHWAY</text>
      </g>
      <g
         id="text_3"
         style="stroke-linecap:butt;stroke-linejoin:round">
        <text
           style="font-style:normal;font-weight:normal;font-size:12px;font-family:'DejaVu Sans';text-anchor:start;stroke-linecap:butt;stroke-linejoin:round"
           x="169.63081"
           y="70.835434"
           id="text63">REACTOME_PLATELET_SENSITIZATION_BY_LDL</text>
      </g>
      <g
         id="text_4"
         style="stroke-linecap:butt;stroke-linejoin:round">
        <text
           style="font-style:normal;font-weight:normal;font-size:12px;font-family:'DejaVu Sans';text-anchor:start;stroke-linecap:butt;stroke-linejoin:round"
           x="169.63081"
           y="84.425438"
           id="text66">KEGG_VEGF_SIGNALING_PATHWAY</text>
      </g>
      <g
         id="text_5"
         style="stroke-linecap:butt;stroke-linejoin:round">
        <text
           style="font-style:normal;font-weight:normal;font-size:12px;font-family:'DejaVu Sans';text-anchor:start;stroke-linecap:butt;stroke-linejoin:round"
           x="169.63081"
           y="98.015434"
           id="text69">PID_S1P_S1P3_PATHWAY</text>
      </g>
      <g
         id="text_6"
         style="stroke-linecap:butt;stroke-linejoin:round">
        <text
           style="font-style:normal;font-weight:normal;font-size:12px;font-family:'DejaVu Sans';text-anchor:start;stroke-linecap:butt;stroke-linejoin:round"
           x="169.63081"
           y="111.60544"
           id="text72">REACTOME_FACTORS_INVOLVED_IN_MEGAKARYOCYTE_DEVELOPMENT_AND_PLATELET_PRODUCTION</text>
      </g>
      <g
         id="text_7"
         style="stroke-linecap:butt;stroke-linejoin:round">
        <text
           style="font-style:normal;font-weight:normal;font-size:12px;font-family:'DejaVu Sans';text-anchor:start;stroke-linecap:butt;stroke-linejoin:round"
           x="169.63081"
           y="125.19543"
           id="text75">KEGG_LEUKOCYTE_TRANSENDOTHELIAL_MIGRATION</text>
      </g>
      <g
         id="text_8"
         style="stroke-linecap:butt;stroke-linejoin:round">
        <text
           style="font-style:normal;font-weight:normal;font-size:12px;font-family:'DejaVu Sans';text-anchor:start;stroke-linecap:butt;stroke-linejoin:round"
           x="169.63081"
           y="138.78543"
           id="text78">BIOCARTA_KERATINOCYTE_PATHWAY</text>
      </g>
      <g
         id="text_9"
         style="stroke-linecap:butt;stroke-linejoin:round">
        <text
           style="font-style:normal;font-weight:normal;font-size:12px;font-family:'DejaVu Sans';text-anchor:start;stroke-linecap:butt;stroke-linejoin:round"
           x="169.63081"
           y="152.37544"
           id="text81">KEGG_HEMATOPOIETIC_CELL_LINEAGE</text>
      </g>
      <g
         id="text_10"
         style="stroke-linecap:butt;stroke-linejoin:round">
        <text
           style="font-style:normal;font-weight:normal;font-size:12px;font-family:'DejaVu Sans';text-anchor:start;stroke-linecap:butt;stroke-linejoin:round"
           x="169.63081"
           y="165.96544"
           id="text84">BIOCARTA_CARDIACEGF_PATHWAY</text>
      </g>
      <g
         id="text_11"
         style="stroke-linecap:butt;stroke-linejoin:round">
        <text
           style="font-style:normal;font-weight:normal;font-size:12px;font-family:'DejaVu Sans';text-anchor:start;stroke-linecap:butt;stroke-linejoin:round"
           x="169.63081"
           y="179.55544"
           id="text87">PID_ANGIOPOIETIN_RECEPTOR_PATHWAY</text>
      </g>
      <g
         id="text_12"
         style="stroke-linecap:butt;stroke-linejoin:round">
        <text
           style="font-style:normal;font-weight:normal;font-size:12px;font-family:'DejaVu Sans';text-anchor:start;stroke-linecap:butt;stroke-linejoin:round"
           x="169.63081"
           y="193.14543"
           id="text90">REACTOME_RESPONSE_TO_ELEVATED_PLATELET_CYTOSOLIC_CA2_</text>
      </g>
      <g
         id="text_13"
         style="stroke-linecap:butt;stroke-linejoin:round">
        <text
           style="font-style:normal;font-weight:normal;font-size:12px;font-family:'DejaVu Sans';text-anchor:start;stroke-linecap:butt;stroke-linejoin:round"
           x="169.63081"
           y="206.73544"
           id="text93">REACTOME_HEMOSTASIS</text>
      </g>
      <g
         id="text_14"
         style="stroke-linecap:butt;stroke-linejoin:round">
        <text
           style="font-style:normal;font-weight:normal;font-size:12px;font-family:'DejaVu Sans';text-anchor:start;stroke-linecap:butt;stroke-linejoin:round"
           x="169.63081"
           y="220.32544"
           id="text96">REACTOME_PLATELET_ACTIVATION_SIGNALING_AND_AGGREGATION</text>
      </g>
      <g
         id="text_15"
         style="stroke-linecap:butt;stroke-linejoin:round">
        <text
           style="font-style:normal;font-weight:normal;font-size:12px;font-family:'DejaVu Sans';text-anchor:middle;stroke-linecap:butt;stroke-linejoin:round"
           x="472.77161"
           y="25.104"
           id="text99">
          <tspan
             style="font-size:24px;stroke-linecap:butt;stroke-linejoin:round"
             id="tspan922">Angiogenesis/BBB</tspan>
        </text>
      </g>
    </g>
  </g>
  <defs
     id="defs107">
    <clipPath
       id="pbed92f9e49"
       style="stroke-linecap:butt;stroke-linejoin:round">
      <rect
         height="195.696"
         width="920.70001"
         x="148.5"
         y="31.104"
         id="rect104"
         style="stroke-linecap:butt;stroke-linejoin:round" />
    </clipPath>
  </defs>
</svg>
