<?xml version="1.0" encoding="utf-8" standalone="no"?>
<!DOCTYPE svg PUBLIC "-//W3C//DTD SVG 1.1//EN"
  "http://www.w3.org/Graphics/SVG/1.1/DTD/svg11.dtd">
<!-- Created with matplotlib (https://matplotlib.org/) -->
<svg height="822.899769pt" version="1.1" viewBox="0 0 1276.198613 822.899769" width="1276.198613pt" xmlns="http://www.w3.org/2000/svg" xmlns:xlink="http://www.w3.org/1999/xlink">
 <defs>
  <style type="text/css">
*{stroke-linecap:butt;stroke-linejoin:round;}
  </style>
 </defs>
 <g id="figure_1">
  <g id="patch_1">
   <path d="M 0 822.899769 
L 1276.198613 822.899769 
L 1276.198613 0 
L 0 0 
z
" style="fill:#ffffff;"/>
  </g>
  <g id="axes_1">
   <g id="patch_2">
    <path clip-path="url(#pe0e8950137)" d="M 174.53325 113.017472 
C 175.926348 113.017472 177.262576 112.516297 178.247645 111.624326 
C 179.232714 110.732354 179.786198 109.522411 179.786198 108.260972 
C 179.786198 106.999534 179.232714 105.789591 178.247645 104.897619 
C 177.262576 104.005647 175.926348 103.504472 174.53325 103.504472 
C 173.140152 103.504472 171.803924 104.005647 170.818855 104.897619 
C 169.833785 105.789591 169.280302 106.999534 169.280302 108.260972 
C 169.280302 109.522411 169.833785 110.732354 170.818855 111.624326 
C 171.803924 112.516297 173.140152 113.017472 174.53325 113.017472 
z
" style="fill:#7a0177;"/>
   </g>
   <g id="patch_3">
    <path clip-path="url(#pe0e8950137)" d="M 174.53325 126.607472 
C 175.926348 126.607472 177.262576 126.106297 178.247645 125.214326 
C 179.232714 124.322354 179.786198 123.112411 179.786198 121.850972 
C 179.786198 120.589534 179.232714 119.379591 178.247645 118.487619 
C 177.262576 117.595647 175.926348 117.094472 174.53325 117.094472 
C 173.140152 117.094472 171.803924 117.595647 170.818855 118.487619 
C 169.833785 119.379591 169.280302 120.589534 169.280302 121.850972 
C 169.280302 123.112411 169.833785 124.322354 170.818855 125.214326 
C 171.803924 126.106297 173.140152 126.607472 174.53325 126.607472 
z
" style="fill:#7a0177;"/>
   </g>
   <g id="patch_4">
    <path clip-path="url(#pe0e8950137)" d="M 174.53325 140.197472 
C 175.926348 140.197472 177.262576 139.696297 178.247645 138.804326 
C 179.232714 137.912354 179.786198 136.702411 179.786198 135.440972 
C 179.786198 134.179534 179.232714 132.969591 178.247645 132.077619 
C 177.262576 131.185647 175.926348 130.684472 174.53325 130.684472 
C 173.140152 130.684472 171.803924 131.185647 170.818855 132.077619 
C 169.833785 132.969591 169.280302 134.179534 169.280302 135.440972 
C 169.280302 136.702411 169.833785 137.912354 170.818855 138.804326 
C 171.803924 139.696297 173.140152 140.197472 174.53325 140.197472 
z
" style="fill:#7a0177;"/>
   </g>
   <g id="patch_5">
    <path clip-path="url(#pe0e8950137)" d="M 174.53325 153.787472 
C 175.926348 153.787472 177.262576 153.286297 178.247645 152.394326 
C 179.232714 151.502354 179.786198 150.292411 179.786198 149.030972 
C 179.786198 147.769534 179.232714 146.559591 178.247645 145.667619 
C 177.262576 144.775647 175.926348 144.274472 174.53325 144.274472 
C 173.140152 144.274472 171.803924 144.775647 170.818855 145.667619 
C 169.833785 146.559591 169.280302 147.769534 169.280302 149.030972 
C 169.280302 150.292411 169.833785 151.502354 170.818855 152.394326 
C 171.803924 153.286297 173.140152 153.787472 174.53325 153.787472 
z
" style="fill:#7a0177;"/>
   </g>
   <g id="patch_6">
    <path clip-path="url(#pe0e8950137)" d="M 174.53325 167.377472 
C 175.926348 167.377472 177.262576 166.876297 178.247645 165.984326 
C 179.232714 165.092354 179.786198 163.882411 179.786198 162.620972 
C 179.786198 161.359534 179.232714 160.149591 178.247645 159.257619 
C 177.262576 158.365647 175.926348 157.864472 174.53325 157.864472 
C 173.140152 157.864472 171.803924 158.365647 170.818855 159.257619 
C 169.833785 160.149591 169.280302 161.359534 169.280302 162.620972 
C 169.280302 163.882411 169.833785 165.092354 170.818855 165.984326 
C 171.803924 166.876297 173.140152 167.377472 174.53325 167.377472 
z
" style="fill:#7a0177;"/>
   </g>
   <g id="patch_7">
    <path clip-path="url(#pe0e8950137)" d="M 174.53325 180.967472 
C 175.926348 180.967472 177.262576 180.466297 178.247645 179.574326 
C 179.232714 178.682354 179.786198 177.472411 179.786198 176.210972 
C 179.786198 174.949534 179.232714 173.739591 178.247645 172.847619 
C 177.262576 171.955647 175.926348 171.454472 174.53325 171.454472 
C 173.140152 171.454472 171.803924 171.955647 170.818855 172.847619 
C 169.833785 173.739591 169.280302 174.949534 169.280302 176.210972 
C 169.280302 177.472411 169.833785 178.682354 170.818855 179.574326 
C 171.803924 180.466297 173.140152 180.967472 174.53325 180.967472 
z
" style="fill:#feebe2;"/>
   </g>
   <g id="patch_8">
    <path clip-path="url(#pe0e8950137)" d="M 174.53325 194.557472 
C 175.926348 194.557472 177.262576 194.056297 178.247645 193.164326 
C 179.232714 192.272354 179.786198 191.062411 179.786198 189.800972 
C 179.786198 188.539534 179.232714 187.329591 178.247645 186.437619 
C 177.262576 185.545647 175.926348 185.044472 174.53325 185.044472 
C 173.140152 185.044472 171.803924 185.545647 170.818855 186.437619 
C 169.833785 187.329591 169.280302 188.539534 169.280302 189.800972 
C 169.280302 191.062411 169.833785 192.272354 170.818855 193.164326 
C 171.803924 194.056297 173.140152 194.557472 174.53325 194.557472 
z
" style="fill:#feebe2;"/>
   </g>
   <g id="patch_9">
    <path clip-path="url(#pe0e8950137)" d="M 174.53325 208.147472 
C 175.926348 208.147472 177.262576 207.646297 178.247645 206.754326 
C 179.232714 205.862354 179.786198 204.652411 179.786198 203.390972 
C 179.786198 202.129534 179.232714 200.919591 178.247645 200.027619 
C 177.262576 199.135647 175.926348 198.634472 174.53325 198.634472 
C 173.140152 198.634472 171.803924 199.135647 170.818855 200.027619 
C 169.833785 200.919591 169.280302 202.129534 169.280302 203.390972 
C 169.280302 204.652411 169.833785 205.862354 170.818855 206.754326 
C 171.803924 207.646297 173.140152 208.147472 174.53325 208.147472 
z
" style="fill:#feebe2;"/>
   </g>
   <g id="patch_10">
    <path clip-path="url(#pe0e8950137)" d="M 174.53325 221.737472 
C 175.926348 221.737472 177.262576 221.236297 178.247645 220.344326 
C 179.232714 219.452354 179.786198 218.242411 179.786198 216.980972 
C 179.786198 215.719534 179.232714 214.509591 178.247645 213.617619 
C 177.262576 212.725647 175.926348 212.224472 174.53325 212.224472 
C 173.140152 212.224472 171.803924 212.725647 170.818855 213.617619 
C 169.833785 214.509591 169.280302 215.719534 169.280302 216.980972 
C 169.280302 218.242411 169.833785 219.452354 170.818855 220.344326 
C 171.803924 221.236297 173.140152 221.737472 174.53325 221.737472 
z
" style="fill:#feebe2;"/>
   </g>
   <g id="patch_11">
    <path clip-path="url(#pe0e8950137)" d="M 174.53325 235.327472 
C 175.926348 235.327472 177.262576 234.826297 178.247645 233.934326 
C 179.232714 233.042354 179.786198 231.832411 179.786198 230.570972 
C 179.786198 229.309534 179.232714 228.099591 178.247645 227.207619 
C 177.262576 226.315647 175.926348 225.814472 174.53325 225.814472 
C 173.140152 225.814472 171.803924 226.315647 170.818855 227.207619 
C 169.833785 228.099591 169.280302 229.309534 169.280302 230.570972 
C 169.280302 231.832411 169.833785 233.042354 170.818855 233.934326 
C 171.803924 234.826297 173.140152 235.327472 174.53325 235.327472 
z
" style="fill:#feebe2;"/>
   </g>
   <g id="patch_12">
    <path clip-path="url(#pe0e8950137)" d="M 174.53325 248.917472 
C 175.926348 248.917472 177.262576 248.416297 178.247645 247.524326 
C 179.232714 246.632354 179.786198 245.422411 179.786198 244.160972 
C 179.786198 242.899534 179.232714 241.689591 178.247645 240.797619 
C 177.262576 239.905647 175.926348 239.404472 174.53325 239.404472 
C 173.140152 239.404472 171.803924 239.905647 170.818855 240.797619 
C 169.833785 241.689591 169.280302 242.899534 169.280302 244.160972 
C 169.280302 245.422411 169.833785 246.632354 170.818855 247.524326 
C 171.803924 248.416297 173.140152 248.917472 174.53325 248.917472 
z
" style="fill:#c51b8a;"/>
   </g>
   <g id="patch_13">
    <path clip-path="url(#pe0e8950137)" d="M 174.53325 262.507472 
C 175.926348 262.507472 177.262576 262.006297 178.247645 261.114326 
C 179.232714 260.222354 179.786198 259.012411 179.786198 257.750972 
C 179.786198 256.489534 179.232714 255.279591 178.247645 254.387619 
C 177.262576 253.495647 175.926348 252.994472 174.53325 252.994472 
C 173.140152 252.994472 171.803924 253.495647 170.818855 254.387619 
C 169.833785 255.279591 169.280302 256.489534 169.280302 257.750972 
C 169.280302 259.012411 169.833785 260.222354 170.818855 261.114326 
C 171.803924 262.006297 173.140152 262.507472 174.53325 262.507472 
z
" style="fill:#c51b8a;"/>
   </g>
   <g id="patch_14">
    <path clip-path="url(#pe0e8950137)" d="M 174.53325 276.097472 
C 175.926348 276.097472 177.262576 275.596297 178.247645 274.704326 
C 179.232714 273.812354 179.786198 272.602411 179.786198 271.340972 
C 179.786198 270.079534 179.232714 268.869591 178.247645 267.977619 
C 177.262576 267.085647 175.926348 266.584472 174.53325 266.584472 
C 173.140152 266.584472 171.803924 267.085647 170.818855 267.977619 
C 169.833785 268.869591 169.280302 270.079534 169.280302 271.340972 
C 169.280302 272.602411 169.833785 273.812354 170.818855 274.704326 
C 171.803924 275.596297 173.140152 276.097472 174.53325 276.097472 
z
" style="fill:#c51b8a;"/>
   </g>
   <g id="patch_15">
    <path clip-path="url(#pe0e8950137)" d="M 174.53325 284.930972 
L 174.53325 298.520972 
" style="fill:#1f77b4;stroke:#000000;stroke-linejoin:miter;"/>
   </g>
   <g id="patch_16">
    <path clip-path="url(#pe0e8950137)" d="M 174.53325 289.687472 
C 175.926348 289.687472 177.262576 289.186297 178.247645 288.294326 
C 179.232714 287.402354 179.786198 286.192411 179.786198 284.930972 
C 179.786198 283.669534 179.232714 282.459591 178.247645 281.567619 
C 177.262576 280.675647 175.926348 280.174472 174.53325 280.174472 
C 173.140152 280.174472 171.803924 280.675647 170.818855 281.567619 
C 169.833785 282.459591 169.280302 283.669534 169.280302 284.930972 
C 169.280302 286.192411 169.833785 287.402354 170.818855 288.294326 
C 171.803924 289.186297 173.140152 289.687472 174.53325 289.687472 
z
" style="fill:#7a0177;"/>
   </g>
   <g id="patch_17">
    <path clip-path="url(#pe0e8950137)" d="M 174.53325 303.277472 
C 175.926348 303.277472 177.262576 302.776297 178.247645 301.884326 
C 179.232714 300.992354 179.786198 299.782411 179.786198 298.520972 
C 179.786198 297.259534 179.232714 296.049591 178.247645 295.157619 
C 177.262576 294.265647 175.926348 293.764472 174.53325 293.764472 
C 173.140152 293.764472 171.803924 294.265647 170.818855 295.157619 
C 169.833785 296.049591 169.280302 297.259534 169.280302 298.520972 
C 169.280302 299.782411 169.833785 300.992354 170.818855 301.884326 
C 171.803924 302.776297 173.140152 303.277472 174.53325 303.277472 
z
" style="fill:#7a0177;"/>
   </g>
   <g id="patch_18">
    <path clip-path="url(#pe0e8950137)" d="M 174.53325 312.110972 
L 174.53325 325.700972 
" style="fill:#1f77b4;stroke:#000000;stroke-linejoin:miter;"/>
   </g>
   <g id="patch_19">
    <path clip-path="url(#pe0e8950137)" d="M 174.53325 316.867472 
C 175.926348 316.867472 177.262576 316.366297 178.247645 315.474326 
C 179.232714 314.582354 179.786198 313.372411 179.786198 312.110972 
C 179.786198 310.849534 179.232714 309.639591 178.247645 308.747619 
C 177.262576 307.855647 175.926348 307.354472 174.53325 307.354472 
C 173.140152 307.354472 171.803924 307.855647 170.818855 308.747619 
C 169.833785 309.639591 169.280302 310.849534 169.280302 312.110972 
C 169.280302 313.372411 169.833785 314.582354 170.818855 315.474326 
C 171.803924 316.366297 173.140152 316.867472 174.53325 316.867472 
z
" style="fill:#feebe2;"/>
   </g>
   <g id="patch_20">
    <path clip-path="url(#pe0e8950137)" d="M 174.53325 330.457472 
C 175.926348 330.457472 177.262576 329.956297 178.247645 329.064326 
C 179.232714 328.172354 179.786198 326.962411 179.786198 325.700972 
C 179.786198 324.439534 179.232714 323.229591 178.247645 322.337619 
C 177.262576 321.445647 175.926348 320.944472 174.53325 320.944472 
C 173.140152 320.944472 171.803924 321.445647 170.818855 322.337619 
C 169.833785 323.229591 169.280302 324.439534 169.280302 325.700972 
C 169.280302 326.962411 169.833785 328.172354 170.818855 329.064326 
C 171.803924 329.956297 173.140152 330.457472 174.53325 330.457472 
z
" style="fill:#feebe2;"/>
   </g>
   <g id="patch_21">
    <path clip-path="url(#pe0e8950137)" d="M 174.53325 339.290972 
L 174.53325 366.470972 
" style="fill:#1f77b4;stroke:#000000;stroke-linejoin:miter;"/>
   </g>
   <g id="patch_22">
    <path clip-path="url(#pe0e8950137)" d="M 174.53325 352.880972 
L 174.53325 366.470972 
" style="fill:#1f77b4;stroke:#000000;stroke-linejoin:miter;"/>
   </g>
   <g id="patch_23">
    <path clip-path="url(#pe0e8950137)" d="M 174.53325 344.047472 
C 175.926348 344.047472 177.262576 343.546297 178.247645 342.654326 
C 179.232714 341.762354 179.786198 340.552411 179.786198 339.290972 
C 179.786198 338.029534 179.232714 336.819591 178.247645 335.927619 
C 177.262576 335.035647 175.926348 334.534472 174.53325 334.534472 
C 173.140152 334.534472 171.803924 335.035647 170.818855 335.927619 
C 169.833785 336.819591 169.280302 338.029534 169.280302 339.290972 
C 169.280302 340.552411 169.833785 341.762354 170.818855 342.654326 
C 171.803924 343.546297 173.140152 344.047472 174.53325 344.047472 
z
" style="fill:#7a0177;"/>
   </g>
   <g id="patch_24">
    <path clip-path="url(#pe0e8950137)" d="M 174.53325 357.637472 
C 175.926348 357.637472 177.262576 357.136297 178.247645 356.244326 
C 179.232714 355.352354 179.786198 354.142411 179.786198 352.880972 
C 179.786198 351.619534 179.232714 350.409591 178.247645 349.517619 
C 177.262576 348.625647 175.926348 348.124472 174.53325 348.124472 
C 173.140152 348.124472 171.803924 348.625647 170.818855 349.517619 
C 169.833785 350.409591 169.280302 351.619534 169.280302 352.880972 
C 169.280302 354.142411 169.833785 355.352354 170.818855 356.244326 
C 171.803924 357.136297 173.140152 357.637472 174.53325 357.637472 
z
" style="fill:#7a0177;"/>
   </g>
   <g id="patch_25">
    <path clip-path="url(#pe0e8950137)" d="M 174.53325 371.227472 
C 175.926348 371.227472 177.262576 370.726297 178.247645 369.834326 
C 179.232714 368.942354 179.786198 367.732411 179.786198 366.470972 
C 179.786198 365.209534 179.232714 363.999591 178.247645 363.107619 
C 177.262576 362.215647 175.926348 361.714472 174.53325 361.714472 
C 173.140152 361.714472 171.803924 362.215647 170.818855 363.107619 
C 169.833785 363.999591 169.280302 365.209534 169.280302 366.470972 
C 169.280302 367.732411 169.833785 368.942354 170.818855 369.834326 
C 171.803924 370.726297 173.140152 371.227472 174.53325 371.227472 
z
" style="fill:#7a0177;"/>
   </g>
   <g id="patch_26">
    <path clip-path="url(#pe0e8950137)" d="M 174.53325 380.060972 
L 174.53325 407.240972 
" style="fill:#1f77b4;stroke:#000000;stroke-linejoin:miter;"/>
   </g>
   <g id="patch_27">
    <path clip-path="url(#pe0e8950137)" d="M 174.53325 393.650972 
L 174.53325 407.240972 
" style="fill:#1f77b4;stroke:#000000;stroke-linejoin:miter;"/>
   </g>
   <g id="patch_28">
    <path clip-path="url(#pe0e8950137)" d="M 174.53325 384.817472 
C 175.926348 384.817472 177.262576 384.316297 178.247645 383.424326 
C 179.232714 382.532354 179.786198 381.322411 179.786198 380.060972 
C 179.786198 378.799534 179.232714 377.589591 178.247645 376.697619 
C 177.262576 375.805647 175.926348 375.304472 174.53325 375.304472 
C 173.140152 375.304472 171.803924 375.805647 170.818855 376.697619 
C 169.833785 377.589591 169.280302 378.799534 169.280302 380.060972 
C 169.280302 381.322411 169.833785 382.532354 170.818855 383.424326 
C 171.803924 384.316297 173.140152 384.817472 174.53325 384.817472 
z
" style="fill:#7a0177;"/>
   </g>
   <g id="patch_29">
    <path clip-path="url(#pe0e8950137)" d="M 174.53325 398.407472 
C 175.926348 398.407472 177.262576 397.906297 178.247645 397.014326 
C 179.232714 396.122354 179.786198 394.912411 179.786198 393.650972 
C 179.786198 392.389534 179.232714 391.179591 178.247645 390.287619 
C 177.262576 389.395647 175.926348 388.894472 174.53325 388.894472 
C 173.140152 388.894472 171.803924 389.395647 170.818855 390.287619 
C 169.833785 391.179591 169.280302 392.389534 169.280302 393.650972 
C 169.280302 394.912411 169.833785 396.122354 170.818855 397.014326 
C 171.803924 397.906297 173.140152 398.407472 174.53325 398.407472 
z
" style="fill:#7a0177;"/>
   </g>
   <g id="patch_30">
    <path clip-path="url(#pe0e8950137)" d="M 174.53325 411.997472 
C 175.926348 411.997472 177.262576 411.496297 178.247645 410.604326 
C 179.232714 409.712354 179.786198 408.502411 179.786198 407.240972 
C 179.786198 405.979534 179.232714 404.769591 178.247645 403.877619 
C 177.262576 402.985647 175.926348 402.484472 174.53325 402.484472 
C 173.140152 402.484472 171.803924 402.985647 170.818855 403.877619 
C 169.833785 404.769591 169.280302 405.979534 169.280302 407.240972 
C 169.280302 408.502411 169.833785 409.712354 170.818855 410.604326 
C 171.803924 411.496297 173.140152 411.997472 174.53325 411.997472 
z
" style="fill:#7a0177;"/>
   </g>
   <g id="patch_31">
    <path clip-path="url(#pe0e8950137)" d="M 174.53325 420.9858 
L 185.940774 441.215972 
" style="fill:#1f77b4;stroke:#000000;stroke-linejoin:miter;"/>
   </g>
   <g id="patch_32">
    <path clip-path="url(#pe0e8950137)" d="M 174.53325 420.9858 
L 197.045884 420.830972 
" style="fill:#1f77b4;stroke:#000000;stroke-linejoin:miter;"/>
   </g>
   <g id="patch_33">
    <path clip-path="url(#pe0e8950137)" d="M 197.045884 420.830972 
L 185.940774 441.215972 
" style="fill:#1f77b4;stroke:#000000;stroke-linejoin:miter;"/>
   </g>
   <g id="patch_34">
    <path clip-path="url(#pe0e8950137)" d="M 174.53325 425.7423 
C 175.926348 425.7423 177.262576 425.241125 178.247645 424.349153 
C 179.232714 423.457182 179.786198 422.247239 179.786198 420.9858 
C 179.786198 419.724361 179.232714 418.514418 178.247645 417.622447 
C 177.262576 416.730475 175.926348 416.2293 174.53325 416.2293 
C 173.140152 416.2293 171.803924 416.730475 170.818855 417.622447 
C 169.833785 418.514418 169.280302 419.724361 169.280302 420.9858 
C 169.280302 422.247239 169.833785 423.457182 170.818855 424.349153 
C 171.803924 425.241125 173.140152 425.7423 174.53325 425.7423 
z
" style="fill:#7a0177;"/>
   </g>
   <g id="patch_35">
    <path clip-path="url(#pe0e8950137)" d="M 197.045884 425.587472 
C 198.438982 425.587472 199.77521 425.086297 200.76028 424.194326 
C 201.745349 423.302354 202.298832 422.092411 202.298832 420.830972 
C 202.298832 419.569534 201.745349 418.359591 200.76028 417.467619 
C 199.77521 416.575647 198.438982 416.074472 197.045884 416.074472 
C 195.652786 416.074472 194.316558 416.575647 193.331489 417.467619 
C 192.34642 418.359591 191.792936 419.569534 191.792936 420.830972 
C 191.792936 422.092411 192.34642 423.302354 193.331489 424.194326 
C 194.316558 425.086297 195.652786 425.587472 197.045884 425.587472 
z
" style="fill:#7a0177;"/>
   </g>
   <g id="patch_36">
    <path clip-path="url(#pe0e8950137)" d="M 185.940774 445.972472 
C 187.333872 445.972472 188.6701 445.471297 189.655169 444.579326 
C 190.640238 443.687354 191.193722 442.477411 191.193722 441.215972 
C 191.193722 439.954534 190.640238 438.744591 189.655169 437.852619 
C 188.6701 436.960647 187.333872 436.459472 185.940774 436.459472 
C 184.547676 436.459472 183.211448 436.960647 182.226378 437.852619 
C 181.241309 438.744591 180.687826 439.954534 180.687826 441.215972 
C 180.687826 442.477411 181.241309 443.687354 182.226378 444.579326 
C 183.211448 445.471297 184.547676 445.972472 185.940774 445.972472 
z
" style="fill:#7a0177;"/>
   </g>
   <g id="patch_37">
    <path clip-path="url(#pe0e8950137)" d="M 174.53325 495.575972 
L 189.429509 487.502008 
" style="fill:#1f77b4;stroke:#000000;stroke-linejoin:miter;"/>
   </g>
   <g id="patch_38">
    <path clip-path="url(#pe0e8950137)" d="M 219.558519 479.196088 
L 203.887896 476.358529 
" style="fill:#1f77b4;stroke:#000000;stroke-linejoin:miter;"/>
   </g>
   <g id="patch_39">
    <path clip-path="url(#pe0e8950137)" d="M 219.558519 479.196088 
L 213.434789 454.805972 
" style="fill:#1f77b4;stroke:#000000;stroke-linejoin:miter;"/>
   </g>
   <g id="patch_40">
    <path clip-path="url(#pe0e8950137)" d="M 189.429509 487.502008 
L 203.887896 476.358529 
" style="fill:#1f77b4;stroke:#000000;stroke-linejoin:miter;"/>
   </g>
   <g id="patch_41">
    <path clip-path="url(#pe0e8950137)" d="M 203.887896 476.358529 
L 213.434789 454.805972 
" style="fill:#1f77b4;stroke:#000000;stroke-linejoin:miter;"/>
   </g>
   <g id="patch_42">
    <path clip-path="url(#pe0e8950137)" d="M 174.53325 500.332472 
C 175.926348 500.332472 177.262576 499.831297 178.247645 498.939326 
C 179.232714 498.047354 179.786198 496.837411 179.786198 495.575972 
C 179.786198 494.314534 179.232714 493.104591 178.247645 492.212619 
C 177.262576 491.320647 175.926348 490.819472 174.53325 490.819472 
C 173.140152 490.819472 171.803924 491.320647 170.818855 492.212619 
C 169.833785 493.104591 169.280302 494.314534 169.280302 495.575972 
C 169.280302 496.837411 169.833785 498.047354 170.818855 498.939326 
C 171.803924 499.831297 173.140152 500.332472 174.53325 500.332472 
z
" style="fill:#fbb4b9;"/>
   </g>
   <g id="patch_43">
    <path clip-path="url(#pe0e8950137)" d="M 219.558519 483.952588 
C 220.951617 483.952588 222.287845 483.451414 223.272914 482.559442 
C 224.257983 481.66747 224.811467 480.457527 224.811467 479.196088 
C 224.811467 477.93465 224.257983 476.724707 223.272914 475.832735 
C 222.287845 474.940763 220.951617 474.439588 219.558519 474.439588 
C 218.165421 474.439588 216.829193 474.940763 215.844124 475.832735 
C 214.859055 476.724707 214.305571 477.93465 214.305571 479.196088 
C 214.305571 480.457527 214.859055 481.66747 215.844124 482.559442 
C 216.829193 483.451414 218.165421 483.952588 219.558519 483.952588 
z
" style="fill:#c51b8a;"/>
   </g>
   <g id="patch_44">
    <path clip-path="url(#pe0e8950137)" d="M 189.429509 492.258508 
C 190.822607 492.258508 192.158835 491.757333 193.143904 490.865361 
C 194.128973 489.97339 194.682457 488.763446 194.682457 487.502008 
C 194.682457 486.240569 194.128973 485.030626 193.143904 484.138654 
C 192.158835 483.246683 190.822607 482.745508 189.429509 482.745508 
C 188.036411 482.745508 186.700183 483.246683 185.715113 484.138654 
C 184.730044 485.030626 184.176561 486.240569 184.176561 487.502008 
C 184.176561 488.763446 184.730044 489.97339 185.715113 490.865361 
C 186.700183 491.757333 188.036411 492.258508 189.429509 492.258508 
z
" style="fill:#fbb4b9;"/>
   </g>
   <g id="patch_45">
    <path clip-path="url(#pe0e8950137)" d="M 203.887896 481.115029 
C 205.280994 481.115029 206.617222 480.613854 207.602291 479.721882 
C 208.587361 478.829911 209.140844 477.619968 209.140844 476.358529 
C 209.140844 475.09709 208.587361 473.887147 207.602291 472.995176 
C 206.617222 472.103204 205.280994 471.602029 203.887896 471.602029 
C 202.494798 471.602029 201.15857 472.103204 200.173501 472.995176 
C 199.188432 473.887147 198.634948 475.09709 198.634948 476.358529 
C 198.634948 477.619968 199.188432 478.829911 200.173501 479.721882 
C 201.15857 480.613854 202.494798 481.115029 203.887896 481.115029 
z
" style="fill:#f768a1;"/>
   </g>
   <g id="patch_46">
    <path clip-path="url(#pe0e8950137)" d="M 213.434789 459.562472 
C 214.827887 459.562472 216.164115 459.061297 217.149184 458.169326 
C 218.134253 457.277354 218.687737 456.067411 218.687737 454.805972 
C 218.687737 453.544534 218.134253 452.334591 217.149184 451.442619 
C 216.164115 450.550647 214.827887 450.049472 213.434789 450.049472 
C 212.041691 450.049472 210.705463 450.550647 209.720394 451.442619 
C 208.735325 452.334591 208.181841 453.544534 208.181841 454.805972 
C 208.181841 456.067411 208.735325 457.277354 209.720394 458.169326 
C 210.705463 459.061297 212.041691 459.562472 213.434789 459.562472 
z
" style="fill:#c51b8a;"/>
   </g>
   <g id="patch_47">
    <path clip-path="url(#pe0e8950137)" d="M 174.53325 532.927176 
L 195.497538 549.935972 
" style="fill:#1f77b4;stroke:#000000;stroke-linejoin:miter;"/>
   </g>
   <g id="patch_48">
    <path clip-path="url(#pe0e8950137)" d="M 174.53325 532.927176 
L 219.558519 536.752087 
" style="fill:#1f77b4;stroke:#000000;stroke-linejoin:miter;"/>
   </g>
   <g id="patch_49">
    <path clip-path="url(#pe0e8950137)" d="M 174.53325 532.927176 
L 213.28477 511.652685 
" style="fill:#1f77b4;stroke:#000000;stroke-linejoin:miter;"/>
   </g>
   <g id="patch_50">
    <path clip-path="url(#pe0e8950137)" d="M 174.53325 532.927176 
L 185.548475 509.165972 
" style="fill:#1f77b4;stroke:#000000;stroke-linejoin:miter;"/>
   </g>
   <g id="patch_51">
    <path clip-path="url(#pe0e8950137)" d="M 219.558519 536.752087 
L 195.497538 549.935972 
" style="fill:#1f77b4;stroke:#000000;stroke-linejoin:miter;"/>
   </g>
   <g id="patch_52">
    <path clip-path="url(#pe0e8950137)" d="M 219.558519 536.752087 
L 213.28477 511.652685 
" style="fill:#1f77b4;stroke:#000000;stroke-linejoin:miter;"/>
   </g>
   <g id="patch_53">
    <path clip-path="url(#pe0e8950137)" d="M 219.558519 536.752087 
L 185.548475 509.165972 
" style="fill:#1f77b4;stroke:#000000;stroke-linejoin:miter;"/>
   </g>
   <g id="patch_54">
    <path clip-path="url(#pe0e8950137)" d="M 195.497538 549.935972 
L 213.28477 511.652685 
" style="fill:#1f77b4;stroke:#000000;stroke-linejoin:miter;"/>
   </g>
   <g id="patch_55">
    <path clip-path="url(#pe0e8950137)" d="M 195.497538 549.935972 
L 185.548475 509.165972 
" style="fill:#1f77b4;stroke:#000000;stroke-linejoin:miter;"/>
   </g>
   <g id="patch_56">
    <path clip-path="url(#pe0e8950137)" d="M 185.548475 509.165972 
L 213.28477 511.652685 
" style="fill:#1f77b4;stroke:#000000;stroke-linejoin:miter;"/>
   </g>
   <g id="patch_57">
    <path clip-path="url(#pe0e8950137)" d="M 174.53325 537.683676 
C 175.926348 537.683676 177.262576 537.182501 178.247645 536.290529 
C 179.232714 535.398558 179.786198 534.188615 179.786198 532.927176 
C 179.786198 531.665737 179.232714 530.455794 178.247645 529.563823 
C 177.262576 528.671851 175.926348 528.170676 174.53325 528.170676 
C 173.140152 528.170676 171.803924 528.671851 170.818855 529.563823 
C 169.833785 530.455794 169.280302 531.665737 169.280302 532.927176 
C 169.280302 534.188615 169.833785 535.398558 170.818855 536.290529 
C 171.803924 537.182501 173.140152 537.683676 174.53325 537.683676 
z
" style="fill:#7a0177;"/>
   </g>
   <g id="patch_58">
    <path clip-path="url(#pe0e8950137)" d="M 219.558519 541.508587 
C 220.951617 541.508587 222.287845 541.007413 223.272914 540.115441 
C 224.257983 539.223469 224.811467 538.013526 224.811467 536.752087 
C 224.811467 535.490649 224.257983 534.280706 223.272914 533.388734 
C 222.287845 532.496762 220.951617 531.995587 219.558519 531.995587 
C 218.165421 531.995587 216.829193 532.496762 215.844124 533.388734 
C 214.859055 534.280706 214.305571 535.490649 214.305571 536.752087 
C 214.305571 538.013526 214.859055 539.223469 215.844124 540.115441 
C 216.829193 541.007413 218.165421 541.508587 219.558519 541.508587 
z
" style="fill:#7a0177;"/>
   </g>
   <g id="patch_59">
    <path clip-path="url(#pe0e8950137)" d="M 195.497538 554.692472 
C 196.890636 554.692472 198.226864 554.191297 199.211933 553.299326 
C 200.197002 552.407354 200.750486 551.197411 200.750486 549.935972 
C 200.750486 548.674534 200.197002 547.464591 199.211933 546.572619 
C 198.226864 545.680647 196.890636 545.179472 195.497538 545.179472 
C 194.10444 545.179472 192.768212 545.680647 191.783143 546.572619 
C 190.798074 547.464591 190.24459 548.674534 190.24459 549.935972 
C 190.24459 551.197411 190.798074 552.407354 191.783143 553.299326 
C 192.768212 554.191297 194.10444 554.692472 195.497538 554.692472 
z
" style="fill:#7a0177;"/>
   </g>
   <g id="patch_60">
    <path clip-path="url(#pe0e8950137)" d="M 185.548475 513.922472 
C 186.941573 513.922472 188.277801 513.421297 189.26287 512.529326 
C 190.247939 511.637354 190.801423 510.427411 190.801423 509.165972 
C 190.801423 507.904534 190.247939 506.694591 189.26287 505.802619 
C 188.277801 504.910647 186.941573 504.409472 185.548475 504.409472 
C 184.155377 504.409472 182.819149 504.910647 181.83408 505.802619 
C 180.849011 506.694591 180.295527 507.904534 180.295527 509.165972 
C 180.295527 510.427411 180.849011 511.637354 181.83408 512.529326 
C 182.819149 513.421297 184.155377 513.922472 185.548475 513.922472 
z
" style="fill:#7a0177;"/>
   </g>
   <g id="patch_61">
    <path clip-path="url(#pe0e8950137)" d="M 213.28477 516.409185 
C 214.677868 516.409185 216.014096 515.90801 216.999165 515.016038 
C 217.984234 514.124066 218.537718 512.914123 218.537718 511.652685 
C 218.537718 510.391246 217.984234 509.181303 216.999165 508.289331 
C 216.014096 507.39736 214.677868 506.896185 213.28477 506.896185 
C 211.891671 506.896185 210.555443 507.39736 209.570374 508.289331 
C 208.585305 509.181303 208.031821 510.391246 208.031821 511.652685 
C 208.031821 512.914123 208.585305 514.124066 209.570374 515.016038 
C 210.555443 515.90801 211.891671 516.409185 213.28477 516.409185 
z
" style="fill:#7a0177;"/>
   </g>
   <g id="patch_62">
    <path clip-path="url(#pe0e8950137)" d="M 230.457227 646.712979 
L 250.397968 648.286122 
" style="fill:#1f77b4;stroke:#000000;stroke-linejoin:miter;"/>
   </g>
   <g id="patch_63">
    <path clip-path="url(#pe0e8950137)" d="M 230.457227 646.712979 
L 256.035317 625.84903 
" style="fill:#1f77b4;stroke:#000000;stroke-linejoin:miter;"/>
   </g>
   <g id="patch_64">
    <path clip-path="url(#pe0e8950137)" d="M 230.457227 646.712979 
L 277.265648 633.027202 
" style="fill:#1f77b4;stroke:#000000;stroke-linejoin:miter;"/>
   </g>
   <g id="patch_65">
    <path clip-path="url(#pe0e8950137)" d="M 230.457227 646.712979 
L 219.49203 624.07217 
" style="fill:#1f77b4;stroke:#000000;stroke-linejoin:miter;"/>
   </g>
   <g id="patch_66">
    <path clip-path="url(#pe0e8950137)" d="M 230.457227 646.712979 
L 210.612284 663.256445 
" style="fill:#1f77b4;stroke:#000000;stroke-linejoin:miter;"/>
   </g>
   <g id="patch_67">
    <path clip-path="url(#pe0e8950137)" d="M 230.457227 646.712979 
L 277.464613 648.982153 
" style="fill:#1f77b4;stroke:#000000;stroke-linejoin:miter;"/>
   </g>
   <g id="patch_68">
    <path clip-path="url(#pe0e8950137)" d="M 230.457227 646.712979 
L 209.514291 643.224337 
" style="fill:#1f77b4;stroke:#000000;stroke-linejoin:miter;"/>
   </g>
   <g id="patch_69">
    <path clip-path="url(#pe0e8950137)" d="M 230.457227 646.712979 
L 297.928559 645.244524 
" style="fill:#1f77b4;stroke:#000000;stroke-linejoin:miter;"/>
   </g>
   <g id="patch_70">
    <path clip-path="url(#pe0e8950137)" d="M 230.457227 646.712979 
L 240.995017 638.139916 
" style="fill:#1f77b4;stroke:#000000;stroke-linejoin:miter;"/>
   </g>
   <g id="patch_71">
    <path clip-path="url(#pe0e8950137)" d="M 230.457227 646.712979 
L 252.87398 665.089892 
" style="fill:#1f77b4;stroke:#000000;stroke-linejoin:miter;"/>
   </g>
   <g id="patch_72">
    <path clip-path="url(#pe0e8950137)" d="M 312.062461 665.316244 
L 277.464613 648.982153 
" style="fill:#1f77b4;stroke:#000000;stroke-linejoin:miter;"/>
   </g>
   <g id="patch_73">
    <path clip-path="url(#pe0e8950137)" d="M 312.062461 665.316244 
L 297.928559 645.244524 
" style="fill:#1f77b4;stroke:#000000;stroke-linejoin:miter;"/>
   </g>
   <g id="patch_74">
    <path clip-path="url(#pe0e8950137)" d="M 312.062461 665.316244 
L 252.87398 665.089892 
" style="fill:#1f77b4;stroke:#000000;stroke-linejoin:miter;"/>
   </g>
   <g id="patch_75">
    <path clip-path="url(#pe0e8950137)" d="M 250.397968 648.286122 
L 256.035317 625.84903 
" style="fill:#1f77b4;stroke:#000000;stroke-linejoin:miter;"/>
   </g>
   <g id="patch_76">
    <path clip-path="url(#pe0e8950137)" d="M 250.397968 648.286122 
L 277.265648 633.027202 
" style="fill:#1f77b4;stroke:#000000;stroke-linejoin:miter;"/>
   </g>
   <g id="patch_77">
    <path clip-path="url(#pe0e8950137)" d="M 250.397968 648.286122 
L 219.49203 624.07217 
" style="fill:#1f77b4;stroke:#000000;stroke-linejoin:miter;"/>
   </g>
   <g id="patch_78">
    <path clip-path="url(#pe0e8950137)" d="M 250.397968 648.286122 
L 210.612284 663.256445 
" style="fill:#1f77b4;stroke:#000000;stroke-linejoin:miter;"/>
   </g>
   <g id="patch_79">
    <path clip-path="url(#pe0e8950137)" d="M 250.397968 648.286122 
L 277.464613 648.982153 
" style="fill:#1f77b4;stroke:#000000;stroke-linejoin:miter;"/>
   </g>
   <g id="patch_80">
    <path clip-path="url(#pe0e8950137)" d="M 250.397968 648.286122 
L 209.514291 643.224337 
" style="fill:#1f77b4;stroke:#000000;stroke-linejoin:miter;"/>
   </g>
   <g id="patch_81">
    <path clip-path="url(#pe0e8950137)" d="M 250.397968 648.286122 
L 297.928559 645.244524 
" style="fill:#1f77b4;stroke:#000000;stroke-linejoin:miter;"/>
   </g>
   <g id="patch_82">
    <path clip-path="url(#pe0e8950137)" d="M 250.397968 648.286122 
L 240.995017 638.139916 
" style="fill:#1f77b4;stroke:#000000;stroke-linejoin:miter;"/>
   </g>
   <g id="patch_83">
    <path clip-path="url(#pe0e8950137)" d="M 250.397968 648.286122 
L 252.87398 665.089892 
" style="fill:#1f77b4;stroke:#000000;stroke-linejoin:miter;"/>
   </g>
   <g id="patch_84">
    <path clip-path="url(#pe0e8950137)" d="M 256.035317 625.84903 
L 277.265648 633.027202 
" style="fill:#1f77b4;stroke:#000000;stroke-linejoin:miter;"/>
   </g>
   <g id="patch_85">
    <path clip-path="url(#pe0e8950137)" d="M 256.035317 625.84903 
L 219.49203 624.07217 
" style="fill:#1f77b4;stroke:#000000;stroke-linejoin:miter;"/>
   </g>
   <g id="patch_86">
    <path clip-path="url(#pe0e8950137)" d="M 256.035317 625.84903 
L 277.464613 648.982153 
" style="fill:#1f77b4;stroke:#000000;stroke-linejoin:miter;"/>
   </g>
   <g id="patch_87">
    <path clip-path="url(#pe0e8950137)" d="M 256.035317 625.84903 
L 239.705427 602.962063 
" style="fill:#1f77b4;stroke:#000000;stroke-linejoin:miter;"/>
   </g>
   <g id="patch_88">
    <path clip-path="url(#pe0e8950137)" d="M 256.035317 625.84903 
L 209.514291 643.224337 
" style="fill:#1f77b4;stroke:#000000;stroke-linejoin:miter;"/>
   </g>
   <g id="patch_89">
    <path clip-path="url(#pe0e8950137)" d="M 256.035317 625.84903 
L 297.928559 645.244524 
" style="fill:#1f77b4;stroke:#000000;stroke-linejoin:miter;"/>
   </g>
   <g id="patch_90">
    <path clip-path="url(#pe0e8950137)" d="M 256.035317 625.84903 
L 240.995017 638.139916 
" style="fill:#1f77b4;stroke:#000000;stroke-linejoin:miter;"/>
   </g>
   <g id="patch_91">
    <path clip-path="url(#pe0e8950137)" d="M 277.265648 633.027202 
L 219.49203 624.07217 
" style="fill:#1f77b4;stroke:#000000;stroke-linejoin:miter;"/>
   </g>
   <g id="patch_92">
    <path clip-path="url(#pe0e8950137)" d="M 277.265648 633.027202 
L 277.464613 648.982153 
" style="fill:#1f77b4;stroke:#000000;stroke-linejoin:miter;"/>
   </g>
   <g id="patch_93">
    <path clip-path="url(#pe0e8950137)" d="M 277.265648 633.027202 
L 209.514291 643.224337 
" style="fill:#1f77b4;stroke:#000000;stroke-linejoin:miter;"/>
   </g>
   <g id="patch_94">
    <path clip-path="url(#pe0e8950137)" d="M 277.265648 633.027202 
L 297.928559 645.244524 
" style="fill:#1f77b4;stroke:#000000;stroke-linejoin:miter;"/>
   </g>
   <g id="patch_95">
    <path clip-path="url(#pe0e8950137)" d="M 277.265648 633.027202 
L 240.995017 638.139916 
" style="fill:#1f77b4;stroke:#000000;stroke-linejoin:miter;"/>
   </g>
   <g id="patch_96">
    <path clip-path="url(#pe0e8950137)" d="M 215.077949 688.709672 
L 210.612284 663.256445 
" style="fill:#1f77b4;stroke:#000000;stroke-linejoin:miter;"/>
   </g>
   <g id="patch_97">
    <path clip-path="url(#pe0e8950137)" d="M 215.077949 688.709672 
L 215.918025 710.524298 
" style="fill:#1f77b4;stroke:#000000;stroke-linejoin:miter;"/>
   </g>
   <g id="patch_98">
    <path clip-path="url(#pe0e8950137)" d="M 219.49203 624.07217 
L 239.705427 602.962063 
" style="fill:#1f77b4;stroke:#000000;stroke-linejoin:miter;"/>
   </g>
   <g id="patch_99">
    <path clip-path="url(#pe0e8950137)" d="M 219.49203 624.07217 
L 209.514291 643.224337 
" style="fill:#1f77b4;stroke:#000000;stroke-linejoin:miter;"/>
   </g>
   <g id="patch_100">
    <path clip-path="url(#pe0e8950137)" d="M 219.49203 624.07217 
L 240.995017 638.139916 
" style="fill:#1f77b4;stroke:#000000;stroke-linejoin:miter;"/>
   </g>
   <g id="patch_101">
    <path clip-path="url(#pe0e8950137)" d="M 210.612284 663.256445 
L 209.514291 643.224337 
" style="fill:#1f77b4;stroke:#000000;stroke-linejoin:miter;"/>
   </g>
   <g id="patch_102">
    <path clip-path="url(#pe0e8950137)" d="M 210.612284 663.256445 
L 240.995017 638.139916 
" style="fill:#1f77b4;stroke:#000000;stroke-linejoin:miter;"/>
   </g>
   <g id="patch_103">
    <path clip-path="url(#pe0e8950137)" d="M 210.612284 663.256445 
L 252.87398 665.089892 
" style="fill:#1f77b4;stroke:#000000;stroke-linejoin:miter;"/>
   </g>
   <g id="patch_104">
    <path clip-path="url(#pe0e8950137)" d="M 186.640654 677.029934 
L 252.87398 665.089892 
" style="fill:#1f77b4;stroke:#000000;stroke-linejoin:miter;"/>
   </g>
   <g id="patch_105">
    <path clip-path="url(#pe0e8950137)" d="M 252.87398 665.089892 
L 277.464613 648.982153 
" style="fill:#1f77b4;stroke:#000000;stroke-linejoin:miter;"/>
   </g>
   <g id="patch_106">
    <path clip-path="url(#pe0e8950137)" d="M 252.87398 665.089892 
L 209.514291 643.224337 
" style="fill:#1f77b4;stroke:#000000;stroke-linejoin:miter;"/>
   </g>
   <g id="patch_107">
    <path clip-path="url(#pe0e8950137)" d="M 252.87398 665.089892 
L 297.928559 645.244524 
" style="fill:#1f77b4;stroke:#000000;stroke-linejoin:miter;"/>
   </g>
   <g id="patch_108">
    <path clip-path="url(#pe0e8950137)" d="M 239.705427 602.962063 
L 200.221876 585.875354 
" style="fill:#1f77b4;stroke:#000000;stroke-linejoin:miter;"/>
   </g>
   <g id="patch_109">
    <path clip-path="url(#pe0e8950137)" d="M 239.705427 602.962063 
L 292.490175 589.649765 
" style="fill:#1f77b4;stroke:#000000;stroke-linejoin:miter;"/>
   </g>
   <g id="patch_110">
    <path clip-path="url(#pe0e8950137)" d="M 239.705427 602.962063 
L 271.878847 584.138106 
" style="fill:#1f77b4;stroke:#000000;stroke-linejoin:miter;"/>
   </g>
   <g id="patch_111">
    <path clip-path="url(#pe0e8950137)" d="M 239.705427 602.962063 
L 174.53325 596.044195 
" style="fill:#1f77b4;stroke:#000000;stroke-linejoin:miter;"/>
   </g>
   <g id="patch_112">
    <path clip-path="url(#pe0e8950137)" d="M 209.514291 643.224337 
L 277.464613 648.982153 
" style="fill:#1f77b4;stroke:#000000;stroke-linejoin:miter;"/>
   </g>
   <g id="patch_113">
    <path clip-path="url(#pe0e8950137)" d="M 209.514291 643.224337 
L 240.995017 638.139916 
" style="fill:#1f77b4;stroke:#000000;stroke-linejoin:miter;"/>
   </g>
   <g id="patch_114">
    <path clip-path="url(#pe0e8950137)" d="M 289.770983 563.525972 
L 292.490175 589.649765 
" style="fill:#1f77b4;stroke:#000000;stroke-linejoin:miter;"/>
   </g>
   <g id="patch_115">
    <path clip-path="url(#pe0e8950137)" d="M 200.221876 585.875354 
L 174.53325 596.044195 
" style="fill:#1f77b4;stroke:#000000;stroke-linejoin:miter;"/>
   </g>
   <g id="patch_116">
    <path clip-path="url(#pe0e8950137)" d="M 336.874167 574.436115 
L 271.878847 584.138106 
" style="fill:#1f77b4;stroke:#000000;stroke-linejoin:miter;"/>
   </g>
   <g id="patch_117">
    <path clip-path="url(#pe0e8950137)" d="M 297.928559 645.244524 
L 277.464613 648.982153 
" style="fill:#1f77b4;stroke:#000000;stroke-linejoin:miter;"/>
   </g>
   <g id="patch_118">
    <path clip-path="url(#pe0e8950137)" d="M 297.928559 645.244524 
L 240.995017 638.139916 
" style="fill:#1f77b4;stroke:#000000;stroke-linejoin:miter;"/>
   </g>
   <g id="patch_119">
    <path clip-path="url(#pe0e8950137)" d="M 240.995017 638.139916 
L 277.464613 648.982153 
" style="fill:#1f77b4;stroke:#000000;stroke-linejoin:miter;"/>
   </g>
   <g id="patch_120">
    <path clip-path="url(#pe0e8950137)" d="M 230.457227 651.469479 
C 231.850325 651.469479 233.186553 650.968305 234.171622 650.076333 
C 235.156691 649.184361 235.710175 647.974418 235.710175 646.712979 
C 235.710175 645.451541 235.156691 644.241598 234.171622 643.349626 
C 233.186553 642.457654 231.850325 641.956479 230.457227 641.956479 
C 229.064129 641.956479 227.727901 642.457654 226.742832 643.349626 
C 225.757763 644.241598 225.204279 645.451541 225.204279 646.712979 
C 225.204279 647.974418 225.757763 649.184361 226.742832 650.076333 
C 227.727901 650.968305 229.064129 651.469479 230.457227 651.469479 
z
" style="fill:#7a0177;"/>
   </g>
   <g id="patch_121">
    <path clip-path="url(#pe0e8950137)" d="M 312.062461 670.072744 
C 313.45556 670.072744 314.791788 669.571569 315.776857 668.679597 
C 316.761926 667.787625 317.31541 666.577682 317.31541 665.316244 
C 317.31541 664.054805 316.761926 662.844862 315.776857 661.95289 
C 314.791788 661.060918 313.45556 660.559744 312.062461 660.559744 
C 310.669363 660.559744 309.333135 661.060918 308.348066 661.95289 
C 307.362997 662.844862 306.809513 664.054805 306.809513 665.316244 
C 306.809513 666.577682 307.362997 667.787625 308.348066 668.679597 
C 309.333135 669.571569 310.669363 670.072744 312.062461 670.072744 
z
" style="fill:#7a0177;"/>
   </g>
   <g id="patch_122">
    <path clip-path="url(#pe0e8950137)" d="M 250.397968 653.042622 
C 251.791066 653.042622 253.127294 652.541447 254.112363 651.649476 
C 255.097432 650.757504 255.650916 649.547561 255.650916 648.286122 
C 255.650916 647.024684 255.097432 645.814741 254.112363 644.922769 
C 253.127294 644.030797 251.791066 643.529622 250.397968 643.529622 
C 249.00487 643.529622 247.668642 644.030797 246.683573 644.922769 
C 245.698504 645.814741 245.14502 647.024684 245.14502 648.286122 
C 245.14502 649.547561 245.698504 650.757504 246.683573 651.649476 
C 247.668642 652.541447 249.00487 653.042622 250.397968 653.042622 
z
" style="fill:#7a0177;"/>
   </g>
   <g id="patch_123">
    <path clip-path="url(#pe0e8950137)" d="M 256.035317 630.60553 
C 257.428415 630.60553 258.764643 630.104355 259.749712 629.212383 
C 260.734781 628.320411 261.288265 627.110468 261.288265 625.84903 
C 261.288265 624.587591 260.734781 623.377648 259.749712 622.485676 
C 258.764643 621.593704 257.428415 621.09253 256.035317 621.09253 
C 254.642219 621.09253 253.305991 621.593704 252.320922 622.485676 
C 251.335853 623.377648 250.782369 624.587591 250.782369 625.84903 
C 250.782369 627.110468 251.335853 628.320411 252.320922 629.212383 
C 253.305991 630.104355 254.642219 630.60553 256.035317 630.60553 
z
" style="fill:#7a0177;"/>
   </g>
   <g id="patch_124">
    <path clip-path="url(#pe0e8950137)" d="M 277.265648 637.783702 
C 278.658746 637.783702 279.994974 637.282527 280.980043 636.390555 
C 281.965112 635.498583 282.518596 634.28864 282.518596 633.027202 
C 282.518596 631.765763 281.965112 630.55582 280.980043 629.663848 
C 279.994974 628.771876 278.658746 628.270702 277.265648 628.270702 
C 275.872549 628.270702 274.536321 628.771876 273.551252 629.663848 
C 272.566183 630.55582 272.012699 631.765763 272.012699 633.027202 
C 272.012699 634.28864 272.566183 635.498583 273.551252 636.390555 
C 274.536321 637.282527 275.872549 637.783702 277.265648 637.783702 
z
" style="fill:#7a0177;"/>
   </g>
   <g id="patch_125">
    <path clip-path="url(#pe0e8950137)" d="M 215.077949 693.466172 
C 216.471047 693.466172 217.807275 692.964997 218.792344 692.073025 
C 219.777413 691.181053 220.330897 689.97111 220.330897 688.709672 
C 220.330897 687.448233 219.777413 686.23829 218.792344 685.346318 
C 217.807275 684.454346 216.471047 683.953172 215.077949 683.953172 
C 213.684851 683.953172 212.348623 684.454346 211.363554 685.346318 
C 210.378485 686.23829 209.825001 687.448233 209.825001 688.709672 
C 209.825001 689.97111 210.378485 691.181053 211.363554 692.073025 
C 212.348623 692.964997 213.684851 693.466172 215.077949 693.466172 
z
" style="fill:#7a0177;"/>
   </g>
   <g id="patch_126">
    <path clip-path="url(#pe0e8950137)" d="M 219.49203 628.82867 
C 220.885128 628.82867 222.221356 628.327495 223.206425 627.435524 
C 224.191495 626.543552 224.744978 625.333609 224.744978 624.07217 
C 224.744978 622.810732 224.191495 621.600789 223.206425 620.708817 
C 222.221356 619.816845 220.885128 619.31567 219.49203 619.31567 
C 218.098932 619.31567 216.762704 619.816845 215.777635 620.708817 
C 214.792566 621.600789 214.239082 622.810732 214.239082 624.07217 
C 214.239082 625.333609 214.792566 626.543552 215.777635 627.435524 
C 216.762704 628.327495 218.098932 628.82867 219.49203 628.82867 
z
" style="fill:#7a0177;"/>
   </g>
   <g id="patch_127">
    <path clip-path="url(#pe0e8950137)" d="M 210.612284 668.012945 
C 212.005382 668.012945 213.34161 667.51177 214.326679 666.619798 
C 215.311749 665.727827 215.865232 664.517883 215.865232 663.256445 
C 215.865232 661.995006 215.311749 660.785063 214.326679 659.893092 
C 213.34161 659.00112 212.005382 658.499945 210.612284 658.499945 
C 209.219186 658.499945 207.882958 659.00112 206.897889 659.893092 
C 205.91282 660.785063 205.359336 661.995006 205.359336 663.256445 
C 205.359336 664.517883 205.91282 665.727827 206.897889 666.619798 
C 207.882958 667.51177 209.219186 668.012945 210.612284 668.012945 
z
" style="fill:#7a0177;"/>
   </g>
   <g id="patch_128">
    <path clip-path="url(#pe0e8950137)" d="M 186.640654 681.786434 
C 188.033753 681.786434 189.369981 681.285259 190.35505 680.393287 
C 191.340119 679.501316 191.893603 678.291373 191.893603 677.029934 
C 191.893603 675.768495 191.340119 674.558552 190.35505 673.666581 
C 189.369981 672.774609 188.033753 672.273434 186.640654 672.273434 
C 185.247556 672.273434 183.911328 672.774609 182.926259 673.666581 
C 181.94119 674.558552 181.387706 675.768495 181.387706 677.029934 
C 181.387706 678.291373 181.94119 679.501316 182.926259 680.393287 
C 183.911328 681.285259 185.247556 681.786434 186.640654 681.786434 
z
" style="fill:#7a0177;"/>
   </g>
   <g id="patch_129">
    <path clip-path="url(#pe0e8950137)" d="M 252.87398 669.846392 
C 254.267078 669.846392 255.603306 669.345217 256.588375 668.453246 
C 257.573444 667.561274 258.126928 666.351331 258.126928 665.089892 
C 258.126928 663.828454 257.573444 662.61851 256.588375 661.726539 
C 255.603306 660.834567 254.267078 660.333392 252.87398 660.333392 
C 251.480882 660.333392 250.144654 660.834567 249.159585 661.726539 
C 248.174516 662.61851 247.621032 663.828454 247.621032 665.089892 
C 247.621032 666.351331 248.174516 667.561274 249.159585 668.453246 
C 250.144654 669.345217 251.480882 669.846392 252.87398 669.846392 
z
" style="fill:#7a0177;"/>
   </g>
   <g id="patch_130">
    <path clip-path="url(#pe0e8950137)" d="M 239.705427 607.718563 
C 241.098525 607.718563 242.434753 607.217388 243.419822 606.325416 
C 244.404892 605.433445 244.958375 604.223502 244.958375 602.962063 
C 244.958375 601.700625 244.404892 600.490681 243.419822 599.59871 
C 242.434753 598.706738 241.098525 598.205563 239.705427 598.205563 
C 238.312329 598.205563 236.976101 598.706738 235.991032 599.59871 
C 235.005963 600.490681 234.452479 601.700625 234.452479 602.962063 
C 234.452479 604.223502 235.005963 605.433445 235.991032 606.325416 
C 236.976101 607.217388 238.312329 607.718563 239.705427 607.718563 
z
" style="fill:#7a0177;"/>
   </g>
   <g id="patch_131">
    <path clip-path="url(#pe0e8950137)" d="M 209.514291 647.980837 
C 210.907389 647.980837 212.243617 647.479662 213.228686 646.58769 
C 214.213755 645.695718 214.767239 644.485775 214.767239 643.224337 
C 214.767239 641.962898 214.213755 640.752955 213.228686 639.860983 
C 212.243617 638.969012 210.907389 638.467837 209.514291 638.467837 
C 208.121193 638.467837 206.784965 638.969012 205.799896 639.860983 
C 204.814826 640.752955 204.261343 641.962898 204.261343 643.224337 
C 204.261343 644.485775 204.814826 645.695718 205.799896 646.58769 
C 206.784965 647.479662 208.121193 647.980837 209.514291 647.980837 
z
" style="fill:#7a0177;"/>
   </g>
   <g id="patch_132">
    <path clip-path="url(#pe0e8950137)" d="M 289.770983 568.282472 
C 291.164081 568.282472 292.500309 567.781297 293.485378 566.889326 
C 294.470447 565.997354 295.023931 564.787411 295.023931 563.525972 
C 295.023931 562.264534 294.470447 561.054591 293.485378 560.162619 
C 292.500309 559.270647 291.164081 558.769472 289.770983 558.769472 
C 288.377885 558.769472 287.041657 559.270647 286.056588 560.162619 
C 285.071519 561.054591 284.518035 562.264534 284.518035 563.525972 
C 284.518035 564.787411 285.071519 565.997354 286.056588 566.889326 
C 287.041657 567.781297 288.377885 568.282472 289.770983 568.282472 
z
" style="fill:#7a0177;"/>
   </g>
   <g id="patch_133">
    <path clip-path="url(#pe0e8950137)" d="M 200.221876 590.631854 
C 201.614974 590.631854 202.951202 590.130679 203.936271 589.238707 
C 204.92134 588.346736 205.474824 587.136792 205.474824 585.875354 
C 205.474824 584.613915 204.92134 583.403972 203.936271 582.512 
C 202.951202 581.620029 201.614974 581.118854 200.221876 581.118854 
C 198.828778 581.118854 197.49255 581.620029 196.507481 582.512 
C 195.522412 583.403972 194.968928 584.613915 194.968928 585.875354 
C 194.968928 587.136792 195.522412 588.346736 196.507481 589.238707 
C 197.49255 590.130679 198.828778 590.631854 200.221876 590.631854 
z
" style="fill:#7a0177;"/>
   </g>
   <g id="patch_134">
    <path clip-path="url(#pe0e8950137)" d="M 292.490175 594.406265 
C 293.883273 594.406265 295.219501 593.90509 296.20457 593.013119 
C 297.189639 592.121147 297.743123 590.911204 297.743123 589.649765 
C 297.743123 588.388327 297.189639 587.178384 296.20457 586.286412 
C 295.219501 585.39444 293.883273 584.893265 292.490175 584.893265 
C 291.097077 584.893265 289.760849 585.39444 288.77578 586.286412 
C 287.79071 587.178384 287.237227 588.388327 287.237227 589.649765 
C 287.237227 590.911204 287.79071 592.121147 288.77578 593.013119 
C 289.760849 593.90509 291.097077 594.406265 292.490175 594.406265 
z
" style="fill:#7a0177;"/>
   </g>
   <g id="patch_135">
    <path clip-path="url(#pe0e8950137)" d="M 215.918025 715.280798 
C 217.311123 715.280798 218.647351 714.779623 219.63242 713.887651 
C 220.617489 712.995679 221.170973 711.785736 221.170973 710.524298 
C 221.170973 709.262859 220.617489 708.052916 219.63242 707.160944 
C 218.647351 706.268973 217.311123 705.767798 215.918025 705.767798 
C 214.524926 705.767798 213.188699 706.268973 212.203629 707.160944 
C 211.21856 708.052916 210.665077 709.262859 210.665077 710.524298 
C 210.665077 711.785736 211.21856 712.995679 212.203629 713.887651 
C 213.188699 714.779623 214.524926 715.280798 215.918025 715.280798 
z
" style="fill:#7a0177;"/>
   </g>
   <g id="patch_136">
    <path clip-path="url(#pe0e8950137)" d="M 336.874167 579.192615 
C 338.267265 579.192615 339.603493 578.69144 340.588562 577.799468 
C 341.573631 576.907496 342.127115 575.697553 342.127115 574.436115 
C 342.127115 573.174676 341.573631 571.964733 340.588562 571.072761 
C 339.603493 570.18079 338.267265 569.679615 336.874167 569.679615 
C 335.481069 569.679615 334.144841 570.18079 333.159772 571.072761 
C 332.174702 571.964733 331.621219 573.174676 331.621219 574.436115 
C 331.621219 575.697553 332.174702 576.907496 333.159772 577.799468 
C 334.144841 578.69144 335.481069 579.192615 336.874167 579.192615 
z
" style="fill:#7a0177;"/>
   </g>
   <g id="patch_137">
    <path clip-path="url(#pe0e8950137)" d="M 271.878847 588.894606 
C 273.271945 588.894606 274.608173 588.393431 275.593243 587.50146 
C 276.578312 586.609488 277.131795 585.399545 277.131795 584.138106 
C 277.131795 582.876668 276.578312 581.666724 275.593243 580.774753 
C 274.608173 579.882781 273.271945 579.381606 271.878847 579.381606 
C 270.485749 579.381606 269.149521 579.882781 268.164452 580.774753 
C 267.179383 581.666724 266.625899 582.876668 266.625899 584.138106 
C 266.625899 585.399545 267.179383 586.609488 268.164452 587.50146 
C 269.149521 588.393431 270.485749 588.894606 271.878847 588.894606 
z
" style="fill:#7a0177;"/>
   </g>
   <g id="patch_138">
    <path clip-path="url(#pe0e8950137)" d="M 297.928559 650.001024 
C 299.321657 650.001024 300.657885 649.499849 301.642954 648.607877 
C 302.628023 647.715906 303.181507 646.505963 303.181507 645.244524 
C 303.181507 643.983085 302.628023 642.773142 301.642954 641.881171 
C 300.657885 640.989199 299.321657 640.488024 297.928559 640.488024 
C 296.535461 640.488024 295.199233 640.989199 294.214163 641.881171 
C 293.229094 642.773142 292.675611 643.983085 292.675611 645.244524 
C 292.675611 646.505963 293.229094 647.715906 294.214163 648.607877 
C 295.199233 649.499849 296.535461 650.001024 297.928559 650.001024 
z
" style="fill:#7a0177;"/>
   </g>
   <g id="patch_139">
    <path clip-path="url(#pe0e8950137)" d="M 174.53325 600.800695 
C 175.926348 600.800695 177.262576 600.29952 178.247645 599.407549 
C 179.232714 598.515577 179.786198 597.305634 179.786198 596.044195 
C 179.786198 594.782757 179.232714 593.572814 178.247645 592.680842 
C 177.262576 591.78887 175.926348 591.287695 174.53325 591.287695 
C 173.140152 591.287695 171.803924 591.78887 170.818855 592.680842 
C 169.833785 593.572814 169.280302 594.782757 169.280302 596.044195 
C 169.280302 597.305634 169.833785 598.515577 170.818855 599.407549 
C 171.803924 600.29952 173.140152 600.800695 174.53325 600.800695 
z
" style="fill:#7a0177;"/>
   </g>
   <g id="patch_140">
    <path clip-path="url(#pe0e8950137)" d="M 240.995017 642.896416 
C 242.388115 642.896416 243.724343 642.395241 244.709412 641.50327 
C 245.694481 640.611298 246.247965 639.401355 246.247965 638.139916 
C 246.247965 636.878478 245.694481 635.668535 244.709412 634.776563 
C 243.724343 633.884591 242.388115 633.383416 240.995017 633.383416 
C 239.601919 633.383416 238.265691 633.884591 237.280622 634.776563 
C 236.295553 635.668535 235.742069 636.878478 235.742069 638.139916 
C 235.742069 639.401355 236.295553 640.611298 237.280622 641.50327 
C 238.265691 642.395241 239.601919 642.896416 240.995017 642.896416 
z
" style="fill:#7a0177;"/>
   </g>
   <g id="patch_141">
    <path clip-path="url(#pe0e8950137)" d="M 277.464613 653.738653 
C 278.857711 653.738653 280.193939 653.237478 281.179008 652.345507 
C 282.164077 651.453535 282.717561 650.243592 282.717561 648.982153 
C 282.717561 647.720715 282.164077 646.510772 281.179008 645.6188 
C 280.193939 644.726828 278.857711 644.225653 277.464613 644.225653 
C 276.071515 644.225653 274.735287 644.726828 273.750218 645.6188 
C 272.765149 646.510772 272.211665 647.720715 272.211665 648.982153 
C 272.211665 650.243592 272.765149 651.453535 273.750218 652.345507 
C 274.735287 653.237478 276.071515 653.738653 277.464613 653.738653 
z
" style="fill:#7a0177;"/>
   </g>
   <g id="text_1">
    <text style="font-family:DejaVu Sans;font-size:12px;font-style:normal;font-weight:normal;text-anchor:start;" transform="rotate(-0, 180.536619, 111.29941)" x="180.536619" y="111.29941">PID_ERBB1_INTERNALIZATION_PATHWAY</text>
   </g>
   <g id="text_2">
    <text style="font-family:DejaVu Sans;font-size:12px;font-style:normal;font-weight:normal;text-anchor:start;" transform="rotate(-0, 180.536619, 124.88941)" x="180.536619" y="124.88941">REACTOME_CITRIC_ACID_CYCLE_TCA_CYCLE</text>
   </g>
   <g id="text_3">
    <text style="font-family:DejaVu Sans;font-size:12px;font-style:normal;font-weight:normal;text-anchor:start;" transform="rotate(-0, 180.536619, 138.47941)" x="180.536619" y="138.47941">ST_ADRENERGIC</text>
   </g>
   <g id="text_4">
    <text style="font-family:DejaVu Sans;font-size:12px;font-style:normal;font-weight:normal;text-anchor:start;" transform="rotate(-0, 180.536619, 152.06941)" x="180.536619" y="152.06941">KEGG_NEUROTROPHIN_SIGNALING_PATHWAY</text>
   </g>
   <g id="text_5">
    <text style="font-family:DejaVu Sans;font-size:12px;font-style:normal;font-weight:normal;text-anchor:start;" transform="rotate(-0, 180.536619, 165.65941)" x="180.536619" y="165.65941">KEGG_AMYOTROPHIC_LATERAL_SCLEROSIS_ALS</text>
   </g>
   <g id="text_6">
    <text style="font-family:DejaVu Sans;font-size:12px;font-style:normal;font-weight:normal;text-anchor:start;" transform="rotate(-0, 180.536619, 179.24941)" x="180.536619" y="179.24941">ST_GAQ_PATHWAY</text>
   </g>
   <g id="text_7">
    <text style="font-family:DejaVu Sans;font-size:12px;font-style:normal;font-weight:normal;text-anchor:start;" transform="rotate(-0, 180.536619, 192.83941)" x="180.536619" y="192.83941">REACTOME_RAS_ACTIVATION_UOPN_CA2_INFUX_THROUGH_NMDA_RECEPTOR</text>
   </g>
   <g id="text_8">
    <text style="font-family:DejaVu Sans;font-size:12px;font-style:normal;font-weight:normal;text-anchor:start;" transform="rotate(-0, 180.536619, 206.42941)" x="180.536619" y="206.42941">REACTOME_AMINE_LIGAND_BINDING_RECEPTORS</text>
   </g>
   <g id="text_9">
    <text style="font-family:DejaVu Sans;font-size:12px;font-style:normal;font-weight:normal;text-anchor:start;" transform="rotate(-0, 180.536619, 220.01941)" x="180.536619" y="220.01941">REACTOME_TRAFFICKING_OF_AMPA_RECEPTORS</text>
   </g>
   <g id="text_10">
    <text style="font-family:DejaVu Sans;font-size:12px;font-style:normal;font-weight:normal;text-anchor:start;" transform="rotate(-0, 180.536619, 233.60941)" x="180.536619" y="233.60941">REACTOME_AMYLOIDS</text>
   </g>
   <g id="text_11">
    <text style="font-family:DejaVu Sans;font-size:12px;font-style:normal;font-weight:normal;text-anchor:start;" transform="rotate(-0, 180.536619, 247.19941)" x="180.536619" y="247.19941">KEGG_NEUROACTIVE_LIGAND_RECEPTOR_INTERACTION</text>
   </g>
   <g id="text_12">
    <text style="font-family:DejaVu Sans;font-size:12px;font-style:normal;font-weight:normal;text-anchor:start;" transform="rotate(-0, 180.536619, 260.78941)" x="180.536619" y="260.78941">PID_TXA2PATHWAY</text>
   </g>
   <g id="text_13">
    <text style="font-family:DejaVu Sans;font-size:12px;font-style:normal;font-weight:normal;text-anchor:start;" transform="rotate(-0, 180.536619, 274.37941)" x="180.536619" y="274.37941">KEGG_PRION_DISEASES</text>
   </g>
   <g id="text_14">
    <text style="font-family:DejaVu Sans;font-size:12px;font-style:normal;font-weight:normal;text-anchor:start;" transform="rotate(-0, 180.536619, 287.96941)" x="180.536619" y="287.96941">REACTOME_NEUROTRANSMITTER_RELEASE_CYCLE</text>
   </g>
   <g id="text_15">
    <text style="font-family:DejaVu Sans;font-size:12px;font-style:normal;font-weight:normal;text-anchor:start;" transform="rotate(-0, 180.536619, 301.55941)" x="180.536619" y="301.55941">REACTOME_GABA_SYNTHESIS_RELEASE_REUPTAKE_AND_DEGRADATION</text>
   </g>
   <g id="text_16">
    <text style="font-family:DejaVu Sans;font-size:12px;font-style:normal;font-weight:normal;text-anchor:start;" transform="rotate(-0, 180.536619, 315.14941)" x="180.536619" y="315.14941">KEGG_OLFACTORY_TRANSDUCTION</text>
   </g>
   <g id="text_17">
    <text style="font-family:DejaVu Sans;font-size:12px;font-style:normal;font-weight:normal;text-anchor:start;" transform="rotate(-0, 180.536619, 328.73941)" x="180.536619" y="328.73941">REACTOME_OLFACTORY_SIGNALING_PATHWAY</text>
   </g>
   <g id="text_18">
    <text style="font-family:DejaVu Sans;font-size:12px;font-style:normal;font-weight:normal;text-anchor:start;" transform="rotate(-0, 180.536619, 342.32941)" x="180.536619" y="342.32941">REACTOME_AXON_GUIDANCE</text>
   </g>
   <g id="text_19">
    <text style="font-family:DejaVu Sans;font-size:12px;font-style:normal;font-weight:normal;text-anchor:start;" transform="rotate(-0, 180.536619, 355.91941)" x="180.536619" y="355.91941">REACTOME_SIGNAL_TRANSDUCTION_BY_L1</text>
   </g>
   <g id="text_20">
    <text style="font-family:DejaVu Sans;font-size:12px;font-style:normal;font-weight:normal;text-anchor:start;" transform="rotate(-0, 180.536619, 369.50941)" x="180.536619" y="369.50941">REACTOME_L1CAM_INTERACTIONS</text>
   </g>
   <g id="text_21">
    <text style="font-family:DejaVu Sans;font-size:12px;font-style:normal;font-weight:normal;text-anchor:start;" transform="rotate(-0, 180.536619, 383.09941)" x="180.536619" y="383.09941">KEGG_ERBB_SIGNALING_PATHWAY</text>
   </g>
   <g id="text_22">
    <text style="font-family:DejaVu Sans;font-size:12px;font-style:normal;font-weight:normal;text-anchor:start;" transform="rotate(-0, 180.536619, 396.68941)" x="180.536619" y="396.68941">PID_ERBB1_DOWNSTREAM_PATHWAY</text>
   </g>
   <g id="text_23">
    <text style="font-family:DejaVu Sans;font-size:12px;font-style:normal;font-weight:normal;text-anchor:start;" transform="rotate(-0, 180.536619, 410.27941)" x="180.536619" y="410.27941">PID_PDGFRB_PATHWAY</text>
   </g>
   <g id="text_24">
    <text style="font-family:DejaVu Sans;font-size:12px;font-style:normal;font-weight:normal;text-anchor:start;" transform="rotate(-0, 180.536619, 424.024238)" x="180.536619" y="424.024238">REACTOME_SEMA4D_IN_SEMAPHORIN_SIGNALING</text>
   </g>
   <g id="text_25">
    <text style="font-family:DejaVu Sans;font-size:12px;font-style:normal;font-weight:normal;text-anchor:start;" transform="rotate(-0, 203.049254, 423.86941)" x="203.049254" y="423.86941">REACTOME_SEMA4D_INDUCED_CELL_MIGRATION_AND_GROWTH_CONE_COLLAPSE</text>
   </g>
   <g id="text_26">
    <text style="font-family:DejaVu Sans;font-size:12px;font-style:normal;font-weight:normal;text-anchor:start;" transform="rotate(-0, 191.944143, 444.25441)" x="191.944143" y="444.25441">REACTOME_SEMAPHORIN_INTERACTIONS</text>
   </g>
   <g id="text_27">
    <text style="font-family:DejaVu Sans;font-size:12px;font-style:normal;font-weight:normal;text-anchor:start;" transform="rotate(-0, 180.536619, 498.61441)" x="180.536619" y="498.61441">REACTOME_VOLTAGE_GATED_POTASSIUM_CHANNELS</text>
   </g>
   <g id="text_28">
    <text style="font-family:DejaVu Sans;font-size:12px;font-style:normal;font-weight:normal;text-anchor:start;" transform="rotate(-0, 225.561888, 482.234526)" x="225.561888" y="482.234526">REACTOME_NEUROTRANSMITTER_RECEPTOR_BINDING...</text>
   </g>
   <g id="text_29">
    <text style="font-family:DejaVu Sans;font-size:12px;font-style:normal;font-weight:normal;text-anchor:start;" transform="rotate(-0, 195.432878, 490.540445)" x="195.432878" y="490.540445">REACTOME_POTASSIUM_CHANNELS</text>
   </g>
   <g id="text_30">
    <text style="font-family:DejaVu Sans;font-size:12px;font-style:normal;font-weight:normal;text-anchor:start;" transform="rotate(-0, 209.891265, 479.396967)" x="209.891265" y="479.396967">REACTOME_NEURONAL_SYSTEM</text>
   </g>
   <g id="text_31">
    <text style="font-family:DejaVu Sans;font-size:12px;font-style:normal;font-weight:normal;text-anchor:start;" transform="rotate(-0, 219.438158, 457.84441)" x="219.438158" y="457.84441">REACTOME_TRANSMISSION_ACROSS_CHEMICAL_SYNAPSES</text>
   </g>
   <g id="text_32">
    <text style="font-family:DejaVu Sans;font-size:12px;font-style:normal;font-weight:normal;text-anchor:start;" transform="rotate(-0, 180.536619, 535.965613)" x="180.536619" y="535.965613">REACTOME_RESPIRATORY_ELECTRON_TRANSPORT</text>
   </g>
   <g id="text_33">
    <text style="font-family:DejaVu Sans;font-size:12px;font-style:normal;font-weight:normal;text-anchor:start;" transform="rotate(-0, 225.561888, 539.790525)" x="225.561888" y="539.790525">REACTOME_RESPITORY_ELECTRON_TRANSPORT_ATP_SYNTHESIS...</text>
   </g>
   <g id="text_34">
    <text style="font-family:DejaVu Sans;font-size:12px;font-style:normal;font-weight:normal;text-anchor:start;" transform="rotate(-0, 201.500907, 552.97441)" x="201.500907" y="552.97441">KEGG_HUNTINGTONS_DISEASE</text>
   </g>
   <g id="text_35">
    <text style="font-family:DejaVu Sans;font-size:12px;font-style:normal;font-weight:normal;text-anchor:start;" transform="rotate(-0, 191.551844, 512.20441)" x="191.551844" y="512.20441">KEGG_ALZHEIMERS_DISEASE</text>
   </g>
   <g id="text_36">
    <text style="font-family:DejaVu Sans;font-size:12px;font-style:normal;font-weight:normal;text-anchor:start;" transform="rotate(-0, 219.288139, 514.691122)" x="219.288139" y="514.691122">KEGG_PARKINSONS_DISEASE</text>
   </g>
   <g id="text_37">
    <text style="font-family:DejaVu Sans;font-size:12px;font-style:normal;font-weight:normal;text-anchor:start;" transform="rotate(-0, 236.460596, 649.751417)" x="236.460596" y="649.751417">REACTOME_ADP_SIGNALLING_THROUGH_P2RY12</text>
   </g>
   <g id="text_38">
    <text style="font-family:DejaVu Sans;font-size:12px;font-style:normal;font-weight:normal;text-anchor:start;" transform="rotate(-0, 318.065831, 668.354681)" x="318.065831" y="668.354681">REACTOME_INTEGRATION_OF_ENERGY_METABOLISM</text>
   </g>
   <g id="text_39">
    <text style="font-family:DejaVu Sans;font-size:12px;font-style:normal;font-weight:normal;text-anchor:start;" transform="rotate(-0, 256.401337, 651.32456)" x="256.401337" y="651.32456">REACTOME_G_PROTEIN_ACTIVATION</text>
   </g>
   <g id="text_40">
    <text style="font-family:DejaVu Sans;font-size:12px;font-style:normal;font-weight:normal;text-anchor:start;" transform="rotate(-0, 262.038686, 628.887467)" x="262.038686" y="628.887467">REACTOME_THROMBOXANE_SIGNALLING_THROUGH_TP_RECEPTOR</text>
   </g>
   <g id="text_41">
    <text style="font-family:DejaVu Sans;font-size:12px;font-style:normal;font-weight:normal;text-anchor:start;" transform="rotate(-0, 283.269017, 636.065639)" x="283.269017" y="636.065639">REACTOME_ADP_SIGNALLING_THROUGH_P2RY1</text>
   </g>
   <g id="text_42">
    <text style="font-family:DejaVu Sans;font-size:12px;font-style:normal;font-weight:normal;text-anchor:start;" transform="rotate(-0, 221.081318, 691.748109)" x="221.081318" y="691.748109">REACTOME_LIGAND_GATED_ION_CHANNEL_TRANSPORT</text>
   </g>
   <g id="text_43">
    <text style="font-family:DejaVu Sans;font-size:12px;font-style:normal;font-weight:normal;text-anchor:start;" transform="rotate(-0, 225.495399, 627.110608)" x="225.495399" y="627.110608">REACTOME_THROMBIN_SIGNALLING_THROUGH_PROTEINASE_ACTIVATED_RECEPTORS...</text>
   </g>
   <g id="text_44">
    <text style="font-family:DejaVu Sans;font-size:12px;font-style:normal;font-weight:normal;text-anchor:start;" transform="rotate(-0, 216.615653, 666.294882)" x="216.615653" y="666.294882">REACTOME_GABA_RECEPTOR_ACTIVATION</text>
   </g>
   <g id="text_45">
    <text style="font-family:DejaVu Sans;font-size:12px;font-style:normal;font-weight:normal;text-anchor:start;" transform="rotate(-0, 192.644024, 680.068371)" x="192.644024" y="680.068371">REACTOME_DARPP_32_EVENTS</text>
   </g>
   <g id="text_46">
    <text style="font-family:DejaVu Sans;font-size:12px;font-style:normal;font-weight:normal;text-anchor:start;" transform="rotate(-0, 258.877349, 668.12833)" x="258.877349" y="668.12833">REACTOME_OPIOID_SIGNALLING</text>
   </g>
   <g id="text_47">
    <text style="font-family:DejaVu Sans;font-size:12px;font-style:normal;font-weight:normal;text-anchor:start;" transform="rotate(-0, 245.708796, 606.000501)" x="245.708796" y="606.000501">PID_THROMBIN_PAR1_PATHWAY</text>
   </g>
   <g id="text_48">
    <text style="font-family:DejaVu Sans;font-size:12px;font-style:normal;font-weight:normal;text-anchor:start;" transform="rotate(-0, 215.51766, 646.262774)" x="215.51766" y="646.262774">REACTOME_PROSTACYCLIN_SIGNALLING_THROUGH_PROSTACYCLIN_RECEPTOR</text>
   </g>
   <g id="text_49">
    <text style="font-family:DejaVu Sans;font-size:12px;font-style:normal;font-weight:normal;text-anchor:start;" transform="rotate(-0, 295.774352, 566.56441)" x="295.774352" y="566.56441">PID_ER_NONGENOMIC_PATHWAY</text>
   </g>
   <g id="text_50">
    <text style="font-family:DejaVu Sans;font-size:12px;font-style:normal;font-weight:normal;text-anchor:start;" transform="rotate(-0, 206.225245, 588.913791)" x="206.225245" y="588.913791">PID_IL8_CXCR1_PATHWAY</text>
   </g>
   <g id="text_51">
    <text style="font-family:DejaVu Sans;font-size:12px;font-style:normal;font-weight:normal;text-anchor:start;" transform="rotate(-0, 298.493544, 592.688203)" x="298.493544" y="592.688203">PID_LYSOPHOSPHOLIPID_PATHWAY</text>
   </g>
   <g id="text_52">
    <text style="font-family:DejaVu Sans;font-size:12px;font-style:normal;font-weight:normal;text-anchor:start;" transform="rotate(-0, 221.921394, 713.562735)" x="221.921394" y="713.562735">REACTOME_ION_CHANNEL_TRANSPORT</text>
   </g>
   <g id="text_53">
    <text style="font-family:DejaVu Sans;font-size:12px;font-style:normal;font-weight:normal;text-anchor:start;" transform="rotate(-0, 342.877536, 577.474552)" x="342.877536" y="577.474552">PID_S1P_META_PATHWAY</text>
   </g>
   <g id="text_54">
    <text style="font-family:DejaVu Sans;font-size:12px;font-style:normal;font-weight:normal;text-anchor:start;" transform="rotate(-0, 277.882217, 587.176544)" x="277.882217" y="587.176544">PID_S1P_S1P2_PATHWAY</text>
   </g>
   <g id="text_55">
    <text style="font-family:DejaVu Sans;font-size:12px;font-style:normal;font-weight:normal;text-anchor:start;" transform="rotate(-0, 303.931928, 648.282962)" x="303.931928" y="648.282962">REACTOME_REGULATION_OF_INSULIN_SECRETION</text>
   </g>
   <g id="text_56">
    <text style="font-family:DejaVu Sans;font-size:12px;font-style:normal;font-weight:normal;text-anchor:start;" transform="rotate(-0, 180.536619, 599.082633)" x="180.536619" y="599.082633">PID_IL8_CXCR2_PATHWAY</text>
   </g>
   <g id="text_57">
    <text style="font-family:DejaVu Sans;font-size:12px;font-style:normal;font-weight:normal;text-anchor:start;" transform="rotate(-0, 246.998386, 641.178354)" x="246.998386" y="641.178354">REACTOME_SIGNAL_AMPLIFICATION</text>
   </g>
   <g id="text_58">
    <text style="font-family:DejaVu Sans;font-size:12px;font-style:normal;font-weight:normal;text-anchor:start;" transform="rotate(-0, 283.467982, 652.020591)" x="283.467982" y="652.020591">REACTOME_REGULATION_OF_INSULIN_SECRETION_BY_GLUCAGON_LIKE_PEPTIDE1</text>
   </g>
   <g id="text_59">
    <text style="font-family:DejaVu Sans;font-size:12px;font-style:normal;font-weight:normal;text-anchor:middle;" transform="rotate(-0, 654.051789, 92.747972)" x="654.051789" y="92.747972">Neuron System</text>
   </g>
  </g>
 </g>
 <defs>
  <clipPath id="pe0e8950137">
   <rect height="621.289325" width="989.053925" x="159.524827" y="98.747972"/>
  </clipPath>
 </defs>
</svg>
