<?xml version="1.0" encoding="utf-8" standalone="no"?>
<!DOCTYPE svg PUBLIC "-//W3C//DTD SVG 1.1//EN"
  "http://www.w3.org/Graphics/SVG/1.1/DTD/svg11.dtd">
<!-- Created with matplotlib (https://matplotlib.org/) -->
<svg height="556.2pt" version="1.1" viewBox="0 0 1188 556.2" width="1188pt" xmlns="http://www.w3.org/2000/svg" xmlns:xlink="http://www.w3.org/1999/xlink">
 <defs>
  <style type="text/css">
*{stroke-linecap:butt;stroke-linejoin:round;}
  </style>
 </defs>
 <g id="figure_1">
  <g id="patch_1">
   <path d="M 0 556.2 
L 1188 556.2 
L 1188 0 
L 0 0 
z
" style="fill:#ffffff;"/>
  </g>
  <g id="axes_1">
   <g id="patch_2">
    <path clip-path="url(#p3ecac38cf0)" d="M 163.593443 81.0135 
C 164.994432 81.0135 166.33823 80.512325 167.328879 79.620353 
C 168.319528 78.728382 168.876148 77.518439 168.876148 76.257 
C 168.876148 74.995561 168.319528 73.785618 167.328879 72.893647 
C 166.33823 72.001675 164.994432 71.5005 163.593443 71.5005 
C 162.192453 71.5005 160.848655 72.001675 159.858006 72.893647 
C 158.867357 73.785618 158.310738 74.995561 158.310738 76.257 
C 158.310738 77.518439 158.867357 78.728382 159.858006 79.620353 
C 160.848655 80.512325 162.192453 81.0135 163.593443 81.0135 
z
" style="fill:#7a0177;"/>
   </g>
   <g id="patch_3">
    <path clip-path="url(#p3ecac38cf0)" d="M 163.593443 94.6035 
C 164.994432 94.6035 166.33823 94.102325 167.328879 93.210353 
C 168.319528 92.318382 168.876148 91.108439 168.876148 89.847 
C 168.876148 88.585561 168.319528 87.375618 167.328879 86.483647 
C 166.33823 85.591675 164.994432 85.0905 163.593443 85.0905 
C 162.192453 85.0905 160.848655 85.591675 159.858006 86.483647 
C 158.867357 87.375618 158.310738 88.585561 158.310738 89.847 
C 158.310738 91.108439 158.867357 92.318382 159.858006 93.210353 
C 160.848655 94.102325 162.192453 94.6035 163.593443 94.6035 
z
" style="fill:#7a0177;"/>
   </g>
   <g id="patch_4">
    <path clip-path="url(#p3ecac38cf0)" d="M 163.593443 108.1935 
C 164.994432 108.1935 166.33823 107.692325 167.328879 106.800353 
C 168.319528 105.908382 168.876148 104.698439 168.876148 103.437 
C 168.876148 102.175561 168.319528 100.965618 167.328879 100.073647 
C 166.33823 99.181675 164.994432 98.6805 163.593443 98.6805 
C 162.192453 98.6805 160.848655 99.181675 159.858006 100.073647 
C 158.867357 100.965618 158.310738 102.175561 158.310738 103.437 
C 158.310738 104.698439 158.867357 105.908382 159.858006 106.800353 
C 160.848655 107.692325 162.192453 108.1935 163.593443 108.1935 
z
" style="fill:#7a0177;"/>
   </g>
   <g id="patch_5">
    <path clip-path="url(#p3ecac38cf0)" d="M 163.593443 121.7835 
C 164.994432 121.7835 166.33823 121.282325 167.328879 120.390353 
C 168.319528 119.498382 168.876148 118.288439 168.876148 117.027 
C 168.876148 115.765561 168.319528 114.555618 167.328879 113.663647 
C 166.33823 112.771675 164.994432 112.2705 163.593443 112.2705 
C 162.192453 112.2705 160.848655 112.771675 159.858006 113.663647 
C 158.867357 114.555618 158.310738 115.765561 158.310738 117.027 
C 158.310738 118.288439 158.867357 119.498382 159.858006 120.390353 
C 160.848655 121.282325 162.192453 121.7835 163.593443 121.7835 
z
" style="fill:#7a0177;"/>
   </g>
   <g id="patch_6">
    <path clip-path="url(#p3ecac38cf0)" d="M 163.593443 135.3735 
C 164.994432 135.3735 166.33823 134.872325 167.328879 133.980353 
C 168.319528 133.088382 168.876148 131.878439 168.876148 130.617 
C 168.876148 129.355561 168.319528 128.145618 167.328879 127.253647 
C 166.33823 126.361675 164.994432 125.8605 163.593443 125.8605 
C 162.192453 125.8605 160.848655 126.361675 159.858006 127.253647 
C 158.867357 128.145618 158.310738 129.355561 158.310738 130.617 
C 158.310738 131.878439 158.867357 133.088382 159.858006 133.980353 
C 160.848655 134.872325 162.192453 135.3735 163.593443 135.3735 
z
" style="fill:#7a0177;"/>
   </g>
   <g id="patch_7">
    <path clip-path="url(#p3ecac38cf0)" d="M 163.593443 148.9635 
C 164.994432 148.9635 166.33823 148.462325 167.328879 147.570353 
C 168.319528 146.678382 168.876148 145.468439 168.876148 144.207 
C 168.876148 142.945561 168.319528 141.735618 167.328879 140.843647 
C 166.33823 139.951675 164.994432 139.4505 163.593443 139.4505 
C 162.192453 139.4505 160.848655 139.951675 159.858006 140.843647 
C 158.867357 141.735618 158.310738 142.945561 158.310738 144.207 
C 158.310738 145.468439 158.867357 146.678382 159.858006 147.570353 
C 160.848655 148.462325 162.192453 148.9635 163.593443 148.9635 
z
" style="fill:#7a0177;"/>
   </g>
   <g id="patch_8">
    <path clip-path="url(#p3ecac38cf0)" d="M 163.593443 162.5535 
C 164.994432 162.5535 166.33823 162.052325 167.328879 161.160353 
C 168.319528 160.268382 168.876148 159.058439 168.876148 157.797 
C 168.876148 156.535561 168.319528 155.325618 167.328879 154.433647 
C 166.33823 153.541675 164.994432 153.0405 163.593443 153.0405 
C 162.192453 153.0405 160.848655 153.541675 159.858006 154.433647 
C 158.867357 155.325618 158.310738 156.535561 158.310738 157.797 
C 158.310738 159.058439 158.867357 160.268382 159.858006 161.160353 
C 160.848655 162.052325 162.192453 162.5535 163.593443 162.5535 
z
" style="fill:#7a0177;"/>
   </g>
   <g id="patch_9">
    <path clip-path="url(#p3ecac38cf0)" d="M 163.593443 176.1435 
C 164.994432 176.1435 166.33823 175.642325 167.328879 174.750353 
C 168.319528 173.858382 168.876148 172.648439 168.876148 171.387 
C 168.876148 170.125561 168.319528 168.915618 167.328879 168.023647 
C 166.33823 167.131675 164.994432 166.6305 163.593443 166.6305 
C 162.192453 166.6305 160.848655 167.131675 159.858006 168.023647 
C 158.867357 168.915618 158.310738 170.125561 158.310738 171.387 
C 158.310738 172.648439 158.867357 173.858382 159.858006 174.750353 
C 160.848655 175.642325 162.192453 176.1435 163.593443 176.1435 
z
" style="fill:#7a0177;"/>
   </g>
   <g id="patch_10">
    <path clip-path="url(#p3ecac38cf0)" d="M 163.593443 189.7335 
C 164.994432 189.7335 166.33823 189.232325 167.328879 188.340353 
C 168.319528 187.448382 168.876148 186.238439 168.876148 184.977 
C 168.876148 183.715561 168.319528 182.505618 167.328879 181.613647 
C 166.33823 180.721675 164.994432 180.2205 163.593443 180.2205 
C 162.192453 180.2205 160.848655 180.721675 159.858006 181.613647 
C 158.867357 182.505618 158.310738 183.715561 158.310738 184.977 
C 158.310738 186.238439 158.867357 187.448382 159.858006 188.340353 
C 160.848655 189.232325 162.192453 189.7335 163.593443 189.7335 
z
" style="fill:#7a0177;"/>
   </g>
   <g id="patch_11">
    <path clip-path="url(#p3ecac38cf0)" d="M 163.593443 203.3235 
C 164.994432 203.3235 166.33823 202.822325 167.328879 201.930353 
C 168.319528 201.038382 168.876148 199.828439 168.876148 198.567 
C 168.876148 197.305561 168.319528 196.095618 167.328879 195.203647 
C 166.33823 194.311675 164.994432 193.8105 163.593443 193.8105 
C 162.192453 193.8105 160.848655 194.311675 159.858006 195.203647 
C 158.867357 196.095618 158.310738 197.305561 158.310738 198.567 
C 158.310738 199.828439 158.867357 201.038382 159.858006 201.930353 
C 160.848655 202.822325 162.192453 203.3235 163.593443 203.3235 
z
" style="fill:#feebe2;"/>
   </g>
   <g id="patch_12">
    <path clip-path="url(#p3ecac38cf0)" d="M 163.593443 216.9135 
C 164.994432 216.9135 166.33823 216.412325 167.328879 215.520353 
C 168.319528 214.628382 168.876148 213.418439 168.876148 212.157 
C 168.876148 210.895561 168.319528 209.685618 167.328879 208.793647 
C 166.33823 207.901675 164.994432 207.4005 163.593443 207.4005 
C 162.192453 207.4005 160.848655 207.901675 159.858006 208.793647 
C 158.867357 209.685618 158.310738 210.895561 158.310738 212.157 
C 158.310738 213.418439 158.867357 214.628382 159.858006 215.520353 
C 160.848655 216.412325 162.192453 216.9135 163.593443 216.9135 
z
" style="fill:#feebe2;"/>
   </g>
   <g id="patch_13">
    <path clip-path="url(#p3ecac38cf0)" d="M 163.593443 230.5035 
C 164.994432 230.5035 166.33823 230.002325 167.328879 229.110353 
C 168.319528 228.218382 168.876148 227.008439 168.876148 225.747 
C 168.876148 224.485561 168.319528 223.275618 167.328879 222.383647 
C 166.33823 221.491675 164.994432 220.9905 163.593443 220.9905 
C 162.192453 220.9905 160.848655 221.491675 159.858006 222.383647 
C 158.867357 223.275618 158.310738 224.485561 158.310738 225.747 
C 158.310738 227.008439 158.867357 228.218382 159.858006 229.110353 
C 160.848655 230.002325 162.192453 230.5035 163.593443 230.5035 
z
" style="fill:#feebe2;"/>
   </g>
   <g id="patch_14">
    <path clip-path="url(#p3ecac38cf0)" d="M 163.593443 244.0935 
C 164.994432 244.0935 166.33823 243.592325 167.328879 242.700353 
C 168.319528 241.808382 168.876148 240.598439 168.876148 239.337 
C 168.876148 238.075561 168.319528 236.865618 167.328879 235.973647 
C 166.33823 235.081675 164.994432 234.5805 163.593443 234.5805 
C 162.192453 234.5805 160.848655 235.081675 159.858006 235.973647 
C 158.867357 236.865618 158.310738 238.075561 158.310738 239.337 
C 158.310738 240.598439 158.867357 241.808382 159.858006 242.700353 
C 160.848655 243.592325 162.192453 244.0935 163.593443 244.0935 
z
" style="fill:#feebe2;"/>
   </g>
   <g id="patch_15">
    <path clip-path="url(#p3ecac38cf0)" d="M 163.593443 257.6835 
C 164.994432 257.6835 166.33823 257.182325 167.328879 256.290353 
C 168.319528 255.398382 168.876148 254.188439 168.876148 252.927 
C 168.876148 251.665561 168.319528 250.455618 167.328879 249.563647 
C 166.33823 248.671675 164.994432 248.1705 163.593443 248.1705 
C 162.192453 248.1705 160.848655 248.671675 159.858006 249.563647 
C 158.867357 250.455618 158.310738 251.665561 158.310738 252.927 
C 158.310738 254.188439 158.867357 255.398382 159.858006 256.290353 
C 160.848655 257.182325 162.192453 257.6835 163.593443 257.6835 
z
" style="fill:#feebe2;"/>
   </g>
   <g id="patch_16">
    <path clip-path="url(#p3ecac38cf0)" d="M 163.593443 271.2735 
C 164.994432 271.2735 166.33823 270.772325 167.328879 269.880353 
C 168.319528 268.988382 168.876148 267.778439 168.876148 266.517 
C 168.876148 265.255561 168.319528 264.045618 167.328879 263.153647 
C 166.33823 262.261675 164.994432 261.7605 163.593443 261.7605 
C 162.192453 261.7605 160.848655 262.261675 159.858006 263.153647 
C 158.867357 264.045618 158.310738 265.255561 158.310738 266.517 
C 158.310738 267.778439 158.867357 268.988382 159.858006 269.880353 
C 160.848655 270.772325 162.192453 271.2735 163.593443 271.2735 
z
" style="fill:#c51b8a;"/>
   </g>
   <g id="patch_17">
    <path clip-path="url(#p3ecac38cf0)" d="M 163.593443 284.8635 
C 164.994432 284.8635 166.33823 284.362325 167.328879 283.470353 
C 168.319528 282.578382 168.876148 281.368439 168.876148 280.107 
C 168.876148 278.845561 168.319528 277.635618 167.328879 276.743647 
C 166.33823 275.851675 164.994432 275.3505 163.593443 275.3505 
C 162.192453 275.3505 160.848655 275.851675 159.858006 276.743647 
C 158.867357 277.635618 158.310738 278.845561 158.310738 280.107 
C 158.310738 281.368439 158.867357 282.578382 159.858006 283.470353 
C 160.848655 284.362325 162.192453 284.8635 163.593443 284.8635 
z
" style="fill:#c51b8a;"/>
   </g>
   <g id="patch_18">
    <path clip-path="url(#p3ecac38cf0)" d="M 163.593443 298.4535 
C 164.994432 298.4535 166.33823 297.952325 167.328879 297.060353 
C 168.319528 296.168382 168.876148 294.958439 168.876148 293.697 
C 168.876148 292.435561 168.319528 291.225618 167.328879 290.333647 
C 166.33823 289.441675 164.994432 288.9405 163.593443 288.9405 
C 162.192453 288.9405 160.848655 289.441675 159.858006 290.333647 
C 158.867357 291.225618 158.310738 292.435561 158.310738 293.697 
C 158.310738 294.958439 158.867357 296.168382 159.858006 297.060353 
C 160.848655 297.952325 162.192453 298.4535 163.593443 298.4535 
z
" style="fill:#c51b8a;"/>
   </g>
   <g id="patch_19">
    <path clip-path="url(#p3ecac38cf0)" d="M 163.593443 312.0435 
C 164.994432 312.0435 166.33823 311.542325 167.328879 310.650353 
C 168.319528 309.758382 168.876148 308.548439 168.876148 307.287 
C 168.876148 306.025561 168.319528 304.815618 167.328879 303.923647 
C 166.33823 303.031675 164.994432 302.5305 163.593443 302.5305 
C 162.192453 302.5305 160.848655 303.031675 159.858006 303.923647 
C 158.867357 304.815618 158.310738 306.025561 158.310738 307.287 
C 158.310738 308.548439 158.867357 309.758382 159.858006 310.650353 
C 160.848655 311.542325 162.192453 312.0435 163.593443 312.0435 
z
" style="fill:#c51b8a;"/>
   </g>
   <g id="patch_20">
    <path clip-path="url(#p3ecac38cf0)" d="M 163.593443 325.6335 
C 164.994432 325.6335 166.33823 325.132325 167.328879 324.240353 
C 168.319528 323.348382 168.876148 322.138439 168.876148 320.877 
C 168.876148 319.615561 168.319528 318.405618 167.328879 317.513647 
C 166.33823 316.621675 164.994432 316.1205 163.593443 316.1205 
C 162.192453 316.1205 160.848655 316.621675 159.858006 317.513647 
C 158.867357 318.405618 158.310738 319.615561 158.310738 320.877 
C 158.310738 322.138439 158.867357 323.348382 159.858006 324.240353 
C 160.848655 325.132325 162.192453 325.6335 163.593443 325.6335 
z
" style="fill:#c51b8a;"/>
   </g>
   <g id="patch_21">
    <path clip-path="url(#p3ecac38cf0)" d="M 163.593443 339.2235 
C 164.994432 339.2235 166.33823 338.722325 167.328879 337.830353 
C 168.319528 336.938382 168.876148 335.728439 168.876148 334.467 
C 168.876148 333.205561 168.319528 331.995618 167.328879 331.103647 
C 166.33823 330.211675 164.994432 329.7105 163.593443 329.7105 
C 162.192453 329.7105 160.848655 330.211675 159.858006 331.103647 
C 158.867357 331.995618 158.310738 333.205561 158.310738 334.467 
C 158.310738 335.728439 158.867357 336.938382 159.858006 337.830353 
C 160.848655 338.722325 162.192453 339.2235 163.593443 339.2235 
z
" style="fill:#c51b8a;"/>
   </g>
   <g id="patch_22">
    <path clip-path="url(#p3ecac38cf0)" d="M 163.593443 348.057 
L 163.593443 361.647 
" style="fill:#1f77b4;stroke:#000000;stroke-linejoin:miter;"/>
   </g>
   <g id="patch_23">
    <path clip-path="url(#p3ecac38cf0)" d="M 163.593443 352.8135 
C 164.994432 352.8135 166.33823 352.312325 167.328879 351.420353 
C 168.319528 350.528382 168.876148 349.318439 168.876148 348.057 
C 168.876148 346.795561 168.319528 345.585618 167.328879 344.693647 
C 166.33823 343.801675 164.994432 343.3005 163.593443 343.3005 
C 162.192453 343.3005 160.848655 343.801675 159.858006 344.693647 
C 158.867357 345.585618 158.310738 346.795561 158.310738 348.057 
C 158.310738 349.318439 158.867357 350.528382 159.858006 351.420353 
C 160.848655 352.312325 162.192453 352.8135 163.593443 352.8135 
z
" style="fill:#7a0177;"/>
   </g>
   <g id="patch_24">
    <path clip-path="url(#p3ecac38cf0)" d="M 163.593443 366.4035 
C 164.994432 366.4035 166.33823 365.902325 167.328879 365.010353 
C 168.319528 364.118382 168.876148 362.908439 168.876148 361.647 
C 168.876148 360.385561 168.319528 359.175618 167.328879 358.283647 
C 166.33823 357.391675 164.994432 356.8905 163.593443 356.8905 
C 162.192453 356.8905 160.848655 357.391675 159.858006 358.283647 
C 158.867357 359.175618 158.310738 360.385561 158.310738 361.647 
C 158.310738 362.908439 158.867357 364.118382 159.858006 365.010353 
C 160.848655 365.902325 162.192453 366.4035 163.593443 366.4035 
z
" style="fill:#c51b8a;"/>
   </g>
   <g id="patch_25">
    <path clip-path="url(#p3ecac38cf0)" d="M 163.593443 375.237 
L 163.593443 388.827 
" style="fill:#1f77b4;stroke:#000000;stroke-linejoin:miter;"/>
   </g>
   <g id="patch_26">
    <path clip-path="url(#p3ecac38cf0)" d="M 163.593443 379.9935 
C 164.994432 379.9935 166.33823 379.492325 167.328879 378.600353 
C 168.319528 377.708382 168.876148 376.498439 168.876148 375.237 
C 168.876148 373.975561 168.319528 372.765618 167.328879 371.873647 
C 166.33823 370.981675 164.994432 370.4805 163.593443 370.4805 
C 162.192453 370.4805 160.848655 370.981675 159.858006 371.873647 
C 158.867357 372.765618 158.310738 373.975561 158.310738 375.237 
C 158.310738 376.498439 158.867357 377.708382 159.858006 378.600353 
C 160.848655 379.492325 162.192453 379.9935 163.593443 379.9935 
z
" style="fill:#7a0177;"/>
   </g>
   <g id="patch_27">
    <path clip-path="url(#p3ecac38cf0)" d="M 163.593443 393.5835 
C 164.994432 393.5835 166.33823 393.082325 167.328879 392.190353 
C 168.319528 391.298382 168.876148 390.088439 168.876148 388.827 
C 168.876148 387.565561 168.319528 386.355618 167.328879 385.463647 
C 166.33823 384.571675 164.994432 384.0705 163.593443 384.0705 
C 162.192453 384.0705 160.848655 384.571675 159.858006 385.463647 
C 158.867357 386.355618 158.310738 387.565561 158.310738 388.827 
C 158.310738 390.088439 158.867357 391.298382 159.858006 392.190353 
C 160.848655 393.082325 162.192453 393.5835 163.593443 393.5835 
z
" style="fill:#7a0177;"/>
   </g>
   <g id="patch_28">
    <path clip-path="url(#p3ecac38cf0)" d="M 163.593443 402.571504 
L 175.066835 422.802 
" style="fill:#1f77b4;stroke:#000000;stroke-linejoin:miter;"/>
   </g>
   <g id="patch_29">
    <path clip-path="url(#p3ecac38cf0)" d="M 163.593443 402.571504 
L 186.233607 402.417 
" style="fill:#1f77b4;stroke:#000000;stroke-linejoin:miter;"/>
   </g>
   <g id="patch_30">
    <path clip-path="url(#p3ecac38cf0)" d="M 186.233607 402.417 
L 175.066835 422.802 
" style="fill:#1f77b4;stroke:#000000;stroke-linejoin:miter;"/>
   </g>
   <g id="patch_31">
    <path clip-path="url(#p3ecac38cf0)" d="M 163.593443 407.328004 
C 164.994432 407.328004 166.33823 406.826829 167.328879 405.934857 
C 168.319528 405.042885 168.876148 403.832942 168.876148 402.571504 
C 168.876148 401.310065 168.319528 400.100122 167.328879 399.20815 
C 166.33823 398.316178 164.994432 397.815004 163.593443 397.815004 
C 162.192453 397.815004 160.848655 398.316178 159.858006 399.20815 
C 158.867357 400.100122 158.310738 401.310065 158.310738 402.571504 
C 158.310738 403.832942 158.867357 405.042885 159.858006 405.934857 
C 160.848655 406.826829 162.192453 407.328004 163.593443 407.328004 
z
" style="fill:#7a0177;"/>
   </g>
   <g id="patch_32">
    <path clip-path="url(#p3ecac38cf0)" d="M 186.233607 407.1735 
C 187.634596 407.1735 188.978394 406.672325 189.969043 405.780353 
C 190.959692 404.888382 191.516311 403.678439 191.516311 402.417 
C 191.516311 401.155561 190.959692 399.945618 189.969043 399.053647 
C 188.978394 398.161675 187.634596 397.6605 186.233607 397.6605 
C 184.832617 397.6605 183.488819 398.161675 182.49817 399.053647 
C 181.507521 399.945618 180.950902 401.155561 180.950902 402.417 
C 180.950902 403.678439 181.507521 404.888382 182.49817 405.780353 
C 183.488819 406.672325 184.832617 407.1735 186.233607 407.1735 
z
" style="fill:#c51b8a;"/>
   </g>
   <g id="patch_33">
    <path clip-path="url(#p3ecac38cf0)" d="M 175.066835 427.5585 
C 176.467824 427.5585 177.811622 427.057325 178.802271 426.165353 
C 179.79292 425.273382 180.34954 424.063439 180.34954 422.802 
C 180.34954 421.540561 179.79292 420.330618 178.802271 419.438647 
C 177.811622 418.546675 176.467824 418.0455 175.066835 418.0455 
C 173.665845 418.0455 172.322048 418.546675 171.331398 419.438647 
C 170.340749 420.330618 169.78413 421.540561 169.78413 422.802 
C 169.78413 424.063439 170.340749 425.273382 171.331398 426.165353 
C 172.322048 427.057325 173.665845 427.5585 175.066835 427.5585 
z
" style="fill:#7a0177;"/>
   </g>
   <g id="patch_34">
    <path clip-path="url(#p3ecac38cf0)" d="M 163.593443 460.154484 
L 208.87377 463.978916 
" style="fill:#1f77b4;stroke:#000000;stroke-linejoin:miter;"/>
   </g>
   <g id="patch_35">
    <path clip-path="url(#p3ecac38cf0)" d="M 163.593443 460.154484 
L 184.679237 477.162 
" style="fill:#1f77b4;stroke:#000000;stroke-linejoin:miter;"/>
   </g>
   <g id="patch_36">
    <path clip-path="url(#p3ecac38cf0)" d="M 163.593443 460.154484 
L 174.671067 436.392 
" style="fill:#1f77b4;stroke:#000000;stroke-linejoin:miter;"/>
   </g>
   <g id="patch_37">
    <path clip-path="url(#p3ecac38cf0)" d="M 163.593443 460.154484 
L 202.564482 438.881038 
" style="fill:#1f77b4;stroke:#000000;stroke-linejoin:miter;"/>
   </g>
   <g id="patch_38">
    <path clip-path="url(#p3ecac38cf0)" d="M 208.87377 463.978916 
L 184.679237 477.162 
" style="fill:#1f77b4;stroke:#000000;stroke-linejoin:miter;"/>
   </g>
   <g id="patch_39">
    <path clip-path="url(#p3ecac38cf0)" d="M 208.87377 463.978916 
L 174.671067 436.392 
" style="fill:#1f77b4;stroke:#000000;stroke-linejoin:miter;"/>
   </g>
   <g id="patch_40">
    <path clip-path="url(#p3ecac38cf0)" d="M 208.87377 463.978916 
L 202.564482 438.881038 
" style="fill:#1f77b4;stroke:#000000;stroke-linejoin:miter;"/>
   </g>
   <g id="patch_41">
    <path clip-path="url(#p3ecac38cf0)" d="M 184.679237 477.162 
L 174.671067 436.392 
" style="fill:#1f77b4;stroke:#000000;stroke-linejoin:miter;"/>
   </g>
   <g id="patch_42">
    <path clip-path="url(#p3ecac38cf0)" d="M 184.679237 477.162 
L 202.564482 438.881038 
" style="fill:#1f77b4;stroke:#000000;stroke-linejoin:miter;"/>
   </g>
   <g id="patch_43">
    <path clip-path="url(#p3ecac38cf0)" d="M 174.671067 436.392 
L 202.564482 438.881038 
" style="fill:#1f77b4;stroke:#000000;stroke-linejoin:miter;"/>
   </g>
   <g id="patch_44">
    <path clip-path="url(#p3ecac38cf0)" d="M 163.593443 464.910984 
C 164.994432 464.910984 166.33823 464.40981 167.328879 463.517838 
C 168.319528 462.625866 168.876148 461.415923 168.876148 460.154484 
C 168.876148 458.893046 168.319528 457.683103 167.328879 456.791131 
C 166.33823 455.899159 164.994432 455.397984 163.593443 455.397984 
C 162.192453 455.397984 160.848655 455.899159 159.858006 456.791131 
C 158.867357 457.683103 158.310738 458.893046 158.310738 460.154484 
C 158.310738 461.415923 158.867357 462.625866 159.858006 463.517838 
C 160.848655 464.40981 162.192453 464.910984 163.593443 464.910984 
z
" style="fill:#c51b8a;"/>
   </g>
   <g id="patch_45">
    <path clip-path="url(#p3ecac38cf0)" d="M 208.87377 468.735416 
C 210.27476 468.735416 211.618558 468.234241 212.609207 467.342269 
C 213.599856 466.450298 214.156475 465.240354 214.156475 463.978916 
C 214.156475 462.717477 213.599856 461.507534 212.609207 460.615562 
C 211.618558 459.723591 210.27476 459.222416 208.87377 459.222416 
C 207.472781 459.222416 206.128983 459.723591 205.138334 460.615562 
C 204.147685 461.507534 203.591066 462.717477 203.591066 463.978916 
C 203.591066 465.240354 204.147685 466.450298 205.138334 467.342269 
C 206.128983 468.234241 207.472781 468.735416 208.87377 468.735416 
z
" style="fill:#c51b8a;"/>
   </g>
   <g id="patch_46">
    <path clip-path="url(#p3ecac38cf0)" d="M 184.679237 481.9185 
C 186.080227 481.9185 187.424024 481.417325 188.414673 480.525353 
C 189.405323 479.633382 189.961942 478.423439 189.961942 477.162 
C 189.961942 475.900561 189.405323 474.690618 188.414673 473.798647 
C 187.424024 472.906675 186.080227 472.4055 184.679237 472.4055 
C 183.278247 472.4055 181.93445 472.906675 180.943801 473.798647 
C 179.953151 474.690618 179.396532 475.900561 179.396532 477.162 
C 179.396532 478.423439 179.953151 479.633382 180.943801 480.525353 
C 181.93445 481.417325 183.278247 481.9185 184.679237 481.9185 
z
" style="fill:#c51b8a;"/>
   </g>
   <g id="patch_47">
    <path clip-path="url(#p3ecac38cf0)" d="M 174.671067 441.1485 
C 176.072057 441.1485 177.415854 440.647325 178.406503 439.755353 
C 179.397153 438.863382 179.953772 437.653439 179.953772 436.392 
C 179.953772 435.130561 179.397153 433.920618 178.406503 433.028647 
C 177.415854 432.136675 176.072057 431.6355 174.671067 431.6355 
C 173.270077 431.6355 171.92628 432.136675 170.93563 433.028647 
C 169.944981 433.920618 169.388362 435.130561 169.388362 436.392 
C 169.388362 437.653439 169.944981 438.863382 170.93563 439.755353 
C 171.92628 440.647325 173.270077 441.1485 174.671067 441.1485 
z
" style="fill:#c51b8a;"/>
   </g>
   <g id="patch_48">
    <path clip-path="url(#p3ecac38cf0)" d="M 202.564482 443.637538 
C 203.965471 443.637538 205.309269 443.136363 206.299918 442.244391 
C 207.290567 441.352419 207.847187 440.142476 207.847187 438.881038 
C 207.847187 437.619599 207.290567 436.409656 206.299918 435.517684 
C 205.309269 434.625712 203.965471 434.124538 202.564482 434.124538 
C 201.163492 434.124538 199.819694 434.625712 198.829045 435.517684 
C 197.838396 436.409656 197.281777 437.619599 197.281777 438.881038 
C 197.281777 440.142476 197.838396 441.352419 198.829045 442.244391 
C 199.819694 443.136363 201.163492 443.637538 202.564482 443.637538 
z
" style="fill:#c51b8a;"/>
   </g>
   <g id="text_1">
    <text style="font-family:DejaVu Sans;font-size:12px;font-style:normal;font-weight:normal;text-anchor:start;" transform="rotate(-0, 169.63082, 79.295437)" x="169.63082" y="79.295437">PID_TGFBR_PATHWAY</text>
   </g>
   <g id="text_2">
    <text style="font-family:DejaVu Sans;font-size:12px;font-style:normal;font-weight:normal;text-anchor:start;" transform="rotate(-0, 169.63082, 92.885437)" x="169.63082" y="92.885437">ST_FAS_SIGNALING_PATHWAY</text>
   </g>
   <g id="text_3">
    <text style="font-family:DejaVu Sans;font-size:12px;font-style:normal;font-weight:normal;text-anchor:start;" transform="rotate(-0, 169.63082, 106.475437)" x="169.63082" y="106.475437">KEGG_PPAR_SIGNALING_PATHWAY</text>
   </g>
   <g id="text_4">
    <text style="font-family:DejaVu Sans;font-size:12px;font-style:normal;font-weight:normal;text-anchor:start;" transform="rotate(-0, 169.63082, 120.065437)" x="169.63082" y="120.065437">REACTOME_SIGNALING_BY_NOTCH</text>
   </g>
   <g id="text_5">
    <text style="font-family:DejaVu Sans;font-size:12px;font-style:normal;font-weight:normal;text-anchor:start;" transform="rotate(-0, 169.63082, 133.655437)" x="169.63082" y="133.655437">KEGG_MTOR_SIGNALING_PATHWAY</text>
   </g>
   <g id="text_6">
    <text style="font-family:DejaVu Sans;font-size:12px;font-style:normal;font-weight:normal;text-anchor:start;" transform="rotate(-0, 169.63082, 147.245437)" x="169.63082" y="147.245437">KEGG_EPITHELIAL_CELL_SIGNALING_IN_HELICOBACTER_PYLORI_INFECTION</text>
   </g>
   <g id="text_7">
    <text style="font-family:DejaVu Sans;font-size:12px;font-style:normal;font-weight:normal;text-anchor:start;" transform="rotate(-0, 169.63082, 160.835437)" x="169.63082" y="160.835437">KEGG_WNT_SIGNALING_PATHWAY</text>
   </g>
   <g id="text_8">
    <text style="font-family:DejaVu Sans;font-size:12px;font-style:normal;font-weight:normal;text-anchor:start;" transform="rotate(-0, 169.63082, 174.425437)" x="169.63082" y="174.425437">PID_PRL_SIGNALING_EVENTS_PATHWAY</text>
   </g>
   <g id="text_9">
    <text style="font-family:DejaVu Sans;font-size:12px;font-style:normal;font-weight:normal;text-anchor:start;" transform="rotate(-0, 169.63082, 188.015437)" x="169.63082" y="188.015437">REACTOME_SIGNALING_BY_WNT</text>
   </g>
   <g id="text_10">
    <text style="font-family:DejaVu Sans;font-size:12px;font-style:normal;font-weight:normal;text-anchor:start;" transform="rotate(-0, 169.63082, 201.605437)" x="169.63082" y="201.605437">WNT_SIGNALING</text>
   </g>
   <g id="text_11">
    <text style="font-family:DejaVu Sans;font-size:12px;font-style:normal;font-weight:normal;text-anchor:start;" transform="rotate(-0, 169.63082, 215.195437)" x="169.63082" y="215.195437">KEGG_NOTCH_SIGNALING_PATHWAY</text>
   </g>
   <g id="text_12">
    <text style="font-family:DejaVu Sans;font-size:12px;font-style:normal;font-weight:normal;text-anchor:start;" transform="rotate(-0, 169.63082, 228.785437)" x="169.63082" y="228.785437">REACTOME_PD1_SIGNALING</text>
   </g>
   <g id="text_13">
    <text style="font-family:DejaVu Sans;font-size:12px;font-style:normal;font-weight:normal;text-anchor:start;" transform="rotate(-0, 169.63082, 242.375437)" x="169.63082" y="242.375437">PID_HES_HEY_PATHWAY</text>
   </g>
   <g id="text_14">
    <text style="font-family:DejaVu Sans;font-size:12px;font-style:normal;font-weight:normal;text-anchor:start;" transform="rotate(-0, 169.63082, 255.965437)" x="169.63082" y="255.965437">PID_EPO_PATHWAY</text>
   </g>
   <g id="text_15">
    <text style="font-family:DejaVu Sans;font-size:12px;font-style:normal;font-weight:normal;text-anchor:start;" transform="rotate(-0, 169.63082, 269.555437)" x="169.63082" y="269.555437">KEGG_NOD_LIKE_RECEPTOR_SIGNALING_PATHWAY</text>
   </g>
   <g id="text_16">
    <text style="font-family:DejaVu Sans;font-size:12px;font-style:normal;font-weight:normal;text-anchor:start;" transform="rotate(-0, 169.63082, 283.145437)" x="169.63082" y="283.145437">REACTOME_GPVI_MEDIATED_ACTIVATION_CASCADE</text>
   </g>
   <g id="text_17">
    <text style="font-family:DejaVu Sans;font-size:12px;font-style:normal;font-weight:normal;text-anchor:start;" transform="rotate(-0, 169.63082, 296.735437)" x="169.63082" y="296.735437">BIOCARTA_ALK_PATHWAY</text>
   </g>
   <g id="text_18">
    <text style="font-family:DejaVu Sans;font-size:12px;font-style:normal;font-weight:normal;text-anchor:start;" transform="rotate(-0, 169.63082, 310.325437)" x="169.63082" y="310.325437">KEGG_MAPK_SIGNALING_PATHWAY</text>
   </g>
   <g id="text_19">
    <text style="font-family:DejaVu Sans;font-size:12px;font-style:normal;font-weight:normal;text-anchor:start;" transform="rotate(-0, 169.63082, 323.915437)" x="169.63082" y="323.915437">KEGG_JAK_STAT_SIGNALING_PATHWAY</text>
   </g>
   <g id="text_20">
    <text style="font-family:DejaVu Sans;font-size:12px;font-style:normal;font-weight:normal;text-anchor:start;" transform="rotate(-0, 169.63082, 337.505437)" x="169.63082" y="337.505437">KEGG_TGF_BETA_SIGNALING_PATHWAY</text>
   </g>
   <g id="text_21">
    <text style="font-family:DejaVu Sans;font-size:12px;font-style:normal;font-weight:normal;text-anchor:start;" transform="rotate(-0, 169.63082, 351.095437)" x="169.63082" y="351.095437">REACTOME_TRANSMEMBRANE_TRANSPORT_OF_SMALL_MOLECULES</text>
   </g>
   <g id="text_22">
    <text style="font-family:DejaVu Sans;font-size:12px;font-style:normal;font-weight:normal;text-anchor:start;" transform="rotate(-0, 169.63082, 364.685437)" x="169.63082" y="364.685437">REACTOME_SLC_MEDIATED_TRANSMEMBRANE_TRANSPORT</text>
   </g>
   <g id="text_23">
    <text style="font-family:DejaVu Sans;font-size:12px;font-style:normal;font-weight:normal;text-anchor:start;" transform="rotate(-0, 169.63082, 378.275437)" x="169.63082" y="378.275437">REACTOME_G_ALPHA_Q_SIGNALLING_EVENTS</text>
   </g>
   <g id="text_24">
    <text style="font-family:DejaVu Sans;font-size:12px;font-style:normal;font-weight:normal;text-anchor:start;" transform="rotate(-0, 169.63082, 391.865437)" x="169.63082" y="391.865437">REACTOME_GASTRIN_CREB_SIGNALLING_PATHWAY_VIA_PKC_AND_MAPK</text>
   </g>
   <g id="text_25">
    <text style="font-family:DejaVu Sans;font-size:12px;font-style:normal;font-weight:normal;text-anchor:start;" transform="rotate(-0, 169.63082, 405.609941)" x="169.63082" y="405.609941">REACTOME_TGF_BETA_RECEPTOR_SIGNALING_ACTIVATES_SMADS</text>
   </g>
   <g id="text_26">
    <text style="font-family:DejaVu Sans;font-size:12px;font-style:normal;font-weight:normal;text-anchor:start;" transform="rotate(-0, 192.270984, 405.455437)" x="192.270984" y="405.455437">REACTOME_SIGNALING_BY_TGF_BETA_RECEPTOR_COMPLEX</text>
   </g>
   <g id="text_27">
    <text style="font-family:DejaVu Sans;font-size:12px;font-style:normal;font-weight:normal;text-anchor:start;" transform="rotate(-0, 181.104212, 425.840437)" x="181.104212" y="425.840437">REACTOME_DOWNREGULATION_OF_TGF_BETA_RECEPTOR_SIGNALING</text>
   </g>
   <g id="text_28">
    <text style="font-family:DejaVu Sans;font-size:12px;font-style:normal;font-weight:normal;text-anchor:start;" transform="rotate(-0, 169.63082, 463.192922)" x="169.63082" y="463.192922">REACTOME_CLASS_A1_RHODOPSIN_LIKE_RECEPTORS</text>
   </g>
   <g id="text_29">
    <text style="font-family:DejaVu Sans;font-size:12px;font-style:normal;font-weight:normal;text-anchor:start;" transform="rotate(-0, 214.911148, 467.017353)" x="214.911148" y="467.017353">REACTOME_PEPTIDE_LIGAND_BINDING_RECEPTORS</text>
   </g>
   <g id="text_30">
    <text style="font-family:DejaVu Sans;font-size:12px;font-style:normal;font-weight:normal;text-anchor:start;" transform="rotate(-0, 190.716614, 480.200437)" x="190.716614" y="480.200437">REACTOME_GPCR_DOWNSTREAM_SIGNALING</text>
   </g>
   <g id="text_31">
    <text style="font-family:DejaVu Sans;font-size:12px;font-style:normal;font-weight:normal;text-anchor:start;" transform="rotate(-0, 180.708444, 439.430437)" x="180.708444" y="439.430437">REACTOME_GPCR_LIGAND_BINDING</text>
   </g>
   <g id="text_32">
    <text style="font-family:DejaVu Sans;font-size:12px;font-style:normal;font-weight:normal;text-anchor:start;" transform="rotate(-0, 208.601859, 441.919475)" x="208.601859" y="441.919475">REACTOME_G_ALPHA_I_SIGNALLING_EVENTS</text>
   </g>
   <g id="text_33">
    <text style="font-family:DejaVu Sans;font-size:12px;font-style:normal;font-weight:normal;text-anchor:middle;" transform="rotate(-0, 608.85, 60.744)" x="608.85" y="60.744">Signaling</text>
   </g>
  </g>
 </g>
 <defs>
  <clipPath id="p3ecac38cf0">
   <rect height="419.931" width="920.7" x="148.5" y="66.744"/>
  </clipPath>
 </defs>
</svg>
