<?xml version="1.0" encoding="utf-8" standalone="no"?>
<!DOCTYPE svg PUBLIC "-//W3C//DTD SVG 1.1//EN"
  "http://www.w3.org/Graphics/SVG/1.1/DTD/svg11.dtd">
<!-- Created with matplotlib (https://matplotlib.org/) -->
<svg height="815.261487pt" version="1.1" viewBox="0 0 1230.368923 815.261487" width="1230.368923pt" xmlns="http://www.w3.org/2000/svg" xmlns:xlink="http://www.w3.org/1999/xlink">
 <defs>
  <style type="text/css">
*{stroke-linecap:butt;stroke-linejoin:round;}
  </style>
 </defs>
 <g id="figure_1">
  <g id="patch_1">
   <path d="M 0 815.261487 
L 1230.368923 815.261487 
L 1230.368923 0 
L 0 0 
z
" style="fill:#ffffff;"/>
  </g>
  <g id="axes_1">
   <g id="patch_2">
    <path clip-path="url(#p4e9cc6bee9)" d="M 168.847075 112.100878 
C 170.244121 112.100878 171.584136 111.599704 172.571997 110.707732 
C 173.559858 109.81576 174.114911 108.605817 174.114911 107.344378 
C 174.114911 106.08294 173.559858 104.872997 172.571997 103.981025 
C 171.584136 103.089053 170.244121 102.587878 168.847075 102.587878 
C 167.450029 102.587878 166.110013 103.089053 165.122152 103.981025 
C 164.134292 104.872997 163.579239 106.08294 163.579239 107.344378 
C 163.579239 108.605817 164.134292 109.81576 165.122152 110.707732 
C 166.110013 111.599704 167.450029 112.100878 168.847075 112.100878 
z
" style="fill:#7a0177;"/>
   </g>
   <g id="patch_3">
    <path clip-path="url(#p4e9cc6bee9)" d="M 168.847075 125.690878 
C 170.244121 125.690878 171.584136 125.189704 172.571997 124.297732 
C 173.559858 123.40576 174.114911 122.195817 174.114911 120.934378 
C 174.114911 119.67294 173.559858 118.462997 172.571997 117.571025 
C 171.584136 116.679053 170.244121 116.177878 168.847075 116.177878 
C 167.450029 116.177878 166.110013 116.679053 165.122152 117.571025 
C 164.134292 118.462997 163.579239 119.67294 163.579239 120.934378 
C 163.579239 122.195817 164.134292 123.40576 165.122152 124.297732 
C 166.110013 125.189704 167.450029 125.690878 168.847075 125.690878 
z
" style="fill:#7a0177;"/>
   </g>
   <g id="patch_4">
    <path clip-path="url(#p4e9cc6bee9)" d="M 168.847075 139.280878 
C 170.244121 139.280878 171.584136 138.779704 172.571997 137.887732 
C 173.559858 136.99576 174.114911 135.785817 174.114911 134.524378 
C 174.114911 133.26294 173.559858 132.052997 172.571997 131.161025 
C 171.584136 130.269053 170.244121 129.767878 168.847075 129.767878 
C 167.450029 129.767878 166.110013 130.269053 165.122152 131.161025 
C 164.134292 132.052997 163.579239 133.26294 163.579239 134.524378 
C 163.579239 135.785817 164.134292 136.99576 165.122152 137.887732 
C 166.110013 138.779704 167.450029 139.280878 168.847075 139.280878 
z
" style="fill:#7a0177;"/>
   </g>
   <g id="patch_5">
    <path clip-path="url(#p4e9cc6bee9)" d="M 168.847075 152.870878 
C 170.244121 152.870878 171.584136 152.369704 172.571997 151.477732 
C 173.559858 150.58576 174.114911 149.375817 174.114911 148.114378 
C 174.114911 146.85294 173.559858 145.642997 172.571997 144.751025 
C 171.584136 143.859053 170.244121 143.357878 168.847075 143.357878 
C 167.450029 143.357878 166.110013 143.859053 165.122152 144.751025 
C 164.134292 145.642997 163.579239 146.85294 163.579239 148.114378 
C 163.579239 149.375817 164.134292 150.58576 165.122152 151.477732 
C 166.110013 152.369704 167.450029 152.870878 168.847075 152.870878 
z
" style="fill:#7a0177;"/>
   </g>
   <g id="patch_6">
    <path clip-path="url(#p4e9cc6bee9)" d="M 168.847075 166.460878 
C 170.244121 166.460878 171.584136 165.959704 172.571997 165.067732 
C 173.559858 164.17576 174.114911 162.965817 174.114911 161.704378 
C 174.114911 160.44294 173.559858 159.232997 172.571997 158.341025 
C 171.584136 157.449053 170.244121 156.947878 168.847075 156.947878 
C 167.450029 156.947878 166.110013 157.449053 165.122152 158.341025 
C 164.134292 159.232997 163.579239 160.44294 163.579239 161.704378 
C 163.579239 162.965817 164.134292 164.17576 165.122152 165.067732 
C 166.110013 165.959704 167.450029 166.460878 168.847075 166.460878 
z
" style="fill:#7a0177;"/>
   </g>
   <g id="patch_7">
    <path clip-path="url(#p4e9cc6bee9)" d="M 168.847075 180.050878 
C 170.244121 180.050878 171.584136 179.549704 172.571997 178.657732 
C 173.559858 177.76576 174.114911 176.555817 174.114911 175.294378 
C 174.114911 174.03294 173.559858 172.822997 172.571997 171.931025 
C 171.584136 171.039053 170.244121 170.537878 168.847075 170.537878 
C 167.450029 170.537878 166.110013 171.039053 165.122152 171.931025 
C 164.134292 172.822997 163.579239 174.03294 163.579239 175.294378 
C 163.579239 176.555817 164.134292 177.76576 165.122152 178.657732 
C 166.110013 179.549704 167.450029 180.050878 168.847075 180.050878 
z
" style="fill:#feebe2;"/>
   </g>
   <g id="patch_8">
    <path clip-path="url(#p4e9cc6bee9)" d="M 168.847075 193.640878 
C 170.244121 193.640878 171.584136 193.139704 172.571997 192.247732 
C 173.559858 191.35576 174.114911 190.145817 174.114911 188.884378 
C 174.114911 187.62294 173.559858 186.412997 172.571997 185.521025 
C 171.584136 184.629053 170.244121 184.127878 168.847075 184.127878 
C 167.450029 184.127878 166.110013 184.629053 165.122152 185.521025 
C 164.134292 186.412997 163.579239 187.62294 163.579239 188.884378 
C 163.579239 190.145817 164.134292 191.35576 165.122152 192.247732 
C 166.110013 193.139704 167.450029 193.640878 168.847075 193.640878 
z
" style="fill:#feebe2;"/>
   </g>
   <g id="patch_9">
    <path clip-path="url(#p4e9cc6bee9)" d="M 168.847075 207.230878 
C 170.244121 207.230878 171.584136 206.729704 172.571997 205.837732 
C 173.559858 204.94576 174.114911 203.735817 174.114911 202.474378 
C 174.114911 201.21294 173.559858 200.002997 172.571997 199.111025 
C 171.584136 198.219053 170.244121 197.717878 168.847075 197.717878 
C 167.450029 197.717878 166.110013 198.219053 165.122152 199.111025 
C 164.134292 200.002997 163.579239 201.21294 163.579239 202.474378 
C 163.579239 203.735817 164.134292 204.94576 165.122152 205.837732 
C 166.110013 206.729704 167.450029 207.230878 168.847075 207.230878 
z
" style="fill:#feebe2;"/>
   </g>
   <g id="patch_10">
    <path clip-path="url(#p4e9cc6bee9)" d="M 168.847075 220.820878 
C 170.244121 220.820878 171.584136 220.319704 172.571997 219.427732 
C 173.559858 218.53576 174.114911 217.325817 174.114911 216.064378 
C 174.114911 214.80294 173.559858 213.592997 172.571997 212.701025 
C 171.584136 211.809053 170.244121 211.307878 168.847075 211.307878 
C 167.450029 211.307878 166.110013 211.809053 165.122152 212.701025 
C 164.134292 213.592997 163.579239 214.80294 163.579239 216.064378 
C 163.579239 217.325817 164.134292 218.53576 165.122152 219.427732 
C 166.110013 220.319704 167.450029 220.820878 168.847075 220.820878 
z
" style="fill:#feebe2;"/>
   </g>
   <g id="patch_11">
    <path clip-path="url(#p4e9cc6bee9)" d="M 168.847075 234.410878 
C 170.244121 234.410878 171.584136 233.909704 172.571997 233.017732 
C 173.559858 232.12576 174.114911 230.915817 174.114911 229.654378 
C 174.114911 228.39294 173.559858 227.182997 172.571997 226.291025 
C 171.584136 225.399053 170.244121 224.897878 168.847075 224.897878 
C 167.450029 224.897878 166.110013 225.399053 165.122152 226.291025 
C 164.134292 227.182997 163.579239 228.39294 163.579239 229.654378 
C 163.579239 230.915817 164.134292 232.12576 165.122152 233.017732 
C 166.110013 233.909704 167.450029 234.410878 168.847075 234.410878 
z
" style="fill:#feebe2;"/>
   </g>
   <g id="patch_12">
    <path clip-path="url(#p4e9cc6bee9)" d="M 168.847075 248.000878 
C 170.244121 248.000878 171.584136 247.499704 172.571997 246.607732 
C 173.559858 245.71576 174.114911 244.505817 174.114911 243.244378 
C 174.114911 241.98294 173.559858 240.772997 172.571997 239.881025 
C 171.584136 238.989053 170.244121 238.487878 168.847075 238.487878 
C 167.450029 238.487878 166.110013 238.989053 165.122152 239.881025 
C 164.134292 240.772997 163.579239 241.98294 163.579239 243.244378 
C 163.579239 244.505817 164.134292 245.71576 165.122152 246.607732 
C 166.110013 247.499704 167.450029 248.000878 168.847075 248.000878 
z
" style="fill:#c51b8a;"/>
   </g>
   <g id="patch_13">
    <path clip-path="url(#p4e9cc6bee9)" d="M 168.847075 261.590878 
C 170.244121 261.590878 171.584136 261.089704 172.571997 260.197732 
C 173.559858 259.30576 174.114911 258.095817 174.114911 256.834378 
C 174.114911 255.57294 173.559858 254.362997 172.571997 253.471025 
C 171.584136 252.579053 170.244121 252.077878 168.847075 252.077878 
C 167.450029 252.077878 166.110013 252.579053 165.122152 253.471025 
C 164.134292 254.362997 163.579239 255.57294 163.579239 256.834378 
C 163.579239 258.095817 164.134292 259.30576 165.122152 260.197732 
C 166.110013 261.089704 167.450029 261.590878 168.847075 261.590878 
z
" style="fill:#c51b8a;"/>
   </g>
   <g id="patch_14">
    <path clip-path="url(#p4e9cc6bee9)" d="M 168.847075 275.180878 
C 170.244121 275.180878 171.584136 274.679704 172.571997 273.787732 
C 173.559858 272.89576 174.114911 271.685817 174.114911 270.424378 
C 174.114911 269.16294 173.559858 267.952997 172.571997 267.061025 
C 171.584136 266.169053 170.244121 265.667878 168.847075 265.667878 
C 167.450029 265.667878 166.110013 266.169053 165.122152 267.061025 
C 164.134292 267.952997 163.579239 269.16294 163.579239 270.424378 
C 163.579239 271.685817 164.134292 272.89576 165.122152 273.787732 
C 166.110013 274.679704 167.450029 275.180878 168.847075 275.180878 
z
" style="fill:#c51b8a;"/>
   </g>
   <g id="patch_15">
    <path clip-path="url(#p4e9cc6bee9)" d="M 168.847075 284.014378 
L 168.847075 297.604378 
" style="fill:#1f77b4;stroke:#000000;stroke-linejoin:miter;"/>
   </g>
   <g id="patch_16">
    <path clip-path="url(#p4e9cc6bee9)" d="M 168.847075 288.770878 
C 170.244121 288.770878 171.584136 288.269704 172.571997 287.377732 
C 173.559858 286.48576 174.114911 285.275817 174.114911 284.014378 
C 174.114911 282.75294 173.559858 281.542997 172.571997 280.651025 
C 171.584136 279.759053 170.244121 279.257878 168.847075 279.257878 
C 167.450029 279.257878 166.110013 279.759053 165.122152 280.651025 
C 164.134292 281.542997 163.579239 282.75294 163.579239 284.014378 
C 163.579239 285.275817 164.134292 286.48576 165.122152 287.377732 
C 166.110013 288.269704 167.450029 288.770878 168.847075 288.770878 
z
" style="fill:#7a0177;"/>
   </g>
   <g id="patch_17">
    <path clip-path="url(#p4e9cc6bee9)" d="M 168.847075 302.360878 
C 170.244121 302.360878 171.584136 301.859704 172.571997 300.967732 
C 173.559858 300.07576 174.114911 298.865817 174.114911 297.604378 
C 174.114911 296.34294 173.559858 295.132997 172.571997 294.241025 
C 171.584136 293.349053 170.244121 292.847878 168.847075 292.847878 
C 167.450029 292.847878 166.110013 293.349053 165.122152 294.241025 
C 164.134292 295.132997 163.579239 296.34294 163.579239 297.604378 
C 163.579239 298.865817 164.134292 300.07576 165.122152 300.967732 
C 166.110013 301.859704 167.450029 302.360878 168.847075 302.360878 
z
" style="fill:#7a0177;"/>
   </g>
   <g id="patch_18">
    <path clip-path="url(#p4e9cc6bee9)" d="M 168.847075 311.194378 
L 168.847075 324.784378 
" style="fill:#1f77b4;stroke:#000000;stroke-linejoin:miter;"/>
   </g>
   <g id="patch_19">
    <path clip-path="url(#p4e9cc6bee9)" d="M 168.847075 315.950878 
C 170.244121 315.950878 171.584136 315.449704 172.571997 314.557732 
C 173.559858 313.66576 174.114911 312.455817 174.114911 311.194378 
C 174.114911 309.93294 173.559858 308.722997 172.571997 307.831025 
C 171.584136 306.939053 170.244121 306.437878 168.847075 306.437878 
C 167.450029 306.437878 166.110013 306.939053 165.122152 307.831025 
C 164.134292 308.722997 163.579239 309.93294 163.579239 311.194378 
C 163.579239 312.455817 164.134292 313.66576 165.122152 314.557732 
C 166.110013 315.449704 167.450029 315.950878 168.847075 315.950878 
z
" style="fill:#feebe2;"/>
   </g>
   <g id="patch_20">
    <path clip-path="url(#p4e9cc6bee9)" d="M 168.847075 329.540878 
C 170.244121 329.540878 171.584136 329.039704 172.571997 328.147732 
C 173.559858 327.25576 174.114911 326.045817 174.114911 324.784378 
C 174.114911 323.52294 173.559858 322.312997 172.571997 321.421025 
C 171.584136 320.529053 170.244121 320.027878 168.847075 320.027878 
C 167.450029 320.027878 166.110013 320.529053 165.122152 321.421025 
C 164.134292 322.312997 163.579239 323.52294 163.579239 324.784378 
C 163.579239 326.045817 164.134292 327.25576 165.122152 328.147732 
C 166.110013 329.039704 167.450029 329.540878 168.847075 329.540878 
z
" style="fill:#feebe2;"/>
   </g>
   <g id="patch_21">
    <path clip-path="url(#p4e9cc6bee9)" d="M 168.847075 338.374378 
L 168.847075 365.554378 
" style="fill:#1f77b4;stroke:#000000;stroke-linejoin:miter;"/>
   </g>
   <g id="patch_22">
    <path clip-path="url(#p4e9cc6bee9)" d="M 168.847075 351.964378 
L 168.847075 365.554378 
" style="fill:#1f77b4;stroke:#000000;stroke-linejoin:miter;"/>
   </g>
   <g id="patch_23">
    <path clip-path="url(#p4e9cc6bee9)" d="M 168.847075 343.130878 
C 170.244121 343.130878 171.584136 342.629704 172.571997 341.737732 
C 173.559858 340.84576 174.114911 339.635817 174.114911 338.374378 
C 174.114911 337.11294 173.559858 335.902997 172.571997 335.011025 
C 171.584136 334.119053 170.244121 333.617878 168.847075 333.617878 
C 167.450029 333.617878 166.110013 334.119053 165.122152 335.011025 
C 164.134292 335.902997 163.579239 337.11294 163.579239 338.374378 
C 163.579239 339.635817 164.134292 340.84576 165.122152 341.737732 
C 166.110013 342.629704 167.450029 343.130878 168.847075 343.130878 
z
" style="fill:#7a0177;"/>
   </g>
   <g id="patch_24">
    <path clip-path="url(#p4e9cc6bee9)" d="M 168.847075 356.720878 
C 170.244121 356.720878 171.584136 356.219704 172.571997 355.327732 
C 173.559858 354.43576 174.114911 353.225817 174.114911 351.964378 
C 174.114911 350.70294 173.559858 349.492997 172.571997 348.601025 
C 171.584136 347.709053 170.244121 347.207878 168.847075 347.207878 
C 167.450029 347.207878 166.110013 347.709053 165.122152 348.601025 
C 164.134292 349.492997 163.579239 350.70294 163.579239 351.964378 
C 163.579239 353.225817 164.134292 354.43576 165.122152 355.327732 
C 166.110013 356.219704 167.450029 356.720878 168.847075 356.720878 
z
" style="fill:#7a0177;"/>
   </g>
   <g id="patch_25">
    <path clip-path="url(#p4e9cc6bee9)" d="M 168.847075 370.310878 
C 170.244121 370.310878 171.584136 369.809704 172.571997 368.917732 
C 173.559858 368.02576 174.114911 366.815817 174.114911 365.554378 
C 174.114911 364.29294 173.559858 363.082997 172.571997 362.191025 
C 171.584136 361.299053 170.244121 360.797878 168.847075 360.797878 
C 167.450029 360.797878 166.110013 361.299053 165.122152 362.191025 
C 164.134292 363.082997 163.579239 364.29294 163.579239 365.554378 
C 163.579239 366.815817 164.134292 368.02576 165.122152 368.917732 
C 166.110013 369.809704 167.450029 370.310878 168.847075 370.310878 
z
" style="fill:#7a0177;"/>
   </g>
   <g id="patch_26">
    <path clip-path="url(#p4e9cc6bee9)" d="M 168.847075 379.144378 
L 168.847075 392.734378 
" style="fill:#1f77b4;stroke:#000000;stroke-linejoin:miter;"/>
   </g>
   <g id="patch_27">
    <path clip-path="url(#p4e9cc6bee9)" d="M 168.847075 392.734378 
L 168.847075 406.324378 
" style="fill:#1f77b4;stroke:#000000;stroke-linejoin:miter;"/>
   </g>
   <g id="patch_28">
    <path clip-path="url(#p4e9cc6bee9)" d="M 168.847075 383.900878 
C 170.244121 383.900878 171.584136 383.399704 172.571997 382.507732 
C 173.559858 381.61576 174.114911 380.405817 174.114911 379.144378 
C 174.114911 377.88294 173.559858 376.672997 172.571997 375.781025 
C 171.584136 374.889053 170.244121 374.387878 168.847075 374.387878 
C 167.450029 374.387878 166.110013 374.889053 165.122152 375.781025 
C 164.134292 376.672997 163.579239 377.88294 163.579239 379.144378 
C 163.579239 380.405817 164.134292 381.61576 165.122152 382.507732 
C 166.110013 383.399704 167.450029 383.900878 168.847075 383.900878 
z
" style="fill:#7a0177;"/>
   </g>
   <g id="patch_29">
    <path clip-path="url(#p4e9cc6bee9)" d="M 168.847075 397.490878 
C 170.244121 397.490878 171.584136 396.989704 172.571997 396.097732 
C 173.559858 395.20576 174.114911 393.995817 174.114911 392.734378 
C 174.114911 391.47294 173.559858 390.262997 172.571997 389.371025 
C 171.584136 388.479053 170.244121 387.977878 168.847075 387.977878 
C 167.450029 387.977878 166.110013 388.479053 165.122152 389.371025 
C 164.134292 390.262997 163.579239 391.47294 163.579239 392.734378 
C 163.579239 393.995817 164.134292 395.20576 165.122152 396.097732 
C 166.110013 396.989704 167.450029 397.490878 168.847075 397.490878 
z
" style="fill:#7a0177;"/>
   </g>
   <g id="patch_30">
    <path clip-path="url(#p4e9cc6bee9)" d="M 168.847075 411.080878 
C 170.244121 411.080878 171.584136 410.579704 172.571997 409.687732 
C 173.559858 408.79576 174.114911 407.585817 174.114911 406.324378 
C 174.114911 405.06294 173.559858 403.852997 172.571997 402.961025 
C 171.584136 402.069053 170.244121 401.567878 168.847075 401.567878 
C 167.450029 401.567878 166.110013 402.069053 165.122152 402.961025 
C 164.134292 403.852997 163.579239 405.06294 163.579239 406.324378 
C 163.579239 407.585817 164.134292 408.79576 165.122152 409.687732 
C 166.110013 410.579704 167.450029 411.080878 168.847075 411.080878 
z
" style="fill:#7a0177;"/>
   </g>
   <g id="patch_31">
    <path clip-path="url(#p4e9cc6bee9)" d="M 168.847075 420.068882 
L 191.423514 419.914378 
" style="fill:#1f77b4;stroke:#000000;stroke-linejoin:miter;"/>
   </g>
   <g id="patch_32">
    <path clip-path="url(#p4e9cc6bee9)" d="M 168.847075 420.068882 
L 180.288173 440.299378 
" style="fill:#1f77b4;stroke:#000000;stroke-linejoin:miter;"/>
   </g>
   <g id="patch_33">
    <path clip-path="url(#p4e9cc6bee9)" d="M 191.423514 419.914378 
L 180.288173 440.299378 
" style="fill:#1f77b4;stroke:#000000;stroke-linejoin:miter;"/>
   </g>
   <g id="patch_34">
    <path clip-path="url(#p4e9cc6bee9)" d="M 168.847075 424.825382 
C 170.244121 424.825382 171.584136 424.324207 172.571997 423.432235 
C 173.559858 422.540264 174.114911 421.330321 174.114911 420.068882 
C 174.114911 418.807444 173.559858 417.5975 172.571997 416.705529 
C 171.584136 415.813557 170.244121 415.312382 168.847075 415.312382 
C 167.450029 415.312382 166.110013 415.813557 165.122152 416.705529 
C 164.134292 417.5975 163.579239 418.807444 163.579239 420.068882 
C 163.579239 421.330321 164.134292 422.540264 165.122152 423.432235 
C 166.110013 424.324207 167.450029 424.825382 168.847075 424.825382 
z
" style="fill:#7a0177;"/>
   </g>
   <g id="patch_35">
    <path clip-path="url(#p4e9cc6bee9)" d="M 191.423514 424.670878 
C 192.820561 424.670878 194.160576 424.169704 195.148437 423.277732 
C 196.136298 422.38576 196.69135 421.175817 196.69135 419.914378 
C 196.69135 418.65294 196.136298 417.442997 195.148437 416.551025 
C 194.160576 415.659053 192.820561 415.157878 191.423514 415.157878 
C 190.026468 415.157878 188.686453 415.659053 187.698592 416.551025 
C 186.710731 417.442997 186.155678 418.65294 186.155678 419.914378 
C 186.155678 421.175817 186.710731 422.38576 187.698592 423.277732 
C 188.686453 424.169704 190.026468 424.670878 191.423514 424.670878 
z
" style="fill:#7a0177;"/>
   </g>
   <g id="patch_36">
    <path clip-path="url(#p4e9cc6bee9)" d="M 180.288173 445.055878 
C 181.685219 445.055878 183.025235 444.554704 184.013096 443.662732 
C 185.000957 442.77076 185.556009 441.560817 185.556009 440.299378 
C 185.556009 439.03794 185.000957 437.827997 184.013096 436.936025 
C 183.025235 436.044053 181.685219 435.542878 180.288173 435.542878 
C 178.891127 435.542878 177.551112 436.044053 176.563251 436.936025 
C 175.57539 437.827997 175.020337 439.03794 175.020337 440.299378 
C 175.020337 441.560817 175.57539 442.77076 176.563251 443.662732 
C 177.551112 444.554704 178.891127 445.055878 180.288173 445.055878 
z
" style="fill:#7a0177;"/>
   </g>
   <g id="patch_37">
    <path clip-path="url(#p4e9cc6bee9)" d="M 174.914097 480.956201 
L 168.847075 494.659378 
" style="fill:#1f77b4;stroke:#000000;stroke-linejoin:miter;"/>
   </g>
   <g id="patch_38">
    <path clip-path="url(#p4e9cc6bee9)" d="M 174.914097 480.956201 
L 185.817108 467.406904 
" style="fill:#1f77b4;stroke:#000000;stroke-linejoin:miter;"/>
   </g>
   <g id="patch_39">
    <path clip-path="url(#p4e9cc6bee9)" d="M 185.817108 467.406904 
L 175.407911 453.889378 
" style="fill:#1f77b4;stroke:#000000;stroke-linejoin:miter;"/>
   </g>
   <g id="patch_40">
    <path clip-path="url(#p4e9cc6bee9)" d="M 185.817108 467.406904 
L 213.999953 457.329288 
" style="fill:#1f77b4;stroke:#000000;stroke-linejoin:miter;"/>
   </g>
   <g id="patch_41">
    <path clip-path="url(#p4e9cc6bee9)" d="M 175.407911 453.889378 
L 213.999953 457.329288 
" style="fill:#1f77b4;stroke:#000000;stroke-linejoin:miter;"/>
   </g>
   <g id="patch_42">
    <path clip-path="url(#p4e9cc6bee9)" d="M 174.914097 485.712701 
C 176.311143 485.712701 177.651158 485.211526 178.639019 484.319555 
C 179.62688 483.427583 180.181933 482.21764 180.181933 480.956201 
C 180.181933 479.694763 179.62688 478.48482 178.639019 477.592848 
C 177.651158 476.700876 176.311143 476.199701 174.914097 476.199701 
C 173.51705 476.199701 172.177035 476.700876 171.189174 477.592848 
C 170.201313 478.48482 169.646261 479.694763 169.646261 480.956201 
C 169.646261 482.21764 170.201313 483.427583 171.189174 484.319555 
C 172.177035 485.211526 173.51705 485.712701 174.914097 485.712701 
z
" style="fill:#c51b8a;"/>
   </g>
   <g id="patch_43">
    <path clip-path="url(#p4e9cc6bee9)" d="M 185.817108 472.163404 
C 187.214154 472.163404 188.554169 471.662229 189.54203 470.770258 
C 190.529891 469.878286 191.084944 468.668343 191.084944 467.406904 
C 191.084944 466.145466 190.529891 464.935523 189.54203 464.043551 
C 188.554169 463.151579 187.214154 462.650404 185.817108 462.650404 
C 184.420061 462.650404 183.080046 463.151579 182.092185 464.043551 
C 181.104324 464.935523 180.549272 466.145466 180.549272 467.406904 
C 180.549272 468.668343 181.104324 469.878286 182.092185 470.770258 
C 183.080046 471.662229 184.420061 472.163404 185.817108 472.163404 
z
" style="fill:#c51b8a;"/>
   </g>
   <g id="patch_44">
    <path clip-path="url(#p4e9cc6bee9)" d="M 168.847075 499.415878 
C 170.244121 499.415878 171.584136 498.914704 172.571997 498.022732 
C 173.559858 497.13076 174.114911 495.920817 174.114911 494.659378 
C 174.114911 493.39794 173.559858 492.187997 172.571997 491.296025 
C 171.584136 490.404053 170.244121 489.902878 168.847075 489.902878 
C 167.450029 489.902878 166.110013 490.404053 165.122152 491.296025 
C 164.134292 492.187997 163.579239 493.39794 163.579239 494.659378 
C 163.579239 495.920817 164.134292 497.13076 165.122152 498.022732 
C 166.110013 498.914704 167.450029 499.415878 168.847075 499.415878 
z
" style="fill:#c51b8a;"/>
   </g>
   <g id="patch_45">
    <path clip-path="url(#p4e9cc6bee9)" d="M 175.407911 458.645878 
C 176.804958 458.645878 178.144973 458.144704 179.132834 457.252732 
C 180.120695 456.36076 180.675747 455.150817 180.675747 453.889378 
C 180.675747 452.62794 180.120695 451.417997 179.132834 450.526025 
C 178.144973 449.634053 176.804958 449.132878 175.407911 449.132878 
C 174.010865 449.132878 172.67085 449.634053 171.682989 450.526025 
C 170.695128 451.417997 170.140075 452.62794 170.140075 453.889378 
C 170.140075 455.150817 170.695128 456.36076 171.682989 457.252732 
C 172.67085 458.144704 174.010865 458.645878 175.407911 458.645878 
z
" style="fill:#c51b8a;"/>
   </g>
   <g id="patch_46">
    <path clip-path="url(#p4e9cc6bee9)" d="M 213.999953 462.085788 
C 215.397 462.085788 216.737015 461.584613 217.724876 460.692641 
C 218.712737 459.80067 219.267789 458.590727 219.267789 457.329288 
C 219.267789 456.067849 218.712737 454.857906 217.724876 453.965935 
C 216.737015 453.073963 215.397 452.572788 213.999953 452.572788 
C 212.602907 452.572788 211.262892 453.073963 210.275031 453.965935 
C 209.28717 454.857906 208.732118 456.067849 208.732118 457.329288 
C 208.732118 458.590727 209.28717 459.80067 210.275031 460.692641 
C 211.262892 461.584613 212.602907 462.085788 213.999953 462.085788 
z
" style="fill:#c51b8a;"/>
   </g>
   <g id="patch_47">
    <path clip-path="url(#p4e9cc6bee9)" d="M 168.847075 532.011863 
L 189.87352 549.019378 
" style="fill:#1f77b4;stroke:#000000;stroke-linejoin:miter;"/>
   </g>
   <g id="patch_48">
    <path clip-path="url(#p4e9cc6bee9)" d="M 168.847075 532.011863 
L 207.708423 510.738416 
" style="fill:#1f77b4;stroke:#000000;stroke-linejoin:miter;"/>
   </g>
   <g id="patch_49">
    <path clip-path="url(#p4e9cc6bee9)" d="M 168.847075 532.011863 
L 213.999953 535.836294 
" style="fill:#1f77b4;stroke:#000000;stroke-linejoin:miter;"/>
   </g>
   <g id="patch_50">
    <path clip-path="url(#p4e9cc6bee9)" d="M 168.847075 532.011863 
L 179.893519 508.249378 
" style="fill:#1f77b4;stroke:#000000;stroke-linejoin:miter;"/>
   </g>
   <g id="patch_51">
    <path clip-path="url(#p4e9cc6bee9)" d="M 213.999953 535.836294 
L 189.87352 549.019378 
" style="fill:#1f77b4;stroke:#000000;stroke-linejoin:miter;"/>
   </g>
   <g id="patch_52">
    <path clip-path="url(#p4e9cc6bee9)" d="M 213.999953 535.836294 
L 207.708423 510.738416 
" style="fill:#1f77b4;stroke:#000000;stroke-linejoin:miter;"/>
   </g>
   <g id="patch_53">
    <path clip-path="url(#p4e9cc6bee9)" d="M 213.999953 535.836294 
L 179.893519 508.249378 
" style="fill:#1f77b4;stroke:#000000;stroke-linejoin:miter;"/>
   </g>
   <g id="patch_54">
    <path clip-path="url(#p4e9cc6bee9)" d="M 189.87352 549.019378 
L 207.708423 510.738416 
" style="fill:#1f77b4;stroke:#000000;stroke-linejoin:miter;"/>
   </g>
   <g id="patch_55">
    <path clip-path="url(#p4e9cc6bee9)" d="M 189.87352 549.019378 
L 179.893519 508.249378 
" style="fill:#1f77b4;stroke:#000000;stroke-linejoin:miter;"/>
   </g>
   <g id="patch_56">
    <path clip-path="url(#p4e9cc6bee9)" d="M 179.893519 508.249378 
L 207.708423 510.738416 
" style="fill:#1f77b4;stroke:#000000;stroke-linejoin:miter;"/>
   </g>
   <g id="patch_57">
    <path clip-path="url(#p4e9cc6bee9)" d="M 168.847075 536.768363 
C 170.244121 536.768363 171.584136 536.267188 172.571997 535.375216 
C 173.559858 534.483244 174.114911 533.273301 174.114911 532.011863 
C 174.114911 530.750424 173.559858 529.540481 172.571997 528.648509 
C 171.584136 527.756538 170.244121 527.255363 168.847075 527.255363 
C 167.450029 527.255363 166.110013 527.756538 165.122152 528.648509 
C 164.134292 529.540481 163.579239 530.750424 163.579239 532.011863 
C 163.579239 533.273301 164.134292 534.483244 165.122152 535.375216 
C 166.110013 536.267188 167.450029 536.768363 168.847075 536.768363 
z
" style="fill:#7a0177;"/>
   </g>
   <g id="patch_58">
    <path clip-path="url(#p4e9cc6bee9)" d="M 213.999953 540.592794 
C 215.397 540.592794 216.737015 540.09162 217.724876 539.199648 
C 218.712737 538.307676 219.267789 537.097733 219.267789 535.836294 
C 219.267789 534.574856 218.712737 533.364913 217.724876 532.472941 
C 216.737015 531.580969 215.397 531.079794 213.999953 531.079794 
C 212.602907 531.079794 211.262892 531.580969 210.275031 532.472941 
C 209.28717 533.364913 208.732118 534.574856 208.732118 535.836294 
C 208.732118 537.097733 209.28717 538.307676 210.275031 539.199648 
C 211.262892 540.09162 212.602907 540.592794 213.999953 540.592794 
z
" style="fill:#7a0177;"/>
   </g>
   <g id="patch_59">
    <path clip-path="url(#p4e9cc6bee9)" d="M 189.87352 553.775878 
C 191.270566 553.775878 192.610581 553.274704 193.598442 552.382732 
C 194.586303 551.49076 195.141355 550.280817 195.141355 549.019378 
C 195.141355 547.75794 194.586303 546.547997 193.598442 545.656025 
C 192.610581 544.764053 191.270566 544.262878 189.87352 544.262878 
C 188.476473 544.262878 187.136458 544.764053 186.148597 545.656025 
C 185.160736 546.547997 184.605684 547.75794 184.605684 549.019378 
C 184.605684 550.280817 185.160736 551.49076 186.148597 552.382732 
C 187.136458 553.274704 188.476473 553.775878 189.87352 553.775878 
z
" style="fill:#7a0177;"/>
   </g>
   <g id="patch_60">
    <path clip-path="url(#p4e9cc6bee9)" d="M 179.893519 513.005878 
C 181.290566 513.005878 182.630581 512.504704 183.618442 511.612732 
C 184.606303 510.72076 185.161355 509.510817 185.161355 508.249378 
C 185.161355 506.98794 184.606303 505.777997 183.618442 504.886025 
C 182.630581 503.994053 181.290566 503.492878 179.893519 503.492878 
C 178.496473 503.492878 177.156458 503.994053 176.168597 504.886025 
C 175.180736 505.777997 174.625683 506.98794 174.625683 508.249378 
C 174.625683 509.510817 175.180736 510.72076 176.168597 511.612732 
C 177.156458 512.504704 178.496473 513.005878 179.893519 513.005878 
z
" style="fill:#7a0177;"/>
   </g>
   <g id="patch_61">
    <path clip-path="url(#p4e9cc6bee9)" d="M 207.708423 515.494916 
C 209.105469 515.494916 210.445485 514.993741 211.433346 514.101769 
C 212.421207 513.209798 212.976259 511.999855 212.976259 510.738416 
C 212.976259 509.476978 212.421207 508.267034 211.433346 507.375063 
C 210.445485 506.483091 209.105469 505.981916 207.708423 505.981916 
C 206.311377 505.981916 204.971362 506.483091 203.983501 507.375063 
C 202.99564 508.267034 202.440587 509.476978 202.440587 510.738416 
C 202.440587 511.999855 202.99564 513.209798 203.983501 514.101769 
C 204.971362 514.993741 206.311377 515.494916 207.708423 515.494916 
z
" style="fill:#7a0177;"/>
   </g>
   <g id="patch_62">
    <path clip-path="url(#p4e9cc6bee9)" d="M 247.756814 676.208633 
L 247.756814 676.208633 
" style="fill:#1f77b4;stroke:#000000;stroke-linejoin:miter;"/>
   </g>
   <g id="patch_63">
    <path clip-path="url(#p4e9cc6bee9)" d="M 247.756814 676.208633 
L 241.179223 703.313433 
" style="fill:#1f77b4;stroke:#000000;stroke-linejoin:miter;"/>
   </g>
   <g id="patch_64">
    <path clip-path="url(#p4e9cc6bee9)" d="M 247.756814 676.208633 
L 255.777963 639.87069 
" style="fill:#1f77b4;stroke:#000000;stroke-linejoin:miter;"/>
   </g>
   <g id="patch_65">
    <path clip-path="url(#p4e9cc6bee9)" d="M 247.756814 676.208633 
L 259.086994 664.144518 
" style="fill:#1f77b4;stroke:#000000;stroke-linejoin:miter;"/>
   </g>
   <g id="patch_66">
    <path clip-path="url(#p4e9cc6bee9)" d="M 247.756814 676.208633 
L 239.655679 638.094836 
" style="fill:#1f77b4;stroke:#000000;stroke-linejoin:miter;"/>
   </g>
   <g id="patch_67">
    <path clip-path="url(#p4e9cc6bee9)" d="M 247.756814 676.208633 
L 234.953758 649.291086 
" style="fill:#1f77b4;stroke:#000000;stroke-linejoin:miter;"/>
   </g>
   <g id="patch_68">
    <path clip-path="url(#p4e9cc6bee9)" d="M 247.756814 676.208633 
L 224.405267 680.506681 
" style="fill:#1f77b4;stroke:#000000;stroke-linejoin:miter;"/>
   </g>
   <g id="patch_69">
    <path clip-path="url(#p4e9cc6bee9)" d="M 247.756814 676.208633 
L 243.5023 660.646311 
" style="fill:#1f77b4;stroke:#000000;stroke-linejoin:miter;"/>
   </g>
   <g id="patch_70">
    <path clip-path="url(#p4e9cc6bee9)" d="M 247.756814 676.208633 
L 235.185747 660.844265 
" style="fill:#1f77b4;stroke:#000000;stroke-linejoin:miter;"/>
   </g>
   <g id="patch_71">
    <path clip-path="url(#p4e9cc6bee9)" d="M 302.626368 654.200194 
L 306.192244 635.790849 
" style="fill:#1f77b4;stroke:#000000;stroke-linejoin:miter;"/>
   </g>
   <g id="patch_72">
    <path clip-path="url(#p4e9cc6bee9)" d="M 302.626368 654.200194 
L 281.898082 627.913196 
" style="fill:#1f77b4;stroke:#000000;stroke-linejoin:miter;"/>
   </g>
   <g id="patch_73">
    <path clip-path="url(#p4e9cc6bee9)" d="M 241.179223 703.313433 
L 224.405267 680.506681 
" style="fill:#1f77b4;stroke:#000000;stroke-linejoin:miter;"/>
   </g>
   <g id="patch_74">
    <path clip-path="url(#p4e9cc6bee9)" d="M 301.597076 609.216092 
L 281.898082 627.913196 
" style="fill:#1f77b4;stroke:#000000;stroke-linejoin:miter;"/>
   </g>
   <g id="patch_75">
    <path clip-path="url(#p4e9cc6bee9)" d="M 301.597076 609.216092 
L 325.261234 598.321359 
" style="fill:#1f77b4;stroke:#000000;stroke-linejoin:miter;"/>
   </g>
   <g id="patch_76">
    <path clip-path="url(#p4e9cc6bee9)" d="M 276.866979 593.441294 
L 281.898082 627.913196 
" style="fill:#1f77b4;stroke:#000000;stroke-linejoin:miter;"/>
   </g>
   <g id="patch_77">
    <path clip-path="url(#p4e9cc6bee9)" d="M 276.866979 593.441294 
L 276.406187 562.609378 
" style="fill:#1f77b4;stroke:#000000;stroke-linejoin:miter;"/>
   </g>
   <g id="patch_78">
    <path clip-path="url(#p4e9cc6bee9)" d="M 168.847075 634.66083 
L 191.908954 642.201694 
" style="fill:#1f77b4;stroke:#000000;stroke-linejoin:miter;"/>
   </g>
   <g id="patch_79">
    <path clip-path="url(#p4e9cc6bee9)" d="M 208.556081 703.840801 
L 224.405267 680.506681 
" style="fill:#1f77b4;stroke:#000000;stroke-linejoin:miter;"/>
   </g>
   <g id="patch_80">
    <path clip-path="url(#p4e9cc6bee9)" d="M 281.898082 627.913196 
L 306.192244 635.790849 
" style="fill:#1f77b4;stroke:#000000;stroke-linejoin:miter;"/>
   </g>
   <g id="patch_81">
    <path clip-path="url(#p4e9cc6bee9)" d="M 281.898082 627.913196 
L 263.167515 645.093849 
" style="fill:#1f77b4;stroke:#000000;stroke-linejoin:miter;"/>
   </g>
   <g id="patch_82">
    <path clip-path="url(#p4e9cc6bee9)" d="M 281.898082 627.913196 
L 255.777963 639.87069 
" style="fill:#1f77b4;stroke:#000000;stroke-linejoin:miter;"/>
   </g>
   <g id="patch_83">
    <path clip-path="url(#p4e9cc6bee9)" d="M 215.330926 652.775536 
L 239.655679 638.094836 
" style="fill:#1f77b4;stroke:#000000;stroke-linejoin:miter;"/>
   </g>
   <g id="patch_84">
    <path clip-path="url(#p4e9cc6bee9)" d="M 215.330926 652.775536 
L 234.953758 649.291086 
" style="fill:#1f77b4;stroke:#000000;stroke-linejoin:miter;"/>
   </g>
   <g id="patch_85">
    <path clip-path="url(#p4e9cc6bee9)" d="M 215.330926 652.775536 
L 224.405267 680.506681 
" style="fill:#1f77b4;stroke:#000000;stroke-linejoin:miter;"/>
   </g>
   <g id="patch_86">
    <path clip-path="url(#p4e9cc6bee9)" d="M 215.330926 652.775536 
L 243.5023 660.646311 
" style="fill:#1f77b4;stroke:#000000;stroke-linejoin:miter;"/>
   </g>
   <g id="patch_87">
    <path clip-path="url(#p4e9cc6bee9)" d="M 215.330926 652.775536 
L 191.908954 642.201694 
" style="fill:#1f77b4;stroke:#000000;stroke-linejoin:miter;"/>
   </g>
   <g id="patch_88">
    <path clip-path="url(#p4e9cc6bee9)" d="M 215.330926 652.775536 
L 235.185747 660.844265 
" style="fill:#1f77b4;stroke:#000000;stroke-linejoin:miter;"/>
   </g>
   <g id="patch_89">
    <path clip-path="url(#p4e9cc6bee9)" d="M 263.167515 645.093849 
L 255.777963 639.87069 
" style="fill:#1f77b4;stroke:#000000;stroke-linejoin:miter;"/>
   </g>
   <g id="patch_90">
    <path clip-path="url(#p4e9cc6bee9)" d="M 263.167515 645.093849 
L 259.086994 664.144518 
" style="fill:#1f77b4;stroke:#000000;stroke-linejoin:miter;"/>
   </g>
   <g id="patch_91">
    <path clip-path="url(#p4e9cc6bee9)" d="M 263.167515 645.093849 
L 239.655679 638.094836 
" style="fill:#1f77b4;stroke:#000000;stroke-linejoin:miter;"/>
   </g>
   <g id="patch_92">
    <path clip-path="url(#p4e9cc6bee9)" d="M 263.167515 645.093849 
L 234.953758 649.291086 
" style="fill:#1f77b4;stroke:#000000;stroke-linejoin:miter;"/>
   </g>
   <g id="patch_93">
    <path clip-path="url(#p4e9cc6bee9)" d="M 263.167515 645.093849 
L 243.5023 660.646311 
" style="fill:#1f77b4;stroke:#000000;stroke-linejoin:miter;"/>
   </g>
   <g id="patch_94">
    <path clip-path="url(#p4e9cc6bee9)" d="M 263.167515 645.093849 
L 235.185747 660.844265 
" style="fill:#1f77b4;stroke:#000000;stroke-linejoin:miter;"/>
   </g>
   <g id="patch_95">
    <path clip-path="url(#p4e9cc6bee9)" d="M 255.777963 639.87069 
L 259.086994 664.144518 
" style="fill:#1f77b4;stroke:#000000;stroke-linejoin:miter;"/>
   </g>
   <g id="patch_96">
    <path clip-path="url(#p4e9cc6bee9)" d="M 255.777963 639.87069 
L 239.655679 638.094836 
" style="fill:#1f77b4;stroke:#000000;stroke-linejoin:miter;"/>
   </g>
   <g id="patch_97">
    <path clip-path="url(#p4e9cc6bee9)" d="M 255.777963 639.87069 
L 234.953758 649.291086 
" style="fill:#1f77b4;stroke:#000000;stroke-linejoin:miter;"/>
   </g>
   <g id="patch_98">
    <path clip-path="url(#p4e9cc6bee9)" d="M 255.777963 639.87069 
L 243.5023 660.646311 
" style="fill:#1f77b4;stroke:#000000;stroke-linejoin:miter;"/>
   </g>
   <g id="patch_99">
    <path clip-path="url(#p4e9cc6bee9)" d="M 255.777963 639.87069 
L 235.185747 660.844265 
" style="fill:#1f77b4;stroke:#000000;stroke-linejoin:miter;"/>
   </g>
   <g id="patch_100">
    <path clip-path="url(#p4e9cc6bee9)" d="M 259.086994 664.144518 
L 239.655679 638.094836 
" style="fill:#1f77b4;stroke:#000000;stroke-linejoin:miter;"/>
   </g>
   <g id="patch_101">
    <path clip-path="url(#p4e9cc6bee9)" d="M 259.086994 664.144518 
L 234.953758 649.291086 
" style="fill:#1f77b4;stroke:#000000;stroke-linejoin:miter;"/>
   </g>
   <g id="patch_102">
    <path clip-path="url(#p4e9cc6bee9)" d="M 259.086994 664.144518 
L 243.5023 660.646311 
" style="fill:#1f77b4;stroke:#000000;stroke-linejoin:miter;"/>
   </g>
   <g id="patch_103">
    <path clip-path="url(#p4e9cc6bee9)" d="M 259.086994 664.144518 
L 235.185747 660.844265 
" style="fill:#1f77b4;stroke:#000000;stroke-linejoin:miter;"/>
   </g>
   <g id="patch_104">
    <path clip-path="url(#p4e9cc6bee9)" d="M 239.655679 638.094836 
L 234.953758 649.291086 
" style="fill:#1f77b4;stroke:#000000;stroke-linejoin:miter;"/>
   </g>
   <g id="patch_105">
    <path clip-path="url(#p4e9cc6bee9)" d="M 239.655679 638.094836 
L 243.5023 660.646311 
" style="fill:#1f77b4;stroke:#000000;stroke-linejoin:miter;"/>
   </g>
   <g id="patch_106">
    <path clip-path="url(#p4e9cc6bee9)" d="M 239.655679 638.094836 
L 235.185747 660.844265 
" style="fill:#1f77b4;stroke:#000000;stroke-linejoin:miter;"/>
   </g>
   <g id="patch_107">
    <path clip-path="url(#p4e9cc6bee9)" d="M 234.953758 649.291086 
L 224.405267 680.506681 
" style="fill:#1f77b4;stroke:#000000;stroke-linejoin:miter;"/>
   </g>
   <g id="patch_108">
    <path clip-path="url(#p4e9cc6bee9)" d="M 234.953758 649.291086 
L 243.5023 660.646311 
" style="fill:#1f77b4;stroke:#000000;stroke-linejoin:miter;"/>
   </g>
   <g id="patch_109">
    <path clip-path="url(#p4e9cc6bee9)" d="M 234.953758 649.291086 
L 235.185747 660.844265 
" style="fill:#1f77b4;stroke:#000000;stroke-linejoin:miter;"/>
   </g>
   <g id="patch_110">
    <path clip-path="url(#p4e9cc6bee9)" d="M 224.405267 680.506681 
L 243.5023 660.646311 
" style="fill:#1f77b4;stroke:#000000;stroke-linejoin:miter;"/>
   </g>
   <g id="patch_111">
    <path clip-path="url(#p4e9cc6bee9)" d="M 224.405267 680.506681 
L 235.185747 660.844265 
" style="fill:#1f77b4;stroke:#000000;stroke-linejoin:miter;"/>
   </g>
   <g id="patch_112">
    <path clip-path="url(#p4e9cc6bee9)" d="M 243.5023 660.646311 
L 235.185747 660.844265 
" style="fill:#1f77b4;stroke:#000000;stroke-linejoin:miter;"/>
   </g>
   <g id="patch_113">
    <path clip-path="url(#p4e9cc6bee9)" d="M 247.756814 680.965133 
C 249.15386 680.965133 250.493875 680.463958 251.481736 679.571986 
C 252.469597 678.680015 253.02465 677.470071 253.02465 676.208633 
C 253.02465 674.947194 252.469597 673.737251 251.481736 672.845279 
C 250.493875 671.953308 249.15386 671.452133 247.756814 671.452133 
C 246.359767 671.452133 245.019752 671.953308 244.031891 672.845279 
C 243.04403 673.737251 242.488978 674.947194 242.488978 676.208633 
C 242.488978 677.470071 243.04403 678.680015 244.031891 679.571986 
C 245.019752 680.463958 246.359767 680.965133 247.756814 680.965133 
z
" style="fill:#7a0177;"/>
   </g>
   <g id="patch_114">
    <path clip-path="url(#p4e9cc6bee9)" d="M 302.626368 658.956694 
C 304.023414 658.956694 305.363429 658.455519 306.35129 657.563547 
C 307.339151 656.671575 307.894204 655.461632 307.894204 654.200194 
C 307.894204 652.938755 307.339151 651.728812 306.35129 650.83684 
C 305.363429 649.944869 304.023414 649.443694 302.626368 649.443694 
C 301.229322 649.443694 299.889307 649.944869 298.901446 650.83684 
C 297.913585 651.728812 297.358532 652.938755 297.358532 654.200194 
C 297.358532 655.461632 297.913585 656.671575 298.901446 657.563547 
C 299.889307 658.455519 301.229322 658.956694 302.626368 658.956694 
z
" style="fill:#7a0177;"/>
   </g>
   <g id="patch_115">
    <path clip-path="url(#p4e9cc6bee9)" d="M 241.179223 708.069933 
C 242.576269 708.069933 243.916284 707.568759 244.904145 706.676787 
C 245.892006 705.784815 246.447059 704.574872 246.447059 703.313433 
C 246.447059 702.051995 245.892006 700.842052 244.904145 699.95008 
C 243.916284 699.058108 242.576269 698.556933 241.179223 698.556933 
C 239.782177 698.556933 238.442161 699.058108 237.454301 699.95008 
C 236.46644 700.842052 235.911387 702.051995 235.911387 703.313433 
C 235.911387 704.574872 236.46644 705.784815 237.454301 706.676787 
C 238.442161 707.568759 239.782177 708.069933 241.179223 708.069933 
z
" style="fill:#7a0177;"/>
   </g>
   <g id="patch_116">
    <path clip-path="url(#p4e9cc6bee9)" d="M 301.597076 613.972592 
C 302.994122 613.972592 304.334137 613.471417 305.321998 612.579445 
C 306.309859 611.687474 306.864912 610.47753 306.864912 609.216092 
C 306.864912 607.954653 306.309859 606.74471 305.321998 605.852739 
C 304.334137 604.960767 302.994122 604.459592 301.597076 604.459592 
C 300.20003 604.459592 298.860014 604.960767 297.872153 605.852739 
C 296.884293 606.74471 296.32924 607.954653 296.32924 609.216092 
C 296.32924 610.47753 296.884293 611.687474 297.872153 612.579445 
C 298.860014 613.471417 300.20003 613.972592 301.597076 613.972592 
z
" style="fill:#7a0177;"/>
   </g>
   <g id="patch_117">
    <path clip-path="url(#p4e9cc6bee9)" d="M 276.866979 598.197794 
C 278.264025 598.197794 279.60404 597.69662 280.591901 596.804648 
C 281.579762 595.912676 282.134815 594.702733 282.134815 593.441294 
C 282.134815 592.179856 281.579762 590.969913 280.591901 590.077941 
C 279.60404 589.185969 278.264025 588.684794 276.866979 588.684794 
C 275.469932 588.684794 274.129917 589.185969 273.142056 590.077941 
C 272.154195 590.969913 271.599143 592.179856 271.599143 593.441294 
C 271.599143 594.702733 272.154195 595.912676 273.142056 596.804648 
C 274.129917 597.69662 275.469932 598.197794 276.866979 598.197794 
z
" style="fill:#7a0177;"/>
   </g>
   <g id="patch_118">
    <path clip-path="url(#p4e9cc6bee9)" d="M 168.847075 639.41733 
C 170.244121 639.41733 171.584136 638.916155 172.571997 638.024183 
C 173.559858 637.132212 174.114911 635.922268 174.114911 634.66083 
C 174.114911 633.399391 173.559858 632.189448 172.571997 631.297477 
C 171.584136 630.405505 170.244121 629.90433 168.847075 629.90433 
C 167.450029 629.90433 166.110013 630.405505 165.122152 631.297477 
C 164.134292 632.189448 163.579239 633.399391 163.579239 634.66083 
C 163.579239 635.922268 164.134292 637.132212 165.122152 638.024183 
C 166.110013 638.916155 167.450029 639.41733 168.847075 639.41733 
z
" style="fill:#7a0177;"/>
   </g>
   <g id="patch_119">
    <path clip-path="url(#p4e9cc6bee9)" d="M 208.556081 708.597301 
C 209.953127 708.597301 211.293142 708.096126 212.281003 707.204155 
C 213.268864 706.312183 213.823917 705.10224 213.823917 703.840801 
C 213.823917 702.579363 213.268864 701.36942 212.281003 700.477448 
C 211.293142 699.585476 209.953127 699.084301 208.556081 699.084301 
C 207.159034 699.084301 205.819019 699.585476 204.831158 700.477448 
C 203.843297 701.36942 203.288245 702.579363 203.288245 703.840801 
C 203.288245 705.10224 203.843297 706.312183 204.831158 707.204155 
C 205.819019 708.096126 207.159034 708.597301 208.556081 708.597301 
z
" style="fill:#7a0177;"/>
   </g>
   <g id="patch_120">
    <path clip-path="url(#p4e9cc6bee9)" d="M 281.898082 632.669696 
C 283.295129 632.669696 284.635144 632.168521 285.623005 631.276549 
C 286.610866 630.384577 287.165918 629.174634 287.165918 627.913196 
C 287.165918 626.651757 286.610866 625.441814 285.623005 624.549842 
C 284.635144 623.65787 283.295129 623.156696 281.898082 623.156696 
C 280.501036 623.156696 279.161021 623.65787 278.17316 624.549842 
C 277.185299 625.441814 276.630246 626.651757 276.630246 627.913196 
C 276.630246 629.174634 277.185299 630.384577 278.17316 631.276549 
C 279.161021 632.168521 280.501036 632.669696 281.898082 632.669696 
z
" style="fill:#7a0177;"/>
   </g>
   <g id="patch_121">
    <path clip-path="url(#p4e9cc6bee9)" d="M 215.330926 657.532036 
C 216.727972 657.532036 218.067987 657.030861 219.055848 656.138889 
C 220.043709 655.246918 220.598762 654.036975 220.598762 652.775536 
C 220.598762 651.514097 220.043709 650.304154 219.055848 649.412183 
C 218.067987 648.520211 216.727972 648.019036 215.330926 648.019036 
C 213.93388 648.019036 212.593864 648.520211 211.606003 649.412183 
C 210.618142 650.304154 210.06309 651.514097 210.06309 652.775536 
C 210.06309 654.036975 210.618142 655.246918 211.606003 656.138889 
C 212.593864 657.030861 213.93388 657.532036 215.330926 657.532036 
z
" style="fill:#7a0177;"/>
   </g>
   <g id="patch_122">
    <path clip-path="url(#p4e9cc6bee9)" d="M 263.167515 649.850349 
C 264.564562 649.850349 265.904577 649.349174 266.892438 648.457202 
C 267.880299 647.565231 268.435351 646.355287 268.435351 645.093849 
C 268.435351 643.83241 267.880299 642.622467 266.892438 641.730496 
C 265.904577 640.838524 264.564562 640.337349 263.167515 640.337349 
C 261.770469 640.337349 260.430454 640.838524 259.442593 641.730496 
C 258.454732 642.622467 257.899679 643.83241 257.899679 645.093849 
C 257.899679 646.355287 258.454732 647.565231 259.442593 648.457202 
C 260.430454 649.349174 261.770469 649.850349 263.167515 649.850349 
z
" style="fill:#7a0177;"/>
   </g>
   <g id="patch_123">
    <path clip-path="url(#p4e9cc6bee9)" d="M 325.261234 603.077859 
C 326.658281 603.077859 327.998296 602.576684 328.986157 601.684712 
C 329.974018 600.79274 330.52907 599.582797 330.52907 598.321359 
C 330.52907 597.05992 329.974018 595.849977 328.986157 594.958005 
C 327.998296 594.066033 326.658281 593.564859 325.261234 593.564859 
C 323.864188 593.564859 322.524173 594.066033 321.536312 594.958005 
C 320.548451 595.849977 319.993398 597.05992 319.993398 598.321359 
C 319.993398 599.582797 320.548451 600.79274 321.536312 601.684712 
C 322.524173 602.576684 323.864188 603.077859 325.261234 603.077859 
z
" style="fill:#7a0177;"/>
   </g>
   <g id="patch_124">
    <path clip-path="url(#p4e9cc6bee9)" d="M 255.777963 644.62719 
C 257.175009 644.62719 258.515024 644.126015 259.502885 643.234043 
C 260.490746 642.342072 261.045799 641.132129 261.045799 639.87069 
C 261.045799 638.609251 260.490746 637.399308 259.502885 636.507337 
C 258.515024 635.615365 257.175009 635.11419 255.777963 635.11419 
C 254.380916 635.11419 253.040901 635.615365 252.05304 636.507337 
C 251.065179 637.399308 250.510127 638.609251 250.510127 639.87069 
C 250.510127 641.132129 251.065179 642.342072 252.05304 643.234043 
C 253.040901 644.126015 254.380916 644.62719 255.777963 644.62719 
z
" style="fill:#7a0177;"/>
   </g>
   <g id="patch_125">
    <path clip-path="url(#p4e9cc6bee9)" d="M 259.086994 668.901018 
C 260.48404 668.901018 261.824055 668.399844 262.811916 667.507872 
C 263.799777 666.6159 264.354829 665.405957 264.354829 664.144518 
C 264.354829 662.88308 263.799777 661.673137 262.811916 660.781165 
C 261.824055 659.889193 260.48404 659.388018 259.086994 659.388018 
C 257.689947 659.388018 256.349932 659.889193 255.362071 660.781165 
C 254.37421 661.673137 253.819158 662.88308 253.819158 664.144518 
C 253.819158 665.405957 254.37421 666.6159 255.362071 667.507872 
C 256.349932 668.399844 257.689947 668.901018 259.086994 668.901018 
z
" style="fill:#7a0177;"/>
   </g>
   <g id="patch_126">
    <path clip-path="url(#p4e9cc6bee9)" d="M 239.655679 642.851336 
C 241.052726 642.851336 242.392741 642.350161 243.380602 641.458189 
C 244.368463 640.566218 244.923515 639.356274 244.923515 638.094836 
C 244.923515 636.833397 244.368463 635.623454 243.380602 634.731482 
C 242.392741 633.839511 241.052726 633.338336 239.655679 633.338336 
C 238.258633 633.338336 236.918618 633.839511 235.930757 634.731482 
C 234.942896 635.623454 234.387844 636.833397 234.387844 638.094836 
C 234.387844 639.356274 234.942896 640.566218 235.930757 641.458189 
C 236.918618 642.350161 238.258633 642.851336 239.655679 642.851336 
z
" style="fill:#7a0177;"/>
   </g>
   <g id="patch_127">
    <path clip-path="url(#p4e9cc6bee9)" d="M 234.953758 654.047586 
C 236.350805 654.047586 237.69082 653.546411 238.678681 652.65444 
C 239.666542 651.762468 240.221594 650.552525 240.221594 649.291086 
C 240.221594 648.029648 239.666542 646.819705 238.678681 645.927733 
C 237.69082 645.035761 236.350805 644.534586 234.953758 644.534586 
C 233.556712 644.534586 232.216697 645.035761 231.228836 645.927733 
C 230.240975 646.819705 229.685923 648.029648 229.685923 649.291086 
C 229.685923 650.552525 230.240975 651.762468 231.228836 652.65444 
C 232.216697 653.546411 233.556712 654.047586 234.953758 654.047586 
z
" style="fill:#7a0177;"/>
   </g>
   <g id="patch_128">
    <path clip-path="url(#p4e9cc6bee9)" d="M 224.405267 685.263181 
C 225.802313 685.263181 227.142329 684.762007 228.130189 683.870035 
C 229.11805 682.978063 229.673103 681.76812 229.673103 680.506681 
C 229.673103 679.245243 229.11805 678.0353 228.130189 677.143328 
C 227.142329 676.251356 225.802313 675.750181 224.405267 675.750181 
C 223.008221 675.750181 221.668206 676.251356 220.680345 677.143328 
C 219.692484 678.0353 219.137431 679.245243 219.137431 680.506681 
C 219.137431 681.76812 219.692484 682.978063 220.680345 683.870035 
C 221.668206 684.762007 223.008221 685.263181 224.405267 685.263181 
z
" style="fill:#7a0177;"/>
   </g>
   <g id="patch_129">
    <path clip-path="url(#p4e9cc6bee9)" d="M 243.5023 665.402811 
C 244.899347 665.402811 246.239362 664.901636 247.227223 664.009665 
C 248.215084 663.117693 248.770136 661.90775 248.770136 660.646311 
C 248.770136 659.384873 248.215084 658.17493 247.227223 657.282958 
C 246.239362 656.390986 244.899347 655.889811 243.5023 655.889811 
C 242.105254 655.889811 240.765239 656.390986 239.777378 657.282958 
C 238.789517 658.17493 238.234464 659.384873 238.234464 660.646311 
C 238.234464 661.90775 238.789517 663.117693 239.777378 664.009665 
C 240.765239 664.901636 242.105254 665.402811 243.5023 665.402811 
z
" style="fill:#7a0177;"/>
   </g>
   <g id="patch_130">
    <path clip-path="url(#p4e9cc6bee9)" d="M 191.908954 646.958194 
C 193.306 646.958194 194.646015 646.45702 195.633876 645.565048 
C 196.621737 644.673076 197.17679 643.463133 197.17679 642.201694 
C 197.17679 640.940256 196.621737 639.730313 195.633876 638.838341 
C 194.646015 637.946369 193.306 637.445194 191.908954 637.445194 
C 190.511908 637.445194 189.171893 637.946369 188.184032 638.838341 
C 187.196171 639.730313 186.641118 640.940256 186.641118 642.201694 
C 186.641118 643.463133 187.196171 644.673076 188.184032 645.565048 
C 189.171893 646.45702 190.511908 646.958194 191.908954 646.958194 
z
" style="fill:#7a0177;"/>
   </g>
   <g id="patch_131">
    <path clip-path="url(#p4e9cc6bee9)" d="M 235.185747 665.600765 
C 236.582794 665.600765 237.922809 665.09959 238.91067 664.207619 
C 239.898531 663.315647 240.453583 662.105704 240.453583 660.844265 
C 240.453583 659.582827 239.898531 658.372884 238.91067 657.480912 
C 237.922809 656.58894 236.582794 656.087765 235.185747 656.087765 
C 233.788701 656.087765 232.448686 656.58894 231.460825 657.480912 
C 230.472964 658.372884 229.917912 659.582827 229.917912 660.844265 
C 229.917912 662.105704 230.472964 663.315647 231.460825 664.207619 
C 232.448686 665.09959 233.788701 665.600765 235.185747 665.600765 
z
" style="fill:#7a0177;"/>
   </g>
   <g id="patch_132">
    <path clip-path="url(#p4e9cc6bee9)" d="M 276.406187 567.365878 
C 277.803234 567.365878 279.143249 566.864704 280.13111 565.972732 
C 281.118971 565.08076 281.674023 563.870817 281.674023 562.609378 
C 281.674023 561.34794 281.118971 560.137997 280.13111 559.246025 
C 279.143249 558.354053 277.803234 557.852878 276.406187 557.852878 
C 275.009141 557.852878 273.669126 558.354053 272.681265 559.246025 
C 271.693404 560.137997 271.138352 561.34794 271.138352 562.609378 
C 271.138352 563.870817 271.693404 565.08076 272.681265 565.972732 
C 273.669126 566.864704 275.009141 567.365878 276.406187 567.365878 
z
" style="fill:#7a0177;"/>
   </g>
   <g id="patch_133">
    <path clip-path="url(#p4e9cc6bee9)" d="M 306.192244 640.547349 
C 307.58929 640.547349 308.929305 640.046175 309.917166 639.154203 
C 310.905027 638.262231 311.46008 637.052288 311.46008 635.790849 
C 311.46008 634.529411 310.905027 633.319468 309.917166 632.427496 
C 308.929305 631.535524 307.58929 631.034349 306.192244 631.034349 
C 304.795197 631.034349 303.455182 631.535524 302.467321 632.427496 
C 301.47946 633.319468 300.924408 634.529411 300.924408 635.790849 
C 300.924408 637.052288 301.47946 638.262231 302.467321 639.154203 
C 303.455182 640.046175 304.795197 640.547349 306.192244 640.547349 
z
" style="fill:#7a0177;"/>
   </g>
   <g id="text_1">
    <text style="font-family:DejaVu Sans;font-size:12px;font-style:normal;font-weight:normal;text-anchor:start;" transform="rotate(-0, 174.867459, 110.382816)" x="174.867459" y="110.382816">ST_ADRENERGIC</text>
   </g>
   <g id="text_2">
    <text style="font-family:DejaVu Sans;font-size:12px;font-style:normal;font-weight:normal;text-anchor:start;" transform="rotate(-0, 174.867459, 123.972816)" x="174.867459" y="123.972816">KEGG_AMYOTROPHIC_LATERAL_SCLEROSIS_ALS</text>
   </g>
   <g id="text_3">
    <text style="font-family:DejaVu Sans;font-size:12px;font-style:normal;font-weight:normal;text-anchor:start;" transform="rotate(-0, 174.867459, 137.562816)" x="174.867459" y="137.562816">REACTOME_CITRIC_ACID_CYCLE_TCA_CYCLE</text>
   </g>
   <g id="text_4">
    <text style="font-family:DejaVu Sans;font-size:12px;font-style:normal;font-weight:normal;text-anchor:start;" transform="rotate(-0, 174.867459, 151.152816)" x="174.867459" y="151.152816">KEGG_NEUROTROPHIN_SIGNALING_PATHWAY</text>
   </g>
   <g id="text_5">
    <text style="font-family:DejaVu Sans;font-size:12px;font-style:normal;font-weight:normal;text-anchor:start;" transform="rotate(-0, 174.867459, 164.742816)" x="174.867459" y="164.742816">PID_ERBB1_INTERNALIZATION_PATHWAY</text>
   </g>
   <g id="text_6">
    <text style="font-family:DejaVu Sans;font-size:12px;font-style:normal;font-weight:normal;text-anchor:start;" transform="rotate(-0, 174.867459, 178.332816)" x="174.867459" y="178.332816">REACTOME_AMINE_LIGAND_BINDING_RECEPTORS</text>
   </g>
   <g id="text_7">
    <text style="font-family:DejaVu Sans;font-size:12px;font-style:normal;font-weight:normal;text-anchor:start;" transform="rotate(-0, 174.867459, 191.922816)" x="174.867459" y="191.922816">REACTOME_AMYLOIDS</text>
   </g>
   <g id="text_8">
    <text style="font-family:DejaVu Sans;font-size:12px;font-style:normal;font-weight:normal;text-anchor:start;" transform="rotate(-0, 174.867459, 205.512816)" x="174.867459" y="205.512816">REACTOME_TRAFFICKING_OF_AMPA_RECEPTORS</text>
   </g>
   <g id="text_9">
    <text style="font-family:DejaVu Sans;font-size:12px;font-style:normal;font-weight:normal;text-anchor:start;" transform="rotate(-0, 174.867459, 219.102816)" x="174.867459" y="219.102816">REACTOME_RASACTIVATION_UPON_CA2_INFLUX</text>
   </g>
   <g id="text_10">
    <text style="font-family:DejaVu Sans;font-size:12px;font-style:normal;font-weight:normal;text-anchor:start;" transform="rotate(-0, 174.867459, 232.692816)" x="174.867459" y="232.692816">ST_GAQ_PATHWAY</text>
   </g>
   <g id="text_11">
    <text style="font-family:DejaVu Sans;font-size:12px;font-style:normal;font-weight:normal;text-anchor:start;" transform="rotate(-0, 174.867459, 246.282816)" x="174.867459" y="246.282816">PID_TXA2PATHWAY</text>
   </g>
   <g id="text_12">
    <text style="font-family:DejaVu Sans;font-size:12px;font-style:normal;font-weight:normal;text-anchor:start;" transform="rotate(-0, 174.867459, 259.872816)" x="174.867459" y="259.872816">KEGG_NEUROACTIVE_LIGAND_RECEPTOR_INTERACTION</text>
   </g>
   <g id="text_13">
    <text style="font-family:DejaVu Sans;font-size:12px;font-style:normal;font-weight:normal;text-anchor:start;" transform="rotate(-0, 174.867459, 273.462816)" x="174.867459" y="273.462816">KEGG_PRION_DISEASES</text>
   </g>
   <g id="text_14">
    <text style="font-family:DejaVu Sans;font-size:12px;font-style:normal;font-weight:normal;text-anchor:start;" transform="rotate(-0, 174.867459, 287.052816)" x="174.867459" y="287.052816">REACTOME_NEUROTRANSMITTER_RELEASE_CYCLE</text>
   </g>
   <g id="text_15">
    <text style="font-family:DejaVu Sans;font-size:12px;font-style:normal;font-weight:normal;text-anchor:start;" transform="rotate(-0, 174.867459, 300.642816)" x="174.867459" y="300.642816">REACTOME_GABA_SYNTHESIS_RELEASE_REUPTAKE_AND_DEGRADATION</text>
   </g>
   <g id="text_16">
    <text style="font-family:DejaVu Sans;font-size:12px;font-style:normal;font-weight:normal;text-anchor:start;" transform="rotate(-0, 174.867459, 314.232816)" x="174.867459" y="314.232816">KEGG_OLFACTORY_TRANSDUCTION</text>
   </g>
   <g id="text_17">
    <text style="font-family:DejaVu Sans;font-size:12px;font-style:normal;font-weight:normal;text-anchor:start;" transform="rotate(-0, 174.867459, 327.822816)" x="174.867459" y="327.822816">REACTOME_OLFACTORY_SIGNALING_PATHWAY</text>
   </g>
   <g id="text_18">
    <text style="font-family:DejaVu Sans;font-size:12px;font-style:normal;font-weight:normal;text-anchor:start;" transform="rotate(-0, 174.867459, 341.412816)" x="174.867459" y="341.412816">REACTOME_AXON_GUIDANCE</text>
   </g>
   <g id="text_19">
    <text style="font-family:DejaVu Sans;font-size:12px;font-style:normal;font-weight:normal;text-anchor:start;" transform="rotate(-0, 174.867459, 355.002816)" x="174.867459" y="355.002816">REACTOME_SIGNAL_TRANSDUCTION_BY_L1</text>
   </g>
   <g id="text_20">
    <text style="font-family:DejaVu Sans;font-size:12px;font-style:normal;font-weight:normal;text-anchor:start;" transform="rotate(-0, 174.867459, 368.592816)" x="174.867459" y="368.592816">REACTOME_L1CAM_INTERACTIONS</text>
   </g>
   <g id="text_21">
    <text style="font-family:DejaVu Sans;font-size:12px;font-style:normal;font-weight:normal;text-anchor:start;" transform="rotate(-0, 174.867459, 382.182816)" x="174.867459" y="382.182816">PID_ERBB1_DOWNSTREAM_PATHWAY</text>
   </g>
   <g id="text_22">
    <text style="font-family:DejaVu Sans;font-size:12px;font-style:normal;font-weight:normal;text-anchor:start;" transform="rotate(-0, 174.867459, 395.772816)" x="174.867459" y="395.772816">PID_PDGFRB_PATHWAY</text>
   </g>
   <g id="text_23">
    <text style="font-family:DejaVu Sans;font-size:12px;font-style:normal;font-weight:normal;text-anchor:start;" transform="rotate(-0, 174.867459, 409.362816)" x="174.867459" y="409.362816">KEGG_ERBB_SIGNALING_PATHWAY</text>
   </g>
   <g id="text_24">
    <text style="font-family:DejaVu Sans;font-size:12px;font-style:normal;font-weight:normal;text-anchor:start;" transform="rotate(-0, 174.867459, 423.10732)" x="174.867459" y="423.10732">REACTOME_SEMA4D_INDUCED_CELL_MIGRATION</text>
   </g>
   <g id="text_25">
    <text style="font-family:DejaVu Sans;font-size:12px;font-style:normal;font-weight:normal;text-anchor:start;" transform="rotate(-0, 197.443898, 422.952816)" x="197.443898" y="422.952816">REACTOME_SEMAPHORIN_INTERACTIONS</text>
   </g>
   <g id="text_26">
    <text style="font-family:DejaVu Sans;font-size:12px;font-style:normal;font-weight:normal;text-anchor:start;" transform="rotate(-0, 186.308557, 443.337816)" x="186.308557" y="443.337816">REACTOME_SEMA4D_IN_SEMAPHORIN_SIGNALING</text>
   </g>
   <g id="text_27">
    <text style="font-family:DejaVu Sans;font-size:12px;font-style:normal;font-weight:normal;text-anchor:start;" transform="rotate(-0, 180.934481, 483.994639)" x="180.934481" y="483.994639">REACTOME_POTASSIUM_CHANNELS</text>
   </g>
   <g id="text_28">
    <text style="font-family:DejaVu Sans;font-size:12px;font-style:normal;font-weight:normal;text-anchor:start;" transform="rotate(-0, 191.837492, 470.445342)" x="191.837492" y="470.445342">REACTOME_NEURONAL_SYSTEM</text>
   </g>
   <g id="text_29">
    <text style="font-family:DejaVu Sans;font-size:12px;font-style:normal;font-weight:normal;text-anchor:start;" transform="rotate(-0, 174.867459, 497.697816)" x="174.867459" y="497.697816">REACTOME_VOLTAGE_GATED_POTASSIUM_CHANNELS</text>
   </g>
   <g id="text_30">
    <text style="font-family:DejaVu Sans;font-size:12px;font-style:normal;font-weight:normal;text-anchor:start;" transform="rotate(-0, 181.428295, 456.927816)" x="181.428295" y="456.927816">REACTOME_NEUROTRANSMITTER_RECEPTOR_BINDING...</text>
   </g>
   <g id="text_31">
    <text style="font-family:DejaVu Sans;font-size:12px;font-style:normal;font-weight:normal;text-anchor:start;" transform="rotate(-0, 220.020337, 460.367726)" x="220.020337" y="460.367726">REACTOME_TRANSMISSION_ACROSS_CHEMICAL_SYNAPSES</text>
   </g>
   <g id="text_32">
    <text style="font-family:DejaVu Sans;font-size:12px;font-style:normal;font-weight:normal;text-anchor:start;" transform="rotate(-0, 174.867459, 535.0503)" x="174.867459" y="535.0503">KEGG_PARKINSONS_DISEASE</text>
   </g>
   <g id="text_33">
    <text style="font-family:DejaVu Sans;font-size:12px;font-style:normal;font-weight:normal;text-anchor:start;" transform="rotate(-0, 220.020337, 538.874732)" x="220.020337" y="538.874732">REACTOME_RESPIRATORY_ELECTRON_TRANSPORT</text>
   </g>
   <g id="text_34">
    <text style="font-family:DejaVu Sans;font-size:12px;font-style:normal;font-weight:normal;text-anchor:start;" transform="rotate(-0, 195.893903, 552.057816)" x="195.893903" y="552.057816">KEGG_ALZHEIMERS_DISEASE</text>
   </g>
   <g id="text_35">
    <text style="font-family:DejaVu Sans;font-size:12px;font-style:normal;font-weight:normal;text-anchor:start;" transform="rotate(-0, 185.913903, 511.287816)" x="185.913903" y="511.287816">REACTOME_RESPITORY_ELECTRON_TRANSPORT_ATP_SYNTHESIS...</text>
   </g>
   <g id="text_36">
    <text style="font-family:DejaVu Sans;font-size:12px;font-style:normal;font-weight:normal;text-anchor:start;" transform="rotate(-0, 213.728807, 513.776854)" x="213.728807" y="513.776854">KEGG_HUNTINGTONS_DISEASE</text>
   </g>
   <g id="text_37">
    <text style="font-family:DejaVu Sans;font-size:12px;font-style:normal;font-weight:normal;text-anchor:start;" transform="rotate(-0, 253.777198, 679.24707)" x="253.777198" y="679.24707">REACTOME_REGULATION_OF_INSULIN_SECRETION</text>
   </g>
   <g id="text_38">
    <text style="font-family:DejaVu Sans;font-size:12px;font-style:normal;font-weight:normal;text-anchor:start;" transform="rotate(-0, 308.646752, 657.238631)" x="308.646752" y="657.238631">PID_IL8_CXCR1_PATHWAY</text>
   </g>
   <g id="text_39">
    <text style="font-family:DejaVu Sans;font-size:12px;font-style:normal;font-weight:normal;text-anchor:start;" transform="rotate(-0, 247.199607, 706.351871)" x="247.199607" y="706.351871">REACTOME_INTEGRATION_OF_ENERGY_METABOLISM</text>
   </g>
   <g id="text_40">
    <text style="font-family:DejaVu Sans;font-size:12px;font-style:normal;font-weight:normal;text-anchor:start;" transform="rotate(-0, 307.61746, 612.254529)" x="307.61746" y="612.254529">PID_LYSOPHOSPHOLIPID_PATHWAY</text>
   </g>
   <g id="text_41">
    <text style="font-family:DejaVu Sans;font-size:12px;font-style:normal;font-weight:normal;text-anchor:start;" transform="rotate(-0, 282.887363, 596.479732)" x="282.887363" y="596.479732">PID_S1P_S1P2_PATHWAY</text>
   </g>
   <g id="text_42">
    <text style="font-family:DejaVu Sans;font-size:12px;font-style:normal;font-weight:normal;text-anchor:start;" transform="rotate(-0, 174.867459, 637.699267)" x="174.867459" y="637.699267">REACTOME_ION_CHANNEL_TRANSPORT</text>
   </g>
   <g id="text_43">
    <text style="font-family:DejaVu Sans;font-size:12px;font-style:normal;font-weight:normal;text-anchor:start;" transform="rotate(-0, 214.576464, 706.879239)" x="214.576464" y="706.879239">REACTOME_DARPP_32_EVENTS</text>
   </g>
   <g id="text_44">
    <text style="font-family:DejaVu Sans;font-size:12px;font-style:normal;font-weight:normal;text-anchor:start;" transform="rotate(-0, 287.918466, 630.951633)" x="287.918466" y="630.951633">PID_THROMBIN_PAR1_PATHWAY</text>
   </g>
   <g id="text_45">
    <text style="font-family:DejaVu Sans;font-size:12px;font-style:normal;font-weight:normal;text-anchor:start;" transform="rotate(-0, 221.35131, 655.813973)" x="221.35131" y="655.813973">REACTOME_GABA_RECEPTOR_ACTIVATION</text>
   </g>
   <g id="text_46">
    <text style="font-family:DejaVu Sans;font-size:12px;font-style:normal;font-weight:normal;text-anchor:start;" transform="rotate(-0, 269.187899, 648.132286)" x="269.187899" y="648.132286">REACTOME_THROMBIN_SIGNALLING...</text>
   </g>
   <g id="text_47">
    <text style="font-family:DejaVu Sans;font-size:12px;font-style:normal;font-weight:normal;text-anchor:start;" transform="rotate(-0, 331.281618, 601.359796)" x="331.281618" y="601.359796">PID_ER_NONGENOMIC_PATHWAY</text>
   </g>
   <g id="text_48">
    <text style="font-family:DejaVu Sans;font-size:12px;font-style:normal;font-weight:normal;text-anchor:start;" transform="rotate(-0, 261.798347, 642.909128)" x="261.798347" y="642.909128">REACTOME_THROMBOXANE_SIGNALLING_THROUGH_TP_RECEPTOR</text>
   </g>
   <g id="text_49">
    <text style="font-family:DejaVu Sans;font-size:12px;font-style:normal;font-weight:normal;text-anchor:start;" transform="rotate(-0, 265.107377, 667.182956)" x="265.107377" y="667.182956">REACTOME_ADP_SIGNALLING_THROUGH_P2RY1</text>
   </g>
   <g id="text_50">
    <text style="font-family:DejaVu Sans;font-size:12px;font-style:normal;font-weight:normal;text-anchor:start;" transform="rotate(-0, 245.676063, 641.133273)" x="245.676063" y="641.133273">REACTOME_SIGNAL_AMPLIFICATION</text>
   </g>
   <g id="text_51">
    <text style="font-family:DejaVu Sans;font-size:12px;font-style:normal;font-weight:normal;text-anchor:start;" transform="rotate(-0, 240.974142, 652.329524)" x="240.974142" y="652.329524">REACTOME_PROSTACYCLIN_SIGNALING...</text>
   </g>
   <g id="text_52">
    <text style="font-family:DejaVu Sans;font-size:12px;font-style:normal;font-weight:normal;text-anchor:start;" transform="rotate(-0, 230.425651, 683.545119)" x="230.425651" y="683.545119">REACTOME_OPIOID_SIGNALLING</text>
   </g>
   <g id="text_53">
    <text style="font-family:DejaVu Sans;font-size:12px;font-style:normal;font-weight:normal;text-anchor:start;" transform="rotate(-0, 249.522684, 663.684749)" x="249.522684" y="663.684749">REACTOME_G_PROTEIN_ACTIVATION</text>
   </g>
   <g id="text_54">
    <text style="font-family:DejaVu Sans;font-size:12px;font-style:normal;font-weight:normal;text-anchor:start;" transform="rotate(-0, 197.929338, 645.240132)" x="197.929338" y="645.240132">REACTOME_LIGAND_GATED_ION_CHANNEL_TRANSPORT</text>
   </g>
   <g id="text_55">
    <text style="font-family:DejaVu Sans;font-size:12px;font-style:normal;font-weight:normal;text-anchor:start;" transform="rotate(-0, 241.206131, 663.882703)" x="241.206131" y="663.882703">REACTOME_ADP_SIGNALLING_THROUGH_P2RY12</text>
   </g>
   <g id="text_56">
    <text style="font-family:DejaVu Sans;font-size:12px;font-style:normal;font-weight:normal;text-anchor:start;" transform="rotate(-0, 282.426571, 565.647816)" x="282.426571" y="565.647816">PID_S1P_META_PATHWAY</text>
   </g>
   <g id="text_57">
    <text style="font-family:DejaVu Sans;font-size:12px;font-style:normal;font-weight:normal;text-anchor:start;" transform="rotate(-0, 312.212628, 638.829287)" x="312.212628" y="638.829287">PID_IL8_CXCR2_PATHWAY</text>
   </g>
   <g id="text_58">
    <text style="font-family:DejaVu Sans;font-size:12px;font-style:normal;font-weight:normal;text-anchor:middle;" transform="rotate(-0, 630.564073, 91.831378)" x="630.564073" y="91.831378">Neuron System</text>
   </g>
  </g>
 </g>
 <defs>
  <clipPath id="p4e9cc6bee9">
   <rect height="615.522423" width="953.535916" x="153.796115" y="97.831378"/>
  </clipPath>
 </defs>
</svg>
