<?xml version="1.0" encoding="utf-8" standalone="no"?>
<!DOCTYPE svg PUBLIC "-//W3C//DTD SVG 1.1//EN"
  "http://www.w3.org/Graphics/SVG/1.1/DTD/svg11.dtd">
<!-- Created with matplotlib (https://matplotlib.org/) -->
<svg height="822.899769pt" version="1.1" viewBox="0 0 1276.198613 822.899769" width="1276.198613pt" xmlns="http://www.w3.org/2000/svg" xmlns:xlink="http://www.w3.org/1999/xlink">
 <defs>
  <style type="text/css">
*{stroke-linecap:butt;stroke-linejoin:round;}
  </style>
 </defs>
 <g id="figure_1">
  <g id="patch_1">
   <path d="M 0 822.899769 
L 1276.198613 822.899769 
L 1276.198613 0 
L 0 0 
z
" style="fill:#ffffff;"/>
  </g>
  <g id="axes_1">
   <g id="patch_2">
    <path clip-path="url(#p73363f6414)" d="M 174.53325 113.017472 
C 175.926348 113.017472 177.262576 112.516297 178.247645 111.624326 
C 179.232714 110.732354 179.786198 109.522411 179.786198 108.260972 
C 179.786198 106.999534 179.232714 105.789591 178.247645 104.897619 
C 177.262576 104.005647 175.926348 103.504472 174.53325 103.504472 
C 173.140152 103.504472 171.803924 104.005647 170.818855 104.897619 
C 169.833785 105.789591 169.280302 106.999534 169.280302 108.260972 
C 169.280302 109.522411 169.833785 110.732354 170.818855 111.624326 
C 171.803924 112.516297 173.140152 113.017472 174.53325 113.017472 
z
" style="fill:#ff0000;"/>
   </g>
   <g id="patch_3">
    <path clip-path="url(#p73363f6414)" d="M 174.53325 126.607472 
C 175.926348 126.607472 177.262576 126.106297 178.247645 125.214326 
C 179.232714 124.322354 179.786198 123.112411 179.786198 121.850972 
C 179.786198 120.589534 179.232714 119.379591 178.247645 118.487619 
C 177.262576 117.595647 175.926348 117.094472 174.53325 117.094472 
C 173.140152 117.094472 171.803924 117.595647 170.818855 118.487619 
C 169.833785 119.379591 169.280302 120.589534 169.280302 121.850972 
C 169.280302 123.112411 169.833785 124.322354 170.818855 125.214326 
C 171.803924 126.106297 173.140152 126.607472 174.53325 126.607472 
z
" style="fill:#ff0000;"/>
   </g>
   <g id="patch_4">
    <path clip-path="url(#p73363f6414)" d="M 174.53325 140.197472 
C 175.926348 140.197472 177.262576 139.696297 178.247645 138.804326 
C 179.232714 137.912354 179.786198 136.702411 179.786198 135.440972 
C 179.786198 134.179534 179.232714 132.969591 178.247645 132.077619 
C 177.262576 131.185647 175.926348 130.684472 174.53325 130.684472 
C 173.140152 130.684472 171.803924 131.185647 170.818855 132.077619 
C 169.833785 132.969591 169.280302 134.179534 169.280302 135.440972 
C 169.280302 136.702411 169.833785 137.912354 170.818855 138.804326 
C 171.803924 139.696297 173.140152 140.197472 174.53325 140.197472 
z
" style="fill:#ff0000;"/>
   </g>
   <g id="patch_5">
    <path clip-path="url(#p73363f6414)" d="M 174.53325 153.787472 
C 175.926348 153.787472 177.262576 153.286297 178.247645 152.394326 
C 179.232714 151.502354 179.786198 150.292411 179.786198 149.030972 
C 179.786198 147.769534 179.232714 146.559591 178.247645 145.667619 
C 177.262576 144.775647 175.926348 144.274472 174.53325 144.274472 
C 173.140152 144.274472 171.803924 144.775647 170.818855 145.667619 
C 169.833785 146.559591 169.280302 147.769534 169.280302 149.030972 
C 169.280302 150.292411 169.833785 151.502354 170.818855 152.394326 
C 171.803924 153.286297 173.140152 153.787472 174.53325 153.787472 
z
" style="fill:#ff0000;"/>
   </g>
   <g id="patch_6">
    <path clip-path="url(#p73363f6414)" d="M 174.53325 167.377472 
C 175.926348 167.377472 177.262576 166.876297 178.247645 165.984326 
C 179.232714 165.092354 179.786198 163.882411 179.786198 162.620972 
C 179.786198 161.359534 179.232714 160.149591 178.247645 159.257619 
C 177.262576 158.365647 175.926348 157.864472 174.53325 157.864472 
C 173.140152 157.864472 171.803924 158.365647 170.818855 159.257619 
C 169.833785 160.149591 169.280302 161.359534 169.280302 162.620972 
C 169.280302 163.882411 169.833785 165.092354 170.818855 165.984326 
C 171.803924 166.876297 173.140152 167.377472 174.53325 167.377472 
z
" style="fill:#ff0000;"/>
   </g>
   <g id="patch_7">
    <path clip-path="url(#p73363f6414)" d="M 174.53325 180.967472 
C 175.926348 180.967472 177.262576 180.466297 178.247645 179.574326 
C 179.232714 178.682354 179.786198 177.472411 179.786198 176.210972 
C 179.786198 174.949534 179.232714 173.739591 178.247645 172.847619 
C 177.262576 171.955647 175.926348 171.454472 174.53325 171.454472 
C 173.140152 171.454472 171.803924 171.955647 170.818855 172.847619 
C 169.833785 173.739591 169.280302 174.949534 169.280302 176.210972 
C 169.280302 177.472411 169.833785 178.682354 170.818855 179.574326 
C 171.803924 180.466297 173.140152 180.967472 174.53325 180.967472 
z
" style="fill:#0000ff;"/>
   </g>
   <g id="patch_8">
    <path clip-path="url(#p73363f6414)" d="M 174.53325 194.557472 
C 175.926348 194.557472 177.262576 194.056297 178.247645 193.164326 
C 179.232714 192.272354 179.786198 191.062411 179.786198 189.800972 
C 179.786198 188.539534 179.232714 187.329591 178.247645 186.437619 
C 177.262576 185.545647 175.926348 185.044472 174.53325 185.044472 
C 173.140152 185.044472 171.803924 185.545647 170.818855 186.437619 
C 169.833785 187.329591 169.280302 188.539534 169.280302 189.800972 
C 169.280302 191.062411 169.833785 192.272354 170.818855 193.164326 
C 171.803924 194.056297 173.140152 194.557472 174.53325 194.557472 
z
" style="fill:#0000ff;"/>
   </g>
   <g id="patch_9">
    <path clip-path="url(#p73363f6414)" d="M 174.53325 208.147472 
C 175.926348 208.147472 177.262576 207.646297 178.247645 206.754326 
C 179.232714 205.862354 179.786198 204.652411 179.786198 203.390972 
C 179.786198 202.129534 179.232714 200.919591 178.247645 200.027619 
C 177.262576 199.135647 175.926348 198.634472 174.53325 198.634472 
C 173.140152 198.634472 171.803924 199.135647 170.818855 200.027619 
C 169.833785 200.919591 169.280302 202.129534 169.280302 203.390972 
C 169.280302 204.652411 169.833785 205.862354 170.818855 206.754326 
C 171.803924 207.646297 173.140152 208.147472 174.53325 208.147472 
z
" style="fill:#0000ff;"/>
   </g>
   <g id="patch_10">
    <path clip-path="url(#p73363f6414)" d="M 174.53325 221.737472 
C 175.926348 221.737472 177.262576 221.236297 178.247645 220.344326 
C 179.232714 219.452354 179.786198 218.242411 179.786198 216.980972 
C 179.786198 215.719534 179.232714 214.509591 178.247645 213.617619 
C 177.262576 212.725647 175.926348 212.224472 174.53325 212.224472 
C 173.140152 212.224472 171.803924 212.725647 170.818855 213.617619 
C 169.833785 214.509591 169.280302 215.719534 169.280302 216.980972 
C 169.280302 218.242411 169.833785 219.452354 170.818855 220.344326 
C 171.803924 221.236297 173.140152 221.737472 174.53325 221.737472 
z
" style="fill:#0000ff;"/>
   </g>
   <g id="patch_11">
    <path clip-path="url(#p73363f6414)" d="M 174.53325 235.327472 
C 175.926348 235.327472 177.262576 234.826297 178.247645 233.934326 
C 179.232714 233.042354 179.786198 231.832411 179.786198 230.570972 
C 179.786198 229.309534 179.232714 228.099591 178.247645 227.207619 
C 177.262576 226.315647 175.926348 225.814472 174.53325 225.814472 
C 173.140152 225.814472 171.803924 226.315647 170.818855 227.207619 
C 169.833785 228.099591 169.280302 229.309534 169.280302 230.570972 
C 169.280302 231.832411 169.833785 233.042354 170.818855 233.934326 
C 171.803924 234.826297 173.140152 235.327472 174.53325 235.327472 
z
" style="fill:#0000ff;"/>
   </g>
   <g id="patch_12">
    <path clip-path="url(#p73363f6414)" d="M 174.53325 248.917472 
C 175.926348 248.917472 177.262576 248.416297 178.247645 247.524326 
C 179.232714 246.632354 179.786198 245.422411 179.786198 244.160972 
C 179.786198 242.899534 179.232714 241.689591 178.247645 240.797619 
C 177.262576 239.905647 175.926348 239.404472 174.53325 239.404472 
C 173.140152 239.404472 171.803924 239.905647 170.818855 240.797619 
C 169.833785 241.689591 169.280302 242.899534 169.280302 244.160972 
C 169.280302 245.422411 169.833785 246.632354 170.818855 247.524326 
C 171.803924 248.416297 173.140152 248.917472 174.53325 248.917472 
z
" style="fill:#800080;"/>
   </g>
   <g id="patch_13">
    <path clip-path="url(#p73363f6414)" d="M 174.53325 262.507472 
C 175.926348 262.507472 177.262576 262.006297 178.247645 261.114326 
C 179.232714 260.222354 179.786198 259.012411 179.786198 257.750972 
C 179.786198 256.489534 179.232714 255.279591 178.247645 254.387619 
C 177.262576 253.495647 175.926348 252.994472 174.53325 252.994472 
C 173.140152 252.994472 171.803924 253.495647 170.818855 254.387619 
C 169.833785 255.279591 169.280302 256.489534 169.280302 257.750972 
C 169.280302 259.012411 169.833785 260.222354 170.818855 261.114326 
C 171.803924 262.006297 173.140152 262.507472 174.53325 262.507472 
z
" style="fill:#800080;"/>
   </g>
   <g id="patch_14">
    <path clip-path="url(#p73363f6414)" d="M 174.53325 276.097472 
C 175.926348 276.097472 177.262576 275.596297 178.247645 274.704326 
C 179.232714 273.812354 179.786198 272.602411 179.786198 271.340972 
C 179.786198 270.079534 179.232714 268.869591 178.247645 267.977619 
C 177.262576 267.085647 175.926348 266.584472 174.53325 266.584472 
C 173.140152 266.584472 171.803924 267.085647 170.818855 267.977619 
C 169.833785 268.869591 169.280302 270.079534 169.280302 271.340972 
C 169.280302 272.602411 169.833785 273.812354 170.818855 274.704326 
C 171.803924 275.596297 173.140152 276.097472 174.53325 276.097472 
z
" style="fill:#800080;"/>
   </g>
   <g id="patch_15">
    <path clip-path="url(#p73363f6414)" d="M 174.53325 284.930972 
L 174.53325 298.520972 
" style="fill:#1f77b4;stroke:#000000;stroke-linejoin:miter;"/>
   </g>
   <g id="patch_16">
    <path clip-path="url(#p73363f6414)" d="M 174.53325 289.687472 
C 175.926348 289.687472 177.262576 289.186297 178.247645 288.294326 
C 179.232714 287.402354 179.786198 286.192411 179.786198 284.930972 
C 179.786198 283.669534 179.232714 282.459591 178.247645 281.567619 
C 177.262576 280.675647 175.926348 280.174472 174.53325 280.174472 
C 173.140152 280.174472 171.803924 280.675647 170.818855 281.567619 
C 169.833785 282.459591 169.280302 283.669534 169.280302 284.930972 
C 169.280302 286.192411 169.833785 287.402354 170.818855 288.294326 
C 171.803924 289.186297 173.140152 289.687472 174.53325 289.687472 
z
" style="fill:#ff0000;"/>
   </g>
   <g id="patch_17">
    <path clip-path="url(#p73363f6414)" d="M 174.53325 303.277472 
C 175.926348 303.277472 177.262576 302.776297 178.247645 301.884326 
C 179.232714 300.992354 179.786198 299.782411 179.786198 298.520972 
C 179.786198 297.259534 179.232714 296.049591 178.247645 295.157619 
C 177.262576 294.265647 175.926348 293.764472 174.53325 293.764472 
C 173.140152 293.764472 171.803924 294.265647 170.818855 295.157619 
C 169.833785 296.049591 169.280302 297.259534 169.280302 298.520972 
C 169.280302 299.782411 169.833785 300.992354 170.818855 301.884326 
C 171.803924 302.776297 173.140152 303.277472 174.53325 303.277472 
z
" style="fill:#ff0000;"/>
   </g>
   <g id="patch_18">
    <path clip-path="url(#p73363f6414)" d="M 174.53325 312.110972 
L 174.53325 325.700972 
" style="fill:#1f77b4;stroke:#000000;stroke-linejoin:miter;"/>
   </g>
   <g id="patch_19">
    <path clip-path="url(#p73363f6414)" d="M 174.53325 316.867472 
C 175.926348 316.867472 177.262576 316.366297 178.247645 315.474326 
C 179.232714 314.582354 179.786198 313.372411 179.786198 312.110972 
C 179.786198 310.849534 179.232714 309.639591 178.247645 308.747619 
C 177.262576 307.855647 175.926348 307.354472 174.53325 307.354472 
C 173.140152 307.354472 171.803924 307.855647 170.818855 308.747619 
C 169.833785 309.639591 169.280302 310.849534 169.280302 312.110972 
C 169.280302 313.372411 169.833785 314.582354 170.818855 315.474326 
C 171.803924 316.366297 173.140152 316.867472 174.53325 316.867472 
z
" style="fill:#0000ff;"/>
   </g>
   <g id="patch_20">
    <path clip-path="url(#p73363f6414)" d="M 174.53325 330.457472 
C 175.926348 330.457472 177.262576 329.956297 178.247645 329.064326 
C 179.232714 328.172354 179.786198 326.962411 179.786198 325.700972 
C 179.786198 324.439534 179.232714 323.229591 178.247645 322.337619 
C 177.262576 321.445647 175.926348 320.944472 174.53325 320.944472 
C 173.140152 320.944472 171.803924 321.445647 170.818855 322.337619 
C 169.833785 323.229591 169.280302 324.439534 169.280302 325.700972 
C 169.280302 326.962411 169.833785 328.172354 170.818855 329.064326 
C 171.803924 329.956297 173.140152 330.457472 174.53325 330.457472 
z
" style="fill:#0000ff;"/>
   </g>
   <g id="patch_21">
    <path clip-path="url(#p73363f6414)" d="M 174.53325 339.290972 
L 174.53325 366.470972 
" style="fill:#1f77b4;stroke:#000000;stroke-linejoin:miter;"/>
   </g>
   <g id="patch_22">
    <path clip-path="url(#p73363f6414)" d="M 174.53325 352.880972 
L 174.53325 366.470972 
" style="fill:#1f77b4;stroke:#000000;stroke-linejoin:miter;"/>
   </g>
   <g id="patch_23">
    <path clip-path="url(#p73363f6414)" d="M 174.53325 344.047472 
C 175.926348 344.047472 177.262576 343.546297 178.247645 342.654326 
C 179.232714 341.762354 179.786198 340.552411 179.786198 339.290972 
C 179.786198 338.029534 179.232714 336.819591 178.247645 335.927619 
C 177.262576 335.035647 175.926348 334.534472 174.53325 334.534472 
C 173.140152 334.534472 171.803924 335.035647 170.818855 335.927619 
C 169.833785 336.819591 169.280302 338.029534 169.280302 339.290972 
C 169.280302 340.552411 169.833785 341.762354 170.818855 342.654326 
C 171.803924 343.546297 173.140152 344.047472 174.53325 344.047472 
z
" style="fill:#ff0000;"/>
   </g>
   <g id="patch_24">
    <path clip-path="url(#p73363f6414)" d="M 174.53325 357.637472 
C 175.926348 357.637472 177.262576 357.136297 178.247645 356.244326 
C 179.232714 355.352354 179.786198 354.142411 179.786198 352.880972 
C 179.786198 351.619534 179.232714 350.409591 178.247645 349.517619 
C 177.262576 348.625647 175.926348 348.124472 174.53325 348.124472 
C 173.140152 348.124472 171.803924 348.625647 170.818855 349.517619 
C 169.833785 350.409591 169.280302 351.619534 169.280302 352.880972 
C 169.280302 354.142411 169.833785 355.352354 170.818855 356.244326 
C 171.803924 357.136297 173.140152 357.637472 174.53325 357.637472 
z
" style="fill:#ff0000;"/>
   </g>
   <g id="patch_25">
    <path clip-path="url(#p73363f6414)" d="M 174.53325 371.227472 
C 175.926348 371.227472 177.262576 370.726297 178.247645 369.834326 
C 179.232714 368.942354 179.786198 367.732411 179.786198 366.470972 
C 179.786198 365.209534 179.232714 363.999591 178.247645 363.107619 
C 177.262576 362.215647 175.926348 361.714472 174.53325 361.714472 
C 173.140152 361.714472 171.803924 362.215647 170.818855 363.107619 
C 169.833785 363.999591 169.280302 365.209534 169.280302 366.470972 
C 169.280302 367.732411 169.833785 368.942354 170.818855 369.834326 
C 171.803924 370.726297 173.140152 371.227472 174.53325 371.227472 
z
" style="fill:#ff0000;"/>
   </g>
   <g id="patch_26">
    <path clip-path="url(#p73363f6414)" d="M 174.53325 380.060972 
L 174.53325 393.650972 
" style="fill:#1f77b4;stroke:#000000;stroke-linejoin:miter;"/>
   </g>
   <g id="patch_27">
    <path clip-path="url(#p73363f6414)" d="M 174.53325 393.650972 
L 174.53325 407.240972 
" style="fill:#1f77b4;stroke:#000000;stroke-linejoin:miter;"/>
   </g>
   <g id="patch_28">
    <path clip-path="url(#p73363f6414)" d="M 174.53325 384.817472 
C 175.926348 384.817472 177.262576 384.316297 178.247645 383.424326 
C 179.232714 382.532354 179.786198 381.322411 179.786198 380.060972 
C 179.786198 378.799534 179.232714 377.589591 178.247645 376.697619 
C 177.262576 375.805647 175.926348 375.304472 174.53325 375.304472 
C 173.140152 375.304472 171.803924 375.805647 170.818855 376.697619 
C 169.833785 377.589591 169.280302 378.799534 169.280302 380.060972 
C 169.280302 381.322411 169.833785 382.532354 170.818855 383.424326 
C 171.803924 384.316297 173.140152 384.817472 174.53325 384.817472 
z
" style="fill:#ff0000;"/>
   </g>
   <g id="patch_29">
    <path clip-path="url(#p73363f6414)" d="M 174.53325 398.407472 
C 175.926348 398.407472 177.262576 397.906297 178.247645 397.014326 
C 179.232714 396.122354 179.786198 394.912411 179.786198 393.650972 
C 179.786198 392.389534 179.232714 391.179591 178.247645 390.287619 
C 177.262576 389.395647 175.926348 388.894472 174.53325 388.894472 
C 173.140152 388.894472 171.803924 389.395647 170.818855 390.287619 
C 169.833785 391.179591 169.280302 392.389534 169.280302 393.650972 
C 169.280302 394.912411 169.833785 396.122354 170.818855 397.014326 
C 171.803924 397.906297 173.140152 398.407472 174.53325 398.407472 
z
" style="fill:#ff0000;"/>
   </g>
   <g id="patch_30">
    <path clip-path="url(#p73363f6414)" d="M 174.53325 411.997472 
C 175.926348 411.997472 177.262576 411.496297 178.247645 410.604326 
C 179.232714 409.712354 179.786198 408.502411 179.786198 407.240972 
C 179.786198 405.979534 179.232714 404.769591 178.247645 403.877619 
C 177.262576 402.985647 175.926348 402.484472 174.53325 402.484472 
C 173.140152 402.484472 171.803924 402.985647 170.818855 403.877619 
C 169.833785 404.769591 169.280302 405.979534 169.280302 407.240972 
C 169.280302 408.502411 169.833785 409.712354 170.818855 410.604326 
C 171.803924 411.496297 173.140152 411.997472 174.53325 411.997472 
z
" style="fill:#ff0000;"/>
   </g>
   <g id="patch_31">
    <path clip-path="url(#p73363f6414)" d="M 174.53325 420.9858 
L 197.045884 420.830972 
" style="fill:#1f77b4;stroke:#000000;stroke-linejoin:miter;"/>
   </g>
   <g id="patch_32">
    <path clip-path="url(#p73363f6414)" d="M 174.53325 420.9858 
L 185.940774 441.215972 
" style="fill:#1f77b4;stroke:#000000;stroke-linejoin:miter;"/>
   </g>
   <g id="patch_33">
    <path clip-path="url(#p73363f6414)" d="M 197.045884 420.830972 
L 185.940774 441.215972 
" style="fill:#1f77b4;stroke:#000000;stroke-linejoin:miter;"/>
   </g>
   <g id="patch_34">
    <path clip-path="url(#p73363f6414)" d="M 174.53325 425.7423 
C 175.926348 425.7423 177.262576 425.241125 178.247645 424.349153 
C 179.232714 423.457182 179.786198 422.247239 179.786198 420.9858 
C 179.786198 419.724361 179.232714 418.514418 178.247645 417.622447 
C 177.262576 416.730475 175.926348 416.2293 174.53325 416.2293 
C 173.140152 416.2293 171.803924 416.730475 170.818855 417.622447 
C 169.833785 418.514418 169.280302 419.724361 169.280302 420.9858 
C 169.280302 422.247239 169.833785 423.457182 170.818855 424.349153 
C 171.803924 425.241125 173.140152 425.7423 174.53325 425.7423 
z
" style="fill:#ff0000;"/>
   </g>
   <g id="patch_35">
    <path clip-path="url(#p73363f6414)" d="M 197.045884 425.587472 
C 198.438982 425.587472 199.77521 425.086297 200.76028 424.194326 
C 201.745349 423.302354 202.298832 422.092411 202.298832 420.830972 
C 202.298832 419.569534 201.745349 418.359591 200.76028 417.467619 
C 199.77521 416.575647 198.438982 416.074472 197.045884 416.074472 
C 195.652786 416.074472 194.316558 416.575647 193.331489 417.467619 
C 192.34642 418.359591 191.792936 419.569534 191.792936 420.830972 
C 191.792936 422.092411 192.34642 423.302354 193.331489 424.194326 
C 194.316558 425.086297 195.652786 425.587472 197.045884 425.587472 
z
" style="fill:#ff0000;"/>
   </g>
   <g id="patch_36">
    <path clip-path="url(#p73363f6414)" d="M 185.940774 445.972472 
C 187.333872 445.972472 188.6701 445.471297 189.655169 444.579326 
C 190.640238 443.687354 191.193722 442.477411 191.193722 441.215972 
C 191.193722 439.954534 190.640238 438.744591 189.655169 437.852619 
C 188.6701 436.960647 187.333872 436.459472 185.940774 436.459472 
C 184.547676 436.459472 183.211448 436.960647 182.226378 437.852619 
C 181.241309 438.744591 180.687826 439.954534 180.687826 441.215972 
C 180.687826 442.477411 181.241309 443.687354 182.226378 444.579326 
C 183.211448 445.471297 184.547676 445.972472 185.940774 445.972472 
z
" style="fill:#ff0000;"/>
   </g>
   <g id="patch_37">
    <path clip-path="url(#p73363f6414)" d="M 189.531721 485.044038 
L 174.53325 494.824798 
" style="fill:#1f77b4;stroke:#000000;stroke-linejoin:miter;"/>
   </g>
   <g id="patch_38">
    <path clip-path="url(#p73363f6414)" d="M 189.531721 485.044038 
L 205.086797 479.981502 
" style="fill:#1f77b4;stroke:#000000;stroke-linejoin:miter;"/>
   </g>
   <g id="patch_39">
    <path clip-path="url(#p73363f6414)" d="M 217.549624 454.805972 
L 219.558519 495.575972 
" style="fill:#1f77b4;stroke:#000000;stroke-linejoin:miter;"/>
   </g>
   <g id="patch_40">
    <path clip-path="url(#p73363f6414)" d="M 217.549624 454.805972 
L 205.086797 479.981502 
" style="fill:#1f77b4;stroke:#000000;stroke-linejoin:miter;"/>
   </g>
   <g id="patch_41">
    <path clip-path="url(#p73363f6414)" d="M 219.558519 495.575972 
L 205.086797 479.981502 
" style="fill:#1f77b4;stroke:#000000;stroke-linejoin:miter;"/>
   </g>
   <g id="patch_42">
    <path clip-path="url(#p73363f6414)" d="M 189.531721 489.800538 
C 190.924819 489.800538 192.261047 489.299363 193.246116 488.407391 
C 194.231185 487.51542 194.784669 486.305476 194.784669 485.044038 
C 194.784669 483.782599 194.231185 482.572656 193.246116 481.680684 
C 192.261047 480.788713 190.924819 480.287538 189.531721 480.287538 
C 188.138623 480.287538 186.802395 480.788713 185.817326 481.680684 
C 184.832256 482.572656 184.278773 483.782599 184.278773 485.044038 
C 184.278773 486.305476 184.832256 487.51542 185.817326 488.407391 
C 186.802395 489.299363 188.138623 489.800538 189.531721 489.800538 
z
" style="fill:#0000ff;"/>
   </g>
   <g id="patch_43">
    <path clip-path="url(#p73363f6414)" d="M 217.549624 459.562472 
C 218.942722 459.562472 220.27895 459.061297 221.264019 458.169326 
C 222.249088 457.277354 222.802572 456.067411 222.802572 454.805972 
C 222.802572 453.544534 222.249088 452.334591 221.264019 451.442619 
C 220.27895 450.550647 218.942722 450.049472 217.549624 450.049472 
C 216.156526 450.049472 214.820298 450.550647 213.835229 451.442619 
C 212.85016 452.334591 212.296676 453.544534 212.296676 454.805972 
C 212.296676 456.067411 212.85016 457.277354 213.835229 458.169326 
C 214.820298 459.061297 216.156526 459.562472 217.549624 459.562472 
z
" style="fill:#800080;"/>
   </g>
   <g id="patch_44">
    <path clip-path="url(#p73363f6414)" d="M 219.558519 500.332472 
C 220.951617 500.332472 222.287845 499.831297 223.272914 498.939326 
C 224.257983 498.047354 224.811467 496.837411 224.811467 495.575972 
C 224.811467 494.314534 224.257983 493.104591 223.272914 492.212619 
C 222.287845 491.320647 220.951617 490.819472 219.558519 490.819472 
C 218.165421 490.819472 216.829193 491.320647 215.844124 492.212619 
C 214.859055 493.104591 214.305571 494.314534 214.305571 495.575972 
C 214.305571 496.837411 214.859055 498.047354 215.844124 498.939326 
C 216.829193 499.831297 218.165421 500.332472 219.558519 500.332472 
z
" style="fill:#800080;"/>
   </g>
   <g id="patch_45">
    <path clip-path="url(#p73363f6414)" d="M 205.086797 484.738002 
C 206.479895 484.738002 207.816123 484.236827 208.801192 483.344855 
C 209.786261 482.452883 210.339745 481.24294 210.339745 479.981502 
C 210.339745 478.720063 209.786261 477.51012 208.801192 476.618148 
C 207.816123 475.726177 206.479895 475.225002 205.086797 475.225002 
C 203.693698 475.225002 202.35747 475.726177 201.372401 476.618148 
C 200.387332 477.51012 199.833848 478.720063 199.833848 479.981502 
C 199.833848 481.24294 200.387332 482.452883 201.372401 483.344855 
C 202.35747 484.236827 203.693698 484.738002 205.086797 484.738002 
z
" style="fill:#800080;"/>
   </g>
   <g id="patch_46">
    <path clip-path="url(#p73363f6414)" d="M 174.53325 499.581298 
C 175.926348 499.581298 177.262576 499.080123 178.247645 498.188151 
C 179.232714 497.29618 179.786198 496.086237 179.786198 494.824798 
C 179.786198 493.563359 179.232714 492.353416 178.247645 491.461445 
C 177.262576 490.569473 175.926348 490.068298 174.53325 490.068298 
C 173.140152 490.068298 171.803924 490.569473 170.818855 491.461445 
C 169.833785 492.353416 169.280302 493.563359 169.280302 494.824798 
C 169.280302 496.086237 169.833785 497.29618 170.818855 498.188151 
C 171.803924 499.080123 173.140152 499.581298 174.53325 499.581298 
z
" style="fill:#0000ff;"/>
   </g>
   <g id="patch_47">
    <path clip-path="url(#p73363f6414)" d="M 174.53325 532.927176 
L 195.502896 549.935972 
" style="fill:#1f77b4;stroke:#000000;stroke-linejoin:miter;"/>
   </g>
   <g id="patch_48">
    <path clip-path="url(#p73363f6414)" d="M 174.53325 532.927176 
L 185.548475 509.165972 
" style="fill:#1f77b4;stroke:#000000;stroke-linejoin:miter;"/>
   </g>
   <g id="patch_49">
    <path clip-path="url(#p73363f6414)" d="M 174.53325 532.927176 
L 219.558519 536.752087 
" style="fill:#1f77b4;stroke:#000000;stroke-linejoin:miter;"/>
   </g>
   <g id="patch_50">
    <path clip-path="url(#p73363f6414)" d="M 174.53325 532.927176 
L 213.28477 511.652685 
" style="fill:#1f77b4;stroke:#000000;stroke-linejoin:miter;"/>
   </g>
   <g id="patch_51">
    <path clip-path="url(#p73363f6414)" d="M 219.558519 536.752087 
L 195.502896 549.935972 
" style="fill:#1f77b4;stroke:#000000;stroke-linejoin:miter;"/>
   </g>
   <g id="patch_52">
    <path clip-path="url(#p73363f6414)" d="M 219.558519 536.752087 
L 185.548475 509.165972 
" style="fill:#1f77b4;stroke:#000000;stroke-linejoin:miter;"/>
   </g>
   <g id="patch_53">
    <path clip-path="url(#p73363f6414)" d="M 219.558519 536.752087 
L 213.28477 511.652685 
" style="fill:#1f77b4;stroke:#000000;stroke-linejoin:miter;"/>
   </g>
   <g id="patch_54">
    <path clip-path="url(#p73363f6414)" d="M 195.502896 549.935972 
L 185.548475 509.165972 
" style="fill:#1f77b4;stroke:#000000;stroke-linejoin:miter;"/>
   </g>
   <g id="patch_55">
    <path clip-path="url(#p73363f6414)" d="M 195.502896 549.935972 
L 213.28477 511.652685 
" style="fill:#1f77b4;stroke:#000000;stroke-linejoin:miter;"/>
   </g>
   <g id="patch_56">
    <path clip-path="url(#p73363f6414)" d="M 185.548475 509.165972 
L 213.28477 511.652685 
" style="fill:#1f77b4;stroke:#000000;stroke-linejoin:miter;"/>
   </g>
   <g id="patch_57">
    <path clip-path="url(#p73363f6414)" d="M 174.53325 537.683676 
C 175.926348 537.683676 177.262576 537.182501 178.247645 536.290529 
C 179.232714 535.398558 179.786198 534.188615 179.786198 532.927176 
C 179.786198 531.665737 179.232714 530.455794 178.247645 529.563823 
C 177.262576 528.671851 175.926348 528.170676 174.53325 528.170676 
C 173.140152 528.170676 171.803924 528.671851 170.818855 529.563823 
C 169.833785 530.455794 169.280302 531.665737 169.280302 532.927176 
C 169.280302 534.188615 169.833785 535.398558 170.818855 536.290529 
C 171.803924 537.182501 173.140152 537.683676 174.53325 537.683676 
z
" style="fill:#ff0000;"/>
   </g>
   <g id="patch_58">
    <path clip-path="url(#p73363f6414)" d="M 219.558519 541.508587 
C 220.951617 541.508587 222.287845 541.007413 223.272914 540.115441 
C 224.257983 539.223469 224.811467 538.013526 224.811467 536.752087 
C 224.811467 535.490649 224.257983 534.280706 223.272914 533.388734 
C 222.287845 532.496762 220.951617 531.995587 219.558519 531.995587 
C 218.165421 531.995587 216.829193 532.496762 215.844124 533.388734 
C 214.859055 534.280706 214.305571 535.490649 214.305571 536.752087 
C 214.305571 538.013526 214.859055 539.223469 215.844124 540.115441 
C 216.829193 541.007413 218.165421 541.508587 219.558519 541.508587 
z
" style="fill:#ff0000;"/>
   </g>
   <g id="patch_59">
    <path clip-path="url(#p73363f6414)" d="M 195.502896 554.692472 
C 196.895994 554.692472 198.232222 554.191297 199.217291 553.299326 
C 200.20236 552.407354 200.755844 551.197411 200.755844 549.935972 
C 200.755844 548.674534 200.20236 547.464591 199.217291 546.572619 
C 198.232222 545.680647 196.895994 545.179472 195.502896 545.179472 
C 194.109798 545.179472 192.77357 545.680647 191.7885 546.572619 
C 190.803431 547.464591 190.249948 548.674534 190.249948 549.935972 
C 190.249948 551.197411 190.803431 552.407354 191.7885 553.299326 
C 192.77357 554.191297 194.109798 554.692472 195.502896 554.692472 
z
" style="fill:#ff0000;"/>
   </g>
   <g id="patch_60">
    <path clip-path="url(#p73363f6414)" d="M 185.548475 513.922472 
C 186.941573 513.922472 188.277801 513.421297 189.26287 512.529326 
C 190.247939 511.637354 190.801423 510.427411 190.801423 509.165972 
C 190.801423 507.904534 190.247939 506.694591 189.26287 505.802619 
C 188.277801 504.910647 186.941573 504.409472 185.548475 504.409472 
C 184.155377 504.409472 182.819149 504.910647 181.83408 505.802619 
C 180.849011 506.694591 180.295527 507.904534 180.295527 509.165972 
C 180.295527 510.427411 180.849011 511.637354 181.83408 512.529326 
C 182.819149 513.421297 184.155377 513.922472 185.548475 513.922472 
z
" style="fill:#ff0000;"/>
   </g>
   <g id="patch_61">
    <path clip-path="url(#p73363f6414)" d="M 213.28477 516.409185 
C 214.677868 516.409185 216.014096 515.90801 216.999165 515.016038 
C 217.984234 514.124066 218.537718 512.914123 218.537718 511.652685 
C 218.537718 510.391246 217.984234 509.181303 216.999165 508.289331 
C 216.014096 507.39736 214.677868 506.896185 213.28477 506.896185 
C 211.891671 506.896185 210.555443 507.39736 209.570374 508.289331 
C 208.585305 509.181303 208.031821 510.391246 208.031821 511.652685 
C 208.031821 512.914123 208.585305 514.124066 209.570374 515.016038 
C 210.555443 515.90801 211.891671 516.409185 213.28477 516.409185 
z
" style="fill:#ff0000;"/>
   </g>
   <g id="patch_62">
    <path clip-path="url(#p73363f6414)" d="M 240.426421 652.612369 
L 264.509497 663.373891 
" style="fill:#1f77b4;stroke:#000000;stroke-linejoin:miter;"/>
   </g>
   <g id="patch_63">
    <path clip-path="url(#p73363f6414)" d="M 240.426421 652.612369 
L 255.837824 630.997664 
" style="fill:#1f77b4;stroke:#000000;stroke-linejoin:miter;"/>
   </g>
   <g id="patch_64">
    <path clip-path="url(#p73363f6414)" d="M 240.426421 652.612369 
L 268.96417 654.795227 
" style="fill:#1f77b4;stroke:#000000;stroke-linejoin:miter;"/>
   </g>
   <g id="patch_65">
    <path clip-path="url(#p73363f6414)" d="M 240.426421 652.612369 
L 249.05735 671.36865 
" style="fill:#1f77b4;stroke:#000000;stroke-linejoin:miter;"/>
   </g>
   <g id="patch_66">
    <path clip-path="url(#p73363f6414)" d="M 240.426421 652.612369 
L 266.203767 644.974064 
" style="fill:#1f77b4;stroke:#000000;stroke-linejoin:miter;"/>
   </g>
   <g id="patch_67">
    <path clip-path="url(#p73363f6414)" d="M 240.426421 652.612369 
L 243.920215 641.229597 
" style="fill:#1f77b4;stroke:#000000;stroke-linejoin:miter;"/>
   </g>
   <g id="patch_68">
    <path clip-path="url(#p73363f6414)" d="M 240.426421 652.612369 
L 256.948097 658.071211 
" style="fill:#1f77b4;stroke:#000000;stroke-linejoin:miter;"/>
   </g>
   <g id="patch_69">
    <path clip-path="url(#p73363f6414)" d="M 240.426421 652.612369 
L 240.399258 667.807503 
" style="fill:#1f77b4;stroke:#000000;stroke-linejoin:miter;"/>
   </g>
   <g id="patch_70">
    <path clip-path="url(#p73363f6414)" d="M 264.509497 663.373891 
L 255.837824 630.997664 
" style="fill:#1f77b4;stroke:#000000;stroke-linejoin:miter;"/>
   </g>
   <g id="patch_71">
    <path clip-path="url(#p73363f6414)" d="M 264.509497 663.373891 
L 268.96417 654.795227 
" style="fill:#1f77b4;stroke:#000000;stroke-linejoin:miter;"/>
   </g>
   <g id="patch_72">
    <path clip-path="url(#p73363f6414)" d="M 264.509497 663.373891 
L 249.05735 671.36865 
" style="fill:#1f77b4;stroke:#000000;stroke-linejoin:miter;"/>
   </g>
   <g id="patch_73">
    <path clip-path="url(#p73363f6414)" d="M 264.509497 663.373891 
L 266.203767 644.974064 
" style="fill:#1f77b4;stroke:#000000;stroke-linejoin:miter;"/>
   </g>
   <g id="patch_74">
    <path clip-path="url(#p73363f6414)" d="M 264.509497 663.373891 
L 265.134238 684.191157 
" style="fill:#1f77b4;stroke:#000000;stroke-linejoin:miter;"/>
   </g>
   <g id="patch_75">
    <path clip-path="url(#p73363f6414)" d="M 264.509497 663.373891 
L 243.920215 641.229597 
" style="fill:#1f77b4;stroke:#000000;stroke-linejoin:miter;"/>
   </g>
   <g id="patch_76">
    <path clip-path="url(#p73363f6414)" d="M 264.509497 663.373891 
L 256.948097 658.071211 
" style="fill:#1f77b4;stroke:#000000;stroke-linejoin:miter;"/>
   </g>
   <g id="patch_77">
    <path clip-path="url(#p73363f6414)" d="M 264.509497 663.373891 
L 286.188679 667.00633 
" style="fill:#1f77b4;stroke:#000000;stroke-linejoin:miter;"/>
   </g>
   <g id="patch_78">
    <path clip-path="url(#p73363f6414)" d="M 264.509497 663.373891 
L 240.399258 667.807503 
" style="fill:#1f77b4;stroke:#000000;stroke-linejoin:miter;"/>
   </g>
   <g id="patch_79">
    <path clip-path="url(#p73363f6414)" d="M 255.837824 630.997664 
L 268.96417 654.795227 
" style="fill:#1f77b4;stroke:#000000;stroke-linejoin:miter;"/>
   </g>
   <g id="patch_80">
    <path clip-path="url(#p73363f6414)" d="M 255.837824 630.997664 
L 266.203767 644.974064 
" style="fill:#1f77b4;stroke:#000000;stroke-linejoin:miter;"/>
   </g>
   <g id="patch_81">
    <path clip-path="url(#p73363f6414)" d="M 255.837824 630.997664 
L 233.299623 615.228808 
" style="fill:#1f77b4;stroke:#000000;stroke-linejoin:miter;"/>
   </g>
   <g id="patch_82">
    <path clip-path="url(#p73363f6414)" d="M 255.837824 630.997664 
L 243.920215 641.229597 
" style="fill:#1f77b4;stroke:#000000;stroke-linejoin:miter;"/>
   </g>
   <g id="patch_83">
    <path clip-path="url(#p73363f6414)" d="M 255.837824 630.997664 
L 256.948097 658.071211 
" style="fill:#1f77b4;stroke:#000000;stroke-linejoin:miter;"/>
   </g>
   <g id="patch_84">
    <path clip-path="url(#p73363f6414)" d="M 228.64123 590.365278 
L 213.324896 599.663641 
" style="fill:#1f77b4;stroke:#000000;stroke-linejoin:miter;"/>
   </g>
   <g id="patch_85">
    <path clip-path="url(#p73363f6414)" d="M 228.64123 590.365278 
L 233.299623 615.228808 
" style="fill:#1f77b4;stroke:#000000;stroke-linejoin:miter;"/>
   </g>
   <g id="patch_86">
    <path clip-path="url(#p73363f6414)" d="M 268.96417 654.795227 
L 249.05735 671.36865 
" style="fill:#1f77b4;stroke:#000000;stroke-linejoin:miter;"/>
   </g>
   <g id="patch_87">
    <path clip-path="url(#p73363f6414)" d="M 268.96417 654.795227 
L 266.203767 644.974064 
" style="fill:#1f77b4;stroke:#000000;stroke-linejoin:miter;"/>
   </g>
   <g id="patch_88">
    <path clip-path="url(#p73363f6414)" d="M 268.96417 654.795227 
L 265.134238 684.191157 
" style="fill:#1f77b4;stroke:#000000;stroke-linejoin:miter;"/>
   </g>
   <g id="patch_89">
    <path clip-path="url(#p73363f6414)" d="M 268.96417 654.795227 
L 243.920215 641.229597 
" style="fill:#1f77b4;stroke:#000000;stroke-linejoin:miter;"/>
   </g>
   <g id="patch_90">
    <path clip-path="url(#p73363f6414)" d="M 268.96417 654.795227 
L 256.948097 658.071211 
" style="fill:#1f77b4;stroke:#000000;stroke-linejoin:miter;"/>
   </g>
   <g id="patch_91">
    <path clip-path="url(#p73363f6414)" d="M 268.96417 654.795227 
L 286.188679 667.00633 
" style="fill:#1f77b4;stroke:#000000;stroke-linejoin:miter;"/>
   </g>
   <g id="patch_92">
    <path clip-path="url(#p73363f6414)" d="M 268.96417 654.795227 
L 240.399258 667.807503 
" style="fill:#1f77b4;stroke:#000000;stroke-linejoin:miter;"/>
   </g>
   <g id="patch_93">
    <path clip-path="url(#p73363f6414)" d="M 249.05735 671.36865 
L 239.465542 693.504457 
" style="fill:#1f77b4;stroke:#000000;stroke-linejoin:miter;"/>
   </g>
   <g id="patch_94">
    <path clip-path="url(#p73363f6414)" d="M 249.05735 671.36865 
L 266.203767 644.974064 
" style="fill:#1f77b4;stroke:#000000;stroke-linejoin:miter;"/>
   </g>
   <g id="patch_95">
    <path clip-path="url(#p73363f6414)" d="M 249.05735 671.36865 
L 265.134238 684.191157 
" style="fill:#1f77b4;stroke:#000000;stroke-linejoin:miter;"/>
   </g>
   <g id="patch_96">
    <path clip-path="url(#p73363f6414)" d="M 249.05735 671.36865 
L 243.920215 641.229597 
" style="fill:#1f77b4;stroke:#000000;stroke-linejoin:miter;"/>
   </g>
   <g id="patch_97">
    <path clip-path="url(#p73363f6414)" d="M 249.05735 671.36865 
L 240.399258 667.807503 
" style="fill:#1f77b4;stroke:#000000;stroke-linejoin:miter;"/>
   </g>
   <g id="patch_98">
    <path clip-path="url(#p73363f6414)" d="M 239.465542 693.504457 
L 265.134238 684.191157 
" style="fill:#1f77b4;stroke:#000000;stroke-linejoin:miter;"/>
   </g>
   <g id="patch_99">
    <path clip-path="url(#p73363f6414)" d="M 239.465542 693.504457 
L 240.399258 667.807503 
" style="fill:#1f77b4;stroke:#000000;stroke-linejoin:miter;"/>
   </g>
   <g id="patch_100">
    <path clip-path="url(#p73363f6414)" d="M 266.203767 644.974064 
L 243.920215 641.229597 
" style="fill:#1f77b4;stroke:#000000;stroke-linejoin:miter;"/>
   </g>
   <g id="patch_101">
    <path clip-path="url(#p73363f6414)" d="M 266.203767 644.974064 
L 256.948097 658.071211 
" style="fill:#1f77b4;stroke:#000000;stroke-linejoin:miter;"/>
   </g>
   <g id="patch_102">
    <path clip-path="url(#p73363f6414)" d="M 266.203767 644.974064 
L 286.188679 667.00633 
" style="fill:#1f77b4;stroke:#000000;stroke-linejoin:miter;"/>
   </g>
   <g id="patch_103">
    <path clip-path="url(#p73363f6414)" d="M 266.203767 644.974064 
L 240.399258 667.807503 
" style="fill:#1f77b4;stroke:#000000;stroke-linejoin:miter;"/>
   </g>
   <g id="patch_104">
    <path clip-path="url(#p73363f6414)" d="M 213.324896 599.663641 
L 233.299623 615.228808 
" style="fill:#1f77b4;stroke:#000000;stroke-linejoin:miter;"/>
   </g>
   <g id="patch_105">
    <path clip-path="url(#p73363f6414)" d="M 336.874167 677.750878 
L 312.512673 670.370579 
" style="fill:#1f77b4;stroke:#000000;stroke-linejoin:miter;"/>
   </g>
   <g id="patch_106">
    <path clip-path="url(#p73363f6414)" d="M 265.134238 684.191157 
L 270.295139 710.524298 
" style="fill:#1f77b4;stroke:#000000;stroke-linejoin:miter;"/>
   </g>
   <g id="patch_107">
    <path clip-path="url(#p73363f6414)" d="M 265.134238 684.191157 
L 256.948097 658.071211 
" style="fill:#1f77b4;stroke:#000000;stroke-linejoin:miter;"/>
   </g>
   <g id="patch_108">
    <path clip-path="url(#p73363f6414)" d="M 265.134238 684.191157 
L 286.188679 667.00633 
" style="fill:#1f77b4;stroke:#000000;stroke-linejoin:miter;"/>
   </g>
   <g id="patch_109">
    <path clip-path="url(#p73363f6414)" d="M 265.134238 684.191157 
L 240.399258 667.807503 
" style="fill:#1f77b4;stroke:#000000;stroke-linejoin:miter;"/>
   </g>
   <g id="patch_110">
    <path clip-path="url(#p73363f6414)" d="M 233.299623 615.228808 
L 243.920215 641.229597 
" style="fill:#1f77b4;stroke:#000000;stroke-linejoin:miter;"/>
   </g>
   <g id="patch_111">
    <path clip-path="url(#p73363f6414)" d="M 233.299623 615.228808 
L 251.821148 589.204255 
" style="fill:#1f77b4;stroke:#000000;stroke-linejoin:miter;"/>
   </g>
   <g id="patch_112">
    <path clip-path="url(#p73363f6414)" d="M 233.299623 615.228808 
L 201.454822 619.159989 
" style="fill:#1f77b4;stroke:#000000;stroke-linejoin:miter;"/>
   </g>
   <g id="patch_113">
    <path clip-path="url(#p73363f6414)" d="M 243.920215 641.229597 
L 256.948097 658.071211 
" style="fill:#1f77b4;stroke:#000000;stroke-linejoin:miter;"/>
   </g>
   <g id="patch_114">
    <path clip-path="url(#p73363f6414)" d="M 243.920215 641.229597 
L 240.399258 667.807503 
" style="fill:#1f77b4;stroke:#000000;stroke-linejoin:miter;"/>
   </g>
   <g id="patch_115">
    <path clip-path="url(#p73363f6414)" d="M 251.821148 589.204255 
L 260.608263 563.525972 
" style="fill:#1f77b4;stroke:#000000;stroke-linejoin:miter;"/>
   </g>
   <g id="patch_116">
    <path clip-path="url(#p73363f6414)" d="M 256.948097 658.071211 
L 286.188679 667.00633 
" style="fill:#1f77b4;stroke:#000000;stroke-linejoin:miter;"/>
   </g>
   <g id="patch_117">
    <path clip-path="url(#p73363f6414)" d="M 256.948097 658.071211 
L 240.399258 667.807503 
" style="fill:#1f77b4;stroke:#000000;stroke-linejoin:miter;"/>
   </g>
   <g id="patch_118">
    <path clip-path="url(#p73363f6414)" d="M 286.188679 667.00633 
L 312.512673 670.370579 
" style="fill:#1f77b4;stroke:#000000;stroke-linejoin:miter;"/>
   </g>
   <g id="patch_119">
    <path clip-path="url(#p73363f6414)" d="M 201.454822 619.159989 
L 174.53325 614.767115 
" style="fill:#1f77b4;stroke:#000000;stroke-linejoin:miter;"/>
   </g>
   <g id="patch_120">
    <path clip-path="url(#p73363f6414)" d="M 240.426421 657.368869 
C 241.819519 657.368869 243.155747 656.867694 244.140816 655.975722 
C 245.125885 655.08375 245.679369 653.873807 245.679369 652.612369 
C 245.679369 651.35093 245.125885 650.140987 244.140816 649.249015 
C 243.155747 648.357044 241.819519 647.855869 240.426421 647.855869 
C 239.033322 647.855869 237.697094 648.357044 236.712025 649.249015 
C 235.726956 650.140987 235.173472 651.35093 235.173472 652.612369 
C 235.173472 653.873807 235.726956 655.08375 236.712025 655.975722 
C 237.697094 656.867694 239.033322 657.368869 240.426421 657.368869 
z
" style="fill:#ff0000;"/>
   </g>
   <g id="patch_121">
    <path clip-path="url(#p73363f6414)" d="M 264.509497 668.130391 
C 265.902595 668.130391 267.238823 667.629217 268.223892 666.737245 
C 269.208961 665.845273 269.762445 664.63533 269.762445 663.373891 
C 269.762445 662.112453 269.208961 660.90251 268.223892 660.010538 
C 267.238823 659.118566 265.902595 658.617391 264.509497 658.617391 
C 263.116399 658.617391 261.780171 659.118566 260.795102 660.010538 
C 259.810032 660.90251 259.256549 662.112453 259.256549 663.373891 
C 259.256549 664.63533 259.810032 665.845273 260.795102 666.737245 
C 261.780171 667.629217 263.116399 668.130391 264.509497 668.130391 
z
" style="fill:#ff0000;"/>
   </g>
   <g id="patch_122">
    <path clip-path="url(#p73363f6414)" d="M 255.837824 635.754164 
C 257.230922 635.754164 258.56715 635.252989 259.552219 634.361017 
C 260.537288 633.469046 261.090772 632.259102 261.090772 630.997664 
C 261.090772 629.736225 260.537288 628.526282 259.552219 627.63431 
C 258.56715 626.742339 257.230922 626.241164 255.837824 626.241164 
C 254.444726 626.241164 253.108498 626.742339 252.123429 627.63431 
C 251.138359 628.526282 250.584876 629.736225 250.584876 630.997664 
C 250.584876 632.259102 251.138359 633.469046 252.123429 634.361017 
C 253.108498 635.252989 254.444726 635.754164 255.837824 635.754164 
z
" style="fill:#ff0000;"/>
   </g>
   <g id="patch_123">
    <path clip-path="url(#p73363f6414)" d="M 228.64123 595.121778 
C 230.034328 595.121778 231.370556 594.620603 232.355625 593.728631 
C 233.340694 592.836659 233.894178 591.626716 233.894178 590.365278 
C 233.894178 589.103839 233.340694 587.893896 232.355625 587.001924 
C 231.370556 586.109952 230.034328 585.608778 228.64123 585.608778 
C 227.248132 585.608778 225.911904 586.109952 224.926835 587.001924 
C 223.941766 587.893896 223.388282 589.103839 223.388282 590.365278 
C 223.388282 591.626716 223.941766 592.836659 224.926835 593.728631 
C 225.911904 594.620603 227.248132 595.121778 228.64123 595.121778 
z
" style="fill:#ff0000;"/>
   </g>
   <g id="patch_124">
    <path clip-path="url(#p73363f6414)" d="M 268.96417 659.551727 
C 270.357268 659.551727 271.693496 659.050552 272.678565 658.15858 
C 273.663634 657.266608 274.217118 656.056665 274.217118 654.795227 
C 274.217118 653.533788 273.663634 652.323845 272.678565 651.431873 
C 271.693496 650.539901 270.357268 650.038727 268.96417 650.038727 
C 267.571072 650.038727 266.234844 650.539901 265.249775 651.431873 
C 264.264706 652.323845 263.711222 653.533788 263.711222 654.795227 
C 263.711222 656.056665 264.264706 657.266608 265.249775 658.15858 
C 266.234844 659.050552 267.571072 659.551727 268.96417 659.551727 
z
" style="fill:#ff0000;"/>
   </g>
   <g id="patch_125">
    <path clip-path="url(#p73363f6414)" d="M 249.05735 676.12515 
C 250.450448 676.12515 251.786676 675.623976 252.771745 674.732004 
C 253.756814 673.840032 254.310298 672.630089 254.310298 671.36865 
C 254.310298 670.107212 253.756814 668.897269 252.771745 668.005297 
C 251.786676 667.113325 250.450448 666.61215 249.05735 666.61215 
C 247.664252 666.61215 246.328024 667.113325 245.342954 668.005297 
C 244.357885 668.897269 243.804402 670.107212 243.804402 671.36865 
C 243.804402 672.630089 244.357885 673.840032 245.342954 674.732004 
C 246.328024 675.623976 247.664252 676.12515 249.05735 676.12515 
z
" style="fill:#ff0000;"/>
   </g>
   <g id="patch_126">
    <path clip-path="url(#p73363f6414)" d="M 239.465542 698.260957 
C 240.85864 698.260957 242.194868 697.759783 243.179937 696.867811 
C 244.165006 695.975839 244.71849 694.765896 244.71849 693.504457 
C 244.71849 692.243019 244.165006 691.033076 243.179937 690.141104 
C 242.194868 689.249132 240.85864 688.747957 239.465542 688.747957 
C 238.072444 688.747957 236.736216 689.249132 235.751147 690.141104 
C 234.766078 691.033076 234.212594 692.243019 234.212594 693.504457 
C 234.212594 694.765896 234.766078 695.975839 235.751147 696.867811 
C 236.736216 697.759783 238.072444 698.260957 239.465542 698.260957 
z
" style="fill:#ff0000;"/>
   </g>
   <g id="patch_127">
    <path clip-path="url(#p73363f6414)" d="M 266.203767 649.730564 
C 267.596865 649.730564 268.933093 649.229389 269.918162 648.337418 
C 270.903231 647.445446 271.456715 646.235503 271.456715 644.974064 
C 271.456715 643.712626 270.903231 642.502682 269.918162 641.610711 
C 268.933093 640.718739 267.596865 640.217564 266.203767 640.217564 
C 264.810668 640.217564 263.47444 640.718739 262.489371 641.610711 
C 261.504302 642.502682 260.950818 643.712626 260.950818 644.974064 
C 260.950818 646.235503 261.504302 647.445446 262.489371 648.337418 
C 263.47444 649.229389 264.810668 649.730564 266.203767 649.730564 
z
" style="fill:#ff0000;"/>
   </g>
   <g id="patch_128">
    <path clip-path="url(#p73363f6414)" d="M 213.324896 604.420141 
C 214.717994 604.420141 216.054222 603.918966 217.039291 603.026994 
C 218.02436 602.135022 218.577844 600.925079 218.577844 599.663641 
C 218.577844 598.402202 218.02436 597.192259 217.039291 596.300287 
C 216.054222 595.408315 214.717994 594.907141 213.324896 594.907141 
C 211.931798 594.907141 210.59557 595.408315 209.610501 596.300287 
C 208.625432 597.192259 208.071948 598.402202 208.071948 599.663641 
C 208.071948 600.925079 208.625432 602.135022 209.610501 603.026994 
C 210.59557 603.918966 211.931798 604.420141 213.324896 604.420141 
z
" style="fill:#ff0000;"/>
   </g>
   <g id="patch_129">
    <path clip-path="url(#p73363f6414)" d="M 336.874167 682.507378 
C 338.267265 682.507378 339.603493 682.006203 340.588562 681.114232 
C 341.573631 680.22226 342.127115 679.012317 342.127115 677.750878 
C 342.127115 676.48944 341.573631 675.279497 340.588562 674.387525 
C 339.603493 673.495553 338.267265 672.994378 336.874167 672.994378 
C 335.481069 672.994378 334.144841 673.495553 333.159772 674.387525 
C 332.174702 675.279497 331.621219 676.48944 331.621219 677.750878 
C 331.621219 679.012317 332.174702 680.22226 333.159772 681.114232 
C 334.144841 682.006203 335.481069 682.507378 336.874167 682.507378 
z
" style="fill:#ff0000;"/>
   </g>
   <g id="patch_130">
    <path clip-path="url(#p73363f6414)" d="M 265.134238 688.947657 
C 266.527336 688.947657 267.863564 688.446483 268.848633 687.554511 
C 269.833702 686.662539 270.387186 685.452596 270.387186 684.191157 
C 270.387186 682.929719 269.833702 681.719776 268.848633 680.827804 
C 267.863564 679.935832 266.527336 679.434657 265.134238 679.434657 
C 263.741139 679.434657 262.404911 679.935832 261.419842 680.827804 
C 260.434773 681.719776 259.881289 682.929719 259.881289 684.191157 
C 259.881289 685.452596 260.434773 686.662539 261.419842 687.554511 
C 262.404911 688.446483 263.741139 688.947657 265.134238 688.947657 
z
" style="fill:#ff0000;"/>
   </g>
   <g id="patch_131">
    <path clip-path="url(#p73363f6414)" d="M 233.299623 619.985308 
C 234.692721 619.985308 236.028949 619.484133 237.014018 618.592162 
C 237.999087 617.70019 238.552571 616.490247 238.552571 615.228808 
C 238.552571 613.96737 237.999087 612.757427 237.014018 611.865455 
C 236.028949 610.973483 234.692721 610.472308 233.299623 610.472308 
C 231.906525 610.472308 230.570297 610.973483 229.585228 611.865455 
C 228.600158 612.757427 228.046675 613.96737 228.046675 615.228808 
C 228.046675 616.490247 228.600158 617.70019 229.585228 618.592162 
C 230.570297 619.484133 231.906525 619.985308 233.299623 619.985308 
z
" style="fill:#ff0000;"/>
   </g>
   <g id="patch_132">
    <path clip-path="url(#p73363f6414)" d="M 243.920215 645.986097 
C 245.313313 645.986097 246.649541 645.484923 247.63461 644.592951 
C 248.61968 643.700979 249.173163 642.491036 249.173163 641.229597 
C 249.173163 639.968159 248.61968 638.758216 247.63461 637.866244 
C 246.649541 636.974272 245.313313 636.473097 243.920215 636.473097 
C 242.527117 636.473097 241.190889 636.974272 240.20582 637.866244 
C 239.220751 638.758216 238.667267 639.968159 238.667267 641.229597 
C 238.667267 642.491036 239.220751 643.700979 240.20582 644.592951 
C 241.190889 645.484923 242.527117 645.986097 243.920215 645.986097 
z
" style="fill:#ff0000;"/>
   </g>
   <g id="patch_133">
    <path clip-path="url(#p73363f6414)" d="M 270.295139 715.280798 
C 271.688237 715.280798 273.024465 714.779623 274.009534 713.887651 
C 274.994604 712.995679 275.548087 711.785736 275.548087 710.524298 
C 275.548087 709.262859 274.994604 708.052916 274.009534 707.160944 
C 273.024465 706.268973 271.688237 705.767798 270.295139 705.767798 
C 268.902041 705.767798 267.565813 706.268973 266.580744 707.160944 
C 265.595675 708.052916 265.042191 709.262859 265.042191 710.524298 
C 265.042191 711.785736 265.595675 712.995679 266.580744 713.887651 
C 267.565813 714.779623 268.902041 715.280798 270.295139 715.280798 
z
" style="fill:#ff0000;"/>
   </g>
   <g id="patch_134">
    <path clip-path="url(#p73363f6414)" d="M 251.821148 593.960755 
C 253.214246 593.960755 254.550474 593.45958 255.535544 592.567609 
C 256.520613 591.675637 257.074096 590.465694 257.074096 589.204255 
C 257.074096 587.942817 256.520613 586.732874 255.535544 585.840902 
C 254.550474 584.94893 253.214246 584.447755 251.821148 584.447755 
C 250.42805 584.447755 249.091822 584.94893 248.106753 585.840902 
C 247.121684 586.732874 246.5682 587.942817 246.5682 589.204255 
C 246.5682 590.465694 247.121684 591.675637 248.106753 592.567609 
C 249.091822 593.45958 250.42805 593.960755 251.821148 593.960755 
z
" style="fill:#ff0000;"/>
   </g>
   <g id="patch_135">
    <path clip-path="url(#p73363f6414)" d="M 256.948097 662.827711 
C 258.341195 662.827711 259.677423 662.326536 260.662492 661.434564 
C 261.647561 660.542592 262.201045 659.332649 262.201045 658.071211 
C 262.201045 656.809772 261.647561 655.599829 260.662492 654.707857 
C 259.677423 653.815885 258.341195 653.314711 256.948097 653.314711 
C 255.554999 653.314711 254.218771 653.815885 253.233702 654.707857 
C 252.248632 655.599829 251.695149 656.809772 251.695149 658.071211 
C 251.695149 659.332649 252.248632 660.542592 253.233702 661.434564 
C 254.218771 662.326536 255.554999 662.827711 256.948097 662.827711 
z
" style="fill:#ff0000;"/>
   </g>
   <g id="patch_136">
    <path clip-path="url(#p73363f6414)" d="M 286.188679 671.76283 
C 287.581777 671.76283 288.918005 671.261655 289.903075 670.369683 
C 290.888144 669.477711 291.441627 668.267768 291.441627 667.00633 
C 291.441627 665.744891 290.888144 664.534948 289.903075 663.642976 
C 288.918005 662.751005 287.581777 662.24983 286.188679 662.24983 
C 284.795581 662.24983 283.459353 662.751005 282.474284 663.642976 
C 281.489215 664.534948 280.935731 665.744891 280.935731 667.00633 
C 280.935731 668.267768 281.489215 669.477711 282.474284 670.369683 
C 283.459353 671.261655 284.795581 671.76283 286.188679 671.76283 
z
" style="fill:#ff0000;"/>
   </g>
   <g id="patch_137">
    <path clip-path="url(#p73363f6414)" d="M 260.608263 568.282472 
C 262.001361 568.282472 263.337589 567.781297 264.322658 566.889326 
C 265.307727 565.997354 265.861211 564.787411 265.861211 563.525972 
C 265.861211 562.264534 265.307727 561.054591 264.322658 560.162619 
C 263.337589 559.270647 262.001361 558.769472 260.608263 558.769472 
C 259.215164 558.769472 257.878936 559.270647 256.893867 560.162619 
C 255.908798 561.054591 255.355314 562.264534 255.355314 563.525972 
C 255.355314 564.787411 255.908798 565.997354 256.893867 566.889326 
C 257.878936 567.781297 259.215164 568.282472 260.608263 568.282472 
z
" style="fill:#ff0000;"/>
   </g>
   <g id="patch_138">
    <path clip-path="url(#p73363f6414)" d="M 201.454822 623.916489 
C 202.84792 623.916489 204.184148 623.415314 205.169217 622.523342 
C 206.154286 621.631371 206.70777 620.421428 206.70777 619.159989 
C 206.70777 617.89855 206.154286 616.688607 205.169217 615.796636 
C 204.184148 614.904664 202.84792 614.403489 201.454822 614.403489 
C 200.061724 614.403489 198.725496 614.904664 197.740427 615.796636 
C 196.755358 616.688607 196.201874 617.89855 196.201874 619.159989 
C 196.201874 620.421428 196.755358 621.631371 197.740427 622.523342 
C 198.725496 623.415314 200.061724 623.916489 201.454822 623.916489 
z
" style="fill:#ff0000;"/>
   </g>
   <g id="patch_139">
    <path clip-path="url(#p73363f6414)" d="M 174.53325 619.523615 
C 175.926348 619.523615 177.262576 619.02244 178.247645 618.130468 
C 179.232714 617.238497 179.786198 616.028554 179.786198 614.767115 
C 179.786198 613.505677 179.232714 612.295733 178.247645 611.403762 
C 177.262576 610.51179 175.926348 610.010615 174.53325 610.010615 
C 173.140152 610.010615 171.803924 610.51179 170.818855 611.403762 
C 169.833785 612.295733 169.280302 613.505677 169.280302 614.767115 
C 169.280302 616.028554 169.833785 617.238497 170.818855 618.130468 
C 171.803924 619.02244 173.140152 619.523615 174.53325 619.523615 
z
" style="fill:#ff0000;"/>
   </g>
   <g id="patch_140">
    <path clip-path="url(#p73363f6414)" d="M 240.399258 672.564003 
C 241.792356 672.564003 243.128584 672.062828 244.113653 671.170856 
C 245.098722 670.278885 245.652206 669.068942 245.652206 667.807503 
C 245.652206 666.546064 245.098722 665.336121 244.113653 664.44415 
C 243.128584 663.552178 241.792356 663.051003 240.399258 663.051003 
C 239.00616 663.051003 237.669932 663.552178 236.684863 664.44415 
C 235.699794 665.336121 235.14631 666.546064 235.14631 667.807503 
C 235.14631 669.068942 235.699794 670.278885 236.684863 671.170856 
C 237.669932 672.062828 239.00616 672.564003 240.399258 672.564003 
z
" style="fill:#ff0000;"/>
   </g>
   <g id="patch_141">
    <path clip-path="url(#p73363f6414)" d="M 312.512673 675.127079 
C 313.905772 675.127079 315.242 674.625904 316.227069 673.733932 
C 317.212138 672.84196 317.765622 671.632017 317.765622 670.370579 
C 317.765622 669.10914 317.212138 667.899197 316.227069 667.007225 
C 315.242 666.115253 313.905772 665.614079 312.512673 665.614079 
C 311.119575 665.614079 309.783347 666.115253 308.798278 667.007225 
C 307.813209 667.899197 307.259725 669.10914 307.259725 670.370579 
C 307.259725 671.632017 307.813209 672.84196 308.798278 673.733932 
C 309.783347 674.625904 311.119575 675.127079 312.512673 675.127079 
z
" style="fill:#ff0000;"/>
   </g>
   <g id="text_1">
    <text style="font-family:DejaVu Sans;font-size:12px;font-style:normal;font-weight:normal;text-anchor:start;" transform="rotate(-0, 180.536619, 111.29941)" x="180.536619" y="111.29941">KEGG_AMYOTROPHIC_LATERAL_SCLEROSIS_ALS</text>
   </g>
   <g id="text_2">
    <text style="font-family:DejaVu Sans;font-size:12px;font-style:normal;font-weight:normal;text-anchor:start;" transform="rotate(-0, 180.536619, 124.88941)" x="180.536619" y="124.88941">REACTOME_CITRIC_ACID_CYCLE_TCA_CYCLE</text>
   </g>
   <g id="text_3">
    <text style="font-family:DejaVu Sans;font-size:12px;font-style:normal;font-weight:normal;text-anchor:start;" transform="rotate(-0, 180.536619, 138.47941)" x="180.536619" y="138.47941">KEGG_NEUROTROPHIN_SIGNALING_PATHWAY</text>
   </g>
   <g id="text_4">
    <text style="font-family:DejaVu Sans;font-size:12px;font-style:normal;font-weight:normal;text-anchor:start;" transform="rotate(-0, 180.536619, 152.06941)" x="180.536619" y="152.06941">ST_ADRENERGIC</text>
   </g>
   <g id="text_5">
    <text style="font-family:DejaVu Sans;font-size:12px;font-style:normal;font-weight:normal;text-anchor:start;" transform="rotate(-0, 180.536619, 165.65941)" x="180.536619" y="165.65941">PID_ERBB1_INTERNALIZATION_PATHWAY</text>
   </g>
   <g id="text_6">
    <text style="font-family:DejaVu Sans;font-size:12px;font-style:normal;font-weight:normal;text-anchor:start;" transform="rotate(-0, 180.536619, 179.24941)" x="180.536619" y="179.24941">REACTOME_AMINE_LIGAND_BINDING_RECEPTORS</text>
   </g>
   <g id="text_7">
    <text style="font-family:DejaVu Sans;font-size:12px;font-style:normal;font-weight:normal;text-anchor:start;" transform="rotate(-0, 180.536619, 192.83941)" x="180.536619" y="192.83941">ST_GAQ_PATHWAY</text>
   </g>
   <g id="text_8">
    <text style="font-family:DejaVu Sans;font-size:12px;font-style:normal;font-weight:normal;text-anchor:start;" transform="rotate(-0, 180.536619, 206.42941)" x="180.536619" y="206.42941">REACTOME_TRAFFICKING_OF_AMPA_RECEPTORS</text>
   </g>
   <g id="text_9">
    <text style="font-family:DejaVu Sans;font-size:12px;font-style:normal;font-weight:normal;text-anchor:start;" transform="rotate(-0, 180.536619, 220.01941)" x="180.536619" y="220.01941">REACTOME_AMYLOIDS</text>
   </g>
   <g id="text_10">
    <text style="font-family:DejaVu Sans;font-size:12px;font-style:normal;font-weight:normal;text-anchor:start;" transform="rotate(-0, 180.536619, 233.60941)" x="180.536619" y="233.60941">REACTOME_RAS_ACTIVATION_UOPN_CA2_INFUX_THROUGH_NMDA_RECEPTOR</text>
   </g>
   <g id="text_11">
    <text style="font-family:DejaVu Sans;font-size:12px;font-style:normal;font-weight:normal;text-anchor:start;" transform="rotate(-0, 180.536619, 247.19941)" x="180.536619" y="247.19941">KEGG_NEUROACTIVE_LIGAND_RECEPTOR_INTERACTION</text>
   </g>
   <g id="text_12">
    <text style="font-family:DejaVu Sans;font-size:12px;font-style:normal;font-weight:normal;text-anchor:start;" transform="rotate(-0, 180.536619, 260.78941)" x="180.536619" y="260.78941">KEGG_PRION_DISEASES</text>
   </g>
   <g id="text_13">
    <text style="font-family:DejaVu Sans;font-size:12px;font-style:normal;font-weight:normal;text-anchor:start;" transform="rotate(-0, 180.536619, 274.37941)" x="180.536619" y="274.37941">PID_TXA2PATHWAY</text>
   </g>
   <g id="text_14">
    <text style="font-family:DejaVu Sans;font-size:12px;font-style:normal;font-weight:normal;text-anchor:start;" transform="rotate(-0, 180.536619, 287.96941)" x="180.536619" y="287.96941">REACTOME_NEUROTRANSMITTER_RELEASE_CYCLE</text>
   </g>
   <g id="text_15">
    <text style="font-family:DejaVu Sans;font-size:12px;font-style:normal;font-weight:normal;text-anchor:start;" transform="rotate(-0, 180.536619, 301.55941)" x="180.536619" y="301.55941">REACTOME_GABA_SYNTHESIS_RELEASE_REUPTAKE_AND_DEGRADATION</text>
   </g>
   <g id="text_16">
    <text style="font-family:DejaVu Sans;font-size:12px;font-style:normal;font-weight:normal;text-anchor:start;" transform="rotate(-0, 180.536619, 315.14941)" x="180.536619" y="315.14941">REACTOME_OLFACTORY_SIGNALING_PATHWAY</text>
   </g>
   <g id="text_17">
    <text style="font-family:DejaVu Sans;font-size:12px;font-style:normal;font-weight:normal;text-anchor:start;" transform="rotate(-0, 180.536619, 328.73941)" x="180.536619" y="328.73941">KEGG_OLFACTORY_TRANSDUCTION</text>
   </g>
   <g id="text_18">
    <text style="font-family:DejaVu Sans;font-size:12px;font-style:normal;font-weight:normal;text-anchor:start;" transform="rotate(-0, 180.536619, 342.32941)" x="180.536619" y="342.32941">KEGG_ERBB_SIGNALING_PATHWAY</text>
   </g>
   <g id="text_19">
    <text style="font-family:DejaVu Sans;font-size:12px;font-style:normal;font-weight:normal;text-anchor:start;" transform="rotate(-0, 180.536619, 355.91941)" x="180.536619" y="355.91941">PID_ERBB1_DOWNSTREAM_PATHWAY</text>
   </g>
   <g id="text_20">
    <text style="font-family:DejaVu Sans;font-size:12px;font-style:normal;font-weight:normal;text-anchor:start;" transform="rotate(-0, 180.536619, 369.50941)" x="180.536619" y="369.50941">PID_PDGFRB_PATHWAY</text>
   </g>
   <g id="text_21">
    <text style="font-family:DejaVu Sans;font-size:12px;font-style:normal;font-weight:normal;text-anchor:start;" transform="rotate(-0, 180.536619, 383.09941)" x="180.536619" y="383.09941">REACTOME_AXON_GUIDANCE</text>
   </g>
   <g id="text_22">
    <text style="font-family:DejaVu Sans;font-size:12px;font-style:normal;font-weight:normal;text-anchor:start;" transform="rotate(-0, 180.536619, 396.68941)" x="180.536619" y="396.68941">REACTOME_L1CAM_INTERACTIONS</text>
   </g>
   <g id="text_23">
    <text style="font-family:DejaVu Sans;font-size:12px;font-style:normal;font-weight:normal;text-anchor:start;" transform="rotate(-0, 180.536619, 410.27941)" x="180.536619" y="410.27941">REACTOME_SIGNAL_TRANSDUCTION_BY_L1</text>
   </g>
   <g id="text_24">
    <text style="font-family:DejaVu Sans;font-size:12px;font-style:normal;font-weight:normal;text-anchor:start;" transform="rotate(-0, 180.536619, 424.024238)" x="180.536619" y="424.024238">REACTOME_SEMAPHORIN_INTERACTIONS</text>
   </g>
   <g id="text_25">
    <text style="font-family:DejaVu Sans;font-size:12px;font-style:normal;font-weight:normal;text-anchor:start;" transform="rotate(-0, 203.049254, 423.86941)" x="203.049254" y="423.86941">REACTOME_SEMA4D_INDUCED_CELL_MIGRATION_AND_GROWTH_CONE_COLLAPSE</text>
   </g>
   <g id="text_26">
    <text style="font-family:DejaVu Sans;font-size:12px;font-style:normal;font-weight:normal;text-anchor:start;" transform="rotate(-0, 191.944143, 444.25441)" x="191.944143" y="444.25441">REACTOME_SEMA4D_IN_SEMAPHORIN_SIGNALING</text>
   </g>
   <g id="text_27">
    <text style="font-family:DejaVu Sans;font-size:12px;font-style:normal;font-weight:normal;text-anchor:start;" transform="rotate(-0, 195.53509, 488.082475)" x="195.53509" y="488.082475">REACTOME_POTASSIUM_CHANNELS</text>
   </g>
   <g id="text_28">
    <text style="font-family:DejaVu Sans;font-size:12px;font-style:normal;font-weight:normal;text-anchor:start;" transform="rotate(-0, 223.552993, 457.84441)" x="223.552993" y="457.84441">REACTOME_TRANSMISSION_ACROSS_CHEMICAL_SYNAPSES</text>
   </g>
   <g id="text_29">
    <text style="font-family:DejaVu Sans;font-size:12px;font-style:normal;font-weight:normal;text-anchor:start;" transform="rotate(-0, 225.561888, 498.61441)" x="225.561888" y="498.61441">REACTOME_NEUROTRANSMITTER_RECEPTOR_BINDING...</text>
   </g>
   <g id="text_30">
    <text style="font-family:DejaVu Sans;font-size:12px;font-style:normal;font-weight:normal;text-anchor:start;" transform="rotate(-0, 211.090166, 483.019939)" x="211.090166" y="483.019939">REACTOME_NEURONAL_SYSTEM</text>
   </g>
   <g id="text_31">
    <text style="font-family:DejaVu Sans;font-size:12px;font-style:normal;font-weight:normal;text-anchor:start;" transform="rotate(-0, 180.536619, 497.863235)" x="180.536619" y="497.863235">REACTOME_VOLTAGE_GATED_POTASSIUM_CHANNELS</text>
   </g>
   <g id="text_32">
    <text style="font-family:DejaVu Sans;font-size:12px;font-style:normal;font-weight:normal;text-anchor:start;" transform="rotate(-0, 180.536619, 535.965613)" x="180.536619" y="535.965613">KEGG_PARKINSONS_DISEASE</text>
   </g>
   <g id="text_33">
    <text style="font-family:DejaVu Sans;font-size:12px;font-style:normal;font-weight:normal;text-anchor:start;" transform="rotate(-0, 225.561888, 539.790525)" x="225.561888" y="539.790525">REACTOME_RESPITORY_ELECTRON_TRANSPORT_ATP_SYNTHESIS...</text>
   </g>
   <g id="text_34">
    <text style="font-family:DejaVu Sans;font-size:12px;font-style:normal;font-weight:normal;text-anchor:start;" transform="rotate(-0, 201.506265, 552.97441)" x="201.506265" y="552.97441">KEGG_HUNTINGTONS_DISEASE</text>
   </g>
   <g id="text_35">
    <text style="font-family:DejaVu Sans;font-size:12px;font-style:normal;font-weight:normal;text-anchor:start;" transform="rotate(-0, 191.551844, 512.20441)" x="191.551844" y="512.20441">REACTOME_RESPIRATORY_ELECTRON_TRANSPORT</text>
   </g>
   <g id="text_36">
    <text style="font-family:DejaVu Sans;font-size:12px;font-style:normal;font-weight:normal;text-anchor:start;" transform="rotate(-0, 219.288139, 514.691122)" x="219.288139" y="514.691122">KEGG_ALZHEIMERS_DISEASE</text>
   </g>
   <g id="text_37">
    <text style="font-family:DejaVu Sans;font-size:12px;font-style:normal;font-weight:normal;text-anchor:start;" transform="rotate(-0, 246.42979, 655.650806)" x="246.42979" y="655.650806">REACTOME_ADP_SIGNALLING_THROUGH_P2RY1</text>
   </g>
   <g id="text_38">
    <text style="font-family:DejaVu Sans;font-size:12px;font-style:normal;font-weight:normal;text-anchor:start;" transform="rotate(-0, 270.512866, 666.412329)" x="270.512866" y="666.412329">REACTOME_ADP_SIGNALLING_THROUGH_P2RY12</text>
   </g>
   <g id="text_39">
    <text style="font-family:DejaVu Sans;font-size:12px;font-style:normal;font-weight:normal;text-anchor:start;" transform="rotate(-0, 261.841193, 634.036101)" x="261.841193" y="634.036101">REACTOME_THROMBIN_SIGNALLING_THROUGH_PROTEINASE_ACTIVATED_RECEPTORS...</text>
   </g>
   <g id="text_40">
    <text style="font-family:DejaVu Sans;font-size:12px;font-style:normal;font-weight:normal;text-anchor:start;" transform="rotate(-0, 234.644599, 593.403715)" x="234.644599" y="593.403715">PID_IL8_CXCR2_PATHWAY</text>
   </g>
   <g id="text_41">
    <text style="font-family:DejaVu Sans;font-size:12px;font-style:normal;font-weight:normal;text-anchor:start;" transform="rotate(-0, 274.967539, 657.833664)" x="274.967539" y="657.833664">REACTOME_G_PROTEIN_ACTIVATION</text>
   </g>
   <g id="text_42">
    <text style="font-family:DejaVu Sans;font-size:12px;font-style:normal;font-weight:normal;text-anchor:start;" transform="rotate(-0, 255.060719, 674.407088)" x="255.060719" y="674.407088">REACTOME_REGULATION_OF_INSULIN_SECRETION</text>
   </g>
   <g id="text_43">
    <text style="font-family:DejaVu Sans;font-size:12px;font-style:normal;font-weight:normal;text-anchor:start;" transform="rotate(-0, 245.468911, 696.542895)" x="245.468911" y="696.542895">REACTOME_INTEGRATION_OF_ENERGY_METABOLISM</text>
   </g>
   <g id="text_44">
    <text style="font-family:DejaVu Sans;font-size:12px;font-style:normal;font-weight:normal;text-anchor:start;" transform="rotate(-0, 272.207136, 648.012502)" x="272.207136" y="648.012502">REACTOME_SIGNAL_AMPLIFICATION</text>
   </g>
   <g id="text_45">
    <text style="font-family:DejaVu Sans;font-size:12px;font-style:normal;font-weight:normal;text-anchor:start;" transform="rotate(-0, 219.328265, 602.702078)" x="219.328265" y="602.702078">PID_IL8_CXCR1_PATHWAY</text>
   </g>
   <g id="text_46">
    <text style="font-family:DejaVu Sans;font-size:12px;font-style:normal;font-weight:normal;text-anchor:start;" transform="rotate(-0, 342.877536, 680.789316)" x="342.877536" y="680.789316">REACTOME_ION_CHANNEL_TRANSPORT</text>
   </g>
   <g id="text_47">
    <text style="font-family:DejaVu Sans;font-size:12px;font-style:normal;font-weight:normal;text-anchor:start;" transform="rotate(-0, 271.137607, 687.229595)" x="271.137607" y="687.229595">REACTOME_OPIOID_SIGNALLING</text>
   </g>
   <g id="text_48">
    <text style="font-family:DejaVu Sans;font-size:12px;font-style:normal;font-weight:normal;text-anchor:start;" transform="rotate(-0, 239.302992, 618.267246)" x="239.302992" y="618.267246">PID_THROMBIN_PAR1_PATHWAY</text>
   </g>
   <g id="text_49">
    <text style="font-family:DejaVu Sans;font-size:12px;font-style:normal;font-weight:normal;text-anchor:start;" transform="rotate(-0, 249.923584, 644.268035)" x="249.923584" y="644.268035">REACTOME_THROMBOXANE_SIGNALLING_THROUGH_TP_RECEPTOR</text>
   </g>
   <g id="text_50">
    <text style="font-family:DejaVu Sans;font-size:12px;font-style:normal;font-weight:normal;text-anchor:start;" transform="rotate(-0, 276.298509, 713.562735)" x="276.298509" y="713.562735">REACTOME_DARPP_32_EVENTS</text>
   </g>
   <g id="text_51">
    <text style="font-family:DejaVu Sans;font-size:12px;font-style:normal;font-weight:normal;text-anchor:start;" transform="rotate(-0, 257.824518, 592.242693)" x="257.824518" y="592.242693">PID_S1P_S1P2_PATHWAY</text>
   </g>
   <g id="text_52">
    <text style="font-family:DejaVu Sans;font-size:12px;font-style:normal;font-weight:normal;text-anchor:start;" transform="rotate(-0, 262.951466, 661.109648)" x="262.951466" y="661.109648">REACTOME_PROSTACYCLIN_SIGNALLING_THROUGH_PROSTACYCLIN_RECEPTOR</text>
   </g>
   <g id="text_53">
    <text style="font-family:DejaVu Sans;font-size:12px;font-style:normal;font-weight:normal;text-anchor:start;" transform="rotate(-0, 292.192049, 670.044767)" x="292.192049" y="670.044767">REACTOME_GABA_RECEPTOR_ACTIVATION</text>
   </g>
   <g id="text_54">
    <text style="font-family:DejaVu Sans;font-size:12px;font-style:normal;font-weight:normal;text-anchor:start;" transform="rotate(-0, 266.611632, 566.56441)" x="266.611632" y="566.56441">PID_S1P_META_PATHWAY</text>
   </g>
   <g id="text_55">
    <text style="font-family:DejaVu Sans;font-size:12px;font-style:normal;font-weight:normal;text-anchor:start;" transform="rotate(-0, 207.458191, 622.198426)" x="207.458191" y="622.198426">PID_LYSOPHOSPHOLIPID_PATHWAY</text>
   </g>
   <g id="text_56">
    <text style="font-family:DejaVu Sans;font-size:12px;font-style:normal;font-weight:normal;text-anchor:start;" transform="rotate(-0, 180.536619, 617.805553)" x="180.536619" y="617.805553">PID_ER_NONGENOMIC_PATHWAY</text>
   </g>
   <g id="text_57">
    <text style="font-family:DejaVu Sans;font-size:12px;font-style:normal;font-weight:normal;text-anchor:start;" transform="rotate(-0, 246.402627, 670.845941)" x="246.402627" y="670.845941">REACTOME_REGULATION_OF_INSULIN_SECRETION_BY_GLUCAGON_LIKE_PEPTIDE1</text>
   </g>
   <g id="text_58">
    <text style="font-family:DejaVu Sans;font-size:12px;font-style:normal;font-weight:normal;text-anchor:start;" transform="rotate(-0, 318.516043, 673.409016)" x="318.516043" y="673.409016">REACTOME_LIGAND_GATED_ION_CHANNEL_TRANSPORT</text>
   </g>
   <g id="text_59">
    <text style="font-family:DejaVu Sans;font-size:12px;font-style:normal;font-weight:normal;text-anchor:middle;" transform="rotate(-0, 654.051789, 92.747972)" x="654.051789" y="92.747972">Neuron System</text>
   </g>
  </g>
 </g>
 <defs>
  <clipPath id="p73363f6414">
   <rect height="621.289325" width="989.053925" x="159.524827" y="98.747972"/>
  </clipPath>
 </defs>
</svg>
