<?xml version="1.0" encoding="utf-8" standalone="no"?>
<!DOCTYPE svg PUBLIC "-//W3C//DTD SVG 1.1//EN"
  "http://www.w3.org/Graphics/SVG/1.1/DTD/svg11.dtd">
<!-- Created with matplotlib (https://matplotlib.org/) -->
<svg height="835.2pt" version="1.1" viewBox="0 0 1188 835.2" width="1188pt" xmlns="http://www.w3.org/2000/svg" xmlns:xlink="http://www.w3.org/1999/xlink">
 <defs>
  <style type="text/css">
*{stroke-linecap:butt;stroke-linejoin:round;}
  </style>
 </defs>
 <g id="figure_1">
  <g id="patch_1">
   <path d="M 0 835.2 
L 1188 835.2 
L 1188 0 
L 0 0 
z
" style="fill:#ffffff;"/>
  </g>
  <g id="axes_1">
   <g id="patch_2">
    <path clip-path="url(#p0012ba7a36)" d="M 163.593443 114.4935 
C 164.994432 114.4935 166.33823 113.992325 167.328879 113.100353 
C 168.319528 112.208382 168.876148 110.998439 168.876148 109.737 
C 168.876148 108.475561 168.319528 107.265618 167.328879 106.373647 
C 166.33823 105.481675 164.994432 104.9805 163.593443 104.9805 
C 162.192453 104.9805 160.848655 105.481675 159.858006 106.373647 
C 158.867357 107.265618 158.310738 108.475561 158.310738 109.737 
C 158.310738 110.998439 158.867357 112.208382 159.858006 113.100353 
C 160.848655 113.992325 162.192453 114.4935 163.593443 114.4935 
z
" style="fill:#ff0000;"/>
   </g>
   <g id="patch_3">
    <path clip-path="url(#p0012ba7a36)" d="M 163.593443 128.0835 
C 164.994432 128.0835 166.33823 127.582325 167.328879 126.690353 
C 168.319528 125.798382 168.876148 124.588439 168.876148 123.327 
C 168.876148 122.065561 168.319528 120.855618 167.328879 119.963647 
C 166.33823 119.071675 164.994432 118.5705 163.593443 118.5705 
C 162.192453 118.5705 160.848655 119.071675 159.858006 119.963647 
C 158.867357 120.855618 158.310738 122.065561 158.310738 123.327 
C 158.310738 124.588439 158.867357 125.798382 159.858006 126.690353 
C 160.848655 127.582325 162.192453 128.0835 163.593443 128.0835 
z
" style="fill:#ff0000;"/>
   </g>
   <g id="patch_4">
    <path clip-path="url(#p0012ba7a36)" d="M 163.593443 141.6735 
C 164.994432 141.6735 166.33823 141.172325 167.328879 140.280353 
C 168.319528 139.388382 168.876148 138.178439 168.876148 136.917 
C 168.876148 135.655561 168.319528 134.445618 167.328879 133.553647 
C 166.33823 132.661675 164.994432 132.1605 163.593443 132.1605 
C 162.192453 132.1605 160.848655 132.661675 159.858006 133.553647 
C 158.867357 134.445618 158.310738 135.655561 158.310738 136.917 
C 158.310738 138.178439 158.867357 139.388382 159.858006 140.280353 
C 160.848655 141.172325 162.192453 141.6735 163.593443 141.6735 
z
" style="fill:#ff0000;"/>
   </g>
   <g id="patch_5">
    <path clip-path="url(#p0012ba7a36)" d="M 163.593443 155.2635 
C 164.994432 155.2635 166.33823 154.762325 167.328879 153.870353 
C 168.319528 152.978382 168.876148 151.768439 168.876148 150.507 
C 168.876148 149.245561 168.319528 148.035618 167.328879 147.143647 
C 166.33823 146.251675 164.994432 145.7505 163.593443 145.7505 
C 162.192453 145.7505 160.848655 146.251675 159.858006 147.143647 
C 158.867357 148.035618 158.310738 149.245561 158.310738 150.507 
C 158.310738 151.768439 158.867357 152.978382 159.858006 153.870353 
C 160.848655 154.762325 162.192453 155.2635 163.593443 155.2635 
z
" style="fill:#ff0000;"/>
   </g>
   <g id="patch_6">
    <path clip-path="url(#p0012ba7a36)" d="M 163.593443 168.8535 
C 164.994432 168.8535 166.33823 168.352325 167.328879 167.460353 
C 168.319528 166.568382 168.876148 165.358439 168.876148 164.097 
C 168.876148 162.835561 168.319528 161.625618 167.328879 160.733647 
C 166.33823 159.841675 164.994432 159.3405 163.593443 159.3405 
C 162.192453 159.3405 160.848655 159.841675 159.858006 160.733647 
C 158.867357 161.625618 158.310738 162.835561 158.310738 164.097 
C 158.310738 165.358439 158.867357 166.568382 159.858006 167.460353 
C 160.848655 168.352325 162.192453 168.8535 163.593443 168.8535 
z
" style="fill:#ff0000;"/>
   </g>
   <g id="patch_7">
    <path clip-path="url(#p0012ba7a36)" d="M 163.593443 182.4435 
C 164.994432 182.4435 166.33823 181.942325 167.328879 181.050353 
C 168.319528 180.158382 168.876148 178.948439 168.876148 177.687 
C 168.876148 176.425561 168.319528 175.215618 167.328879 174.323647 
C 166.33823 173.431675 164.994432 172.9305 163.593443 172.9305 
C 162.192453 172.9305 160.848655 173.431675 159.858006 174.323647 
C 158.867357 175.215618 158.310738 176.425561 158.310738 177.687 
C 158.310738 178.948439 158.867357 180.158382 159.858006 181.050353 
C 160.848655 181.942325 162.192453 182.4435 163.593443 182.4435 
z
" style="fill:#ff0000;"/>
   </g>
   <g id="patch_8">
    <path clip-path="url(#p0012ba7a36)" d="M 163.593443 196.0335 
C 164.994432 196.0335 166.33823 195.532325 167.328879 194.640353 
C 168.319528 193.748382 168.876148 192.538439 168.876148 191.277 
C 168.876148 190.015561 168.319528 188.805618 167.328879 187.913647 
C 166.33823 187.021675 164.994432 186.5205 163.593443 186.5205 
C 162.192453 186.5205 160.848655 187.021675 159.858006 187.913647 
C 158.867357 188.805618 158.310738 190.015561 158.310738 191.277 
C 158.310738 192.538439 158.867357 193.748382 159.858006 194.640353 
C 160.848655 195.532325 162.192453 196.0335 163.593443 196.0335 
z
" style="fill:#ff0000;"/>
   </g>
   <g id="patch_9">
    <path clip-path="url(#p0012ba7a36)" d="M 163.593443 209.6235 
C 164.994432 209.6235 166.33823 209.122325 167.328879 208.230353 
C 168.319528 207.338382 168.876148 206.128439 168.876148 204.867 
C 168.876148 203.605561 168.319528 202.395618 167.328879 201.503647 
C 166.33823 200.611675 164.994432 200.1105 163.593443 200.1105 
C 162.192453 200.1105 160.848655 200.611675 159.858006 201.503647 
C 158.867357 202.395618 158.310738 203.605561 158.310738 204.867 
C 158.310738 206.128439 158.867357 207.338382 159.858006 208.230353 
C 160.848655 209.122325 162.192453 209.6235 163.593443 209.6235 
z
" style="fill:#ff0000;"/>
   </g>
   <g id="patch_10">
    <path clip-path="url(#p0012ba7a36)" d="M 163.593443 223.2135 
C 164.994432 223.2135 166.33823 222.712325 167.328879 221.820353 
C 168.319528 220.928382 168.876148 219.718439 168.876148 218.457 
C 168.876148 217.195561 168.319528 215.985618 167.328879 215.093647 
C 166.33823 214.201675 164.994432 213.7005 163.593443 213.7005 
C 162.192453 213.7005 160.848655 214.201675 159.858006 215.093647 
C 158.867357 215.985618 158.310738 217.195561 158.310738 218.457 
C 158.310738 219.718439 158.867357 220.928382 159.858006 221.820353 
C 160.848655 222.712325 162.192453 223.2135 163.593443 223.2135 
z
" style="fill:#ff0000;"/>
   </g>
   <g id="patch_11">
    <path clip-path="url(#p0012ba7a36)" d="M 163.593443 236.8035 
C 164.994432 236.8035 166.33823 236.302325 167.328879 235.410353 
C 168.319528 234.518382 168.876148 233.308439 168.876148 232.047 
C 168.876148 230.785561 168.319528 229.575618 167.328879 228.683647 
C 166.33823 227.791675 164.994432 227.2905 163.593443 227.2905 
C 162.192453 227.2905 160.848655 227.791675 159.858006 228.683647 
C 158.867357 229.575618 158.310738 230.785561 158.310738 232.047 
C 158.310738 233.308439 158.867357 234.518382 159.858006 235.410353 
C 160.848655 236.302325 162.192453 236.8035 163.593443 236.8035 
z
" style="fill:#ff0000;"/>
   </g>
   <g id="patch_12">
    <path clip-path="url(#p0012ba7a36)" d="M 163.593443 250.3935 
C 164.994432 250.3935 166.33823 249.892325 167.328879 249.000353 
C 168.319528 248.108382 168.876148 246.898439 168.876148 245.637 
C 168.876148 244.375561 168.319528 243.165618 167.328879 242.273647 
C 166.33823 241.381675 164.994432 240.8805 163.593443 240.8805 
C 162.192453 240.8805 160.848655 241.381675 159.858006 242.273647 
C 158.867357 243.165618 158.310738 244.375561 158.310738 245.637 
C 158.310738 246.898439 158.867357 248.108382 159.858006 249.000353 
C 160.848655 249.892325 162.192453 250.3935 163.593443 250.3935 
z
" style="fill:#ff0000;"/>
   </g>
   <g id="patch_13">
    <path clip-path="url(#p0012ba7a36)" d="M 163.593443 263.9835 
C 164.994432 263.9835 166.33823 263.482325 167.328879 262.590353 
C 168.319528 261.698382 168.876148 260.488439 168.876148 259.227 
C 168.876148 257.965561 168.319528 256.755618 167.328879 255.863647 
C 166.33823 254.971675 164.994432 254.4705 163.593443 254.4705 
C 162.192453 254.4705 160.848655 254.971675 159.858006 255.863647 
C 158.867357 256.755618 158.310738 257.965561 158.310738 259.227 
C 158.310738 260.488439 158.867357 261.698382 159.858006 262.590353 
C 160.848655 263.482325 162.192453 263.9835 163.593443 263.9835 
z
" style="fill:#ff0000;"/>
   </g>
   <g id="patch_14">
    <path clip-path="url(#p0012ba7a36)" d="M 163.593443 277.5735 
C 164.994432 277.5735 166.33823 277.072325 167.328879 276.180353 
C 168.319528 275.288382 168.876148 274.078439 168.876148 272.817 
C 168.876148 271.555561 168.319528 270.345618 167.328879 269.453647 
C 166.33823 268.561675 164.994432 268.0605 163.593443 268.0605 
C 162.192453 268.0605 160.848655 268.561675 159.858006 269.453647 
C 158.867357 270.345618 158.310738 271.555561 158.310738 272.817 
C 158.310738 274.078439 158.867357 275.288382 159.858006 276.180353 
C 160.848655 277.072325 162.192453 277.5735 163.593443 277.5735 
z
" style="fill:#ff0000;"/>
   </g>
   <g id="patch_15">
    <path clip-path="url(#p0012ba7a36)" d="M 163.593443 291.1635 
C 164.994432 291.1635 166.33823 290.662325 167.328879 289.770353 
C 168.319528 288.878382 168.876148 287.668439 168.876148 286.407 
C 168.876148 285.145561 168.319528 283.935618 167.328879 283.043647 
C 166.33823 282.151675 164.994432 281.6505 163.593443 281.6505 
C 162.192453 281.6505 160.848655 282.151675 159.858006 283.043647 
C 158.867357 283.935618 158.310738 285.145561 158.310738 286.407 
C 158.310738 287.668439 158.867357 288.878382 159.858006 289.770353 
C 160.848655 290.662325 162.192453 291.1635 163.593443 291.1635 
z
" style="fill:#0000ff;"/>
   </g>
   <g id="patch_16">
    <path clip-path="url(#p0012ba7a36)" d="M 163.593443 304.7535 
C 164.994432 304.7535 166.33823 304.252325 167.328879 303.360353 
C 168.319528 302.468382 168.876148 301.258439 168.876148 299.997 
C 168.876148 298.735561 168.319528 297.525618 167.328879 296.633647 
C 166.33823 295.741675 164.994432 295.2405 163.593443 295.2405 
C 162.192453 295.2405 160.848655 295.741675 159.858006 296.633647 
C 158.867357 297.525618 158.310738 298.735561 158.310738 299.997 
C 158.310738 301.258439 158.867357 302.468382 159.858006 303.360353 
C 160.848655 304.252325 162.192453 304.7535 163.593443 304.7535 
z
" style="fill:#0000ff;"/>
   </g>
   <g id="patch_17">
    <path clip-path="url(#p0012ba7a36)" d="M 163.593443 318.3435 
C 164.994432 318.3435 166.33823 317.842325 167.328879 316.950353 
C 168.319528 316.058382 168.876148 314.848439 168.876148 313.587 
C 168.876148 312.325561 168.319528 311.115618 167.328879 310.223647 
C 166.33823 309.331675 164.994432 308.8305 163.593443 308.8305 
C 162.192453 308.8305 160.848655 309.331675 159.858006 310.223647 
C 158.867357 311.115618 158.310738 312.325561 158.310738 313.587 
C 158.310738 314.848439 158.867357 316.058382 159.858006 316.950353 
C 160.848655 317.842325 162.192453 318.3435 163.593443 318.3435 
z
" style="fill:#0000ff;"/>
   </g>
   <g id="patch_18">
    <path clip-path="url(#p0012ba7a36)" d="M 163.593443 331.9335 
C 164.994432 331.9335 166.33823 331.432325 167.328879 330.540353 
C 168.319528 329.648382 168.876148 328.438439 168.876148 327.177 
C 168.876148 325.915561 168.319528 324.705618 167.328879 323.813647 
C 166.33823 322.921675 164.994432 322.4205 163.593443 322.4205 
C 162.192453 322.4205 160.848655 322.921675 159.858006 323.813647 
C 158.867357 324.705618 158.310738 325.915561 158.310738 327.177 
C 158.310738 328.438439 158.867357 329.648382 159.858006 330.540353 
C 160.848655 331.432325 162.192453 331.9335 163.593443 331.9335 
z
" style="fill:#0000ff;"/>
   </g>
   <g id="patch_19">
    <path clip-path="url(#p0012ba7a36)" d="M 163.593443 345.5235 
C 164.994432 345.5235 166.33823 345.022325 167.328879 344.130353 
C 168.319528 343.238382 168.876148 342.028439 168.876148 340.767 
C 168.876148 339.505561 168.319528 338.295618 167.328879 337.403647 
C 166.33823 336.511675 164.994432 336.0105 163.593443 336.0105 
C 162.192453 336.0105 160.848655 336.511675 159.858006 337.403647 
C 158.867357 338.295618 158.310738 339.505561 158.310738 340.767 
C 158.310738 342.028439 158.867357 343.238382 159.858006 344.130353 
C 160.848655 345.022325 162.192453 345.5235 163.593443 345.5235 
z
" style="fill:#0000ff;"/>
   </g>
   <g id="patch_20">
    <path clip-path="url(#p0012ba7a36)" d="M 163.593443 359.1135 
C 164.994432 359.1135 166.33823 358.612325 167.328879 357.720353 
C 168.319528 356.828382 168.876148 355.618439 168.876148 354.357 
C 168.876148 353.095561 168.319528 351.885618 167.328879 350.993647 
C 166.33823 350.101675 164.994432 349.6005 163.593443 349.6005 
C 162.192453 349.6005 160.848655 350.101675 159.858006 350.993647 
C 158.867357 351.885618 158.310738 353.095561 158.310738 354.357 
C 158.310738 355.618439 158.867357 356.828382 159.858006 357.720353 
C 160.848655 358.612325 162.192453 359.1135 163.593443 359.1135 
z
" style="fill:#0000ff;"/>
   </g>
   <g id="patch_21">
    <path clip-path="url(#p0012ba7a36)" d="M 163.593443 372.7035 
C 164.994432 372.7035 166.33823 372.202325 167.328879 371.310353 
C 168.319528 370.418382 168.876148 369.208439 168.876148 367.947 
C 168.876148 366.685561 168.319528 365.475618 167.328879 364.583647 
C 166.33823 363.691675 164.994432 363.1905 163.593443 363.1905 
C 162.192453 363.1905 160.848655 363.691675 159.858006 364.583647 
C 158.867357 365.475618 158.310738 366.685561 158.310738 367.947 
C 158.310738 369.208439 158.867357 370.418382 159.858006 371.310353 
C 160.848655 372.202325 162.192453 372.7035 163.593443 372.7035 
z
" style="fill:#0000ff;"/>
   </g>
   <g id="patch_22">
    <path clip-path="url(#p0012ba7a36)" d="M 163.593443 386.2935 
C 164.994432 386.2935 166.33823 385.792325 167.328879 384.900353 
C 168.319528 384.008382 168.876148 382.798439 168.876148 381.537 
C 168.876148 380.275561 168.319528 379.065618 167.328879 378.173647 
C 166.33823 377.281675 164.994432 376.7805 163.593443 376.7805 
C 162.192453 376.7805 160.848655 377.281675 159.858006 378.173647 
C 158.867357 379.065618 158.310738 380.275561 158.310738 381.537 
C 158.310738 382.798439 158.867357 384.008382 159.858006 384.900353 
C 160.848655 385.792325 162.192453 386.2935 163.593443 386.2935 
z
" style="fill:#0000ff;"/>
   </g>
   <g id="patch_23">
    <path clip-path="url(#p0012ba7a36)" d="M 163.593443 399.8835 
C 164.994432 399.8835 166.33823 399.382325 167.328879 398.490353 
C 168.319528 397.598382 168.876148 396.388439 168.876148 395.127 
C 168.876148 393.865561 168.319528 392.655618 167.328879 391.763647 
C 166.33823 390.871675 164.994432 390.3705 163.593443 390.3705 
C 162.192453 390.3705 160.848655 390.871675 159.858006 391.763647 
C 158.867357 392.655618 158.310738 393.865561 158.310738 395.127 
C 158.310738 396.388439 158.867357 397.598382 159.858006 398.490353 
C 160.848655 399.382325 162.192453 399.8835 163.593443 399.8835 
z
" style="fill:#0000ff;"/>
   </g>
   <g id="patch_24">
    <path clip-path="url(#p0012ba7a36)" d="M 163.593443 413.4735 
C 164.994432 413.4735 166.33823 412.972325 167.328879 412.080353 
C 168.319528 411.188382 168.876148 409.978439 168.876148 408.717 
C 168.876148 407.455561 168.319528 406.245618 167.328879 405.353647 
C 166.33823 404.461675 164.994432 403.9605 163.593443 403.9605 
C 162.192453 403.9605 160.848655 404.461675 159.858006 405.353647 
C 158.867357 406.245618 158.310738 407.455561 158.310738 408.717 
C 158.310738 409.978439 158.867357 411.188382 159.858006 412.080353 
C 160.848655 412.972325 162.192453 413.4735 163.593443 413.4735 
z
" style="fill:#800080;"/>
   </g>
   <g id="patch_25">
    <path clip-path="url(#p0012ba7a36)" d="M 163.593443 427.0635 
C 164.994432 427.0635 166.33823 426.562325 167.328879 425.670353 
C 168.319528 424.778382 168.876148 423.568439 168.876148 422.307 
C 168.876148 421.045561 168.319528 419.835618 167.328879 418.943647 
C 166.33823 418.051675 164.994432 417.5505 163.593443 417.5505 
C 162.192453 417.5505 160.848655 418.051675 159.858006 418.943647 
C 158.867357 419.835618 158.310738 421.045561 158.310738 422.307 
C 158.310738 423.568439 158.867357 424.778382 159.858006 425.670353 
C 160.848655 426.562325 162.192453 427.0635 163.593443 427.0635 
z
" style="fill:#800080;"/>
   </g>
   <g id="patch_26">
    <path clip-path="url(#p0012ba7a36)" d="M 163.593443 440.6535 
C 164.994432 440.6535 166.33823 440.152325 167.328879 439.260353 
C 168.319528 438.368382 168.876148 437.158439 168.876148 435.897 
C 168.876148 434.635561 168.319528 433.425618 167.328879 432.533647 
C 166.33823 431.641675 164.994432 431.1405 163.593443 431.1405 
C 162.192453 431.1405 160.848655 431.641675 159.858006 432.533647 
C 158.867357 433.425618 158.310738 434.635561 158.310738 435.897 
C 158.310738 437.158439 158.867357 438.368382 159.858006 439.260353 
C 160.848655 440.152325 162.192453 440.6535 163.593443 440.6535 
z
" style="fill:#800080;"/>
   </g>
   <g id="patch_27">
    <path clip-path="url(#p0012ba7a36)" d="M 163.593443 454.2435 
C 164.994432 454.2435 166.33823 453.742325 167.328879 452.850353 
C 168.319528 451.958382 168.876148 450.748439 168.876148 449.487 
C 168.876148 448.225561 168.319528 447.015618 167.328879 446.123647 
C 166.33823 445.231675 164.994432 444.7305 163.593443 444.7305 
C 162.192453 444.7305 160.848655 445.231675 159.858006 446.123647 
C 158.867357 447.015618 158.310738 448.225561 158.310738 449.487 
C 158.310738 450.748439 158.867357 451.958382 159.858006 452.850353 
C 160.848655 453.742325 162.192453 454.2435 163.593443 454.2435 
z
" style="fill:#800080;"/>
   </g>
   <g id="patch_28">
    <path clip-path="url(#p0012ba7a36)" d="M 163.593443 467.8335 
C 164.994432 467.8335 166.33823 467.332325 167.328879 466.440353 
C 168.319528 465.548382 168.876148 464.338439 168.876148 463.077 
C 168.876148 461.815561 168.319528 460.605618 167.328879 459.713647 
C 166.33823 458.821675 164.994432 458.3205 163.593443 458.3205 
C 162.192453 458.3205 160.848655 458.821675 159.858006 459.713647 
C 158.867357 460.605618 158.310738 461.815561 158.310738 463.077 
C 158.310738 464.338439 158.867357 465.548382 159.858006 466.440353 
C 160.848655 467.332325 162.192453 467.8335 163.593443 467.8335 
z
" style="fill:#800080;"/>
   </g>
   <g id="patch_29">
    <path clip-path="url(#p0012ba7a36)" d="M 163.593443 481.4235 
C 164.994432 481.4235 166.33823 480.922325 167.328879 480.030353 
C 168.319528 479.138382 168.876148 477.928439 168.876148 476.667 
C 168.876148 475.405561 168.319528 474.195618 167.328879 473.303647 
C 166.33823 472.411675 164.994432 471.9105 163.593443 471.9105 
C 162.192453 471.9105 160.848655 472.411675 159.858006 473.303647 
C 158.867357 474.195618 158.310738 475.405561 158.310738 476.667 
C 158.310738 477.928439 158.867357 479.138382 159.858006 480.030353 
C 160.848655 480.922325 162.192453 481.4235 163.593443 481.4235 
z
" style="fill:#800080;"/>
   </g>
   <g id="patch_30">
    <path clip-path="url(#p0012ba7a36)" d="M 163.593443 495.0135 
C 164.994432 495.0135 166.33823 494.512325 167.328879 493.620353 
C 168.319528 492.728382 168.876148 491.518439 168.876148 490.257 
C 168.876148 488.995561 168.319528 487.785618 167.328879 486.893647 
C 166.33823 486.001675 164.994432 485.5005 163.593443 485.5005 
C 162.192453 485.5005 160.848655 486.001675 159.858006 486.893647 
C 158.867357 487.785618 158.310738 488.995561 158.310738 490.257 
C 158.310738 491.518439 158.867357 492.728382 159.858006 493.620353 
C 160.848655 494.512325 162.192453 495.0135 163.593443 495.0135 
z
" style="fill:#800080;"/>
   </g>
   <g id="patch_31">
    <path clip-path="url(#p0012ba7a36)" d="M 163.593443 503.847 
L 163.593443 517.437 
" style="fill:#1f77b4;stroke:#000000;stroke-linejoin:miter;"/>
   </g>
   <g id="patch_32">
    <path clip-path="url(#p0012ba7a36)" d="M 163.593443 508.6035 
C 164.994432 508.6035 166.33823 508.102325 167.328879 507.210353 
C 168.319528 506.318382 168.876148 505.108439 168.876148 503.847 
C 168.876148 502.585561 168.319528 501.375618 167.328879 500.483647 
C 166.33823 499.591675 164.994432 499.0905 163.593443 499.0905 
C 162.192453 499.0905 160.848655 499.591675 159.858006 500.483647 
C 158.867357 501.375618 158.310738 502.585561 158.310738 503.847 
C 158.310738 505.108439 158.867357 506.318382 159.858006 507.210353 
C 160.848655 508.102325 162.192453 508.6035 163.593443 508.6035 
z
" style="fill:#0000ff;"/>
   </g>
   <g id="patch_33">
    <path clip-path="url(#p0012ba7a36)" d="M 163.593443 522.1935 
C 164.994432 522.1935 166.33823 521.692325 167.328879 520.800353 
C 168.319528 519.908382 168.876148 518.698439 168.876148 517.437 
C 168.876148 516.175561 168.319528 514.965618 167.328879 514.073647 
C 166.33823 513.181675 164.994432 512.6805 163.593443 512.6805 
C 162.192453 512.6805 160.848655 513.181675 159.858006 514.073647 
C 158.867357 514.965618 158.310738 516.175561 158.310738 517.437 
C 158.310738 518.698439 158.867357 519.908382 159.858006 520.800353 
C 160.848655 521.692325 162.192453 522.1935 163.593443 522.1935 
z
" style="fill:#800080;"/>
   </g>
   <g id="patch_34">
    <path clip-path="url(#p0012ba7a36)" d="M 163.593443 531.027 
L 163.593443 558.207 
" style="fill:#1f77b4;stroke:#000000;stroke-linejoin:miter;"/>
   </g>
   <g id="patch_35">
    <path clip-path="url(#p0012ba7a36)" d="M 163.593443 544.617 
L 163.593443 558.207 
" style="fill:#1f77b4;stroke:#000000;stroke-linejoin:miter;"/>
   </g>
   <g id="patch_36">
    <path clip-path="url(#p0012ba7a36)" d="M 163.593443 535.7835 
C 164.994432 535.7835 166.33823 535.282325 167.328879 534.390353 
C 168.319528 533.498382 168.876148 532.288439 168.876148 531.027 
C 168.876148 529.765561 168.319528 528.555618 167.328879 527.663647 
C 166.33823 526.771675 164.994432 526.2705 163.593443 526.2705 
C 162.192453 526.2705 160.848655 526.771675 159.858006 527.663647 
C 158.867357 528.555618 158.310738 529.765561 158.310738 531.027 
C 158.310738 532.288439 158.867357 533.498382 159.858006 534.390353 
C 160.848655 535.282325 162.192453 535.7835 163.593443 535.7835 
z
" style="fill:#0000ff;"/>
   </g>
   <g id="patch_37">
    <path clip-path="url(#p0012ba7a36)" d="M 163.593443 549.3735 
C 164.994432 549.3735 166.33823 548.872325 167.328879 547.980353 
C 168.319528 547.088382 168.876148 545.878439 168.876148 544.617 
C 168.876148 543.355561 168.319528 542.145618 167.328879 541.253647 
C 166.33823 540.361675 164.994432 539.8605 163.593443 539.8605 
C 162.192453 539.8605 160.848655 540.361675 159.858006 541.253647 
C 158.867357 542.145618 158.310738 543.355561 158.310738 544.617 
C 158.310738 545.878439 158.867357 547.088382 159.858006 547.980353 
C 160.848655 548.872325 162.192453 549.3735 163.593443 549.3735 
z
" style="fill:#800080;"/>
   </g>
   <g id="patch_38">
    <path clip-path="url(#p0012ba7a36)" d="M 163.593443 562.9635 
C 164.994432 562.9635 166.33823 562.462325 167.328879 561.570353 
C 168.319528 560.678382 168.876148 559.468439 168.876148 558.207 
C 168.876148 556.945561 168.319528 555.735618 167.328879 554.843647 
C 166.33823 553.951675 164.994432 553.4505 163.593443 553.4505 
C 162.192453 553.4505 160.848655 553.951675 159.858006 554.843647 
C 158.867357 555.735618 158.310738 556.945561 158.310738 558.207 
C 158.310738 559.468439 158.867357 560.678382 159.858006 561.570353 
C 160.848655 562.462325 162.192453 562.9635 163.593443 562.9635 
z
" style="fill:#800080;"/>
   </g>
   <g id="patch_39">
    <path clip-path="url(#p0012ba7a36)" d="M 181.438548 590.140224 
L 208.87377 598.736962 
" style="fill:#1f77b4;stroke:#000000;stroke-linejoin:miter;"/>
   </g>
   <g id="patch_40">
    <path clip-path="url(#p0012ba7a36)" d="M 181.438548 590.140224 
L 185.879472 612.567 
" style="fill:#1f77b4;stroke:#000000;stroke-linejoin:miter;"/>
   </g>
   <g id="patch_41">
    <path clip-path="url(#p0012ba7a36)" d="M 181.438548 590.140224 
L 163.593443 571.797 
" style="fill:#1f77b4;stroke:#000000;stroke-linejoin:miter;"/>
   </g>
   <g id="patch_42">
    <path clip-path="url(#p0012ba7a36)" d="M 208.87377 598.736962 
L 185.879472 612.567 
" style="fill:#1f77b4;stroke:#000000;stroke-linejoin:miter;"/>
   </g>
   <g id="patch_43">
    <path clip-path="url(#p0012ba7a36)" d="M 181.438548 594.896724 
C 182.839538 594.896724 184.183336 594.395549 185.173985 593.503577 
C 186.164634 592.611606 186.721253 591.401662 186.721253 590.140224 
C 186.721253 588.878785 186.164634 587.668842 185.173985 586.776871 
C 184.183336 585.884899 182.839538 585.383724 181.438548 585.383724 
C 180.037559 585.383724 178.693761 585.884899 177.703112 586.776871 
C 176.712463 587.668842 176.155844 588.878785 176.155844 590.140224 
C 176.155844 591.401662 176.712463 592.611606 177.703112 593.503577 
C 178.693761 594.395549 180.037559 594.896724 181.438548 594.896724 
z
" style="fill:#ff0000;"/>
   </g>
   <g id="patch_44">
    <path clip-path="url(#p0012ba7a36)" d="M 208.87377 603.493462 
C 210.27476 603.493462 211.618558 602.992288 212.609207 602.100316 
C 213.599856 601.208344 214.156475 599.998401 214.156475 598.736962 
C 214.156475 597.475524 213.599856 596.265581 212.609207 595.373609 
C 211.618558 594.481637 210.27476 593.980462 208.87377 593.980462 
C 207.472781 593.980462 206.128983 594.481637 205.138334 595.373609 
C 204.147685 596.265581 203.591066 597.475524 203.591066 598.736962 
C 203.591066 599.998401 204.147685 601.208344 205.138334 602.100316 
C 206.128983 602.992288 207.472781 603.493462 208.87377 603.493462 
z
" style="fill:#ff0000;"/>
   </g>
   <g id="patch_45">
    <path clip-path="url(#p0012ba7a36)" d="M 185.879472 617.3235 
C 187.280462 617.3235 188.62426 616.822325 189.614909 615.930353 
C 190.605558 615.038382 191.162177 613.828439 191.162177 612.567 
C 191.162177 611.305561 190.605558 610.095618 189.614909 609.203647 
C 188.62426 608.311675 187.280462 607.8105 185.879472 607.8105 
C 184.478483 607.8105 183.134685 608.311675 182.144036 609.203647 
C 181.153387 610.095618 180.596767 611.305561 180.596767 612.567 
C 180.596767 613.828439 181.153387 615.038382 182.144036 615.930353 
C 183.134685 616.822325 184.478483 617.3235 185.879472 617.3235 
z
" style="fill:#ff0000;"/>
   </g>
   <g id="patch_46">
    <path clip-path="url(#p0012ba7a36)" d="M 163.593443 576.5535 
C 164.994432 576.5535 166.33823 576.052325 167.328879 575.160353 
C 168.319528 574.268382 168.876148 573.058439 168.876148 571.797 
C 168.876148 570.535561 168.319528 569.325618 167.328879 568.433647 
C 166.33823 567.541675 164.994432 567.0405 163.593443 567.0405 
C 162.192453 567.0405 160.848655 567.541675 159.858006 568.433647 
C 158.867357 569.325618 158.310738 570.535561 158.310738 571.797 
C 158.310738 573.058439 158.867357 574.268382 159.858006 575.160353 
C 160.848655 576.052325 162.192453 576.5535 163.593443 576.5535 
z
" style="fill:#ff0000;"/>
   </g>
   <g id="patch_47">
    <path clip-path="url(#p0012ba7a36)" d="M 179.479995 641.027458 
L 163.593443 626.157 
" style="fill:#1f77b4;stroke:#000000;stroke-linejoin:miter;"/>
   </g>
   <g id="patch_48">
    <path clip-path="url(#p0012ba7a36)" d="M 179.479995 641.027458 
L 186.303493 660.751211 
" style="fill:#1f77b4;stroke:#000000;stroke-linejoin:miter;"/>
   </g>
   <g id="patch_49">
    <path clip-path="url(#p0012ba7a36)" d="M 179.479995 641.027458 
L 202.078862 647.223712 
" style="fill:#1f77b4;stroke:#000000;stroke-linejoin:miter;"/>
   </g>
   <g id="patch_50">
    <path clip-path="url(#p0012ba7a36)" d="M 208.87377 666.927 
L 186.303493 660.751211 
" style="fill:#1f77b4;stroke:#000000;stroke-linejoin:miter;"/>
   </g>
   <g id="patch_51">
    <path clip-path="url(#p0012ba7a36)" d="M 208.87377 666.927 
L 202.078862 647.223712 
" style="fill:#1f77b4;stroke:#000000;stroke-linejoin:miter;"/>
   </g>
   <g id="patch_52">
    <path clip-path="url(#p0012ba7a36)" d="M 186.303493 660.751211 
L 202.078862 647.223712 
" style="fill:#1f77b4;stroke:#000000;stroke-linejoin:miter;"/>
   </g>
   <g id="patch_53">
    <path clip-path="url(#p0012ba7a36)" d="M 179.479995 645.783958 
C 180.880985 645.783958 182.224782 645.282783 183.215432 644.390811 
C 184.206081 643.49884 184.7627 642.288896 184.7627 641.027458 
C 184.7627 639.766019 184.206081 638.556076 183.215432 637.664104 
C 182.224782 636.772133 180.880985 636.270958 179.479995 636.270958 
C 178.079005 636.270958 176.735208 636.772133 175.744559 637.664104 
C 174.753909 638.556076 174.19729 639.766019 174.19729 641.027458 
C 174.19729 642.288896 174.753909 643.49884 175.744559 644.390811 
C 176.735208 645.282783 178.079005 645.783958 179.479995 645.783958 
z
" style="fill:#ff0000;"/>
   </g>
   <g id="patch_54">
    <path clip-path="url(#p0012ba7a36)" d="M 208.87377 671.6835 
C 210.27476 671.6835 211.618558 671.182325 212.609207 670.290353 
C 213.599856 669.398382 214.156475 668.188439 214.156475 666.927 
C 214.156475 665.665561 213.599856 664.455618 212.609207 663.563647 
C 211.618558 662.671675 210.27476 662.1705 208.87377 662.1705 
C 207.472781 662.1705 206.128983 662.671675 205.138334 663.563647 
C 204.147685 664.455618 203.591066 665.665561 203.591066 666.927 
C 203.591066 668.188439 204.147685 669.398382 205.138334 670.290353 
C 206.128983 671.182325 207.472781 671.6835 208.87377 671.6835 
z
" style="fill:#ff0000;"/>
   </g>
   <g id="patch_55">
    <path clip-path="url(#p0012ba7a36)" d="M 186.303493 665.507711 
C 187.704483 665.507711 189.048281 665.006536 190.03893 664.114564 
C 191.029579 663.222592 191.586198 662.012649 191.586198 660.751211 
C 191.586198 659.489772 191.029579 658.279829 190.03893 657.387857 
C 189.048281 656.495885 187.704483 655.994711 186.303493 655.994711 
C 184.902504 655.994711 183.558706 656.495885 182.568057 657.387857 
C 181.577408 658.279829 181.020788 659.489772 181.020788 660.751211 
C 181.020788 662.012649 181.577408 663.222592 182.568057 664.114564 
C 183.558706 665.006536 184.902504 665.507711 186.303493 665.507711 
z
" style="fill:#ff0000;"/>
   </g>
   <g id="patch_56">
    <path clip-path="url(#p0012ba7a36)" d="M 202.078862 651.980212 
C 203.479852 651.980212 204.823649 651.479038 205.814299 650.587066 
C 206.804948 649.695094 207.361567 648.485151 207.361567 647.223712 
C 207.361567 645.962274 206.804948 644.752331 205.814299 643.860359 
C 204.823649 642.968387 203.479852 642.467212 202.078862 642.467212 
C 200.677873 642.467212 199.334075 642.968387 198.343426 643.860359 
C 197.352777 644.752331 196.796157 645.962274 196.796157 647.223712 
C 196.796157 648.485151 197.352777 649.695094 198.343426 650.587066 
C 199.334075 651.479038 200.677873 651.980212 202.078862 651.980212 
z
" style="fill:#ff0000;"/>
   </g>
   <g id="patch_57">
    <path clip-path="url(#p0012ba7a36)" d="M 163.593443 630.9135 
C 164.994432 630.9135 166.33823 630.412325 167.328879 629.520353 
C 168.319528 628.628382 168.876148 627.418439 168.876148 626.157 
C 168.876148 624.895561 168.319528 623.685618 167.328879 622.793647 
C 166.33823 621.901675 164.994432 621.4005 163.593443 621.4005 
C 162.192453 621.4005 160.848655 621.901675 159.858006 622.793647 
C 158.867357 623.685618 158.310738 624.895561 158.310738 626.157 
C 158.310738 627.418439 158.867357 628.628382 159.858006 629.520353 
C 160.848655 630.412325 162.192453 630.9135 163.593443 630.9135 
z
" style="fill:#ff0000;"/>
   </g>
   <g id="patch_58">
    <path clip-path="url(#p0012ba7a36)" d="M 177.692542 709.268768 
L 163.593443 721.287 
" style="fill:#1f77b4;stroke:#000000;stroke-linejoin:miter;"/>
   </g>
   <g id="patch_59">
    <path clip-path="url(#p0012ba7a36)" d="M 177.692542 709.268768 
L 194.518656 702.685091 
" style="fill:#1f77b4;stroke:#000000;stroke-linejoin:miter;"/>
   </g>
   <g id="patch_60">
    <path clip-path="url(#p0012ba7a36)" d="M 177.692542 709.268768 
L 182.645971 688.906317 
" style="fill:#1f77b4;stroke:#000000;stroke-linejoin:miter;"/>
   </g>
   <g id="patch_61">
    <path clip-path="url(#p0012ba7a36)" d="M 197.803417 680.517 
L 194.518656 702.685091 
" style="fill:#1f77b4;stroke:#000000;stroke-linejoin:miter;"/>
   </g>
   <g id="patch_62">
    <path clip-path="url(#p0012ba7a36)" d="M 197.803417 680.517 
L 182.645971 688.906317 
" style="fill:#1f77b4;stroke:#000000;stroke-linejoin:miter;"/>
   </g>
   <g id="patch_63">
    <path clip-path="url(#p0012ba7a36)" d="M 182.645971 688.906317 
L 194.518656 702.685091 
" style="fill:#1f77b4;stroke:#000000;stroke-linejoin:miter;"/>
   </g>
   <g id="patch_64">
    <path clip-path="url(#p0012ba7a36)" d="M 208.87377 715.482992 
L 194.518656 702.685091 
" style="fill:#1f77b4;stroke:#000000;stroke-linejoin:miter;"/>
   </g>
   <g id="patch_65">
    <path clip-path="url(#p0012ba7a36)" d="M 177.692542 714.025268 
C 179.093532 714.025268 180.437329 713.524094 181.427979 712.632122 
C 182.418628 711.74015 182.975247 710.530207 182.975247 709.268768 
C 182.975247 708.00733 182.418628 706.797387 181.427979 705.905415 
C 180.437329 705.013443 179.093532 704.512268 177.692542 704.512268 
C 176.291552 704.512268 174.947755 705.013443 173.957106 705.905415 
C 172.966456 706.797387 172.409837 708.00733 172.409837 709.268768 
C 172.409837 710.530207 172.966456 711.74015 173.957106 712.632122 
C 174.947755 713.524094 176.291552 714.025268 177.692542 714.025268 
z
" style="fill:#0000ff;"/>
   </g>
   <g id="patch_66">
    <path clip-path="url(#p0012ba7a36)" d="M 197.803417 685.2735 
C 199.204407 685.2735 200.548204 684.772325 201.538854 683.880353 
C 202.529503 682.988382 203.086122 681.778439 203.086122 680.517 
C 203.086122 679.255561 202.529503 678.045618 201.538854 677.153647 
C 200.548204 676.261675 199.204407 675.7605 197.803417 675.7605 
C 196.402428 675.7605 195.05863 676.261675 194.067981 677.153647 
C 193.077331 678.045618 192.520712 679.255561 192.520712 680.517 
C 192.520712 681.778439 193.077331 682.988382 194.067981 683.880353 
C 195.05863 684.772325 196.402428 685.2735 197.803417 685.2735 
z
" style="fill:#0000ff;"/>
   </g>
   <g id="patch_67">
    <path clip-path="url(#p0012ba7a36)" d="M 163.593443 726.0435 
C 164.994432 726.0435 166.33823 725.542325 167.328879 724.650353 
C 168.319528 723.758382 168.876148 722.548439 168.876148 721.287 
C 168.876148 720.025561 168.319528 718.815618 167.328879 717.923647 
C 166.33823 717.031675 164.994432 716.5305 163.593443 716.5305 
C 162.192453 716.5305 160.848655 717.031675 159.858006 717.923647 
C 158.867357 718.815618 158.310738 720.025561 158.310738 721.287 
C 158.310738 722.548439 158.867357 723.758382 159.858006 724.650353 
C 160.848655 725.542325 162.192453 726.0435 163.593443 726.0435 
z
" style="fill:#0000ff;"/>
   </g>
   <g id="patch_68">
    <path clip-path="url(#p0012ba7a36)" d="M 182.645971 693.662817 
C 184.046961 693.662817 185.390758 693.161642 186.381407 692.269671 
C 187.372057 691.377699 187.928676 690.167756 187.928676 688.906317 
C 187.928676 687.644879 187.372057 686.434936 186.381407 685.542964 
C 185.390758 684.650992 184.046961 684.149817 182.645971 684.149817 
C 181.244981 684.149817 179.901184 684.650992 178.910534 685.542964 
C 177.919885 686.434936 177.363266 687.644879 177.363266 688.906317 
C 177.363266 690.167756 177.919885 691.377699 178.910534 692.269671 
C 179.901184 693.161642 181.244981 693.662817 182.645971 693.662817 
z
" style="fill:#800080;"/>
   </g>
   <g id="patch_69">
    <path clip-path="url(#p0012ba7a36)" d="M 208.87377 720.239492 
C 210.27476 720.239492 211.618558 719.738317 212.609207 718.846345 
C 213.599856 717.954373 214.156475 716.74443 214.156475 715.482992 
C 214.156475 714.221553 213.599856 713.01161 212.609207 712.119638 
C 211.618558 711.227667 210.27476 710.726492 208.87377 710.726492 
C 207.472781 710.726492 206.128983 711.227667 205.138334 712.119638 
C 204.147685 713.01161 203.591066 714.221553 203.591066 715.482992 
C 203.591066 716.74443 204.147685 717.954373 205.138334 718.846345 
C 206.128983 719.738317 207.472781 720.239492 208.87377 720.239492 
z
" style="fill:#800080;"/>
   </g>
   <g id="patch_70">
    <path clip-path="url(#p0012ba7a36)" d="M 194.518656 707.441591 
C 195.919646 707.441591 197.263443 706.940416 198.254093 706.048445 
C 199.244742 705.156473 199.801361 703.94653 199.801361 702.685091 
C 199.801361 701.423653 199.244742 700.21371 198.254093 699.321738 
C 197.263443 698.429766 195.919646 697.928591 194.518656 697.928591 
C 193.117666 697.928591 191.773869 698.429766 190.78322 699.321738 
C 189.79257 700.21371 189.235951 701.423653 189.235951 702.685091 
C 189.235951 703.94653 189.79257 705.156473 190.78322 706.048445 
C 191.773869 706.940416 193.117666 707.441591 194.518656 707.441591 
z
" style="fill:#0000ff;"/>
   </g>
   <g id="text_1">
    <text style="font-family:DejaVu Sans;font-size:12px;font-style:normal;font-weight:normal;text-anchor:start;" transform="rotate(-0, 169.63082, 112.775437)" x="169.63082" y="112.775437">PID_ECADHERIN_STABILIZATION_PATHWAY</text>
   </g>
   <g id="text_2">
    <text style="font-family:DejaVu Sans;font-size:12px;font-style:normal;font-weight:normal;text-anchor:start;" transform="rotate(-0, 169.63082, 126.3045)" x="169.63082" y="126.3045">PID_ILK_PATHWAY</text>
   </g>
   <g id="text_3">
    <text style="font-family:DejaVu Sans;font-size:12px;font-style:normal;font-weight:normal;text-anchor:start;" transform="rotate(-0, 169.63082, 139.955437)" x="169.63082" y="139.955437">SIG_REGULATION_OF_THE_ACTIN_CYTOSKELETON_BY_RHO_GTPASES</text>
   </g>
   <g id="text_4">
    <text style="font-family:DejaVu Sans;font-size:12px;font-style:normal;font-weight:normal;text-anchor:start;" transform="rotate(-0, 169.63082, 153.545437)" x="169.63082" y="153.545437">PID_NCADHERIN_PATHWAY</text>
   </g>
   <g id="text_5">
    <text style="font-family:DejaVu Sans;font-size:12px;font-style:normal;font-weight:normal;text-anchor:start;" transform="rotate(-0, 169.63082, 167.135437)" x="169.63082" y="167.135437">REACTOME_ASPARAGINE_N_LINKED_GLYCOSYLATION</text>
   </g>
   <g id="text_6">
    <text style="font-family:DejaVu Sans;font-size:12px;font-style:normal;font-weight:normal;text-anchor:start;" transform="rotate(-0, 169.63082, 180.725437)" x="169.63082" y="180.725437">ST_INTEGRIN_SIGNALING_PATHWAY</text>
   </g>
   <g id="text_7">
    <text style="font-family:DejaVu Sans;font-size:12px;font-style:normal;font-weight:normal;text-anchor:start;" transform="rotate(-0, 169.63082, 194.315437)" x="169.63082" y="194.315437">PID_ARF6_PATHWAY</text>
   </g>
   <g id="text_8">
    <text style="font-family:DejaVu Sans;font-size:12px;font-style:normal;font-weight:normal;text-anchor:start;" transform="rotate(-0, 169.63082, 207.905437)" x="169.63082" y="207.905437">KEGG_PROTEIN_EXPORT</text>
   </g>
   <g id="text_9">
    <text style="font-family:DejaVu Sans;font-size:12px;font-style:normal;font-weight:normal;text-anchor:start;" transform="rotate(-0, 169.63082, 221.495437)" x="169.63082" y="221.495437">REACTOME_INTEGRIN_ALPHAIIB_BETA3_SIGNALING</text>
   </g>
   <g id="text_10">
    <text style="font-family:DejaVu Sans;font-size:12px;font-style:normal;font-weight:normal;text-anchor:start;" transform="rotate(-0, 169.63082, 235.085437)" x="169.63082" y="235.085437">BIOCARTA_ACTINY_PATHWAY</text>
   </g>
   <g id="text_11">
    <text style="font-family:DejaVu Sans;font-size:12px;font-style:normal;font-weight:normal;text-anchor:start;" transform="rotate(-0, 169.63082, 248.675437)" x="169.63082" y="248.675437">REACTOME_AUTODEGRADATION_OF_CDH1_BY_CDH1_APC_C</text>
   </g>
   <g id="text_12">
    <text style="font-family:DejaVu Sans;font-size:12px;font-style:normal;font-weight:normal;text-anchor:start;" transform="rotate(-0, 169.63082, 262.265437)" x="169.63082" y="262.265437">REACTOME_CTNNB1_PHOSPHORYLATION_CASCADE</text>
   </g>
   <g id="text_13">
    <text style="font-family:DejaVu Sans;font-size:12px;font-style:normal;font-weight:normal;text-anchor:start;" transform="rotate(-0, 169.63082, 275.855437)" x="169.63082" y="275.855437">KEGG_ENDOCYTOSIS</text>
   </g>
   <g id="text_14">
    <text style="font-family:DejaVu Sans;font-size:12px;font-style:normal;font-weight:normal;text-anchor:start;" transform="rotate(-0, 169.63082, 289.445437)" x="169.63082" y="289.445437">PID_SYNDECAN_4_PATHWAY</text>
   </g>
   <g id="text_15">
    <text style="font-family:DejaVu Sans;font-size:12px;font-style:normal;font-weight:normal;text-anchor:start;" transform="rotate(-0, 169.63082, 303.035437)" x="169.63082" y="303.035437">PID_INTEGRIN_A9B1_PATHWAY</text>
   </g>
   <g id="text_16">
    <text style="font-family:DejaVu Sans;font-size:12px;font-style:normal;font-weight:normal;text-anchor:start;" transform="rotate(-0, 169.63082, 316.625437)" x="169.63082" y="316.625437">REACTOME_INTERACTION_BETWEEN_L1_AND_ANKYRINS</text>
   </g>
   <g id="text_17">
    <text style="font-family:DejaVu Sans;font-size:12px;font-style:normal;font-weight:normal;text-anchor:start;" transform="rotate(-0, 169.63082, 330.215437)" x="169.63082" y="330.215437">REACTOME_AMINO_ACID_TRANSPORT_ACROSS_THE_PLASMA_MEMBRANE</text>
   </g>
   <g id="text_18">
    <text style="font-family:DejaVu Sans;font-size:12px;font-style:normal;font-weight:normal;text-anchor:start;" transform="rotate(-0, 169.63082, 343.805437)" x="169.63082" y="343.805437">KEGG_CELL_ADHESION_MOLECULES_CAMS</text>
   </g>
   <g id="text_19">
    <text style="font-family:DejaVu Sans;font-size:12px;font-style:normal;font-weight:normal;text-anchor:start;" transform="rotate(-0, 169.63082, 357.395437)" x="169.63082" y="357.395437">PID_INTEGRIN2_PATHWAY</text>
   </g>
   <g id="text_20">
    <text style="font-family:DejaVu Sans;font-size:12px;font-style:normal;font-weight:normal;text-anchor:start;" transform="rotate(-0, 169.63082, 370.985437)" x="169.63082" y="370.985437">NABA_ECM_AFFILIATED</text>
   </g>
   <g id="text_21">
    <text style="font-family:DejaVu Sans;font-size:12px;font-style:normal;font-weight:normal;text-anchor:start;" transform="rotate(-0, 169.63082, 384.575437)" x="169.63082" y="384.575437">NABA_PROTEOGLYCANS</text>
   </g>
   <g id="text_22">
    <text style="font-family:DejaVu Sans;font-size:12px;font-style:normal;font-weight:normal;text-anchor:start;" transform="rotate(-0, 169.63082, 398.165437)" x="169.63082" y="398.165437">PID_INTEGRIN5_PATHWAY</text>
   </g>
   <g id="text_23">
    <text style="font-family:DejaVu Sans;font-size:12px;font-style:normal;font-weight:normal;text-anchor:start;" transform="rotate(-0, 169.63082, 411.755437)" x="169.63082" y="411.755437">NABA_SECRETED_FACTORS</text>
   </g>
   <g id="text_24">
    <text style="font-family:DejaVu Sans;font-size:12px;font-style:normal;font-weight:normal;text-anchor:start;" transform="rotate(-0, 169.63082, 425.345437)" x="169.63082" y="425.345437">PID_AVB3_OPN_PATHWAY</text>
   </g>
   <g id="text_25">
    <text style="font-family:DejaVu Sans;font-size:12px;font-style:normal;font-weight:normal;text-anchor:start;" transform="rotate(-0, 169.63082, 438.935437)" x="169.63082" y="438.935437">KEGG_REGULATION_OF_ACTIN_CYTOSKELETON</text>
   </g>
   <g id="text_26">
    <text style="font-family:DejaVu Sans;font-size:12px;font-style:normal;font-weight:normal;text-anchor:start;" transform="rotate(-0, 169.63082, 452.525437)" x="169.63082" y="452.525437">KEGG_ADHERENS_JUNCTION</text>
   </g>
   <g id="text_27">
    <text style="font-family:DejaVu Sans;font-size:12px;font-style:normal;font-weight:normal;text-anchor:start;" transform="rotate(-0, 169.63082, 466.115437)" x="169.63082" y="466.115437">PID_AVB3_INTEGRIN_PATHWAY</text>
   </g>
   <g id="text_28">
    <text style="font-family:DejaVu Sans;font-size:12px;font-style:normal;font-weight:normal;text-anchor:start;" transform="rotate(-0, 169.63082, 479.705437)" x="169.63082" y="479.705437">REACTOME_CELL_SURFACE_INTERACTIONS_AT_THE_VASCULAR_WALL</text>
   </g>
   <g id="text_29">
    <text style="font-family:DejaVu Sans;font-size:12px;font-style:normal;font-weight:normal;text-anchor:start;" transform="rotate(-0, 169.63082, 493.295437)" x="169.63082" y="493.295437">NABA_ECM_REGULATORS</text>
   </g>
   <g id="text_30">
    <text style="font-family:DejaVu Sans;font-size:12px;font-style:normal;font-weight:normal;text-anchor:start;" transform="rotate(-0, 169.63082, 506.885437)" x="169.63082" y="506.885437">NABA_ECM_GLYCOPROTEINS</text>
   </g>
   <g id="text_31">
    <text style="font-family:DejaVu Sans;font-size:12px;font-style:normal;font-weight:normal;text-anchor:start;" transform="rotate(-0, 169.63082, 520.475437)" x="169.63082" y="520.475437">NABA_CORE_MATRISOME</text>
   </g>
   <g id="text_32">
    <text style="font-family:DejaVu Sans;font-size:12px;font-style:normal;font-weight:normal;text-anchor:start;" transform="rotate(-0, 169.63082, 534.065437)" x="169.63082" y="534.065437">PID_SYNDECAN_1_PATHWAY</text>
   </g>
   <g id="text_33">
    <text style="font-family:DejaVu Sans;font-size:12px;font-style:normal;font-weight:normal;text-anchor:start;" transform="rotate(-0, 169.63082, 547.655437)" x="169.63082" y="547.655437">REACTOME_DEGRADATION_OF_THE_EXTRACELLULAR_MATRIX</text>
   </g>
   <g id="text_34">
    <text style="font-family:DejaVu Sans;font-size:12px;font-style:normal;font-weight:normal;text-anchor:start;" transform="rotate(-0, 169.63082, 561.245437)" x="169.63082" y="561.245437">REACTOME_EXTRACELLULAR_MATRIX_ORGANIZATION</text>
   </g>
   <g id="text_35">
    <text style="font-family:DejaVu Sans;font-size:12px;font-style:normal;font-weight:normal;text-anchor:start;" transform="rotate(-0, 187.475926, 593.178661)" x="187.475926" y="593.178661">REACTOME_POST_CHAPERONIN_TUBULIN_FOLDING_PATHWAY</text>
   </g>
   <g id="text_36">
    <text style="font-family:DejaVu Sans;font-size:12px;font-style:normal;font-weight:normal;text-anchor:start;" transform="rotate(-0, 214.911148, 601.7754)" x="214.911148" y="601.7754">REACTOME_PREFOLDIN_MEDIATED_TRANSFER_OF_SUBSTRATE_TO_CCT_TRIC</text>
   </g>
   <g id="text_37">
    <text style="font-family:DejaVu Sans;font-size:12px;font-style:normal;font-weight:normal;text-anchor:start;" transform="rotate(-0, 191.916849, 615.605437)" x="191.916849" y="615.605437">REACTOME_FORMATION_OF_TUBULIN_FOLDING_INTERMEDIATES_BY_CCT_TRIC</text>
   </g>
   <g id="text_38">
    <text style="font-family:DejaVu Sans;font-size:12px;font-style:normal;font-weight:normal;text-anchor:start;" transform="rotate(-0, 169.63082, 574.835437)" x="169.63082" y="574.835437">KEGG_GAP_JUNCTION</text>
   </g>
   <g id="text_39">
    <text style="font-family:DejaVu Sans;font-size:12px;font-style:normal;font-weight:normal;text-anchor:start;" transform="rotate(-0, 185.517372, 644.065895)" x="185.517372" y="644.065895">REACTOME_MEMBRANE_TRAFFICKING</text>
   </g>
   <g id="text_40">
    <text style="font-family:DejaVu Sans;font-size:12px;font-style:normal;font-weight:normal;text-anchor:start;" transform="rotate(-0, 214.911148, 669.965437)" x="214.911148" y="669.965437">REACTOME_LYSOSOME_VESICLE_BIOGENESIS</text>
   </g>
   <g id="text_41">
    <text style="font-family:DejaVu Sans;font-size:12px;font-style:normal;font-weight:normal;text-anchor:start;" transform="rotate(-0, 192.34087, 663.789648)" x="192.34087" y="663.789648">REACTOME_GOLGI_ASSOCIATED_VESICLE_BIOGENESIS</text>
   </g>
   <g id="text_42">
    <text style="font-family:DejaVu Sans;font-size:12px;font-style:normal;font-weight:normal;text-anchor:start;" transform="rotate(-0, 208.116239, 650.26215)" x="208.116239" y="650.26215">REACTOME_TRANS_GOLGI_NETWORK_VESICLE_BUDDING</text>
   </g>
   <g id="text_43">
    <text style="font-family:DejaVu Sans;font-size:12px;font-style:normal;font-weight:normal;text-anchor:start;" transform="rotate(-0, 169.63082, 629.195437)" x="169.63082" y="629.195437">REACTOME_ENDOSOMAL_SORTING_COMPLEX_REQUIRED_FOR_TRANSPORT_ESCRT</text>
   </g>
   <g id="text_44">
    <text style="font-family:DejaVu Sans;font-size:12px;font-style:normal;font-weight:normal;text-anchor:start;" transform="rotate(-0, 183.729919, 712.307206)" x="183.729919" y="712.307206">PID_INTEGRIN1_PATHWAY</text>
   </g>
   <g id="text_45">
    <text style="font-family:DejaVu Sans;font-size:12px;font-style:normal;font-weight:normal;text-anchor:start;" transform="rotate(-0, 203.840794, 683.555437)" x="203.840794" y="683.555437">PID_INTEGRIN_CS_PATHWAY</text>
   </g>
   <g id="text_46">
    <text style="font-family:DejaVu Sans;font-size:12px;font-style:normal;font-weight:normal;text-anchor:start;" transform="rotate(-0, 169.63082, 724.325437)" x="169.63082" y="724.325437">PID_INTEGRIN3_PATHWAY</text>
   </g>
   <g id="text_47">
    <text style="font-family:DejaVu Sans;font-size:12px;font-style:normal;font-weight:normal;text-anchor:start;" transform="rotate(-0, 188.683348, 691.944755)" x="188.683348" y="691.944755">REACTOME_INTEGRIN_CELL_SURFACE_INTERACTIONS</text>
   </g>
   <g id="text_48">
    <text style="font-family:DejaVu Sans;font-size:12px;font-style:normal;font-weight:normal;text-anchor:start;" transform="rotate(-0, 214.911148, 718.521429)" x="214.911148" y="718.521429">KEGG_FOCAL_ADHESION</text>
   </g>
   <g id="text_49">
    <text style="font-family:DejaVu Sans;font-size:12px;font-style:normal;font-weight:normal;text-anchor:start;" transform="rotate(-0, 200.556033, 705.723529)" x="200.556033" y="705.723529">KEGG_ECM_RECEPTOR_INTERACTION</text>
   </g>
   <g id="text_50">
    <text style="font-family:DejaVu Sans;font-size:12px;font-style:normal;font-weight:normal;text-anchor:middle;" transform="rotate(-0, 608.85, 94.224)" x="608.85" y="94.224">Cytoskeleton/ECM</text>
   </g>
  </g>
 </g>
 <defs>
  <clipPath id="p0012ba7a36">
   <rect height="630.576" width="920.7" x="148.5" y="100.224"/>
  </clipPath>
 </defs>
</svg>
