<?xml version="1.0" encoding="utf-8" standalone="no"?>
<!DOCTYPE svg PUBLIC "-//W3C//DTD SVG 1.1//EN"
  "http://www.w3.org/Graphics/SVG/1.1/DTD/svg11.dtd">
<!-- Created with matplotlib (https://matplotlib.org/) -->
<svg height="928.947671pt" version="1.1" viewBox="0 0 1188 928.947671" width="1188pt" xmlns="http://www.w3.org/2000/svg" xmlns:xlink="http://www.w3.org/1999/xlink">
 <defs>
  <style type="text/css">
*{stroke-linecap:butt;stroke-linejoin:round;}
  </style>
 </defs>
 <g id="figure_1">
  <g id="patch_1">
   <path d="M 0 928.947671 
L 1188 928.947671 
L 1188 0 
L 0 0 
z
" style="fill:#ffffff;"/>
  </g>
  <g id="axes_1">
   <g id="patch_2">
    <path clip-path="url(#p1faf07c1ca)" d="M 163.593443 125.74322 
C 164.994432 125.74322 166.33823 125.242046 167.328879 124.350074 
C 168.319528 123.458102 168.876148 122.248159 168.876148 120.98672 
C 168.876148 119.725282 168.319528 118.515339 167.328879 117.623367 
C 166.33823 116.731395 164.994432 116.23022 163.593443 116.23022 
C 162.192453 116.23022 160.848655 116.731395 159.858006 117.623367 
C 158.867357 118.515339 158.310738 119.725282 158.310738 120.98672 
C 158.310738 122.248159 158.867357 123.458102 159.858006 124.350074 
C 160.848655 125.242046 162.192453 125.74322 163.593443 125.74322 
z
" style="fill:#7a0177;"/>
   </g>
   <g id="patch_3">
    <path clip-path="url(#p1faf07c1ca)" d="M 163.593443 139.33322 
C 164.994432 139.33322 166.33823 138.832046 167.328879 137.940074 
C 168.319528 137.048102 168.876148 135.838159 168.876148 134.57672 
C 168.876148 133.315282 168.319528 132.105339 167.328879 131.213367 
C 166.33823 130.321395 164.994432 129.82022 163.593443 129.82022 
C 162.192453 129.82022 160.848655 130.321395 159.858006 131.213367 
C 158.867357 132.105339 158.310738 133.315282 158.310738 134.57672 
C 158.310738 135.838159 158.867357 137.048102 159.858006 137.940074 
C 160.848655 138.832046 162.192453 139.33322 163.593443 139.33322 
z
" style="fill:#7a0177;"/>
   </g>
   <g id="patch_4">
    <path clip-path="url(#p1faf07c1ca)" d="M 163.593443 152.92322 
C 164.994432 152.92322 166.33823 152.422046 167.328879 151.530074 
C 168.319528 150.638102 168.876148 149.428159 168.876148 148.16672 
C 168.876148 146.905282 168.319528 145.695339 167.328879 144.803367 
C 166.33823 143.911395 164.994432 143.41022 163.593443 143.41022 
C 162.192453 143.41022 160.848655 143.911395 159.858006 144.803367 
C 158.867357 145.695339 158.310738 146.905282 158.310738 148.16672 
C 158.310738 149.428159 158.867357 150.638102 159.858006 151.530074 
C 160.848655 152.422046 162.192453 152.92322 163.593443 152.92322 
z
" style="fill:#7a0177;"/>
   </g>
   <g id="patch_5">
    <path clip-path="url(#p1faf07c1ca)" d="M 163.593443 166.51322 
C 164.994432 166.51322 166.33823 166.012046 167.328879 165.120074 
C 168.319528 164.228102 168.876148 163.018159 168.876148 161.75672 
C 168.876148 160.495282 168.319528 159.285339 167.328879 158.393367 
C 166.33823 157.501395 164.994432 157.00022 163.593443 157.00022 
C 162.192453 157.00022 160.848655 157.501395 159.858006 158.393367 
C 158.867357 159.285339 158.310738 160.495282 158.310738 161.75672 
C 158.310738 163.018159 158.867357 164.228102 159.858006 165.120074 
C 160.848655 166.012046 162.192453 166.51322 163.593443 166.51322 
z
" style="fill:#7a0177;"/>
   </g>
   <g id="patch_6">
    <path clip-path="url(#p1faf07c1ca)" d="M 163.593443 180.10322 
C 164.994432 180.10322 166.33823 179.602046 167.328879 178.710074 
C 168.319528 177.818102 168.876148 176.608159 168.876148 175.34672 
C 168.876148 174.085282 168.319528 172.875339 167.328879 171.983367 
C 166.33823 171.091395 164.994432 170.59022 163.593443 170.59022 
C 162.192453 170.59022 160.848655 171.091395 159.858006 171.983367 
C 158.867357 172.875339 158.310738 174.085282 158.310738 175.34672 
C 158.310738 176.608159 158.867357 177.818102 159.858006 178.710074 
C 160.848655 179.602046 162.192453 180.10322 163.593443 180.10322 
z
" style="fill:#7a0177;"/>
   </g>
   <g id="patch_7">
    <path clip-path="url(#p1faf07c1ca)" d="M 163.593443 193.69322 
C 164.994432 193.69322 166.33823 193.192046 167.328879 192.300074 
C 168.319528 191.408102 168.876148 190.198159 168.876148 188.93672 
C 168.876148 187.675282 168.319528 186.465339 167.328879 185.573367 
C 166.33823 184.681395 164.994432 184.18022 163.593443 184.18022 
C 162.192453 184.18022 160.848655 184.681395 159.858006 185.573367 
C 158.867357 186.465339 158.310738 187.675282 158.310738 188.93672 
C 158.310738 190.198159 158.867357 191.408102 159.858006 192.300074 
C 160.848655 193.192046 162.192453 193.69322 163.593443 193.69322 
z
" style="fill:#7a0177;"/>
   </g>
   <g id="patch_8">
    <path clip-path="url(#p1faf07c1ca)" d="M 163.593443 207.28322 
C 164.994432 207.28322 166.33823 206.782046 167.328879 205.890074 
C 168.319528 204.998102 168.876148 203.788159 168.876148 202.52672 
C 168.876148 201.265282 168.319528 200.055339 167.328879 199.163367 
C 166.33823 198.271395 164.994432 197.77022 163.593443 197.77022 
C 162.192453 197.77022 160.848655 198.271395 159.858006 199.163367 
C 158.867357 200.055339 158.310738 201.265282 158.310738 202.52672 
C 158.310738 203.788159 158.867357 204.998102 159.858006 205.890074 
C 160.848655 206.782046 162.192453 207.28322 163.593443 207.28322 
z
" style="fill:#7a0177;"/>
   </g>
   <g id="patch_9">
    <path clip-path="url(#p1faf07c1ca)" d="M 163.593443 220.87322 
C 164.994432 220.87322 166.33823 220.372046 167.328879 219.480074 
C 168.319528 218.588102 168.876148 217.378159 168.876148 216.11672 
C 168.876148 214.855282 168.319528 213.645339 167.328879 212.753367 
C 166.33823 211.861395 164.994432 211.36022 163.593443 211.36022 
C 162.192453 211.36022 160.848655 211.861395 159.858006 212.753367 
C 158.867357 213.645339 158.310738 214.855282 158.310738 216.11672 
C 158.310738 217.378159 158.867357 218.588102 159.858006 219.480074 
C 160.848655 220.372046 162.192453 220.87322 163.593443 220.87322 
z
" style="fill:#7a0177;"/>
   </g>
   <g id="patch_10">
    <path clip-path="url(#p1faf07c1ca)" d="M 163.593443 234.46322 
C 164.994432 234.46322 166.33823 233.962046 167.328879 233.070074 
C 168.319528 232.178102 168.876148 230.968159 168.876148 229.70672 
C 168.876148 228.445282 168.319528 227.235339 167.328879 226.343367 
C 166.33823 225.451395 164.994432 224.95022 163.593443 224.95022 
C 162.192453 224.95022 160.848655 225.451395 159.858006 226.343367 
C 158.867357 227.235339 158.310738 228.445282 158.310738 229.70672 
C 158.310738 230.968159 158.867357 232.178102 159.858006 233.070074 
C 160.848655 233.962046 162.192453 234.46322 163.593443 234.46322 
z
" style="fill:#7a0177;"/>
   </g>
   <g id="patch_11">
    <path clip-path="url(#p1faf07c1ca)" d="M 163.593443 248.05322 
C 164.994432 248.05322 166.33823 247.552046 167.328879 246.660074 
C 168.319528 245.768102 168.876148 244.558159 168.876148 243.29672 
C 168.876148 242.035282 168.319528 240.825339 167.328879 239.933367 
C 166.33823 239.041395 164.994432 238.54022 163.593443 238.54022 
C 162.192453 238.54022 160.848655 239.041395 159.858006 239.933367 
C 158.867357 240.825339 158.310738 242.035282 158.310738 243.29672 
C 158.310738 244.558159 158.867357 245.768102 159.858006 246.660074 
C 160.848655 247.552046 162.192453 248.05322 163.593443 248.05322 
z
" style="fill:#7a0177;"/>
   </g>
   <g id="patch_12">
    <path clip-path="url(#p1faf07c1ca)" d="M 163.593443 261.64322 
C 164.994432 261.64322 166.33823 261.142046 167.328879 260.250074 
C 168.319528 259.358102 168.876148 258.148159 168.876148 256.88672 
C 168.876148 255.625282 168.319528 254.415339 167.328879 253.523367 
C 166.33823 252.631395 164.994432 252.13022 163.593443 252.13022 
C 162.192453 252.13022 160.848655 252.631395 159.858006 253.523367 
C 158.867357 254.415339 158.310738 255.625282 158.310738 256.88672 
C 158.310738 258.148159 158.867357 259.358102 159.858006 260.250074 
C 160.848655 261.142046 162.192453 261.64322 163.593443 261.64322 
z
" style="fill:#7a0177;"/>
   </g>
   <g id="patch_13">
    <path clip-path="url(#p1faf07c1ca)" d="M 163.593443 275.23322 
C 164.994432 275.23322 166.33823 274.732046 167.328879 273.840074 
C 168.319528 272.948102 168.876148 271.738159 168.876148 270.47672 
C 168.876148 269.215282 168.319528 268.005339 167.328879 267.113367 
C 166.33823 266.221395 164.994432 265.72022 163.593443 265.72022 
C 162.192453 265.72022 160.848655 266.221395 159.858006 267.113367 
C 158.867357 268.005339 158.310738 269.215282 158.310738 270.47672 
C 158.310738 271.738159 158.867357 272.948102 159.858006 273.840074 
C 160.848655 274.732046 162.192453 275.23322 163.593443 275.23322 
z
" style="fill:#7a0177;"/>
   </g>
   <g id="patch_14">
    <path clip-path="url(#p1faf07c1ca)" d="M 163.593443 288.82322 
C 164.994432 288.82322 166.33823 288.322046 167.328879 287.430074 
C 168.319528 286.538102 168.876148 285.328159 168.876148 284.06672 
C 168.876148 282.805282 168.319528 281.595339 167.328879 280.703367 
C 166.33823 279.811395 164.994432 279.31022 163.593443 279.31022 
C 162.192453 279.31022 160.848655 279.811395 159.858006 280.703367 
C 158.867357 281.595339 158.310738 282.805282 158.310738 284.06672 
C 158.310738 285.328159 158.867357 286.538102 159.858006 287.430074 
C 160.848655 288.322046 162.192453 288.82322 163.593443 288.82322 
z
" style="fill:#7a0177;"/>
   </g>
   <g id="patch_15">
    <path clip-path="url(#p1faf07c1ca)" d="M 163.593443 302.41322 
C 164.994432 302.41322 166.33823 301.912046 167.328879 301.020074 
C 168.319528 300.128102 168.876148 298.918159 168.876148 297.65672 
C 168.876148 296.395282 168.319528 295.185339 167.328879 294.293367 
C 166.33823 293.401395 164.994432 292.90022 163.593443 292.90022 
C 162.192453 292.90022 160.848655 293.401395 159.858006 294.293367 
C 158.867357 295.185339 158.310738 296.395282 158.310738 297.65672 
C 158.310738 298.918159 158.867357 300.128102 159.858006 301.020074 
C 160.848655 301.912046 162.192453 302.41322 163.593443 302.41322 
z
" style="fill:#7a0177;"/>
   </g>
   <g id="patch_16">
    <path clip-path="url(#p1faf07c1ca)" d="M 163.593443 316.00322 
C 164.994432 316.00322 166.33823 315.502046 167.328879 314.610074 
C 168.319528 313.718102 168.876148 312.508159 168.876148 311.24672 
C 168.876148 309.985282 168.319528 308.775339 167.328879 307.883367 
C 166.33823 306.991395 164.994432 306.49022 163.593443 306.49022 
C 162.192453 306.49022 160.848655 306.991395 159.858006 307.883367 
C 158.867357 308.775339 158.310738 309.985282 158.310738 311.24672 
C 158.310738 312.508159 158.867357 313.718102 159.858006 314.610074 
C 160.848655 315.502046 162.192453 316.00322 163.593443 316.00322 
z
" style="fill:#7a0177;"/>
   </g>
   <g id="patch_17">
    <path clip-path="url(#p1faf07c1ca)" d="M 163.593443 329.59322 
C 164.994432 329.59322 166.33823 329.092046 167.328879 328.200074 
C 168.319528 327.308102 168.876148 326.098159 168.876148 324.83672 
C 168.876148 323.575282 168.319528 322.365339 167.328879 321.473367 
C 166.33823 320.581395 164.994432 320.08022 163.593443 320.08022 
C 162.192453 320.08022 160.848655 320.581395 159.858006 321.473367 
C 158.867357 322.365339 158.310738 323.575282 158.310738 324.83672 
C 158.310738 326.098159 158.867357 327.308102 159.858006 328.200074 
C 160.848655 329.092046 162.192453 329.59322 163.593443 329.59322 
z
" style="fill:#7a0177;"/>
   </g>
   <g id="patch_18">
    <path clip-path="url(#p1faf07c1ca)" d="M 163.593443 343.18322 
C 164.994432 343.18322 166.33823 342.682046 167.328879 341.790074 
C 168.319528 340.898102 168.876148 339.688159 168.876148 338.42672 
C 168.876148 337.165282 168.319528 335.955339 167.328879 335.063367 
C 166.33823 334.171395 164.994432 333.67022 163.593443 333.67022 
C 162.192453 333.67022 160.848655 334.171395 159.858006 335.063367 
C 158.867357 335.955339 158.310738 337.165282 158.310738 338.42672 
C 158.310738 339.688159 158.867357 340.898102 159.858006 341.790074 
C 160.848655 342.682046 162.192453 343.18322 163.593443 343.18322 
z
" style="fill:#7a0177;"/>
   </g>
   <g id="patch_19">
    <path clip-path="url(#p1faf07c1ca)" d="M 163.593443 356.77322 
C 164.994432 356.77322 166.33823 356.272046 167.328879 355.380074 
C 168.319528 354.488102 168.876148 353.278159 168.876148 352.01672 
C 168.876148 350.755282 168.319528 349.545339 167.328879 348.653367 
C 166.33823 347.761395 164.994432 347.26022 163.593443 347.26022 
C 162.192453 347.26022 160.848655 347.761395 159.858006 348.653367 
C 158.867357 349.545339 158.310738 350.755282 158.310738 352.01672 
C 158.310738 353.278159 158.867357 354.488102 159.858006 355.380074 
C 160.848655 356.272046 162.192453 356.77322 163.593443 356.77322 
z
" style="fill:#7a0177;"/>
   </g>
   <g id="patch_20">
    <path clip-path="url(#p1faf07c1ca)" d="M 163.593443 370.36322 
C 164.994432 370.36322 166.33823 369.862046 167.328879 368.970074 
C 168.319528 368.078102 168.876148 366.868159 168.876148 365.60672 
C 168.876148 364.345282 168.319528 363.135339 167.328879 362.243367 
C 166.33823 361.351395 164.994432 360.85022 163.593443 360.85022 
C 162.192453 360.85022 160.848655 361.351395 159.858006 362.243367 
C 158.867357 363.135339 158.310738 364.345282 158.310738 365.60672 
C 158.310738 366.868159 158.867357 368.078102 159.858006 368.970074 
C 160.848655 369.862046 162.192453 370.36322 163.593443 370.36322 
z
" style="fill:#7a0177;"/>
   </g>
   <g id="patch_21">
    <path clip-path="url(#p1faf07c1ca)" d="M 163.593443 383.95322 
C 164.994432 383.95322 166.33823 383.452046 167.328879 382.560074 
C 168.319528 381.668102 168.876148 380.458159 168.876148 379.19672 
C 168.876148 377.935282 168.319528 376.725339 167.328879 375.833367 
C 166.33823 374.941395 164.994432 374.44022 163.593443 374.44022 
C 162.192453 374.44022 160.848655 374.941395 159.858006 375.833367 
C 158.867357 376.725339 158.310738 377.935282 158.310738 379.19672 
C 158.310738 380.458159 158.867357 381.668102 159.858006 382.560074 
C 160.848655 383.452046 162.192453 383.95322 163.593443 383.95322 
z
" style="fill:#7a0177;"/>
   </g>
   <g id="patch_22">
    <path clip-path="url(#p1faf07c1ca)" d="M 163.593443 397.54322 
C 164.994432 397.54322 166.33823 397.042046 167.328879 396.150074 
C 168.319528 395.258102 168.876148 394.048159 168.876148 392.78672 
C 168.876148 391.525282 168.319528 390.315339 167.328879 389.423367 
C 166.33823 388.531395 164.994432 388.03022 163.593443 388.03022 
C 162.192453 388.03022 160.848655 388.531395 159.858006 389.423367 
C 158.867357 390.315339 158.310738 391.525282 158.310738 392.78672 
C 158.310738 394.048159 158.867357 395.258102 159.858006 396.150074 
C 160.848655 397.042046 162.192453 397.54322 163.593443 397.54322 
z
" style="fill:#7a0177;"/>
   </g>
   <g id="patch_23">
    <path clip-path="url(#p1faf07c1ca)" d="M 163.593443 411.13322 
C 164.994432 411.13322 166.33823 410.632046 167.328879 409.740074 
C 168.319528 408.848102 168.876148 407.638159 168.876148 406.37672 
C 168.876148 405.115282 168.319528 403.905339 167.328879 403.013367 
C 166.33823 402.121395 164.994432 401.62022 163.593443 401.62022 
C 162.192453 401.62022 160.848655 402.121395 159.858006 403.013367 
C 158.867357 403.905339 158.310738 405.115282 158.310738 406.37672 
C 158.310738 407.638159 158.867357 408.848102 159.858006 409.740074 
C 160.848655 410.632046 162.192453 411.13322 163.593443 411.13322 
z
" style="fill:#7a0177;"/>
   </g>
   <g id="patch_24">
    <path clip-path="url(#p1faf07c1ca)" d="M 163.593443 424.72322 
C 164.994432 424.72322 166.33823 424.222046 167.328879 423.330074 
C 168.319528 422.438102 168.876148 421.228159 168.876148 419.96672 
C 168.876148 418.705282 168.319528 417.495339 167.328879 416.603367 
C 166.33823 415.711395 164.994432 415.21022 163.593443 415.21022 
C 162.192453 415.21022 160.848655 415.711395 159.858006 416.603367 
C 158.867357 417.495339 158.310738 418.705282 158.310738 419.96672 
C 158.310738 421.228159 158.867357 422.438102 159.858006 423.330074 
C 160.848655 424.222046 162.192453 424.72322 163.593443 424.72322 
z
" style="fill:#feebe2;"/>
   </g>
   <g id="patch_25">
    <path clip-path="url(#p1faf07c1ca)" d="M 163.593443 438.31322 
C 164.994432 438.31322 166.33823 437.812046 167.328879 436.920074 
C 168.319528 436.028102 168.876148 434.818159 168.876148 433.55672 
C 168.876148 432.295282 168.319528 431.085339 167.328879 430.193367 
C 166.33823 429.301395 164.994432 428.80022 163.593443 428.80022 
C 162.192453 428.80022 160.848655 429.301395 159.858006 430.193367 
C 158.867357 431.085339 158.310738 432.295282 158.310738 433.55672 
C 158.310738 434.818159 158.867357 436.028102 159.858006 436.920074 
C 160.848655 437.812046 162.192453 438.31322 163.593443 438.31322 
z
" style="fill:#c51b8a;"/>
   </g>
   <g id="patch_26">
    <path clip-path="url(#p1faf07c1ca)" d="M 163.593443 447.14672 
L 163.593443 460.73672 
" style="fill:#1f77b4;stroke:#000000;stroke-linejoin:miter;"/>
   </g>
   <g id="patch_27">
    <path clip-path="url(#p1faf07c1ca)" d="M 163.593443 451.90322 
C 164.994432 451.90322 166.33823 451.402046 167.328879 450.510074 
C 168.319528 449.618102 168.876148 448.408159 168.876148 447.14672 
C 168.876148 445.885282 168.319528 444.675339 167.328879 443.783367 
C 166.33823 442.891395 164.994432 442.39022 163.593443 442.39022 
C 162.192453 442.39022 160.848655 442.891395 159.858006 443.783367 
C 158.867357 444.675339 158.310738 445.885282 158.310738 447.14672 
C 158.310738 448.408159 158.867357 449.618102 159.858006 450.510074 
C 160.848655 451.402046 162.192453 451.90322 163.593443 451.90322 
z
" style="fill:#7a0177;"/>
   </g>
   <g id="patch_28">
    <path clip-path="url(#p1faf07c1ca)" d="M 163.593443 465.49322 
C 164.994432 465.49322 166.33823 464.992046 167.328879 464.100074 
C 168.319528 463.208102 168.876148 461.998159 168.876148 460.73672 
C 168.876148 459.475282 168.319528 458.265339 167.328879 457.373367 
C 166.33823 456.481395 164.994432 455.98022 163.593443 455.98022 
C 162.192453 455.98022 160.848655 456.481395 159.858006 457.373367 
C 158.867357 458.265339 158.310738 459.475282 158.310738 460.73672 
C 158.310738 461.998159 158.867357 463.208102 159.858006 464.100074 
C 160.848655 464.992046 162.192453 465.49322 163.593443 465.49322 
z
" style="fill:#7a0177;"/>
   </g>
   <g id="patch_29">
    <path clip-path="url(#p1faf07c1ca)" d="M 163.593443 474.32672 
L 163.593443 487.91672 
" style="fill:#1f77b4;stroke:#000000;stroke-linejoin:miter;"/>
   </g>
   <g id="patch_30">
    <path clip-path="url(#p1faf07c1ca)" d="M 163.593443 479.08322 
C 164.994432 479.08322 166.33823 478.582046 167.328879 477.690074 
C 168.319528 476.798102 168.876148 475.588159 168.876148 474.32672 
C 168.876148 473.065282 168.319528 471.855339 167.328879 470.963367 
C 166.33823 470.071395 164.994432 469.57022 163.593443 469.57022 
C 162.192453 469.57022 160.848655 470.071395 159.858006 470.963367 
C 158.867357 471.855339 158.310738 473.065282 158.310738 474.32672 
C 158.310738 475.588159 158.867357 476.798102 159.858006 477.690074 
C 160.848655 478.582046 162.192453 479.08322 163.593443 479.08322 
z
" style="fill:#7a0177;"/>
   </g>
   <g id="patch_31">
    <path clip-path="url(#p1faf07c1ca)" d="M 163.593443 492.67322 
C 164.994432 492.67322 166.33823 492.172046 167.328879 491.280074 
C 168.319528 490.388102 168.876148 489.178159 168.876148 487.91672 
C 168.876148 486.655282 168.319528 485.445339 167.328879 484.553367 
C 166.33823 483.661395 164.994432 483.16022 163.593443 483.16022 
C 162.192453 483.16022 160.848655 483.661395 159.858006 484.553367 
C 158.867357 485.445339 158.310738 486.655282 158.310738 487.91672 
C 158.310738 489.178159 158.867357 490.388102 159.858006 491.280074 
C 160.848655 492.172046 162.192453 492.67322 163.593443 492.67322 
z
" style="fill:#7a0177;"/>
   </g>
   <g id="patch_32">
    <path clip-path="url(#p1faf07c1ca)" d="M 163.593443 501.50672 
L 163.593443 515.09672 
" style="fill:#1f77b4;stroke:#000000;stroke-linejoin:miter;"/>
   </g>
   <g id="patch_33">
    <path clip-path="url(#p1faf07c1ca)" d="M 163.593443 506.26322 
C 164.994432 506.26322 166.33823 505.762046 167.328879 504.870074 
C 168.319528 503.978102 168.876148 502.768159 168.876148 501.50672 
C 168.876148 500.245282 168.319528 499.035339 167.328879 498.143367 
C 166.33823 497.251395 164.994432 496.75022 163.593443 496.75022 
C 162.192453 496.75022 160.848655 497.251395 159.858006 498.143367 
C 158.867357 499.035339 158.310738 500.245282 158.310738 501.50672 
C 158.310738 502.768159 158.867357 503.978102 159.858006 504.870074 
C 160.848655 505.762046 162.192453 506.26322 163.593443 506.26322 
z
" style="fill:#7a0177;"/>
   </g>
   <g id="patch_34">
    <path clip-path="url(#p1faf07c1ca)" d="M 163.593443 519.85322 
C 164.994432 519.85322 166.33823 519.352046 167.328879 518.460074 
C 168.319528 517.568102 168.876148 516.358159 168.876148 515.09672 
C 168.876148 513.835282 168.319528 512.625339 167.328879 511.733367 
C 166.33823 510.841395 164.994432 510.34022 163.593443 510.34022 
C 162.192453 510.34022 160.848655 510.841395 159.858006 511.733367 
C 158.867357 512.625339 158.310738 513.835282 158.310738 515.09672 
C 158.310738 516.358159 158.867357 517.568102 159.858006 518.460074 
C 160.848655 519.352046 162.192453 519.85322 163.593443 519.85322 
z
" style="fill:#7a0177;"/>
   </g>
   <g id="patch_35">
    <path clip-path="url(#p1faf07c1ca)" d="M 163.593443 528.68672 
L 163.593443 542.27672 
" style="fill:#1f77b4;stroke:#000000;stroke-linejoin:miter;"/>
   </g>
   <g id="patch_36">
    <path clip-path="url(#p1faf07c1ca)" d="M 163.593443 542.27672 
L 163.593443 555.86672 
" style="fill:#1f77b4;stroke:#000000;stroke-linejoin:miter;"/>
   </g>
   <g id="patch_37">
    <path clip-path="url(#p1faf07c1ca)" d="M 163.593443 533.44322 
C 164.994432 533.44322 166.33823 532.942046 167.328879 532.050074 
C 168.319528 531.158102 168.876148 529.948159 168.876148 528.68672 
C 168.876148 527.425282 168.319528 526.215339 167.328879 525.323367 
C 166.33823 524.431395 164.994432 523.93022 163.593443 523.93022 
C 162.192453 523.93022 160.848655 524.431395 159.858006 525.323367 
C 158.867357 526.215339 158.310738 527.425282 158.310738 528.68672 
C 158.310738 529.948159 158.867357 531.158102 159.858006 532.050074 
C 160.848655 532.942046 162.192453 533.44322 163.593443 533.44322 
z
" style="fill:#c51b8a;"/>
   </g>
   <g id="patch_38">
    <path clip-path="url(#p1faf07c1ca)" d="M 163.593443 547.03322 
C 164.994432 547.03322 166.33823 546.532046 167.328879 545.640074 
C 168.319528 544.748102 168.876148 543.538159 168.876148 542.27672 
C 168.876148 541.015282 168.319528 539.805339 167.328879 538.913367 
C 166.33823 538.021395 164.994432 537.52022 163.593443 537.52022 
C 162.192453 537.52022 160.848655 538.021395 159.858006 538.913367 
C 158.867357 539.805339 158.310738 541.015282 158.310738 542.27672 
C 158.310738 543.538159 158.867357 544.748102 159.858006 545.640074 
C 160.848655 546.532046 162.192453 547.03322 163.593443 547.03322 
z
" style="fill:#c51b8a;"/>
   </g>
   <g id="patch_39">
    <path clip-path="url(#p1faf07c1ca)" d="M 163.593443 560.62322 
C 164.994432 560.62322 166.33823 560.122046 167.328879 559.230074 
C 168.319528 558.338102 168.876148 557.128159 168.876148 555.86672 
C 168.876148 554.605282 168.319528 553.395339 167.328879 552.503367 
C 166.33823 551.611395 164.994432 551.11022 163.593443 551.11022 
C 162.192453 551.11022 160.848655 551.611395 159.858006 552.503367 
C 158.867357 553.395339 158.310738 554.605282 158.310738 555.86672 
C 158.310738 557.128159 158.867357 558.338102 159.858006 559.230074 
C 160.848655 560.122046 162.192453 560.62322 163.593443 560.62322 
z
" style="fill:#feebe2;"/>
   </g>
   <g id="patch_40">
    <path clip-path="url(#p1faf07c1ca)" d="M 163.593443 569.45672 
L 163.593443 596.63672 
" style="fill:#1f77b4;stroke:#000000;stroke-linejoin:miter;"/>
   </g>
   <g id="patch_41">
    <path clip-path="url(#p1faf07c1ca)" d="M 163.593443 569.45672 
L 163.593443 583.04672 
" style="fill:#1f77b4;stroke:#000000;stroke-linejoin:miter;"/>
   </g>
   <g id="patch_42">
    <path clip-path="url(#p1faf07c1ca)" d="M 163.593443 583.04672 
L 163.593443 610.22672 
" style="fill:#1f77b4;stroke:#000000;stroke-linejoin:miter;"/>
   </g>
   <g id="patch_43">
    <path clip-path="url(#p1faf07c1ca)" d="M 163.593443 574.21322 
C 164.994432 574.21322 166.33823 573.712046 167.328879 572.820074 
C 168.319528 571.928102 168.876148 570.718159 168.876148 569.45672 
C 168.876148 568.195282 168.319528 566.985339 167.328879 566.093367 
C 166.33823 565.201395 164.994432 564.70022 163.593443 564.70022 
C 162.192453 564.70022 160.848655 565.201395 159.858006 566.093367 
C 158.867357 566.985339 158.310738 568.195282 158.310738 569.45672 
C 158.310738 570.718159 158.867357 571.928102 159.858006 572.820074 
C 160.848655 573.712046 162.192453 574.21322 163.593443 574.21322 
z
" style="fill:#7a0177;"/>
   </g>
   <g id="patch_44">
    <path clip-path="url(#p1faf07c1ca)" d="M 163.593443 587.80322 
C 164.994432 587.80322 166.33823 587.302046 167.328879 586.410074 
C 168.319528 585.518102 168.876148 584.308159 168.876148 583.04672 
C 168.876148 581.785282 168.319528 580.575339 167.328879 579.683367 
C 166.33823 578.791395 164.994432 578.29022 163.593443 578.29022 
C 162.192453 578.29022 160.848655 578.791395 159.858006 579.683367 
C 158.867357 580.575339 158.310738 581.785282 158.310738 583.04672 
C 158.310738 584.308159 158.867357 585.518102 159.858006 586.410074 
C 160.848655 587.302046 162.192453 587.80322 163.593443 587.80322 
z
" style="fill:#7a0177;"/>
   </g>
   <g id="patch_45">
    <path clip-path="url(#p1faf07c1ca)" d="M 163.593443 601.39322 
C 164.994432 601.39322 166.33823 600.892046 167.328879 600.000074 
C 168.319528 599.108102 168.876148 597.898159 168.876148 596.63672 
C 168.876148 595.375282 168.319528 594.165339 167.328879 593.273367 
C 166.33823 592.381395 164.994432 591.88022 163.593443 591.88022 
C 162.192453 591.88022 160.848655 592.381395 159.858006 593.273367 
C 158.867357 594.165339 158.310738 595.375282 158.310738 596.63672 
C 158.310738 597.898159 158.867357 599.108102 159.858006 600.000074 
C 160.848655 600.892046 162.192453 601.39322 163.593443 601.39322 
z
" style="fill:#7a0177;"/>
   </g>
   <g id="patch_46">
    <path clip-path="url(#p1faf07c1ca)" d="M 163.593443 614.98322 
C 164.994432 614.98322 166.33823 614.482046 167.328879 613.590074 
C 168.319528 612.698102 168.876148 611.488159 168.876148 610.22672 
C 168.876148 608.965282 168.319528 607.755339 167.328879 606.863367 
C 166.33823 605.971395 164.994432 605.47022 163.593443 605.47022 
C 162.192453 605.47022 160.848655 605.971395 159.858006 606.863367 
C 158.867357 607.755339 158.310738 608.965282 158.310738 610.22672 
C 158.310738 611.488159 158.867357 612.698102 159.858006 613.590074 
C 160.848655 614.482046 162.192453 614.98322 163.593443 614.98322 
z
" style="fill:#7a0177;"/>
   </g>
   <g id="patch_47">
    <path clip-path="url(#p1faf07c1ca)" d="M 163.593443 623.971224 
L 186.233607 623.81672 
" style="fill:#1f77b4;stroke:#000000;stroke-linejoin:miter;"/>
   </g>
   <g id="patch_48">
    <path clip-path="url(#p1faf07c1ca)" d="M 163.593443 623.971224 
L 175.066835 644.20172 
" style="fill:#1f77b4;stroke:#000000;stroke-linejoin:miter;"/>
   </g>
   <g id="patch_49">
    <path clip-path="url(#p1faf07c1ca)" d="M 186.233607 623.81672 
L 175.066835 644.20172 
" style="fill:#1f77b4;stroke:#000000;stroke-linejoin:miter;"/>
   </g>
   <g id="patch_50">
    <path clip-path="url(#p1faf07c1ca)" d="M 163.593443 628.727724 
C 164.994432 628.727724 166.33823 628.226549 167.328879 627.334577 
C 168.319528 626.442606 168.876148 625.232663 168.876148 623.971224 
C 168.876148 622.709786 168.319528 621.499842 167.328879 620.607871 
C 166.33823 619.715899 164.994432 619.214724 163.593443 619.214724 
C 162.192453 619.214724 160.848655 619.715899 159.858006 620.607871 
C 158.867357 621.499842 158.310738 622.709786 158.310738 623.971224 
C 158.310738 625.232663 158.867357 626.442606 159.858006 627.334577 
C 160.848655 628.226549 162.192453 628.727724 163.593443 628.727724 
z
" style="fill:#7a0177;"/>
   </g>
   <g id="patch_51">
    <path clip-path="url(#p1faf07c1ca)" d="M 186.233607 628.57322 
C 187.634596 628.57322 188.978394 628.072046 189.969043 627.180074 
C 190.959692 626.288102 191.516311 625.078159 191.516311 623.81672 
C 191.516311 622.555282 190.959692 621.345339 189.969043 620.453367 
C 188.978394 619.561395 187.634596 619.06022 186.233607 619.06022 
C 184.832617 619.06022 183.488819 619.561395 182.49817 620.453367 
C 181.507521 621.345339 180.950902 622.555282 180.950902 623.81672 
C 180.950902 625.078159 181.507521 626.288102 182.49817 627.180074 
C 183.488819 628.072046 184.832617 628.57322 186.233607 628.57322 
z
" style="fill:#7a0177;"/>
   </g>
   <g id="patch_52">
    <path clip-path="url(#p1faf07c1ca)" d="M 175.066835 648.95822 
C 176.467824 648.95822 177.811622 648.457046 178.802271 647.565074 
C 179.79292 646.673102 180.34954 645.463159 180.34954 644.20172 
C 180.34954 642.940282 179.79292 641.730339 178.802271 640.838367 
C 177.811622 639.946395 176.467824 639.44522 175.066835 639.44522 
C 173.665845 639.44522 172.322048 639.946395 171.331398 640.838367 
C 170.340749 641.730339 169.78413 642.940282 169.78413 644.20172 
C 169.78413 645.463159 170.340749 646.673102 171.331398 647.565074 
C 172.322048 648.457046 173.665845 648.95822 175.066835 648.95822 
z
" style="fill:#7a0177;"/>
   </g>
   <g id="patch_53">
    <path clip-path="url(#p1faf07c1ca)" d="M 163.593443 669.993107 
L 181.549818 674.762534 
" style="fill:#1f77b4;stroke:#000000;stroke-linejoin:miter;"/>
   </g>
   <g id="patch_54">
    <path clip-path="url(#p1faf07c1ca)" d="M 163.593443 669.993107 
L 176.544942 657.79172 
" style="fill:#1f77b4;stroke:#000000;stroke-linejoin:miter;"/>
   </g>
   <g id="patch_55">
    <path clip-path="url(#p1faf07c1ca)" d="M 181.549818 674.762534 
L 176.544942 657.79172 
" style="fill:#1f77b4;stroke:#000000;stroke-linejoin:miter;"/>
   </g>
   <g id="patch_56">
    <path clip-path="url(#p1faf07c1ca)" d="M 181.549818 674.762534 
L 194.620304 687.46414 
" style="fill:#1f77b4;stroke:#000000;stroke-linejoin:miter;"/>
   </g>
   <g id="patch_57">
    <path clip-path="url(#p1faf07c1ca)" d="M 194.620304 687.46414 
L 208.87377 698.56172 
" style="fill:#1f77b4;stroke:#000000;stroke-linejoin:miter;"/>
   </g>
   <g id="patch_58">
    <path clip-path="url(#p1faf07c1ca)" d="M 163.593443 674.749607 
C 164.994432 674.749607 166.33823 674.248433 167.328879 673.356461 
C 168.319528 672.464489 168.876148 671.254546 168.876148 669.993107 
C 168.876148 668.731669 168.319528 667.521726 167.328879 666.629754 
C 166.33823 665.737782 164.994432 665.236607 163.593443 665.236607 
C 162.192453 665.236607 160.848655 665.737782 159.858006 666.629754 
C 158.867357 667.521726 158.310738 668.731669 158.310738 669.993107 
C 158.310738 671.254546 158.867357 672.464489 159.858006 673.356461 
C 160.848655 674.248433 162.192453 674.749607 163.593443 674.749607 
z
" style="fill:#7a0177;"/>
   </g>
   <g id="patch_59">
    <path clip-path="url(#p1faf07c1ca)" d="M 181.549818 679.519034 
C 182.950807 679.519034 184.294605 679.01786 185.285254 678.125888 
C 186.275904 677.233916 186.832523 676.023973 186.832523 674.762534 
C 186.832523 673.501096 186.275904 672.291153 185.285254 671.399181 
C 184.294605 670.507209 182.950807 670.006034 181.549818 670.006034 
C 180.148828 670.006034 178.805031 670.507209 177.814381 671.399181 
C 176.823732 672.291153 176.267113 673.501096 176.267113 674.762534 
C 176.267113 676.023973 176.823732 677.233916 177.814381 678.125888 
C 178.805031 679.01786 180.148828 679.519034 181.549818 679.519034 
z
" style="fill:#7a0177;"/>
   </g>
   <g id="patch_60">
    <path clip-path="url(#p1faf07c1ca)" d="M 194.620304 692.22064 
C 196.021294 692.22064 197.365091 691.719465 198.355741 690.827494 
C 199.34639 689.935522 199.903009 688.725579 199.903009 687.46414 
C 199.903009 686.202702 199.34639 684.992758 198.355741 684.100787 
C 197.365091 683.208815 196.021294 682.70764 194.620304 682.70764 
C 193.219314 682.70764 191.875517 683.208815 190.884868 684.100787 
C 189.894218 684.992758 189.337599 686.202702 189.337599 687.46414 
C 189.337599 688.725579 189.894218 689.935522 190.884868 690.827494 
C 191.875517 691.719465 193.219314 692.22064 194.620304 692.22064 
z
" style="fill:#7a0177;"/>
   </g>
   <g id="patch_61">
    <path clip-path="url(#p1faf07c1ca)" d="M 176.544942 662.54822 
C 177.945931 662.54822 179.289729 662.047046 180.280378 661.155074 
C 181.271027 660.263102 181.827647 659.053159 181.827647 657.79172 
C 181.827647 656.530282 181.271027 655.320339 180.280378 654.428367 
C 179.289729 653.536395 177.945931 653.03522 176.544942 653.03522 
C 175.143952 653.03522 173.800154 653.536395 172.809505 654.428367 
C 171.818856 655.320339 171.262237 656.530282 171.262237 657.79172 
C 171.262237 659.053159 171.818856 660.263102 172.809505 661.155074 
C 173.800154 662.047046 175.143952 662.54822 176.544942 662.54822 
z
" style="fill:#7a0177;"/>
   </g>
   <g id="patch_62">
    <path clip-path="url(#p1faf07c1ca)" d="M 208.87377 703.31822 
C 210.27476 703.31822 211.618558 702.817046 212.609207 701.925074 
C 213.599856 701.033102 214.156475 699.823159 214.156475 698.56172 
C 214.156475 697.300282 213.599856 696.090339 212.609207 695.198367 
C 211.618558 694.306395 210.27476 693.80522 208.87377 693.80522 
C 207.472781 693.80522 206.128983 694.306395 205.138334 695.198367 
C 204.147685 696.090339 203.591066 697.300282 203.591066 698.56172 
C 203.591066 699.823159 204.147685 701.033102 205.138334 701.925074 
C 206.128983 702.817046 207.472781 703.31822 208.87377 703.31822 
z
" style="fill:#7a0177;"/>
   </g>
   <g id="patch_63">
    <path clip-path="url(#p1faf07c1ca)" d="M 212.920213 773.766773 
L 239.588698 790.480228 
" style="fill:#1f77b4;stroke:#000000;stroke-linejoin:miter;"/>
   </g>
   <g id="patch_64">
    <path clip-path="url(#p1faf07c1ca)" d="M 212.920213 773.766773 
L 215.988103 782.962402 
" style="fill:#1f77b4;stroke:#000000;stroke-linejoin:miter;"/>
   </g>
   <g id="patch_65">
    <path clip-path="url(#p1faf07c1ca)" d="M 212.920213 773.766773 
L 176.174601 775.9874 
" style="fill:#1f77b4;stroke:#000000;stroke-linejoin:miter;"/>
   </g>
   <g id="patch_66">
    <path clip-path="url(#p1faf07c1ca)" d="M 212.920213 773.766773 
L 254.919632 774.064014 
" style="fill:#1f77b4;stroke:#000000;stroke-linejoin:miter;"/>
   </g>
   <g id="patch_67">
    <path clip-path="url(#p1faf07c1ca)" d="M 212.920213 773.766773 
L 172.619236 785.248871 
" style="fill:#1f77b4;stroke:#000000;stroke-linejoin:miter;"/>
   </g>
   <g id="patch_68">
    <path clip-path="url(#p1faf07c1ca)" d="M 212.920213 773.766773 
L 211.930645 756.549236 
" style="fill:#1f77b4;stroke:#000000;stroke-linejoin:miter;"/>
   </g>
   <g id="patch_69">
    <path clip-path="url(#p1faf07c1ca)" d="M 212.920213 773.766773 
L 198.353599 790.52257 
" style="fill:#1f77b4;stroke:#000000;stroke-linejoin:miter;"/>
   </g>
   <g id="patch_70">
    <path clip-path="url(#p1faf07c1ca)" d="M 236.672968 727.293228 
L 199.643862 724.310232 
" style="fill:#1f77b4;stroke:#000000;stroke-linejoin:miter;"/>
   </g>
   <g id="patch_71">
    <path clip-path="url(#p1faf07c1ca)" d="M 236.672968 727.293228 
L 211.460644 740.178752 
" style="fill:#1f77b4;stroke:#000000;stroke-linejoin:miter;"/>
   </g>
   <g id="patch_72">
    <path clip-path="url(#p1faf07c1ca)" d="M 236.672968 727.293228 
L 230.649728 712.15172 
" style="fill:#1f77b4;stroke:#000000;stroke-linejoin:miter;"/>
   </g>
   <g id="patch_73">
    <path clip-path="url(#p1faf07c1ca)" d="M 172.619236 785.248871 
L 215.988103 782.962402 
" style="fill:#1f77b4;stroke:#000000;stroke-linejoin:miter;"/>
   </g>
   <g id="patch_74">
    <path clip-path="url(#p1faf07c1ca)" d="M 172.619236 785.248871 
L 176.174601 775.9874 
" style="fill:#1f77b4;stroke:#000000;stroke-linejoin:miter;"/>
   </g>
   <g id="patch_75">
    <path clip-path="url(#p1faf07c1ca)" d="M 172.619236 785.248871 
L 198.353599 790.52257 
" style="fill:#1f77b4;stroke:#000000;stroke-linejoin:miter;"/>
   </g>
   <g id="patch_76">
    <path clip-path="url(#p1faf07c1ca)" d="M 215.988103 782.962402 
L 239.588698 790.480228 
" style="fill:#1f77b4;stroke:#000000;stroke-linejoin:miter;"/>
   </g>
   <g id="patch_77">
    <path clip-path="url(#p1faf07c1ca)" d="M 215.988103 782.962402 
L 176.174601 775.9874 
" style="fill:#1f77b4;stroke:#000000;stroke-linejoin:miter;"/>
   </g>
   <g id="patch_78">
    <path clip-path="url(#p1faf07c1ca)" d="M 215.988103 782.962402 
L 254.919632 774.064014 
" style="fill:#1f77b4;stroke:#000000;stroke-linejoin:miter;"/>
   </g>
   <g id="patch_79">
    <path clip-path="url(#p1faf07c1ca)" d="M 215.988103 782.962402 
L 198.353599 790.52257 
" style="fill:#1f77b4;stroke:#000000;stroke-linejoin:miter;"/>
   </g>
   <g id="patch_80">
    <path clip-path="url(#p1faf07c1ca)" d="M 211.930645 756.549236 
L 211.460644 740.178752 
" style="fill:#1f77b4;stroke:#000000;stroke-linejoin:miter;"/>
   </g>
   <g id="patch_81">
    <path clip-path="url(#p1faf07c1ca)" d="M 163.593443 715.177058 
L 199.643862 724.310232 
" style="fill:#1f77b4;stroke:#000000;stroke-linejoin:miter;"/>
   </g>
   <g id="patch_82">
    <path clip-path="url(#p1faf07c1ca)" d="M 264.843334 803.316212 
L 239.588698 790.480228 
" style="fill:#1f77b4;stroke:#000000;stroke-linejoin:miter;"/>
   </g>
   <g id="patch_83">
    <path clip-path="url(#p1faf07c1ca)" d="M 239.588698 790.480228 
L 198.353599 790.52257 
" style="fill:#1f77b4;stroke:#000000;stroke-linejoin:miter;"/>
   </g>
   <g id="patch_84">
    <path clip-path="url(#p1faf07c1ca)" d="M 199.643862 724.310232 
L 211.460644 740.178752 
" style="fill:#1f77b4;stroke:#000000;stroke-linejoin:miter;"/>
   </g>
   <g id="patch_85">
    <path clip-path="url(#p1faf07c1ca)" d="M 199.643862 724.310232 
L 230.649728 712.15172 
" style="fill:#1f77b4;stroke:#000000;stroke-linejoin:miter;"/>
   </g>
   <g id="patch_86">
    <path clip-path="url(#p1faf07c1ca)" d="M 198.353599 790.52257 
L 176.174601 775.9874 
" style="fill:#1f77b4;stroke:#000000;stroke-linejoin:miter;"/>
   </g>
   <g id="patch_87">
    <path clip-path="url(#p1faf07c1ca)" d="M 212.920213 778.523273 
C 214.321202 778.523273 215.665 778.022098 216.655649 777.130126 
C 217.646298 776.238155 218.202918 775.028212 218.202918 773.766773 
C 218.202918 772.505334 217.646298 771.295391 216.655649 770.40342 
C 215.665 769.511448 214.321202 769.010273 212.920213 769.010273 
C 211.519223 769.010273 210.175425 769.511448 209.184776 770.40342 
C 208.194127 771.295391 207.637508 772.505334 207.637508 773.766773 
C 207.637508 775.028212 208.194127 776.238155 209.184776 777.130126 
C 210.175425 778.022098 211.519223 778.523273 212.920213 778.523273 
z
" style="fill:#7a0177;"/>
   </g>
   <g id="patch_88">
    <path clip-path="url(#p1faf07c1ca)" d="M 236.672968 732.049728 
C 238.073958 732.049728 239.417755 731.548553 240.408404 730.656581 
C 241.399054 729.764609 241.955673 728.554666 241.955673 727.293228 
C 241.955673 726.031789 241.399054 724.821846 240.408404 723.929874 
C 239.417755 723.037903 238.073958 722.536728 236.672968 722.536728 
C 235.271978 722.536728 233.928181 723.037903 232.937531 723.929874 
C 231.946882 724.821846 231.390263 726.031789 231.390263 727.293228 
C 231.390263 728.554666 231.946882 729.764609 232.937531 730.656581 
C 233.928181 731.548553 235.271978 732.049728 236.672968 732.049728 
z
" style="fill:#7a0177;"/>
   </g>
   <g id="patch_89">
    <path clip-path="url(#p1faf07c1ca)" d="M 172.619236 790.005371 
C 174.020225 790.005371 175.364023 789.504196 176.354672 788.612224 
C 177.345322 787.720253 177.901941 786.51031 177.901941 785.248871 
C 177.901941 783.987432 177.345322 782.777489 176.354672 781.885518 
C 175.364023 780.993546 174.020225 780.492371 172.619236 780.492371 
C 171.218246 780.492371 169.874449 780.993546 168.883799 781.885518 
C 167.89315 782.777489 167.336531 783.987432 167.336531 785.248871 
C 167.336531 786.51031 167.89315 787.720253 168.883799 788.612224 
C 169.874449 789.504196 171.218246 790.005371 172.619236 790.005371 
z
" style="fill:#7a0177;"/>
   </g>
   <g id="patch_90">
    <path clip-path="url(#p1faf07c1ca)" d="M 215.988103 787.718902 
C 217.389093 787.718902 218.73289 787.217727 219.72354 786.325755 
C 220.714189 785.433783 221.270808 784.22384 221.270808 782.962402 
C 221.270808 781.700963 220.714189 780.49102 219.72354 779.599048 
C 218.73289 778.707077 217.389093 778.205902 215.988103 778.205902 
C 214.587113 778.205902 213.243316 778.707077 212.252667 779.599048 
C 211.262017 780.49102 210.705398 781.700963 210.705398 782.962402 
C 210.705398 784.22384 211.262017 785.433783 212.252667 786.325755 
C 213.243316 787.217727 214.587113 787.718902 215.988103 787.718902 
z
" style="fill:#7a0177;"/>
   </g>
   <g id="patch_91">
    <path clip-path="url(#p1faf07c1ca)" d="M 211.930645 761.305736 
C 213.331635 761.305736 214.675432 760.804562 215.666081 759.91259 
C 216.656731 759.020618 217.21335 757.810675 217.21335 756.549236 
C 217.21335 755.287798 216.656731 754.077855 215.666081 753.185883 
C 214.675432 752.293911 213.331635 751.792736 211.930645 751.792736 
C 210.529655 751.792736 209.185858 752.293911 208.195209 753.185883 
C 207.204559 754.077855 206.64794 755.287798 206.64794 756.549236 
C 206.64794 757.810675 207.204559 759.020618 208.195209 759.91259 
C 209.185858 760.804562 210.529655 761.305736 211.930645 761.305736 
z
" style="fill:#7a0177;"/>
   </g>
   <g id="patch_92">
    <path clip-path="url(#p1faf07c1ca)" d="M 163.593443 719.933558 
C 164.994432 719.933558 166.33823 719.432383 167.328879 718.540411 
C 168.319528 717.64844 168.876148 716.438497 168.876148 715.177058 
C 168.876148 713.915619 168.319528 712.705676 167.328879 711.813705 
C 166.33823 710.921733 164.994432 710.420558 163.593443 710.420558 
C 162.192453 710.420558 160.848655 710.921733 159.858006 711.813705 
C 158.867357 712.705676 158.310738 713.915619 158.310738 715.177058 
C 158.310738 716.438497 158.867357 717.64844 159.858006 718.540411 
C 160.848655 719.432383 162.192453 719.933558 163.593443 719.933558 
z
" style="fill:#7a0177;"/>
   </g>
   <g id="patch_93">
    <path clip-path="url(#p1faf07c1ca)" d="M 264.843334 808.072712 
C 266.244324 808.072712 267.588121 807.571537 268.57877 806.679565 
C 269.56942 805.787594 270.126039 804.57765 270.126039 803.316212 
C 270.126039 802.054773 269.56942 800.84483 268.57877 799.952859 
C 267.588121 799.060887 266.244324 798.559712 264.843334 798.559712 
C 263.442344 798.559712 262.098547 799.060887 261.107897 799.952859 
C 260.117248 800.84483 259.560629 802.054773 259.560629 803.316212 
C 259.560629 804.57765 260.117248 805.787594 261.107897 806.679565 
C 262.098547 807.571537 263.442344 808.072712 264.843334 808.072712 
z
" style="fill:#7a0177;"/>
   </g>
   <g id="patch_94">
    <path clip-path="url(#p1faf07c1ca)" d="M 239.588698 795.236728 
C 240.989687 795.236728 242.333485 794.735553 243.324134 793.843581 
C 244.314783 792.951609 244.871402 791.741666 244.871402 790.480228 
C 244.871402 789.218789 244.314783 788.008846 243.324134 787.116874 
C 242.333485 786.224903 240.989687 785.723728 239.588698 785.723728 
C 238.187708 785.723728 236.84391 786.224903 235.853261 787.116874 
C 234.862612 788.008846 234.305993 789.218789 234.305993 790.480228 
C 234.305993 791.741666 234.862612 792.951609 235.853261 793.843581 
C 236.84391 794.735553 238.187708 795.236728 239.588698 795.236728 
z
" style="fill:#7a0177;"/>
   </g>
   <g id="patch_95">
    <path clip-path="url(#p1faf07c1ca)" d="M 199.643862 729.066732 
C 201.044851 729.066732 202.388649 728.565557 203.379298 727.673586 
C 204.369947 726.781614 204.926567 725.571671 204.926567 724.310232 
C 204.926567 723.048794 204.369947 721.838851 203.379298 720.946879 
C 202.388649 720.054907 201.044851 719.553732 199.643862 719.553732 
C 198.242872 719.553732 196.899075 720.054907 195.908425 720.946879 
C 194.917776 721.838851 194.361157 723.048794 194.361157 724.310232 
C 194.361157 725.571671 194.917776 726.781614 195.908425 727.673586 
C 196.899075 728.565557 198.242872 729.066732 199.643862 729.066732 
z
" style="fill:#7a0177;"/>
   </g>
   <g id="patch_96">
    <path clip-path="url(#p1faf07c1ca)" d="M 198.353599 795.27907 
C 199.754589 795.27907 201.098386 794.777895 202.089036 793.885923 
C 203.079685 792.993952 203.636304 791.784008 203.636304 790.52257 
C 203.636304 789.261131 203.079685 788.051188 202.089036 787.159216 
C 201.098386 786.267245 199.754589 785.76607 198.353599 785.76607 
C 196.952609 785.76607 195.608812 786.267245 194.618163 787.159216 
C 193.627513 788.051188 193.070894 789.261131 193.070894 790.52257 
C 193.070894 791.784008 193.627513 792.993952 194.618163 793.885923 
C 195.608812 794.777895 196.952609 795.27907 198.353599 795.27907 
z
" style="fill:#7a0177;"/>
   </g>
   <g id="patch_97">
    <path clip-path="url(#p1faf07c1ca)" d="M 176.174601 780.7439 
C 177.575591 780.7439 178.919389 780.242726 179.910038 779.350754 
C 180.900687 778.458782 181.457306 777.248839 181.457306 775.9874 
C 181.457306 774.725962 180.900687 773.516019 179.910038 772.624047 
C 178.919389 771.732075 177.575591 771.2309 176.174601 771.2309 
C 174.773612 771.2309 173.429814 771.732075 172.439165 772.624047 
C 171.448516 773.516019 170.891897 774.725962 170.891897 775.9874 
C 170.891897 777.248839 171.448516 778.458782 172.439165 779.350754 
C 173.429814 780.242726 174.773612 780.7439 176.174601 780.7439 
z
" style="fill:#7a0177;"/>
   </g>
   <g id="patch_98">
    <path clip-path="url(#p1faf07c1ca)" d="M 211.460644 744.935252 
C 212.861634 744.935252 214.205431 744.434077 215.196081 743.542105 
C 216.18673 742.650134 216.743349 741.440191 216.743349 740.178752 
C 216.743349 738.917313 216.18673 737.70737 215.196081 736.815399 
C 214.205431 735.923427 212.861634 735.422252 211.460644 735.422252 
C 210.059655 735.422252 208.715857 735.923427 207.725208 736.815399 
C 206.734559 737.70737 206.177939 738.917313 206.177939 740.178752 
C 206.177939 741.440191 206.734559 742.650134 207.725208 743.542105 
C 208.715857 744.434077 210.059655 744.935252 211.460644 744.935252 
z
" style="fill:#7a0177;"/>
   </g>
   <g id="patch_99">
    <path clip-path="url(#p1faf07c1ca)" d="M 254.919632 778.820514 
C 256.320622 778.820514 257.664419 778.319339 258.655069 777.427367 
C 259.645718 776.535396 260.202337 775.325453 260.202337 774.064014 
C 260.202337 772.802575 259.645718 771.592632 258.655069 770.700661 
C 257.664419 769.808689 256.320622 769.307514 254.919632 769.307514 
C 253.518642 769.307514 252.174845 769.808689 251.184196 770.700661 
C 250.193546 771.592632 249.636927 772.802575 249.636927 774.064014 
C 249.636927 775.325453 250.193546 776.535396 251.184196 777.427367 
C 252.174845 778.319339 253.518642 778.820514 254.919632 778.820514 
z
" style="fill:#7a0177;"/>
   </g>
   <g id="patch_100">
    <path clip-path="url(#p1faf07c1ca)" d="M 230.649728 716.90822 
C 232.050718 716.90822 233.394515 716.407046 234.385164 715.515074 
C 235.375814 714.623102 235.932433 713.413159 235.932433 712.15172 
C 235.932433 710.890282 235.375814 709.680339 234.385164 708.788367 
C 233.394515 707.896395 232.050718 707.39522 230.649728 707.39522 
C 229.248738 707.39522 227.904941 707.896395 226.914291 708.788367 
C 225.923642 709.680339 225.367023 710.890282 225.367023 712.15172 
C 225.367023 713.413159 225.923642 714.623102 226.914291 715.515074 
C 227.904941 716.407046 229.248738 716.90822 230.649728 716.90822 
z
" style="fill:#7a0177;"/>
   </g>
   <g id="text_1">
    <text style="font-family:DejaVu Sans;font-size:12px;font-style:normal;font-weight:normal;text-anchor:start;" transform="rotate(-0, 169.63082, 124.025158)" x="169.63082" y="124.025158">KEGG_PHENYLALANINE_METABOLISM</text>
   </g>
   <g id="text_2">
    <text style="font-family:DejaVu Sans;font-size:12px;font-style:normal;font-weight:normal;text-anchor:start;" transform="rotate(-0, 169.63082, 137.615158)" x="169.63082" y="137.615158">KEGG_GLUTATHIONE_METABOLISM</text>
   </g>
   <g id="text_3">
    <text style="font-family:DejaVu Sans;font-size:12px;font-style:normal;font-weight:normal;text-anchor:start;" transform="rotate(-0, 169.63082, 151.205158)" x="169.63082" y="151.205158">KEGG_ARGININE_AND_PROLINE_METABOLISM</text>
   </g>
   <g id="text_4">
    <text style="font-family:DejaVu Sans;font-size:12px;font-style:normal;font-weight:normal;text-anchor:start;" transform="rotate(-0, 169.63082, 164.795158)" x="169.63082" y="164.795158">KEGG_PENTOSE_PHOSPHATE_PATHWAY</text>
   </g>
   <g id="text_5">
    <text style="font-family:DejaVu Sans;font-size:12px;font-style:normal;font-weight:normal;text-anchor:start;" transform="rotate(-0, 169.63082, 178.385158)" x="169.63082" y="178.385158">KEGG_INSULIN_SIGNALING_PATHWAY</text>
   </g>
   <g id="text_6">
    <text style="font-family:DejaVu Sans;font-size:12px;font-style:normal;font-weight:normal;text-anchor:start;" transform="rotate(-0, 169.63082, 191.975158)" x="169.63082" y="191.975158">REACTOME_REGULATION_OF_ORNITHINE_DECARBOXYLASE_ODC</text>
   </g>
   <g id="text_7">
    <text style="font-family:DejaVu Sans;font-size:12px;font-style:normal;font-weight:normal;text-anchor:start;" transform="rotate(-0, 169.63082, 205.565158)" x="169.63082" y="205.565158">KEGG_PORPHYRIN_AND_CHLOROPHYLL_METABOLISM</text>
   </g>
   <g id="text_8">
    <text style="font-family:DejaVu Sans;font-size:12px;font-style:normal;font-weight:normal;text-anchor:start;" transform="rotate(-0, 169.63082, 219.155158)" x="169.63082" y="219.155158">BIOCARTA_CHREBP2_PATHWAY</text>
   </g>
   <g id="text_9">
    <text style="font-family:DejaVu Sans;font-size:12px;font-style:normal;font-weight:normal;text-anchor:start;" transform="rotate(-0, 169.63082, 232.745158)" x="169.63082" y="232.745158">REACTOME_PURINE_METABOLISM</text>
   </g>
   <g id="text_10">
    <text style="font-family:DejaVu Sans;font-size:12px;font-style:normal;font-weight:normal;text-anchor:start;" transform="rotate(-0, 169.63082, 246.335158)" x="169.63082" y="246.335158">KEGG_ALDOSTERONE_REGULATED_SODIUM_REABSORPTION</text>
   </g>
   <g id="text_11">
    <text style="font-family:DejaVu Sans;font-size:12px;font-style:normal;font-weight:normal;text-anchor:start;" transform="rotate(-0, 169.63082, 259.925158)" x="169.63082" y="259.925158">KEGG_PEROXISOME</text>
   </g>
   <g id="text_12">
    <text style="font-family:DejaVu Sans;font-size:12px;font-style:normal;font-weight:normal;text-anchor:start;" transform="rotate(-0, 169.63082, 273.515158)" x="169.63082" y="273.515158">KEGG_NICOTINATE_AND_NICOTINAMIDE_METABOLISM</text>
   </g>
   <g id="text_13">
    <text style="font-family:DejaVu Sans;font-size:12px;font-style:normal;font-weight:normal;text-anchor:start;" transform="rotate(-0, 169.63082, 287.105158)" x="169.63082" y="287.105158">KEGG_ALANINE_ASPARTATE_AND_GLUTAMATE_METABOLISM</text>
   </g>
   <g id="text_14">
    <text style="font-family:DejaVu Sans;font-size:12px;font-style:normal;font-weight:normal;text-anchor:start;" transform="rotate(-0, 169.63082, 300.695158)" x="169.63082" y="300.695158">BIOCARTA_PTDINS_PATHWAY</text>
   </g>
   <g id="text_15">
    <text style="font-family:DejaVu Sans;font-size:12px;font-style:normal;font-weight:normal;text-anchor:start;" transform="rotate(-0, 169.63082, 314.285158)" x="169.63082" y="314.285158">PID_CERAMIDE_PATHWAY</text>
   </g>
   <g id="text_16">
    <text style="font-family:DejaVu Sans;font-size:12px;font-style:normal;font-weight:normal;text-anchor:start;" transform="rotate(-0, 169.63082, 327.875158)" x="169.63082" y="327.875158">BIOCARTA_PGC1A_PATHWAY</text>
   </g>
   <g id="text_17">
    <text style="font-family:DejaVu Sans;font-size:12px;font-style:normal;font-weight:normal;text-anchor:start;" transform="rotate(-0, 169.63082, 341.465158)" x="169.63082" y="341.465158">REACTOME_MITOCHONDRIAL_PROTEIN_IMPORT</text>
   </g>
   <g id="text_18">
    <text style="font-family:DejaVu Sans;font-size:12px;font-style:normal;font-weight:normal;text-anchor:start;" transform="rotate(-0, 169.63082, 355.055158)" x="169.63082" y="355.055158">KEGG_GLYCINE_SERINE_AND_THREONINE_METABOLISM</text>
   </g>
   <g id="text_19">
    <text style="font-family:DejaVu Sans;font-size:12px;font-style:normal;font-weight:normal;text-anchor:start;" transform="rotate(-0, 169.63082, 368.645158)" x="169.63082" y="368.645158">KEGG_PRIMARY_BILE_ACID_BIOSYNTHESIS</text>
   </g>
   <g id="text_20">
    <text style="font-family:DejaVu Sans;font-size:12px;font-style:normal;font-weight:normal;text-anchor:start;" transform="rotate(-0, 169.63082, 382.235158)" x="169.63082" y="382.235158">KEGG_GLYCOSAMINOGLYCAN_BIOSYNTHESIS_CHONDROITIN_SULFATE</text>
   </g>
   <g id="text_21">
    <text style="font-family:DejaVu Sans;font-size:12px;font-style:normal;font-weight:normal;text-anchor:start;" transform="rotate(-0, 169.63082, 395.825158)" x="169.63082" y="395.825158">BIOCARTA_PPARA_PATHWAY</text>
   </g>
   <g id="text_22">
    <text style="font-family:DejaVu Sans;font-size:12px;font-style:normal;font-weight:normal;text-anchor:start;" transform="rotate(-0, 169.63082, 409.415158)" x="169.63082" y="409.415158">KEGG_AMINO_SUGAR_AND_NUCLEOTIDE_SUGAR_METABOLISM</text>
   </g>
   <g id="text_23">
    <text style="font-family:DejaVu Sans;font-size:12px;font-style:normal;font-weight:normal;text-anchor:start;" transform="rotate(-0, 169.63082, 423.005158)" x="169.63082" y="423.005158">REACTOME_ACETYLCHOLINE_BINDING_AND_DOWNSTREAM_EVENTS</text>
   </g>
   <g id="text_24">
    <text style="font-family:DejaVu Sans;font-size:12px;font-style:normal;font-weight:normal;text-anchor:start;" transform="rotate(-0, 169.63082, 436.595158)" x="169.63082" y="436.595158">PID_GLYPICAN_1PATHWAY</text>
   </g>
   <g id="text_25">
    <text style="font-family:DejaVu Sans;font-size:12px;font-style:normal;font-weight:normal;text-anchor:start;" transform="rotate(-0, 169.63082, 450.185158)" x="169.63082" y="450.185158">KEGG_STARCH_AND_SUCROSE_METABOLISM</text>
   </g>
   <g id="text_26">
    <text style="font-family:DejaVu Sans;font-size:12px;font-style:normal;font-weight:normal;text-anchor:start;" transform="rotate(-0, 169.63082, 463.775158)" x="169.63082" y="463.775158">KEGG_GALACTOSE_METABOLISM</text>
   </g>
   <g id="text_27">
    <text style="font-family:DejaVu Sans;font-size:12px;font-style:normal;font-weight:normal;text-anchor:start;" transform="rotate(-0, 169.63082, 477.365158)" x="169.63082" y="477.365158">REACTOME_BIOLOGICAL_OXIDATIONS</text>
   </g>
   <g id="text_28">
    <text style="font-family:DejaVu Sans;font-size:12px;font-style:normal;font-weight:normal;text-anchor:start;" transform="rotate(-0, 169.63082, 490.955158)" x="169.63082" y="490.955158">REACTOME_PHASE1_FUNCTIONALIZATION_OF_COMPOUNDS</text>
   </g>
   <g id="text_29">
    <text style="font-family:DejaVu Sans;font-size:12px;font-style:normal;font-weight:normal;text-anchor:start;" transform="rotate(-0, 169.63082, 504.48422)" x="169.63082" y="504.48422">PID_RXR_VDR_PATHWAY</text>
   </g>
   <g id="text_30">
    <text style="font-family:DejaVu Sans;font-size:12px;font-style:normal;font-weight:normal;text-anchor:start;" transform="rotate(-0, 169.63082, 518.135158)" x="169.63082" y="518.135158">PID_RETINOIC_ACID_PATHWAY</text>
   </g>
   <g id="text_31">
    <text style="font-family:DejaVu Sans;font-size:12px;font-style:normal;font-weight:normal;text-anchor:start;" transform="rotate(-0, 169.63082, 531.725158)" x="169.63082" y="531.725158">REACTOME_METABOLISM_OF_CARBOHYDRATES</text>
   </g>
   <g id="text_32">
    <text style="font-family:DejaVu Sans;font-size:12px;font-style:normal;font-weight:normal;text-anchor:start;" transform="rotate(-0, 169.63082, 545.315158)" x="169.63082" y="545.315158">REACTOME_GLYCOSAMINOGLYCAN_METABOLISM</text>
   </g>
   <g id="text_33">
    <text style="font-family:DejaVu Sans;font-size:12px;font-style:normal;font-weight:normal;text-anchor:start;" transform="rotate(-0, 169.63082, 558.905158)" x="169.63082" y="558.905158">REACTOME_CHONDROITIN_SULFATE_DERMATAN_SULFATE_METABOLISM</text>
   </g>
   <g id="text_34">
    <text style="font-family:DejaVu Sans;font-size:12px;font-style:normal;font-weight:normal;text-anchor:start;" transform="rotate(-0, 169.63082, 572.495158)" x="169.63082" y="572.495158">REACTOME_PYRUVATE_METABOLISM_AND_CITRIC_ACID_TCA_CYCLE</text>
   </g>
   <g id="text_35">
    <text style="font-family:DejaVu Sans;font-size:12px;font-style:normal;font-weight:normal;text-anchor:start;" transform="rotate(-0, 169.63082, 586.085158)" x="169.63082" y="586.085158">REACTOME_TCA_CYCLE_AND_RESPIRATORY_ELECTRON_TRANSPORT</text>
   </g>
   <g id="text_36">
    <text style="font-family:DejaVu Sans;font-size:12px;font-style:normal;font-weight:normal;text-anchor:start;" transform="rotate(-0, 169.63082, 599.675158)" x="169.63082" y="599.675158">KEGG_CITRATE_CYCLE_TCA_CYCLE</text>
   </g>
   <g id="text_37">
    <text style="font-family:DejaVu Sans;font-size:12px;font-style:normal;font-weight:normal;text-anchor:start;" transform="rotate(-0, 169.63082, 613.265158)" x="169.63082" y="613.265158">KEGG_OXIDATIVE_PHOSPHORYLATION</text>
   </g>
   <g id="text_38">
    <text style="font-family:DejaVu Sans;font-size:12px;font-style:normal;font-weight:normal;text-anchor:start;" transform="rotate(-0, 169.63082, 627.009662)" x="169.63082" y="627.009662">REACTOME_HEPARAN_SULFATE_HEPARIN_HS_GAG_METABOLISM</text>
   </g>
   <g id="text_39">
    <text style="font-family:DejaVu Sans;font-size:12px;font-style:normal;font-weight:normal;text-anchor:start;" transform="rotate(-0, 192.270984, 626.855158)" x="192.270984" y="626.855158">KEGG_GLYCOSAMINOGLYCAN_BIOSYNTHESIS_HEPARAN_SULFATE</text>
   </g>
   <g id="text_40">
    <text style="font-family:DejaVu Sans;font-size:12px;font-style:normal;font-weight:normal;text-anchor:start;" transform="rotate(-0, 181.104212, 647.240158)" x="181.104212" y="647.240158">REACTOME_HS_GAG_BIOSYNTHESIS</text>
   </g>
   <g id="text_41">
    <text style="font-family:DejaVu Sans;font-size:12px;font-style:normal;font-weight:normal;text-anchor:start;" transform="rotate(-0, 169.63082, 673.031545)" x="169.63082" y="673.031545">REACTOME_FATTY_ACID_TRIACYLGLYCEROL_AND_KETONE_BODY_METABOLISM</text>
   </g>
   <g id="text_42">
    <text style="font-family:DejaVu Sans;font-size:12px;font-style:normal;font-weight:normal;text-anchor:start;" transform="rotate(-0, 187.587195, 677.800972)" x="187.587195" y="677.800972">REACTOME_METABOLISM_OF_LIPIDS_AND_LIPOPROTEINS</text>
   </g>
   <g id="text_43">
    <text style="font-family:DejaVu Sans;font-size:12px;font-style:normal;font-weight:normal;text-anchor:start;" transform="rotate(-0, 200.657681, 690.502578)" x="200.657681" y="690.502578">REACTOME_PHOSPHOLIPID_METABOLISM</text>
   </g>
   <g id="text_44">
    <text style="font-family:DejaVu Sans;font-size:12px;font-style:normal;font-weight:normal;text-anchor:start;" transform="rotate(-0, 182.582319, 660.830158)" x="182.582319" y="660.830158">REACTOME_PPARA_ACTIVATES_GENE_EXPRESSION</text>
   </g>
   <g id="text_45">
    <text style="font-family:DejaVu Sans;font-size:12px;font-style:normal;font-weight:normal;text-anchor:start;" transform="rotate(-0, 214.911148, 701.600158)" x="214.911148" y="701.600158">REACTOME_SPHINGOLIPID_METABOLISM</text>
   </g>
   <g id="text_46">
    <text style="font-family:DejaVu Sans;font-size:12px;font-style:normal;font-weight:normal;text-anchor:start;" transform="rotate(-0, 218.95759, 776.805211)" x="218.95759" y="776.805211">KEGG_PROPANOATE_METABOLISM</text>
   </g>
   <g id="text_47">
    <text style="font-family:DejaVu Sans;font-size:12px;font-style:normal;font-weight:normal;text-anchor:start;" transform="rotate(-0, 242.710345, 730.331665)" x="242.710345" y="730.331665">REACTOME_GLYCOLYSIS</text>
   </g>
   <g id="text_48">
    <text style="font-family:DejaVu Sans;font-size:12px;font-style:normal;font-weight:normal;text-anchor:start;" transform="rotate(-0, 178.656613, 788.287308)" x="178.656613" y="788.287308">KEGG_LYSINE_DEGRADATION</text>
   </g>
   <g id="text_49">
    <text style="font-family:DejaVu Sans;font-size:12px;font-style:normal;font-weight:normal;text-anchor:start;" transform="rotate(-0, 222.02548, 786.000839)" x="222.02548" y="786.000839">KEGG_BUTANOATE_METABOLISM</text>
   </g>
   <g id="text_50">
    <text style="font-family:DejaVu Sans;font-size:12px;font-style:normal;font-weight:normal;text-anchor:start;" transform="rotate(-0, 217.968022, 759.587674)" x="217.968022" y="759.587674">KEGG_PYRUVATE_METABOLISM</text>
   </g>
   <g id="text_51">
    <text style="font-family:DejaVu Sans;font-size:12px;font-style:normal;font-weight:normal;text-anchor:start;" transform="rotate(-0, 169.63082, 718.215495)" x="169.63082" y="718.215495">REACTOME_GLYCOGEN_BREAKDOWN_GLYCOGENOLYSIS</text>
   </g>
   <g id="text_52">
    <text style="font-family:DejaVu Sans;font-size:12px;font-style:normal;font-weight:normal;text-anchor:start;" transform="rotate(-0, 270.880711, 806.354649)" x="270.880711" y="806.354649">REACTOME_BRANCHED_CHAIN_AMINO_ACID_CATABOLISM</text>
   </g>
   <g id="text_53">
    <text style="font-family:DejaVu Sans;font-size:12px;font-style:normal;font-weight:normal;text-anchor:start;" transform="rotate(-0, 245.626075, 793.518665)" x="245.626075" y="793.518665">KEGG_VALINE_LEUCINE_AND_ISOLEUCINE_DEGRADATION</text>
   </g>
   <g id="text_54">
    <text style="font-family:DejaVu Sans;font-size:12px;font-style:normal;font-weight:normal;text-anchor:start;" transform="rotate(-0, 205.681239, 727.34867)" x="205.681239" y="727.34867">REACTOME_GLUCOSE_METABOLISM</text>
   </g>
   <g id="text_55">
    <text style="font-family:DejaVu Sans;font-size:12px;font-style:normal;font-weight:normal;text-anchor:start;" transform="rotate(-0, 204.390976, 793.561007)" x="204.390976" y="793.561007">KEGG_FATTY_ACID_METABOLISM</text>
   </g>
   <g id="text_56">
    <text style="font-family:DejaVu Sans;font-size:12px;font-style:normal;font-weight:normal;text-anchor:start;" transform="rotate(-0, 182.211979, 779.025838)" x="182.211979" y="779.025838">KEGG_TRYPTOPHAN_METABOLISM</text>
   </g>
   <g id="text_57">
    <text style="font-family:DejaVu Sans;font-size:12px;font-style:normal;font-weight:normal;text-anchor:start;" transform="rotate(-0, 217.498021, 743.217189)" x="217.498021" y="743.217189">KEGG_GLYCOLYSIS_GLUCONEOGENESIS</text>
   </g>
   <g id="text_58">
    <text style="font-family:DejaVu Sans;font-size:12px;font-style:normal;font-weight:normal;text-anchor:start;" transform="rotate(-0, 260.957009, 777.102452)" x="260.957009" y="777.102452">KEGG_BETA_ALANINE_METABOLISM</text>
   </g>
   <g id="text_59">
    <text style="font-family:DejaVu Sans;font-size:12px;font-style:normal;font-weight:normal;text-anchor:start;" transform="rotate(-0, 236.687105, 715.190158)" x="236.687105" y="715.190158">REACTOME_GLUCONEOGENESIS</text>
   </g>
   <g id="text_60">
    <text style="font-family:DejaVu Sans;font-size:12px;font-style:normal;font-weight:normal;text-anchor:middle;" transform="rotate(-0, 608.85, 105.47372)" x="608.85" y="105.47372">Metabolism</text>
   </g>
  </g>
 </g>
 <defs>
  <clipPath id="p1faf07c1ca">
   <rect height="701.355491" width="920.7" x="148.5" y="111.47372"/>
  </clipPath>
 </defs>
</svg>
