<?xml version="1.0" encoding="utf-8" standalone="no"?>
<!DOCTYPE svg PUBLIC "-//W3C//DTD SVG 1.1//EN"
  "http://www.w3.org/Graphics/SVG/1.1/DTD/svg11.dtd">
<!-- Created with matplotlib (https://matplotlib.org/) -->
<svg height="928.947671pt" version="1.1" viewBox="0 0 1188 928.947671" width="1188pt" xmlns="http://www.w3.org/2000/svg" xmlns:xlink="http://www.w3.org/1999/xlink">
 <defs>
  <style type="text/css">
*{stroke-linecap:butt;stroke-linejoin:round;}
  </style>
 </defs>
 <g id="figure_1">
  <g id="patch_1">
   <path d="M 0 928.947671 
L 1188 928.947671 
L 1188 0 
L 0 0 
z
" style="fill:#ffffff;"/>
  </g>
  <g id="axes_1">
   <g id="patch_2">
    <path clip-path="url(#p52da876984)" d="M 163.593443 125.74322 
C 164.994432 125.74322 166.33823 125.242046 167.328879 124.350074 
C 168.319528 123.458102 168.876148 122.248159 168.876148 120.98672 
C 168.876148 119.725282 168.319528 118.515339 167.328879 117.623367 
C 166.33823 116.731395 164.994432 116.23022 163.593443 116.23022 
C 162.192453 116.23022 160.848655 116.731395 159.858006 117.623367 
C 158.867357 118.515339 158.310738 119.725282 158.310738 120.98672 
C 158.310738 122.248159 158.867357 123.458102 159.858006 124.350074 
C 160.848655 125.242046 162.192453 125.74322 163.593443 125.74322 
z
" style="fill:#7a0177;"/>
   </g>
   <g id="patch_3">
    <path clip-path="url(#p52da876984)" d="M 163.593443 139.33322 
C 164.994432 139.33322 166.33823 138.832046 167.328879 137.940074 
C 168.319528 137.048102 168.876148 135.838159 168.876148 134.57672 
C 168.876148 133.315282 168.319528 132.105339 167.328879 131.213367 
C 166.33823 130.321395 164.994432 129.82022 163.593443 129.82022 
C 162.192453 129.82022 160.848655 130.321395 159.858006 131.213367 
C 158.867357 132.105339 158.310738 133.315282 158.310738 134.57672 
C 158.310738 135.838159 158.867357 137.048102 159.858006 137.940074 
C 160.848655 138.832046 162.192453 139.33322 163.593443 139.33322 
z
" style="fill:#7a0177;"/>
   </g>
   <g id="patch_4">
    <path clip-path="url(#p52da876984)" d="M 163.593443 152.92322 
C 164.994432 152.92322 166.33823 152.422046 167.328879 151.530074 
C 168.319528 150.638102 168.876148 149.428159 168.876148 148.16672 
C 168.876148 146.905282 168.319528 145.695339 167.328879 144.803367 
C 166.33823 143.911395 164.994432 143.41022 163.593443 143.41022 
C 162.192453 143.41022 160.848655 143.911395 159.858006 144.803367 
C 158.867357 145.695339 158.310738 146.905282 158.310738 148.16672 
C 158.310738 149.428159 158.867357 150.638102 159.858006 151.530074 
C 160.848655 152.422046 162.192453 152.92322 163.593443 152.92322 
z
" style="fill:#7a0177;"/>
   </g>
   <g id="patch_5">
    <path clip-path="url(#p52da876984)" d="M 163.593443 166.51322 
C 164.994432 166.51322 166.33823 166.012046 167.328879 165.120074 
C 168.319528 164.228102 168.876148 163.018159 168.876148 161.75672 
C 168.876148 160.495282 168.319528 159.285339 167.328879 158.393367 
C 166.33823 157.501395 164.994432 157.00022 163.593443 157.00022 
C 162.192453 157.00022 160.848655 157.501395 159.858006 158.393367 
C 158.867357 159.285339 158.310738 160.495282 158.310738 161.75672 
C 158.310738 163.018159 158.867357 164.228102 159.858006 165.120074 
C 160.848655 166.012046 162.192453 166.51322 163.593443 166.51322 
z
" style="fill:#7a0177;"/>
   </g>
   <g id="patch_6">
    <path clip-path="url(#p52da876984)" d="M 163.593443 180.10322 
C 164.994432 180.10322 166.33823 179.602046 167.328879 178.710074 
C 168.319528 177.818102 168.876148 176.608159 168.876148 175.34672 
C 168.876148 174.085282 168.319528 172.875339 167.328879 171.983367 
C 166.33823 171.091395 164.994432 170.59022 163.593443 170.59022 
C 162.192453 170.59022 160.848655 171.091395 159.858006 171.983367 
C 158.867357 172.875339 158.310738 174.085282 158.310738 175.34672 
C 158.310738 176.608159 158.867357 177.818102 159.858006 178.710074 
C 160.848655 179.602046 162.192453 180.10322 163.593443 180.10322 
z
" style="fill:#7a0177;"/>
   </g>
   <g id="patch_7">
    <path clip-path="url(#p52da876984)" d="M 163.593443 193.69322 
C 164.994432 193.69322 166.33823 193.192046 167.328879 192.300074 
C 168.319528 191.408102 168.876148 190.198159 168.876148 188.93672 
C 168.876148 187.675282 168.319528 186.465339 167.328879 185.573367 
C 166.33823 184.681395 164.994432 184.18022 163.593443 184.18022 
C 162.192453 184.18022 160.848655 184.681395 159.858006 185.573367 
C 158.867357 186.465339 158.310738 187.675282 158.310738 188.93672 
C 158.310738 190.198159 158.867357 191.408102 159.858006 192.300074 
C 160.848655 193.192046 162.192453 193.69322 163.593443 193.69322 
z
" style="fill:#7a0177;"/>
   </g>
   <g id="patch_8">
    <path clip-path="url(#p52da876984)" d="M 163.593443 207.28322 
C 164.994432 207.28322 166.33823 206.782046 167.328879 205.890074 
C 168.319528 204.998102 168.876148 203.788159 168.876148 202.52672 
C 168.876148 201.265282 168.319528 200.055339 167.328879 199.163367 
C 166.33823 198.271395 164.994432 197.77022 163.593443 197.77022 
C 162.192453 197.77022 160.848655 198.271395 159.858006 199.163367 
C 158.867357 200.055339 158.310738 201.265282 158.310738 202.52672 
C 158.310738 203.788159 158.867357 204.998102 159.858006 205.890074 
C 160.848655 206.782046 162.192453 207.28322 163.593443 207.28322 
z
" style="fill:#7a0177;"/>
   </g>
   <g id="patch_9">
    <path clip-path="url(#p52da876984)" d="M 163.593443 220.87322 
C 164.994432 220.87322 166.33823 220.372046 167.328879 219.480074 
C 168.319528 218.588102 168.876148 217.378159 168.876148 216.11672 
C 168.876148 214.855282 168.319528 213.645339 167.328879 212.753367 
C 166.33823 211.861395 164.994432 211.36022 163.593443 211.36022 
C 162.192453 211.36022 160.848655 211.861395 159.858006 212.753367 
C 158.867357 213.645339 158.310738 214.855282 158.310738 216.11672 
C 158.310738 217.378159 158.867357 218.588102 159.858006 219.480074 
C 160.848655 220.372046 162.192453 220.87322 163.593443 220.87322 
z
" style="fill:#7a0177;"/>
   </g>
   <g id="patch_10">
    <path clip-path="url(#p52da876984)" d="M 163.593443 234.46322 
C 164.994432 234.46322 166.33823 233.962046 167.328879 233.070074 
C 168.319528 232.178102 168.876148 230.968159 168.876148 229.70672 
C 168.876148 228.445282 168.319528 227.235339 167.328879 226.343367 
C 166.33823 225.451395 164.994432 224.95022 163.593443 224.95022 
C 162.192453 224.95022 160.848655 225.451395 159.858006 226.343367 
C 158.867357 227.235339 158.310738 228.445282 158.310738 229.70672 
C 158.310738 230.968159 158.867357 232.178102 159.858006 233.070074 
C 160.848655 233.962046 162.192453 234.46322 163.593443 234.46322 
z
" style="fill:#7a0177;"/>
   </g>
   <g id="patch_11">
    <path clip-path="url(#p52da876984)" d="M 163.593443 248.05322 
C 164.994432 248.05322 166.33823 247.552046 167.328879 246.660074 
C 168.319528 245.768102 168.876148 244.558159 168.876148 243.29672 
C 168.876148 242.035282 168.319528 240.825339 167.328879 239.933367 
C 166.33823 239.041395 164.994432 238.54022 163.593443 238.54022 
C 162.192453 238.54022 160.848655 239.041395 159.858006 239.933367 
C 158.867357 240.825339 158.310738 242.035282 158.310738 243.29672 
C 158.310738 244.558159 158.867357 245.768102 159.858006 246.660074 
C 160.848655 247.552046 162.192453 248.05322 163.593443 248.05322 
z
" style="fill:#7a0177;"/>
   </g>
   <g id="patch_12">
    <path clip-path="url(#p52da876984)" d="M 163.593443 261.64322 
C 164.994432 261.64322 166.33823 261.142046 167.328879 260.250074 
C 168.319528 259.358102 168.876148 258.148159 168.876148 256.88672 
C 168.876148 255.625282 168.319528 254.415339 167.328879 253.523367 
C 166.33823 252.631395 164.994432 252.13022 163.593443 252.13022 
C 162.192453 252.13022 160.848655 252.631395 159.858006 253.523367 
C 158.867357 254.415339 158.310738 255.625282 158.310738 256.88672 
C 158.310738 258.148159 158.867357 259.358102 159.858006 260.250074 
C 160.848655 261.142046 162.192453 261.64322 163.593443 261.64322 
z
" style="fill:#7a0177;"/>
   </g>
   <g id="patch_13">
    <path clip-path="url(#p52da876984)" d="M 163.593443 275.23322 
C 164.994432 275.23322 166.33823 274.732046 167.328879 273.840074 
C 168.319528 272.948102 168.876148 271.738159 168.876148 270.47672 
C 168.876148 269.215282 168.319528 268.005339 167.328879 267.113367 
C 166.33823 266.221395 164.994432 265.72022 163.593443 265.72022 
C 162.192453 265.72022 160.848655 266.221395 159.858006 267.113367 
C 158.867357 268.005339 158.310738 269.215282 158.310738 270.47672 
C 158.310738 271.738159 158.867357 272.948102 159.858006 273.840074 
C 160.848655 274.732046 162.192453 275.23322 163.593443 275.23322 
z
" style="fill:#7a0177;"/>
   </g>
   <g id="patch_14">
    <path clip-path="url(#p52da876984)" d="M 163.593443 288.82322 
C 164.994432 288.82322 166.33823 288.322046 167.328879 287.430074 
C 168.319528 286.538102 168.876148 285.328159 168.876148 284.06672 
C 168.876148 282.805282 168.319528 281.595339 167.328879 280.703367 
C 166.33823 279.811395 164.994432 279.31022 163.593443 279.31022 
C 162.192453 279.31022 160.848655 279.811395 159.858006 280.703367 
C 158.867357 281.595339 158.310738 282.805282 158.310738 284.06672 
C 158.310738 285.328159 158.867357 286.538102 159.858006 287.430074 
C 160.848655 288.322046 162.192453 288.82322 163.593443 288.82322 
z
" style="fill:#7a0177;"/>
   </g>
   <g id="patch_15">
    <path clip-path="url(#p52da876984)" d="M 163.593443 302.41322 
C 164.994432 302.41322 166.33823 301.912046 167.328879 301.020074 
C 168.319528 300.128102 168.876148 298.918159 168.876148 297.65672 
C 168.876148 296.395282 168.319528 295.185339 167.328879 294.293367 
C 166.33823 293.401395 164.994432 292.90022 163.593443 292.90022 
C 162.192453 292.90022 160.848655 293.401395 159.858006 294.293367 
C 158.867357 295.185339 158.310738 296.395282 158.310738 297.65672 
C 158.310738 298.918159 158.867357 300.128102 159.858006 301.020074 
C 160.848655 301.912046 162.192453 302.41322 163.593443 302.41322 
z
" style="fill:#7a0177;"/>
   </g>
   <g id="patch_16">
    <path clip-path="url(#p52da876984)" d="M 163.593443 316.00322 
C 164.994432 316.00322 166.33823 315.502046 167.328879 314.610074 
C 168.319528 313.718102 168.876148 312.508159 168.876148 311.24672 
C 168.876148 309.985282 168.319528 308.775339 167.328879 307.883367 
C 166.33823 306.991395 164.994432 306.49022 163.593443 306.49022 
C 162.192453 306.49022 160.848655 306.991395 159.858006 307.883367 
C 158.867357 308.775339 158.310738 309.985282 158.310738 311.24672 
C 158.310738 312.508159 158.867357 313.718102 159.858006 314.610074 
C 160.848655 315.502046 162.192453 316.00322 163.593443 316.00322 
z
" style="fill:#7a0177;"/>
   </g>
   <g id="patch_17">
    <path clip-path="url(#p52da876984)" d="M 163.593443 329.59322 
C 164.994432 329.59322 166.33823 329.092046 167.328879 328.200074 
C 168.319528 327.308102 168.876148 326.098159 168.876148 324.83672 
C 168.876148 323.575282 168.319528 322.365339 167.328879 321.473367 
C 166.33823 320.581395 164.994432 320.08022 163.593443 320.08022 
C 162.192453 320.08022 160.848655 320.581395 159.858006 321.473367 
C 158.867357 322.365339 158.310738 323.575282 158.310738 324.83672 
C 158.310738 326.098159 158.867357 327.308102 159.858006 328.200074 
C 160.848655 329.092046 162.192453 329.59322 163.593443 329.59322 
z
" style="fill:#7a0177;"/>
   </g>
   <g id="patch_18">
    <path clip-path="url(#p52da876984)" d="M 163.593443 343.18322 
C 164.994432 343.18322 166.33823 342.682046 167.328879 341.790074 
C 168.319528 340.898102 168.876148 339.688159 168.876148 338.42672 
C 168.876148 337.165282 168.319528 335.955339 167.328879 335.063367 
C 166.33823 334.171395 164.994432 333.67022 163.593443 333.67022 
C 162.192453 333.67022 160.848655 334.171395 159.858006 335.063367 
C 158.867357 335.955339 158.310738 337.165282 158.310738 338.42672 
C 158.310738 339.688159 158.867357 340.898102 159.858006 341.790074 
C 160.848655 342.682046 162.192453 343.18322 163.593443 343.18322 
z
" style="fill:#7a0177;"/>
   </g>
   <g id="patch_19">
    <path clip-path="url(#p52da876984)" d="M 163.593443 356.77322 
C 164.994432 356.77322 166.33823 356.272046 167.328879 355.380074 
C 168.319528 354.488102 168.876148 353.278159 168.876148 352.01672 
C 168.876148 350.755282 168.319528 349.545339 167.328879 348.653367 
C 166.33823 347.761395 164.994432 347.26022 163.593443 347.26022 
C 162.192453 347.26022 160.848655 347.761395 159.858006 348.653367 
C 158.867357 349.545339 158.310738 350.755282 158.310738 352.01672 
C 158.310738 353.278159 158.867357 354.488102 159.858006 355.380074 
C 160.848655 356.272046 162.192453 356.77322 163.593443 356.77322 
z
" style="fill:#7a0177;"/>
   </g>
   <g id="patch_20">
    <path clip-path="url(#p52da876984)" d="M 163.593443 370.36322 
C 164.994432 370.36322 166.33823 369.862046 167.328879 368.970074 
C 168.319528 368.078102 168.876148 366.868159 168.876148 365.60672 
C 168.876148 364.345282 168.319528 363.135339 167.328879 362.243367 
C 166.33823 361.351395 164.994432 360.85022 163.593443 360.85022 
C 162.192453 360.85022 160.848655 361.351395 159.858006 362.243367 
C 158.867357 363.135339 158.310738 364.345282 158.310738 365.60672 
C 158.310738 366.868159 158.867357 368.078102 159.858006 368.970074 
C 160.848655 369.862046 162.192453 370.36322 163.593443 370.36322 
z
" style="fill:#7a0177;"/>
   </g>
   <g id="patch_21">
    <path clip-path="url(#p52da876984)" d="M 163.593443 383.95322 
C 164.994432 383.95322 166.33823 383.452046 167.328879 382.560074 
C 168.319528 381.668102 168.876148 380.458159 168.876148 379.19672 
C 168.876148 377.935282 168.319528 376.725339 167.328879 375.833367 
C 166.33823 374.941395 164.994432 374.44022 163.593443 374.44022 
C 162.192453 374.44022 160.848655 374.941395 159.858006 375.833367 
C 158.867357 376.725339 158.310738 377.935282 158.310738 379.19672 
C 158.310738 380.458159 158.867357 381.668102 159.858006 382.560074 
C 160.848655 383.452046 162.192453 383.95322 163.593443 383.95322 
z
" style="fill:#7a0177;"/>
   </g>
   <g id="patch_22">
    <path clip-path="url(#p52da876984)" d="M 163.593443 397.54322 
C 164.994432 397.54322 166.33823 397.042046 167.328879 396.150074 
C 168.319528 395.258102 168.876148 394.048159 168.876148 392.78672 
C 168.876148 391.525282 168.319528 390.315339 167.328879 389.423367 
C 166.33823 388.531395 164.994432 388.03022 163.593443 388.03022 
C 162.192453 388.03022 160.848655 388.531395 159.858006 389.423367 
C 158.867357 390.315339 158.310738 391.525282 158.310738 392.78672 
C 158.310738 394.048159 158.867357 395.258102 159.858006 396.150074 
C 160.848655 397.042046 162.192453 397.54322 163.593443 397.54322 
z
" style="fill:#7a0177;"/>
   </g>
   <g id="patch_23">
    <path clip-path="url(#p52da876984)" d="M 163.593443 411.13322 
C 164.994432 411.13322 166.33823 410.632046 167.328879 409.740074 
C 168.319528 408.848102 168.876148 407.638159 168.876148 406.37672 
C 168.876148 405.115282 168.319528 403.905339 167.328879 403.013367 
C 166.33823 402.121395 164.994432 401.62022 163.593443 401.62022 
C 162.192453 401.62022 160.848655 402.121395 159.858006 403.013367 
C 158.867357 403.905339 158.310738 405.115282 158.310738 406.37672 
C 158.310738 407.638159 158.867357 408.848102 159.858006 409.740074 
C 160.848655 410.632046 162.192453 411.13322 163.593443 411.13322 
z
" style="fill:#7a0177;"/>
   </g>
   <g id="patch_24">
    <path clip-path="url(#p52da876984)" d="M 163.593443 424.72322 
C 164.994432 424.72322 166.33823 424.222046 167.328879 423.330074 
C 168.319528 422.438102 168.876148 421.228159 168.876148 419.96672 
C 168.876148 418.705282 168.319528 417.495339 167.328879 416.603367 
C 166.33823 415.711395 164.994432 415.21022 163.593443 415.21022 
C 162.192453 415.21022 160.848655 415.711395 159.858006 416.603367 
C 158.867357 417.495339 158.310738 418.705282 158.310738 419.96672 
C 158.310738 421.228159 158.867357 422.438102 159.858006 423.330074 
C 160.848655 424.222046 162.192453 424.72322 163.593443 424.72322 
z
" style="fill:#feebe2;"/>
   </g>
   <g id="patch_25">
    <path clip-path="url(#p52da876984)" d="M 163.593443 438.31322 
C 164.994432 438.31322 166.33823 437.812046 167.328879 436.920074 
C 168.319528 436.028102 168.876148 434.818159 168.876148 433.55672 
C 168.876148 432.295282 168.319528 431.085339 167.328879 430.193367 
C 166.33823 429.301395 164.994432 428.80022 163.593443 428.80022 
C 162.192453 428.80022 160.848655 429.301395 159.858006 430.193367 
C 158.867357 431.085339 158.310738 432.295282 158.310738 433.55672 
C 158.310738 434.818159 158.867357 436.028102 159.858006 436.920074 
C 160.848655 437.812046 162.192453 438.31322 163.593443 438.31322 
z
" style="fill:#f768a1;"/>
   </g>
   <g id="patch_26">
    <path clip-path="url(#p52da876984)" d="M 163.593443 447.14672 
L 163.593443 460.73672 
" style="fill:#1f77b4;stroke:#000000;stroke-linejoin:miter;"/>
   </g>
   <g id="patch_27">
    <path clip-path="url(#p52da876984)" d="M 163.593443 451.90322 
C 164.994432 451.90322 166.33823 451.402046 167.328879 450.510074 
C 168.319528 449.618102 168.876148 448.408159 168.876148 447.14672 
C 168.876148 445.885282 168.319528 444.675339 167.328879 443.783367 
C 166.33823 442.891395 164.994432 442.39022 163.593443 442.39022 
C 162.192453 442.39022 160.848655 442.891395 159.858006 443.783367 
C 158.867357 444.675339 158.310738 445.885282 158.310738 447.14672 
C 158.310738 448.408159 158.867357 449.618102 159.858006 450.510074 
C 160.848655 451.402046 162.192453 451.90322 163.593443 451.90322 
z
" style="fill:#7a0177;"/>
   </g>
   <g id="patch_28">
    <path clip-path="url(#p52da876984)" d="M 163.593443 465.49322 
C 164.994432 465.49322 166.33823 464.992046 167.328879 464.100074 
C 168.319528 463.208102 168.876148 461.998159 168.876148 460.73672 
C 168.876148 459.475282 168.319528 458.265339 167.328879 457.373367 
C 166.33823 456.481395 164.994432 455.98022 163.593443 455.98022 
C 162.192453 455.98022 160.848655 456.481395 159.858006 457.373367 
C 158.867357 458.265339 158.310738 459.475282 158.310738 460.73672 
C 158.310738 461.998159 158.867357 463.208102 159.858006 464.100074 
C 160.848655 464.992046 162.192453 465.49322 163.593443 465.49322 
z
" style="fill:#7a0177;"/>
   </g>
   <g id="patch_29">
    <path clip-path="url(#p52da876984)" d="M 163.593443 474.32672 
L 163.593443 487.91672 
" style="fill:#1f77b4;stroke:#000000;stroke-linejoin:miter;"/>
   </g>
   <g id="patch_30">
    <path clip-path="url(#p52da876984)" d="M 163.593443 479.08322 
C 164.994432 479.08322 166.33823 478.582046 167.328879 477.690074 
C 168.319528 476.798102 168.876148 475.588159 168.876148 474.32672 
C 168.876148 473.065282 168.319528 471.855339 167.328879 470.963367 
C 166.33823 470.071395 164.994432 469.57022 163.593443 469.57022 
C 162.192453 469.57022 160.848655 470.071395 159.858006 470.963367 
C 158.867357 471.855339 158.310738 473.065282 158.310738 474.32672 
C 158.310738 475.588159 158.867357 476.798102 159.858006 477.690074 
C 160.848655 478.582046 162.192453 479.08322 163.593443 479.08322 
z
" style="fill:#7a0177;"/>
   </g>
   <g id="patch_31">
    <path clip-path="url(#p52da876984)" d="M 163.593443 492.67322 
C 164.994432 492.67322 166.33823 492.172046 167.328879 491.280074 
C 168.319528 490.388102 168.876148 489.178159 168.876148 487.91672 
C 168.876148 486.655282 168.319528 485.445339 167.328879 484.553367 
C 166.33823 483.661395 164.994432 483.16022 163.593443 483.16022 
C 162.192453 483.16022 160.848655 483.661395 159.858006 484.553367 
C 158.867357 485.445339 158.310738 486.655282 158.310738 487.91672 
C 158.310738 489.178159 158.867357 490.388102 159.858006 491.280074 
C 160.848655 492.172046 162.192453 492.67322 163.593443 492.67322 
z
" style="fill:#7a0177;"/>
   </g>
   <g id="patch_32">
    <path clip-path="url(#p52da876984)" d="M 163.593443 501.50672 
L 163.593443 515.09672 
" style="fill:#1f77b4;stroke:#000000;stroke-linejoin:miter;"/>
   </g>
   <g id="patch_33">
    <path clip-path="url(#p52da876984)" d="M 163.593443 506.26322 
C 164.994432 506.26322 166.33823 505.762046 167.328879 504.870074 
C 168.319528 503.978102 168.876148 502.768159 168.876148 501.50672 
C 168.876148 500.245282 168.319528 499.035339 167.328879 498.143367 
C 166.33823 497.251395 164.994432 496.75022 163.593443 496.75022 
C 162.192453 496.75022 160.848655 497.251395 159.858006 498.143367 
C 158.867357 499.035339 158.310738 500.245282 158.310738 501.50672 
C 158.310738 502.768159 158.867357 503.978102 159.858006 504.870074 
C 160.848655 505.762046 162.192453 506.26322 163.593443 506.26322 
z
" style="fill:#7a0177;"/>
   </g>
   <g id="patch_34">
    <path clip-path="url(#p52da876984)" d="M 163.593443 519.85322 
C 164.994432 519.85322 166.33823 519.352046 167.328879 518.460074 
C 168.319528 517.568102 168.876148 516.358159 168.876148 515.09672 
C 168.876148 513.835282 168.319528 512.625339 167.328879 511.733367 
C 166.33823 510.841395 164.994432 510.34022 163.593443 510.34022 
C 162.192453 510.34022 160.848655 510.841395 159.858006 511.733367 
C 158.867357 512.625339 158.310738 513.835282 158.310738 515.09672 
C 158.310738 516.358159 158.867357 517.568102 159.858006 518.460074 
C 160.848655 519.352046 162.192453 519.85322 163.593443 519.85322 
z
" style="fill:#7a0177;"/>
   </g>
   <g id="patch_35">
    <path clip-path="url(#p52da876984)" d="M 163.593443 528.68672 
L 163.593443 555.86672 
" style="fill:#1f77b4;stroke:#000000;stroke-linejoin:miter;"/>
   </g>
   <g id="patch_36">
    <path clip-path="url(#p52da876984)" d="M 163.593443 542.27672 
L 163.593443 555.86672 
" style="fill:#1f77b4;stroke:#000000;stroke-linejoin:miter;"/>
   </g>
   <g id="patch_37">
    <path clip-path="url(#p52da876984)" d="M 163.593443 533.44322 
C 164.994432 533.44322 166.33823 532.942046 167.328879 532.050074 
C 168.319528 531.158102 168.876148 529.948159 168.876148 528.68672 
C 168.876148 527.425282 168.319528 526.215339 167.328879 525.323367 
C 166.33823 524.431395 164.994432 523.93022 163.593443 523.93022 
C 162.192453 523.93022 160.848655 524.431395 159.858006 525.323367 
C 158.867357 526.215339 158.310738 527.425282 158.310738 528.68672 
C 158.310738 529.948159 158.867357 531.158102 159.858006 532.050074 
C 160.848655 532.942046 162.192453 533.44322 163.593443 533.44322 
z
" style="fill:#feebe2;"/>
   </g>
   <g id="patch_38">
    <path clip-path="url(#p52da876984)" d="M 163.593443 547.03322 
C 164.994432 547.03322 166.33823 546.532046 167.328879 545.640074 
C 168.319528 544.748102 168.876148 543.538159 168.876148 542.27672 
C 168.876148 541.015282 168.319528 539.805339 167.328879 538.913367 
C 166.33823 538.021395 164.994432 537.52022 163.593443 537.52022 
C 162.192453 537.52022 160.848655 538.021395 159.858006 538.913367 
C 158.867357 539.805339 158.310738 541.015282 158.310738 542.27672 
C 158.310738 543.538159 158.867357 544.748102 159.858006 545.640074 
C 160.848655 546.532046 162.192453 547.03322 163.593443 547.03322 
z
" style="fill:#f768a1;"/>
   </g>
   <g id="patch_39">
    <path clip-path="url(#p52da876984)" d="M 163.593443 560.62322 
C 164.994432 560.62322 166.33823 560.122046 167.328879 559.230074 
C 168.319528 558.338102 168.876148 557.128159 168.876148 555.86672 
C 168.876148 554.605282 168.319528 553.395339 167.328879 552.503367 
C 166.33823 551.611395 164.994432 551.11022 163.593443 551.11022 
C 162.192453 551.11022 160.848655 551.611395 159.858006 552.503367 
C 158.867357 553.395339 158.310738 554.605282 158.310738 555.86672 
C 158.310738 557.128159 158.867357 558.338102 159.858006 559.230074 
C 160.848655 560.122046 162.192453 560.62322 163.593443 560.62322 
z
" style="fill:#f768a1;"/>
   </g>
   <g id="patch_40">
    <path clip-path="url(#p52da876984)" d="M 163.593443 569.611548 
L 175.068723 589.84172 
" style="fill:#1f77b4;stroke:#000000;stroke-linejoin:miter;"/>
   </g>
   <g id="patch_41">
    <path clip-path="url(#p52da876984)" d="M 163.593443 569.611548 
L 186.233607 569.45672 
" style="fill:#1f77b4;stroke:#000000;stroke-linejoin:miter;"/>
   </g>
   <g id="patch_42">
    <path clip-path="url(#p52da876984)" d="M 186.233607 569.45672 
L 175.068723 589.84172 
" style="fill:#1f77b4;stroke:#000000;stroke-linejoin:miter;"/>
   </g>
   <g id="patch_43">
    <path clip-path="url(#p52da876984)" d="M 163.593443 574.368048 
C 164.994432 574.368048 166.33823 573.866873 167.328879 572.974902 
C 168.319528 572.08293 168.876148 570.872987 168.876148 569.611548 
C 168.876148 568.35011 168.319528 567.140167 167.328879 566.248195 
C 166.33823 565.356223 164.994432 564.855048 163.593443 564.855048 
C 162.192453 564.855048 160.848655 565.356223 159.858006 566.248195 
C 158.867357 567.140167 158.310738 568.35011 158.310738 569.611548 
C 158.310738 570.872987 158.867357 572.08293 159.858006 572.974902 
C 160.848655 573.866873 162.192453 574.368048 163.593443 574.368048 
z
" style="fill:#7a0177;"/>
   </g>
   <g id="patch_44">
    <path clip-path="url(#p52da876984)" d="M 186.233607 574.21322 
C 187.634596 574.21322 188.978394 573.712046 189.969043 572.820074 
C 190.959692 571.928102 191.516311 570.718159 191.516311 569.45672 
C 191.516311 568.195282 190.959692 566.985339 189.969043 566.093367 
C 188.978394 565.201395 187.634596 564.70022 186.233607 564.70022 
C 184.832617 564.70022 183.488819 565.201395 182.49817 566.093367 
C 181.507521 566.985339 180.950902 568.195282 180.950902 569.45672 
C 180.950902 570.718159 181.507521 571.928102 182.49817 572.820074 
C 183.488819 573.712046 184.832617 574.21322 186.233607 574.21322 
z
" style="fill:#7a0177;"/>
   </g>
   <g id="patch_45">
    <path clip-path="url(#p52da876984)" d="M 175.068723 594.59822 
C 176.469713 594.59822 177.81351 594.097046 178.80416 593.205074 
C 179.794809 592.313102 180.351428 591.103159 180.351428 589.84172 
C 180.351428 588.580282 179.794809 587.370339 178.80416 586.478367 
C 177.81351 585.586395 176.469713 585.08522 175.068723 585.08522 
C 173.667733 585.08522 172.323936 585.586395 171.333287 586.478367 
C 170.342637 587.370339 169.786018 588.580282 169.786018 589.84172 
C 169.786018 591.103159 170.342637 592.313102 171.333287 593.205074 
C 172.323936 594.097046 173.667733 594.59822 175.068723 594.59822 
z
" style="fill:#7a0177;"/>
   </g>
   <g id="patch_46">
    <path clip-path="url(#p52da876984)" d="M 163.593443 603.43172 
L 163.593443 617.02172 
" style="fill:#1f77b4;stroke:#000000;stroke-linejoin:miter;"/>
   </g>
   <g id="patch_47">
    <path clip-path="url(#p52da876984)" d="M 163.593443 603.43172 
L 163.593443 630.61172 
" style="fill:#1f77b4;stroke:#000000;stroke-linejoin:miter;"/>
   </g>
   <g id="patch_48">
    <path clip-path="url(#p52da876984)" d="M 163.593443 617.02172 
L 163.593443 644.20172 
" style="fill:#1f77b4;stroke:#000000;stroke-linejoin:miter;"/>
   </g>
   <g id="patch_49">
    <path clip-path="url(#p52da876984)" d="M 163.593443 608.18822 
C 164.994432 608.18822 166.33823 607.687046 167.328879 606.795074 
C 168.319528 605.903102 168.876148 604.693159 168.876148 603.43172 
C 168.876148 602.170282 168.319528 600.960339 167.328879 600.068367 
C 166.33823 599.176395 164.994432 598.67522 163.593443 598.67522 
C 162.192453 598.67522 160.848655 599.176395 159.858006 600.068367 
C 158.867357 600.960339 158.310738 602.170282 158.310738 603.43172 
C 158.310738 604.693159 158.867357 605.903102 159.858006 606.795074 
C 160.848655 607.687046 162.192453 608.18822 163.593443 608.18822 
z
" style="fill:#7a0177;"/>
   </g>
   <g id="patch_50">
    <path clip-path="url(#p52da876984)" d="M 163.593443 621.77822 
C 164.994432 621.77822 166.33823 621.277046 167.328879 620.385074 
C 168.319528 619.493102 168.876148 618.283159 168.876148 617.02172 
C 168.876148 615.760282 168.319528 614.550339 167.328879 613.658367 
C 166.33823 612.766395 164.994432 612.26522 163.593443 612.26522 
C 162.192453 612.26522 160.848655 612.766395 159.858006 613.658367 
C 158.867357 614.550339 158.310738 615.760282 158.310738 617.02172 
C 158.310738 618.283159 158.867357 619.493102 159.858006 620.385074 
C 160.848655 621.277046 162.192453 621.77822 163.593443 621.77822 
z
" style="fill:#7a0177;"/>
   </g>
   <g id="patch_51">
    <path clip-path="url(#p52da876984)" d="M 163.593443 635.36822 
C 164.994432 635.36822 166.33823 634.867046 167.328879 633.975074 
C 168.319528 633.083102 168.876148 631.873159 168.876148 630.61172 
C 168.876148 629.350282 168.319528 628.140339 167.328879 627.248367 
C 166.33823 626.356395 164.994432 625.85522 163.593443 625.85522 
C 162.192453 625.85522 160.848655 626.356395 159.858006 627.248367 
C 158.867357 628.140339 158.310738 629.350282 158.310738 630.61172 
C 158.310738 631.873159 158.867357 633.083102 159.858006 633.975074 
C 160.848655 634.867046 162.192453 635.36822 163.593443 635.36822 
z
" style="fill:#7a0177;"/>
   </g>
   <g id="patch_52">
    <path clip-path="url(#p52da876984)" d="M 163.593443 648.95822 
C 164.994432 648.95822 166.33823 648.457046 167.328879 647.565074 
C 168.319528 646.673102 168.876148 645.463159 168.876148 644.20172 
C 168.876148 642.940282 168.319528 641.730339 167.328879 640.838367 
C 166.33823 639.946395 164.994432 639.44522 163.593443 639.44522 
C 162.192453 639.44522 160.848655 639.946395 159.858006 640.838367 
C 158.867357 641.730339 158.310738 642.940282 158.310738 644.20172 
C 158.310738 645.463159 158.867357 646.673102 159.858006 647.565074 
C 160.848655 648.457046 162.192453 648.95822 163.593443 648.95822 
z
" style="fill:#7a0177;"/>
   </g>
   <g id="patch_53">
    <path clip-path="url(#p52da876984)" d="M 163.593443 693.544032 
L 167.119902 657.79172 
" style="fill:#1f77b4;stroke:#000000;stroke-linejoin:miter;"/>
   </g>
   <g id="patch_54">
    <path clip-path="url(#p52da876984)" d="M 163.593443 693.544032 
L 178.528783 683.266691 
" style="fill:#1f77b4;stroke:#000000;stroke-linejoin:miter;"/>
   </g>
   <g id="patch_55">
    <path clip-path="url(#p52da876984)" d="M 208.87377 698.56172 
L 193.75126 691.706229 
" style="fill:#1f77b4;stroke:#000000;stroke-linejoin:miter;"/>
   </g>
   <g id="patch_56">
    <path clip-path="url(#p52da876984)" d="M 178.528783 683.266691 
L 193.75126 691.706229 
" style="fill:#1f77b4;stroke:#000000;stroke-linejoin:miter;"/>
   </g>
   <g id="patch_57">
    <path clip-path="url(#p52da876984)" d="M 178.528783 683.266691 
L 167.119902 657.79172 
" style="fill:#1f77b4;stroke:#000000;stroke-linejoin:miter;"/>
   </g>
   <g id="patch_58">
    <path clip-path="url(#p52da876984)" d="M 163.593443 698.300532 
C 164.994432 698.300532 166.33823 697.799357 167.328879 696.907385 
C 168.319528 696.015414 168.876148 694.805471 168.876148 693.544032 
C 168.876148 692.282594 168.319528 691.07265 167.328879 690.180679 
C 166.33823 689.288707 164.994432 688.787532 163.593443 688.787532 
C 162.192453 688.787532 160.848655 689.288707 159.858006 690.180679 
C 158.867357 691.07265 158.310738 692.282594 158.310738 693.544032 
C 158.310738 694.805471 158.867357 696.015414 159.858006 696.907385 
C 160.848655 697.799357 162.192453 698.300532 163.593443 698.300532 
z
" style="fill:#7a0177;"/>
   </g>
   <g id="patch_59">
    <path clip-path="url(#p52da876984)" d="M 208.87377 703.31822 
C 210.27476 703.31822 211.618558 702.817046 212.609207 701.925074 
C 213.599856 701.033102 214.156475 699.823159 214.156475 698.56172 
C 214.156475 697.300282 213.599856 696.090339 212.609207 695.198367 
C 211.618558 694.306395 210.27476 693.80522 208.87377 693.80522 
C 207.472781 693.80522 206.128983 694.306395 205.138334 695.198367 
C 204.147685 696.090339 203.591066 697.300282 203.591066 698.56172 
C 203.591066 699.823159 204.147685 701.033102 205.138334 701.925074 
C 206.128983 702.817046 207.472781 703.31822 208.87377 703.31822 
z
" style="fill:#7a0177;"/>
   </g>
   <g id="patch_60">
    <path clip-path="url(#p52da876984)" d="M 178.528783 688.023191 
C 179.929773 688.023191 181.27357 687.522016 182.26422 686.630044 
C 183.254869 685.738072 183.811488 684.528129 183.811488 683.266691 
C 183.811488 682.005252 183.254869 680.795309 182.26422 679.903337 
C 181.27357 679.011366 179.929773 678.510191 178.528783 678.510191 
C 177.127793 678.510191 175.783996 679.011366 174.793347 679.903337 
C 173.802697 680.795309 173.246078 682.005252 173.246078 683.266691 
C 173.246078 684.528129 173.802697 685.738072 174.793347 686.630044 
C 175.783996 687.522016 177.127793 688.023191 178.528783 688.023191 
z
" style="fill:#7a0177;"/>
   </g>
   <g id="patch_61">
    <path clip-path="url(#p52da876984)" d="M 167.119902 662.54822 
C 168.520891 662.54822 169.864689 662.047046 170.855338 661.155074 
C 171.845987 660.263102 172.402606 659.053159 172.402606 657.79172 
C 172.402606 656.530282 171.845987 655.320339 170.855338 654.428367 
C 169.864689 653.536395 168.520891 653.03522 167.119902 653.03522 
C 165.718912 653.03522 164.375114 653.536395 163.384465 654.428367 
C 162.393816 655.320339 161.837197 656.530282 161.837197 657.79172 
C 161.837197 659.053159 162.393816 660.263102 163.384465 661.155074 
C 164.375114 662.047046 165.718912 662.54822 167.119902 662.54822 
z
" style="fill:#7a0177;"/>
   </g>
   <g id="patch_62">
    <path clip-path="url(#p52da876984)" d="M 193.75126 696.462729 
C 195.152249 696.462729 196.496047 695.961555 197.486696 695.069583 
C 198.477346 694.177611 199.033965 692.967668 199.033965 691.706229 
C 199.033965 690.444791 198.477346 689.234848 197.486696 688.342876 
C 196.496047 687.450904 195.152249 686.949729 193.75126 686.949729 
C 192.35027 686.949729 191.006473 687.450904 190.015823 688.342876 
C 189.025174 689.234848 188.468555 690.444791 188.468555 691.706229 
C 188.468555 692.967668 189.025174 694.177611 190.015823 695.069583 
C 191.006473 695.961555 192.35027 696.462729 193.75126 696.462729 
z
" style="fill:#7a0177;"/>
   </g>
   <g id="patch_63">
    <path clip-path="url(#p52da876984)" d="M 199.68398 789.236253 
L 231.758797 789.870844 
" style="fill:#1f77b4;stroke:#000000;stroke-linejoin:miter;"/>
   </g>
   <g id="patch_64">
    <path clip-path="url(#p52da876984)" d="M 199.68398 789.236253 
L 215.881184 775.469283 
" style="fill:#1f77b4;stroke:#000000;stroke-linejoin:miter;"/>
   </g>
   <g id="patch_65">
    <path clip-path="url(#p52da876984)" d="M 199.68398 789.236253 
L 210.272144 803.316212 
" style="fill:#1f77b4;stroke:#000000;stroke-linejoin:miter;"/>
   </g>
   <g id="patch_66">
    <path clip-path="url(#p52da876984)" d="M 228.15067 741.994308 
L 187.053218 739.549472 
" style="fill:#1f77b4;stroke:#000000;stroke-linejoin:miter;"/>
   </g>
   <g id="patch_67">
    <path clip-path="url(#p52da876984)" d="M 228.15067 741.994308 
L 195.765526 729.460422 
" style="fill:#1f77b4;stroke:#000000;stroke-linejoin:miter;"/>
   </g>
   <g id="patch_68">
    <path clip-path="url(#p52da876984)" d="M 228.15067 741.994308 
L 204.445412 742.980857 
" style="fill:#1f77b4;stroke:#000000;stroke-linejoin:miter;"/>
   </g>
   <g id="patch_69">
    <path clip-path="url(#p52da876984)" d="M 228.15067 741.994308 
L 222.926064 732.934878 
" style="fill:#1f77b4;stroke:#000000;stroke-linejoin:miter;"/>
   </g>
   <g id="patch_70">
    <path clip-path="url(#p52da876984)" d="M 207.905323 760.022923 
L 215.881184 775.469283 
" style="fill:#1f77b4;stroke:#000000;stroke-linejoin:miter;"/>
   </g>
   <g id="patch_71">
    <path clip-path="url(#p52da876984)" d="M 207.905323 760.022923 
L 204.445412 742.980857 
" style="fill:#1f77b4;stroke:#000000;stroke-linejoin:miter;"/>
   </g>
   <g id="patch_72">
    <path clip-path="url(#p52da876984)" d="M 163.593443 736.298579 
L 195.765526 729.460422 
" style="fill:#1f77b4;stroke:#000000;stroke-linejoin:miter;"/>
   </g>
   <g id="patch_73">
    <path clip-path="url(#p52da876984)" d="M 163.593443 736.298579 
L 204.445412 742.980857 
" style="fill:#1f77b4;stroke:#000000;stroke-linejoin:miter;"/>
   </g>
   <g id="patch_74">
    <path clip-path="url(#p52da876984)" d="M 195.765526 729.460422 
L 187.053218 739.549472 
" style="fill:#1f77b4;stroke:#000000;stroke-linejoin:miter;"/>
   </g>
   <g id="patch_75">
    <path clip-path="url(#p52da876984)" d="M 195.765526 729.460422 
L 222.018243 723.171942 
" style="fill:#1f77b4;stroke:#000000;stroke-linejoin:miter;"/>
   </g>
   <g id="patch_76">
    <path clip-path="url(#p52da876984)" d="M 195.765526 729.460422 
L 204.445412 742.980857 
" style="fill:#1f77b4;stroke:#000000;stroke-linejoin:miter;"/>
   </g>
   <g id="patch_77">
    <path clip-path="url(#p52da876984)" d="M 195.765526 729.460422 
L 222.926064 732.934878 
" style="fill:#1f77b4;stroke:#000000;stroke-linejoin:miter;"/>
   </g>
   <g id="patch_78">
    <path clip-path="url(#p52da876984)" d="M 264.843334 796.668186 
L 231.758797 789.870844 
" style="fill:#1f77b4;stroke:#000000;stroke-linejoin:miter;"/>
   </g>
   <g id="patch_79">
    <path clip-path="url(#p52da876984)" d="M 204.445412 742.980857 
L 187.053218 739.549472 
" style="fill:#1f77b4;stroke:#000000;stroke-linejoin:miter;"/>
   </g>
   <g id="patch_80">
    <path clip-path="url(#p52da876984)" d="M 204.445412 742.980857 
L 222.018243 723.171942 
" style="fill:#1f77b4;stroke:#000000;stroke-linejoin:miter;"/>
   </g>
   <g id="patch_81">
    <path clip-path="url(#p52da876984)" d="M 204.445412 742.980857 
L 222.926064 732.934878 
" style="fill:#1f77b4;stroke:#000000;stroke-linejoin:miter;"/>
   </g>
   <g id="patch_82">
    <path clip-path="url(#p52da876984)" d="M 231.758797 789.870844 
L 215.881184 775.469283 
" style="fill:#1f77b4;stroke:#000000;stroke-linejoin:miter;"/>
   </g>
   <g id="patch_83">
    <path clip-path="url(#p52da876984)" d="M 231.758797 789.870844 
L 210.272144 803.316212 
" style="fill:#1f77b4;stroke:#000000;stroke-linejoin:miter;"/>
   </g>
   <g id="patch_84">
    <path clip-path="url(#p52da876984)" d="M 222.018243 723.171942 
L 246.895332 712.15172 
" style="fill:#1f77b4;stroke:#000000;stroke-linejoin:miter;"/>
   </g>
   <g id="patch_85">
    <path clip-path="url(#p52da876984)" d="M 222.018243 723.171942 
L 222.926064 732.934878 
" style="fill:#1f77b4;stroke:#000000;stroke-linejoin:miter;"/>
   </g>
   <g id="patch_86">
    <path clip-path="url(#p52da876984)" d="M 187.053218 739.549472 
L 222.926064 732.934878 
" style="fill:#1f77b4;stroke:#000000;stroke-linejoin:miter;"/>
   </g>
   <g id="patch_87">
    <path clip-path="url(#p52da876984)" d="M 199.68398 793.992753 
C 201.08497 793.992753 202.428767 793.491578 203.419417 792.599607 
C 204.410066 791.707635 204.966685 790.497692 204.966685 789.236253 
C 204.966685 787.974815 204.410066 786.764872 203.419417 785.8729 
C 202.428767 784.980928 201.08497 784.479753 199.68398 784.479753 
C 198.282991 784.479753 196.939193 784.980928 195.948544 785.8729 
C 194.957894 786.764872 194.401275 787.974815 194.401275 789.236253 
C 194.401275 790.497692 194.957894 791.707635 195.948544 792.599607 
C 196.939193 793.491578 198.282991 793.992753 199.68398 793.992753 
z
" style="fill:#7a0177;"/>
   </g>
   <g id="patch_88">
    <path clip-path="url(#p52da876984)" d="M 228.15067 746.750808 
C 229.551659 746.750808 230.895457 746.249634 231.886106 745.357662 
C 232.876755 744.46569 233.433375 743.255747 233.433375 741.994308 
C 233.433375 740.73287 232.876755 739.522927 231.886106 738.630955 
C 230.895457 737.738983 229.551659 737.237808 228.15067 737.237808 
C 226.74968 737.237808 225.405883 737.738983 224.415233 738.630955 
C 223.424584 739.522927 222.867965 740.73287 222.867965 741.994308 
C 222.867965 743.255747 223.424584 744.46569 224.415233 745.357662 
C 225.405883 746.249634 226.74968 746.750808 228.15067 746.750808 
z
" style="fill:#7a0177;"/>
   </g>
   <g id="patch_89">
    <path clip-path="url(#p52da876984)" d="M 207.905323 764.779423 
C 209.306313 764.779423 210.65011 764.278249 211.64076 763.386277 
C 212.631409 762.494305 213.188028 761.284362 213.188028 760.022923 
C 213.188028 758.761485 212.631409 757.551542 211.64076 756.65957 
C 210.65011 755.767598 209.306313 755.266423 207.905323 755.266423 
C 206.504333 755.266423 205.160536 755.767598 204.169887 756.65957 
C 203.179237 757.551542 202.622618 758.761485 202.622618 760.022923 
C 202.622618 761.284362 203.179237 762.494305 204.169887 763.386277 
C 205.160536 764.278249 206.504333 764.779423 207.905323 764.779423 
z
" style="fill:#7a0177;"/>
   </g>
   <g id="patch_90">
    <path clip-path="url(#p52da876984)" d="M 163.593443 741.055079 
C 164.994432 741.055079 166.33823 740.553904 167.328879 739.661932 
C 168.319528 738.76996 168.876148 737.560017 168.876148 736.298579 
C 168.876148 735.03714 168.319528 733.827197 167.328879 732.935225 
C 166.33823 732.043254 164.994432 731.542079 163.593443 731.542079 
C 162.192453 731.542079 160.848655 732.043254 159.858006 732.935225 
C 158.867357 733.827197 158.310738 735.03714 158.310738 736.298579 
C 158.310738 737.560017 158.867357 738.76996 159.858006 739.661932 
C 160.848655 740.553904 162.192453 741.055079 163.593443 741.055079 
z
" style="fill:#7a0177;"/>
   </g>
   <g id="patch_91">
    <path clip-path="url(#p52da876984)" d="M 195.765526 734.216922 
C 197.166516 734.216922 198.510313 733.715747 199.500963 732.823775 
C 200.491612 731.931803 201.048231 730.72186 201.048231 729.460422 
C 201.048231 728.198983 200.491612 726.98904 199.500963 726.097068 
C 198.510313 725.205096 197.166516 724.703922 195.765526 724.703922 
C 194.364536 724.703922 193.020739 725.205096 192.03009 726.097068 
C 191.03944 726.98904 190.482821 728.198983 190.482821 729.460422 
C 190.482821 730.72186 191.03944 731.931803 192.03009 732.823775 
C 193.020739 733.715747 194.364536 734.216922 195.765526 734.216922 
z
" style="fill:#7a0177;"/>
   </g>
   <g id="patch_92">
    <path clip-path="url(#p52da876984)" d="M 264.843334 801.424686 
C 266.244324 801.424686 267.588121 800.923511 268.57877 800.031539 
C 269.56942 799.139567 270.126039 797.929624 270.126039 796.668186 
C 270.126039 795.406747 269.56942 794.196804 268.57877 793.304832 
C 267.588121 792.412861 266.244324 791.911686 264.843334 791.911686 
C 263.442344 791.911686 262.098547 792.412861 261.107897 793.304832 
C 260.117248 794.196804 259.560629 795.406747 259.560629 796.668186 
C 259.560629 797.929624 260.117248 799.139567 261.107897 800.031539 
C 262.098547 800.923511 263.442344 801.424686 264.843334 801.424686 
z
" style="fill:#7a0177;"/>
   </g>
   <g id="patch_93">
    <path clip-path="url(#p52da876984)" d="M 204.445412 747.737357 
C 205.846401 747.737357 207.190199 747.236182 208.180848 746.344211 
C 209.171497 745.452239 209.728116 744.242296 209.728116 742.980857 
C 209.728116 741.719419 209.171497 740.509476 208.180848 739.617504 
C 207.190199 738.725532 205.846401 738.224357 204.445412 738.224357 
C 203.044422 738.224357 201.700624 738.725532 200.709975 739.617504 
C 199.719326 740.509476 199.162707 741.719419 199.162707 742.980857 
C 199.162707 744.242296 199.719326 745.452239 200.709975 746.344211 
C 201.700624 747.236182 203.044422 747.737357 204.445412 747.737357 
z
" style="fill:#7a0177;"/>
   </g>
   <g id="patch_94">
    <path clip-path="url(#p52da876984)" d="M 231.758797 794.627344 
C 233.159787 794.627344 234.503584 794.126169 235.494234 793.234198 
C 236.484883 792.342226 237.041502 791.132283 237.041502 789.870844 
C 237.041502 788.609406 236.484883 787.399462 235.494234 786.507491 
C 234.503584 785.615519 233.159787 785.114344 231.758797 785.114344 
C 230.357807 785.114344 229.01401 785.615519 228.023361 786.507491 
C 227.032711 787.399462 226.476092 788.609406 226.476092 789.870844 
C 226.476092 791.132283 227.032711 792.342226 228.023361 793.234198 
C 229.01401 794.126169 230.357807 794.627344 231.758797 794.627344 
z
" style="fill:#7a0177;"/>
   </g>
   <g id="patch_95">
    <path clip-path="url(#p52da876984)" d="M 222.018243 727.928442 
C 223.419232 727.928442 224.76303 727.427267 225.753679 726.535296 
C 226.744328 725.643324 227.300947 724.433381 227.300947 723.171942 
C 227.300947 721.910504 226.744328 720.700561 225.753679 719.808589 
C 224.76303 718.916617 223.419232 718.415442 222.018243 718.415442 
C 220.617253 718.415442 219.273455 718.916617 218.282806 719.808589 
C 217.292157 720.700561 216.735538 721.910504 216.735538 723.171942 
C 216.735538 724.433381 217.292157 725.643324 218.282806 726.535296 
C 219.273455 727.427267 220.617253 727.928442 222.018243 727.928442 
z
" style="fill:#7a0177;"/>
   </g>
   <g id="patch_96">
    <path clip-path="url(#p52da876984)" d="M 210.272144 808.072712 
C 211.673133 808.072712 213.016931 807.571537 214.00758 806.679565 
C 214.998229 805.787594 215.554849 804.57765 215.554849 803.316212 
C 215.554849 802.054773 214.998229 800.84483 214.00758 799.952859 
C 213.016931 799.060887 211.673133 798.559712 210.272144 798.559712 
C 208.871154 798.559712 207.527356 799.060887 206.536707 799.952859 
C 205.546058 800.84483 204.989439 802.054773 204.989439 803.316212 
C 204.989439 804.57765 205.546058 805.787594 206.536707 806.679565 
C 207.527356 807.571537 208.871154 808.072712 210.272144 808.072712 
z
" style="fill:#7a0177;"/>
   </g>
   <g id="patch_97">
    <path clip-path="url(#p52da876984)" d="M 215.881184 780.225783 
C 217.282173 780.225783 218.625971 779.724608 219.61662 778.832636 
C 220.60727 777.940665 221.163889 776.730721 221.163889 775.469283 
C 221.163889 774.207844 220.60727 772.997901 219.61662 772.10593 
C 218.625971 771.213958 217.282173 770.712783 215.881184 770.712783 
C 214.480194 770.712783 213.136397 771.213958 212.145747 772.10593 
C 211.155098 772.997901 210.598479 774.207844 210.598479 775.469283 
C 210.598479 776.730721 211.155098 777.940665 212.145747 778.832636 
C 213.136397 779.724608 214.480194 780.225783 215.881184 780.225783 
z
" style="fill:#7a0177;"/>
   </g>
   <g id="patch_98">
    <path clip-path="url(#p52da876984)" d="M 187.053218 744.305972 
C 188.454208 744.305972 189.798006 743.804798 190.788655 742.912826 
C 191.779304 742.020854 192.335923 740.810911 192.335923 739.549472 
C 192.335923 738.288034 191.779304 737.078091 190.788655 736.186119 
C 189.798006 735.294147 188.454208 734.792972 187.053218 734.792972 
C 185.652229 734.792972 184.308431 735.294147 183.317782 736.186119 
C 182.327133 737.078091 181.770513 738.288034 181.770513 739.549472 
C 181.770513 740.810911 182.327133 742.020854 183.317782 742.912826 
C 184.308431 743.804798 185.652229 744.305972 187.053218 744.305972 
z
" style="fill:#7a0177;"/>
   </g>
   <g id="patch_99">
    <path clip-path="url(#p52da876984)" d="M 222.926064 737.691378 
C 224.327054 737.691378 225.670851 737.190203 226.661501 736.298232 
C 227.65215 735.40626 228.208769 734.196317 228.208769 732.934878 
C 228.208769 731.67344 227.65215 730.463497 226.661501 729.571525 
C 225.670851 728.679553 224.327054 728.178378 222.926064 728.178378 
C 221.525074 728.178378 220.181277 728.679553 219.190628 729.571525 
C 218.199978 730.463497 217.643359 731.67344 217.643359 732.934878 
C 217.643359 734.196317 218.199978 735.40626 219.190628 736.298232 
C 220.181277 737.190203 221.525074 737.691378 222.926064 737.691378 
z
" style="fill:#7a0177;"/>
   </g>
   <g id="patch_100">
    <path clip-path="url(#p52da876984)" d="M 246.895332 716.90822 
C 248.296321 716.90822 249.640119 716.407046 250.630768 715.515074 
C 251.621417 714.623102 252.178036 713.413159 252.178036 712.15172 
C 252.178036 710.890282 251.621417 709.680339 250.630768 708.788367 
C 249.640119 707.896395 248.296321 707.39522 246.895332 707.39522 
C 245.494342 707.39522 244.150544 707.896395 243.159895 708.788367 
C 242.169246 709.680339 241.612627 710.890282 241.612627 712.15172 
C 241.612627 713.413159 242.169246 714.623102 243.159895 715.515074 
C 244.150544 716.407046 245.494342 716.90822 246.895332 716.90822 
z
" style="fill:#7a0177;"/>
   </g>
   <g id="text_1">
    <text style="font-family:DejaVu Sans;font-size:12px;font-style:normal;font-weight:normal;text-anchor:start;" transform="rotate(-0, 169.63082, 124.025158)" x="169.63082" y="124.025158">KEGG_GLYCOSAMINOGLYCAN_BIOSYNTHESIS_CHONDROITIN_SULFATE</text>
   </g>
   <g id="text_2">
    <text style="font-family:DejaVu Sans;font-size:12px;font-style:normal;font-weight:normal;text-anchor:start;" transform="rotate(-0, 169.63082, 137.615158)" x="169.63082" y="137.615158">KEGG_ALDOSTERONE_REGULATED_SODIUM_REABSORPTION</text>
   </g>
   <g id="text_3">
    <text style="font-family:DejaVu Sans;font-size:12px;font-style:normal;font-weight:normal;text-anchor:start;" transform="rotate(-0, 169.63082, 151.205158)" x="169.63082" y="151.205158">REACTOME_PURINE_METABOLISM</text>
   </g>
   <g id="text_4">
    <text style="font-family:DejaVu Sans;font-size:12px;font-style:normal;font-weight:normal;text-anchor:start;" transform="rotate(-0, 169.63082, 164.795158)" x="169.63082" y="164.795158">KEGG_ALANINE_ASPARTATE_AND_GLUTAMATE_METABOLISM</text>
   </g>
   <g id="text_5">
    <text style="font-family:DejaVu Sans;font-size:12px;font-style:normal;font-weight:normal;text-anchor:start;" transform="rotate(-0, 169.63082, 178.385158)" x="169.63082" y="178.385158">KEGG_INSULIN_SIGNALING_PATHWAY</text>
   </g>
   <g id="text_6">
    <text style="font-family:DejaVu Sans;font-size:12px;font-style:normal;font-weight:normal;text-anchor:start;" transform="rotate(-0, 169.63082, 191.975158)" x="169.63082" y="191.975158">KEGG_AMINO_SUGAR_AND_NUCLEOTIDE_SUGAR_METABOLISM</text>
   </g>
   <g id="text_7">
    <text style="font-family:DejaVu Sans;font-size:12px;font-style:normal;font-weight:normal;text-anchor:start;" transform="rotate(-0, 169.63082, 205.565158)" x="169.63082" y="205.565158">REACTOME_MITOCHONDRIAL_PROTEIN_IMPORT</text>
   </g>
   <g id="text_8">
    <text style="font-family:DejaVu Sans;font-size:12px;font-style:normal;font-weight:normal;text-anchor:start;" transform="rotate(-0, 169.63082, 219.155158)" x="169.63082" y="219.155158">KEGG_ARGININE_AND_PROLINE_METABOLISM</text>
   </g>
   <g id="text_9">
    <text style="font-family:DejaVu Sans;font-size:12px;font-style:normal;font-weight:normal;text-anchor:start;" transform="rotate(-0, 169.63082, 232.745158)" x="169.63082" y="232.745158">KEGG_PRIMARY_BILE_ACID_BIOSYNTHESIS</text>
   </g>
   <g id="text_10">
    <text style="font-family:DejaVu Sans;font-size:12px;font-style:normal;font-weight:normal;text-anchor:start;" transform="rotate(-0, 169.63082, 246.335158)" x="169.63082" y="246.335158">BIOCARTA_PGC1A_PATHWAY</text>
   </g>
   <g id="text_11">
    <text style="font-family:DejaVu Sans;font-size:12px;font-style:normal;font-weight:normal;text-anchor:start;" transform="rotate(-0, 169.63082, 259.925158)" x="169.63082" y="259.925158">BIOCARTA_PTDINS_PATHWAY</text>
   </g>
   <g id="text_12">
    <text style="font-family:DejaVu Sans;font-size:12px;font-style:normal;font-weight:normal;text-anchor:start;" transform="rotate(-0, 169.63082, 273.515158)" x="169.63082" y="273.515158">KEGG_PEROXISOME</text>
   </g>
   <g id="text_13">
    <text style="font-family:DejaVu Sans;font-size:12px;font-style:normal;font-weight:normal;text-anchor:start;" transform="rotate(-0, 169.63082, 287.105158)" x="169.63082" y="287.105158">PID_CERAMIDE_PATHWAY</text>
   </g>
   <g id="text_14">
    <text style="font-family:DejaVu Sans;font-size:12px;font-style:normal;font-weight:normal;text-anchor:start;" transform="rotate(-0, 169.63082, 300.695158)" x="169.63082" y="300.695158">KEGG_PENTOSE_PHOSPHATE_PATHWAY</text>
   </g>
   <g id="text_15">
    <text style="font-family:DejaVu Sans;font-size:12px;font-style:normal;font-weight:normal;text-anchor:start;" transform="rotate(-0, 169.63082, 314.285158)" x="169.63082" y="314.285158">KEGG_PHENYLALANINE_METABOLISM</text>
   </g>
   <g id="text_16">
    <text style="font-family:DejaVu Sans;font-size:12px;font-style:normal;font-weight:normal;text-anchor:start;" transform="rotate(-0, 169.63082, 327.875158)" x="169.63082" y="327.875158">KEGG_GLUTATHIONE_METABOLISM</text>
   </g>
   <g id="text_17">
    <text style="font-family:DejaVu Sans;font-size:12px;font-style:normal;font-weight:normal;text-anchor:start;" transform="rotate(-0, 169.63082, 341.465158)" x="169.63082" y="341.465158">BIOCARTA_PPARA_PATHWAY</text>
   </g>
   <g id="text_18">
    <text style="font-family:DejaVu Sans;font-size:12px;font-style:normal;font-weight:normal;text-anchor:start;" transform="rotate(-0, 169.63082, 355.055158)" x="169.63082" y="355.055158">REACTOME_REGULATION_OF_ORNITHINE_DECARBOXYLASE_ODC</text>
   </g>
   <g id="text_19">
    <text style="font-family:DejaVu Sans;font-size:12px;font-style:normal;font-weight:normal;text-anchor:start;" transform="rotate(-0, 169.63082, 368.645158)" x="169.63082" y="368.645158">BIOCARTA_CHREBP2_PATHWAY</text>
   </g>
   <g id="text_20">
    <text style="font-family:DejaVu Sans;font-size:12px;font-style:normal;font-weight:normal;text-anchor:start;" transform="rotate(-0, 169.63082, 382.235158)" x="169.63082" y="382.235158">KEGG_NICOTINATE_AND_NICOTINAMIDE_METABOLISM</text>
   </g>
   <g id="text_21">
    <text style="font-family:DejaVu Sans;font-size:12px;font-style:normal;font-weight:normal;text-anchor:start;" transform="rotate(-0, 169.63082, 395.825158)" x="169.63082" y="395.825158">KEGG_PORPHYRIN_AND_CHLOROPHYLL_METABOLISM</text>
   </g>
   <g id="text_22">
    <text style="font-family:DejaVu Sans;font-size:12px;font-style:normal;font-weight:normal;text-anchor:start;" transform="rotate(-0, 169.63082, 409.415158)" x="169.63082" y="409.415158">KEGG_GLYCINE_SERINE_AND_THREONINE_METABOLISM</text>
   </g>
   <g id="text_23">
    <text style="font-family:DejaVu Sans;font-size:12px;font-style:normal;font-weight:normal;text-anchor:start;" transform="rotate(-0, 169.63082, 423.005158)" x="169.63082" y="423.005158">REACTOME_ACETYLCHOLINE_BINDING_AND_DOWNSTREAM_EVENTS</text>
   </g>
   <g id="text_24">
    <text style="font-family:DejaVu Sans;font-size:12px;font-style:normal;font-weight:normal;text-anchor:start;" transform="rotate(-0, 169.63082, 436.595158)" x="169.63082" y="436.595158">PID_GLYPICAN_1PATHWAY</text>
   </g>
   <g id="text_25">
    <text style="font-family:DejaVu Sans;font-size:12px;font-style:normal;font-weight:normal;text-anchor:start;" transform="rotate(-0, 169.63082, 450.185158)" x="169.63082" y="450.185158">KEGG_STARCH_AND_SUCROSE_METABOLISM</text>
   </g>
   <g id="text_26">
    <text style="font-family:DejaVu Sans;font-size:12px;font-style:normal;font-weight:normal;text-anchor:start;" transform="rotate(-0, 169.63082, 463.775158)" x="169.63082" y="463.775158">KEGG_GALACTOSE_METABOLISM</text>
   </g>
   <g id="text_27">
    <text style="font-family:DejaVu Sans;font-size:12px;font-style:normal;font-weight:normal;text-anchor:start;" transform="rotate(-0, 169.63082, 477.30422)" x="169.63082" y="477.30422">PID_RXR_VDR_PATHWAY</text>
   </g>
   <g id="text_28">
    <text style="font-family:DejaVu Sans;font-size:12px;font-style:normal;font-weight:normal;text-anchor:start;" transform="rotate(-0, 169.63082, 490.955158)" x="169.63082" y="490.955158">PID_RETINOIC_ACID_PATHWAY</text>
   </g>
   <g id="text_29">
    <text style="font-family:DejaVu Sans;font-size:12px;font-style:normal;font-weight:normal;text-anchor:start;" transform="rotate(-0, 169.63082, 504.545158)" x="169.63082" y="504.545158">REACTOME_PHASE1_FUNCTIONALIZATION_OF_COMPOUNDS</text>
   </g>
   <g id="text_30">
    <text style="font-family:DejaVu Sans;font-size:12px;font-style:normal;font-weight:normal;text-anchor:start;" transform="rotate(-0, 169.63082, 518.135158)" x="169.63082" y="518.135158">REACTOME_BIOLOGICAL_OXIDATIONS</text>
   </g>
   <g id="text_31">
    <text style="font-family:DejaVu Sans;font-size:12px;font-style:normal;font-weight:normal;text-anchor:start;" transform="rotate(-0, 169.63082, 531.725158)" x="169.63082" y="531.725158">REACTOME_CHONDROITIN_SULFATE_DERMATAN_SULFATE_METABOLISM</text>
   </g>
   <g id="text_32">
    <text style="font-family:DejaVu Sans;font-size:12px;font-style:normal;font-weight:normal;text-anchor:start;" transform="rotate(-0, 169.63082, 545.315158)" x="169.63082" y="545.315158">REACTOME_METABOLISM_OF_CARBOHYDRATES</text>
   </g>
   <g id="text_33">
    <text style="font-family:DejaVu Sans;font-size:12px;font-style:normal;font-weight:normal;text-anchor:start;" transform="rotate(-0, 169.63082, 558.905158)" x="169.63082" y="558.905158">REACTOME_GLYCOSAMINOGLYCAN_METABOLISM</text>
   </g>
   <g id="text_34">
    <text style="font-family:DejaVu Sans;font-size:12px;font-style:normal;font-weight:normal;text-anchor:start;" transform="rotate(-0, 169.63082, 572.649986)" x="169.63082" y="572.649986">KEGG_GLYCOSAMINOGLYCAN_BIOSYNTHESIS_HEPARAN_SULFATE</text>
   </g>
   <g id="text_35">
    <text style="font-family:DejaVu Sans;font-size:12px;font-style:normal;font-weight:normal;text-anchor:start;" transform="rotate(-0, 192.270984, 572.495158)" x="192.270984" y="572.495158">REACTOME_HEPARAN_SULFATE_HEPARIN_HS_GAG_METABOLISM</text>
   </g>
   <g id="text_36">
    <text style="font-family:DejaVu Sans;font-size:12px;font-style:normal;font-weight:normal;text-anchor:start;" transform="rotate(-0, 181.1061, 592.880158)" x="181.1061" y="592.880158">REACTOME_HS_GAG_BIOSYNTHESIS</text>
   </g>
   <g id="text_37">
    <text style="font-family:DejaVu Sans;font-size:12px;font-style:normal;font-weight:normal;text-anchor:start;" transform="rotate(-0, 169.63082, 606.470158)" x="169.63082" y="606.470158">REACTOME_TCA_CYCLE_AND_RESPIRATORY_ELECTRON_TRANSPORT</text>
   </g>
   <g id="text_38">
    <text style="font-family:DejaVu Sans;font-size:12px;font-style:normal;font-weight:normal;text-anchor:start;" transform="rotate(-0, 169.63082, 620.060158)" x="169.63082" y="620.060158">REACTOME_PYRUVATE_METABOLISM_AND_CITRIC_ACID_TCA_CYCLE</text>
   </g>
   <g id="text_39">
    <text style="font-family:DejaVu Sans;font-size:12px;font-style:normal;font-weight:normal;text-anchor:start;" transform="rotate(-0, 169.63082, 633.650158)" x="169.63082" y="633.650158">KEGG_OXIDATIVE_PHOSPHORYLATION</text>
   </g>
   <g id="text_40">
    <text style="font-family:DejaVu Sans;font-size:12px;font-style:normal;font-weight:normal;text-anchor:start;" transform="rotate(-0, 169.63082, 647.240158)" x="169.63082" y="647.240158">KEGG_CITRATE_CYCLE_TCA_CYCLE</text>
   </g>
   <g id="text_41">
    <text style="font-family:DejaVu Sans;font-size:12px;font-style:normal;font-weight:normal;text-anchor:start;" transform="rotate(-0, 169.63082, 696.58247)" x="169.63082" y="696.58247">REACTOME_FATTY_ACID_TRIACYLGLYCEROL_AND_KETONE_BODY_METABOLISM</text>
   </g>
   <g id="text_42">
    <text style="font-family:DejaVu Sans;font-size:12px;font-style:normal;font-weight:normal;text-anchor:start;" transform="rotate(-0, 214.911148, 701.600158)" x="214.911148" y="701.600158">REACTOME_SPHINGOLIPID_METABOLISM</text>
   </g>
   <g id="text_43">
    <text style="font-family:DejaVu Sans;font-size:12px;font-style:normal;font-weight:normal;text-anchor:start;" transform="rotate(-0, 184.56616, 686.305128)" x="184.56616" y="686.305128">REACTOME_METABOLISM_OF_LIPIDS_AND_LIPOPROTEINS</text>
   </g>
   <g id="text_44">
    <text style="font-family:DejaVu Sans;font-size:12px;font-style:normal;font-weight:normal;text-anchor:start;" transform="rotate(-0, 173.157279, 660.830158)" x="173.157279" y="660.830158">REACTOME_PPARA_ACTIVATES_GENE_EXPRESSION</text>
   </g>
   <g id="text_45">
    <text style="font-family:DejaVu Sans;font-size:12px;font-style:normal;font-weight:normal;text-anchor:start;" transform="rotate(-0, 199.788637, 694.744667)" x="199.788637" y="694.744667">REACTOME_PHOSPHOLIPID_METABOLISM</text>
   </g>
   <g id="text_46">
    <text style="font-family:DejaVu Sans;font-size:12px;font-style:normal;font-weight:normal;text-anchor:start;" transform="rotate(-0, 205.721357, 792.274691)" x="205.721357" y="792.274691">REACTOME_GLYCOLYSIS</text>
   </g>
   <g id="text_47">
    <text style="font-family:DejaVu Sans;font-size:12px;font-style:normal;font-weight:normal;text-anchor:start;" transform="rotate(-0, 234.188047, 745.032746)" x="234.188047" y="745.032746">KEGG_TRYPTOPHAN_METABOLISM</text>
   </g>
   <g id="text_48">
    <text style="font-family:DejaVu Sans;font-size:12px;font-style:normal;font-weight:normal;text-anchor:start;" transform="rotate(-0, 213.9427, 763.061361)" x="213.9427" y="763.061361">KEGG_PYRUVATE_METABOLISM</text>
   </g>
   <g id="text_49">
    <text style="font-family:DejaVu Sans;font-size:12px;font-style:normal;font-weight:normal;text-anchor:start;" transform="rotate(-0, 169.63082, 739.337016)" x="169.63082" y="739.337016">KEGG_BETA_ALANINE_METABOLISM</text>
   </g>
   <g id="text_50">
    <text style="font-family:DejaVu Sans;font-size:12px;font-style:normal;font-weight:normal;text-anchor:start;" transform="rotate(-0, 201.802903, 732.498859)" x="201.802903" y="732.498859">KEGG_BUTANOATE_METABOLISM</text>
   </g>
   <g id="text_51">
    <text style="font-family:DejaVu Sans;font-size:12px;font-style:normal;font-weight:normal;text-anchor:start;" transform="rotate(-0, 270.880711, 799.706623)" x="270.880711" y="799.706623">REACTOME_GLYCOGEN_BREAKDOWN_GLYCOGENOLYSIS</text>
   </g>
   <g id="text_52">
    <text style="font-family:DejaVu Sans;font-size:12px;font-style:normal;font-weight:normal;text-anchor:start;" transform="rotate(-0, 210.482789, 746.019295)" x="210.482789" y="746.019295">KEGG_PROPANOATE_METABOLISM</text>
   </g>
   <g id="text_53">
    <text style="font-family:DejaVu Sans;font-size:12px;font-style:normal;font-weight:normal;text-anchor:start;" transform="rotate(-0, 237.796174, 792.909282)" x="237.796174" y="792.909282">REACTOME_GLUCOSE_METABOLISM</text>
   </g>
   <g id="text_54">
    <text style="font-family:DejaVu Sans;font-size:12px;font-style:normal;font-weight:normal;text-anchor:start;" transform="rotate(-0, 228.05562, 726.21038)" x="228.05562" y="726.21038">KEGG_VALINE_LEUCINE_AND_ISOLEUCINE_DEGRADATION</text>
   </g>
   <g id="text_55">
    <text style="font-family:DejaVu Sans;font-size:12px;font-style:normal;font-weight:normal;text-anchor:start;" transform="rotate(-0, 216.309521, 806.354649)" x="216.309521" y="806.354649">REACTOME_GLUCONEOGENESIS</text>
   </g>
   <g id="text_56">
    <text style="font-family:DejaVu Sans;font-size:12px;font-style:normal;font-weight:normal;text-anchor:start;" transform="rotate(-0, 221.918561, 778.50772)" x="221.918561" y="778.50772">KEGG_GLYCOLYSIS_GLUCONEOGENESIS</text>
   </g>
   <g id="text_57">
    <text style="font-family:DejaVu Sans;font-size:12px;font-style:normal;font-weight:normal;text-anchor:start;" transform="rotate(-0, 193.090595, 742.58791)" x="193.090595" y="742.58791">KEGG_LYSINE_DEGRADATION</text>
   </g>
   <g id="text_58">
    <text style="font-family:DejaVu Sans;font-size:12px;font-style:normal;font-weight:normal;text-anchor:start;" transform="rotate(-0, 228.963441, 735.973316)" x="228.963441" y="735.973316">KEGG_FATTY_ACID_METABOLISM</text>
   </g>
   <g id="text_59">
    <text style="font-family:DejaVu Sans;font-size:12px;font-style:normal;font-weight:normal;text-anchor:start;" transform="rotate(-0, 252.932709, 715.190158)" x="252.932709" y="715.190158">REACTOME_BRANCHED_CHAIN_AMINO_ACID_CATABOLISM</text>
   </g>
   <g id="text_60">
    <text style="font-family:DejaVu Sans;font-size:12px;font-style:normal;font-weight:normal;text-anchor:middle;" transform="rotate(-0, 608.85, 105.47372)" x="608.85" y="105.47372">Metabolism</text>
   </g>
  </g>
 </g>
 <defs>
  <clipPath id="p52da876984">
   <rect height="701.355491" width="920.7" x="148.5" y="111.47372"/>
  </clipPath>
 </defs>
</svg>
