<?xml version="1.0" encoding="utf-8" standalone="no"?>
<!DOCTYPE svg PUBLIC "-//W3C//DTD SVG 1.1//EN"
  "http://www.w3.org/Graphics/SVG/1.1/DTD/svg11.dtd">
<!-- Created with matplotlib (https://matplotlib.org/) -->
<svg height="713.249499pt" version="1.1" viewBox="0 0 1320.296993 713.249499" width="1320.296993pt" xmlns="http://www.w3.org/2000/svg" xmlns:xlink="http://www.w3.org/1999/xlink">
 <defs>
  <style type="text/css">
*{stroke-linecap:butt;stroke-linejoin:round;}
  </style>
 </defs>
 <g id="figure_1">
  <g id="patch_1">
   <path d="M 0 713.249499 
L 1320.296993 713.249499 
L 1320.296993 0 
L 0 0 
z
" style="fill:#ffffff;"/>
  </g>
  <g id="axes_1">
   <g id="patch_2">
    <path clip-path="url(#p49850a2e46)" d="M 180.007609 99.85944 
C 181.397186 99.85944 182.730036 99.358265 183.712616 98.466293 
C 184.695195 97.574322 185.247279 96.364378 185.247279 95.10294 
C 185.247279 93.841501 184.695195 92.631558 183.712616 91.739586 
C 182.730036 90.847615 181.397186 90.34644 180.007609 90.34644 
C 178.618033 90.34644 177.285182 90.847615 176.302603 91.739586 
C 175.320024 92.631558 174.76794 93.841501 174.76794 95.10294 
C 174.76794 96.364378 175.320024 97.574322 176.302603 98.466293 
C 177.285182 99.358265 178.618033 99.85944 180.007609 99.85944 
z
" style="fill:#7a0177;"/>
   </g>
   <g id="patch_3">
    <path clip-path="url(#p49850a2e46)" d="M 180.007609 113.44944 
C 181.397186 113.44944 182.730036 112.948265 183.712616 112.056293 
C 184.695195 111.164322 185.247279 109.954378 185.247279 108.69294 
C 185.247279 107.431501 184.695195 106.221558 183.712616 105.329586 
C 182.730036 104.437615 181.397186 103.93644 180.007609 103.93644 
C 178.618033 103.93644 177.285182 104.437615 176.302603 105.329586 
C 175.320024 106.221558 174.76794 107.431501 174.76794 108.69294 
C 174.76794 109.954378 175.320024 111.164322 176.302603 112.056293 
C 177.285182 112.948265 178.618033 113.44944 180.007609 113.44944 
z
" style="fill:#7a0177;"/>
   </g>
   <g id="patch_4">
    <path clip-path="url(#p49850a2e46)" d="M 180.007609 127.03944 
C 181.397186 127.03944 182.730036 126.538265 183.712616 125.646293 
C 184.695195 124.754322 185.247279 123.544378 185.247279 122.28294 
C 185.247279 121.021501 184.695195 119.811558 183.712616 118.919586 
C 182.730036 118.027615 181.397186 117.52644 180.007609 117.52644 
C 178.618033 117.52644 177.285182 118.027615 176.302603 118.919586 
C 175.320024 119.811558 174.76794 121.021501 174.76794 122.28294 
C 174.76794 123.544378 175.320024 124.754322 176.302603 125.646293 
C 177.285182 126.538265 178.618033 127.03944 180.007609 127.03944 
z
" style="fill:#7a0177;"/>
   </g>
   <g id="patch_5">
    <path clip-path="url(#p49850a2e46)" d="M 180.007609 140.62944 
C 181.397186 140.62944 182.730036 140.128265 183.712616 139.236293 
C 184.695195 138.344322 185.247279 137.134378 185.247279 135.87294 
C 185.247279 134.611501 184.695195 133.401558 183.712616 132.509586 
C 182.730036 131.617615 181.397186 131.11644 180.007609 131.11644 
C 178.618033 131.11644 177.285182 131.617615 176.302603 132.509586 
C 175.320024 133.401558 174.76794 134.611501 174.76794 135.87294 
C 174.76794 137.134378 175.320024 138.344322 176.302603 139.236293 
C 177.285182 140.128265 178.618033 140.62944 180.007609 140.62944 
z
" style="fill:#7a0177;"/>
   </g>
   <g id="patch_6">
    <path clip-path="url(#p49850a2e46)" d="M 180.007609 154.21944 
C 181.397186 154.21944 182.730036 153.718265 183.712616 152.826293 
C 184.695195 151.934322 185.247279 150.724378 185.247279 149.46294 
C 185.247279 148.201501 184.695195 146.991558 183.712616 146.099586 
C 182.730036 145.207615 181.397186 144.70644 180.007609 144.70644 
C 178.618033 144.70644 177.285182 145.207615 176.302603 146.099586 
C 175.320024 146.991558 174.76794 148.201501 174.76794 149.46294 
C 174.76794 150.724378 175.320024 151.934322 176.302603 152.826293 
C 177.285182 153.718265 178.618033 154.21944 180.007609 154.21944 
z
" style="fill:#7a0177;"/>
   </g>
   <g id="patch_7">
    <path clip-path="url(#p49850a2e46)" d="M 180.007609 167.80944 
C 181.397186 167.80944 182.730036 167.308265 183.712616 166.416293 
C 184.695195 165.524322 185.247279 164.314378 185.247279 163.05294 
C 185.247279 161.791501 184.695195 160.581558 183.712616 159.689586 
C 182.730036 158.797615 181.397186 158.29644 180.007609 158.29644 
C 178.618033 158.29644 177.285182 158.797615 176.302603 159.689586 
C 175.320024 160.581558 174.76794 161.791501 174.76794 163.05294 
C 174.76794 164.314378 175.320024 165.524322 176.302603 166.416293 
C 177.285182 167.308265 178.618033 167.80944 180.007609 167.80944 
z
" style="fill:#7a0177;"/>
   </g>
   <g id="patch_8">
    <path clip-path="url(#p49850a2e46)" d="M 180.007609 181.39944 
C 181.397186 181.39944 182.730036 180.898265 183.712616 180.006293 
C 184.695195 179.114322 185.247279 177.904378 185.247279 176.64294 
C 185.247279 175.381501 184.695195 174.171558 183.712616 173.279586 
C 182.730036 172.387615 181.397186 171.88644 180.007609 171.88644 
C 178.618033 171.88644 177.285182 172.387615 176.302603 173.279586 
C 175.320024 174.171558 174.76794 175.381501 174.76794 176.64294 
C 174.76794 177.904378 175.320024 179.114322 176.302603 180.006293 
C 177.285182 180.898265 178.618033 181.39944 180.007609 181.39944 
z
" style="fill:#7a0177;"/>
   </g>
   <g id="patch_9">
    <path clip-path="url(#p49850a2e46)" d="M 180.007609 194.98944 
C 181.397186 194.98944 182.730036 194.488265 183.712616 193.596293 
C 184.695195 192.704322 185.247279 191.494378 185.247279 190.23294 
C 185.247279 188.971501 184.695195 187.761558 183.712616 186.869586 
C 182.730036 185.977615 181.397186 185.47644 180.007609 185.47644 
C 178.618033 185.47644 177.285182 185.977615 176.302603 186.869586 
C 175.320024 187.761558 174.76794 188.971501 174.76794 190.23294 
C 174.76794 191.494378 175.320024 192.704322 176.302603 193.596293 
C 177.285182 194.488265 178.618033 194.98944 180.007609 194.98944 
z
" style="fill:#7a0177;"/>
   </g>
   <g id="patch_10">
    <path clip-path="url(#p49850a2e46)" d="M 180.007609 208.57944 
C 181.397186 208.57944 182.730036 208.078265 183.712616 207.186293 
C 184.695195 206.294322 185.247279 205.084378 185.247279 203.82294 
C 185.247279 202.561501 184.695195 201.351558 183.712616 200.459586 
C 182.730036 199.567615 181.397186 199.06644 180.007609 199.06644 
C 178.618033 199.06644 177.285182 199.567615 176.302603 200.459586 
C 175.320024 201.351558 174.76794 202.561501 174.76794 203.82294 
C 174.76794 205.084378 175.320024 206.294322 176.302603 207.186293 
C 177.285182 208.078265 178.618033 208.57944 180.007609 208.57944 
z
" style="fill:#feebe2;"/>
   </g>
   <g id="patch_11">
    <path clip-path="url(#p49850a2e46)" d="M 180.007609 222.16944 
C 181.397186 222.16944 182.730036 221.668265 183.712616 220.776293 
C 184.695195 219.884322 185.247279 218.674378 185.247279 217.41294 
C 185.247279 216.151501 184.695195 214.941558 183.712616 214.049586 
C 182.730036 213.157615 181.397186 212.65644 180.007609 212.65644 
C 178.618033 212.65644 177.285182 213.157615 176.302603 214.049586 
C 175.320024 214.941558 174.76794 216.151501 174.76794 217.41294 
C 174.76794 218.674378 175.320024 219.884322 176.302603 220.776293 
C 177.285182 221.668265 178.618033 222.16944 180.007609 222.16944 
z
" style="fill:#feebe2;"/>
   </g>
   <g id="patch_12">
    <path clip-path="url(#p49850a2e46)" d="M 180.007609 235.75944 
C 181.397186 235.75944 182.730036 235.258265 183.712616 234.366293 
C 184.695195 233.474322 185.247279 232.264378 185.247279 231.00294 
C 185.247279 229.741501 184.695195 228.531558 183.712616 227.639586 
C 182.730036 226.747615 181.397186 226.24644 180.007609 226.24644 
C 178.618033 226.24644 177.285182 226.747615 176.302603 227.639586 
C 175.320024 228.531558 174.76794 229.741501 174.76794 231.00294 
C 174.76794 232.264378 175.320024 233.474322 176.302603 234.366293 
C 177.285182 235.258265 178.618033 235.75944 180.007609 235.75944 
z
" style="fill:#feebe2;"/>
   </g>
   <g id="patch_13">
    <path clip-path="url(#p49850a2e46)" d="M 180.007609 249.34944 
C 181.397186 249.34944 182.730036 248.848265 183.712616 247.956293 
C 184.695195 247.064322 185.247279 245.854378 185.247279 244.59294 
C 185.247279 243.331501 184.695195 242.121558 183.712616 241.229586 
C 182.730036 240.337615 181.397186 239.83644 180.007609 239.83644 
C 178.618033 239.83644 177.285182 240.337615 176.302603 241.229586 
C 175.320024 242.121558 174.76794 243.331501 174.76794 244.59294 
C 174.76794 245.854378 175.320024 247.064322 176.302603 247.956293 
C 177.285182 248.848265 178.618033 249.34944 180.007609 249.34944 
z
" style="fill:#feebe2;"/>
   </g>
   <g id="patch_14">
    <path clip-path="url(#p49850a2e46)" d="M 180.007609 262.93944 
C 181.397186 262.93944 182.730036 262.438265 183.712616 261.546293 
C 184.695195 260.654322 185.247279 259.444378 185.247279 258.18294 
C 185.247279 256.921501 184.695195 255.711558 183.712616 254.819586 
C 182.730036 253.927615 181.397186 253.42644 180.007609 253.42644 
C 178.618033 253.42644 177.285182 253.927615 176.302603 254.819586 
C 175.320024 255.711558 174.76794 256.921501 174.76794 258.18294 
C 174.76794 259.444378 175.320024 260.654322 176.302603 261.546293 
C 177.285182 262.438265 178.618033 262.93944 180.007609 262.93944 
z
" style="fill:#feebe2;"/>
   </g>
   <g id="patch_15">
    <path clip-path="url(#p49850a2e46)" d="M 180.007609 276.52944 
C 181.397186 276.52944 182.730036 276.028265 183.712616 275.136293 
C 184.695195 274.244322 185.247279 273.034378 185.247279 271.77294 
C 185.247279 270.511501 184.695195 269.301558 183.712616 268.409586 
C 182.730036 267.517615 181.397186 267.01644 180.007609 267.01644 
C 178.618033 267.01644 177.285182 267.517615 176.302603 268.409586 
C 175.320024 269.301558 174.76794 270.511501 174.76794 271.77294 
C 174.76794 273.034378 175.320024 274.244322 176.302603 275.136293 
C 177.285182 276.028265 178.618033 276.52944 180.007609 276.52944 
z
" style="fill:#feebe2;"/>
   </g>
   <g id="patch_16">
    <path clip-path="url(#p49850a2e46)" d="M 180.007609 290.11944 
C 181.397186 290.11944 182.730036 289.618265 183.712616 288.726293 
C 184.695195 287.834322 185.247279 286.624378 185.247279 285.36294 
C 185.247279 284.101501 184.695195 282.891558 183.712616 281.999586 
C 182.730036 281.107615 181.397186 280.60644 180.007609 280.60644 
C 178.618033 280.60644 177.285182 281.107615 176.302603 281.999586 
C 175.320024 282.891558 174.76794 284.101501 174.76794 285.36294 
C 174.76794 286.624378 175.320024 287.834322 176.302603 288.726293 
C 177.285182 289.618265 178.618033 290.11944 180.007609 290.11944 
z
" style="fill:#c51b8a;"/>
   </g>
   <g id="patch_17">
    <path clip-path="url(#p49850a2e46)" d="M 180.007609 298.95294 
L 180.007609 312.54294 
" style="fill:#1f77b4;stroke:#000000;stroke-linejoin:miter;"/>
   </g>
   <g id="patch_18">
    <path clip-path="url(#p49850a2e46)" d="M 180.007609 303.70944 
C 181.397186 303.70944 182.730036 303.208265 183.712616 302.316293 
C 184.695195 301.424322 185.247279 300.214378 185.247279 298.95294 
C 185.247279 297.691501 184.695195 296.481558 183.712616 295.589586 
C 182.730036 294.697615 181.397186 294.19644 180.007609 294.19644 
C 178.618033 294.19644 177.285182 294.697615 176.302603 295.589586 
C 175.320024 296.481558 174.76794 297.691501 174.76794 298.95294 
C 174.76794 300.214378 175.320024 301.424322 176.302603 302.316293 
C 177.285182 303.208265 178.618033 303.70944 180.007609 303.70944 
z
" style="fill:#7a0177;"/>
   </g>
   <g id="patch_19">
    <path clip-path="url(#p49850a2e46)" d="M 180.007609 317.29944 
C 181.397186 317.29944 182.730036 316.798265 183.712616 315.906293 
C 184.695195 315.014322 185.247279 313.804378 185.247279 312.54294 
C 185.247279 311.281501 184.695195 310.071558 183.712616 309.179586 
C 182.730036 308.287615 181.397186 307.78644 180.007609 307.78644 
C 178.618033 307.78644 177.285182 308.287615 176.302603 309.179586 
C 175.320024 310.071558 174.76794 311.281501 174.76794 312.54294 
C 174.76794 313.804378 175.320024 315.014322 176.302603 315.906293 
C 177.285182 316.798265 178.618033 317.29944 180.007609 317.29944 
z
" style="fill:#7a0177;"/>
   </g>
   <g id="patch_20">
    <path clip-path="url(#p49850a2e46)" d="M 180.007609 326.13294 
L 180.007609 339.72294 
" style="fill:#1f77b4;stroke:#000000;stroke-linejoin:miter;"/>
   </g>
   <g id="patch_21">
    <path clip-path="url(#p49850a2e46)" d="M 180.007609 330.88944 
C 181.397186 330.88944 182.730036 330.388265 183.712616 329.496293 
C 184.695195 328.604322 185.247279 327.394378 185.247279 326.13294 
C 185.247279 324.871501 184.695195 323.661558 183.712616 322.769586 
C 182.730036 321.877615 181.397186 321.37644 180.007609 321.37644 
C 178.618033 321.37644 177.285182 321.877615 176.302603 322.769586 
C 175.320024 323.661558 174.76794 324.871501 174.76794 326.13294 
C 174.76794 327.394378 175.320024 328.604322 176.302603 329.496293 
C 177.285182 330.388265 178.618033 330.88944 180.007609 330.88944 
z
" style="fill:#7a0177;"/>
   </g>
   <g id="patch_22">
    <path clip-path="url(#p49850a2e46)" d="M 180.007609 344.47944 
C 181.397186 344.47944 182.730036 343.978265 183.712616 343.086293 
C 184.695195 342.194322 185.247279 340.984378 185.247279 339.72294 
C 185.247279 338.461501 184.695195 337.251558 183.712616 336.359586 
C 182.730036 335.467615 181.397186 334.96644 180.007609 334.96644 
C 178.618033 334.96644 177.285182 335.467615 176.302603 336.359586 
C 175.320024 337.251558 174.76794 338.461501 174.76794 339.72294 
C 174.76794 340.984378 175.320024 342.194322 176.302603 343.086293 
C 177.285182 343.978265 178.618033 344.47944 180.007609 344.47944 
z
" style="fill:#7a0177;"/>
   </g>
   <g id="patch_23">
    <path clip-path="url(#p49850a2e46)" d="M 180.007609 376.719773 
L 224.919065 370.690043 
" style="fill:#1f77b4;stroke:#000000;stroke-linejoin:miter;"/>
   </g>
   <g id="patch_24">
    <path clip-path="url(#p49850a2e46)" d="M 180.007609 376.719773 
L 205.767899 394.08294 
" style="fill:#1f77b4;stroke:#000000;stroke-linejoin:miter;"/>
   </g>
   <g id="patch_25">
    <path clip-path="url(#p49850a2e46)" d="M 180.007609 376.719773 
L 199.111793 353.31294 
" style="fill:#1f77b4;stroke:#000000;stroke-linejoin:miter;"/>
   </g>
   <g id="patch_26">
    <path clip-path="url(#p49850a2e46)" d="M 224.919065 370.690043 
L 205.767899 394.08294 
" style="fill:#1f77b4;stroke:#000000;stroke-linejoin:miter;"/>
   </g>
   <g id="patch_27">
    <path clip-path="url(#p49850a2e46)" d="M 224.919065 370.690043 
L 199.111793 353.31294 
" style="fill:#1f77b4;stroke:#000000;stroke-linejoin:miter;"/>
   </g>
   <g id="patch_28">
    <path clip-path="url(#p49850a2e46)" d="M 205.767899 394.08294 
L 199.111793 353.31294 
" style="fill:#1f77b4;stroke:#000000;stroke-linejoin:miter;"/>
   </g>
   <g id="patch_29">
    <path clip-path="url(#p49850a2e46)" d="M 180.007609 381.476273 
C 181.397186 381.476273 182.730036 380.975098 183.712616 380.083126 
C 184.695195 379.191154 185.247279 377.981211 185.247279 376.719773 
C 185.247279 375.458334 184.695195 374.248391 183.712616 373.356419 
C 182.730036 372.464448 181.397186 371.963273 180.007609 371.963273 
C 178.618033 371.963273 177.285182 372.464448 176.302603 373.356419 
C 175.320024 374.248391 174.76794 375.458334 174.76794 376.719773 
C 174.76794 377.981211 175.320024 379.191154 176.302603 380.083126 
C 177.285182 380.975098 178.618033 381.476273 180.007609 381.476273 
z
" style="fill:#7a0177;"/>
   </g>
   <g id="patch_30">
    <path clip-path="url(#p49850a2e46)" d="M 224.919065 375.446543 
C 226.308642 375.446543 227.641492 374.945368 228.624071 374.053396 
C 229.606651 373.161424 230.158735 371.951481 230.158735 370.690043 
C 230.158735 369.428604 229.606651 368.218661 228.624071 367.326689 
C 227.641492 366.434717 226.308642 365.933543 224.919065 365.933543 
C 223.529489 365.933543 222.196638 366.434717 221.214059 367.326689 
C 220.23148 368.218661 219.679396 369.428604 219.679396 370.690043 
C 219.679396 371.951481 220.23148 373.161424 221.214059 374.053396 
C 222.196638 374.945368 223.529489 375.446543 224.919065 375.446543 
z
" style="fill:#7a0177;"/>
   </g>
   <g id="patch_31">
    <path clip-path="url(#p49850a2e46)" d="M 205.767899 398.83944 
C 207.157476 398.83944 208.490326 398.338265 209.472905 397.446293 
C 210.455484 396.554322 211.007569 395.344378 211.007569 394.08294 
C 211.007569 392.821501 210.455484 391.611558 209.472905 390.719586 
C 208.490326 389.827615 207.157476 389.32644 205.767899 389.32644 
C 204.378322 389.32644 203.045472 389.827615 202.062893 390.719586 
C 201.080314 391.611558 200.528229 392.821501 200.528229 394.08294 
C 200.528229 395.344378 201.080314 396.554322 202.062893 397.446293 
C 203.045472 398.338265 204.378322 398.83944 205.767899 398.83944 
z
" style="fill:#7a0177;"/>
   </g>
   <g id="patch_32">
    <path clip-path="url(#p49850a2e46)" d="M 199.111793 358.06944 
C 200.50137 358.06944 201.83422 357.568265 202.816799 356.676293 
C 203.799378 355.784322 204.351463 354.574378 204.351463 353.31294 
C 204.351463 352.051501 203.799378 350.841558 202.816799 349.949586 
C 201.83422 349.057615 200.50137 348.55644 199.111793 348.55644 
C 197.722216 348.55644 196.389366 349.057615 195.406787 349.949586 
C 194.424208 350.841558 193.872123 352.051501 193.872123 353.31294 
C 193.872123 354.574378 194.424208 355.784322 195.406787 356.676293 
C 196.389366 357.568265 197.722216 358.06944 199.111793 358.06944 
z
" style="fill:#7a0177;"/>
   </g>
   <g id="patch_33">
    <path clip-path="url(#p49850a2e46)" d="M 180.007609 431.079773 
L 224.919065 425.050043 
" style="fill:#1f77b4;stroke:#000000;stroke-linejoin:miter;"/>
   </g>
   <g id="patch_34">
    <path clip-path="url(#p49850a2e46)" d="M 180.007609 431.079773 
L 205.767899 448.44294 
" style="fill:#1f77b4;stroke:#000000;stroke-linejoin:miter;"/>
   </g>
   <g id="patch_35">
    <path clip-path="url(#p49850a2e46)" d="M 180.007609 431.079773 
L 199.111793 407.67294 
" style="fill:#1f77b4;stroke:#000000;stroke-linejoin:miter;"/>
   </g>
   <g id="patch_36">
    <path clip-path="url(#p49850a2e46)" d="M 224.919065 425.050043 
L 205.767899 448.44294 
" style="fill:#1f77b4;stroke:#000000;stroke-linejoin:miter;"/>
   </g>
   <g id="patch_37">
    <path clip-path="url(#p49850a2e46)" d="M 224.919065 425.050043 
L 199.111793 407.67294 
" style="fill:#1f77b4;stroke:#000000;stroke-linejoin:miter;"/>
   </g>
   <g id="patch_38">
    <path clip-path="url(#p49850a2e46)" d="M 205.767899 448.44294 
L 199.111793 407.67294 
" style="fill:#1f77b4;stroke:#000000;stroke-linejoin:miter;"/>
   </g>
   <g id="patch_39">
    <path clip-path="url(#p49850a2e46)" d="M 180.007609 435.836273 
C 181.397186 435.836273 182.730036 435.335098 183.712616 434.443126 
C 184.695195 433.551154 185.247279 432.341211 185.247279 431.079773 
C 185.247279 429.818334 184.695195 428.608391 183.712616 427.716419 
C 182.730036 426.824448 181.397186 426.323273 180.007609 426.323273 
C 178.618033 426.323273 177.285182 426.824448 176.302603 427.716419 
C 175.320024 428.608391 174.76794 429.818334 174.76794 431.079773 
C 174.76794 432.341211 175.320024 433.551154 176.302603 434.443126 
C 177.285182 435.335098 178.618033 435.836273 180.007609 435.836273 
z
" style="fill:#feebe2;"/>
   </g>
   <g id="patch_40">
    <path clip-path="url(#p49850a2e46)" d="M 224.919065 429.806543 
C 226.308642 429.806543 227.641492 429.305368 228.624071 428.413396 
C 229.606651 427.521424 230.158735 426.311481 230.158735 425.050043 
C 230.158735 423.788604 229.606651 422.578661 228.624071 421.686689 
C 227.641492 420.794717 226.308642 420.293543 224.919065 420.293543 
C 223.529489 420.293543 222.196638 420.794717 221.214059 421.686689 
C 220.23148 422.578661 219.679396 423.788604 219.679396 425.050043 
C 219.679396 426.311481 220.23148 427.521424 221.214059 428.413396 
C 222.196638 429.305368 223.529489 429.806543 224.919065 429.806543 
z
" style="fill:#feebe2;"/>
   </g>
   <g id="patch_41">
    <path clip-path="url(#p49850a2e46)" d="M 205.767899 453.19944 
C 207.157476 453.19944 208.490326 452.698265 209.472905 451.806293 
C 210.455484 450.914322 211.007569 449.704378 211.007569 448.44294 
C 211.007569 447.181501 210.455484 445.971558 209.472905 445.079586 
C 208.490326 444.187615 207.157476 443.68644 205.767899 443.68644 
C 204.378322 443.68644 203.045472 444.187615 202.062893 445.079586 
C 201.080314 445.971558 200.528229 447.181501 200.528229 448.44294 
C 200.528229 449.704378 201.080314 450.914322 202.062893 451.806293 
C 203.045472 452.698265 204.378322 453.19944 205.767899 453.19944 
z
" style="fill:#feebe2;"/>
   </g>
   <g id="patch_42">
    <path clip-path="url(#p49850a2e46)" d="M 199.111793 412.42944 
C 200.50137 412.42944 201.83422 411.928265 202.816799 411.036293 
C 203.799378 410.144322 204.351463 408.934378 204.351463 407.67294 
C 204.351463 406.411501 203.799378 405.201558 202.816799 404.309586 
C 201.83422 403.417615 200.50137 402.91644 199.111793 402.91644 
C 197.722216 402.91644 196.389366 403.417615 195.406787 404.309586 
C 194.424208 405.201558 193.872123 406.411501 193.872123 407.67294 
C 193.872123 408.934378 194.424208 410.144322 195.406787 411.036293 
C 196.389366 411.928265 197.722216 412.42944 199.111793 412.42944 
z
" style="fill:#feebe2;"/>
   </g>
   <g id="patch_43">
    <path clip-path="url(#p49850a2e46)" d="M 242.513281 519.875765 
L 291.413888 536.425977 
" style="fill:#1f77b4;stroke:#000000;stroke-linejoin:miter;"/>
   </g>
   <g id="patch_44">
    <path clip-path="url(#p49850a2e46)" d="M 242.513281 519.875765 
L 283.84128 563.318913 
" style="fill:#1f77b4;stroke:#000000;stroke-linejoin:miter;"/>
   </g>
   <g id="patch_45">
    <path clip-path="url(#p49850a2e46)" d="M 242.513281 519.875765 
L 285.538888 462.732643 
" style="fill:#1f77b4;stroke:#000000;stroke-linejoin:miter;"/>
   </g>
   <g id="patch_46">
    <path clip-path="url(#p49850a2e46)" d="M 242.513281 519.875765 
L 347.547479 503.47561 
" style="fill:#1f77b4;stroke:#000000;stroke-linejoin:miter;"/>
   </g>
   <g id="patch_47">
    <path clip-path="url(#p49850a2e46)" d="M 242.513281 519.875765 
L 304.293959 493.634 
" style="fill:#1f77b4;stroke:#000000;stroke-linejoin:miter;"/>
   </g>
   <g id="patch_48">
    <path clip-path="url(#p49850a2e46)" d="M 242.513281 519.875765 
L 292.066995 589.428325 
" style="fill:#1f77b4;stroke:#000000;stroke-linejoin:miter;"/>
   </g>
   <g id="patch_49">
    <path clip-path="url(#p49850a2e46)" d="M 242.513281 519.875765 
L 315.738645 531.947394 
" style="fill:#1f77b4;stroke:#000000;stroke-linejoin:miter;"/>
   </g>
   <g id="patch_50">
    <path clip-path="url(#p49850a2e46)" d="M 242.513281 519.875765 
L 245.39079 556.279728 
" style="fill:#1f77b4;stroke:#000000;stroke-linejoin:miter;"/>
   </g>
   <g id="patch_51">
    <path clip-path="url(#p49850a2e46)" d="M 242.513281 519.875765 
L 313.001029 582.906993 
" style="fill:#1f77b4;stroke:#000000;stroke-linejoin:miter;"/>
   </g>
   <g id="patch_52">
    <path clip-path="url(#p49850a2e46)" d="M 242.513281 519.875765 
L 264.33967 570.866315 
" style="fill:#1f77b4;stroke:#000000;stroke-linejoin:miter;"/>
   </g>
   <g id="patch_53">
    <path clip-path="url(#p49850a2e46)" d="M 242.513281 519.875765 
L 324.984865 498.295878 
" style="fill:#1f77b4;stroke:#000000;stroke-linejoin:miter;"/>
   </g>
   <g id="patch_54">
    <path clip-path="url(#p49850a2e46)" d="M 242.513281 519.875765 
L 348.05089 530.35855 
" style="fill:#1f77b4;stroke:#000000;stroke-linejoin:miter;"/>
   </g>
   <g id="patch_55">
    <path clip-path="url(#p49850a2e46)" d="M 242.513281 519.875765 
L 303.916145 462.03294 
" style="fill:#1f77b4;stroke:#000000;stroke-linejoin:miter;"/>
   </g>
   <g id="patch_56">
    <path clip-path="url(#p49850a2e46)" d="M 242.513281 519.875765 
L 329.130602 571.11922 
" style="fill:#1f77b4;stroke:#000000;stroke-linejoin:miter;"/>
   </g>
   <g id="patch_57">
    <path clip-path="url(#p49850a2e46)" d="M 242.513281 519.875765 
L 341.898657 553.68083 
" style="fill:#1f77b4;stroke:#000000;stroke-linejoin:miter;"/>
   </g>
   <g id="patch_58">
    <path clip-path="url(#p49850a2e46)" d="M 242.513281 519.875765 
L 268.591603 474.310867 
" style="fill:#1f77b4;stroke:#000000;stroke-linejoin:miter;"/>
   </g>
   <g id="patch_59">
    <path clip-path="url(#p49850a2e46)" d="M 242.513281 519.875765 
L 252.510022 493.443719 
" style="fill:#1f77b4;stroke:#000000;stroke-linejoin:miter;"/>
   </g>
   <g id="patch_60">
    <path clip-path="url(#p49850a2e46)" d="M 242.513281 519.875765 
L 224.049433 468.915564 
" style="fill:#1f77b4;stroke:#000000;stroke-linejoin:miter;"/>
   </g>
   <g id="patch_61">
    <path clip-path="url(#p49850a2e46)" d="M 242.513281 519.875765 
L 274.969504 507.706346 
" style="fill:#1f77b4;stroke:#000000;stroke-linejoin:miter;"/>
   </g>
   <g id="patch_62">
    <path clip-path="url(#p49850a2e46)" d="M 242.513281 519.875765 
L 257.495118 535.724467 
" style="fill:#1f77b4;stroke:#000000;stroke-linejoin:miter;"/>
   </g>
   <g id="patch_63">
    <path clip-path="url(#p49850a2e46)" d="M 242.513281 519.875765 
L 324.513108 472.143111 
" style="fill:#1f77b4;stroke:#000000;stroke-linejoin:miter;"/>
   </g>
   <g id="patch_64">
    <path clip-path="url(#p49850a2e46)" d="M 291.413888 536.425977 
L 283.84128 563.318913 
" style="fill:#1f77b4;stroke:#000000;stroke-linejoin:miter;"/>
   </g>
   <g id="patch_65">
    <path clip-path="url(#p49850a2e46)" d="M 291.413888 536.425977 
L 285.538888 462.732643 
" style="fill:#1f77b4;stroke:#000000;stroke-linejoin:miter;"/>
   </g>
   <g id="patch_66">
    <path clip-path="url(#p49850a2e46)" d="M 291.413888 536.425977 
L 347.547479 503.47561 
" style="fill:#1f77b4;stroke:#000000;stroke-linejoin:miter;"/>
   </g>
   <g id="patch_67">
    <path clip-path="url(#p49850a2e46)" d="M 291.413888 536.425977 
L 304.293959 493.634 
" style="fill:#1f77b4;stroke:#000000;stroke-linejoin:miter;"/>
   </g>
   <g id="patch_68">
    <path clip-path="url(#p49850a2e46)" d="M 291.413888 536.425977 
L 292.066995 589.428325 
" style="fill:#1f77b4;stroke:#000000;stroke-linejoin:miter;"/>
   </g>
   <g id="patch_69">
    <path clip-path="url(#p49850a2e46)" d="M 291.413888 536.425977 
L 315.738645 531.947394 
" style="fill:#1f77b4;stroke:#000000;stroke-linejoin:miter;"/>
   </g>
   <g id="patch_70">
    <path clip-path="url(#p49850a2e46)" d="M 291.413888 536.425977 
L 245.39079 556.279728 
" style="fill:#1f77b4;stroke:#000000;stroke-linejoin:miter;"/>
   </g>
   <g id="patch_71">
    <path clip-path="url(#p49850a2e46)" d="M 291.413888 536.425977 
L 313.001029 582.906993 
" style="fill:#1f77b4;stroke:#000000;stroke-linejoin:miter;"/>
   </g>
   <g id="patch_72">
    <path clip-path="url(#p49850a2e46)" d="M 291.413888 536.425977 
L 264.33967 570.866315 
" style="fill:#1f77b4;stroke:#000000;stroke-linejoin:miter;"/>
   </g>
   <g id="patch_73">
    <path clip-path="url(#p49850a2e46)" d="M 291.413888 536.425977 
L 324.984865 498.295878 
" style="fill:#1f77b4;stroke:#000000;stroke-linejoin:miter;"/>
   </g>
   <g id="patch_74">
    <path clip-path="url(#p49850a2e46)" d="M 291.413888 536.425977 
L 348.05089 530.35855 
" style="fill:#1f77b4;stroke:#000000;stroke-linejoin:miter;"/>
   </g>
   <g id="patch_75">
    <path clip-path="url(#p49850a2e46)" d="M 291.413888 536.425977 
L 303.916145 462.03294 
" style="fill:#1f77b4;stroke:#000000;stroke-linejoin:miter;"/>
   </g>
   <g id="patch_76">
    <path clip-path="url(#p49850a2e46)" d="M 291.413888 536.425977 
L 329.130602 571.11922 
" style="fill:#1f77b4;stroke:#000000;stroke-linejoin:miter;"/>
   </g>
   <g id="patch_77">
    <path clip-path="url(#p49850a2e46)" d="M 291.413888 536.425977 
L 341.898657 553.68083 
" style="fill:#1f77b4;stroke:#000000;stroke-linejoin:miter;"/>
   </g>
   <g id="patch_78">
    <path clip-path="url(#p49850a2e46)" d="M 291.413888 536.425977 
L 268.591603 474.310867 
" style="fill:#1f77b4;stroke:#000000;stroke-linejoin:miter;"/>
   </g>
   <g id="patch_79">
    <path clip-path="url(#p49850a2e46)" d="M 291.413888 536.425977 
L 252.510022 493.443719 
" style="fill:#1f77b4;stroke:#000000;stroke-linejoin:miter;"/>
   </g>
   <g id="patch_80">
    <path clip-path="url(#p49850a2e46)" d="M 291.413888 536.425977 
L 224.049433 468.915564 
" style="fill:#1f77b4;stroke:#000000;stroke-linejoin:miter;"/>
   </g>
   <g id="patch_81">
    <path clip-path="url(#p49850a2e46)" d="M 291.413888 536.425977 
L 274.969504 507.706346 
" style="fill:#1f77b4;stroke:#000000;stroke-linejoin:miter;"/>
   </g>
   <g id="patch_82">
    <path clip-path="url(#p49850a2e46)" d="M 291.413888 536.425977 
L 257.495118 535.724467 
" style="fill:#1f77b4;stroke:#000000;stroke-linejoin:miter;"/>
   </g>
   <g id="patch_83">
    <path clip-path="url(#p49850a2e46)" d="M 291.413888 536.425977 
L 324.513108 472.143111 
" style="fill:#1f77b4;stroke:#000000;stroke-linejoin:miter;"/>
   </g>
   <g id="patch_84">
    <path clip-path="url(#p49850a2e46)" d="M 283.84128 563.318913 
L 285.538888 462.732643 
" style="fill:#1f77b4;stroke:#000000;stroke-linejoin:miter;"/>
   </g>
   <g id="patch_85">
    <path clip-path="url(#p49850a2e46)" d="M 283.84128 563.318913 
L 347.547479 503.47561 
" style="fill:#1f77b4;stroke:#000000;stroke-linejoin:miter;"/>
   </g>
   <g id="patch_86">
    <path clip-path="url(#p49850a2e46)" d="M 283.84128 563.318913 
L 304.293959 493.634 
" style="fill:#1f77b4;stroke:#000000;stroke-linejoin:miter;"/>
   </g>
   <g id="patch_87">
    <path clip-path="url(#p49850a2e46)" d="M 283.84128 563.318913 
L 292.066995 589.428325 
" style="fill:#1f77b4;stroke:#000000;stroke-linejoin:miter;"/>
   </g>
   <g id="patch_88">
    <path clip-path="url(#p49850a2e46)" d="M 283.84128 563.318913 
L 315.738645 531.947394 
" style="fill:#1f77b4;stroke:#000000;stroke-linejoin:miter;"/>
   </g>
   <g id="patch_89">
    <path clip-path="url(#p49850a2e46)" d="M 283.84128 563.318913 
L 245.39079 556.279728 
" style="fill:#1f77b4;stroke:#000000;stroke-linejoin:miter;"/>
   </g>
   <g id="patch_90">
    <path clip-path="url(#p49850a2e46)" d="M 283.84128 563.318913 
L 313.001029 582.906993 
" style="fill:#1f77b4;stroke:#000000;stroke-linejoin:miter;"/>
   </g>
   <g id="patch_91">
    <path clip-path="url(#p49850a2e46)" d="M 283.84128 563.318913 
L 264.33967 570.866315 
" style="fill:#1f77b4;stroke:#000000;stroke-linejoin:miter;"/>
   </g>
   <g id="patch_92">
    <path clip-path="url(#p49850a2e46)" d="M 283.84128 563.318913 
L 324.984865 498.295878 
" style="fill:#1f77b4;stroke:#000000;stroke-linejoin:miter;"/>
   </g>
   <g id="patch_93">
    <path clip-path="url(#p49850a2e46)" d="M 283.84128 563.318913 
L 348.05089 530.35855 
" style="fill:#1f77b4;stroke:#000000;stroke-linejoin:miter;"/>
   </g>
   <g id="patch_94">
    <path clip-path="url(#p49850a2e46)" d="M 283.84128 563.318913 
L 303.916145 462.03294 
" style="fill:#1f77b4;stroke:#000000;stroke-linejoin:miter;"/>
   </g>
   <g id="patch_95">
    <path clip-path="url(#p49850a2e46)" d="M 283.84128 563.318913 
L 329.130602 571.11922 
" style="fill:#1f77b4;stroke:#000000;stroke-linejoin:miter;"/>
   </g>
   <g id="patch_96">
    <path clip-path="url(#p49850a2e46)" d="M 283.84128 563.318913 
L 341.898657 553.68083 
" style="fill:#1f77b4;stroke:#000000;stroke-linejoin:miter;"/>
   </g>
   <g id="patch_97">
    <path clip-path="url(#p49850a2e46)" d="M 283.84128 563.318913 
L 268.591603 474.310867 
" style="fill:#1f77b4;stroke:#000000;stroke-linejoin:miter;"/>
   </g>
   <g id="patch_98">
    <path clip-path="url(#p49850a2e46)" d="M 283.84128 563.318913 
L 252.510022 493.443719 
" style="fill:#1f77b4;stroke:#000000;stroke-linejoin:miter;"/>
   </g>
   <g id="patch_99">
    <path clip-path="url(#p49850a2e46)" d="M 283.84128 563.318913 
L 224.049433 468.915564 
" style="fill:#1f77b4;stroke:#000000;stroke-linejoin:miter;"/>
   </g>
   <g id="patch_100">
    <path clip-path="url(#p49850a2e46)" d="M 283.84128 563.318913 
L 274.969504 507.706346 
" style="fill:#1f77b4;stroke:#000000;stroke-linejoin:miter;"/>
   </g>
   <g id="patch_101">
    <path clip-path="url(#p49850a2e46)" d="M 283.84128 563.318913 
L 257.495118 535.724467 
" style="fill:#1f77b4;stroke:#000000;stroke-linejoin:miter;"/>
   </g>
   <g id="patch_102">
    <path clip-path="url(#p49850a2e46)" d="M 283.84128 563.318913 
L 324.513108 472.143111 
" style="fill:#1f77b4;stroke:#000000;stroke-linejoin:miter;"/>
   </g>
   <g id="patch_103">
    <path clip-path="url(#p49850a2e46)" d="M 285.538888 462.732643 
L 347.547479 503.47561 
" style="fill:#1f77b4;stroke:#000000;stroke-linejoin:miter;"/>
   </g>
   <g id="patch_104">
    <path clip-path="url(#p49850a2e46)" d="M 285.538888 462.732643 
L 304.293959 493.634 
" style="fill:#1f77b4;stroke:#000000;stroke-linejoin:miter;"/>
   </g>
   <g id="patch_105">
    <path clip-path="url(#p49850a2e46)" d="M 285.538888 462.732643 
L 292.066995 589.428325 
" style="fill:#1f77b4;stroke:#000000;stroke-linejoin:miter;"/>
   </g>
   <g id="patch_106">
    <path clip-path="url(#p49850a2e46)" d="M 285.538888 462.732643 
L 315.738645 531.947394 
" style="fill:#1f77b4;stroke:#000000;stroke-linejoin:miter;"/>
   </g>
   <g id="patch_107">
    <path clip-path="url(#p49850a2e46)" d="M 285.538888 462.732643 
L 245.39079 556.279728 
" style="fill:#1f77b4;stroke:#000000;stroke-linejoin:miter;"/>
   </g>
   <g id="patch_108">
    <path clip-path="url(#p49850a2e46)" d="M 285.538888 462.732643 
L 313.001029 582.906993 
" style="fill:#1f77b4;stroke:#000000;stroke-linejoin:miter;"/>
   </g>
   <g id="patch_109">
    <path clip-path="url(#p49850a2e46)" d="M 285.538888 462.732643 
L 264.33967 570.866315 
" style="fill:#1f77b4;stroke:#000000;stroke-linejoin:miter;"/>
   </g>
   <g id="patch_110">
    <path clip-path="url(#p49850a2e46)" d="M 285.538888 462.732643 
L 324.984865 498.295878 
" style="fill:#1f77b4;stroke:#000000;stroke-linejoin:miter;"/>
   </g>
   <g id="patch_111">
    <path clip-path="url(#p49850a2e46)" d="M 285.538888 462.732643 
L 348.05089 530.35855 
" style="fill:#1f77b4;stroke:#000000;stroke-linejoin:miter;"/>
   </g>
   <g id="patch_112">
    <path clip-path="url(#p49850a2e46)" d="M 285.538888 462.732643 
L 303.916145 462.03294 
" style="fill:#1f77b4;stroke:#000000;stroke-linejoin:miter;"/>
   </g>
   <g id="patch_113">
    <path clip-path="url(#p49850a2e46)" d="M 285.538888 462.732643 
L 329.130602 571.11922 
" style="fill:#1f77b4;stroke:#000000;stroke-linejoin:miter;"/>
   </g>
   <g id="patch_114">
    <path clip-path="url(#p49850a2e46)" d="M 285.538888 462.732643 
L 341.898657 553.68083 
" style="fill:#1f77b4;stroke:#000000;stroke-linejoin:miter;"/>
   </g>
   <g id="patch_115">
    <path clip-path="url(#p49850a2e46)" d="M 285.538888 462.732643 
L 268.591603 474.310867 
" style="fill:#1f77b4;stroke:#000000;stroke-linejoin:miter;"/>
   </g>
   <g id="patch_116">
    <path clip-path="url(#p49850a2e46)" d="M 285.538888 462.732643 
L 252.510022 493.443719 
" style="fill:#1f77b4;stroke:#000000;stroke-linejoin:miter;"/>
   </g>
   <g id="patch_117">
    <path clip-path="url(#p49850a2e46)" d="M 285.538888 462.732643 
L 274.969504 507.706346 
" style="fill:#1f77b4;stroke:#000000;stroke-linejoin:miter;"/>
   </g>
   <g id="patch_118">
    <path clip-path="url(#p49850a2e46)" d="M 285.538888 462.732643 
L 257.495118 535.724467 
" style="fill:#1f77b4;stroke:#000000;stroke-linejoin:miter;"/>
   </g>
   <g id="patch_119">
    <path clip-path="url(#p49850a2e46)" d="M 285.538888 462.732643 
L 324.513108 472.143111 
" style="fill:#1f77b4;stroke:#000000;stroke-linejoin:miter;"/>
   </g>
   <g id="patch_120">
    <path clip-path="url(#p49850a2e46)" d="M 347.547479 503.47561 
L 304.293959 493.634 
" style="fill:#1f77b4;stroke:#000000;stroke-linejoin:miter;"/>
   </g>
   <g id="patch_121">
    <path clip-path="url(#p49850a2e46)" d="M 347.547479 503.47561 
L 292.066995 589.428325 
" style="fill:#1f77b4;stroke:#000000;stroke-linejoin:miter;"/>
   </g>
   <g id="patch_122">
    <path clip-path="url(#p49850a2e46)" d="M 347.547479 503.47561 
L 315.738645 531.947394 
" style="fill:#1f77b4;stroke:#000000;stroke-linejoin:miter;"/>
   </g>
   <g id="patch_123">
    <path clip-path="url(#p49850a2e46)" d="M 347.547479 503.47561 
L 245.39079 556.279728 
" style="fill:#1f77b4;stroke:#000000;stroke-linejoin:miter;"/>
   </g>
   <g id="patch_124">
    <path clip-path="url(#p49850a2e46)" d="M 347.547479 503.47561 
L 313.001029 582.906993 
" style="fill:#1f77b4;stroke:#000000;stroke-linejoin:miter;"/>
   </g>
   <g id="patch_125">
    <path clip-path="url(#p49850a2e46)" d="M 347.547479 503.47561 
L 264.33967 570.866315 
" style="fill:#1f77b4;stroke:#000000;stroke-linejoin:miter;"/>
   </g>
   <g id="patch_126">
    <path clip-path="url(#p49850a2e46)" d="M 347.547479 503.47561 
L 324.984865 498.295878 
" style="fill:#1f77b4;stroke:#000000;stroke-linejoin:miter;"/>
   </g>
   <g id="patch_127">
    <path clip-path="url(#p49850a2e46)" d="M 347.547479 503.47561 
L 348.05089 530.35855 
" style="fill:#1f77b4;stroke:#000000;stroke-linejoin:miter;"/>
   </g>
   <g id="patch_128">
    <path clip-path="url(#p49850a2e46)" d="M 347.547479 503.47561 
L 303.916145 462.03294 
" style="fill:#1f77b4;stroke:#000000;stroke-linejoin:miter;"/>
   </g>
   <g id="patch_129">
    <path clip-path="url(#p49850a2e46)" d="M 347.547479 503.47561 
L 329.130602 571.11922 
" style="fill:#1f77b4;stroke:#000000;stroke-linejoin:miter;"/>
   </g>
   <g id="patch_130">
    <path clip-path="url(#p49850a2e46)" d="M 347.547479 503.47561 
L 341.898657 553.68083 
" style="fill:#1f77b4;stroke:#000000;stroke-linejoin:miter;"/>
   </g>
   <g id="patch_131">
    <path clip-path="url(#p49850a2e46)" d="M 347.547479 503.47561 
L 268.591603 474.310867 
" style="fill:#1f77b4;stroke:#000000;stroke-linejoin:miter;"/>
   </g>
   <g id="patch_132">
    <path clip-path="url(#p49850a2e46)" d="M 347.547479 503.47561 
L 252.510022 493.443719 
" style="fill:#1f77b4;stroke:#000000;stroke-linejoin:miter;"/>
   </g>
   <g id="patch_133">
    <path clip-path="url(#p49850a2e46)" d="M 347.547479 503.47561 
L 274.969504 507.706346 
" style="fill:#1f77b4;stroke:#000000;stroke-linejoin:miter;"/>
   </g>
   <g id="patch_134">
    <path clip-path="url(#p49850a2e46)" d="M 347.547479 503.47561 
L 257.495118 535.724467 
" style="fill:#1f77b4;stroke:#000000;stroke-linejoin:miter;"/>
   </g>
   <g id="patch_135">
    <path clip-path="url(#p49850a2e46)" d="M 347.547479 503.47561 
L 324.513108 472.143111 
" style="fill:#1f77b4;stroke:#000000;stroke-linejoin:miter;"/>
   </g>
   <g id="patch_136">
    <path clip-path="url(#p49850a2e46)" d="M 304.293959 493.634 
L 292.066995 589.428325 
" style="fill:#1f77b4;stroke:#000000;stroke-linejoin:miter;"/>
   </g>
   <g id="patch_137">
    <path clip-path="url(#p49850a2e46)" d="M 304.293959 493.634 
L 315.738645 531.947394 
" style="fill:#1f77b4;stroke:#000000;stroke-linejoin:miter;"/>
   </g>
   <g id="patch_138">
    <path clip-path="url(#p49850a2e46)" d="M 304.293959 493.634 
L 245.39079 556.279728 
" style="fill:#1f77b4;stroke:#000000;stroke-linejoin:miter;"/>
   </g>
   <g id="patch_139">
    <path clip-path="url(#p49850a2e46)" d="M 304.293959 493.634 
L 313.001029 582.906993 
" style="fill:#1f77b4;stroke:#000000;stroke-linejoin:miter;"/>
   </g>
   <g id="patch_140">
    <path clip-path="url(#p49850a2e46)" d="M 304.293959 493.634 
L 264.33967 570.866315 
" style="fill:#1f77b4;stroke:#000000;stroke-linejoin:miter;"/>
   </g>
   <g id="patch_141">
    <path clip-path="url(#p49850a2e46)" d="M 304.293959 493.634 
L 324.984865 498.295878 
" style="fill:#1f77b4;stroke:#000000;stroke-linejoin:miter;"/>
   </g>
   <g id="patch_142">
    <path clip-path="url(#p49850a2e46)" d="M 304.293959 493.634 
L 348.05089 530.35855 
" style="fill:#1f77b4;stroke:#000000;stroke-linejoin:miter;"/>
   </g>
   <g id="patch_143">
    <path clip-path="url(#p49850a2e46)" d="M 304.293959 493.634 
L 303.916145 462.03294 
" style="fill:#1f77b4;stroke:#000000;stroke-linejoin:miter;"/>
   </g>
   <g id="patch_144">
    <path clip-path="url(#p49850a2e46)" d="M 304.293959 493.634 
L 329.130602 571.11922 
" style="fill:#1f77b4;stroke:#000000;stroke-linejoin:miter;"/>
   </g>
   <g id="patch_145">
    <path clip-path="url(#p49850a2e46)" d="M 304.293959 493.634 
L 341.898657 553.68083 
" style="fill:#1f77b4;stroke:#000000;stroke-linejoin:miter;"/>
   </g>
   <g id="patch_146">
    <path clip-path="url(#p49850a2e46)" d="M 304.293959 493.634 
L 268.591603 474.310867 
" style="fill:#1f77b4;stroke:#000000;stroke-linejoin:miter;"/>
   </g>
   <g id="patch_147">
    <path clip-path="url(#p49850a2e46)" d="M 304.293959 493.634 
L 252.510022 493.443719 
" style="fill:#1f77b4;stroke:#000000;stroke-linejoin:miter;"/>
   </g>
   <g id="patch_148">
    <path clip-path="url(#p49850a2e46)" d="M 304.293959 493.634 
L 274.969504 507.706346 
" style="fill:#1f77b4;stroke:#000000;stroke-linejoin:miter;"/>
   </g>
   <g id="patch_149">
    <path clip-path="url(#p49850a2e46)" d="M 304.293959 493.634 
L 257.495118 535.724467 
" style="fill:#1f77b4;stroke:#000000;stroke-linejoin:miter;"/>
   </g>
   <g id="patch_150">
    <path clip-path="url(#p49850a2e46)" d="M 304.293959 493.634 
L 324.513108 472.143111 
" style="fill:#1f77b4;stroke:#000000;stroke-linejoin:miter;"/>
   </g>
   <g id="patch_151">
    <path clip-path="url(#p49850a2e46)" d="M 292.066995 589.428325 
L 315.738645 531.947394 
" style="fill:#1f77b4;stroke:#000000;stroke-linejoin:miter;"/>
   </g>
   <g id="patch_152">
    <path clip-path="url(#p49850a2e46)" d="M 292.066995 589.428325 
L 245.39079 556.279728 
" style="fill:#1f77b4;stroke:#000000;stroke-linejoin:miter;"/>
   </g>
   <g id="patch_153">
    <path clip-path="url(#p49850a2e46)" d="M 292.066995 589.428325 
L 313.001029 582.906993 
" style="fill:#1f77b4;stroke:#000000;stroke-linejoin:miter;"/>
   </g>
   <g id="patch_154">
    <path clip-path="url(#p49850a2e46)" d="M 292.066995 589.428325 
L 264.33967 570.866315 
" style="fill:#1f77b4;stroke:#000000;stroke-linejoin:miter;"/>
   </g>
   <g id="patch_155">
    <path clip-path="url(#p49850a2e46)" d="M 292.066995 589.428325 
L 324.984865 498.295878 
" style="fill:#1f77b4;stroke:#000000;stroke-linejoin:miter;"/>
   </g>
   <g id="patch_156">
    <path clip-path="url(#p49850a2e46)" d="M 292.066995 589.428325 
L 348.05089 530.35855 
" style="fill:#1f77b4;stroke:#000000;stroke-linejoin:miter;"/>
   </g>
   <g id="patch_157">
    <path clip-path="url(#p49850a2e46)" d="M 292.066995 589.428325 
L 303.916145 462.03294 
" style="fill:#1f77b4;stroke:#000000;stroke-linejoin:miter;"/>
   </g>
   <g id="patch_158">
    <path clip-path="url(#p49850a2e46)" d="M 292.066995 589.428325 
L 329.130602 571.11922 
" style="fill:#1f77b4;stroke:#000000;stroke-linejoin:miter;"/>
   </g>
   <g id="patch_159">
    <path clip-path="url(#p49850a2e46)" d="M 292.066995 589.428325 
L 341.898657 553.68083 
" style="fill:#1f77b4;stroke:#000000;stroke-linejoin:miter;"/>
   </g>
   <g id="patch_160">
    <path clip-path="url(#p49850a2e46)" d="M 292.066995 589.428325 
L 268.591603 474.310867 
" style="fill:#1f77b4;stroke:#000000;stroke-linejoin:miter;"/>
   </g>
   <g id="patch_161">
    <path clip-path="url(#p49850a2e46)" d="M 292.066995 589.428325 
L 252.510022 493.443719 
" style="fill:#1f77b4;stroke:#000000;stroke-linejoin:miter;"/>
   </g>
   <g id="patch_162">
    <path clip-path="url(#p49850a2e46)" d="M 292.066995 589.428325 
L 274.969504 507.706346 
" style="fill:#1f77b4;stroke:#000000;stroke-linejoin:miter;"/>
   </g>
   <g id="patch_163">
    <path clip-path="url(#p49850a2e46)" d="M 292.066995 589.428325 
L 257.495118 535.724467 
" style="fill:#1f77b4;stroke:#000000;stroke-linejoin:miter;"/>
   </g>
   <g id="patch_164">
    <path clip-path="url(#p49850a2e46)" d="M 292.066995 589.428325 
L 324.513108 472.143111 
" style="fill:#1f77b4;stroke:#000000;stroke-linejoin:miter;"/>
   </g>
   <g id="patch_165">
    <path clip-path="url(#p49850a2e46)" d="M 315.738645 531.947394 
L 245.39079 556.279728 
" style="fill:#1f77b4;stroke:#000000;stroke-linejoin:miter;"/>
   </g>
   <g id="patch_166">
    <path clip-path="url(#p49850a2e46)" d="M 315.738645 531.947394 
L 313.001029 582.906993 
" style="fill:#1f77b4;stroke:#000000;stroke-linejoin:miter;"/>
   </g>
   <g id="patch_167">
    <path clip-path="url(#p49850a2e46)" d="M 315.738645 531.947394 
L 264.33967 570.866315 
" style="fill:#1f77b4;stroke:#000000;stroke-linejoin:miter;"/>
   </g>
   <g id="patch_168">
    <path clip-path="url(#p49850a2e46)" d="M 315.738645 531.947394 
L 324.984865 498.295878 
" style="fill:#1f77b4;stroke:#000000;stroke-linejoin:miter;"/>
   </g>
   <g id="patch_169">
    <path clip-path="url(#p49850a2e46)" d="M 315.738645 531.947394 
L 348.05089 530.35855 
" style="fill:#1f77b4;stroke:#000000;stroke-linejoin:miter;"/>
   </g>
   <g id="patch_170">
    <path clip-path="url(#p49850a2e46)" d="M 315.738645 531.947394 
L 303.916145 462.03294 
" style="fill:#1f77b4;stroke:#000000;stroke-linejoin:miter;"/>
   </g>
   <g id="patch_171">
    <path clip-path="url(#p49850a2e46)" d="M 315.738645 531.947394 
L 329.130602 571.11922 
" style="fill:#1f77b4;stroke:#000000;stroke-linejoin:miter;"/>
   </g>
   <g id="patch_172">
    <path clip-path="url(#p49850a2e46)" d="M 315.738645 531.947394 
L 341.898657 553.68083 
" style="fill:#1f77b4;stroke:#000000;stroke-linejoin:miter;"/>
   </g>
   <g id="patch_173">
    <path clip-path="url(#p49850a2e46)" d="M 315.738645 531.947394 
L 268.591603 474.310867 
" style="fill:#1f77b4;stroke:#000000;stroke-linejoin:miter;"/>
   </g>
   <g id="patch_174">
    <path clip-path="url(#p49850a2e46)" d="M 315.738645 531.947394 
L 252.510022 493.443719 
" style="fill:#1f77b4;stroke:#000000;stroke-linejoin:miter;"/>
   </g>
   <g id="patch_175">
    <path clip-path="url(#p49850a2e46)" d="M 315.738645 531.947394 
L 224.049433 468.915564 
" style="fill:#1f77b4;stroke:#000000;stroke-linejoin:miter;"/>
   </g>
   <g id="patch_176">
    <path clip-path="url(#p49850a2e46)" d="M 315.738645 531.947394 
L 274.969504 507.706346 
" style="fill:#1f77b4;stroke:#000000;stroke-linejoin:miter;"/>
   </g>
   <g id="patch_177">
    <path clip-path="url(#p49850a2e46)" d="M 315.738645 531.947394 
L 257.495118 535.724467 
" style="fill:#1f77b4;stroke:#000000;stroke-linejoin:miter;"/>
   </g>
   <g id="patch_178">
    <path clip-path="url(#p49850a2e46)" d="M 315.738645 531.947394 
L 324.513108 472.143111 
" style="fill:#1f77b4;stroke:#000000;stroke-linejoin:miter;"/>
   </g>
   <g id="patch_179">
    <path clip-path="url(#p49850a2e46)" d="M 245.39079 556.279728 
L 313.001029 582.906993 
" style="fill:#1f77b4;stroke:#000000;stroke-linejoin:miter;"/>
   </g>
   <g id="patch_180">
    <path clip-path="url(#p49850a2e46)" d="M 245.39079 556.279728 
L 264.33967 570.866315 
" style="fill:#1f77b4;stroke:#000000;stroke-linejoin:miter;"/>
   </g>
   <g id="patch_181">
    <path clip-path="url(#p49850a2e46)" d="M 245.39079 556.279728 
L 180.007609 614.580312 
" style="fill:#1f77b4;stroke:#000000;stroke-linejoin:miter;"/>
   </g>
   <g id="patch_182">
    <path clip-path="url(#p49850a2e46)" d="M 245.39079 556.279728 
L 324.984865 498.295878 
" style="fill:#1f77b4;stroke:#000000;stroke-linejoin:miter;"/>
   </g>
   <g id="patch_183">
    <path clip-path="url(#p49850a2e46)" d="M 245.39079 556.279728 
L 348.05089 530.35855 
" style="fill:#1f77b4;stroke:#000000;stroke-linejoin:miter;"/>
   </g>
   <g id="patch_184">
    <path clip-path="url(#p49850a2e46)" d="M 245.39079 556.279728 
L 303.916145 462.03294 
" style="fill:#1f77b4;stroke:#000000;stroke-linejoin:miter;"/>
   </g>
   <g id="patch_185">
    <path clip-path="url(#p49850a2e46)" d="M 245.39079 556.279728 
L 329.130602 571.11922 
" style="fill:#1f77b4;stroke:#000000;stroke-linejoin:miter;"/>
   </g>
   <g id="patch_186">
    <path clip-path="url(#p49850a2e46)" d="M 245.39079 556.279728 
L 341.898657 553.68083 
" style="fill:#1f77b4;stroke:#000000;stroke-linejoin:miter;"/>
   </g>
   <g id="patch_187">
    <path clip-path="url(#p49850a2e46)" d="M 245.39079 556.279728 
L 268.591603 474.310867 
" style="fill:#1f77b4;stroke:#000000;stroke-linejoin:miter;"/>
   </g>
   <g id="patch_188">
    <path clip-path="url(#p49850a2e46)" d="M 245.39079 556.279728 
L 252.510022 493.443719 
" style="fill:#1f77b4;stroke:#000000;stroke-linejoin:miter;"/>
   </g>
   <g id="patch_189">
    <path clip-path="url(#p49850a2e46)" d="M 245.39079 556.279728 
L 224.049433 468.915564 
" style="fill:#1f77b4;stroke:#000000;stroke-linejoin:miter;"/>
   </g>
   <g id="patch_190">
    <path clip-path="url(#p49850a2e46)" d="M 245.39079 556.279728 
L 274.969504 507.706346 
" style="fill:#1f77b4;stroke:#000000;stroke-linejoin:miter;"/>
   </g>
   <g id="patch_191">
    <path clip-path="url(#p49850a2e46)" d="M 245.39079 556.279728 
L 257.495118 535.724467 
" style="fill:#1f77b4;stroke:#000000;stroke-linejoin:miter;"/>
   </g>
   <g id="patch_192">
    <path clip-path="url(#p49850a2e46)" d="M 245.39079 556.279728 
L 324.513108 472.143111 
" style="fill:#1f77b4;stroke:#000000;stroke-linejoin:miter;"/>
   </g>
   <g id="patch_193">
    <path clip-path="url(#p49850a2e46)" d="M 313.001029 582.906993 
L 264.33967 570.866315 
" style="fill:#1f77b4;stroke:#000000;stroke-linejoin:miter;"/>
   </g>
   <g id="patch_194">
    <path clip-path="url(#p49850a2e46)" d="M 313.001029 582.906993 
L 324.984865 498.295878 
" style="fill:#1f77b4;stroke:#000000;stroke-linejoin:miter;"/>
   </g>
   <g id="patch_195">
    <path clip-path="url(#p49850a2e46)" d="M 313.001029 582.906993 
L 348.05089 530.35855 
" style="fill:#1f77b4;stroke:#000000;stroke-linejoin:miter;"/>
   </g>
   <g id="patch_196">
    <path clip-path="url(#p49850a2e46)" d="M 313.001029 582.906993 
L 303.916145 462.03294 
" style="fill:#1f77b4;stroke:#000000;stroke-linejoin:miter;"/>
   </g>
   <g id="patch_197">
    <path clip-path="url(#p49850a2e46)" d="M 313.001029 582.906993 
L 329.130602 571.11922 
" style="fill:#1f77b4;stroke:#000000;stroke-linejoin:miter;"/>
   </g>
   <g id="patch_198">
    <path clip-path="url(#p49850a2e46)" d="M 313.001029 582.906993 
L 341.898657 553.68083 
" style="fill:#1f77b4;stroke:#000000;stroke-linejoin:miter;"/>
   </g>
   <g id="patch_199">
    <path clip-path="url(#p49850a2e46)" d="M 313.001029 582.906993 
L 268.591603 474.310867 
" style="fill:#1f77b4;stroke:#000000;stroke-linejoin:miter;"/>
   </g>
   <g id="patch_200">
    <path clip-path="url(#p49850a2e46)" d="M 313.001029 582.906993 
L 252.510022 493.443719 
" style="fill:#1f77b4;stroke:#000000;stroke-linejoin:miter;"/>
   </g>
   <g id="patch_201">
    <path clip-path="url(#p49850a2e46)" d="M 313.001029 582.906993 
L 274.969504 507.706346 
" style="fill:#1f77b4;stroke:#000000;stroke-linejoin:miter;"/>
   </g>
   <g id="patch_202">
    <path clip-path="url(#p49850a2e46)" d="M 313.001029 582.906993 
L 257.495118 535.724467 
" style="fill:#1f77b4;stroke:#000000;stroke-linejoin:miter;"/>
   </g>
   <g id="patch_203">
    <path clip-path="url(#p49850a2e46)" d="M 313.001029 582.906993 
L 324.513108 472.143111 
" style="fill:#1f77b4;stroke:#000000;stroke-linejoin:miter;"/>
   </g>
   <g id="patch_204">
    <path clip-path="url(#p49850a2e46)" d="M 264.33967 570.866315 
L 324.984865 498.295878 
" style="fill:#1f77b4;stroke:#000000;stroke-linejoin:miter;"/>
   </g>
   <g id="patch_205">
    <path clip-path="url(#p49850a2e46)" d="M 264.33967 570.866315 
L 348.05089 530.35855 
" style="fill:#1f77b4;stroke:#000000;stroke-linejoin:miter;"/>
   </g>
   <g id="patch_206">
    <path clip-path="url(#p49850a2e46)" d="M 264.33967 570.866315 
L 303.916145 462.03294 
" style="fill:#1f77b4;stroke:#000000;stroke-linejoin:miter;"/>
   </g>
   <g id="patch_207">
    <path clip-path="url(#p49850a2e46)" d="M 264.33967 570.866315 
L 329.130602 571.11922 
" style="fill:#1f77b4;stroke:#000000;stroke-linejoin:miter;"/>
   </g>
   <g id="patch_208">
    <path clip-path="url(#p49850a2e46)" d="M 264.33967 570.866315 
L 341.898657 553.68083 
" style="fill:#1f77b4;stroke:#000000;stroke-linejoin:miter;"/>
   </g>
   <g id="patch_209">
    <path clip-path="url(#p49850a2e46)" d="M 264.33967 570.866315 
L 268.591603 474.310867 
" style="fill:#1f77b4;stroke:#000000;stroke-linejoin:miter;"/>
   </g>
   <g id="patch_210">
    <path clip-path="url(#p49850a2e46)" d="M 264.33967 570.866315 
L 252.510022 493.443719 
" style="fill:#1f77b4;stroke:#000000;stroke-linejoin:miter;"/>
   </g>
   <g id="patch_211">
    <path clip-path="url(#p49850a2e46)" d="M 264.33967 570.866315 
L 224.049433 468.915564 
" style="fill:#1f77b4;stroke:#000000;stroke-linejoin:miter;"/>
   </g>
   <g id="patch_212">
    <path clip-path="url(#p49850a2e46)" d="M 264.33967 570.866315 
L 274.969504 507.706346 
" style="fill:#1f77b4;stroke:#000000;stroke-linejoin:miter;"/>
   </g>
   <g id="patch_213">
    <path clip-path="url(#p49850a2e46)" d="M 264.33967 570.866315 
L 257.495118 535.724467 
" style="fill:#1f77b4;stroke:#000000;stroke-linejoin:miter;"/>
   </g>
   <g id="patch_214">
    <path clip-path="url(#p49850a2e46)" d="M 264.33967 570.866315 
L 324.513108 472.143111 
" style="fill:#1f77b4;stroke:#000000;stroke-linejoin:miter;"/>
   </g>
   <g id="patch_215">
    <path clip-path="url(#p49850a2e46)" d="M 324.984865 498.295878 
L 348.05089 530.35855 
" style="fill:#1f77b4;stroke:#000000;stroke-linejoin:miter;"/>
   </g>
   <g id="patch_216">
    <path clip-path="url(#p49850a2e46)" d="M 324.984865 498.295878 
L 303.916145 462.03294 
" style="fill:#1f77b4;stroke:#000000;stroke-linejoin:miter;"/>
   </g>
   <g id="patch_217">
    <path clip-path="url(#p49850a2e46)" d="M 324.984865 498.295878 
L 329.130602 571.11922 
" style="fill:#1f77b4;stroke:#000000;stroke-linejoin:miter;"/>
   </g>
   <g id="patch_218">
    <path clip-path="url(#p49850a2e46)" d="M 324.984865 498.295878 
L 341.898657 553.68083 
" style="fill:#1f77b4;stroke:#000000;stroke-linejoin:miter;"/>
   </g>
   <g id="patch_219">
    <path clip-path="url(#p49850a2e46)" d="M 324.984865 498.295878 
L 268.591603 474.310867 
" style="fill:#1f77b4;stroke:#000000;stroke-linejoin:miter;"/>
   </g>
   <g id="patch_220">
    <path clip-path="url(#p49850a2e46)" d="M 324.984865 498.295878 
L 252.510022 493.443719 
" style="fill:#1f77b4;stroke:#000000;stroke-linejoin:miter;"/>
   </g>
   <g id="patch_221">
    <path clip-path="url(#p49850a2e46)" d="M 324.984865 498.295878 
L 224.049433 468.915564 
" style="fill:#1f77b4;stroke:#000000;stroke-linejoin:miter;"/>
   </g>
   <g id="patch_222">
    <path clip-path="url(#p49850a2e46)" d="M 324.984865 498.295878 
L 274.969504 507.706346 
" style="fill:#1f77b4;stroke:#000000;stroke-linejoin:miter;"/>
   </g>
   <g id="patch_223">
    <path clip-path="url(#p49850a2e46)" d="M 324.984865 498.295878 
L 257.495118 535.724467 
" style="fill:#1f77b4;stroke:#000000;stroke-linejoin:miter;"/>
   </g>
   <g id="patch_224">
    <path clip-path="url(#p49850a2e46)" d="M 324.984865 498.295878 
L 324.513108 472.143111 
" style="fill:#1f77b4;stroke:#000000;stroke-linejoin:miter;"/>
   </g>
   <g id="patch_225">
    <path clip-path="url(#p49850a2e46)" d="M 348.05089 530.35855 
L 303.916145 462.03294 
" style="fill:#1f77b4;stroke:#000000;stroke-linejoin:miter;"/>
   </g>
   <g id="patch_226">
    <path clip-path="url(#p49850a2e46)" d="M 348.05089 530.35855 
L 329.130602 571.11922 
" style="fill:#1f77b4;stroke:#000000;stroke-linejoin:miter;"/>
   </g>
   <g id="patch_227">
    <path clip-path="url(#p49850a2e46)" d="M 348.05089 530.35855 
L 341.898657 553.68083 
" style="fill:#1f77b4;stroke:#000000;stroke-linejoin:miter;"/>
   </g>
   <g id="patch_228">
    <path clip-path="url(#p49850a2e46)" d="M 348.05089 530.35855 
L 268.591603 474.310867 
" style="fill:#1f77b4;stroke:#000000;stroke-linejoin:miter;"/>
   </g>
   <g id="patch_229">
    <path clip-path="url(#p49850a2e46)" d="M 348.05089 530.35855 
L 252.510022 493.443719 
" style="fill:#1f77b4;stroke:#000000;stroke-linejoin:miter;"/>
   </g>
   <g id="patch_230">
    <path clip-path="url(#p49850a2e46)" d="M 348.05089 530.35855 
L 274.969504 507.706346 
" style="fill:#1f77b4;stroke:#000000;stroke-linejoin:miter;"/>
   </g>
   <g id="patch_231">
    <path clip-path="url(#p49850a2e46)" d="M 348.05089 530.35855 
L 257.495118 535.724467 
" style="fill:#1f77b4;stroke:#000000;stroke-linejoin:miter;"/>
   </g>
   <g id="patch_232">
    <path clip-path="url(#p49850a2e46)" d="M 348.05089 530.35855 
L 324.513108 472.143111 
" style="fill:#1f77b4;stroke:#000000;stroke-linejoin:miter;"/>
   </g>
   <g id="patch_233">
    <path clip-path="url(#p49850a2e46)" d="M 303.916145 462.03294 
L 329.130602 571.11922 
" style="fill:#1f77b4;stroke:#000000;stroke-linejoin:miter;"/>
   </g>
   <g id="patch_234">
    <path clip-path="url(#p49850a2e46)" d="M 303.916145 462.03294 
L 341.898657 553.68083 
" style="fill:#1f77b4;stroke:#000000;stroke-linejoin:miter;"/>
   </g>
   <g id="patch_235">
    <path clip-path="url(#p49850a2e46)" d="M 303.916145 462.03294 
L 268.591603 474.310867 
" style="fill:#1f77b4;stroke:#000000;stroke-linejoin:miter;"/>
   </g>
   <g id="patch_236">
    <path clip-path="url(#p49850a2e46)" d="M 303.916145 462.03294 
L 252.510022 493.443719 
" style="fill:#1f77b4;stroke:#000000;stroke-linejoin:miter;"/>
   </g>
   <g id="patch_237">
    <path clip-path="url(#p49850a2e46)" d="M 303.916145 462.03294 
L 224.049433 468.915564 
" style="fill:#1f77b4;stroke:#000000;stroke-linejoin:miter;"/>
   </g>
   <g id="patch_238">
    <path clip-path="url(#p49850a2e46)" d="M 303.916145 462.03294 
L 274.969504 507.706346 
" style="fill:#1f77b4;stroke:#000000;stroke-linejoin:miter;"/>
   </g>
   <g id="patch_239">
    <path clip-path="url(#p49850a2e46)" d="M 303.916145 462.03294 
L 257.495118 535.724467 
" style="fill:#1f77b4;stroke:#000000;stroke-linejoin:miter;"/>
   </g>
   <g id="patch_240">
    <path clip-path="url(#p49850a2e46)" d="M 303.916145 462.03294 
L 324.513108 472.143111 
" style="fill:#1f77b4;stroke:#000000;stroke-linejoin:miter;"/>
   </g>
   <g id="patch_241">
    <path clip-path="url(#p49850a2e46)" d="M 329.130602 571.11922 
L 341.898657 553.68083 
" style="fill:#1f77b4;stroke:#000000;stroke-linejoin:miter;"/>
   </g>
   <g id="patch_242">
    <path clip-path="url(#p49850a2e46)" d="M 329.130602 571.11922 
L 268.591603 474.310867 
" style="fill:#1f77b4;stroke:#000000;stroke-linejoin:miter;"/>
   </g>
   <g id="patch_243">
    <path clip-path="url(#p49850a2e46)" d="M 329.130602 571.11922 
L 252.510022 493.443719 
" style="fill:#1f77b4;stroke:#000000;stroke-linejoin:miter;"/>
   </g>
   <g id="patch_244">
    <path clip-path="url(#p49850a2e46)" d="M 329.130602 571.11922 
L 274.969504 507.706346 
" style="fill:#1f77b4;stroke:#000000;stroke-linejoin:miter;"/>
   </g>
   <g id="patch_245">
    <path clip-path="url(#p49850a2e46)" d="M 329.130602 571.11922 
L 257.495118 535.724467 
" style="fill:#1f77b4;stroke:#000000;stroke-linejoin:miter;"/>
   </g>
   <g id="patch_246">
    <path clip-path="url(#p49850a2e46)" d="M 329.130602 571.11922 
L 324.513108 472.143111 
" style="fill:#1f77b4;stroke:#000000;stroke-linejoin:miter;"/>
   </g>
   <g id="patch_247">
    <path clip-path="url(#p49850a2e46)" d="M 341.898657 553.68083 
L 268.591603 474.310867 
" style="fill:#1f77b4;stroke:#000000;stroke-linejoin:miter;"/>
   </g>
   <g id="patch_248">
    <path clip-path="url(#p49850a2e46)" d="M 341.898657 553.68083 
L 252.510022 493.443719 
" style="fill:#1f77b4;stroke:#000000;stroke-linejoin:miter;"/>
   </g>
   <g id="patch_249">
    <path clip-path="url(#p49850a2e46)" d="M 341.898657 553.68083 
L 274.969504 507.706346 
" style="fill:#1f77b4;stroke:#000000;stroke-linejoin:miter;"/>
   </g>
   <g id="patch_250">
    <path clip-path="url(#p49850a2e46)" d="M 341.898657 553.68083 
L 257.495118 535.724467 
" style="fill:#1f77b4;stroke:#000000;stroke-linejoin:miter;"/>
   </g>
   <g id="patch_251">
    <path clip-path="url(#p49850a2e46)" d="M 341.898657 553.68083 
L 324.513108 472.143111 
" style="fill:#1f77b4;stroke:#000000;stroke-linejoin:miter;"/>
   </g>
   <g id="patch_252">
    <path clip-path="url(#p49850a2e46)" d="M 268.591603 474.310867 
L 252.510022 493.443719 
" style="fill:#1f77b4;stroke:#000000;stroke-linejoin:miter;"/>
   </g>
   <g id="patch_253">
    <path clip-path="url(#p49850a2e46)" d="M 268.591603 474.310867 
L 224.049433 468.915564 
" style="fill:#1f77b4;stroke:#000000;stroke-linejoin:miter;"/>
   </g>
   <g id="patch_254">
    <path clip-path="url(#p49850a2e46)" d="M 268.591603 474.310867 
L 274.969504 507.706346 
" style="fill:#1f77b4;stroke:#000000;stroke-linejoin:miter;"/>
   </g>
   <g id="patch_255">
    <path clip-path="url(#p49850a2e46)" d="M 268.591603 474.310867 
L 257.495118 535.724467 
" style="fill:#1f77b4;stroke:#000000;stroke-linejoin:miter;"/>
   </g>
   <g id="patch_256">
    <path clip-path="url(#p49850a2e46)" d="M 268.591603 474.310867 
L 324.513108 472.143111 
" style="fill:#1f77b4;stroke:#000000;stroke-linejoin:miter;"/>
   </g>
   <g id="patch_257">
    <path clip-path="url(#p49850a2e46)" d="M 252.510022 493.443719 
L 274.969504 507.706346 
" style="fill:#1f77b4;stroke:#000000;stroke-linejoin:miter;"/>
   </g>
   <g id="patch_258">
    <path clip-path="url(#p49850a2e46)" d="M 252.510022 493.443719 
L 257.495118 535.724467 
" style="fill:#1f77b4;stroke:#000000;stroke-linejoin:miter;"/>
   </g>
   <g id="patch_259">
    <path clip-path="url(#p49850a2e46)" d="M 252.510022 493.443719 
L 324.513108 472.143111 
" style="fill:#1f77b4;stroke:#000000;stroke-linejoin:miter;"/>
   </g>
   <g id="patch_260">
    <path clip-path="url(#p49850a2e46)" d="M 224.049433 468.915564 
L 274.969504 507.706346 
" style="fill:#1f77b4;stroke:#000000;stroke-linejoin:miter;"/>
   </g>
   <g id="patch_261">
    <path clip-path="url(#p49850a2e46)" d="M 224.049433 468.915564 
L 257.495118 535.724467 
" style="fill:#1f77b4;stroke:#000000;stroke-linejoin:miter;"/>
   </g>
   <g id="patch_262">
    <path clip-path="url(#p49850a2e46)" d="M 224.049433 468.915564 
L 324.513108 472.143111 
" style="fill:#1f77b4;stroke:#000000;stroke-linejoin:miter;"/>
   </g>
   <g id="patch_263">
    <path clip-path="url(#p49850a2e46)" d="M 274.969504 507.706346 
L 257.495118 535.724467 
" style="fill:#1f77b4;stroke:#000000;stroke-linejoin:miter;"/>
   </g>
   <g id="patch_264">
    <path clip-path="url(#p49850a2e46)" d="M 274.969504 507.706346 
L 324.513108 472.143111 
" style="fill:#1f77b4;stroke:#000000;stroke-linejoin:miter;"/>
   </g>
   <g id="patch_265">
    <path clip-path="url(#p49850a2e46)" d="M 257.495118 535.724467 
L 324.513108 472.143111 
" style="fill:#1f77b4;stroke:#000000;stroke-linejoin:miter;"/>
   </g>
   <g id="patch_266">
    <path clip-path="url(#p49850a2e46)" d="M 242.513281 524.632265 
C 243.902858 524.632265 245.235708 524.13109 246.218287 523.239119 
C 247.200866 522.347147 247.752951 521.137204 247.752951 519.875765 
C 247.752951 518.614327 247.200866 517.404384 246.218287 516.512412 
C 245.235708 515.62044 243.902858 515.119265 242.513281 515.119265 
C 241.123704 515.119265 239.790854 515.62044 238.808275 516.512412 
C 237.825696 517.404384 237.273611 518.614327 237.273611 519.875765 
C 237.273611 521.137204 237.825696 522.347147 238.808275 523.239119 
C 239.790854 524.13109 241.123704 524.632265 242.513281 524.632265 
z
" style="fill:#7a0177;"/>
   </g>
   <g id="patch_267">
    <path clip-path="url(#p49850a2e46)" d="M 291.413888 541.182477 
C 292.803465 541.182477 294.136315 540.681302 295.118894 539.789331 
C 296.101473 538.897359 296.653558 537.687416 296.653558 536.425977 
C 296.653558 535.164539 296.101473 533.954596 295.118894 533.062624 
C 294.136315 532.170652 292.803465 531.669477 291.413888 531.669477 
C 290.024311 531.669477 288.691461 532.170652 287.708882 533.062624 
C 286.726303 533.954596 286.174218 535.164539 286.174218 536.425977 
C 286.174218 537.687416 286.726303 538.897359 287.708882 539.789331 
C 288.691461 540.681302 290.024311 541.182477 291.413888 541.182477 
z
" style="fill:#7a0177;"/>
   </g>
   <g id="patch_268">
    <path clip-path="url(#p49850a2e46)" d="M 283.84128 568.075413 
C 285.230856 568.075413 286.563707 567.574238 287.546286 566.682266 
C 288.528865 565.790294 289.08095 564.580351 289.08095 563.318913 
C 289.08095 562.057474 288.528865 560.847531 287.546286 559.955559 
C 286.563707 559.063587 285.230856 558.562413 283.84128 558.562413 
C 282.451703 558.562413 281.118853 559.063587 280.136274 559.955559 
C 279.153695 560.847531 278.60161 562.057474 278.60161 563.318913 
C 278.60161 564.580351 279.153695 565.790294 280.136274 566.682266 
C 281.118853 567.574238 282.451703 568.075413 283.84128 568.075413 
z
" style="fill:#7a0177;"/>
   </g>
   <g id="patch_269">
    <path clip-path="url(#p49850a2e46)" d="M 285.538888 467.489143 
C 286.928464 467.489143 288.261315 466.987968 289.243894 466.095997 
C 290.226473 465.204025 290.778558 463.994082 290.778558 462.732643 
C 290.778558 461.471205 290.226473 460.261262 289.243894 459.36929 
C 288.261315 458.477318 286.928464 457.976143 285.538888 457.976143 
C 284.149311 457.976143 282.816461 458.477318 281.833882 459.36929 
C 280.851303 460.261262 280.299218 461.471205 280.299218 462.732643 
C 280.299218 463.994082 280.851303 465.204025 281.833882 466.095997 
C 282.816461 466.987968 284.149311 467.489143 285.538888 467.489143 
z
" style="fill:#7a0177;"/>
   </g>
   <g id="patch_270">
    <path clip-path="url(#p49850a2e46)" d="M 347.547479 508.23211 
C 348.937056 508.23211 350.269906 507.730935 351.252485 506.838964 
C 352.235064 505.946992 352.787149 504.737049 352.787149 503.47561 
C 352.787149 502.214172 352.235064 501.004228 351.252485 500.112257 
C 350.269906 499.220285 348.937056 498.71911 347.547479 498.71911 
C 346.157903 498.71911 344.825052 499.220285 343.842473 500.112257 
C 342.859894 501.004228 342.307809 502.214172 342.307809 503.47561 
C 342.307809 504.737049 342.859894 505.946992 343.842473 506.838964 
C 344.825052 507.730935 346.157903 508.23211 347.547479 508.23211 
z
" style="fill:#7a0177;"/>
   </g>
   <g id="patch_271">
    <path clip-path="url(#p49850a2e46)" d="M 304.293959 498.3905 
C 305.683536 498.3905 307.016386 497.889325 307.998965 496.997353 
C 308.981544 496.105381 309.533629 494.895438 309.533629 493.634 
C 309.533629 492.372561 308.981544 491.162618 307.998965 490.270646 
C 307.016386 489.378674 305.683536 488.8775 304.293959 488.8775 
C 302.904382 488.8775 301.571532 489.378674 300.588953 490.270646 
C 299.606374 491.162618 299.054289 492.372561 299.054289 493.634 
C 299.054289 494.895438 299.606374 496.105381 300.588953 496.997353 
C 301.571532 497.889325 302.904382 498.3905 304.293959 498.3905 
z
" style="fill:#7a0177;"/>
   </g>
   <g id="patch_272">
    <path clip-path="url(#p49850a2e46)" d="M 292.066995 594.184825 
C 293.456571 594.184825 294.789422 593.68365 295.772001 592.791678 
C 296.75458 591.899706 297.306665 590.689763 297.306665 589.428325 
C 297.306665 588.166886 296.75458 586.956943 295.772001 586.064971 
C 294.789422 585.173 293.456571 584.671825 292.066995 584.671825 
C 290.677418 584.671825 289.344568 585.173 288.361989 586.064971 
C 287.37941 586.956943 286.827325 588.166886 286.827325 589.428325 
C 286.827325 590.689763 287.37941 591.899706 288.361989 592.791678 
C 289.344568 593.68365 290.677418 594.184825 292.066995 594.184825 
z
" style="fill:#7a0177;"/>
   </g>
   <g id="patch_273">
    <path clip-path="url(#p49850a2e46)" d="M 315.738645 536.703894 
C 317.128222 536.703894 318.461072 536.202719 319.443651 535.310748 
C 320.42623 534.418776 320.978315 533.208833 320.978315 531.947394 
C 320.978315 530.685956 320.42623 529.476012 319.443651 528.584041 
C 318.461072 527.692069 317.128222 527.190894 315.738645 527.190894 
C 314.349068 527.190894 313.016218 527.692069 312.033639 528.584041 
C 311.05106 529.476012 310.498975 530.685956 310.498975 531.947394 
C 310.498975 533.208833 311.05106 534.418776 312.033639 535.310748 
C 313.016218 536.202719 314.349068 536.703894 315.738645 536.703894 
z
" style="fill:#7a0177;"/>
   </g>
   <g id="patch_274">
    <path clip-path="url(#p49850a2e46)" d="M 245.39079 561.036228 
C 246.780367 561.036228 248.113217 560.535054 249.095796 559.643082 
C 250.078376 558.75111 250.63046 557.541167 250.63046 556.279728 
C 250.63046 555.01829 250.078376 553.808347 249.095796 552.916375 
C 248.113217 552.024403 246.780367 551.523228 245.39079 551.523228 
C 244.001214 551.523228 242.668363 552.024403 241.685784 552.916375 
C 240.703205 553.808347 240.15112 555.01829 240.15112 556.279728 
C 240.15112 557.541167 240.703205 558.75111 241.685784 559.643082 
C 242.668363 560.535054 244.001214 561.036228 245.39079 561.036228 
z
" style="fill:#7a0177;"/>
   </g>
   <g id="patch_275">
    <path clip-path="url(#p49850a2e46)" d="M 313.001029 587.663493 
C 314.390605 587.663493 315.723456 587.162318 316.706035 586.270347 
C 317.688614 585.378375 318.240699 584.168432 318.240699 582.906993 
C 318.240699 581.645555 317.688614 580.435612 316.706035 579.54364 
C 315.723456 578.651668 314.390605 578.150493 313.001029 578.150493 
C 311.611452 578.150493 310.278602 578.651668 309.296023 579.54364 
C 308.313444 580.435612 307.761359 581.645555 307.761359 582.906993 
C 307.761359 584.168432 308.313444 585.378375 309.296023 586.270347 
C 310.278602 587.162318 311.611452 587.663493 313.001029 587.663493 
z
" style="fill:#7a0177;"/>
   </g>
   <g id="patch_276">
    <path clip-path="url(#p49850a2e46)" d="M 264.33967 575.622815 
C 265.729246 575.622815 267.062097 575.12164 268.044676 574.229669 
C 269.027255 573.337697 269.579339 572.127754 269.579339 570.866315 
C 269.579339 569.604877 269.027255 568.394933 268.044676 567.502962 
C 267.062097 566.61099 265.729246 566.109815 264.33967 566.109815 
C 262.950093 566.109815 261.617243 566.61099 260.634664 567.502962 
C 259.652084 568.394933 259.1 569.604877 259.1 570.866315 
C 259.1 572.127754 259.652084 573.337697 260.634664 574.229669 
C 261.617243 575.12164 262.950093 575.622815 264.33967 575.622815 
z
" style="fill:#7a0177;"/>
   </g>
   <g id="patch_277">
    <path clip-path="url(#p49850a2e46)" d="M 180.007609 619.336812 
C 181.397186 619.336812 182.730036 618.835637 183.712616 617.943665 
C 184.695195 617.051693 185.247279 615.84175 185.247279 614.580312 
C 185.247279 613.318873 184.695195 612.10893 183.712616 611.216958 
C 182.730036 610.324986 181.397186 609.823812 180.007609 609.823812 
C 178.618033 609.823812 177.285182 610.324986 176.302603 611.216958 
C 175.320024 612.10893 174.76794 613.318873 174.76794 614.580312 
C 174.76794 615.84175 175.320024 617.051693 176.302603 617.943665 
C 177.285182 618.835637 178.618033 619.336812 180.007609 619.336812 
z
" style="fill:#7a0177;"/>
   </g>
   <g id="patch_278">
    <path clip-path="url(#p49850a2e46)" d="M 324.984865 503.052378 
C 326.374442 503.052378 327.707292 502.551204 328.689871 501.659232 
C 329.67245 500.76726 330.224535 499.557317 330.224535 498.295878 
C 330.224535 497.03444 329.67245 495.824497 328.689871 494.932525 
C 327.707292 494.040553 326.374442 493.539378 324.984865 493.539378 
C 323.595288 493.539378 322.262438 494.040553 321.279859 494.932525 
C 320.29728 495.824497 319.745195 497.03444 319.745195 498.295878 
C 319.745195 499.557317 320.29728 500.76726 321.279859 501.659232 
C 322.262438 502.551204 323.595288 503.052378 324.984865 503.052378 
z
" style="fill:#7a0177;"/>
   </g>
   <g id="patch_279">
    <path clip-path="url(#p49850a2e46)" d="M 348.05089 535.11505 
C 349.440467 535.11505 350.773317 534.613875 351.755896 533.721903 
C 352.738475 532.829931 353.29056 531.619988 353.29056 530.35855 
C 353.29056 529.097111 352.738475 527.887168 351.755896 526.995196 
C 350.773317 526.103225 349.440467 525.60205 348.05089 525.60205 
C 346.661314 525.60205 345.328463 526.103225 344.345884 526.995196 
C 343.363305 527.887168 342.81122 529.097111 342.81122 530.35855 
C 342.81122 531.619988 343.363305 532.829931 344.345884 533.721903 
C 345.328463 534.613875 346.661314 535.11505 348.05089 535.11505 
z
" style="fill:#7a0177;"/>
   </g>
   <g id="patch_280">
    <path clip-path="url(#p49850a2e46)" d="M 303.916145 466.78944 
C 305.305722 466.78944 306.638572 466.288265 307.621152 465.396293 
C 308.603731 464.504322 309.155815 463.294378 309.155815 462.03294 
C 309.155815 460.771501 308.603731 459.561558 307.621152 458.669586 
C 306.638572 457.777615 305.305722 457.27644 303.916145 457.27644 
C 302.526569 457.27644 301.193718 457.777615 300.211139 458.669586 
C 299.22856 459.561558 298.676476 460.771501 298.676476 462.03294 
C 298.676476 463.294378 299.22856 464.504322 300.211139 465.396293 
C 301.193718 466.288265 302.526569 466.78944 303.916145 466.78944 
z
" style="fill:#7a0177;"/>
   </g>
   <g id="patch_281">
    <path clip-path="url(#p49850a2e46)" d="M 329.130602 575.87572 
C 330.520179 575.87572 331.853029 575.374545 332.835608 574.482573 
C 333.818187 573.590602 334.370272 572.380658 334.370272 571.11922 
C 334.370272 569.857781 333.818187 568.647838 332.835608 567.755867 
C 331.853029 566.863895 330.520179 566.36272 329.130602 566.36272 
C 327.741026 566.36272 326.408175 566.863895 325.425596 567.755867 
C 324.443017 568.647838 323.890932 569.857781 323.890932 571.11922 
C 323.890932 572.380658 324.443017 573.590602 325.425596 574.482573 
C 326.408175 575.374545 327.741026 575.87572 329.130602 575.87572 
z
" style="fill:#7a0177;"/>
   </g>
   <g id="patch_282">
    <path clip-path="url(#p49850a2e46)" d="M 341.898657 558.43733 
C 343.288233 558.43733 344.621084 557.936155 345.603663 557.044184 
C 346.586242 556.152212 347.138327 554.942269 347.138327 553.68083 
C 347.138327 552.419392 346.586242 551.209449 345.603663 550.317477 
C 344.621084 549.425505 343.288233 548.92433 341.898657 548.92433 
C 340.50908 548.92433 339.17623 549.425505 338.193651 550.317477 
C 337.211072 551.209449 336.658987 552.419392 336.658987 553.68083 
C 336.658987 554.942269 337.211072 556.152212 338.193651 557.044184 
C 339.17623 557.936155 340.50908 558.43733 341.898657 558.43733 
z
" style="fill:#7a0177;"/>
   </g>
   <g id="patch_283">
    <path clip-path="url(#p49850a2e46)" d="M 268.591603 479.067367 
C 269.98118 479.067367 271.31403 478.566192 272.296609 477.67422 
C 273.279188 476.782248 273.831273 475.572305 273.831273 474.310867 
C 273.831273 473.049428 273.279188 471.839485 272.296609 470.947513 
C 271.31403 470.055542 269.98118 469.554367 268.591603 469.554367 
C 267.202027 469.554367 265.869176 470.055542 264.886597 470.947513 
C 263.904018 471.839485 263.351933 473.049428 263.351933 474.310867 
C 263.351933 475.572305 263.904018 476.782248 264.886597 477.67422 
C 265.869176 478.566192 267.202027 479.067367 268.591603 479.067367 
z
" style="fill:#7a0177;"/>
   </g>
   <g id="patch_284">
    <path clip-path="url(#p49850a2e46)" d="M 252.510022 498.200219 
C 253.899599 498.200219 255.232449 497.699044 256.215028 496.807072 
C 257.197607 495.9151 257.749692 494.705157 257.749692 493.443719 
C 257.749692 492.18228 257.197607 490.972337 256.215028 490.080365 
C 255.232449 489.188394 253.899599 488.687219 252.510022 488.687219 
C 251.120446 488.687219 249.787595 489.188394 248.805016 490.080365 
C 247.822437 490.972337 247.270352 492.18228 247.270352 493.443719 
C 247.270352 494.705157 247.822437 495.9151 248.805016 496.807072 
C 249.787595 497.699044 251.120446 498.200219 252.510022 498.200219 
z
" style="fill:#7a0177;"/>
   </g>
   <g id="patch_285">
    <path clip-path="url(#p49850a2e46)" d="M 224.049433 473.672064 
C 225.439009 473.672064 226.77186 473.170889 227.754439 472.278917 
C 228.737018 471.386946 229.289102 470.177003 229.289102 468.915564 
C 229.289102 467.654125 228.737018 466.444182 227.754439 465.552211 
C 226.77186 464.660239 225.439009 464.159064 224.049433 464.159064 
C 222.659856 464.159064 221.327006 464.660239 220.344426 465.552211 
C 219.361847 466.444182 218.809763 467.654125 218.809763 468.915564 
C 218.809763 470.177003 219.361847 471.386946 220.344426 472.278917 
C 221.327006 473.170889 222.659856 473.672064 224.049433 473.672064 
z
" style="fill:#7a0177;"/>
   </g>
   <g id="patch_286">
    <path clip-path="url(#p49850a2e46)" d="M 274.969504 512.462846 
C 276.35908 512.462846 277.691931 511.961672 278.67451 511.0697 
C 279.657089 510.177728 280.209174 508.967785 280.209174 507.706346 
C 280.209174 506.444908 279.657089 505.234965 278.67451 504.342993 
C 277.691931 503.451021 276.35908 502.949846 274.969504 502.949846 
C 273.579927 502.949846 272.247077 503.451021 271.264498 504.342993 
C 270.281919 505.234965 269.729834 506.444908 269.729834 507.706346 
C 269.729834 508.967785 270.281919 510.177728 271.264498 511.0697 
C 272.247077 511.961672 273.579927 512.462846 274.969504 512.462846 
z
" style="fill:#7a0177;"/>
   </g>
   <g id="patch_287">
    <path clip-path="url(#p49850a2e46)" d="M 257.495118 540.480967 
C 258.884695 540.480967 260.217545 539.979793 261.200124 539.087821 
C 262.182704 538.195849 262.734788 536.985906 262.734788 535.724467 
C 262.734788 534.463029 262.182704 533.253086 261.200124 532.361114 
C 260.217545 531.469142 258.884695 530.967967 257.495118 530.967967 
C 256.105542 530.967967 254.772691 531.469142 253.790112 532.361114 
C 252.807533 533.253086 252.255448 534.463029 252.255448 535.724467 
C 252.255448 536.985906 252.807533 538.195849 253.790112 539.087821 
C 254.772691 539.979793 256.105542 540.480967 257.495118 540.480967 
z
" style="fill:#7a0177;"/>
   </g>
   <g id="patch_288">
    <path clip-path="url(#p49850a2e46)" d="M 324.513108 476.899611 
C 325.902685 476.899611 327.235535 476.398436 328.218115 475.506465 
C 329.200694 474.614493 329.752778 473.40455 329.752778 472.143111 
C 329.752778 470.881673 329.200694 469.67173 328.218115 468.779758 
C 327.235535 467.887786 325.902685 467.386611 324.513108 467.386611 
C 323.123532 467.386611 321.790681 467.887786 320.808102 468.779758 
C 319.825523 469.67173 319.273439 470.881673 319.273439 472.143111 
C 319.273439 473.40455 319.825523 474.614493 320.808102 475.506465 
C 321.790681 476.398436 323.123532 476.899611 324.513108 476.899611 
z
" style="fill:#7a0177;"/>
   </g>
   <g id="text_1">
    <text style="font-family:DejaVu Sans;font-size:12px;font-style:normal;font-weight:normal;text-anchor:start;" transform="rotate(-0, 185.995804, 98.141377)" x="185.995804" y="98.141377">REACTOME_MRNA_SPLICING_MINOR_PATHWAY</text>
   </g>
   <g id="text_2">
    <text style="font-family:DejaVu Sans;font-size:12px;font-style:normal;font-weight:normal;text-anchor:start;" transform="rotate(-0, 185.995804, 111.731377)" x="185.995804" y="111.731377">BIOCARTA_SHH_PATHWAY</text>
   </g>
   <g id="text_3">
    <text style="font-family:DejaVu Sans;font-size:12px;font-style:normal;font-weight:normal;text-anchor:start;" transform="rotate(-0, 185.995804, 125.321377)" x="185.995804" y="125.321377">BIOCARTA_EGF_PATHWAY</text>
   </g>
   <g id="text_4">
    <text style="font-family:DejaVu Sans;font-size:12px;font-style:normal;font-weight:normal;text-anchor:start;" transform="rotate(-0, 185.995804, 138.911377)" x="185.995804" y="138.911377">REACTOME_DEVELOPMENTAL_BIOLOGY</text>
   </g>
   <g id="text_5">
    <text style="font-family:DejaVu Sans;font-size:12px;font-style:normal;font-weight:normal;text-anchor:start;" transform="rotate(-0, 185.995804, 152.501377)" x="185.995804" y="152.501377">KEGG_UBIQUITIN_MEDIATED_PROTEOLYSIS</text>
   </g>
   <g id="text_6">
    <text style="font-family:DejaVu Sans;font-size:12px;font-style:normal;font-weight:normal;text-anchor:start;" transform="rotate(-0, 185.995804, 166.091377)" x="185.995804" y="166.091377">PID_P38_MK2_PATHWAY</text>
   </g>
   <g id="text_7">
    <text style="font-family:DejaVu Sans;font-size:12px;font-style:normal;font-weight:normal;text-anchor:start;" transform="rotate(-0, 185.995804, 179.681377)" x="185.995804" y="179.681377">REACTOME_GROWTH_HORMONE_RECEPTOR_SIGNALING</text>
   </g>
   <g id="text_8">
    <text style="font-family:DejaVu Sans;font-size:12px;font-style:normal;font-weight:normal;text-anchor:start;" transform="rotate(-0, 185.995804, 193.271377)" x="185.995804" y="193.271377">KEGG_DORSO_VENTRAL_AXIS_FORMATION</text>
   </g>
   <g id="text_9">
    <text style="font-family:DejaVu Sans;font-size:12px;font-style:normal;font-weight:normal;text-anchor:start;" transform="rotate(-0, 185.995804, 206.861377)" x="185.995804" y="206.861377">PID_P73PATHWAY</text>
   </g>
   <g id="text_10">
    <text style="font-family:DejaVu Sans;font-size:12px;font-style:normal;font-weight:normal;text-anchor:start;" transform="rotate(-0, 185.995804, 220.451377)" x="185.995804" y="220.451377">BIOCARTA_CK1_PATHWAY</text>
   </g>
   <g id="text_11">
    <text style="font-family:DejaVu Sans;font-size:12px;font-style:normal;font-weight:normal;text-anchor:start;" transform="rotate(-0, 185.995804, 234.041377)" x="185.995804" y="234.041377">PID_HNF3B_PATHWAY</text>
   </g>
   <g id="text_12">
    <text style="font-family:DejaVu Sans;font-size:12px;font-style:normal;font-weight:normal;text-anchor:start;" transform="rotate(-0, 185.995804, 247.631377)" x="185.995804" y="247.631377">KEGG_CELL_CYCLE</text>
   </g>
   <g id="text_13">
    <text style="font-family:DejaVu Sans;font-size:12px;font-style:normal;font-weight:normal;text-anchor:start;" transform="rotate(-0, 185.995804, 261.221377)" x="185.995804" y="261.221377">PID_TAP63_PATHWAY</text>
   </g>
   <g id="text_14">
    <text style="font-family:DejaVu Sans;font-size:12px;font-style:normal;font-weight:normal;text-anchor:start;" transform="rotate(-0, 185.995804, 274.75044)" x="185.995804" y="274.75044">PID_ALK1_PATHWAY</text>
   </g>
   <g id="text_15">
    <text style="font-family:DejaVu Sans;font-size:12px;font-style:normal;font-weight:normal;text-anchor:start;" transform="rotate(-0, 185.995804, 288.401377)" x="185.995804" y="288.401377">PID_SMAD2_3NUCLEAR_PATHWAY</text>
   </g>
   <g id="text_16">
    <text style="font-family:DejaVu Sans;font-size:12px;font-style:normal;font-weight:normal;text-anchor:start;" transform="rotate(-0, 185.995804, 301.991377)" x="185.995804" y="301.991377">BIOCARTA_CDC42RAC_PATHWAY</text>
   </g>
   <g id="text_17">
    <text style="font-family:DejaVu Sans;font-size:12px;font-style:normal;font-weight:normal;text-anchor:start;" transform="rotate(-0, 185.995804, 315.581377)" x="185.995804" y="315.581377">BIOCARTA_RHO_PATHWAY</text>
   </g>
   <g id="text_18">
    <text style="font-family:DejaVu Sans;font-size:12px;font-style:normal;font-weight:normal;text-anchor:start;" transform="rotate(-0, 185.995804, 329.171377)" x="185.995804" y="329.171377">PID_CDC42_PATHWAY</text>
   </g>
   <g id="text_19">
    <text style="font-family:DejaVu Sans;font-size:12px;font-style:normal;font-weight:normal;text-anchor:start;" transform="rotate(-0, 185.995804, 342.761377)" x="185.995804" y="342.761377">PID_RAC1_PATHWAY</text>
   </g>
   <g id="text_20">
    <text style="font-family:DejaVu Sans;font-size:12px;font-style:normal;font-weight:normal;text-anchor:start;" transform="rotate(-0, 185.995804, 379.75821)" x="185.995804" y="379.75821">REACTOME_RORA_ACTIVATES_CIRCADIAN_EXPRESSION</text>
   </g>
   <g id="text_21">
    <text style="font-family:DejaVu Sans;font-size:12px;font-style:normal;font-weight:normal;text-anchor:start;" transform="rotate(-0, 230.907259, 373.72848)" x="230.907259" y="373.72848">REACTOME_BMAL1_CLOCK_NPAS2_ACTIVATES_CIRCADIAN_EXPRESSION</text>
   </g>
   <g id="text_22">
    <text style="font-family:DejaVu Sans;font-size:12px;font-style:normal;font-weight:normal;text-anchor:start;" transform="rotate(-0, 211.756093, 397.121377)" x="211.756093" y="397.121377">REACTOME_CIRCADIAN_REPRESSION_OF_EXPRESSION_BY_REV_ERBA</text>
   </g>
   <g id="text_23">
    <text style="font-family:DejaVu Sans;font-size:12px;font-style:normal;font-weight:normal;text-anchor:start;" transform="rotate(-0, 205.099987, 356.351377)" x="205.099987" y="356.351377">REACTOME_CIRCADIAN_CLOCK</text>
   </g>
   <g id="text_24">
    <text style="font-family:DejaVu Sans;font-size:12px;font-style:normal;font-weight:normal;text-anchor:start;" transform="rotate(-0, 185.995804, 434.11821)" x="185.995804" y="434.11821">REACTOME_MEIOTIC_RECOMBINATION</text>
   </g>
   <g id="text_25">
    <text style="font-family:DejaVu Sans;font-size:12px;font-style:normal;font-weight:normal;text-anchor:start;" transform="rotate(-0, 230.907259, 428.08848)" x="230.907259" y="428.08848">REACTOME_PACKAGING_OF_TELOMERE_ENDS</text>
   </g>
   <g id="text_26">
    <text style="font-family:DejaVu Sans;font-size:12px;font-style:normal;font-weight:normal;text-anchor:start;" transform="rotate(-0, 211.756093, 451.481377)" x="211.756093" y="451.481377">REACTOME_MEIOTIC_SYNAPSIS</text>
   </g>
   <g id="text_27">
    <text style="font-family:DejaVu Sans;font-size:12px;font-style:normal;font-weight:normal;text-anchor:start;" transform="rotate(-0, 205.099987, 410.711377)" x="205.099987" y="410.711377">REACTOME_MEIOSIS</text>
   </g>
   <g id="text_28">
    <text style="font-family:DejaVu Sans;font-size:12px;font-style:normal;font-weight:normal;text-anchor:start;" transform="rotate(-0, 248.501475, 522.914203)" x="248.501475" y="522.914203">REACTOME_SYNTHESIS_OF_DNA</text>
   </g>
   <g id="text_29">
    <text style="font-family:DejaVu Sans;font-size:12px;font-style:normal;font-weight:normal;text-anchor:start;" transform="rotate(-0, 297.402082, 539.464415)" x="297.402082" y="539.464415">REACTOME_CDT1_ASSOCIATION_WITH_THE_CDC6_ORC_ORIGIN_COMPLEX</text>
   </g>
   <g id="text_30">
    <text style="font-family:DejaVu Sans;font-size:12px;font-style:normal;font-weight:normal;text-anchor:start;" transform="rotate(-0, 289.829474, 566.35735)" x="289.829474" y="566.35735">REACTOME_G1_S_TRANSITION</text>
   </g>
   <g id="text_31">
    <text style="font-family:DejaVu Sans;font-size:12px;font-style:normal;font-weight:normal;text-anchor:start;" transform="rotate(-0, 291.527082, 465.771081)" x="291.527082" y="465.771081">KEGG_PROTEASOME</text>
   </g>
   <g id="text_32">
    <text style="font-family:DejaVu Sans;font-size:12px;font-style:normal;font-weight:normal;text-anchor:start;" transform="rotate(-0, 353.535673, 506.514048)" x="353.535673" y="506.514048">REACTOME_REGULATION_OF_MRNA_STABILITY_BY_PROTEINS...</text>
   </g>
   <g id="text_33">
    <text style="font-family:DejaVu Sans;font-size:12px;font-style:normal;font-weight:normal;text-anchor:start;" transform="rotate(-0, 310.282153, 496.672437)" x="310.282153" y="496.672437">REACTOME_SCFSKP2_MEDIATED_DEGRADATION_OF_P27_P21</text>
   </g>
   <g id="text_34">
    <text style="font-family:DejaVu Sans;font-size:12px;font-style:normal;font-weight:normal;text-anchor:start;" transform="rotate(-0, 298.055189, 592.466762)" x="298.055189" y="592.466762">REACTOME_AUTODEGRADATION_OF_THE_E3_UBIQUITIN_LIGASE_COP1</text>
   </g>
   <g id="text_35">
    <text style="font-family:DejaVu Sans;font-size:12px;font-style:normal;font-weight:normal;text-anchor:start;" transform="rotate(-0, 321.726839, 534.985832)" x="321.726839" y="534.985832">REACTOME_CYCLIN_E_ASSOCIATED_EVENTS_DURING_G1_S_TRANSITION_</text>
   </g>
   <g id="text_36">
    <text style="font-family:DejaVu Sans;font-size:12px;font-style:normal;font-weight:normal;text-anchor:start;" transform="rotate(-0, 251.378984, 559.318166)" x="251.378984" y="559.318166">REACTOME_MITOTIC_G1_G1_S_PHASES</text>
   </g>
   <g id="text_37">
    <text style="font-family:DejaVu Sans;font-size:12px;font-style:normal;font-weight:normal;text-anchor:start;" transform="rotate(-0, 318.989223, 585.945431)" x="318.989223" y="585.945431">REACTOME_P53_INDEPENDENT_G1_S_DNA_DAMAGE_CHECKPOINT</text>
   </g>
   <g id="text_38">
    <text style="font-family:DejaVu Sans;font-size:12px;font-style:normal;font-weight:normal;text-anchor:start;" transform="rotate(-0, 270.327864, 573.904753)" x="270.327864" y="573.904753">REACTOME_REGULATION_OF_MITOTIC_CELL_CYCLE</text>
   </g>
   <g id="text_39">
    <text style="font-family:DejaVu Sans;font-size:12px;font-style:normal;font-weight:normal;text-anchor:start;" transform="rotate(-0, 185.995804, 617.618749)" x="185.995804" y="617.618749">REACTOME_G1_PHASE</text>
   </g>
   <g id="text_40">
    <text style="font-family:DejaVu Sans;font-size:12px;font-style:normal;font-weight:normal;text-anchor:start;" transform="rotate(-0, 330.973059, 501.334316)" x="330.973059" y="501.334316">REACTOME_APC_C_CDC20_MEDIATED_DEGRADATION_OF_MITOTIC_PROTEINS</text>
   </g>
   <g id="text_41">
    <text style="font-family:DejaVu Sans;font-size:12px;font-style:normal;font-weight:normal;text-anchor:start;" transform="rotate(-0, 354.039084, 533.396987)" x="354.039084" y="533.396987">REACTOME_VIF_MEDIATED_DEGRADATION_OF_APOBEC3G</text>
   </g>
   <g id="text_42">
    <text style="font-family:DejaVu Sans;font-size:12px;font-style:normal;font-weight:normal;text-anchor:start;" transform="rotate(-0, 309.90434, 465.071377)" x="309.90434" y="465.071377">REACTOME_ORC1_REMOVAL_FROM_CHROMATIN</text>
   </g>
   <g id="text_43">
    <text style="font-family:DejaVu Sans;font-size:12px;font-style:normal;font-weight:normal;text-anchor:start;" transform="rotate(-0, 335.118796, 574.157657)" x="335.118796" y="574.157657">REACTOME_P53_DEPENDENT_G1_DNA_DAMAGE_RESPONSE</text>
   </g>
   <g id="text_44">
    <text style="font-family:DejaVu Sans;font-size:12px;font-style:normal;font-weight:normal;text-anchor:start;" transform="rotate(-0, 347.886851, 556.719268)" x="347.886851" y="556.719268">REACTOME_CDK_MEDIATED_PHOSPHORYLATION_AND_REMOVAL_OF_CDC6</text>
   </g>
   <g id="text_45">
    <text style="font-family:DejaVu Sans;font-size:12px;font-style:normal;font-weight:normal;text-anchor:start;" transform="rotate(-0, 274.579797, 477.349304)" x="274.579797" y="477.349304">REACTOME_APC_C_CDH1_MEDIATED_DEGRADATION_OF_CDC20...</text>
   </g>
   <g id="text_46">
    <text style="font-family:DejaVu Sans;font-size:12px;font-style:normal;font-weight:normal;text-anchor:start;" transform="rotate(-0, 258.498216, 496.482156)" x="258.498216" y="496.482156">REACTOME_ER_PHAGOSOME_PATHWAY</text>
   </g>
   <g id="text_47">
    <text style="font-family:DejaVu Sans;font-size:12px;font-style:normal;font-weight:normal;text-anchor:start;" transform="rotate(-0, 230.037627, 471.954001)" x="230.037627" y="471.954001">REACTOME_CELL_CYCLE_MITOTIC</text>
   </g>
   <g id="text_48">
    <text style="font-family:DejaVu Sans;font-size:12px;font-style:normal;font-weight:normal;text-anchor:start;" transform="rotate(-0, 280.957698, 510.744784)" x="280.957698" y="510.744784">REACTOME_MITOTIC_M_M_G1_PHASES</text>
   </g>
   <g id="text_49">
    <text style="font-family:DejaVu Sans;font-size:12px;font-style:normal;font-weight:normal;text-anchor:start;" transform="rotate(-0, 263.483312, 538.762905)" x="263.483312" y="538.762905">REACTOME_SCF_BETA_TRCP_MEDIATED_DEGRADATION_OF_EMI1</text>
   </g>
   <g id="text_50">
    <text style="font-family:DejaVu Sans;font-size:12px;font-style:normal;font-weight:normal;text-anchor:start;" transform="rotate(-0, 330.501303, 475.181549)" x="330.501303" y="475.181549">REACTOME_M_G1_TRANSITION</text>
   </g>
   <g id="text_51">
    <text style="font-family:DejaVu Sans;font-size:12px;font-style:normal;font-weight:normal;text-anchor:middle;" transform="rotate(-0, 676.652209, 79.58994)" x="676.652209" y="79.58994">Cell Cycle/Development</text>
   </g>
  </g>
 </g>
 <defs>
  <clipPath id="p49850a2e46">
   <rect height="538.503372" width="1023.23017" x="165.037124" y="85.58994"/>
  </clipPath>
 </defs>
</svg>
