<?xml version="1.0" encoding="utf-8" standalone="no"?>
<!DOCTYPE svg PUBLIC "-//W3C//DTD SVG 1.1//EN"
  "http://www.w3.org/Graphics/SVG/1.1/DTD/svg11.dtd">
<!-- Created with matplotlib (https://matplotlib.org/) -->
<svg height="928.947671pt" version="1.1" viewBox="0 0 1188 928.947671" width="1188pt" xmlns="http://www.w3.org/2000/svg" xmlns:xlink="http://www.w3.org/1999/xlink">
 <defs>
  <style type="text/css">
*{stroke-linecap:butt;stroke-linejoin:round;}
  </style>
 </defs>
 <g id="figure_1">
  <g id="patch_1">
   <path d="M 0 928.947671 
L 1188 928.947671 
L 1188 0 
L 0 0 
z
" style="fill:#ffffff;"/>
  </g>
  <g id="axes_1">
   <g id="patch_2">
    <path clip-path="url(#pcb09c1e6d6)" d="M 163.593443 125.74322 
C 164.994432 125.74322 166.33823 125.242046 167.328879 124.350074 
C 168.319528 123.458102 168.876148 122.248159 168.876148 120.98672 
C 168.876148 119.725282 168.319528 118.515339 167.328879 117.623367 
C 166.33823 116.731395 164.994432 116.23022 163.593443 116.23022 
C 162.192453 116.23022 160.848655 116.731395 159.858006 117.623367 
C 158.867357 118.515339 158.310738 119.725282 158.310738 120.98672 
C 158.310738 122.248159 158.867357 123.458102 159.858006 124.350074 
C 160.848655 125.242046 162.192453 125.74322 163.593443 125.74322 
z
" style="fill:#ff0000;"/>
   </g>
   <g id="patch_3">
    <path clip-path="url(#pcb09c1e6d6)" d="M 163.593443 139.33322 
C 164.994432 139.33322 166.33823 138.832046 167.328879 137.940074 
C 168.319528 137.048102 168.876148 135.838159 168.876148 134.57672 
C 168.876148 133.315282 168.319528 132.105339 167.328879 131.213367 
C 166.33823 130.321395 164.994432 129.82022 163.593443 129.82022 
C 162.192453 129.82022 160.848655 130.321395 159.858006 131.213367 
C 158.867357 132.105339 158.310738 133.315282 158.310738 134.57672 
C 158.310738 135.838159 158.867357 137.048102 159.858006 137.940074 
C 160.848655 138.832046 162.192453 139.33322 163.593443 139.33322 
z
" style="fill:#ff0000;"/>
   </g>
   <g id="patch_4">
    <path clip-path="url(#pcb09c1e6d6)" d="M 163.593443 152.92322 
C 164.994432 152.92322 166.33823 152.422046 167.328879 151.530074 
C 168.319528 150.638102 168.876148 149.428159 168.876148 148.16672 
C 168.876148 146.905282 168.319528 145.695339 167.328879 144.803367 
C 166.33823 143.911395 164.994432 143.41022 163.593443 143.41022 
C 162.192453 143.41022 160.848655 143.911395 159.858006 144.803367 
C 158.867357 145.695339 158.310738 146.905282 158.310738 148.16672 
C 158.310738 149.428159 158.867357 150.638102 159.858006 151.530074 
C 160.848655 152.422046 162.192453 152.92322 163.593443 152.92322 
z
" style="fill:#ff0000;"/>
   </g>
   <g id="patch_5">
    <path clip-path="url(#pcb09c1e6d6)" d="M 163.593443 166.51322 
C 164.994432 166.51322 166.33823 166.012046 167.328879 165.120074 
C 168.319528 164.228102 168.876148 163.018159 168.876148 161.75672 
C 168.876148 160.495282 168.319528 159.285339 167.328879 158.393367 
C 166.33823 157.501395 164.994432 157.00022 163.593443 157.00022 
C 162.192453 157.00022 160.848655 157.501395 159.858006 158.393367 
C 158.867357 159.285339 158.310738 160.495282 158.310738 161.75672 
C 158.310738 163.018159 158.867357 164.228102 159.858006 165.120074 
C 160.848655 166.012046 162.192453 166.51322 163.593443 166.51322 
z
" style="fill:#ff0000;"/>
   </g>
   <g id="patch_6">
    <path clip-path="url(#pcb09c1e6d6)" d="M 163.593443 180.10322 
C 164.994432 180.10322 166.33823 179.602046 167.328879 178.710074 
C 168.319528 177.818102 168.876148 176.608159 168.876148 175.34672 
C 168.876148 174.085282 168.319528 172.875339 167.328879 171.983367 
C 166.33823 171.091395 164.994432 170.59022 163.593443 170.59022 
C 162.192453 170.59022 160.848655 171.091395 159.858006 171.983367 
C 158.867357 172.875339 158.310738 174.085282 158.310738 175.34672 
C 158.310738 176.608159 158.867357 177.818102 159.858006 178.710074 
C 160.848655 179.602046 162.192453 180.10322 163.593443 180.10322 
z
" style="fill:#ff0000;"/>
   </g>
   <g id="patch_7">
    <path clip-path="url(#pcb09c1e6d6)" d="M 163.593443 193.69322 
C 164.994432 193.69322 166.33823 193.192046 167.328879 192.300074 
C 168.319528 191.408102 168.876148 190.198159 168.876148 188.93672 
C 168.876148 187.675282 168.319528 186.465339 167.328879 185.573367 
C 166.33823 184.681395 164.994432 184.18022 163.593443 184.18022 
C 162.192453 184.18022 160.848655 184.681395 159.858006 185.573367 
C 158.867357 186.465339 158.310738 187.675282 158.310738 188.93672 
C 158.310738 190.198159 158.867357 191.408102 159.858006 192.300074 
C 160.848655 193.192046 162.192453 193.69322 163.593443 193.69322 
z
" style="fill:#ff0000;"/>
   </g>
   <g id="patch_8">
    <path clip-path="url(#pcb09c1e6d6)" d="M 163.593443 207.28322 
C 164.994432 207.28322 166.33823 206.782046 167.328879 205.890074 
C 168.319528 204.998102 168.876148 203.788159 168.876148 202.52672 
C 168.876148 201.265282 168.319528 200.055339 167.328879 199.163367 
C 166.33823 198.271395 164.994432 197.77022 163.593443 197.77022 
C 162.192453 197.77022 160.848655 198.271395 159.858006 199.163367 
C 158.867357 200.055339 158.310738 201.265282 158.310738 202.52672 
C 158.310738 203.788159 158.867357 204.998102 159.858006 205.890074 
C 160.848655 206.782046 162.192453 207.28322 163.593443 207.28322 
z
" style="fill:#ff0000;"/>
   </g>
   <g id="patch_9">
    <path clip-path="url(#pcb09c1e6d6)" d="M 163.593443 220.87322 
C 164.994432 220.87322 166.33823 220.372046 167.328879 219.480074 
C 168.319528 218.588102 168.876148 217.378159 168.876148 216.11672 
C 168.876148 214.855282 168.319528 213.645339 167.328879 212.753367 
C 166.33823 211.861395 164.994432 211.36022 163.593443 211.36022 
C 162.192453 211.36022 160.848655 211.861395 159.858006 212.753367 
C 158.867357 213.645339 158.310738 214.855282 158.310738 216.11672 
C 158.310738 217.378159 158.867357 218.588102 159.858006 219.480074 
C 160.848655 220.372046 162.192453 220.87322 163.593443 220.87322 
z
" style="fill:#ff0000;"/>
   </g>
   <g id="patch_10">
    <path clip-path="url(#pcb09c1e6d6)" d="M 163.593443 234.46322 
C 164.994432 234.46322 166.33823 233.962046 167.328879 233.070074 
C 168.319528 232.178102 168.876148 230.968159 168.876148 229.70672 
C 168.876148 228.445282 168.319528 227.235339 167.328879 226.343367 
C 166.33823 225.451395 164.994432 224.95022 163.593443 224.95022 
C 162.192453 224.95022 160.848655 225.451395 159.858006 226.343367 
C 158.867357 227.235339 158.310738 228.445282 158.310738 229.70672 
C 158.310738 230.968159 158.867357 232.178102 159.858006 233.070074 
C 160.848655 233.962046 162.192453 234.46322 163.593443 234.46322 
z
" style="fill:#ff0000;"/>
   </g>
   <g id="patch_11">
    <path clip-path="url(#pcb09c1e6d6)" d="M 163.593443 248.05322 
C 164.994432 248.05322 166.33823 247.552046 167.328879 246.660074 
C 168.319528 245.768102 168.876148 244.558159 168.876148 243.29672 
C 168.876148 242.035282 168.319528 240.825339 167.328879 239.933367 
C 166.33823 239.041395 164.994432 238.54022 163.593443 238.54022 
C 162.192453 238.54022 160.848655 239.041395 159.858006 239.933367 
C 158.867357 240.825339 158.310738 242.035282 158.310738 243.29672 
C 158.310738 244.558159 158.867357 245.768102 159.858006 246.660074 
C 160.848655 247.552046 162.192453 248.05322 163.593443 248.05322 
z
" style="fill:#ff0000;"/>
   </g>
   <g id="patch_12">
    <path clip-path="url(#pcb09c1e6d6)" d="M 163.593443 261.64322 
C 164.994432 261.64322 166.33823 261.142046 167.328879 260.250074 
C 168.319528 259.358102 168.876148 258.148159 168.876148 256.88672 
C 168.876148 255.625282 168.319528 254.415339 167.328879 253.523367 
C 166.33823 252.631395 164.994432 252.13022 163.593443 252.13022 
C 162.192453 252.13022 160.848655 252.631395 159.858006 253.523367 
C 158.867357 254.415339 158.310738 255.625282 158.310738 256.88672 
C 158.310738 258.148159 158.867357 259.358102 159.858006 260.250074 
C 160.848655 261.142046 162.192453 261.64322 163.593443 261.64322 
z
" style="fill:#ff0000;"/>
   </g>
   <g id="patch_13">
    <path clip-path="url(#pcb09c1e6d6)" d="M 163.593443 275.23322 
C 164.994432 275.23322 166.33823 274.732046 167.328879 273.840074 
C 168.319528 272.948102 168.876148 271.738159 168.876148 270.47672 
C 168.876148 269.215282 168.319528 268.005339 167.328879 267.113367 
C 166.33823 266.221395 164.994432 265.72022 163.593443 265.72022 
C 162.192453 265.72022 160.848655 266.221395 159.858006 267.113367 
C 158.867357 268.005339 158.310738 269.215282 158.310738 270.47672 
C 158.310738 271.738159 158.867357 272.948102 159.858006 273.840074 
C 160.848655 274.732046 162.192453 275.23322 163.593443 275.23322 
z
" style="fill:#ff0000;"/>
   </g>
   <g id="patch_14">
    <path clip-path="url(#pcb09c1e6d6)" d="M 163.593443 288.82322 
C 164.994432 288.82322 166.33823 288.322046 167.328879 287.430074 
C 168.319528 286.538102 168.876148 285.328159 168.876148 284.06672 
C 168.876148 282.805282 168.319528 281.595339 167.328879 280.703367 
C 166.33823 279.811395 164.994432 279.31022 163.593443 279.31022 
C 162.192453 279.31022 160.848655 279.811395 159.858006 280.703367 
C 158.867357 281.595339 158.310738 282.805282 158.310738 284.06672 
C 158.310738 285.328159 158.867357 286.538102 159.858006 287.430074 
C 160.848655 288.322046 162.192453 288.82322 163.593443 288.82322 
z
" style="fill:#ff0000;"/>
   </g>
   <g id="patch_15">
    <path clip-path="url(#pcb09c1e6d6)" d="M 163.593443 302.41322 
C 164.994432 302.41322 166.33823 301.912046 167.328879 301.020074 
C 168.319528 300.128102 168.876148 298.918159 168.876148 297.65672 
C 168.876148 296.395282 168.319528 295.185339 167.328879 294.293367 
C 166.33823 293.401395 164.994432 292.90022 163.593443 292.90022 
C 162.192453 292.90022 160.848655 293.401395 159.858006 294.293367 
C 158.867357 295.185339 158.310738 296.395282 158.310738 297.65672 
C 158.310738 298.918159 158.867357 300.128102 159.858006 301.020074 
C 160.848655 301.912046 162.192453 302.41322 163.593443 302.41322 
z
" style="fill:#ff0000;"/>
   </g>
   <g id="patch_16">
    <path clip-path="url(#pcb09c1e6d6)" d="M 163.593443 316.00322 
C 164.994432 316.00322 166.33823 315.502046 167.328879 314.610074 
C 168.319528 313.718102 168.876148 312.508159 168.876148 311.24672 
C 168.876148 309.985282 168.319528 308.775339 167.328879 307.883367 
C 166.33823 306.991395 164.994432 306.49022 163.593443 306.49022 
C 162.192453 306.49022 160.848655 306.991395 159.858006 307.883367 
C 158.867357 308.775339 158.310738 309.985282 158.310738 311.24672 
C 158.310738 312.508159 158.867357 313.718102 159.858006 314.610074 
C 160.848655 315.502046 162.192453 316.00322 163.593443 316.00322 
z
" style="fill:#ff0000;"/>
   </g>
   <g id="patch_17">
    <path clip-path="url(#pcb09c1e6d6)" d="M 163.593443 329.59322 
C 164.994432 329.59322 166.33823 329.092046 167.328879 328.200074 
C 168.319528 327.308102 168.876148 326.098159 168.876148 324.83672 
C 168.876148 323.575282 168.319528 322.365339 167.328879 321.473367 
C 166.33823 320.581395 164.994432 320.08022 163.593443 320.08022 
C 162.192453 320.08022 160.848655 320.581395 159.858006 321.473367 
C 158.867357 322.365339 158.310738 323.575282 158.310738 324.83672 
C 158.310738 326.098159 158.867357 327.308102 159.858006 328.200074 
C 160.848655 329.092046 162.192453 329.59322 163.593443 329.59322 
z
" style="fill:#ff0000;"/>
   </g>
   <g id="patch_18">
    <path clip-path="url(#pcb09c1e6d6)" d="M 163.593443 343.18322 
C 164.994432 343.18322 166.33823 342.682046 167.328879 341.790074 
C 168.319528 340.898102 168.876148 339.688159 168.876148 338.42672 
C 168.876148 337.165282 168.319528 335.955339 167.328879 335.063367 
C 166.33823 334.171395 164.994432 333.67022 163.593443 333.67022 
C 162.192453 333.67022 160.848655 334.171395 159.858006 335.063367 
C 158.867357 335.955339 158.310738 337.165282 158.310738 338.42672 
C 158.310738 339.688159 158.867357 340.898102 159.858006 341.790074 
C 160.848655 342.682046 162.192453 343.18322 163.593443 343.18322 
z
" style="fill:#ff0000;"/>
   </g>
   <g id="patch_19">
    <path clip-path="url(#pcb09c1e6d6)" d="M 163.593443 356.77322 
C 164.994432 356.77322 166.33823 356.272046 167.328879 355.380074 
C 168.319528 354.488102 168.876148 353.278159 168.876148 352.01672 
C 168.876148 350.755282 168.319528 349.545339 167.328879 348.653367 
C 166.33823 347.761395 164.994432 347.26022 163.593443 347.26022 
C 162.192453 347.26022 160.848655 347.761395 159.858006 348.653367 
C 158.867357 349.545339 158.310738 350.755282 158.310738 352.01672 
C 158.310738 353.278159 158.867357 354.488102 159.858006 355.380074 
C 160.848655 356.272046 162.192453 356.77322 163.593443 356.77322 
z
" style="fill:#ff0000;"/>
   </g>
   <g id="patch_20">
    <path clip-path="url(#pcb09c1e6d6)" d="M 163.593443 370.36322 
C 164.994432 370.36322 166.33823 369.862046 167.328879 368.970074 
C 168.319528 368.078102 168.876148 366.868159 168.876148 365.60672 
C 168.876148 364.345282 168.319528 363.135339 167.328879 362.243367 
C 166.33823 361.351395 164.994432 360.85022 163.593443 360.85022 
C 162.192453 360.85022 160.848655 361.351395 159.858006 362.243367 
C 158.867357 363.135339 158.310738 364.345282 158.310738 365.60672 
C 158.310738 366.868159 158.867357 368.078102 159.858006 368.970074 
C 160.848655 369.862046 162.192453 370.36322 163.593443 370.36322 
z
" style="fill:#ff0000;"/>
   </g>
   <g id="patch_21">
    <path clip-path="url(#pcb09c1e6d6)" d="M 163.593443 383.95322 
C 164.994432 383.95322 166.33823 383.452046 167.328879 382.560074 
C 168.319528 381.668102 168.876148 380.458159 168.876148 379.19672 
C 168.876148 377.935282 168.319528 376.725339 167.328879 375.833367 
C 166.33823 374.941395 164.994432 374.44022 163.593443 374.44022 
C 162.192453 374.44022 160.848655 374.941395 159.858006 375.833367 
C 158.867357 376.725339 158.310738 377.935282 158.310738 379.19672 
C 158.310738 380.458159 158.867357 381.668102 159.858006 382.560074 
C 160.848655 383.452046 162.192453 383.95322 163.593443 383.95322 
z
" style="fill:#ff0000;"/>
   </g>
   <g id="patch_22">
    <path clip-path="url(#pcb09c1e6d6)" d="M 163.593443 397.54322 
C 164.994432 397.54322 166.33823 397.042046 167.328879 396.150074 
C 168.319528 395.258102 168.876148 394.048159 168.876148 392.78672 
C 168.876148 391.525282 168.319528 390.315339 167.328879 389.423367 
C 166.33823 388.531395 164.994432 388.03022 163.593443 388.03022 
C 162.192453 388.03022 160.848655 388.531395 159.858006 389.423367 
C 158.867357 390.315339 158.310738 391.525282 158.310738 392.78672 
C 158.310738 394.048159 158.867357 395.258102 159.858006 396.150074 
C 160.848655 397.042046 162.192453 397.54322 163.593443 397.54322 
z
" style="fill:#ff0000;"/>
   </g>
   <g id="patch_23">
    <path clip-path="url(#pcb09c1e6d6)" d="M 163.593443 411.13322 
C 164.994432 411.13322 166.33823 410.632046 167.328879 409.740074 
C 168.319528 408.848102 168.876148 407.638159 168.876148 406.37672 
C 168.876148 405.115282 168.319528 403.905339 167.328879 403.013367 
C 166.33823 402.121395 164.994432 401.62022 163.593443 401.62022 
C 162.192453 401.62022 160.848655 402.121395 159.858006 403.013367 
C 158.867357 403.905339 158.310738 405.115282 158.310738 406.37672 
C 158.310738 407.638159 158.867357 408.848102 159.858006 409.740074 
C 160.848655 410.632046 162.192453 411.13322 163.593443 411.13322 
z
" style="fill:#ff0000;"/>
   </g>
   <g id="patch_24">
    <path clip-path="url(#pcb09c1e6d6)" d="M 163.593443 424.72322 
C 164.994432 424.72322 166.33823 424.222046 167.328879 423.330074 
C 168.319528 422.438102 168.876148 421.228159 168.876148 419.96672 
C 168.876148 418.705282 168.319528 417.495339 167.328879 416.603367 
C 166.33823 415.711395 164.994432 415.21022 163.593443 415.21022 
C 162.192453 415.21022 160.848655 415.711395 159.858006 416.603367 
C 158.867357 417.495339 158.310738 418.705282 158.310738 419.96672 
C 158.310738 421.228159 158.867357 422.438102 159.858006 423.330074 
C 160.848655 424.222046 162.192453 424.72322 163.593443 424.72322 
z
" style="fill:#0000ff;"/>
   </g>
   <g id="patch_25">
    <path clip-path="url(#pcb09c1e6d6)" d="M 163.593443 438.31322 
C 164.994432 438.31322 166.33823 437.812046 167.328879 436.920074 
C 168.319528 436.028102 168.876148 434.818159 168.876148 433.55672 
C 168.876148 432.295282 168.319528 431.085339 167.328879 430.193367 
C 166.33823 429.301395 164.994432 428.80022 163.593443 428.80022 
C 162.192453 428.80022 160.848655 429.301395 159.858006 430.193367 
C 158.867357 431.085339 158.310738 432.295282 158.310738 433.55672 
C 158.310738 434.818159 158.867357 436.028102 159.858006 436.920074 
C 160.848655 437.812046 162.192453 438.31322 163.593443 438.31322 
z
" style="fill:#800080;"/>
   </g>
   <g id="patch_26">
    <path clip-path="url(#pcb09c1e6d6)" d="M 163.593443 447.14672 
L 163.593443 460.73672 
" style="fill:#1f77b4;stroke:#000000;stroke-linejoin:miter;"/>
   </g>
   <g id="patch_27">
    <path clip-path="url(#pcb09c1e6d6)" d="M 163.593443 451.90322 
C 164.994432 451.90322 166.33823 451.402046 167.328879 450.510074 
C 168.319528 449.618102 168.876148 448.408159 168.876148 447.14672 
C 168.876148 445.885282 168.319528 444.675339 167.328879 443.783367 
C 166.33823 442.891395 164.994432 442.39022 163.593443 442.39022 
C 162.192453 442.39022 160.848655 442.891395 159.858006 443.783367 
C 158.867357 444.675339 158.310738 445.885282 158.310738 447.14672 
C 158.310738 448.408159 158.867357 449.618102 159.858006 450.510074 
C 160.848655 451.402046 162.192453 451.90322 163.593443 451.90322 
z
" style="fill:#ff0000;"/>
   </g>
   <g id="patch_28">
    <path clip-path="url(#pcb09c1e6d6)" d="M 163.593443 465.49322 
C 164.994432 465.49322 166.33823 464.992046 167.328879 464.100074 
C 168.319528 463.208102 168.876148 461.998159 168.876148 460.73672 
C 168.876148 459.475282 168.319528 458.265339 167.328879 457.373367 
C 166.33823 456.481395 164.994432 455.98022 163.593443 455.98022 
C 162.192453 455.98022 160.848655 456.481395 159.858006 457.373367 
C 158.867357 458.265339 158.310738 459.475282 158.310738 460.73672 
C 158.310738 461.998159 158.867357 463.208102 159.858006 464.100074 
C 160.848655 464.992046 162.192453 465.49322 163.593443 465.49322 
z
" style="fill:#ff0000;"/>
   </g>
   <g id="patch_29">
    <path clip-path="url(#pcb09c1e6d6)" d="M 163.593443 474.32672 
L 163.593443 487.91672 
" style="fill:#1f77b4;stroke:#000000;stroke-linejoin:miter;"/>
   </g>
   <g id="patch_30">
    <path clip-path="url(#pcb09c1e6d6)" d="M 163.593443 479.08322 
C 164.994432 479.08322 166.33823 478.582046 167.328879 477.690074 
C 168.319528 476.798102 168.876148 475.588159 168.876148 474.32672 
C 168.876148 473.065282 168.319528 471.855339 167.328879 470.963367 
C 166.33823 470.071395 164.994432 469.57022 163.593443 469.57022 
C 162.192453 469.57022 160.848655 470.071395 159.858006 470.963367 
C 158.867357 471.855339 158.310738 473.065282 158.310738 474.32672 
C 158.310738 475.588159 158.867357 476.798102 159.858006 477.690074 
C 160.848655 478.582046 162.192453 479.08322 163.593443 479.08322 
z
" style="fill:#ff0000;"/>
   </g>
   <g id="patch_31">
    <path clip-path="url(#pcb09c1e6d6)" d="M 163.593443 492.67322 
C 164.994432 492.67322 166.33823 492.172046 167.328879 491.280074 
C 168.319528 490.388102 168.876148 489.178159 168.876148 487.91672 
C 168.876148 486.655282 168.319528 485.445339 167.328879 484.553367 
C 166.33823 483.661395 164.994432 483.16022 163.593443 483.16022 
C 162.192453 483.16022 160.848655 483.661395 159.858006 484.553367 
C 158.867357 485.445339 158.310738 486.655282 158.310738 487.91672 
C 158.310738 489.178159 158.867357 490.388102 159.858006 491.280074 
C 160.848655 492.172046 162.192453 492.67322 163.593443 492.67322 
z
" style="fill:#ff0000;"/>
   </g>
   <g id="patch_32">
    <path clip-path="url(#pcb09c1e6d6)" d="M 163.593443 501.50672 
L 163.593443 515.09672 
" style="fill:#1f77b4;stroke:#000000;stroke-linejoin:miter;"/>
   </g>
   <g id="patch_33">
    <path clip-path="url(#pcb09c1e6d6)" d="M 163.593443 506.26322 
C 164.994432 506.26322 166.33823 505.762046 167.328879 504.870074 
C 168.319528 503.978102 168.876148 502.768159 168.876148 501.50672 
C 168.876148 500.245282 168.319528 499.035339 167.328879 498.143367 
C 166.33823 497.251395 164.994432 496.75022 163.593443 496.75022 
C 162.192453 496.75022 160.848655 497.251395 159.858006 498.143367 
C 158.867357 499.035339 158.310738 500.245282 158.310738 501.50672 
C 158.310738 502.768159 158.867357 503.978102 159.858006 504.870074 
C 160.848655 505.762046 162.192453 506.26322 163.593443 506.26322 
z
" style="fill:#ff0000;"/>
   </g>
   <g id="patch_34">
    <path clip-path="url(#pcb09c1e6d6)" d="M 163.593443 519.85322 
C 164.994432 519.85322 166.33823 519.352046 167.328879 518.460074 
C 168.319528 517.568102 168.876148 516.358159 168.876148 515.09672 
C 168.876148 513.835282 168.319528 512.625339 167.328879 511.733367 
C 166.33823 510.841395 164.994432 510.34022 163.593443 510.34022 
C 162.192453 510.34022 160.848655 510.841395 159.858006 511.733367 
C 158.867357 512.625339 158.310738 513.835282 158.310738 515.09672 
C 158.310738 516.358159 158.867357 517.568102 159.858006 518.460074 
C 160.848655 519.352046 162.192453 519.85322 163.593443 519.85322 
z
" style="fill:#ff0000;"/>
   </g>
   <g id="patch_35">
    <path clip-path="url(#pcb09c1e6d6)" d="M 163.593443 528.68672 
L 163.593443 542.27672 
" style="fill:#1f77b4;stroke:#000000;stroke-linejoin:miter;"/>
   </g>
   <g id="patch_36">
    <path clip-path="url(#pcb09c1e6d6)" d="M 163.593443 542.27672 
L 163.593443 555.86672 
" style="fill:#1f77b4;stroke:#000000;stroke-linejoin:miter;"/>
   </g>
   <g id="patch_37">
    <path clip-path="url(#pcb09c1e6d6)" d="M 163.593443 533.44322 
C 164.994432 533.44322 166.33823 532.942046 167.328879 532.050074 
C 168.319528 531.158102 168.876148 529.948159 168.876148 528.68672 
C 168.876148 527.425282 168.319528 526.215339 167.328879 525.323367 
C 166.33823 524.431395 164.994432 523.93022 163.593443 523.93022 
C 162.192453 523.93022 160.848655 524.431395 159.858006 525.323367 
C 158.867357 526.215339 158.310738 527.425282 158.310738 528.68672 
C 158.310738 529.948159 158.867357 531.158102 159.858006 532.050074 
C 160.848655 532.942046 162.192453 533.44322 163.593443 533.44322 
z
" style="fill:#800080;"/>
   </g>
   <g id="patch_38">
    <path clip-path="url(#pcb09c1e6d6)" d="M 163.593443 547.03322 
C 164.994432 547.03322 166.33823 546.532046 167.328879 545.640074 
C 168.319528 544.748102 168.876148 543.538159 168.876148 542.27672 
C 168.876148 541.015282 168.319528 539.805339 167.328879 538.913367 
C 166.33823 538.021395 164.994432 537.52022 163.593443 537.52022 
C 162.192453 537.52022 160.848655 538.021395 159.858006 538.913367 
C 158.867357 539.805339 158.310738 541.015282 158.310738 542.27672 
C 158.310738 543.538159 158.867357 544.748102 159.858006 545.640074 
C 160.848655 546.532046 162.192453 547.03322 163.593443 547.03322 
z
" style="fill:#800080;"/>
   </g>
   <g id="patch_39">
    <path clip-path="url(#pcb09c1e6d6)" d="M 163.593443 560.62322 
C 164.994432 560.62322 166.33823 560.122046 167.328879 559.230074 
C 168.319528 558.338102 168.876148 557.128159 168.876148 555.86672 
C 168.876148 554.605282 168.319528 553.395339 167.328879 552.503367 
C 166.33823 551.611395 164.994432 551.11022 163.593443 551.11022 
C 162.192453 551.11022 160.848655 551.611395 159.858006 552.503367 
C 158.867357 553.395339 158.310738 554.605282 158.310738 555.86672 
C 158.310738 557.128159 158.867357 558.338102 159.858006 559.230074 
C 160.848655 560.122046 162.192453 560.62322 163.593443 560.62322 
z
" style="fill:#0000ff;"/>
   </g>
   <g id="patch_40">
    <path clip-path="url(#pcb09c1e6d6)" d="M 163.593443 569.611548 
L 186.233607 569.45672 
" style="fill:#1f77b4;stroke:#000000;stroke-linejoin:miter;"/>
   </g>
   <g id="patch_41">
    <path clip-path="url(#pcb09c1e6d6)" d="M 163.593443 569.611548 
L 175.065588 589.84172 
" style="fill:#1f77b4;stroke:#000000;stroke-linejoin:miter;"/>
   </g>
   <g id="patch_42">
    <path clip-path="url(#pcb09c1e6d6)" d="M 186.233607 569.45672 
L 175.065588 589.84172 
" style="fill:#1f77b4;stroke:#000000;stroke-linejoin:miter;"/>
   </g>
   <g id="patch_43">
    <path clip-path="url(#pcb09c1e6d6)" d="M 163.593443 574.368048 
C 164.994432 574.368048 166.33823 573.866873 167.328879 572.974902 
C 168.319528 572.08293 168.876148 570.872987 168.876148 569.611548 
C 168.876148 568.35011 168.319528 567.140167 167.328879 566.248195 
C 166.33823 565.356223 164.994432 564.855048 163.593443 564.855048 
C 162.192453 564.855048 160.848655 565.356223 159.858006 566.248195 
C 158.867357 567.140167 158.310738 568.35011 158.310738 569.611548 
C 158.310738 570.872987 158.867357 572.08293 159.858006 572.974902 
C 160.848655 573.866873 162.192453 574.368048 163.593443 574.368048 
z
" style="fill:#ff0000;"/>
   </g>
   <g id="patch_44">
    <path clip-path="url(#pcb09c1e6d6)" d="M 186.233607 574.21322 
C 187.634596 574.21322 188.978394 573.712046 189.969043 572.820074 
C 190.959692 571.928102 191.516311 570.718159 191.516311 569.45672 
C 191.516311 568.195282 190.959692 566.985339 189.969043 566.093367 
C 188.978394 565.201395 187.634596 564.70022 186.233607 564.70022 
C 184.832617 564.70022 183.488819 565.201395 182.49817 566.093367 
C 181.507521 566.985339 180.950902 568.195282 180.950902 569.45672 
C 180.950902 570.718159 181.507521 571.928102 182.49817 572.820074 
C 183.488819 573.712046 184.832617 574.21322 186.233607 574.21322 
z
" style="fill:#ff0000;"/>
   </g>
   <g id="patch_45">
    <path clip-path="url(#pcb09c1e6d6)" d="M 175.065588 594.59822 
C 176.466577 594.59822 177.810375 594.097046 178.801024 593.205074 
C 179.791674 592.313102 180.348293 591.103159 180.348293 589.84172 
C 180.348293 588.580282 179.791674 587.370339 178.801024 586.478367 
C 177.810375 585.586395 176.466577 585.08522 175.065588 585.08522 
C 173.664598 585.08522 172.320801 585.586395 171.330151 586.478367 
C 170.339502 587.370339 169.782883 588.580282 169.782883 589.84172 
C 169.782883 591.103159 170.339502 592.313102 171.330151 593.205074 
C 172.320801 594.097046 173.664598 594.59822 175.065588 594.59822 
z
" style="fill:#ff0000;"/>
   </g>
   <g id="patch_46">
    <path clip-path="url(#pcb09c1e6d6)" d="M 163.593443 603.43172 
L 163.593443 644.20172 
" style="fill:#1f77b4;stroke:#000000;stroke-linejoin:miter;"/>
   </g>
   <g id="patch_47">
    <path clip-path="url(#pcb09c1e6d6)" d="M 163.593443 617.02172 
L 163.593443 630.61172 
" style="fill:#1f77b4;stroke:#000000;stroke-linejoin:miter;"/>
   </g>
   <g id="patch_48">
    <path clip-path="url(#pcb09c1e6d6)" d="M 163.593443 630.61172 
L 163.593443 644.20172 
" style="fill:#1f77b4;stroke:#000000;stroke-linejoin:miter;"/>
   </g>
   <g id="patch_49">
    <path clip-path="url(#pcb09c1e6d6)" d="M 163.593443 608.18822 
C 164.994432 608.18822 166.33823 607.687046 167.328879 606.795074 
C 168.319528 605.903102 168.876148 604.693159 168.876148 603.43172 
C 168.876148 602.170282 168.319528 600.960339 167.328879 600.068367 
C 166.33823 599.176395 164.994432 598.67522 163.593443 598.67522 
C 162.192453 598.67522 160.848655 599.176395 159.858006 600.068367 
C 158.867357 600.960339 158.310738 602.170282 158.310738 603.43172 
C 158.310738 604.693159 158.867357 605.903102 159.858006 606.795074 
C 160.848655 607.687046 162.192453 608.18822 163.593443 608.18822 
z
" style="fill:#ff0000;"/>
   </g>
   <g id="patch_50">
    <path clip-path="url(#pcb09c1e6d6)" d="M 163.593443 621.77822 
C 164.994432 621.77822 166.33823 621.277046 167.328879 620.385074 
C 168.319528 619.493102 168.876148 618.283159 168.876148 617.02172 
C 168.876148 615.760282 168.319528 614.550339 167.328879 613.658367 
C 166.33823 612.766395 164.994432 612.26522 163.593443 612.26522 
C 162.192453 612.26522 160.848655 612.766395 159.858006 613.658367 
C 158.867357 614.550339 158.310738 615.760282 158.310738 617.02172 
C 158.310738 618.283159 158.867357 619.493102 159.858006 620.385074 
C 160.848655 621.277046 162.192453 621.77822 163.593443 621.77822 
z
" style="fill:#ff0000;"/>
   </g>
   <g id="patch_51">
    <path clip-path="url(#pcb09c1e6d6)" d="M 163.593443 635.36822 
C 164.994432 635.36822 166.33823 634.867046 167.328879 633.975074 
C 168.319528 633.083102 168.876148 631.873159 168.876148 630.61172 
C 168.876148 629.350282 168.319528 628.140339 167.328879 627.248367 
C 166.33823 626.356395 164.994432 625.85522 163.593443 625.85522 
C 162.192453 625.85522 160.848655 626.356395 159.858006 627.248367 
C 158.867357 628.140339 158.310738 629.350282 158.310738 630.61172 
C 158.310738 631.873159 158.867357 633.083102 159.858006 633.975074 
C 160.848655 634.867046 162.192453 635.36822 163.593443 635.36822 
z
" style="fill:#ff0000;"/>
   </g>
   <g id="patch_52">
    <path clip-path="url(#pcb09c1e6d6)" d="M 163.593443 648.95822 
C 164.994432 648.95822 166.33823 648.457046 167.328879 647.565074 
C 168.319528 646.673102 168.876148 645.463159 168.876148 644.20172 
C 168.876148 642.940282 168.319528 641.730339 167.328879 640.838367 
C 166.33823 639.946395 164.994432 639.44522 163.593443 639.44522 
C 162.192453 639.44522 160.848655 639.946395 159.858006 640.838367 
C 158.867357 641.730339 158.310738 642.940282 158.310738 644.20172 
C 158.310738 645.463159 158.867357 646.673102 159.858006 647.565074 
C 160.848655 648.457046 162.192453 648.95822 163.593443 648.95822 
z
" style="fill:#ff0000;"/>
   </g>
   <g id="patch_53">
    <path clip-path="url(#pcb09c1e6d6)" d="M 163.593443 657.79172 
L 165.876359 698.56172 
" style="fill:#1f77b4;stroke:#000000;stroke-linejoin:miter;"/>
   </g>
   <g id="patch_54">
    <path clip-path="url(#pcb09c1e6d6)" d="M 163.593443 657.79172 
L 178.104299 672.641808 
" style="fill:#1f77b4;stroke:#000000;stroke-linejoin:miter;"/>
   </g>
   <g id="patch_55">
    <path clip-path="url(#pcb09c1e6d6)" d="M 208.87377 664.479524 
L 193.500715 665.72964 
" style="fill:#1f77b4;stroke:#000000;stroke-linejoin:miter;"/>
   </g>
   <g id="patch_56">
    <path clip-path="url(#pcb09c1e6d6)" d="M 193.500715 665.72964 
L 178.104299 672.641808 
" style="fill:#1f77b4;stroke:#000000;stroke-linejoin:miter;"/>
   </g>
   <g id="patch_57">
    <path clip-path="url(#pcb09c1e6d6)" d="M 178.104299 672.641808 
L 165.876359 698.56172 
" style="fill:#1f77b4;stroke:#000000;stroke-linejoin:miter;"/>
   </g>
   <g id="patch_58">
    <path clip-path="url(#pcb09c1e6d6)" d="M 163.593443 662.54822 
C 164.994432 662.54822 166.33823 662.047046 167.328879 661.155074 
C 168.319528 660.263102 168.876148 659.053159 168.876148 657.79172 
C 168.876148 656.530282 168.319528 655.320339 167.328879 654.428367 
C 166.33823 653.536395 164.994432 653.03522 163.593443 653.03522 
C 162.192453 653.03522 160.848655 653.536395 159.858006 654.428367 
C 158.867357 655.320339 158.310738 656.530282 158.310738 657.79172 
C 158.310738 659.053159 158.867357 660.263102 159.858006 661.155074 
C 160.848655 662.047046 162.192453 662.54822 163.593443 662.54822 
z
" style="fill:#ff0000;"/>
   </g>
   <g id="patch_59">
    <path clip-path="url(#pcb09c1e6d6)" d="M 208.87377 669.236024 
C 210.27476 669.236024 211.618558 668.734849 212.609207 667.842877 
C 213.599856 666.950906 214.156475 665.740962 214.156475 664.479524 
C 214.156475 663.218085 213.599856 662.008142 212.609207 661.11617 
C 211.618558 660.224199 210.27476 659.723024 208.87377 659.723024 
C 207.472781 659.723024 206.128983 660.224199 205.138334 661.11617 
C 204.147685 662.008142 203.591066 663.218085 203.591066 664.479524 
C 203.591066 665.740962 204.147685 666.950906 205.138334 667.842877 
C 206.128983 668.734849 207.472781 669.236024 208.87377 669.236024 
z
" style="fill:#ff0000;"/>
   </g>
   <g id="patch_60">
    <path clip-path="url(#pcb09c1e6d6)" d="M 193.500715 670.48614 
C 194.901705 670.48614 196.245502 669.984965 197.236151 669.092993 
C 198.226801 668.201021 198.78342 666.991078 198.78342 665.72964 
C 198.78342 664.468201 198.226801 663.258258 197.236151 662.366286 
C 196.245502 661.474315 194.901705 660.97314 193.500715 660.97314 
C 192.099725 660.97314 190.755928 661.474315 189.765278 662.366286 
C 188.774629 663.258258 188.21801 664.468201 188.21801 665.72964 
C 188.21801 666.991078 188.774629 668.201021 189.765278 669.092993 
C 190.755928 669.984965 192.099725 670.48614 193.500715 670.48614 
z
" style="fill:#ff0000;"/>
   </g>
   <g id="patch_61">
    <path clip-path="url(#pcb09c1e6d6)" d="M 178.104299 677.398308 
C 179.505289 677.398308 180.849086 676.897133 181.839736 676.005162 
C 182.830385 675.11319 183.387004 673.903247 183.387004 672.641808 
C 183.387004 671.38037 182.830385 670.170426 181.839736 669.278455 
C 180.849086 668.386483 179.505289 667.885308 178.104299 667.885308 
C 176.703309 667.885308 175.359512 668.386483 174.368863 669.278455 
C 173.378213 670.170426 172.821594 671.38037 172.821594 672.641808 
C 172.821594 673.903247 173.378213 675.11319 174.368863 676.005162 
C 175.359512 676.897133 176.703309 677.398308 178.104299 677.398308 
z
" style="fill:#ff0000;"/>
   </g>
   <g id="patch_62">
    <path clip-path="url(#pcb09c1e6d6)" d="M 165.876359 703.31822 
C 167.277349 703.31822 168.621147 702.817046 169.611796 701.925074 
C 170.602445 701.033102 171.159064 699.823159 171.159064 698.56172 
C 171.159064 697.300282 170.602445 696.090339 169.611796 695.198367 
C 168.621147 694.306395 167.277349 693.80522 165.876359 693.80522 
C 164.47537 693.80522 163.131572 694.306395 162.140923 695.198367 
C 161.150274 696.090339 160.593655 697.300282 160.593655 698.56172 
C 160.593655 699.823159 161.150274 701.033102 162.140923 701.925074 
C 163.131572 702.817046 164.47537 703.31822 165.876359 703.31822 
z
" style="fill:#ff0000;"/>
   </g>
   <g id="patch_63">
    <path clip-path="url(#pcb09c1e6d6)" d="M 173.616584 712.15172 
L 181.030682 734.01082 
" style="fill:#1f77b4;stroke:#000000;stroke-linejoin:miter;"/>
   </g>
   <g id="patch_64">
    <path clip-path="url(#pcb09c1e6d6)" d="M 253.958207 742.144299 
L 245.361446 764.668701 
" style="fill:#1f77b4;stroke:#000000;stroke-linejoin:miter;"/>
   </g>
   <g id="patch_65">
    <path clip-path="url(#pcb09c1e6d6)" d="M 253.958207 742.144299 
L 238.550225 755.291525 
" style="fill:#1f77b4;stroke:#000000;stroke-linejoin:miter;"/>
   </g>
   <g id="patch_66">
    <path clip-path="url(#pcb09c1e6d6)" d="M 253.958207 742.144299 
L 256.274792 761.524995 
" style="fill:#1f77b4;stroke:#000000;stroke-linejoin:miter;"/>
   </g>
   <g id="patch_67">
    <path clip-path="url(#pcb09c1e6d6)" d="M 253.958207 742.144299 
L 243.085908 739.018573 
" style="fill:#1f77b4;stroke:#000000;stroke-linejoin:miter;"/>
   </g>
   <g id="patch_68">
    <path clip-path="url(#pcb09c1e6d6)" d="M 245.361446 764.668701 
L 244.830401 781.372601 
" style="fill:#1f77b4;stroke:#000000;stroke-linejoin:miter;"/>
   </g>
   <g id="patch_69">
    <path clip-path="url(#pcb09c1e6d6)" d="M 245.361446 764.668701 
L 238.550225 755.291525 
" style="fill:#1f77b4;stroke:#000000;stroke-linejoin:miter;"/>
   </g>
   <g id="patch_70">
    <path clip-path="url(#pcb09c1e6d6)" d="M 245.361446 764.668701 
L 256.274792 761.524995 
" style="fill:#1f77b4;stroke:#000000;stroke-linejoin:miter;"/>
   </g>
   <g id="patch_71">
    <path clip-path="url(#pcb09c1e6d6)" d="M 245.361446 764.668701 
L 243.085908 739.018573 
" style="fill:#1f77b4;stroke:#000000;stroke-linejoin:miter;"/>
   </g>
   <g id="patch_72">
    <path clip-path="url(#pcb09c1e6d6)" d="M 181.030682 734.01082 
L 180.966546 754.59925 
" style="fill:#1f77b4;stroke:#000000;stroke-linejoin:miter;"/>
   </g>
   <g id="patch_73">
    <path clip-path="url(#pcb09c1e6d6)" d="M 181.030682 734.01082 
L 198.701375 745.021285 
" style="fill:#1f77b4;stroke:#000000;stroke-linejoin:miter;"/>
   </g>
   <g id="patch_74">
    <path clip-path="url(#pcb09c1e6d6)" d="M 181.030682 734.01082 
L 163.593443 746.993219 
" style="fill:#1f77b4;stroke:#000000;stroke-linejoin:miter;"/>
   </g>
   <g id="patch_75">
    <path clip-path="url(#pcb09c1e6d6)" d="M 198.701375 745.021285 
L 180.966546 754.59925 
" style="fill:#1f77b4;stroke:#000000;stroke-linejoin:miter;"/>
   </g>
   <g id="patch_76">
    <path clip-path="url(#pcb09c1e6d6)" d="M 198.701375 745.021285 
L 217.880542 750.955068 
" style="fill:#1f77b4;stroke:#000000;stroke-linejoin:miter;"/>
   </g>
   <g id="patch_77">
    <path clip-path="url(#pcb09c1e6d6)" d="M 244.830401 781.372601 
L 250.305033 803.316212 
" style="fill:#1f77b4;stroke:#000000;stroke-linejoin:miter;"/>
   </g>
   <g id="patch_78">
    <path clip-path="url(#pcb09c1e6d6)" d="M 244.830401 781.372601 
L 238.550225 755.291525 
" style="fill:#1f77b4;stroke:#000000;stroke-linejoin:miter;"/>
   </g>
   <g id="patch_79">
    <path clip-path="url(#pcb09c1e6d6)" d="M 244.830401 781.372601 
L 256.274792 761.524995 
" style="fill:#1f77b4;stroke:#000000;stroke-linejoin:miter;"/>
   </g>
   <g id="patch_80">
    <path clip-path="url(#pcb09c1e6d6)" d="M 180.966546 754.59925 
L 163.593443 746.993219 
" style="fill:#1f77b4;stroke:#000000;stroke-linejoin:miter;"/>
   </g>
   <g id="patch_81">
    <path clip-path="url(#pcb09c1e6d6)" d="M 217.880542 750.955068 
L 238.550225 755.291525 
" style="fill:#1f77b4;stroke:#000000;stroke-linejoin:miter;"/>
   </g>
   <g id="patch_82">
    <path clip-path="url(#pcb09c1e6d6)" d="M 256.274792 761.524995 
L 238.550225 755.291525 
" style="fill:#1f77b4;stroke:#000000;stroke-linejoin:miter;"/>
   </g>
   <g id="patch_83">
    <path clip-path="url(#pcb09c1e6d6)" d="M 256.274792 761.524995 
L 264.843334 747.065143 
" style="fill:#1f77b4;stroke:#000000;stroke-linejoin:miter;"/>
   </g>
   <g id="patch_84">
    <path clip-path="url(#pcb09c1e6d6)" d="M 256.274792 761.524995 
L 243.085908 739.018573 
" style="fill:#1f77b4;stroke:#000000;stroke-linejoin:miter;"/>
   </g>
   <g id="patch_85">
    <path clip-path="url(#pcb09c1e6d6)" d="M 238.550225 755.291525 
L 264.843334 747.065143 
" style="fill:#1f77b4;stroke:#000000;stroke-linejoin:miter;"/>
   </g>
   <g id="patch_86">
    <path clip-path="url(#pcb09c1e6d6)" d="M 238.550225 755.291525 
L 243.085908 739.018573 
" style="fill:#1f77b4;stroke:#000000;stroke-linejoin:miter;"/>
   </g>
   <g id="patch_87">
    <path clip-path="url(#pcb09c1e6d6)" d="M 173.616584 716.90822 
C 175.017574 716.90822 176.361371 716.407046 177.352021 715.515074 
C 178.34267 714.623102 178.899289 713.413159 178.899289 712.15172 
C 178.899289 710.890282 178.34267 709.680339 177.352021 708.788367 
C 176.361371 707.896395 175.017574 707.39522 173.616584 707.39522 
C 172.215594 707.39522 170.871797 707.896395 169.881148 708.788367 
C 168.890498 709.680339 168.333879 710.890282 168.333879 712.15172 
C 168.333879 713.413159 168.890498 714.623102 169.881148 715.515074 
C 170.871797 716.407046 172.215594 716.90822 173.616584 716.90822 
z
" style="fill:#ff0000;"/>
   </g>
   <g id="patch_88">
    <path clip-path="url(#pcb09c1e6d6)" d="M 253.958207 746.900799 
C 255.359197 746.900799 256.702994 746.399624 257.693644 745.507652 
C 258.684293 744.61568 259.240912 743.405737 259.240912 742.144299 
C 259.240912 740.88286 258.684293 739.672917 257.693644 738.780945 
C 256.702994 737.888974 255.359197 737.387799 253.958207 737.387799 
C 252.557218 737.387799 251.21342 737.888974 250.222771 738.780945 
C 249.232121 739.672917 248.675502 740.88286 248.675502 742.144299 
C 248.675502 743.405737 249.232121 744.61568 250.222771 745.507652 
C 251.21342 746.399624 252.557218 746.900799 253.958207 746.900799 
z
" style="fill:#ff0000;"/>
   </g>
   <g id="patch_89">
    <path clip-path="url(#pcb09c1e6d6)" d="M 245.361446 769.425201 
C 246.762436 769.425201 248.106233 768.924026 249.096882 768.032054 
C 250.087532 767.140083 250.644151 765.93014 250.644151 764.668701 
C 250.644151 763.407262 250.087532 762.197319 249.096882 761.305348 
C 248.106233 760.413376 246.762436 759.912201 245.361446 759.912201 
C 243.960456 759.912201 242.616659 760.413376 241.626009 761.305348 
C 240.63536 762.197319 240.078741 763.407262 240.078741 764.668701 
C 240.078741 765.93014 240.63536 767.140083 241.626009 768.032054 
C 242.616659 768.924026 243.960456 769.425201 245.361446 769.425201 
z
" style="fill:#ff0000;"/>
   </g>
   <g id="patch_90">
    <path clip-path="url(#pcb09c1e6d6)" d="M 181.030682 738.76732 
C 182.431671 738.76732 183.775469 738.266145 184.766118 737.374173 
C 185.756767 736.482201 186.313387 735.272258 186.313387 734.01082 
C 186.313387 732.749381 185.756767 731.539438 184.766118 730.647466 
C 183.775469 729.755495 182.431671 729.25432 181.030682 729.25432 
C 179.629692 729.25432 178.285894 729.755495 177.295245 730.647466 
C 176.304596 731.539438 175.747977 732.749381 175.747977 734.01082 
C 175.747977 735.272258 176.304596 736.482201 177.295245 737.374173 
C 178.285894 738.266145 179.629692 738.76732 181.030682 738.76732 
z
" style="fill:#ff0000;"/>
   </g>
   <g id="patch_91">
    <path clip-path="url(#pcb09c1e6d6)" d="M 198.701375 749.777785 
C 200.102365 749.777785 201.446162 749.27661 202.436811 748.384638 
C 203.427461 747.492666 203.98408 746.282723 203.98408 745.021285 
C 203.98408 743.759846 203.427461 742.549903 202.436811 741.657931 
C 201.446162 740.76596 200.102365 740.264785 198.701375 740.264785 
C 197.300385 740.264785 195.956588 740.76596 194.965938 741.657931 
C 193.975289 742.549903 193.41867 743.759846 193.41867 745.021285 
C 193.41867 746.282723 193.975289 747.492666 194.965938 748.384638 
C 195.956588 749.27661 197.300385 749.777785 198.701375 749.777785 
z
" style="fill:#ff0000;"/>
   </g>
   <g id="patch_92">
    <path clip-path="url(#pcb09c1e6d6)" d="M 244.830401 786.129101 
C 246.231391 786.129101 247.575189 785.627926 248.565838 784.735955 
C 249.556487 783.843983 250.113106 782.63404 250.113106 781.372601 
C 250.113106 780.111163 249.556487 778.90122 248.565838 778.009248 
C 247.575189 777.117276 246.231391 776.616101 244.830401 776.616101 
C 243.429412 776.616101 242.085614 777.117276 241.094965 778.009248 
C 240.104316 778.90122 239.547697 780.111163 239.547697 781.372601 
C 239.547697 782.63404 240.104316 783.843983 241.094965 784.735955 
C 242.085614 785.627926 243.429412 786.129101 244.830401 786.129101 
z
" style="fill:#ff0000;"/>
   </g>
   <g id="patch_93">
    <path clip-path="url(#pcb09c1e6d6)" d="M 180.966546 759.35575 
C 182.367536 759.35575 183.711333 758.854575 184.701982 757.962604 
C 185.692632 757.070632 186.249251 755.860689 186.249251 754.59925 
C 186.249251 753.337812 185.692632 752.127869 184.701982 751.235897 
C 183.711333 750.343925 182.367536 749.84275 180.966546 749.84275 
C 179.565556 749.84275 178.221759 750.343925 177.231109 751.235897 
C 176.24046 752.127869 175.683841 753.337812 175.683841 754.59925 
C 175.683841 755.860689 176.24046 757.070632 177.231109 757.962604 
C 178.221759 758.854575 179.565556 759.35575 180.966546 759.35575 
z
" style="fill:#ff0000;"/>
   </g>
   <g id="patch_94">
    <path clip-path="url(#pcb09c1e6d6)" d="M 163.593443 751.749719 
C 164.994432 751.749719 166.33823 751.248544 167.328879 750.356572 
C 168.319528 749.4646 168.876148 748.254657 168.876148 746.993219 
C 168.876148 745.73178 168.319528 744.521837 167.328879 743.629865 
C 166.33823 742.737894 164.994432 742.236719 163.593443 742.236719 
C 162.192453 742.236719 160.848655 742.737894 159.858006 743.629865 
C 158.867357 744.521837 158.310738 745.73178 158.310738 746.993219 
C 158.310738 748.254657 158.867357 749.4646 159.858006 750.356572 
C 160.848655 751.248544 162.192453 751.749719 163.593443 751.749719 
z
" style="fill:#ff0000;"/>
   </g>
   <g id="patch_95">
    <path clip-path="url(#pcb09c1e6d6)" d="M 217.880542 755.711568 
C 219.281532 755.711568 220.625329 755.210393 221.615978 754.318422 
C 222.606628 753.42645 223.163247 752.216507 223.163247 750.955068 
C 223.163247 749.69363 222.606628 748.483686 221.615978 747.591715 
C 220.625329 746.699743 219.281532 746.198568 217.880542 746.198568 
C 216.479552 746.198568 215.135755 746.699743 214.145105 747.591715 
C 213.154456 748.483686 212.597837 749.69363 212.597837 750.955068 
C 212.597837 752.216507 213.154456 753.42645 214.145105 754.318422 
C 215.135755 755.210393 216.479552 755.711568 217.880542 755.711568 
z
" style="fill:#ff0000;"/>
   </g>
   <g id="patch_96">
    <path clip-path="url(#pcb09c1e6d6)" d="M 256.274792 766.281495 
C 257.675782 766.281495 259.019579 765.78032 260.010229 764.888348 
C 261.000878 763.996376 261.557497 762.786433 261.557497 761.524995 
C 261.557497 760.263556 261.000878 759.053613 260.010229 758.161641 
C 259.019579 757.269669 257.675782 756.768495 256.274792 756.768495 
C 254.873802 756.768495 253.530005 757.269669 252.539356 758.161641 
C 251.548706 759.053613 250.992087 760.263556 250.992087 761.524995 
C 250.992087 762.786433 251.548706 763.996376 252.539356 764.888348 
C 253.530005 765.78032 254.873802 766.281495 256.274792 766.281495 
z
" style="fill:#ff0000;"/>
   </g>
   <g id="patch_97">
    <path clip-path="url(#pcb09c1e6d6)" d="M 250.305033 808.072712 
C 251.706022 808.072712 253.04982 807.571537 254.040469 806.679565 
C 255.031118 805.787594 255.587738 804.57765 255.587738 803.316212 
C 255.587738 802.054773 255.031118 800.84483 254.040469 799.952859 
C 253.04982 799.060887 251.706022 798.559712 250.305033 798.559712 
C 248.904043 798.559712 247.560245 799.060887 246.569596 799.952859 
C 245.578947 800.84483 245.022328 802.054773 245.022328 803.316212 
C 245.022328 804.57765 245.578947 805.787594 246.569596 806.679565 
C 247.560245 807.571537 248.904043 808.072712 250.305033 808.072712 
z
" style="fill:#ff0000;"/>
   </g>
   <g id="patch_98">
    <path clip-path="url(#pcb09c1e6d6)" d="M 238.550225 760.048025 
C 239.951214 760.048025 241.295012 759.54685 242.285661 758.654878 
C 243.276311 757.762907 243.83293 756.552964 243.83293 755.291525 
C 243.83293 754.030086 243.276311 752.820143 242.285661 751.928172 
C 241.295012 751.0362 239.951214 750.535025 238.550225 750.535025 
C 237.149235 750.535025 235.805438 751.0362 234.814788 751.928172 
C 233.824139 752.820143 233.26752 754.030086 233.26752 755.291525 
C 233.26752 756.552964 233.824139 757.762907 234.814788 758.654878 
C 235.805438 759.54685 237.149235 760.048025 238.550225 760.048025 
z
" style="fill:#ff0000;"/>
   </g>
   <g id="patch_99">
    <path clip-path="url(#pcb09c1e6d6)" d="M 264.843334 751.821643 
C 266.244324 751.821643 267.588121 751.320469 268.57877 750.428497 
C 269.56942 749.536525 270.126039 748.326582 270.126039 747.065143 
C 270.126039 745.803705 269.56942 744.593762 268.57877 743.70179 
C 267.588121 742.809818 266.244324 742.308643 264.843334 742.308643 
C 263.442344 742.308643 262.098547 742.809818 261.107897 743.70179 
C 260.117248 744.593762 259.560629 745.803705 259.560629 747.065143 
C 259.560629 748.326582 260.117248 749.536525 261.107897 750.428497 
C 262.098547 751.320469 263.442344 751.821643 264.843334 751.821643 
z
" style="fill:#ff0000;"/>
   </g>
   <g id="patch_100">
    <path clip-path="url(#pcb09c1e6d6)" d="M 243.085908 743.775073 
C 244.486898 743.775073 245.830695 743.273899 246.821344 742.381927 
C 247.811994 741.489955 248.368613 740.280012 248.368613 739.018573 
C 248.368613 737.757135 247.811994 736.547192 246.821344 735.65522 
C 245.830695 734.763248 244.486898 734.262073 243.085908 734.262073 
C 241.684918 734.262073 240.341121 734.763248 239.350471 735.65522 
C 238.359822 736.547192 237.803203 737.757135 237.803203 739.018573 
C 237.803203 740.280012 238.359822 741.489955 239.350471 742.381927 
C 240.341121 743.273899 241.684918 743.775073 243.085908 743.775073 
z
" style="fill:#ff0000;"/>
   </g>
   <g id="text_1">
    <text style="font-family:DejaVu Sans;font-size:12px;font-style:normal;font-weight:normal;text-anchor:start;" transform="rotate(-0, 169.63082, 124.025158)" x="169.63082" y="124.025158">REACTOME_REGULATION_OF_ORNITHINE_DECARBOXYLASE_ODC</text>
   </g>
   <g id="text_2">
    <text style="font-family:DejaVu Sans;font-size:12px;font-style:normal;font-weight:normal;text-anchor:start;" transform="rotate(-0, 169.63082, 137.615158)" x="169.63082" y="137.615158">KEGG_PRIMARY_BILE_ACID_BIOSYNTHESIS</text>
   </g>
   <g id="text_3">
    <text style="font-family:DejaVu Sans;font-size:12px;font-style:normal;font-weight:normal;text-anchor:start;" transform="rotate(-0, 169.63082, 151.205158)" x="169.63082" y="151.205158">KEGG_PENTOSE_PHOSPHATE_PATHWAY</text>
   </g>
   <g id="text_4">
    <text style="font-family:DejaVu Sans;font-size:12px;font-style:normal;font-weight:normal;text-anchor:start;" transform="rotate(-0, 169.63082, 164.795158)" x="169.63082" y="164.795158">KEGG_GLYCINE_SERINE_AND_THREONINE_METABOLISM</text>
   </g>
   <g id="text_5">
    <text style="font-family:DejaVu Sans;font-size:12px;font-style:normal;font-weight:normal;text-anchor:start;" transform="rotate(-0, 169.63082, 178.385158)" x="169.63082" y="178.385158">REACTOME_MITOCHONDRIAL_PROTEIN_IMPORT</text>
   </g>
   <g id="text_6">
    <text style="font-family:DejaVu Sans;font-size:12px;font-style:normal;font-weight:normal;text-anchor:start;" transform="rotate(-0, 169.63082, 191.975158)" x="169.63082" y="191.975158">BIOCARTA_CHREBP2_PATHWAY</text>
   </g>
   <g id="text_7">
    <text style="font-family:DejaVu Sans;font-size:12px;font-style:normal;font-weight:normal;text-anchor:start;" transform="rotate(-0, 169.63082, 205.565158)" x="169.63082" y="205.565158">KEGG_GLUTATHIONE_METABOLISM</text>
   </g>
   <g id="text_8">
    <text style="font-family:DejaVu Sans;font-size:12px;font-style:normal;font-weight:normal;text-anchor:start;" transform="rotate(-0, 169.63082, 219.155158)" x="169.63082" y="219.155158">KEGG_NICOTINATE_AND_NICOTINAMIDE_METABOLISM</text>
   </g>
   <g id="text_9">
    <text style="font-family:DejaVu Sans;font-size:12px;font-style:normal;font-weight:normal;text-anchor:start;" transform="rotate(-0, 169.63082, 232.745158)" x="169.63082" y="232.745158">KEGG_INSULIN_SIGNALING_PATHWAY</text>
   </g>
   <g id="text_10">
    <text style="font-family:DejaVu Sans;font-size:12px;font-style:normal;font-weight:normal;text-anchor:start;" transform="rotate(-0, 169.63082, 246.335158)" x="169.63082" y="246.335158">BIOCARTA_PGC1A_PATHWAY</text>
   </g>
   <g id="text_11">
    <text style="font-family:DejaVu Sans;font-size:12px;font-style:normal;font-weight:normal;text-anchor:start;" transform="rotate(-0, 169.63082, 259.925158)" x="169.63082" y="259.925158">KEGG_ARGININE_AND_PROLINE_METABOLISM</text>
   </g>
   <g id="text_12">
    <text style="font-family:DejaVu Sans;font-size:12px;font-style:normal;font-weight:normal;text-anchor:start;" transform="rotate(-0, 169.63082, 273.515158)" x="169.63082" y="273.515158">KEGG_ALDOSTERONE_REGULATED_SODIUM_REABSORPTION</text>
   </g>
   <g id="text_13">
    <text style="font-family:DejaVu Sans;font-size:12px;font-style:normal;font-weight:normal;text-anchor:start;" transform="rotate(-0, 169.63082, 287.105158)" x="169.63082" y="287.105158">BIOCARTA_PPARA_PATHWAY</text>
   </g>
   <g id="text_14">
    <text style="font-family:DejaVu Sans;font-size:12px;font-style:normal;font-weight:normal;text-anchor:start;" transform="rotate(-0, 169.63082, 300.695158)" x="169.63082" y="300.695158">BIOCARTA_PTDINS_PATHWAY</text>
   </g>
   <g id="text_15">
    <text style="font-family:DejaVu Sans;font-size:12px;font-style:normal;font-weight:normal;text-anchor:start;" transform="rotate(-0, 169.63082, 314.285158)" x="169.63082" y="314.285158">KEGG_AMINO_SUGAR_AND_NUCLEOTIDE_SUGAR_METABOLISM</text>
   </g>
   <g id="text_16">
    <text style="font-family:DejaVu Sans;font-size:12px;font-style:normal;font-weight:normal;text-anchor:start;" transform="rotate(-0, 169.63082, 327.875158)" x="169.63082" y="327.875158">KEGG_ALANINE_ASPARTATE_AND_GLUTAMATE_METABOLISM</text>
   </g>
   <g id="text_17">
    <text style="font-family:DejaVu Sans;font-size:12px;font-style:normal;font-weight:normal;text-anchor:start;" transform="rotate(-0, 169.63082, 341.465158)" x="169.63082" y="341.465158">PID_CERAMIDE_PATHWAY</text>
   </g>
   <g id="text_18">
    <text style="font-family:DejaVu Sans;font-size:12px;font-style:normal;font-weight:normal;text-anchor:start;" transform="rotate(-0, 169.63082, 355.055158)" x="169.63082" y="355.055158">KEGG_PEROXISOME</text>
   </g>
   <g id="text_19">
    <text style="font-family:DejaVu Sans;font-size:12px;font-style:normal;font-weight:normal;text-anchor:start;" transform="rotate(-0, 169.63082, 368.645158)" x="169.63082" y="368.645158">KEGG_PHENYLALANINE_METABOLISM</text>
   </g>
   <g id="text_20">
    <text style="font-family:DejaVu Sans;font-size:12px;font-style:normal;font-weight:normal;text-anchor:start;" transform="rotate(-0, 169.63082, 382.235158)" x="169.63082" y="382.235158">KEGG_GLYCOSAMINOGLYCAN_BIOSYNTHESIS_CHONDROITIN_SULFATE</text>
   </g>
   <g id="text_21">
    <text style="font-family:DejaVu Sans;font-size:12px;font-style:normal;font-weight:normal;text-anchor:start;" transform="rotate(-0, 169.63082, 395.825158)" x="169.63082" y="395.825158">REACTOME_PURINE_METABOLISM</text>
   </g>
   <g id="text_22">
    <text style="font-family:DejaVu Sans;font-size:12px;font-style:normal;font-weight:normal;text-anchor:start;" transform="rotate(-0, 169.63082, 409.415158)" x="169.63082" y="409.415158">KEGG_PORPHYRIN_AND_CHLOROPHYLL_METABOLISM</text>
   </g>
   <g id="text_23">
    <text style="font-family:DejaVu Sans;font-size:12px;font-style:normal;font-weight:normal;text-anchor:start;" transform="rotate(-0, 169.63082, 423.005158)" x="169.63082" y="423.005158">REACTOME_ACETYLCHOLINE_BINDING_AND_DOWNSTREAM_EVENTS</text>
   </g>
   <g id="text_24">
    <text style="font-family:DejaVu Sans;font-size:12px;font-style:normal;font-weight:normal;text-anchor:start;" transform="rotate(-0, 169.63082, 436.595158)" x="169.63082" y="436.595158">PID_GLYPICAN_1PATHWAY</text>
   </g>
   <g id="text_25">
    <text style="font-family:DejaVu Sans;font-size:12px;font-style:normal;font-weight:normal;text-anchor:start;" transform="rotate(-0, 169.63082, 450.185158)" x="169.63082" y="450.185158">REACTOME_BIOLOGICAL_OXIDATIONS</text>
   </g>
   <g id="text_26">
    <text style="font-family:DejaVu Sans;font-size:12px;font-style:normal;font-weight:normal;text-anchor:start;" transform="rotate(-0, 169.63082, 463.775158)" x="169.63082" y="463.775158">REACTOME_PHASE1_FUNCTIONALIZATION_OF_COMPOUNDS</text>
   </g>
   <g id="text_27">
    <text style="font-family:DejaVu Sans;font-size:12px;font-style:normal;font-weight:normal;text-anchor:start;" transform="rotate(-0, 169.63082, 477.365158)" x="169.63082" y="477.365158">KEGG_GALACTOSE_METABOLISM</text>
   </g>
   <g id="text_28">
    <text style="font-family:DejaVu Sans;font-size:12px;font-style:normal;font-weight:normal;text-anchor:start;" transform="rotate(-0, 169.63082, 490.955158)" x="169.63082" y="490.955158">KEGG_STARCH_AND_SUCROSE_METABOLISM</text>
   </g>
   <g id="text_29">
    <text style="font-family:DejaVu Sans;font-size:12px;font-style:normal;font-weight:normal;text-anchor:start;" transform="rotate(-0, 169.63082, 504.545158)" x="169.63082" y="504.545158">PID_RETINOIC_ACID_PATHWAY</text>
   </g>
   <g id="text_30">
    <text style="font-family:DejaVu Sans;font-size:12px;font-style:normal;font-weight:normal;text-anchor:start;" transform="rotate(-0, 169.63082, 518.07422)" x="169.63082" y="518.07422">PID_RXR_VDR_PATHWAY</text>
   </g>
   <g id="text_31">
    <text style="font-family:DejaVu Sans;font-size:12px;font-style:normal;font-weight:normal;text-anchor:start;" transform="rotate(-0, 169.63082, 531.725158)" x="169.63082" y="531.725158">REACTOME_METABOLISM_OF_CARBOHYDRATES</text>
   </g>
   <g id="text_32">
    <text style="font-family:DejaVu Sans;font-size:12px;font-style:normal;font-weight:normal;text-anchor:start;" transform="rotate(-0, 169.63082, 545.315158)" x="169.63082" y="545.315158">REACTOME_GLYCOSAMINOGLYCAN_METABOLISM</text>
   </g>
   <g id="text_33">
    <text style="font-family:DejaVu Sans;font-size:12px;font-style:normal;font-weight:normal;text-anchor:start;" transform="rotate(-0, 169.63082, 558.905158)" x="169.63082" y="558.905158">REACTOME_CHONDROITIN_SULFATE_DERMATAN_SULFATE_METABOLISM</text>
   </g>
   <g id="text_34">
    <text style="font-family:DejaVu Sans;font-size:12px;font-style:normal;font-weight:normal;text-anchor:start;" transform="rotate(-0, 169.63082, 572.649986)" x="169.63082" y="572.649986">REACTOME_HS_GAG_BIOSYNTHESIS</text>
   </g>
   <g id="text_35">
    <text style="font-family:DejaVu Sans;font-size:12px;font-style:normal;font-weight:normal;text-anchor:start;" transform="rotate(-0, 192.270984, 572.495158)" x="192.270984" y="572.495158">KEGG_GLYCOSAMINOGLYCAN_BIOSYNTHESIS_HEPARAN_SULFATE</text>
   </g>
   <g id="text_36">
    <text style="font-family:DejaVu Sans;font-size:12px;font-style:normal;font-weight:normal;text-anchor:start;" transform="rotate(-0, 181.102965, 592.880158)" x="181.102965" y="592.880158">REACTOME_HEPARAN_SULFATE_HEPARIN_HS_GAG_METABOLISM</text>
   </g>
   <g id="text_37">
    <text style="font-family:DejaVu Sans;font-size:12px;font-style:normal;font-weight:normal;text-anchor:start;" transform="rotate(-0, 169.63082, 606.470158)" x="169.63082" y="606.470158">KEGG_OXIDATIVE_PHOSPHORYLATION</text>
   </g>
   <g id="text_38">
    <text style="font-family:DejaVu Sans;font-size:12px;font-style:normal;font-weight:normal;text-anchor:start;" transform="rotate(-0, 169.63082, 620.060158)" x="169.63082" y="620.060158">KEGG_CITRATE_CYCLE_TCA_CYCLE</text>
   </g>
   <g id="text_39">
    <text style="font-family:DejaVu Sans;font-size:12px;font-style:normal;font-weight:normal;text-anchor:start;" transform="rotate(-0, 169.63082, 633.650158)" x="169.63082" y="633.650158">REACTOME_PYRUVATE_METABOLISM_AND_CITRIC_ACID_TCA_CYCLE</text>
   </g>
   <g id="text_40">
    <text style="font-family:DejaVu Sans;font-size:12px;font-style:normal;font-weight:normal;text-anchor:start;" transform="rotate(-0, 169.63082, 647.240158)" x="169.63082" y="647.240158">REACTOME_TCA_CYCLE_AND_RESPIRATORY_ELECTRON_TRANSPORT</text>
   </g>
   <g id="text_41">
    <text style="font-family:DejaVu Sans;font-size:12px;font-style:normal;font-weight:normal;text-anchor:start;" transform="rotate(-0, 169.63082, 660.830158)" x="169.63082" y="660.830158">REACTOME_FATTY_ACID_TRIACYLGLYCEROL_AND_KETONE_BODY_METABOLISM</text>
   </g>
   <g id="text_42">
    <text style="font-family:DejaVu Sans;font-size:12px;font-style:normal;font-weight:normal;text-anchor:start;" transform="rotate(-0, 214.911148, 667.517961)" x="214.911148" y="667.517961">REACTOME_SPHINGOLIPID_METABOLISM</text>
   </g>
   <g id="text_43">
    <text style="font-family:DejaVu Sans;font-size:12px;font-style:normal;font-weight:normal;text-anchor:start;" transform="rotate(-0, 199.538092, 668.768077)" x="199.538092" y="668.768077">REACTOME_PHOSPHOLIPID_METABOLISM</text>
   </g>
   <g id="text_44">
    <text style="font-family:DejaVu Sans;font-size:12px;font-style:normal;font-weight:normal;text-anchor:start;" transform="rotate(-0, 184.141676, 675.680246)" x="184.141676" y="675.680246">REACTOME_METABOLISM_OF_LIPIDS_AND_LIPOPROTEINS</text>
   </g>
   <g id="text_45">
    <text style="font-family:DejaVu Sans;font-size:12px;font-style:normal;font-weight:normal;text-anchor:start;" transform="rotate(-0, 171.913736, 701.600158)" x="171.913736" y="701.600158">REACTOME_PPARA_ACTIVATES_GENE_EXPRESSION</text>
   </g>
   <g id="text_46">
    <text style="font-family:DejaVu Sans;font-size:12px;font-style:normal;font-weight:normal;text-anchor:start;" transform="rotate(-0, 179.653961, 715.190158)" x="179.653961" y="715.190158">REACTOME_GLYCOGEN_BREAKDOWN_GLYCOGENOLYSIS</text>
   </g>
   <g id="text_47">
    <text style="font-family:DejaVu Sans;font-size:12px;font-style:normal;font-weight:normal;text-anchor:start;" transform="rotate(-0, 259.995584, 745.182736)" x="259.995584" y="745.182736">KEGG_LYSINE_DEGRADATION</text>
   </g>
   <g id="text_48">
    <text style="font-family:DejaVu Sans;font-size:12px;font-style:normal;font-weight:normal;text-anchor:start;" transform="rotate(-0, 251.398823, 767.707139)" x="251.398823" y="767.707139">KEGG_FATTY_ACID_METABOLISM</text>
   </g>
   <g id="text_49">
    <text style="font-family:DejaVu Sans;font-size:12px;font-style:normal;font-weight:normal;text-anchor:start;" transform="rotate(-0, 187.068059, 737.049257)" x="187.068059" y="737.049257">REACTOME_GLUCOSE_METABOLISM</text>
   </g>
   <g id="text_50">
    <text style="font-family:DejaVu Sans;font-size:12px;font-style:normal;font-weight:normal;text-anchor:start;" transform="rotate(-0, 204.738752, 748.059722)" x="204.738752" y="748.059722">KEGG_GLYCOLYSIS_GLUCONEOGENESIS</text>
   </g>
   <g id="text_51">
    <text style="font-family:DejaVu Sans;font-size:12px;font-style:normal;font-weight:normal;text-anchor:start;" transform="rotate(-0, 250.867778, 784.411039)" x="250.867778" y="784.411039">KEGG_VALINE_LEUCINE_AND_ISOLEUCINE_DEGRADATION</text>
   </g>
   <g id="text_52">
    <text style="font-family:DejaVu Sans;font-size:12px;font-style:normal;font-weight:normal;text-anchor:start;" transform="rotate(-0, 187.003923, 757.637688)" x="187.003923" y="757.637688">REACTOME_GLYCOLYSIS</text>
   </g>
   <g id="text_53">
    <text style="font-family:DejaVu Sans;font-size:12px;font-style:normal;font-weight:normal;text-anchor:start;" transform="rotate(-0, 169.63082, 750.031656)" x="169.63082" y="750.031656">REACTOME_GLUCONEOGENESIS</text>
   </g>
   <g id="text_54">
    <text style="font-family:DejaVu Sans;font-size:12px;font-style:normal;font-weight:normal;text-anchor:start;" transform="rotate(-0, 223.917919, 753.993506)" x="223.917919" y="753.993506">KEGG_PYRUVATE_METABOLISM</text>
   </g>
   <g id="text_55">
    <text style="font-family:DejaVu Sans;font-size:12px;font-style:normal;font-weight:normal;text-anchor:start;" transform="rotate(-0, 262.312169, 764.563432)" x="262.312169" y="764.563432">KEGG_BUTANOATE_METABOLISM</text>
   </g>
   <g id="text_56">
    <text style="font-family:DejaVu Sans;font-size:12px;font-style:normal;font-weight:normal;text-anchor:start;" transform="rotate(-0, 256.34241, 806.354649)" x="256.34241" y="806.354649">REACTOME_BRANCHED_CHAIN_AMINO_ACID_CATABOLISM</text>
   </g>
   <g id="text_57">
    <text style="font-family:DejaVu Sans;font-size:12px;font-style:normal;font-weight:normal;text-anchor:start;" transform="rotate(-0, 244.587602, 758.329963)" x="244.587602" y="758.329963">KEGG_PROPANOATE_METABOLISM</text>
   </g>
   <g id="text_58">
    <text style="font-family:DejaVu Sans;font-size:12px;font-style:normal;font-weight:normal;text-anchor:start;" transform="rotate(-0, 270.880711, 750.103581)" x="270.880711" y="750.103581">KEGG_BETA_ALANINE_METABOLISM</text>
   </g>
   <g id="text_59">
    <text style="font-family:DejaVu Sans;font-size:12px;font-style:normal;font-weight:normal;text-anchor:start;" transform="rotate(-0, 249.123285, 742.057011)" x="249.123285" y="742.057011">KEGG_TRYPTOPHAN_METABOLISM</text>
   </g>
   <g id="text_60">
    <text style="font-family:DejaVu Sans;font-size:12px;font-style:normal;font-weight:normal;text-anchor:middle;" transform="rotate(-0, 608.85, 105.47372)" x="608.85" y="105.47372">Metabolism</text>
   </g>
  </g>
 </g>
 <defs>
  <clipPath id="pcb09c1e6d6">
   <rect height="701.355491" width="920.7" x="148.5" y="111.47372"/>
  </clipPath>
 </defs>
</svg>
