<?xml version="1.0" encoding="utf-8" standalone="no"?>
<!DOCTYPE svg PUBLIC "-//W3C//DTD SVG 1.1//EN"
  "http://www.w3.org/Graphics/SVG/1.1/DTD/svg11.dtd">
<!-- Created with matplotlib (https://matplotlib.org/) -->
<svg height="277.2pt" version="1.1" viewBox="0 0 1188 277.2" width="1188pt" xmlns="http://www.w3.org/2000/svg" xmlns:xlink="http://www.w3.org/1999/xlink">
 <defs>
  <style type="text/css">
*{stroke-linecap:butt;stroke-linejoin:round;}
  </style>
 </defs>
 <g id="figure_1">
  <g id="patch_1">
   <path d="M 0 277.2 
L 1188 277.2 
L 1188 0 
L 0 0 
z
" style="fill:#ffffff;"/>
  </g>
  <g id="axes_1">
   <g id="patch_2">
    <path clip-path="url(#p790d21667b)" d="M 163.593443 47.5335 
C 164.994432 47.5335 166.33823 47.032325 167.328879 46.140353 
C 168.319528 45.248382 168.876148 44.038439 168.876148 42.777 
C 168.876148 41.515561 168.319528 40.305618 167.328879 39.413647 
C 166.33823 38.521675 164.994432 38.0205 163.593443 38.0205 
C 162.192453 38.0205 160.848655 38.521675 159.858006 39.413647 
C 158.867357 40.305618 158.310738 41.515561 158.310738 42.777 
C 158.310738 44.038439 158.867357 45.248382 159.858006 46.140353 
C 160.848655 47.032325 162.192453 47.5335 163.593443 47.5335 
z
" style="fill:#ff0000;"/>
   </g>
   <g id="patch_3">
    <path clip-path="url(#p790d21667b)" d="M 163.593443 61.1235 
C 164.994432 61.1235 166.33823 60.622325 167.328879 59.730353 
C 168.319528 58.838382 168.876148 57.628439 168.876148 56.367 
C 168.876148 55.105561 168.319528 53.895618 167.328879 53.003647 
C 166.33823 52.111675 164.994432 51.6105 163.593443 51.6105 
C 162.192453 51.6105 160.848655 52.111675 159.858006 53.003647 
C 158.867357 53.895618 158.310738 55.105561 158.310738 56.367 
C 158.310738 57.628439 158.867357 58.838382 159.858006 59.730353 
C 160.848655 60.622325 162.192453 61.1235 163.593443 61.1235 
z
" style="fill:#ff0000;"/>
   </g>
   <g id="patch_4">
    <path clip-path="url(#p790d21667b)" d="M 163.593443 74.7135 
C 164.994432 74.7135 166.33823 74.212325 167.328879 73.320353 
C 168.319528 72.428382 168.876148 71.218439 168.876148 69.957 
C 168.876148 68.695561 168.319528 67.485618 167.328879 66.593647 
C 166.33823 65.701675 164.994432 65.2005 163.593443 65.2005 
C 162.192453 65.2005 160.848655 65.701675 159.858006 66.593647 
C 158.867357 67.485618 158.310738 68.695561 158.310738 69.957 
C 158.310738 71.218439 158.867357 72.428382 159.858006 73.320353 
C 160.848655 74.212325 162.192453 74.7135 163.593443 74.7135 
z
" style="fill:#ff0000;"/>
   </g>
   <g id="patch_5">
    <path clip-path="url(#p790d21667b)" d="M 163.593443 88.3035 
C 164.994432 88.3035 166.33823 87.802325 167.328879 86.910353 
C 168.319528 86.018382 168.876148 84.808439 168.876148 83.547 
C 168.876148 82.285561 168.319528 81.075618 167.328879 80.183647 
C 166.33823 79.291675 164.994432 78.7905 163.593443 78.7905 
C 162.192453 78.7905 160.848655 79.291675 159.858006 80.183647 
C 158.867357 81.075618 158.310738 82.285561 158.310738 83.547 
C 158.310738 84.808439 158.867357 86.018382 159.858006 86.910353 
C 160.848655 87.802325 162.192453 88.3035 163.593443 88.3035 
z
" style="fill:#ff0000;"/>
   </g>
   <g id="patch_6">
    <path clip-path="url(#p790d21667b)" d="M 163.593443 101.8935 
C 164.994432 101.8935 166.33823 101.392325 167.328879 100.500353 
C 168.319528 99.608382 168.876148 98.398439 168.876148 97.137 
C 168.876148 95.875561 168.319528 94.665618 167.328879 93.773647 
C 166.33823 92.881675 164.994432 92.3805 163.593443 92.3805 
C 162.192453 92.3805 160.848655 92.881675 159.858006 93.773647 
C 158.867357 94.665618 158.310738 95.875561 158.310738 97.137 
C 158.310738 98.398439 158.867357 99.608382 159.858006 100.500353 
C 160.848655 101.392325 162.192453 101.8935 163.593443 101.8935 
z
" style="fill:#ff0000;"/>
   </g>
   <g id="patch_7">
    <path clip-path="url(#p790d21667b)" d="M 163.593443 115.4835 
C 164.994432 115.4835 166.33823 114.982325 167.328879 114.090353 
C 168.319528 113.198382 168.876148 111.988439 168.876148 110.727 
C 168.876148 109.465561 168.319528 108.255618 167.328879 107.363647 
C 166.33823 106.471675 164.994432 105.9705 163.593443 105.9705 
C 162.192453 105.9705 160.848655 106.471675 159.858006 107.363647 
C 158.867357 108.255618 158.310738 109.465561 158.310738 110.727 
C 158.310738 111.988439 158.867357 113.198382 159.858006 114.090353 
C 160.848655 114.982325 162.192453 115.4835 163.593443 115.4835 
z
" style="fill:#ff0000;"/>
   </g>
   <g id="patch_8">
    <path clip-path="url(#p790d21667b)" d="M 163.593443 129.0735 
C 164.994432 129.0735 166.33823 128.572325 167.328879 127.680353 
C 168.319528 126.788382 168.876148 125.578439 168.876148 124.317 
C 168.876148 123.055561 168.319528 121.845618 167.328879 120.953647 
C 166.33823 120.061675 164.994432 119.5605 163.593443 119.5605 
C 162.192453 119.5605 160.848655 120.061675 159.858006 120.953647 
C 158.867357 121.845618 158.310738 123.055561 158.310738 124.317 
C 158.310738 125.578439 158.867357 126.788382 159.858006 127.680353 
C 160.848655 128.572325 162.192453 129.0735 163.593443 129.0735 
z
" style="fill:#0000ff;"/>
   </g>
   <g id="patch_9">
    <path clip-path="url(#p790d21667b)" d="M 163.593443 142.6635 
C 164.994432 142.6635 166.33823 142.162325 167.328879 141.270353 
C 168.319528 140.378382 168.876148 139.168439 168.876148 137.907 
C 168.876148 136.645561 168.319528 135.435618 167.328879 134.543647 
C 166.33823 133.651675 164.994432 133.1505 163.593443 133.1505 
C 162.192453 133.1505 160.848655 133.651675 159.858006 134.543647 
C 158.867357 135.435618 158.310738 136.645561 158.310738 137.907 
C 158.310738 139.168439 158.867357 140.378382 159.858006 141.270353 
C 160.848655 142.162325 162.192453 142.6635 163.593443 142.6635 
z
" style="fill:#0000ff;"/>
   </g>
   <g id="patch_10">
    <path clip-path="url(#p790d21667b)" d="M 163.593443 156.2535 
C 164.994432 156.2535 166.33823 155.752325 167.328879 154.860353 
C 168.319528 153.968382 168.876148 152.758439 168.876148 151.497 
C 168.876148 150.235561 168.319528 149.025618 167.328879 148.133647 
C 166.33823 147.241675 164.994432 146.7405 163.593443 146.7405 
C 162.192453 146.7405 160.848655 147.241675 159.858006 148.133647 
C 158.867357 149.025618 158.310738 150.235561 158.310738 151.497 
C 158.310738 152.758439 158.867357 153.968382 159.858006 154.860353 
C 160.848655 155.752325 162.192453 156.2535 163.593443 156.2535 
z
" style="fill:#800080;"/>
   </g>
   <g id="patch_11">
    <path clip-path="url(#p790d21667b)" d="M 163.593443 165.087 
L 163.593443 178.677 
" style="fill:#1f77b4;stroke:#000000;stroke-linejoin:miter;"/>
   </g>
   <g id="patch_12">
    <path clip-path="url(#p790d21667b)" d="M 163.593443 169.8435 
C 164.994432 169.8435 166.33823 169.342325 167.328879 168.450353 
C 168.319528 167.558382 168.876148 166.348439 168.876148 165.087 
C 168.876148 163.825561 168.319528 162.615618 167.328879 161.723647 
C 166.33823 160.831675 164.994432 160.3305 163.593443 160.3305 
C 162.192453 160.3305 160.848655 160.831675 159.858006 161.723647 
C 158.867357 162.615618 158.310738 163.825561 158.310738 165.087 
C 158.310738 166.348439 158.867357 167.558382 159.858006 168.450353 
C 160.848655 169.342325 162.192453 169.8435 163.593443 169.8435 
z
" style="fill:#ff0000;"/>
   </g>
   <g id="patch_13">
    <path clip-path="url(#p790d21667b)" d="M 163.593443 183.4335 
C 164.994432 183.4335 166.33823 182.932325 167.328879 182.040353 
C 168.319528 181.148382 168.876148 179.938439 168.876148 178.677 
C 168.876148 177.415561 168.319528 176.205618 167.328879 175.313647 
C 166.33823 174.421675 164.994432 173.9205 163.593443 173.9205 
C 162.192453 173.9205 160.848655 174.421675 159.858006 175.313647 
C 158.867357 176.205618 158.310738 177.415561 158.310738 178.677 
C 158.310738 179.938439 158.867357 181.148382 159.858006 182.040353 
C 160.848655 182.932325 162.192453 183.4335 163.593443 183.4335 
z
" style="fill:#ff0000;"/>
   </g>
   <g id="patch_14">
    <path clip-path="url(#p790d21667b)" d="M 163.593443 192.267 
L 163.593443 205.857 
" style="fill:#1f77b4;stroke:#000000;stroke-linejoin:miter;"/>
   </g>
   <g id="patch_15">
    <path clip-path="url(#p790d21667b)" d="M 163.593443 197.0235 
C 164.994432 197.0235 166.33823 196.522325 167.328879 195.630353 
C 168.319528 194.738382 168.876148 193.528439 168.876148 192.267 
C 168.876148 191.005561 168.319528 189.795618 167.328879 188.903647 
C 166.33823 188.011675 164.994432 187.5105 163.593443 187.5105 
C 162.192453 187.5105 160.848655 188.011675 159.858006 188.903647 
C 158.867357 189.795618 158.310738 191.005561 158.310738 192.267 
C 158.310738 193.528439 158.867357 194.738382 159.858006 195.630353 
C 160.848655 196.522325 162.192453 197.0235 163.593443 197.0235 
z
" style="fill:#ff0000;"/>
   </g>
   <g id="patch_16">
    <path clip-path="url(#p790d21667b)" d="M 163.593443 210.6135 
C 164.994432 210.6135 166.33823 210.112325 167.328879 209.220353 
C 168.319528 208.328382 168.876148 207.118439 168.876148 205.857 
C 168.876148 204.595561 168.319528 203.385618 167.328879 202.493647 
C 166.33823 201.601675 164.994432 201.1005 163.593443 201.1005 
C 162.192453 201.1005 160.848655 201.601675 159.858006 202.493647 
C 158.867357 203.385618 158.310738 204.595561 158.310738 205.857 
C 158.310738 207.118439 158.867357 208.328382 159.858006 209.220353 
C 160.848655 210.112325 162.192453 210.6135 163.593443 210.6135 
z
" style="fill:#ff0000;"/>
   </g>
   <g id="patch_17">
    <path clip-path="url(#p790d21667b)" d="M 163.593443 219.447 
L 163.593443 233.037 
" style="fill:#1f77b4;stroke:#000000;stroke-linejoin:miter;"/>
   </g>
   <g id="patch_18">
    <path clip-path="url(#p790d21667b)" d="M 163.593443 224.2035 
C 164.994432 224.2035 166.33823 223.702325 167.328879 222.810353 
C 168.319528 221.918382 168.876148 220.708439 168.876148 219.447 
C 168.876148 218.185561 168.319528 216.975618 167.328879 216.083647 
C 166.33823 215.191675 164.994432 214.6905 163.593443 214.6905 
C 162.192453 214.6905 160.848655 215.191675 159.858006 216.083647 
C 158.867357 216.975618 158.310738 218.185561 158.310738 219.447 
C 158.310738 220.708439 158.867357 221.918382 159.858006 222.810353 
C 160.848655 223.702325 162.192453 224.2035 163.593443 224.2035 
z
" style="fill:#ff0000;"/>
   </g>
   <g id="patch_19">
    <path clip-path="url(#p790d21667b)" d="M 163.593443 237.7935 
C 164.994432 237.7935 166.33823 237.292325 167.328879 236.400353 
C 168.319528 235.508382 168.876148 234.298439 168.876148 233.037 
C 168.876148 231.775561 168.319528 230.565618 167.328879 229.673647 
C 166.33823 228.781675 164.994432 228.2805 163.593443 228.2805 
C 162.192453 228.2805 160.848655 228.781675 159.858006 229.673647 
C 158.867357 230.565618 158.310738 231.775561 158.310738 233.037 
C 158.310738 234.298439 158.867357 235.508382 159.858006 236.400353 
C 160.848655 237.292325 162.192453 237.7935 163.593443 237.7935 
z
" style="fill:#ff0000;"/>
   </g>
   <g id="text_1">
    <text style="font-family:DejaVu Sans;font-size:12px;font-style:normal;font-weight:normal;text-anchor:start;" transform="rotate(-0, 169.63082, 45.815437)" x="169.63082" y="45.815437">BIOCARTA_P53HYPOXIA_PATHWAY</text>
   </g>
   <g id="text_2">
    <text style="font-family:DejaVu Sans;font-size:12px;font-style:normal;font-weight:normal;text-anchor:start;" transform="rotate(-0, 169.63082, 59.405437)" x="169.63082" y="59.405437">BIOCARTA_MCALPAIN_PATHWAY</text>
   </g>
   <g id="text_3">
    <text style="font-family:DejaVu Sans;font-size:12px;font-style:normal;font-weight:normal;text-anchor:start;" transform="rotate(-0, 169.63082, 72.995437)" x="169.63082" y="72.995437">BIOCARTA_HIF_PATHWAY</text>
   </g>
   <g id="text_4">
    <text style="font-family:DejaVu Sans;font-size:12px;font-style:normal;font-weight:normal;text-anchor:start;" transform="rotate(-0, 169.63082, 86.585437)" x="169.63082" y="86.585437">BIOCARTA_PROTEASOME_PATHWAY</text>
   </g>
   <g id="text_5">
    <text style="font-family:DejaVu Sans;font-size:12px;font-style:normal;font-weight:normal;text-anchor:start;" transform="rotate(-0, 169.63082, 100.175437)" x="169.63082" y="100.175437">KEGG_LYSOSOME</text>
   </g>
   <g id="text_6">
    <text style="font-family:DejaVu Sans;font-size:12px;font-style:normal;font-weight:normal;text-anchor:start;" transform="rotate(-0, 169.63082, 113.765437)" x="169.63082" y="113.765437">REACTOME_TRANSPORT_TO_THE_GOLGI_AND_SUBSEQUENT_MODIFICATION</text>
   </g>
   <g id="text_7">
    <text style="font-family:DejaVu Sans;font-size:12px;font-style:normal;font-weight:normal;text-anchor:start;" transform="rotate(-0, 169.63082, 127.355438)" x="169.63082" y="127.355438">REACTOME_TRANSPORT_OF_GLUCOSE_AND_OTHER_SUGARS_BILE_SALTS_AND_ORGANIC_ACIDS_METAL_IONS_AND_AMINE_COMPOUNDS</text>
   </g>
   <g id="text_8">
    <text style="font-family:DejaVu Sans;font-size:12px;font-style:normal;font-weight:normal;text-anchor:start;" transform="rotate(-0, 169.63082, 140.945438)" x="169.63082" y="140.945438">PID_HIF2PATHWAY</text>
   </g>
   <g id="text_9">
    <text style="font-family:DejaVu Sans;font-size:12px;font-style:normal;font-weight:normal;text-anchor:start;" transform="rotate(-0, 169.63082, 154.4745)" x="169.63082" y="154.4745">PID_HIF1_TFPATHWAY</text>
   </g>
   <g id="text_10">
    <text style="font-family:DejaVu Sans;font-size:12px;font-style:normal;font-weight:normal;text-anchor:start;" transform="rotate(-0, 169.63082, 168.125438)" x="169.63082" y="168.125438">REACTOME_SMOOTH_MUSCLE_CONTRACTION</text>
   </g>
   <g id="text_11">
    <text style="font-family:DejaVu Sans;font-size:12px;font-style:normal;font-weight:normal;text-anchor:start;" transform="rotate(-0, 169.63082, 181.715438)" x="169.63082" y="181.715438">REACTOME_MUSCLE_CONTRACTION</text>
   </g>
   <g id="text_12">
    <text style="font-family:DejaVu Sans;font-size:12px;font-style:normal;font-weight:normal;text-anchor:start;" transform="rotate(-0, 169.63082, 195.2445)" x="169.63082" y="195.2445">PID_HIF1A_PATHWAY</text>
   </g>
   <g id="text_13">
    <text style="font-family:DejaVu Sans;font-size:12px;font-style:normal;font-weight:normal;text-anchor:start;" transform="rotate(-0, 169.63082, 208.895437)" x="169.63082" y="208.895437">REACTOME_REGULATION_OF_HYPOXIA_INDUCIBLE_FACTOR_HIF_BY_OXYGEN</text>
   </g>
   <g id="text_14">
    <text style="font-family:DejaVu Sans;font-size:12px;font-style:normal;font-weight:normal;text-anchor:start;" transform="rotate(-0, 169.63082, 222.485437)" x="169.63082" y="222.485437">REACTOME_DIABETES_PATHWAYS</text>
   </g>
   <g id="text_15">
    <text style="font-family:DejaVu Sans;font-size:12px;font-style:normal;font-weight:normal;text-anchor:start;" transform="rotate(-0, 169.63082, 236.075437)" x="169.63082" y="236.075437">REACTOME_UNFOLDED_PROTEIN_RESPONSE</text>
   </g>
   <g id="text_16">
    <text style="font-family:DejaVu Sans;font-size:12px;font-style:normal;font-weight:normal;text-anchor:middle;" transform="rotate(-0, 608.85, 27.264)" x="608.85" y="27.264">Protein Folding/Other</text>
   </g>
  </g>
 </g>
 <defs>
  <clipPath id="p790d21667b">
   <rect height="209.286" width="920.7" x="148.5" y="33.264"/>
  </clipPath>
 </defs>
</svg>
