<?xml version="1.0" encoding="utf-8" standalone="no"?>
<!DOCTYPE svg PUBLIC "-//W3C//DTD SVG 1.1//EN"
  "http://www.w3.org/Graphics/SVG/1.1/DTD/svg11.dtd">
<!-- Created with matplotlib (https://matplotlib.org/) -->
<svg height="713.249499pt" version="1.1" viewBox="0 0 1320.296993 713.249499" width="1320.296993pt" xmlns="http://www.w3.org/2000/svg" xmlns:xlink="http://www.w3.org/1999/xlink">
 <defs>
  <style type="text/css">
*{stroke-linecap:butt;stroke-linejoin:round;}
  </style>
 </defs>
 <g id="figure_1">
  <g id="patch_1">
   <path d="M 0 713.249499 
L 1320.296993 713.249499 
L 1320.296993 0 
L 0 0 
z
" style="fill:#ffffff;"/>
  </g>
  <g id="axes_1">
   <g id="patch_2">
    <path clip-path="url(#p911a979f06)" d="M 180.007609 99.85944 
C 181.397186 99.85944 182.730036 99.358265 183.712616 98.466293 
C 184.695195 97.574322 185.247279 96.364378 185.247279 95.10294 
C 185.247279 93.841501 184.695195 92.631558 183.712616 91.739586 
C 182.730036 90.847615 181.397186 90.34644 180.007609 90.34644 
C 178.618033 90.34644 177.285182 90.847615 176.302603 91.739586 
C 175.320024 92.631558 174.76794 93.841501 174.76794 95.10294 
C 174.76794 96.364378 175.320024 97.574322 176.302603 98.466293 
C 177.285182 99.358265 178.618033 99.85944 180.007609 99.85944 
z
" style="fill:#7a0177;"/>
   </g>
   <g id="patch_3">
    <path clip-path="url(#p911a979f06)" d="M 180.007609 113.44944 
C 181.397186 113.44944 182.730036 112.948265 183.712616 112.056293 
C 184.695195 111.164322 185.247279 109.954378 185.247279 108.69294 
C 185.247279 107.431501 184.695195 106.221558 183.712616 105.329586 
C 182.730036 104.437615 181.397186 103.93644 180.007609 103.93644 
C 178.618033 103.93644 177.285182 104.437615 176.302603 105.329586 
C 175.320024 106.221558 174.76794 107.431501 174.76794 108.69294 
C 174.76794 109.954378 175.320024 111.164322 176.302603 112.056293 
C 177.285182 112.948265 178.618033 113.44944 180.007609 113.44944 
z
" style="fill:#7a0177;"/>
   </g>
   <g id="patch_4">
    <path clip-path="url(#p911a979f06)" d="M 180.007609 127.03944 
C 181.397186 127.03944 182.730036 126.538265 183.712616 125.646293 
C 184.695195 124.754322 185.247279 123.544378 185.247279 122.28294 
C 185.247279 121.021501 184.695195 119.811558 183.712616 118.919586 
C 182.730036 118.027615 181.397186 117.52644 180.007609 117.52644 
C 178.618033 117.52644 177.285182 118.027615 176.302603 118.919586 
C 175.320024 119.811558 174.76794 121.021501 174.76794 122.28294 
C 174.76794 123.544378 175.320024 124.754322 176.302603 125.646293 
C 177.285182 126.538265 178.618033 127.03944 180.007609 127.03944 
z
" style="fill:#7a0177;"/>
   </g>
   <g id="patch_5">
    <path clip-path="url(#p911a979f06)" d="M 180.007609 140.62944 
C 181.397186 140.62944 182.730036 140.128265 183.712616 139.236293 
C 184.695195 138.344322 185.247279 137.134378 185.247279 135.87294 
C 185.247279 134.611501 184.695195 133.401558 183.712616 132.509586 
C 182.730036 131.617615 181.397186 131.11644 180.007609 131.11644 
C 178.618033 131.11644 177.285182 131.617615 176.302603 132.509586 
C 175.320024 133.401558 174.76794 134.611501 174.76794 135.87294 
C 174.76794 137.134378 175.320024 138.344322 176.302603 139.236293 
C 177.285182 140.128265 178.618033 140.62944 180.007609 140.62944 
z
" style="fill:#7a0177;"/>
   </g>
   <g id="patch_6">
    <path clip-path="url(#p911a979f06)" d="M 180.007609 154.21944 
C 181.397186 154.21944 182.730036 153.718265 183.712616 152.826293 
C 184.695195 151.934322 185.247279 150.724378 185.247279 149.46294 
C 185.247279 148.201501 184.695195 146.991558 183.712616 146.099586 
C 182.730036 145.207615 181.397186 144.70644 180.007609 144.70644 
C 178.618033 144.70644 177.285182 145.207615 176.302603 146.099586 
C 175.320024 146.991558 174.76794 148.201501 174.76794 149.46294 
C 174.76794 150.724378 175.320024 151.934322 176.302603 152.826293 
C 177.285182 153.718265 178.618033 154.21944 180.007609 154.21944 
z
" style="fill:#7a0177;"/>
   </g>
   <g id="patch_7">
    <path clip-path="url(#p911a979f06)" d="M 180.007609 167.80944 
C 181.397186 167.80944 182.730036 167.308265 183.712616 166.416293 
C 184.695195 165.524322 185.247279 164.314378 185.247279 163.05294 
C 185.247279 161.791501 184.695195 160.581558 183.712616 159.689586 
C 182.730036 158.797615 181.397186 158.29644 180.007609 158.29644 
C 178.618033 158.29644 177.285182 158.797615 176.302603 159.689586 
C 175.320024 160.581558 174.76794 161.791501 174.76794 163.05294 
C 174.76794 164.314378 175.320024 165.524322 176.302603 166.416293 
C 177.285182 167.308265 178.618033 167.80944 180.007609 167.80944 
z
" style="fill:#7a0177;"/>
   </g>
   <g id="patch_8">
    <path clip-path="url(#p911a979f06)" d="M 180.007609 181.39944 
C 181.397186 181.39944 182.730036 180.898265 183.712616 180.006293 
C 184.695195 179.114322 185.247279 177.904378 185.247279 176.64294 
C 185.247279 175.381501 184.695195 174.171558 183.712616 173.279586 
C 182.730036 172.387615 181.397186 171.88644 180.007609 171.88644 
C 178.618033 171.88644 177.285182 172.387615 176.302603 173.279586 
C 175.320024 174.171558 174.76794 175.381501 174.76794 176.64294 
C 174.76794 177.904378 175.320024 179.114322 176.302603 180.006293 
C 177.285182 180.898265 178.618033 181.39944 180.007609 181.39944 
z
" style="fill:#7a0177;"/>
   </g>
   <g id="patch_9">
    <path clip-path="url(#p911a979f06)" d="M 180.007609 194.98944 
C 181.397186 194.98944 182.730036 194.488265 183.712616 193.596293 
C 184.695195 192.704322 185.247279 191.494378 185.247279 190.23294 
C 185.247279 188.971501 184.695195 187.761558 183.712616 186.869586 
C 182.730036 185.977615 181.397186 185.47644 180.007609 185.47644 
C 178.618033 185.47644 177.285182 185.977615 176.302603 186.869586 
C 175.320024 187.761558 174.76794 188.971501 174.76794 190.23294 
C 174.76794 191.494378 175.320024 192.704322 176.302603 193.596293 
C 177.285182 194.488265 178.618033 194.98944 180.007609 194.98944 
z
" style="fill:#7a0177;"/>
   </g>
   <g id="patch_10">
    <path clip-path="url(#p911a979f06)" d="M 180.007609 208.57944 
C 181.397186 208.57944 182.730036 208.078265 183.712616 207.186293 
C 184.695195 206.294322 185.247279 205.084378 185.247279 203.82294 
C 185.247279 202.561501 184.695195 201.351558 183.712616 200.459586 
C 182.730036 199.567615 181.397186 199.06644 180.007609 199.06644 
C 178.618033 199.06644 177.285182 199.567615 176.302603 200.459586 
C 175.320024 201.351558 174.76794 202.561501 174.76794 203.82294 
C 174.76794 205.084378 175.320024 206.294322 176.302603 207.186293 
C 177.285182 208.078265 178.618033 208.57944 180.007609 208.57944 
z
" style="fill:#feebe2;"/>
   </g>
   <g id="patch_11">
    <path clip-path="url(#p911a979f06)" d="M 180.007609 222.16944 
C 181.397186 222.16944 182.730036 221.668265 183.712616 220.776293 
C 184.695195 219.884322 185.247279 218.674378 185.247279 217.41294 
C 185.247279 216.151501 184.695195 214.941558 183.712616 214.049586 
C 182.730036 213.157615 181.397186 212.65644 180.007609 212.65644 
C 178.618033 212.65644 177.285182 213.157615 176.302603 214.049586 
C 175.320024 214.941558 174.76794 216.151501 174.76794 217.41294 
C 174.76794 218.674378 175.320024 219.884322 176.302603 220.776293 
C 177.285182 221.668265 178.618033 222.16944 180.007609 222.16944 
z
" style="fill:#feebe2;"/>
   </g>
   <g id="patch_12">
    <path clip-path="url(#p911a979f06)" d="M 180.007609 235.75944 
C 181.397186 235.75944 182.730036 235.258265 183.712616 234.366293 
C 184.695195 233.474322 185.247279 232.264378 185.247279 231.00294 
C 185.247279 229.741501 184.695195 228.531558 183.712616 227.639586 
C 182.730036 226.747615 181.397186 226.24644 180.007609 226.24644 
C 178.618033 226.24644 177.285182 226.747615 176.302603 227.639586 
C 175.320024 228.531558 174.76794 229.741501 174.76794 231.00294 
C 174.76794 232.264378 175.320024 233.474322 176.302603 234.366293 
C 177.285182 235.258265 178.618033 235.75944 180.007609 235.75944 
z
" style="fill:#feebe2;"/>
   </g>
   <g id="patch_13">
    <path clip-path="url(#p911a979f06)" d="M 180.007609 249.34944 
C 181.397186 249.34944 182.730036 248.848265 183.712616 247.956293 
C 184.695195 247.064322 185.247279 245.854378 185.247279 244.59294 
C 185.247279 243.331501 184.695195 242.121558 183.712616 241.229586 
C 182.730036 240.337615 181.397186 239.83644 180.007609 239.83644 
C 178.618033 239.83644 177.285182 240.337615 176.302603 241.229586 
C 175.320024 242.121558 174.76794 243.331501 174.76794 244.59294 
C 174.76794 245.854378 175.320024 247.064322 176.302603 247.956293 
C 177.285182 248.848265 178.618033 249.34944 180.007609 249.34944 
z
" style="fill:#feebe2;"/>
   </g>
   <g id="patch_14">
    <path clip-path="url(#p911a979f06)" d="M 180.007609 262.93944 
C 181.397186 262.93944 182.730036 262.438265 183.712616 261.546293 
C 184.695195 260.654322 185.247279 259.444378 185.247279 258.18294 
C 185.247279 256.921501 184.695195 255.711558 183.712616 254.819586 
C 182.730036 253.927615 181.397186 253.42644 180.007609 253.42644 
C 178.618033 253.42644 177.285182 253.927615 176.302603 254.819586 
C 175.320024 255.711558 174.76794 256.921501 174.76794 258.18294 
C 174.76794 259.444378 175.320024 260.654322 176.302603 261.546293 
C 177.285182 262.438265 178.618033 262.93944 180.007609 262.93944 
z
" style="fill:#feebe2;"/>
   </g>
   <g id="patch_15">
    <path clip-path="url(#p911a979f06)" d="M 180.007609 276.52944 
C 181.397186 276.52944 182.730036 276.028265 183.712616 275.136293 
C 184.695195 274.244322 185.247279 273.034378 185.247279 271.77294 
C 185.247279 270.511501 184.695195 269.301558 183.712616 268.409586 
C 182.730036 267.517615 181.397186 267.01644 180.007609 267.01644 
C 178.618033 267.01644 177.285182 267.517615 176.302603 268.409586 
C 175.320024 269.301558 174.76794 270.511501 174.76794 271.77294 
C 174.76794 273.034378 175.320024 274.244322 176.302603 275.136293 
C 177.285182 276.028265 178.618033 276.52944 180.007609 276.52944 
z
" style="fill:#feebe2;"/>
   </g>
   <g id="patch_16">
    <path clip-path="url(#p911a979f06)" d="M 180.007609 290.11944 
C 181.397186 290.11944 182.730036 289.618265 183.712616 288.726293 
C 184.695195 287.834322 185.247279 286.624378 185.247279 285.36294 
C 185.247279 284.101501 184.695195 282.891558 183.712616 281.999586 
C 182.730036 281.107615 181.397186 280.60644 180.007609 280.60644 
C 178.618033 280.60644 177.285182 281.107615 176.302603 281.999586 
C 175.320024 282.891558 174.76794 284.101501 174.76794 285.36294 
C 174.76794 286.624378 175.320024 287.834322 176.302603 288.726293 
C 177.285182 289.618265 178.618033 290.11944 180.007609 290.11944 
z
" style="fill:#f768a1;"/>
   </g>
   <g id="patch_17">
    <path clip-path="url(#p911a979f06)" d="M 180.007609 298.95294 
L 180.007609 312.54294 
" style="fill:#1f77b4;stroke:#000000;stroke-linejoin:miter;"/>
   </g>
   <g id="patch_18">
    <path clip-path="url(#p911a979f06)" d="M 180.007609 303.70944 
C 181.397186 303.70944 182.730036 303.208265 183.712616 302.316293 
C 184.695195 301.424322 185.247279 300.214378 185.247279 298.95294 
C 185.247279 297.691501 184.695195 296.481558 183.712616 295.589586 
C 182.730036 294.697615 181.397186 294.19644 180.007609 294.19644 
C 178.618033 294.19644 177.285182 294.697615 176.302603 295.589586 
C 175.320024 296.481558 174.76794 297.691501 174.76794 298.95294 
C 174.76794 300.214378 175.320024 301.424322 176.302603 302.316293 
C 177.285182 303.208265 178.618033 303.70944 180.007609 303.70944 
z
" style="fill:#7a0177;"/>
   </g>
   <g id="patch_19">
    <path clip-path="url(#p911a979f06)" d="M 180.007609 317.29944 
C 181.397186 317.29944 182.730036 316.798265 183.712616 315.906293 
C 184.695195 315.014322 185.247279 313.804378 185.247279 312.54294 
C 185.247279 311.281501 184.695195 310.071558 183.712616 309.179586 
C 182.730036 308.287615 181.397186 307.78644 180.007609 307.78644 
C 178.618033 307.78644 177.285182 308.287615 176.302603 309.179586 
C 175.320024 310.071558 174.76794 311.281501 174.76794 312.54294 
C 174.76794 313.804378 175.320024 315.014322 176.302603 315.906293 
C 177.285182 316.798265 178.618033 317.29944 180.007609 317.29944 
z
" style="fill:#7a0177;"/>
   </g>
   <g id="patch_20">
    <path clip-path="url(#p911a979f06)" d="M 180.007609 326.13294 
L 180.007609 339.72294 
" style="fill:#1f77b4;stroke:#000000;stroke-linejoin:miter;"/>
   </g>
   <g id="patch_21">
    <path clip-path="url(#p911a979f06)" d="M 180.007609 330.88944 
C 181.397186 330.88944 182.730036 330.388265 183.712616 329.496293 
C 184.695195 328.604322 185.247279 327.394378 185.247279 326.13294 
C 185.247279 324.871501 184.695195 323.661558 183.712616 322.769586 
C 182.730036 321.877615 181.397186 321.37644 180.007609 321.37644 
C 178.618033 321.37644 177.285182 321.877615 176.302603 322.769586 
C 175.320024 323.661558 174.76794 324.871501 174.76794 326.13294 
C 174.76794 327.394378 175.320024 328.604322 176.302603 329.496293 
C 177.285182 330.388265 178.618033 330.88944 180.007609 330.88944 
z
" style="fill:#7a0177;"/>
   </g>
   <g id="patch_22">
    <path clip-path="url(#p911a979f06)" d="M 180.007609 344.47944 
C 181.397186 344.47944 182.730036 343.978265 183.712616 343.086293 
C 184.695195 342.194322 185.247279 340.984378 185.247279 339.72294 
C 185.247279 338.461501 184.695195 337.251558 183.712616 336.359586 
C 182.730036 335.467615 181.397186 334.96644 180.007609 334.96644 
C 178.618033 334.96644 177.285182 335.467615 176.302603 336.359586 
C 175.320024 337.251558 174.76794 338.461501 174.76794 339.72294 
C 174.76794 340.984378 175.320024 342.194322 176.302603 343.086293 
C 177.285182 343.978265 178.618033 344.47944 180.007609 344.47944 
z
" style="fill:#7a0177;"/>
   </g>
   <g id="patch_23">
    <path clip-path="url(#p911a979f06)" d="M 180.007609 376.718835 
L 224.919065 370.689369 
" style="fill:#1f77b4;stroke:#000000;stroke-linejoin:miter;"/>
   </g>
   <g id="patch_24">
    <path clip-path="url(#p911a979f06)" d="M 180.007609 376.718835 
L 199.110527 353.31294 
" style="fill:#1f77b4;stroke:#000000;stroke-linejoin:miter;"/>
   </g>
   <g id="patch_25">
    <path clip-path="url(#p911a979f06)" d="M 180.007609 376.718835 
L 205.769109 394.08294 
" style="fill:#1f77b4;stroke:#000000;stroke-linejoin:miter;"/>
   </g>
   <g id="patch_26">
    <path clip-path="url(#p911a979f06)" d="M 224.919065 370.689369 
L 199.110527 353.31294 
" style="fill:#1f77b4;stroke:#000000;stroke-linejoin:miter;"/>
   </g>
   <g id="patch_27">
    <path clip-path="url(#p911a979f06)" d="M 224.919065 370.689369 
L 205.769109 394.08294 
" style="fill:#1f77b4;stroke:#000000;stroke-linejoin:miter;"/>
   </g>
   <g id="patch_28">
    <path clip-path="url(#p911a979f06)" d="M 205.769109 394.08294 
L 199.110527 353.31294 
" style="fill:#1f77b4;stroke:#000000;stroke-linejoin:miter;"/>
   </g>
   <g id="patch_29">
    <path clip-path="url(#p911a979f06)" d="M 180.007609 381.475335 
C 181.397186 381.475335 182.730036 380.97416 183.712616 380.082189 
C 184.695195 379.190217 185.247279 377.980274 185.247279 376.718835 
C 185.247279 375.457397 184.695195 374.247454 183.712616 373.355482 
C 182.730036 372.46351 181.397186 371.962335 180.007609 371.962335 
C 178.618033 371.962335 177.285182 372.46351 176.302603 373.355482 
C 175.320024 374.247454 174.76794 375.457397 174.76794 376.718835 
C 174.76794 377.980274 175.320024 379.190217 176.302603 380.082189 
C 177.285182 380.97416 178.618033 381.475335 180.007609 381.475335 
z
" style="fill:#7a0177;"/>
   </g>
   <g id="patch_30">
    <path clip-path="url(#p911a979f06)" d="M 224.919065 375.445869 
C 226.308642 375.445869 227.641492 374.944694 228.624071 374.052722 
C 229.606651 373.160751 230.158735 371.950807 230.158735 370.689369 
C 230.158735 369.42793 229.606651 368.217987 228.624071 367.326015 
C 227.641492 366.434044 226.308642 365.932869 224.919065 365.932869 
C 223.529489 365.932869 222.196638 366.434044 221.214059 367.326015 
C 220.23148 368.217987 219.679396 369.42793 219.679396 370.689369 
C 219.679396 371.950807 220.23148 373.160751 221.214059 374.052722 
C 222.196638 374.944694 223.529489 375.445869 224.919065 375.445869 
z
" style="fill:#7a0177;"/>
   </g>
   <g id="patch_31">
    <path clip-path="url(#p911a979f06)" d="M 205.769109 398.83944 
C 207.158686 398.83944 208.491536 398.338265 209.474115 397.446293 
C 210.456694 396.554322 211.008779 395.344378 211.008779 394.08294 
C 211.008779 392.821501 210.456694 391.611558 209.474115 390.719586 
C 208.491536 389.827615 207.158686 389.32644 205.769109 389.32644 
C 204.379532 389.32644 203.046682 389.827615 202.064103 390.719586 
C 201.081524 391.611558 200.529439 392.821501 200.529439 394.08294 
C 200.529439 395.344378 201.081524 396.554322 202.064103 397.446293 
C 203.046682 398.338265 204.379532 398.83944 205.769109 398.83944 
z
" style="fill:#7a0177;"/>
   </g>
   <g id="patch_32">
    <path clip-path="url(#p911a979f06)" d="M 199.110527 358.06944 
C 200.500104 358.06944 201.832954 357.568265 202.815533 356.676293 
C 203.798112 355.784322 204.350197 354.574378 204.350197 353.31294 
C 204.350197 352.051501 203.798112 350.841558 202.815533 349.949586 
C 201.832954 349.057615 200.500104 348.55644 199.110527 348.55644 
C 197.72095 348.55644 196.3881 349.057615 195.405521 349.949586 
C 194.422942 350.841558 193.870857 352.051501 193.870857 353.31294 
C 193.870857 354.574378 194.422942 355.784322 195.405521 356.676293 
C 196.3881 357.568265 197.72095 358.06944 199.110527 358.06944 
z
" style="fill:#7a0177;"/>
   </g>
   <g id="patch_33">
    <path clip-path="url(#p911a979f06)" d="M 180.007609 431.078835 
L 224.919065 425.049369 
" style="fill:#1f77b4;stroke:#000000;stroke-linejoin:miter;"/>
   </g>
   <g id="patch_34">
    <path clip-path="url(#p911a979f06)" d="M 180.007609 431.078835 
L 205.766111 448.44294 
" style="fill:#1f77b4;stroke:#000000;stroke-linejoin:miter;"/>
   </g>
   <g id="patch_35">
    <path clip-path="url(#p911a979f06)" d="M 180.007609 431.078835 
L 199.11353 407.67294 
" style="fill:#1f77b4;stroke:#000000;stroke-linejoin:miter;"/>
   </g>
   <g id="patch_36">
    <path clip-path="url(#p911a979f06)" d="M 224.919065 425.049369 
L 205.766111 448.44294 
" style="fill:#1f77b4;stroke:#000000;stroke-linejoin:miter;"/>
   </g>
   <g id="patch_37">
    <path clip-path="url(#p911a979f06)" d="M 224.919065 425.049369 
L 199.11353 407.67294 
" style="fill:#1f77b4;stroke:#000000;stroke-linejoin:miter;"/>
   </g>
   <g id="patch_38">
    <path clip-path="url(#p911a979f06)" d="M 205.766111 448.44294 
L 199.11353 407.67294 
" style="fill:#1f77b4;stroke:#000000;stroke-linejoin:miter;"/>
   </g>
   <g id="patch_39">
    <path clip-path="url(#p911a979f06)" d="M 180.007609 435.835335 
C 181.397186 435.835335 182.730036 435.33416 183.712616 434.442189 
C 184.695195 433.550217 185.247279 432.340274 185.247279 431.078835 
C 185.247279 429.817397 184.695195 428.607454 183.712616 427.715482 
C 182.730036 426.82351 181.397186 426.322335 180.007609 426.322335 
C 178.618033 426.322335 177.285182 426.82351 176.302603 427.715482 
C 175.320024 428.607454 174.76794 429.817397 174.76794 431.078835 
C 174.76794 432.340274 175.320024 433.550217 176.302603 434.442189 
C 177.285182 435.33416 178.618033 435.835335 180.007609 435.835335 
z
" style="fill:#feebe2;"/>
   </g>
   <g id="patch_40">
    <path clip-path="url(#p911a979f06)" d="M 224.919065 429.805869 
C 226.308642 429.805869 227.641492 429.304694 228.624071 428.412722 
C 229.606651 427.520751 230.158735 426.310807 230.158735 425.049369 
C 230.158735 423.78793 229.606651 422.577987 228.624071 421.686015 
C 227.641492 420.794044 226.308642 420.292869 224.919065 420.292869 
C 223.529489 420.292869 222.196638 420.794044 221.214059 421.686015 
C 220.23148 422.577987 219.679396 423.78793 219.679396 425.049369 
C 219.679396 426.310807 220.23148 427.520751 221.214059 428.412722 
C 222.196638 429.304694 223.529489 429.805869 224.919065 429.805869 
z
" style="fill:#feebe2;"/>
   </g>
   <g id="patch_41">
    <path clip-path="url(#p911a979f06)" d="M 205.766111 453.19944 
C 207.155688 453.19944 208.488538 452.698265 209.471118 451.806293 
C 210.453697 450.914322 211.005781 449.704378 211.005781 448.44294 
C 211.005781 447.181501 210.453697 445.971558 209.471118 445.079586 
C 208.488538 444.187615 207.155688 443.68644 205.766111 443.68644 
C 204.376535 443.68644 203.043684 444.187615 202.061105 445.079586 
C 201.078526 445.971558 200.526442 447.181501 200.526442 448.44294 
C 200.526442 449.704378 201.078526 450.914322 202.061105 451.806293 
C 203.043684 452.698265 204.376535 453.19944 205.766111 453.19944 
z
" style="fill:#feebe2;"/>
   </g>
   <g id="patch_42">
    <path clip-path="url(#p911a979f06)" d="M 199.11353 412.42944 
C 200.503107 412.42944 201.835957 411.928265 202.818536 411.036293 
C 203.801115 410.144322 204.3532 408.934378 204.3532 407.67294 
C 204.3532 406.411501 203.801115 405.201558 202.818536 404.309586 
C 201.835957 403.417615 200.503107 402.91644 199.11353 402.91644 
C 197.723954 402.91644 196.391103 403.417615 195.408524 404.309586 
C 194.425945 405.201558 193.87386 406.411501 193.87386 407.67294 
C 193.87386 408.934378 194.425945 410.144322 195.408524 411.036293 
C 196.391103 411.928265 197.723954 412.42944 199.11353 412.42944 
z
" style="fill:#feebe2;"/>
   </g>
   <g id="patch_43">
    <path clip-path="url(#p911a979f06)" d="M 180.007609 499.533204 
L 301.915462 505.560339 
" style="fill:#1f77b4;stroke:#000000;stroke-linejoin:miter;"/>
   </g>
   <g id="patch_44">
    <path clip-path="url(#p911a979f06)" d="M 180.007609 499.533204 
L 239.557414 546.008155 
" style="fill:#1f77b4;stroke:#000000;stroke-linejoin:miter;"/>
   </g>
   <g id="patch_45">
    <path clip-path="url(#p911a979f06)" d="M 180.007609 499.533204 
L 242.177606 462.03294 
" style="fill:#1f77b4;stroke:#000000;stroke-linejoin:miter;"/>
   </g>
   <g id="patch_46">
    <path clip-path="url(#p911a979f06)" d="M 180.007609 499.533204 
L 254.651723 507.506511 
" style="fill:#1f77b4;stroke:#000000;stroke-linejoin:miter;"/>
   </g>
   <g id="patch_47">
    <path clip-path="url(#p911a979f06)" d="M 180.007609 499.533204 
L 267.188524 486.09861 
" style="fill:#1f77b4;stroke:#000000;stroke-linejoin:miter;"/>
   </g>
   <g id="patch_48">
    <path clip-path="url(#p911a979f06)" d="M 180.007609 499.533204 
L 180.772354 515.642714 
" style="fill:#1f77b4;stroke:#000000;stroke-linejoin:miter;"/>
   </g>
   <g id="patch_49">
    <path clip-path="url(#p911a979f06)" d="M 180.007609 499.533204 
L 189.761241 531.272111 
" style="fill:#1f77b4;stroke:#000000;stroke-linejoin:miter;"/>
   </g>
   <g id="patch_50">
    <path clip-path="url(#p911a979f06)" d="M 180.007609 499.533204 
L 208.441074 544.37577 
" style="fill:#1f77b4;stroke:#000000;stroke-linejoin:miter;"/>
   </g>
   <g id="patch_51">
    <path clip-path="url(#p911a979f06)" d="M 180.007609 499.533204 
L 268.705477 549.340654 
" style="fill:#1f77b4;stroke:#000000;stroke-linejoin:miter;"/>
   </g>
   <g id="patch_52">
    <path clip-path="url(#p911a979f06)" d="M 180.007609 499.533204 
L 224.24998 522.24427 
" style="fill:#1f77b4;stroke:#000000;stroke-linejoin:miter;"/>
   </g>
   <g id="patch_53">
    <path clip-path="url(#p911a979f06)" d="M 180.007609 499.533204 
L 299.947185 488.344854 
" style="fill:#1f77b4;stroke:#000000;stroke-linejoin:miter;"/>
   </g>
   <g id="patch_54">
    <path clip-path="url(#p911a979f06)" d="M 180.007609 499.533204 
L 288.613917 471.532321 
" style="fill:#1f77b4;stroke:#000000;stroke-linejoin:miter;"/>
   </g>
   <g id="patch_55">
    <path clip-path="url(#p911a979f06)" d="M 180.007609 499.533204 
L 266.799883 463.627601 
" style="fill:#1f77b4;stroke:#000000;stroke-linejoin:miter;"/>
   </g>
   <g id="patch_56">
    <path clip-path="url(#p911a979f06)" d="M 180.007609 499.533204 
L 299.947185 522.029933 
" style="fill:#1f77b4;stroke:#000000;stroke-linejoin:miter;"/>
   </g>
   <g id="patch_57">
    <path clip-path="url(#p911a979f06)" d="M 180.007609 499.533204 
L 229.553047 477.122209 
" style="fill:#1f77b4;stroke:#000000;stroke-linejoin:miter;"/>
   </g>
   <g id="patch_58">
    <path clip-path="url(#p911a979f06)" d="M 180.007609 499.533204 
L 223.247036 498.127159 
" style="fill:#1f77b4;stroke:#000000;stroke-linejoin:miter;"/>
   </g>
   <g id="patch_59">
    <path clip-path="url(#p911a979f06)" d="M 180.007609 499.533204 
L 186.90285 483.560869 
" style="fill:#1f77b4;stroke:#000000;stroke-linejoin:miter;"/>
   </g>
   <g id="patch_60">
    <path clip-path="url(#p911a979f06)" d="M 180.007609 499.533204 
L 288.60138 535.361646 
" style="fill:#1f77b4;stroke:#000000;stroke-linejoin:miter;"/>
   </g>
   <g id="patch_61">
    <path clip-path="url(#p911a979f06)" d="M 180.007609 499.533204 
L 258.976919 529.608862 
" style="fill:#1f77b4;stroke:#000000;stroke-linejoin:miter;"/>
   </g>
   <g id="patch_62">
    <path clip-path="url(#p911a979f06)" d="M 180.007609 499.533204 
L 203.388743 468.00006 
" style="fill:#1f77b4;stroke:#000000;stroke-linejoin:miter;"/>
   </g>
   <g id="patch_63">
    <path clip-path="url(#p911a979f06)" d="M 301.915462 505.560339 
L 239.557414 546.008155 
" style="fill:#1f77b4;stroke:#000000;stroke-linejoin:miter;"/>
   </g>
   <g id="patch_64">
    <path clip-path="url(#p911a979f06)" d="M 301.915462 505.560339 
L 242.177606 462.03294 
" style="fill:#1f77b4;stroke:#000000;stroke-linejoin:miter;"/>
   </g>
   <g id="patch_65">
    <path clip-path="url(#p911a979f06)" d="M 301.915462 505.560339 
L 254.651723 507.506511 
" style="fill:#1f77b4;stroke:#000000;stroke-linejoin:miter;"/>
   </g>
   <g id="patch_66">
    <path clip-path="url(#p911a979f06)" d="M 301.915462 505.560339 
L 267.188524 486.09861 
" style="fill:#1f77b4;stroke:#000000;stroke-linejoin:miter;"/>
   </g>
   <g id="patch_67">
    <path clip-path="url(#p911a979f06)" d="M 301.915462 505.560339 
L 180.772354 515.642714 
" style="fill:#1f77b4;stroke:#000000;stroke-linejoin:miter;"/>
   </g>
   <g id="patch_68">
    <path clip-path="url(#p911a979f06)" d="M 301.915462 505.560339 
L 189.761241 531.272111 
" style="fill:#1f77b4;stroke:#000000;stroke-linejoin:miter;"/>
   </g>
   <g id="patch_69">
    <path clip-path="url(#p911a979f06)" d="M 301.915462 505.560339 
L 208.441074 544.37577 
" style="fill:#1f77b4;stroke:#000000;stroke-linejoin:miter;"/>
   </g>
   <g id="patch_70">
    <path clip-path="url(#p911a979f06)" d="M 301.915462 505.560339 
L 268.705477 549.340654 
" style="fill:#1f77b4;stroke:#000000;stroke-linejoin:miter;"/>
   </g>
   <g id="patch_71">
    <path clip-path="url(#p911a979f06)" d="M 301.915462 505.560339 
L 224.24998 522.24427 
" style="fill:#1f77b4;stroke:#000000;stroke-linejoin:miter;"/>
   </g>
   <g id="patch_72">
    <path clip-path="url(#p911a979f06)" d="M 301.915462 505.560339 
L 299.947185 488.344854 
" style="fill:#1f77b4;stroke:#000000;stroke-linejoin:miter;"/>
   </g>
   <g id="patch_73">
    <path clip-path="url(#p911a979f06)" d="M 301.915462 505.560339 
L 288.613917 471.532321 
" style="fill:#1f77b4;stroke:#000000;stroke-linejoin:miter;"/>
   </g>
   <g id="patch_74">
    <path clip-path="url(#p911a979f06)" d="M 301.915462 505.560339 
L 266.799883 463.627601 
" style="fill:#1f77b4;stroke:#000000;stroke-linejoin:miter;"/>
   </g>
   <g id="patch_75">
    <path clip-path="url(#p911a979f06)" d="M 301.915462 505.560339 
L 299.947185 522.029933 
" style="fill:#1f77b4;stroke:#000000;stroke-linejoin:miter;"/>
   </g>
   <g id="patch_76">
    <path clip-path="url(#p911a979f06)" d="M 301.915462 505.560339 
L 229.553047 477.122209 
" style="fill:#1f77b4;stroke:#000000;stroke-linejoin:miter;"/>
   </g>
   <g id="patch_77">
    <path clip-path="url(#p911a979f06)" d="M 301.915462 505.560339 
L 223.247036 498.127159 
" style="fill:#1f77b4;stroke:#000000;stroke-linejoin:miter;"/>
   </g>
   <g id="patch_78">
    <path clip-path="url(#p911a979f06)" d="M 301.915462 505.560339 
L 186.90285 483.560869 
" style="fill:#1f77b4;stroke:#000000;stroke-linejoin:miter;"/>
   </g>
   <g id="patch_79">
    <path clip-path="url(#p911a979f06)" d="M 301.915462 505.560339 
L 288.60138 535.361646 
" style="fill:#1f77b4;stroke:#000000;stroke-linejoin:miter;"/>
   </g>
   <g id="patch_80">
    <path clip-path="url(#p911a979f06)" d="M 301.915462 505.560339 
L 258.976919 529.608862 
" style="fill:#1f77b4;stroke:#000000;stroke-linejoin:miter;"/>
   </g>
   <g id="patch_81">
    <path clip-path="url(#p911a979f06)" d="M 301.915462 505.560339 
L 203.388743 468.00006 
" style="fill:#1f77b4;stroke:#000000;stroke-linejoin:miter;"/>
   </g>
   <g id="patch_82">
    <path clip-path="url(#p911a979f06)" d="M 239.557414 546.008155 
L 242.177606 462.03294 
" style="fill:#1f77b4;stroke:#000000;stroke-linejoin:miter;"/>
   </g>
   <g id="patch_83">
    <path clip-path="url(#p911a979f06)" d="M 239.557414 546.008155 
L 254.651723 507.506511 
" style="fill:#1f77b4;stroke:#000000;stroke-linejoin:miter;"/>
   </g>
   <g id="patch_84">
    <path clip-path="url(#p911a979f06)" d="M 239.557414 546.008155 
L 267.188524 486.09861 
" style="fill:#1f77b4;stroke:#000000;stroke-linejoin:miter;"/>
   </g>
   <g id="patch_85">
    <path clip-path="url(#p911a979f06)" d="M 239.557414 546.008155 
L 180.772354 515.642714 
" style="fill:#1f77b4;stroke:#000000;stroke-linejoin:miter;"/>
   </g>
   <g id="patch_86">
    <path clip-path="url(#p911a979f06)" d="M 239.557414 546.008155 
L 189.761241 531.272111 
" style="fill:#1f77b4;stroke:#000000;stroke-linejoin:miter;"/>
   </g>
   <g id="patch_87">
    <path clip-path="url(#p911a979f06)" d="M 239.557414 546.008155 
L 208.441074 544.37577 
" style="fill:#1f77b4;stroke:#000000;stroke-linejoin:miter;"/>
   </g>
   <g id="patch_88">
    <path clip-path="url(#p911a979f06)" d="M 239.557414 546.008155 
L 268.705477 549.340654 
" style="fill:#1f77b4;stroke:#000000;stroke-linejoin:miter;"/>
   </g>
   <g id="patch_89">
    <path clip-path="url(#p911a979f06)" d="M 239.557414 546.008155 
L 224.24998 522.24427 
" style="fill:#1f77b4;stroke:#000000;stroke-linejoin:miter;"/>
   </g>
   <g id="patch_90">
    <path clip-path="url(#p911a979f06)" d="M 239.557414 546.008155 
L 299.947185 488.344854 
" style="fill:#1f77b4;stroke:#000000;stroke-linejoin:miter;"/>
   </g>
   <g id="patch_91">
    <path clip-path="url(#p911a979f06)" d="M 239.557414 546.008155 
L 288.613917 471.532321 
" style="fill:#1f77b4;stroke:#000000;stroke-linejoin:miter;"/>
   </g>
   <g id="patch_92">
    <path clip-path="url(#p911a979f06)" d="M 239.557414 546.008155 
L 266.799883 463.627601 
" style="fill:#1f77b4;stroke:#000000;stroke-linejoin:miter;"/>
   </g>
   <g id="patch_93">
    <path clip-path="url(#p911a979f06)" d="M 239.557414 546.008155 
L 348.05089 503.665606 
" style="fill:#1f77b4;stroke:#000000;stroke-linejoin:miter;"/>
   </g>
   <g id="patch_94">
    <path clip-path="url(#p911a979f06)" d="M 239.557414 546.008155 
L 299.947185 522.029933 
" style="fill:#1f77b4;stroke:#000000;stroke-linejoin:miter;"/>
   </g>
   <g id="patch_95">
    <path clip-path="url(#p911a979f06)" d="M 239.557414 546.008155 
L 229.553047 477.122209 
" style="fill:#1f77b4;stroke:#000000;stroke-linejoin:miter;"/>
   </g>
   <g id="patch_96">
    <path clip-path="url(#p911a979f06)" d="M 239.557414 546.008155 
L 223.247036 498.127159 
" style="fill:#1f77b4;stroke:#000000;stroke-linejoin:miter;"/>
   </g>
   <g id="patch_97">
    <path clip-path="url(#p911a979f06)" d="M 239.557414 546.008155 
L 186.90285 483.560869 
" style="fill:#1f77b4;stroke:#000000;stroke-linejoin:miter;"/>
   </g>
   <g id="patch_98">
    <path clip-path="url(#p911a979f06)" d="M 239.557414 546.008155 
L 288.60138 535.361646 
" style="fill:#1f77b4;stroke:#000000;stroke-linejoin:miter;"/>
   </g>
   <g id="patch_99">
    <path clip-path="url(#p911a979f06)" d="M 239.557414 546.008155 
L 258.976919 529.608862 
" style="fill:#1f77b4;stroke:#000000;stroke-linejoin:miter;"/>
   </g>
   <g id="patch_100">
    <path clip-path="url(#p911a979f06)" d="M 239.557414 546.008155 
L 203.388743 468.00006 
" style="fill:#1f77b4;stroke:#000000;stroke-linejoin:miter;"/>
   </g>
   <g id="patch_101">
    <path clip-path="url(#p911a979f06)" d="M 242.177606 462.03294 
L 254.651723 507.506511 
" style="fill:#1f77b4;stroke:#000000;stroke-linejoin:miter;"/>
   </g>
   <g id="patch_102">
    <path clip-path="url(#p911a979f06)" d="M 242.177606 462.03294 
L 267.188524 486.09861 
" style="fill:#1f77b4;stroke:#000000;stroke-linejoin:miter;"/>
   </g>
   <g id="patch_103">
    <path clip-path="url(#p911a979f06)" d="M 242.177606 462.03294 
L 180.772354 515.642714 
" style="fill:#1f77b4;stroke:#000000;stroke-linejoin:miter;"/>
   </g>
   <g id="patch_104">
    <path clip-path="url(#p911a979f06)" d="M 242.177606 462.03294 
L 189.761241 531.272111 
" style="fill:#1f77b4;stroke:#000000;stroke-linejoin:miter;"/>
   </g>
   <g id="patch_105">
    <path clip-path="url(#p911a979f06)" d="M 242.177606 462.03294 
L 208.441074 544.37577 
" style="fill:#1f77b4;stroke:#000000;stroke-linejoin:miter;"/>
   </g>
   <g id="patch_106">
    <path clip-path="url(#p911a979f06)" d="M 242.177606 462.03294 
L 268.705477 549.340654 
" style="fill:#1f77b4;stroke:#000000;stroke-linejoin:miter;"/>
   </g>
   <g id="patch_107">
    <path clip-path="url(#p911a979f06)" d="M 242.177606 462.03294 
L 224.24998 522.24427 
" style="fill:#1f77b4;stroke:#000000;stroke-linejoin:miter;"/>
   </g>
   <g id="patch_108">
    <path clip-path="url(#p911a979f06)" d="M 242.177606 462.03294 
L 299.947185 488.344854 
" style="fill:#1f77b4;stroke:#000000;stroke-linejoin:miter;"/>
   </g>
   <g id="patch_109">
    <path clip-path="url(#p911a979f06)" d="M 242.177606 462.03294 
L 288.613917 471.532321 
" style="fill:#1f77b4;stroke:#000000;stroke-linejoin:miter;"/>
   </g>
   <g id="patch_110">
    <path clip-path="url(#p911a979f06)" d="M 242.177606 462.03294 
L 266.799883 463.627601 
" style="fill:#1f77b4;stroke:#000000;stroke-linejoin:miter;"/>
   </g>
   <g id="patch_111">
    <path clip-path="url(#p911a979f06)" d="M 242.177606 462.03294 
L 348.05089 503.665606 
" style="fill:#1f77b4;stroke:#000000;stroke-linejoin:miter;"/>
   </g>
   <g id="patch_112">
    <path clip-path="url(#p911a979f06)" d="M 242.177606 462.03294 
L 299.947185 522.029933 
" style="fill:#1f77b4;stroke:#000000;stroke-linejoin:miter;"/>
   </g>
   <g id="patch_113">
    <path clip-path="url(#p911a979f06)" d="M 242.177606 462.03294 
L 229.553047 477.122209 
" style="fill:#1f77b4;stroke:#000000;stroke-linejoin:miter;"/>
   </g>
   <g id="patch_114">
    <path clip-path="url(#p911a979f06)" d="M 242.177606 462.03294 
L 223.247036 498.127159 
" style="fill:#1f77b4;stroke:#000000;stroke-linejoin:miter;"/>
   </g>
   <g id="patch_115">
    <path clip-path="url(#p911a979f06)" d="M 242.177606 462.03294 
L 186.90285 483.560869 
" style="fill:#1f77b4;stroke:#000000;stroke-linejoin:miter;"/>
   </g>
   <g id="patch_116">
    <path clip-path="url(#p911a979f06)" d="M 242.177606 462.03294 
L 288.60138 535.361646 
" style="fill:#1f77b4;stroke:#000000;stroke-linejoin:miter;"/>
   </g>
   <g id="patch_117">
    <path clip-path="url(#p911a979f06)" d="M 242.177606 462.03294 
L 258.976919 529.608862 
" style="fill:#1f77b4;stroke:#000000;stroke-linejoin:miter;"/>
   </g>
   <g id="patch_118">
    <path clip-path="url(#p911a979f06)" d="M 242.177606 462.03294 
L 203.388743 468.00006 
" style="fill:#1f77b4;stroke:#000000;stroke-linejoin:miter;"/>
   </g>
   <g id="patch_119">
    <path clip-path="url(#p911a979f06)" d="M 254.651723 507.506511 
L 267.188524 486.09861 
" style="fill:#1f77b4;stroke:#000000;stroke-linejoin:miter;"/>
   </g>
   <g id="patch_120">
    <path clip-path="url(#p911a979f06)" d="M 254.651723 507.506511 
L 180.772354 515.642714 
" style="fill:#1f77b4;stroke:#000000;stroke-linejoin:miter;"/>
   </g>
   <g id="patch_121">
    <path clip-path="url(#p911a979f06)" d="M 254.651723 507.506511 
L 189.761241 531.272111 
" style="fill:#1f77b4;stroke:#000000;stroke-linejoin:miter;"/>
   </g>
   <g id="patch_122">
    <path clip-path="url(#p911a979f06)" d="M 254.651723 507.506511 
L 208.441074 544.37577 
" style="fill:#1f77b4;stroke:#000000;stroke-linejoin:miter;"/>
   </g>
   <g id="patch_123">
    <path clip-path="url(#p911a979f06)" d="M 254.651723 507.506511 
L 268.705477 549.340654 
" style="fill:#1f77b4;stroke:#000000;stroke-linejoin:miter;"/>
   </g>
   <g id="patch_124">
    <path clip-path="url(#p911a979f06)" d="M 254.651723 507.506511 
L 224.24998 522.24427 
" style="fill:#1f77b4;stroke:#000000;stroke-linejoin:miter;"/>
   </g>
   <g id="patch_125">
    <path clip-path="url(#p911a979f06)" d="M 254.651723 507.506511 
L 299.947185 488.344854 
" style="fill:#1f77b4;stroke:#000000;stroke-linejoin:miter;"/>
   </g>
   <g id="patch_126">
    <path clip-path="url(#p911a979f06)" d="M 254.651723 507.506511 
L 288.613917 471.532321 
" style="fill:#1f77b4;stroke:#000000;stroke-linejoin:miter;"/>
   </g>
   <g id="patch_127">
    <path clip-path="url(#p911a979f06)" d="M 254.651723 507.506511 
L 266.799883 463.627601 
" style="fill:#1f77b4;stroke:#000000;stroke-linejoin:miter;"/>
   </g>
   <g id="patch_128">
    <path clip-path="url(#p911a979f06)" d="M 254.651723 507.506511 
L 299.947185 522.029933 
" style="fill:#1f77b4;stroke:#000000;stroke-linejoin:miter;"/>
   </g>
   <g id="patch_129">
    <path clip-path="url(#p911a979f06)" d="M 254.651723 507.506511 
L 229.553047 477.122209 
" style="fill:#1f77b4;stroke:#000000;stroke-linejoin:miter;"/>
   </g>
   <g id="patch_130">
    <path clip-path="url(#p911a979f06)" d="M 254.651723 507.506511 
L 223.247036 498.127159 
" style="fill:#1f77b4;stroke:#000000;stroke-linejoin:miter;"/>
   </g>
   <g id="patch_131">
    <path clip-path="url(#p911a979f06)" d="M 254.651723 507.506511 
L 186.90285 483.560869 
" style="fill:#1f77b4;stroke:#000000;stroke-linejoin:miter;"/>
   </g>
   <g id="patch_132">
    <path clip-path="url(#p911a979f06)" d="M 254.651723 507.506511 
L 288.60138 535.361646 
" style="fill:#1f77b4;stroke:#000000;stroke-linejoin:miter;"/>
   </g>
   <g id="patch_133">
    <path clip-path="url(#p911a979f06)" d="M 254.651723 507.506511 
L 258.976919 529.608862 
" style="fill:#1f77b4;stroke:#000000;stroke-linejoin:miter;"/>
   </g>
   <g id="patch_134">
    <path clip-path="url(#p911a979f06)" d="M 254.651723 507.506511 
L 203.388743 468.00006 
" style="fill:#1f77b4;stroke:#000000;stroke-linejoin:miter;"/>
   </g>
   <g id="patch_135">
    <path clip-path="url(#p911a979f06)" d="M 267.188524 486.09861 
L 180.772354 515.642714 
" style="fill:#1f77b4;stroke:#000000;stroke-linejoin:miter;"/>
   </g>
   <g id="patch_136">
    <path clip-path="url(#p911a979f06)" d="M 267.188524 486.09861 
L 189.761241 531.272111 
" style="fill:#1f77b4;stroke:#000000;stroke-linejoin:miter;"/>
   </g>
   <g id="patch_137">
    <path clip-path="url(#p911a979f06)" d="M 267.188524 486.09861 
L 208.441074 544.37577 
" style="fill:#1f77b4;stroke:#000000;stroke-linejoin:miter;"/>
   </g>
   <g id="patch_138">
    <path clip-path="url(#p911a979f06)" d="M 267.188524 486.09861 
L 268.705477 549.340654 
" style="fill:#1f77b4;stroke:#000000;stroke-linejoin:miter;"/>
   </g>
   <g id="patch_139">
    <path clip-path="url(#p911a979f06)" d="M 267.188524 486.09861 
L 224.24998 522.24427 
" style="fill:#1f77b4;stroke:#000000;stroke-linejoin:miter;"/>
   </g>
   <g id="patch_140">
    <path clip-path="url(#p911a979f06)" d="M 267.188524 486.09861 
L 299.947185 488.344854 
" style="fill:#1f77b4;stroke:#000000;stroke-linejoin:miter;"/>
   </g>
   <g id="patch_141">
    <path clip-path="url(#p911a979f06)" d="M 267.188524 486.09861 
L 288.613917 471.532321 
" style="fill:#1f77b4;stroke:#000000;stroke-linejoin:miter;"/>
   </g>
   <g id="patch_142">
    <path clip-path="url(#p911a979f06)" d="M 267.188524 486.09861 
L 266.799883 463.627601 
" style="fill:#1f77b4;stroke:#000000;stroke-linejoin:miter;"/>
   </g>
   <g id="patch_143">
    <path clip-path="url(#p911a979f06)" d="M 267.188524 486.09861 
L 348.05089 503.665606 
" style="fill:#1f77b4;stroke:#000000;stroke-linejoin:miter;"/>
   </g>
   <g id="patch_144">
    <path clip-path="url(#p911a979f06)" d="M 267.188524 486.09861 
L 299.947185 522.029933 
" style="fill:#1f77b4;stroke:#000000;stroke-linejoin:miter;"/>
   </g>
   <g id="patch_145">
    <path clip-path="url(#p911a979f06)" d="M 267.188524 486.09861 
L 229.553047 477.122209 
" style="fill:#1f77b4;stroke:#000000;stroke-linejoin:miter;"/>
   </g>
   <g id="patch_146">
    <path clip-path="url(#p911a979f06)" d="M 267.188524 486.09861 
L 223.247036 498.127159 
" style="fill:#1f77b4;stroke:#000000;stroke-linejoin:miter;"/>
   </g>
   <g id="patch_147">
    <path clip-path="url(#p911a979f06)" d="M 267.188524 486.09861 
L 186.90285 483.560869 
" style="fill:#1f77b4;stroke:#000000;stroke-linejoin:miter;"/>
   </g>
   <g id="patch_148">
    <path clip-path="url(#p911a979f06)" d="M 267.188524 486.09861 
L 288.60138 535.361646 
" style="fill:#1f77b4;stroke:#000000;stroke-linejoin:miter;"/>
   </g>
   <g id="patch_149">
    <path clip-path="url(#p911a979f06)" d="M 267.188524 486.09861 
L 258.976919 529.608862 
" style="fill:#1f77b4;stroke:#000000;stroke-linejoin:miter;"/>
   </g>
   <g id="patch_150">
    <path clip-path="url(#p911a979f06)" d="M 267.188524 486.09861 
L 203.388743 468.00006 
" style="fill:#1f77b4;stroke:#000000;stroke-linejoin:miter;"/>
   </g>
   <g id="patch_151">
    <path clip-path="url(#p911a979f06)" d="M 180.772354 515.642714 
L 189.761241 531.272111 
" style="fill:#1f77b4;stroke:#000000;stroke-linejoin:miter;"/>
   </g>
   <g id="patch_152">
    <path clip-path="url(#p911a979f06)" d="M 180.772354 515.642714 
L 208.441074 544.37577 
" style="fill:#1f77b4;stroke:#000000;stroke-linejoin:miter;"/>
   </g>
   <g id="patch_153">
    <path clip-path="url(#p911a979f06)" d="M 180.772354 515.642714 
L 268.705477 549.340654 
" style="fill:#1f77b4;stroke:#000000;stroke-linejoin:miter;"/>
   </g>
   <g id="patch_154">
    <path clip-path="url(#p911a979f06)" d="M 180.772354 515.642714 
L 224.24998 522.24427 
" style="fill:#1f77b4;stroke:#000000;stroke-linejoin:miter;"/>
   </g>
   <g id="patch_155">
    <path clip-path="url(#p911a979f06)" d="M 180.772354 515.642714 
L 299.947185 488.344854 
" style="fill:#1f77b4;stroke:#000000;stroke-linejoin:miter;"/>
   </g>
   <g id="patch_156">
    <path clip-path="url(#p911a979f06)" d="M 180.772354 515.642714 
L 288.613917 471.532321 
" style="fill:#1f77b4;stroke:#000000;stroke-linejoin:miter;"/>
   </g>
   <g id="patch_157">
    <path clip-path="url(#p911a979f06)" d="M 180.772354 515.642714 
L 266.799883 463.627601 
" style="fill:#1f77b4;stroke:#000000;stroke-linejoin:miter;"/>
   </g>
   <g id="patch_158">
    <path clip-path="url(#p911a979f06)" d="M 180.772354 515.642714 
L 299.947185 522.029933 
" style="fill:#1f77b4;stroke:#000000;stroke-linejoin:miter;"/>
   </g>
   <g id="patch_159">
    <path clip-path="url(#p911a979f06)" d="M 180.772354 515.642714 
L 229.553047 477.122209 
" style="fill:#1f77b4;stroke:#000000;stroke-linejoin:miter;"/>
   </g>
   <g id="patch_160">
    <path clip-path="url(#p911a979f06)" d="M 180.772354 515.642714 
L 223.247036 498.127159 
" style="fill:#1f77b4;stroke:#000000;stroke-linejoin:miter;"/>
   </g>
   <g id="patch_161">
    <path clip-path="url(#p911a979f06)" d="M 180.772354 515.642714 
L 186.90285 483.560869 
" style="fill:#1f77b4;stroke:#000000;stroke-linejoin:miter;"/>
   </g>
   <g id="patch_162">
    <path clip-path="url(#p911a979f06)" d="M 180.772354 515.642714 
L 288.60138 535.361646 
" style="fill:#1f77b4;stroke:#000000;stroke-linejoin:miter;"/>
   </g>
   <g id="patch_163">
    <path clip-path="url(#p911a979f06)" d="M 180.772354 515.642714 
L 258.976919 529.608862 
" style="fill:#1f77b4;stroke:#000000;stroke-linejoin:miter;"/>
   </g>
   <g id="patch_164">
    <path clip-path="url(#p911a979f06)" d="M 180.772354 515.642714 
L 203.388743 468.00006 
" style="fill:#1f77b4;stroke:#000000;stroke-linejoin:miter;"/>
   </g>
   <g id="patch_165">
    <path clip-path="url(#p911a979f06)" d="M 300.498804 614.580312 
L 268.705477 549.340654 
" style="fill:#1f77b4;stroke:#000000;stroke-linejoin:miter;"/>
   </g>
   <g id="patch_166">
    <path clip-path="url(#p911a979f06)" d="M 189.761241 531.272111 
L 208.441074 544.37577 
" style="fill:#1f77b4;stroke:#000000;stroke-linejoin:miter;"/>
   </g>
   <g id="patch_167">
    <path clip-path="url(#p911a979f06)" d="M 189.761241 531.272111 
L 268.705477 549.340654 
" style="fill:#1f77b4;stroke:#000000;stroke-linejoin:miter;"/>
   </g>
   <g id="patch_168">
    <path clip-path="url(#p911a979f06)" d="M 189.761241 531.272111 
L 224.24998 522.24427 
" style="fill:#1f77b4;stroke:#000000;stroke-linejoin:miter;"/>
   </g>
   <g id="patch_169">
    <path clip-path="url(#p911a979f06)" d="M 189.761241 531.272111 
L 299.947185 488.344854 
" style="fill:#1f77b4;stroke:#000000;stroke-linejoin:miter;"/>
   </g>
   <g id="patch_170">
    <path clip-path="url(#p911a979f06)" d="M 189.761241 531.272111 
L 288.613917 471.532321 
" style="fill:#1f77b4;stroke:#000000;stroke-linejoin:miter;"/>
   </g>
   <g id="patch_171">
    <path clip-path="url(#p911a979f06)" d="M 189.761241 531.272111 
L 266.799883 463.627601 
" style="fill:#1f77b4;stroke:#000000;stroke-linejoin:miter;"/>
   </g>
   <g id="patch_172">
    <path clip-path="url(#p911a979f06)" d="M 189.761241 531.272111 
L 299.947185 522.029933 
" style="fill:#1f77b4;stroke:#000000;stroke-linejoin:miter;"/>
   </g>
   <g id="patch_173">
    <path clip-path="url(#p911a979f06)" d="M 189.761241 531.272111 
L 229.553047 477.122209 
" style="fill:#1f77b4;stroke:#000000;stroke-linejoin:miter;"/>
   </g>
   <g id="patch_174">
    <path clip-path="url(#p911a979f06)" d="M 189.761241 531.272111 
L 223.247036 498.127159 
" style="fill:#1f77b4;stroke:#000000;stroke-linejoin:miter;"/>
   </g>
   <g id="patch_175">
    <path clip-path="url(#p911a979f06)" d="M 189.761241 531.272111 
L 186.90285 483.560869 
" style="fill:#1f77b4;stroke:#000000;stroke-linejoin:miter;"/>
   </g>
   <g id="patch_176">
    <path clip-path="url(#p911a979f06)" d="M 189.761241 531.272111 
L 288.60138 535.361646 
" style="fill:#1f77b4;stroke:#000000;stroke-linejoin:miter;"/>
   </g>
   <g id="patch_177">
    <path clip-path="url(#p911a979f06)" d="M 189.761241 531.272111 
L 258.976919 529.608862 
" style="fill:#1f77b4;stroke:#000000;stroke-linejoin:miter;"/>
   </g>
   <g id="patch_178">
    <path clip-path="url(#p911a979f06)" d="M 189.761241 531.272111 
L 203.388743 468.00006 
" style="fill:#1f77b4;stroke:#000000;stroke-linejoin:miter;"/>
   </g>
   <g id="patch_179">
    <path clip-path="url(#p911a979f06)" d="M 208.441074 544.37577 
L 268.705477 549.340654 
" style="fill:#1f77b4;stroke:#000000;stroke-linejoin:miter;"/>
   </g>
   <g id="patch_180">
    <path clip-path="url(#p911a979f06)" d="M 208.441074 544.37577 
L 224.24998 522.24427 
" style="fill:#1f77b4;stroke:#000000;stroke-linejoin:miter;"/>
   </g>
   <g id="patch_181">
    <path clip-path="url(#p911a979f06)" d="M 208.441074 544.37577 
L 299.947185 488.344854 
" style="fill:#1f77b4;stroke:#000000;stroke-linejoin:miter;"/>
   </g>
   <g id="patch_182">
    <path clip-path="url(#p911a979f06)" d="M 208.441074 544.37577 
L 288.613917 471.532321 
" style="fill:#1f77b4;stroke:#000000;stroke-linejoin:miter;"/>
   </g>
   <g id="patch_183">
    <path clip-path="url(#p911a979f06)" d="M 208.441074 544.37577 
L 266.799883 463.627601 
" style="fill:#1f77b4;stroke:#000000;stroke-linejoin:miter;"/>
   </g>
   <g id="patch_184">
    <path clip-path="url(#p911a979f06)" d="M 208.441074 544.37577 
L 299.947185 522.029933 
" style="fill:#1f77b4;stroke:#000000;stroke-linejoin:miter;"/>
   </g>
   <g id="patch_185">
    <path clip-path="url(#p911a979f06)" d="M 208.441074 544.37577 
L 229.553047 477.122209 
" style="fill:#1f77b4;stroke:#000000;stroke-linejoin:miter;"/>
   </g>
   <g id="patch_186">
    <path clip-path="url(#p911a979f06)" d="M 208.441074 544.37577 
L 223.247036 498.127159 
" style="fill:#1f77b4;stroke:#000000;stroke-linejoin:miter;"/>
   </g>
   <g id="patch_187">
    <path clip-path="url(#p911a979f06)" d="M 208.441074 544.37577 
L 186.90285 483.560869 
" style="fill:#1f77b4;stroke:#000000;stroke-linejoin:miter;"/>
   </g>
   <g id="patch_188">
    <path clip-path="url(#p911a979f06)" d="M 208.441074 544.37577 
L 288.60138 535.361646 
" style="fill:#1f77b4;stroke:#000000;stroke-linejoin:miter;"/>
   </g>
   <g id="patch_189">
    <path clip-path="url(#p911a979f06)" d="M 208.441074 544.37577 
L 258.976919 529.608862 
" style="fill:#1f77b4;stroke:#000000;stroke-linejoin:miter;"/>
   </g>
   <g id="patch_190">
    <path clip-path="url(#p911a979f06)" d="M 208.441074 544.37577 
L 203.388743 468.00006 
" style="fill:#1f77b4;stroke:#000000;stroke-linejoin:miter;"/>
   </g>
   <g id="patch_191">
    <path clip-path="url(#p911a979f06)" d="M 268.705477 549.340654 
L 224.24998 522.24427 
" style="fill:#1f77b4;stroke:#000000;stroke-linejoin:miter;"/>
   </g>
   <g id="patch_192">
    <path clip-path="url(#p911a979f06)" d="M 268.705477 549.340654 
L 299.947185 488.344854 
" style="fill:#1f77b4;stroke:#000000;stroke-linejoin:miter;"/>
   </g>
   <g id="patch_193">
    <path clip-path="url(#p911a979f06)" d="M 268.705477 549.340654 
L 288.613917 471.532321 
" style="fill:#1f77b4;stroke:#000000;stroke-linejoin:miter;"/>
   </g>
   <g id="patch_194">
    <path clip-path="url(#p911a979f06)" d="M 268.705477 549.340654 
L 266.799883 463.627601 
" style="fill:#1f77b4;stroke:#000000;stroke-linejoin:miter;"/>
   </g>
   <g id="patch_195">
    <path clip-path="url(#p911a979f06)" d="M 268.705477 549.340654 
L 348.05089 503.665606 
" style="fill:#1f77b4;stroke:#000000;stroke-linejoin:miter;"/>
   </g>
   <g id="patch_196">
    <path clip-path="url(#p911a979f06)" d="M 268.705477 549.340654 
L 299.947185 522.029933 
" style="fill:#1f77b4;stroke:#000000;stroke-linejoin:miter;"/>
   </g>
   <g id="patch_197">
    <path clip-path="url(#p911a979f06)" d="M 268.705477 549.340654 
L 229.553047 477.122209 
" style="fill:#1f77b4;stroke:#000000;stroke-linejoin:miter;"/>
   </g>
   <g id="patch_198">
    <path clip-path="url(#p911a979f06)" d="M 268.705477 549.340654 
L 223.247036 498.127159 
" style="fill:#1f77b4;stroke:#000000;stroke-linejoin:miter;"/>
   </g>
   <g id="patch_199">
    <path clip-path="url(#p911a979f06)" d="M 268.705477 549.340654 
L 186.90285 483.560869 
" style="fill:#1f77b4;stroke:#000000;stroke-linejoin:miter;"/>
   </g>
   <g id="patch_200">
    <path clip-path="url(#p911a979f06)" d="M 268.705477 549.340654 
L 288.60138 535.361646 
" style="fill:#1f77b4;stroke:#000000;stroke-linejoin:miter;"/>
   </g>
   <g id="patch_201">
    <path clip-path="url(#p911a979f06)" d="M 268.705477 549.340654 
L 258.976919 529.608862 
" style="fill:#1f77b4;stroke:#000000;stroke-linejoin:miter;"/>
   </g>
   <g id="patch_202">
    <path clip-path="url(#p911a979f06)" d="M 268.705477 549.340654 
L 203.388743 468.00006 
" style="fill:#1f77b4;stroke:#000000;stroke-linejoin:miter;"/>
   </g>
   <g id="patch_203">
    <path clip-path="url(#p911a979f06)" d="M 224.24998 522.24427 
L 299.947185 488.344854 
" style="fill:#1f77b4;stroke:#000000;stroke-linejoin:miter;"/>
   </g>
   <g id="patch_204">
    <path clip-path="url(#p911a979f06)" d="M 224.24998 522.24427 
L 288.613917 471.532321 
" style="fill:#1f77b4;stroke:#000000;stroke-linejoin:miter;"/>
   </g>
   <g id="patch_205">
    <path clip-path="url(#p911a979f06)" d="M 224.24998 522.24427 
L 266.799883 463.627601 
" style="fill:#1f77b4;stroke:#000000;stroke-linejoin:miter;"/>
   </g>
   <g id="patch_206">
    <path clip-path="url(#p911a979f06)" d="M 224.24998 522.24427 
L 348.05089 503.665606 
" style="fill:#1f77b4;stroke:#000000;stroke-linejoin:miter;"/>
   </g>
   <g id="patch_207">
    <path clip-path="url(#p911a979f06)" d="M 224.24998 522.24427 
L 299.947185 522.029933 
" style="fill:#1f77b4;stroke:#000000;stroke-linejoin:miter;"/>
   </g>
   <g id="patch_208">
    <path clip-path="url(#p911a979f06)" d="M 224.24998 522.24427 
L 229.553047 477.122209 
" style="fill:#1f77b4;stroke:#000000;stroke-linejoin:miter;"/>
   </g>
   <g id="patch_209">
    <path clip-path="url(#p911a979f06)" d="M 224.24998 522.24427 
L 223.247036 498.127159 
" style="fill:#1f77b4;stroke:#000000;stroke-linejoin:miter;"/>
   </g>
   <g id="patch_210">
    <path clip-path="url(#p911a979f06)" d="M 224.24998 522.24427 
L 186.90285 483.560869 
" style="fill:#1f77b4;stroke:#000000;stroke-linejoin:miter;"/>
   </g>
   <g id="patch_211">
    <path clip-path="url(#p911a979f06)" d="M 224.24998 522.24427 
L 288.60138 535.361646 
" style="fill:#1f77b4;stroke:#000000;stroke-linejoin:miter;"/>
   </g>
   <g id="patch_212">
    <path clip-path="url(#p911a979f06)" d="M 224.24998 522.24427 
L 258.976919 529.608862 
" style="fill:#1f77b4;stroke:#000000;stroke-linejoin:miter;"/>
   </g>
   <g id="patch_213">
    <path clip-path="url(#p911a979f06)" d="M 224.24998 522.24427 
L 203.388743 468.00006 
" style="fill:#1f77b4;stroke:#000000;stroke-linejoin:miter;"/>
   </g>
   <g id="patch_214">
    <path clip-path="url(#p911a979f06)" d="M 299.947185 488.344854 
L 288.613917 471.532321 
" style="fill:#1f77b4;stroke:#000000;stroke-linejoin:miter;"/>
   </g>
   <g id="patch_215">
    <path clip-path="url(#p911a979f06)" d="M 299.947185 488.344854 
L 266.799883 463.627601 
" style="fill:#1f77b4;stroke:#000000;stroke-linejoin:miter;"/>
   </g>
   <g id="patch_216">
    <path clip-path="url(#p911a979f06)" d="M 299.947185 488.344854 
L 348.05089 503.665606 
" style="fill:#1f77b4;stroke:#000000;stroke-linejoin:miter;"/>
   </g>
   <g id="patch_217">
    <path clip-path="url(#p911a979f06)" d="M 299.947185 488.344854 
L 299.947185 522.029933 
" style="fill:#1f77b4;stroke:#000000;stroke-linejoin:miter;"/>
   </g>
   <g id="patch_218">
    <path clip-path="url(#p911a979f06)" d="M 299.947185 488.344854 
L 229.553047 477.122209 
" style="fill:#1f77b4;stroke:#000000;stroke-linejoin:miter;"/>
   </g>
   <g id="patch_219">
    <path clip-path="url(#p911a979f06)" d="M 299.947185 488.344854 
L 223.247036 498.127159 
" style="fill:#1f77b4;stroke:#000000;stroke-linejoin:miter;"/>
   </g>
   <g id="patch_220">
    <path clip-path="url(#p911a979f06)" d="M 299.947185 488.344854 
L 186.90285 483.560869 
" style="fill:#1f77b4;stroke:#000000;stroke-linejoin:miter;"/>
   </g>
   <g id="patch_221">
    <path clip-path="url(#p911a979f06)" d="M 299.947185 488.344854 
L 288.60138 535.361646 
" style="fill:#1f77b4;stroke:#000000;stroke-linejoin:miter;"/>
   </g>
   <g id="patch_222">
    <path clip-path="url(#p911a979f06)" d="M 299.947185 488.344854 
L 258.976919 529.608862 
" style="fill:#1f77b4;stroke:#000000;stroke-linejoin:miter;"/>
   </g>
   <g id="patch_223">
    <path clip-path="url(#p911a979f06)" d="M 299.947185 488.344854 
L 203.388743 468.00006 
" style="fill:#1f77b4;stroke:#000000;stroke-linejoin:miter;"/>
   </g>
   <g id="patch_224">
    <path clip-path="url(#p911a979f06)" d="M 288.613917 471.532321 
L 266.799883 463.627601 
" style="fill:#1f77b4;stroke:#000000;stroke-linejoin:miter;"/>
   </g>
   <g id="patch_225">
    <path clip-path="url(#p911a979f06)" d="M 288.613917 471.532321 
L 299.947185 522.029933 
" style="fill:#1f77b4;stroke:#000000;stroke-linejoin:miter;"/>
   </g>
   <g id="patch_226">
    <path clip-path="url(#p911a979f06)" d="M 288.613917 471.532321 
L 229.553047 477.122209 
" style="fill:#1f77b4;stroke:#000000;stroke-linejoin:miter;"/>
   </g>
   <g id="patch_227">
    <path clip-path="url(#p911a979f06)" d="M 288.613917 471.532321 
L 223.247036 498.127159 
" style="fill:#1f77b4;stroke:#000000;stroke-linejoin:miter;"/>
   </g>
   <g id="patch_228">
    <path clip-path="url(#p911a979f06)" d="M 288.613917 471.532321 
L 186.90285 483.560869 
" style="fill:#1f77b4;stroke:#000000;stroke-linejoin:miter;"/>
   </g>
   <g id="patch_229">
    <path clip-path="url(#p911a979f06)" d="M 288.613917 471.532321 
L 288.60138 535.361646 
" style="fill:#1f77b4;stroke:#000000;stroke-linejoin:miter;"/>
   </g>
   <g id="patch_230">
    <path clip-path="url(#p911a979f06)" d="M 288.613917 471.532321 
L 258.976919 529.608862 
" style="fill:#1f77b4;stroke:#000000;stroke-linejoin:miter;"/>
   </g>
   <g id="patch_231">
    <path clip-path="url(#p911a979f06)" d="M 288.613917 471.532321 
L 203.388743 468.00006 
" style="fill:#1f77b4;stroke:#000000;stroke-linejoin:miter;"/>
   </g>
   <g id="patch_232">
    <path clip-path="url(#p911a979f06)" d="M 266.799883 463.627601 
L 348.05089 503.665606 
" style="fill:#1f77b4;stroke:#000000;stroke-linejoin:miter;"/>
   </g>
   <g id="patch_233">
    <path clip-path="url(#p911a979f06)" d="M 266.799883 463.627601 
L 299.947185 522.029933 
" style="fill:#1f77b4;stroke:#000000;stroke-linejoin:miter;"/>
   </g>
   <g id="patch_234">
    <path clip-path="url(#p911a979f06)" d="M 266.799883 463.627601 
L 229.553047 477.122209 
" style="fill:#1f77b4;stroke:#000000;stroke-linejoin:miter;"/>
   </g>
   <g id="patch_235">
    <path clip-path="url(#p911a979f06)" d="M 266.799883 463.627601 
L 223.247036 498.127159 
" style="fill:#1f77b4;stroke:#000000;stroke-linejoin:miter;"/>
   </g>
   <g id="patch_236">
    <path clip-path="url(#p911a979f06)" d="M 266.799883 463.627601 
L 186.90285 483.560869 
" style="fill:#1f77b4;stroke:#000000;stroke-linejoin:miter;"/>
   </g>
   <g id="patch_237">
    <path clip-path="url(#p911a979f06)" d="M 266.799883 463.627601 
L 288.60138 535.361646 
" style="fill:#1f77b4;stroke:#000000;stroke-linejoin:miter;"/>
   </g>
   <g id="patch_238">
    <path clip-path="url(#p911a979f06)" d="M 266.799883 463.627601 
L 258.976919 529.608862 
" style="fill:#1f77b4;stroke:#000000;stroke-linejoin:miter;"/>
   </g>
   <g id="patch_239">
    <path clip-path="url(#p911a979f06)" d="M 266.799883 463.627601 
L 203.388743 468.00006 
" style="fill:#1f77b4;stroke:#000000;stroke-linejoin:miter;"/>
   </g>
   <g id="patch_240">
    <path clip-path="url(#p911a979f06)" d="M 348.05089 503.665606 
L 299.947185 522.029933 
" style="fill:#1f77b4;stroke:#000000;stroke-linejoin:miter;"/>
   </g>
   <g id="patch_241">
    <path clip-path="url(#p911a979f06)" d="M 348.05089 503.665606 
L 229.553047 477.122209 
" style="fill:#1f77b4;stroke:#000000;stroke-linejoin:miter;"/>
   </g>
   <g id="patch_242">
    <path clip-path="url(#p911a979f06)" d="M 348.05089 503.665606 
L 223.247036 498.127159 
" style="fill:#1f77b4;stroke:#000000;stroke-linejoin:miter;"/>
   </g>
   <g id="patch_243">
    <path clip-path="url(#p911a979f06)" d="M 348.05089 503.665606 
L 288.60138 535.361646 
" style="fill:#1f77b4;stroke:#000000;stroke-linejoin:miter;"/>
   </g>
   <g id="patch_244">
    <path clip-path="url(#p911a979f06)" d="M 348.05089 503.665606 
L 258.976919 529.608862 
" style="fill:#1f77b4;stroke:#000000;stroke-linejoin:miter;"/>
   </g>
   <g id="patch_245">
    <path clip-path="url(#p911a979f06)" d="M 299.947185 522.029933 
L 229.553047 477.122209 
" style="fill:#1f77b4;stroke:#000000;stroke-linejoin:miter;"/>
   </g>
   <g id="patch_246">
    <path clip-path="url(#p911a979f06)" d="M 299.947185 522.029933 
L 223.247036 498.127159 
" style="fill:#1f77b4;stroke:#000000;stroke-linejoin:miter;"/>
   </g>
   <g id="patch_247">
    <path clip-path="url(#p911a979f06)" d="M 299.947185 522.029933 
L 186.90285 483.560869 
" style="fill:#1f77b4;stroke:#000000;stroke-linejoin:miter;"/>
   </g>
   <g id="patch_248">
    <path clip-path="url(#p911a979f06)" d="M 299.947185 522.029933 
L 288.60138 535.361646 
" style="fill:#1f77b4;stroke:#000000;stroke-linejoin:miter;"/>
   </g>
   <g id="patch_249">
    <path clip-path="url(#p911a979f06)" d="M 299.947185 522.029933 
L 258.976919 529.608862 
" style="fill:#1f77b4;stroke:#000000;stroke-linejoin:miter;"/>
   </g>
   <g id="patch_250">
    <path clip-path="url(#p911a979f06)" d="M 299.947185 522.029933 
L 203.388743 468.00006 
" style="fill:#1f77b4;stroke:#000000;stroke-linejoin:miter;"/>
   </g>
   <g id="patch_251">
    <path clip-path="url(#p911a979f06)" d="M 229.553047 477.122209 
L 223.247036 498.127159 
" style="fill:#1f77b4;stroke:#000000;stroke-linejoin:miter;"/>
   </g>
   <g id="patch_252">
    <path clip-path="url(#p911a979f06)" d="M 229.553047 477.122209 
L 186.90285 483.560869 
" style="fill:#1f77b4;stroke:#000000;stroke-linejoin:miter;"/>
   </g>
   <g id="patch_253">
    <path clip-path="url(#p911a979f06)" d="M 229.553047 477.122209 
L 288.60138 535.361646 
" style="fill:#1f77b4;stroke:#000000;stroke-linejoin:miter;"/>
   </g>
   <g id="patch_254">
    <path clip-path="url(#p911a979f06)" d="M 229.553047 477.122209 
L 258.976919 529.608862 
" style="fill:#1f77b4;stroke:#000000;stroke-linejoin:miter;"/>
   </g>
   <g id="patch_255">
    <path clip-path="url(#p911a979f06)" d="M 229.553047 477.122209 
L 203.388743 468.00006 
" style="fill:#1f77b4;stroke:#000000;stroke-linejoin:miter;"/>
   </g>
   <g id="patch_256">
    <path clip-path="url(#p911a979f06)" d="M 223.247036 498.127159 
L 186.90285 483.560869 
" style="fill:#1f77b4;stroke:#000000;stroke-linejoin:miter;"/>
   </g>
   <g id="patch_257">
    <path clip-path="url(#p911a979f06)" d="M 223.247036 498.127159 
L 288.60138 535.361646 
" style="fill:#1f77b4;stroke:#000000;stroke-linejoin:miter;"/>
   </g>
   <g id="patch_258">
    <path clip-path="url(#p911a979f06)" d="M 223.247036 498.127159 
L 258.976919 529.608862 
" style="fill:#1f77b4;stroke:#000000;stroke-linejoin:miter;"/>
   </g>
   <g id="patch_259">
    <path clip-path="url(#p911a979f06)" d="M 223.247036 498.127159 
L 203.388743 468.00006 
" style="fill:#1f77b4;stroke:#000000;stroke-linejoin:miter;"/>
   </g>
   <g id="patch_260">
    <path clip-path="url(#p911a979f06)" d="M 186.90285 483.560869 
L 288.60138 535.361646 
" style="fill:#1f77b4;stroke:#000000;stroke-linejoin:miter;"/>
   </g>
   <g id="patch_261">
    <path clip-path="url(#p911a979f06)" d="M 186.90285 483.560869 
L 258.976919 529.608862 
" style="fill:#1f77b4;stroke:#000000;stroke-linejoin:miter;"/>
   </g>
   <g id="patch_262">
    <path clip-path="url(#p911a979f06)" d="M 186.90285 483.560869 
L 203.388743 468.00006 
" style="fill:#1f77b4;stroke:#000000;stroke-linejoin:miter;"/>
   </g>
   <g id="patch_263">
    <path clip-path="url(#p911a979f06)" d="M 288.60138 535.361646 
L 258.976919 529.608862 
" style="fill:#1f77b4;stroke:#000000;stroke-linejoin:miter;"/>
   </g>
   <g id="patch_264">
    <path clip-path="url(#p911a979f06)" d="M 288.60138 535.361646 
L 203.388743 468.00006 
" style="fill:#1f77b4;stroke:#000000;stroke-linejoin:miter;"/>
   </g>
   <g id="patch_265">
    <path clip-path="url(#p911a979f06)" d="M 258.976919 529.608862 
L 203.388743 468.00006 
" style="fill:#1f77b4;stroke:#000000;stroke-linejoin:miter;"/>
   </g>
   <g id="patch_266">
    <path clip-path="url(#p911a979f06)" d="M 180.007609 504.289704 
C 181.397186 504.289704 182.730036 503.788529 183.712616 502.896558 
C 184.695195 502.004586 185.247279 500.794643 185.247279 499.533204 
C 185.247279 498.271766 184.695195 497.061823 183.712616 496.169851 
C 182.730036 495.277879 181.397186 494.776704 180.007609 494.776704 
C 178.618033 494.776704 177.285182 495.277879 176.302603 496.169851 
C 175.320024 497.061823 174.76794 498.271766 174.76794 499.533204 
C 174.76794 500.794643 175.320024 502.004586 176.302603 502.896558 
C 177.285182 503.788529 178.618033 504.289704 180.007609 504.289704 
z
" style="fill:#7a0177;"/>
   </g>
   <g id="patch_267">
    <path clip-path="url(#p911a979f06)" d="M 301.915462 510.316839 
C 303.305039 510.316839 304.637889 509.815664 305.620469 508.923692 
C 306.603048 508.03172 307.155132 506.821777 307.155132 505.560339 
C 307.155132 504.2989 306.603048 503.088957 305.620469 502.196985 
C 304.637889 501.305013 303.305039 500.803839 301.915462 500.803839 
C 300.525886 500.803839 299.193036 501.305013 298.210456 502.196985 
C 297.227877 503.088957 296.675793 504.2989 296.675793 505.560339 
C 296.675793 506.821777 297.227877 508.03172 298.210456 508.923692 
C 299.193036 509.815664 300.525886 510.316839 301.915462 510.316839 
z
" style="fill:#7a0177;"/>
   </g>
   <g id="patch_268">
    <path clip-path="url(#p911a979f06)" d="M 239.557414 550.764655 
C 240.946991 550.764655 242.279841 550.26348 243.26242 549.371508 
C 244.244999 548.479536 244.797084 547.269593 244.797084 546.008155 
C 244.797084 544.746716 244.244999 543.536773 243.26242 542.644801 
C 242.279841 541.752829 240.946991 541.251655 239.557414 541.251655 
C 238.167838 541.251655 236.834987 541.752829 235.852408 542.644801 
C 234.869829 543.536773 234.317744 544.746716 234.317744 546.008155 
C 234.317744 547.269593 234.869829 548.479536 235.852408 549.371508 
C 236.834987 550.26348 238.167838 550.764655 239.557414 550.764655 
z
" style="fill:#7a0177;"/>
   </g>
   <g id="patch_269">
    <path clip-path="url(#p911a979f06)" d="M 242.177606 466.78944 
C 243.567182 466.78944 244.900033 466.288265 245.882612 465.396293 
C 246.865191 464.504322 247.417276 463.294378 247.417276 462.03294 
C 247.417276 460.771501 246.865191 459.561558 245.882612 458.669586 
C 244.900033 457.777615 243.567182 457.27644 242.177606 457.27644 
C 240.788029 457.27644 239.455179 457.777615 238.4726 458.669586 
C 237.49002 459.561558 236.937936 460.771501 236.937936 462.03294 
C 236.937936 463.294378 237.49002 464.504322 238.4726 465.396293 
C 239.455179 466.288265 240.788029 466.78944 242.177606 466.78944 
z
" style="fill:#7a0177;"/>
   </g>
   <g id="patch_270">
    <path clip-path="url(#p911a979f06)" d="M 254.651723 512.263011 
C 256.041299 512.263011 257.37415 511.761837 258.356729 510.869865 
C 259.339308 509.977893 259.891393 508.76795 259.891393 507.506511 
C 259.891393 506.245073 259.339308 505.03513 258.356729 504.143158 
C 257.37415 503.251186 256.041299 502.750011 254.651723 502.750011 
C 253.262146 502.750011 251.929296 503.251186 250.946717 504.143158 
C 249.964138 505.03513 249.412053 506.245073 249.412053 507.506511 
C 249.412053 508.76795 249.964138 509.977893 250.946717 510.869865 
C 251.929296 511.761837 253.262146 512.263011 254.651723 512.263011 
z
" style="fill:#7a0177;"/>
   </g>
   <g id="patch_271">
    <path clip-path="url(#p911a979f06)" d="M 267.188524 490.85511 
C 268.5781 490.85511 269.910951 490.353935 270.89353 489.461964 
C 271.876109 488.569992 272.428194 487.360049 272.428194 486.09861 
C 272.428194 484.837172 271.876109 483.627229 270.89353 482.735257 
C 269.910951 481.843285 268.5781 481.34211 267.188524 481.34211 
C 265.798947 481.34211 264.466097 481.843285 263.483518 482.735257 
C 262.500939 483.627229 261.948854 484.837172 261.948854 486.09861 
C 261.948854 487.360049 262.500939 488.569992 263.483518 489.461964 
C 264.466097 490.353935 265.798947 490.85511 267.188524 490.85511 
z
" style="fill:#7a0177;"/>
   </g>
   <g id="patch_272">
    <path clip-path="url(#p911a979f06)" d="M 180.772354 520.399214 
C 182.161931 520.399214 183.494781 519.898039 184.47736 519.006068 
C 185.45994 518.114096 186.012024 516.904153 186.012024 515.642714 
C 186.012024 514.381276 185.45994 513.171333 184.47736 512.279361 
C 183.494781 511.387389 182.161931 510.886214 180.772354 510.886214 
C 179.382778 510.886214 178.049927 511.387389 177.067348 512.279361 
C 176.084769 513.171333 175.532684 514.381276 175.532684 515.642714 
C 175.532684 516.904153 176.084769 518.114096 177.067348 519.006068 
C 178.049927 519.898039 179.382778 520.399214 180.772354 520.399214 
z
" style="fill:#7a0177;"/>
   </g>
   <g id="patch_273">
    <path clip-path="url(#p911a979f06)" d="M 300.498804 619.336812 
C 301.888381 619.336812 303.221231 618.835637 304.20381 617.943665 
C 305.186389 617.051693 305.738474 615.84175 305.738474 614.580312 
C 305.738474 613.318873 305.186389 612.10893 304.20381 611.216958 
C 303.221231 610.324986 301.888381 609.823812 300.498804 609.823812 
C 299.109227 609.823812 297.776377 610.324986 296.793798 611.216958 
C 295.811219 612.10893 295.259134 613.318873 295.259134 614.580312 
C 295.259134 615.84175 295.811219 617.051693 296.793798 617.943665 
C 297.776377 618.835637 299.109227 619.336812 300.498804 619.336812 
z
" style="fill:#7a0177;"/>
   </g>
   <g id="patch_274">
    <path clip-path="url(#p911a979f06)" d="M 189.761241 536.028611 
C 191.150817 536.028611 192.483668 535.527436 193.466247 534.635464 
C 194.448826 533.743493 195.000911 532.53355 195.000911 531.272111 
C 195.000911 530.010673 194.448826 528.800729 193.466247 527.908758 
C 192.483668 527.016786 191.150817 526.515611 189.761241 526.515611 
C 188.371664 526.515611 187.038814 527.016786 186.056235 527.908758 
C 185.073655 528.800729 184.521571 530.010673 184.521571 531.272111 
C 184.521571 532.53355 185.073655 533.743493 186.056235 534.635464 
C 187.038814 535.527436 188.371664 536.028611 189.761241 536.028611 
z
" style="fill:#7a0177;"/>
   </g>
   <g id="patch_275">
    <path clip-path="url(#p911a979f06)" d="M 208.441074 549.13227 
C 209.830651 549.13227 211.163501 548.631095 212.14608 547.739123 
C 213.128659 546.847152 213.680744 545.637209 213.680744 544.37577 
C 213.680744 543.114331 213.128659 541.904388 212.14608 541.012417 
C 211.163501 540.120445 209.830651 539.61927 208.441074 539.61927 
C 207.051497 539.61927 205.718647 540.120445 204.736068 541.012417 
C 203.753489 541.904388 203.201404 543.114331 203.201404 544.37577 
C 203.201404 545.637209 203.753489 546.847152 204.736068 547.739123 
C 205.718647 548.631095 207.051497 549.13227 208.441074 549.13227 
z
" style="fill:#7a0177;"/>
   </g>
   <g id="patch_276">
    <path clip-path="url(#p911a979f06)" d="M 268.705477 554.097154 
C 270.095053 554.097154 271.427904 553.595979 272.410483 552.704007 
C 273.393062 551.812036 273.945146 550.602093 273.945146 549.340654 
C 273.945146 548.079216 273.393062 546.869272 272.410483 545.977301 
C 271.427904 545.085329 270.095053 544.584154 268.705477 544.584154 
C 267.3159 544.584154 265.98305 545.085329 265.000471 545.977301 
C 264.017891 546.869272 263.465807 548.079216 263.465807 549.340654 
C 263.465807 550.602093 264.017891 551.812036 265.000471 552.704007 
C 265.98305 553.595979 267.3159 554.097154 268.705477 554.097154 
z
" style="fill:#7a0177;"/>
   </g>
   <g id="patch_277">
    <path clip-path="url(#p911a979f06)" d="M 224.24998 527.00077 
C 225.639557 527.00077 226.972407 526.499595 227.954986 525.607623 
C 228.937565 524.715651 229.48965 523.505708 229.48965 522.24427 
C 229.48965 520.982831 228.937565 519.772888 227.954986 518.880916 
C 226.972407 517.988945 225.639557 517.48777 224.24998 517.48777 
C 222.860404 517.48777 221.527553 517.988945 220.544974 518.880916 
C 219.562395 519.772888 219.01031 520.982831 219.01031 522.24427 
C 219.01031 523.505708 219.562395 524.715651 220.544974 525.607623 
C 221.527553 526.499595 222.860404 527.00077 224.24998 527.00077 
z
" style="fill:#7a0177;"/>
   </g>
   <g id="patch_278">
    <path clip-path="url(#p911a979f06)" d="M 299.947185 493.101354 
C 301.336761 493.101354 302.669612 492.600179 303.652191 491.708207 
C 304.63477 490.816235 305.186855 489.606292 305.186855 488.344854 
C 305.186855 487.083415 304.63477 485.873472 303.652191 484.9815 
C 302.669612 484.089529 301.336761 483.588354 299.947185 483.588354 
C 298.557608 483.588354 297.224758 484.089529 296.242179 484.9815 
C 295.2596 485.873472 294.707515 487.083415 294.707515 488.344854 
C 294.707515 489.606292 295.2596 490.816235 296.242179 491.708207 
C 297.224758 492.600179 298.557608 493.101354 299.947185 493.101354 
z
" style="fill:#7a0177;"/>
   </g>
   <g id="patch_279">
    <path clip-path="url(#p911a979f06)" d="M 288.613917 476.288821 
C 290.003493 476.288821 291.336344 475.787646 292.318923 474.895674 
C 293.301502 474.003703 293.853586 472.79376 293.853586 471.532321 
C 293.853586 470.270882 293.301502 469.060939 292.318923 468.168968 
C 291.336344 467.276996 290.003493 466.775821 288.613917 466.775821 
C 287.22434 466.775821 285.89149 467.276996 284.908911 468.168968 
C 283.926331 469.060939 283.374247 470.270882 283.374247 471.532321 
C 283.374247 472.79376 283.926331 474.003703 284.908911 474.895674 
C 285.89149 475.787646 287.22434 476.288821 288.613917 476.288821 
z
" style="fill:#7a0177;"/>
   </g>
   <g id="patch_280">
    <path clip-path="url(#p911a979f06)" d="M 266.799883 468.384101 
C 268.18946 468.384101 269.52231 467.882926 270.504889 466.990955 
C 271.487468 466.098983 272.039553 464.88904 272.039553 463.627601 
C 272.039553 462.366163 271.487468 461.15622 270.504889 460.264248 
C 269.52231 459.372276 268.18946 458.871101 266.799883 458.871101 
C 265.410306 458.871101 264.077456 459.372276 263.094877 460.264248 
C 262.112298 461.15622 261.560213 462.366163 261.560213 463.627601 
C 261.560213 464.88904 262.112298 466.098983 263.094877 466.990955 
C 264.077456 467.882926 265.410306 468.384101 266.799883 468.384101 
z
" style="fill:#7a0177;"/>
   </g>
   <g id="patch_281">
    <path clip-path="url(#p911a979f06)" d="M 348.05089 508.422106 
C 349.440467 508.422106 350.773317 507.920932 351.755896 507.02896 
C 352.738475 506.136988 353.29056 504.927045 353.29056 503.665606 
C 353.29056 502.404168 352.738475 501.194225 351.755896 500.302253 
C 350.773317 499.410281 349.440467 498.909106 348.05089 498.909106 
C 346.661314 498.909106 345.328463 499.410281 344.345884 500.302253 
C 343.363305 501.194225 342.81122 502.404168 342.81122 503.665606 
C 342.81122 504.927045 343.363305 506.136988 344.345884 507.02896 
C 345.328463 507.920932 346.661314 508.422106 348.05089 508.422106 
z
" style="fill:#7a0177;"/>
   </g>
   <g id="patch_282">
    <path clip-path="url(#p911a979f06)" d="M 299.947185 526.786433 
C 301.336761 526.786433 302.669612 526.285259 303.652191 525.393287 
C 304.63477 524.501315 305.186855 523.291372 305.186855 522.029933 
C 305.186855 520.768495 304.63477 519.558552 303.652191 518.66658 
C 302.669612 517.774608 301.336761 517.273433 299.947185 517.273433 
C 298.557608 517.273433 297.224758 517.774608 296.242179 518.66658 
C 295.2596 519.558552 294.707515 520.768495 294.707515 522.029933 
C 294.707515 523.291372 295.2596 524.501315 296.242179 525.393287 
C 297.224758 526.285259 298.557608 526.786433 299.947185 526.786433 
z
" style="fill:#7a0177;"/>
   </g>
   <g id="patch_283">
    <path clip-path="url(#p911a979f06)" d="M 229.553047 481.878709 
C 230.942624 481.878709 232.275474 481.377535 233.258053 480.485563 
C 234.240632 479.593591 234.792717 478.383648 234.792717 477.122209 
C 234.792717 475.860771 234.240632 474.650828 233.258053 473.758856 
C 232.275474 472.866884 230.942624 472.365709 229.553047 472.365709 
C 228.16347 472.365709 226.83062 472.866884 225.848041 473.758856 
C 224.865462 474.650828 224.313377 475.860771 224.313377 477.122209 
C 224.313377 478.383648 224.865462 479.593591 225.848041 480.485563 
C 226.83062 481.377535 228.16347 481.878709 229.553047 481.878709 
z
" style="fill:#7a0177;"/>
   </g>
   <g id="patch_284">
    <path clip-path="url(#p911a979f06)" d="M 223.247036 502.883659 
C 224.636613 502.883659 225.969463 502.382484 226.952042 501.490512 
C 227.934621 500.59854 228.486706 499.388597 228.486706 498.127159 
C 228.486706 496.86572 227.934621 495.655777 226.952042 494.763805 
C 225.969463 493.871833 224.636613 493.370659 223.247036 493.370659 
C 221.857459 493.370659 220.524609 493.871833 219.54203 494.763805 
C 218.559451 495.655777 218.007366 496.86572 218.007366 498.127159 
C 218.007366 499.388597 218.559451 500.59854 219.54203 501.490512 
C 220.524609 502.382484 221.857459 502.883659 223.247036 502.883659 
z
" style="fill:#7a0177;"/>
   </g>
   <g id="patch_285">
    <path clip-path="url(#p911a979f06)" d="M 186.90285 488.317369 
C 188.292427 488.317369 189.625277 487.816195 190.607856 486.924223 
C 191.590435 486.032251 192.14252 484.822308 192.14252 483.560869 
C 192.14252 482.299431 191.590435 481.089488 190.607856 480.197516 
C 189.625277 479.305544 188.292427 478.804369 186.90285 478.804369 
C 185.513273 478.804369 184.180423 479.305544 183.197844 480.197516 
C 182.215265 481.089488 181.66318 482.299431 181.66318 483.560869 
C 181.66318 484.822308 182.215265 486.032251 183.197844 486.924223 
C 184.180423 487.816195 185.513273 488.317369 186.90285 488.317369 
z
" style="fill:#7a0177;"/>
   </g>
   <g id="patch_286">
    <path clip-path="url(#p911a979f06)" d="M 288.60138 540.118146 
C 289.990957 540.118146 291.323807 539.616971 292.306386 538.724999 
C 293.288965 537.833028 293.84105 536.623085 293.84105 535.361646 
C 293.84105 534.100208 293.288965 532.890264 292.306386 531.998293 
C 291.323807 531.106321 289.990957 530.605146 288.60138 530.605146 
C 287.211803 530.605146 285.878953 531.106321 284.896374 531.998293 
C 283.913795 532.890264 283.36171 534.100208 283.36171 535.361646 
C 283.36171 536.623085 283.913795 537.833028 284.896374 538.724999 
C 285.878953 539.616971 287.211803 540.118146 288.60138 540.118146 
z
" style="fill:#7a0177;"/>
   </g>
   <g id="patch_287">
    <path clip-path="url(#p911a979f06)" d="M 258.976919 534.365362 
C 260.366496 534.365362 261.699346 533.864187 262.681925 532.972215 
C 263.664504 532.080244 264.216589 530.870301 264.216589 529.608862 
C 264.216589 528.347424 263.664504 527.13748 262.681925 526.245509 
C 261.699346 525.353537 260.366496 524.852362 258.976919 524.852362 
C 257.587342 524.852362 256.254492 525.353537 255.271913 526.245509 
C 254.289334 527.13748 253.737249 528.347424 253.737249 529.608862 
C 253.737249 530.870301 254.289334 532.080244 255.271913 532.972215 
C 256.254492 533.864187 257.587342 534.365362 258.976919 534.365362 
z
" style="fill:#7a0177;"/>
   </g>
   <g id="patch_288">
    <path clip-path="url(#p911a979f06)" d="M 203.388743 472.75656 
C 204.77832 472.75656 206.11117 472.255385 207.093749 471.363414 
C 208.076329 470.471442 208.628413 469.261499 208.628413 468.00006 
C 208.628413 466.738622 208.076329 465.528678 207.093749 464.636707 
C 206.11117 463.744735 204.77832 463.24356 203.388743 463.24356 
C 201.999167 463.24356 200.666316 463.744735 199.683737 464.636707 
C 198.701158 465.528678 198.149073 466.738622 198.149073 468.00006 
C 198.149073 469.261499 198.701158 470.471442 199.683737 471.363414 
C 200.666316 472.255385 201.999167 472.75656 203.388743 472.75656 
z
" style="fill:#7a0177;"/>
   </g>
   <g id="text_1">
    <text style="font-family:DejaVu Sans;font-size:12px;font-style:normal;font-weight:normal;text-anchor:start;" transform="rotate(-0, 185.995804, 98.141377)" x="185.995804" y="98.141377">KEGG_UBIQUITIN_MEDIATED_PROTEOLYSIS</text>
   </g>
   <g id="text_2">
    <text style="font-family:DejaVu Sans;font-size:12px;font-style:normal;font-weight:normal;text-anchor:start;" transform="rotate(-0, 185.995804, 111.731377)" x="185.995804" y="111.731377">PID_P38_MK2_PATHWAY</text>
   </g>
   <g id="text_3">
    <text style="font-family:DejaVu Sans;font-size:12px;font-style:normal;font-weight:normal;text-anchor:start;" transform="rotate(-0, 185.995804, 125.321377)" x="185.995804" y="125.321377">BIOCARTA_EGF_PATHWAY</text>
   </g>
   <g id="text_4">
    <text style="font-family:DejaVu Sans;font-size:12px;font-style:normal;font-weight:normal;text-anchor:start;" transform="rotate(-0, 185.995804, 138.911377)" x="185.995804" y="138.911377">REACTOME_GROWTH_HORMONE_RECEPTOR_SIGNALING</text>
   </g>
   <g id="text_5">
    <text style="font-family:DejaVu Sans;font-size:12px;font-style:normal;font-weight:normal;text-anchor:start;" transform="rotate(-0, 185.995804, 152.501377)" x="185.995804" y="152.501377">BIOCARTA_SHH_PATHWAY</text>
   </g>
   <g id="text_6">
    <text style="font-family:DejaVu Sans;font-size:12px;font-style:normal;font-weight:normal;text-anchor:start;" transform="rotate(-0, 185.995804, 166.091377)" x="185.995804" y="166.091377">REACTOME_DEVELOPMENTAL_BIOLOGY</text>
   </g>
   <g id="text_7">
    <text style="font-family:DejaVu Sans;font-size:12px;font-style:normal;font-weight:normal;text-anchor:start;" transform="rotate(-0, 185.995804, 179.681377)" x="185.995804" y="179.681377">REACTOME_MRNA_SPLICING_MINOR_PATHWAY</text>
   </g>
   <g id="text_8">
    <text style="font-family:DejaVu Sans;font-size:12px;font-style:normal;font-weight:normal;text-anchor:start;" transform="rotate(-0, 185.995804, 193.271377)" x="185.995804" y="193.271377">KEGG_DORSO_VENTRAL_AXIS_FORMATION</text>
   </g>
   <g id="text_9">
    <text style="font-family:DejaVu Sans;font-size:12px;font-style:normal;font-weight:normal;text-anchor:start;" transform="rotate(-0, 185.995804, 206.861377)" x="185.995804" y="206.861377">PID_TAP63_PATHWAY</text>
   </g>
   <g id="text_10">
    <text style="font-family:DejaVu Sans;font-size:12px;font-style:normal;font-weight:normal;text-anchor:start;" transform="rotate(-0, 185.995804, 220.451377)" x="185.995804" y="220.451377">PID_P73PATHWAY</text>
   </g>
   <g id="text_11">
    <text style="font-family:DejaVu Sans;font-size:12px;font-style:normal;font-weight:normal;text-anchor:start;" transform="rotate(-0, 185.995804, 233.98044)" x="185.995804" y="233.98044">PID_ALK1_PATHWAY</text>
   </g>
   <g id="text_12">
    <text style="font-family:DejaVu Sans;font-size:12px;font-style:normal;font-weight:normal;text-anchor:start;" transform="rotate(-0, 185.995804, 247.631377)" x="185.995804" y="247.631377">PID_HNF3B_PATHWAY</text>
   </g>
   <g id="text_13">
    <text style="font-family:DejaVu Sans;font-size:12px;font-style:normal;font-weight:normal;text-anchor:start;" transform="rotate(-0, 185.995804, 261.221377)" x="185.995804" y="261.221377">KEGG_CELL_CYCLE</text>
   </g>
   <g id="text_14">
    <text style="font-family:DejaVu Sans;font-size:12px;font-style:normal;font-weight:normal;text-anchor:start;" transform="rotate(-0, 185.995804, 274.811377)" x="185.995804" y="274.811377">BIOCARTA_CK1_PATHWAY</text>
   </g>
   <g id="text_15">
    <text style="font-family:DejaVu Sans;font-size:12px;font-style:normal;font-weight:normal;text-anchor:start;" transform="rotate(-0, 185.995804, 288.401377)" x="185.995804" y="288.401377">PID_SMAD2_3NUCLEAR_PATHWAY</text>
   </g>
   <g id="text_16">
    <text style="font-family:DejaVu Sans;font-size:12px;font-style:normal;font-weight:normal;text-anchor:start;" transform="rotate(-0, 185.995804, 301.991377)" x="185.995804" y="301.991377">PID_RAC1_PATHWAY</text>
   </g>
   <g id="text_17">
    <text style="font-family:DejaVu Sans;font-size:12px;font-style:normal;font-weight:normal;text-anchor:start;" transform="rotate(-0, 185.995804, 315.581377)" x="185.995804" y="315.581377">PID_CDC42_PATHWAY</text>
   </g>
   <g id="text_18">
    <text style="font-family:DejaVu Sans;font-size:12px;font-style:normal;font-weight:normal;text-anchor:start;" transform="rotate(-0, 185.995804, 329.171377)" x="185.995804" y="329.171377">BIOCARTA_RHO_PATHWAY</text>
   </g>
   <g id="text_19">
    <text style="font-family:DejaVu Sans;font-size:12px;font-style:normal;font-weight:normal;text-anchor:start;" transform="rotate(-0, 185.995804, 342.761377)" x="185.995804" y="342.761377">BIOCARTA_CDC42RAC_PATHWAY</text>
   </g>
   <g id="text_20">
    <text style="font-family:DejaVu Sans;font-size:12px;font-style:normal;font-weight:normal;text-anchor:start;" transform="rotate(-0, 185.995804, 379.757273)" x="185.995804" y="379.757273">REACTOME_CIRCADIAN_CLOCK</text>
   </g>
   <g id="text_21">
    <text style="font-family:DejaVu Sans;font-size:12px;font-style:normal;font-weight:normal;text-anchor:start;" transform="rotate(-0, 230.907259, 373.727806)" x="230.907259" y="373.727806">REACTOME_BMAL1_CLOCK_NPAS2_ACTIVATES_CIRCADIAN_EXPRESSION</text>
   </g>
   <g id="text_22">
    <text style="font-family:DejaVu Sans;font-size:12px;font-style:normal;font-weight:normal;text-anchor:start;" transform="rotate(-0, 211.757303, 397.121377)" x="211.757303" y="397.121377">REACTOME_RORA_ACTIVATES_CIRCADIAN_EXPRESSION</text>
   </g>
   <g id="text_23">
    <text style="font-family:DejaVu Sans;font-size:12px;font-style:normal;font-weight:normal;text-anchor:start;" transform="rotate(-0, 205.098721, 356.351377)" x="205.098721" y="356.351377">REACTOME_CIRCADIAN_REPRESSION_OF_EXPRESSION_BY_REV_ERBA</text>
   </g>
   <g id="text_24">
    <text style="font-family:DejaVu Sans;font-size:12px;font-style:normal;font-weight:normal;text-anchor:start;" transform="rotate(-0, 185.995804, 434.117273)" x="185.995804" y="434.117273">REACTOME_PACKAGING_OF_TELOMERE_ENDS</text>
   </g>
   <g id="text_25">
    <text style="font-family:DejaVu Sans;font-size:12px;font-style:normal;font-weight:normal;text-anchor:start;" transform="rotate(-0, 230.907259, 428.087806)" x="230.907259" y="428.087806">REACTOME_MEIOTIC_SYNAPSIS</text>
   </g>
   <g id="text_26">
    <text style="font-family:DejaVu Sans;font-size:12px;font-style:normal;font-weight:normal;text-anchor:start;" transform="rotate(-0, 211.754306, 451.481377)" x="211.754306" y="451.481377">REACTOME_MEIOTIC_RECOMBINATION</text>
   </g>
   <g id="text_27">
    <text style="font-family:DejaVu Sans;font-size:12px;font-style:normal;font-weight:normal;text-anchor:start;" transform="rotate(-0, 205.101724, 410.711377)" x="205.101724" y="410.711377">REACTOME_MEIOSIS</text>
   </g>
   <g id="text_28">
    <text style="font-family:DejaVu Sans;font-size:12px;font-style:normal;font-weight:normal;text-anchor:start;" transform="rotate(-0, 185.995804, 502.571642)" x="185.995804" y="502.571642">REACTOME_CDK_MEDIATED_PHOSPHORYLATION_AND_REMOVAL_OF_CDC6</text>
   </g>
   <g id="text_29">
    <text style="font-family:DejaVu Sans;font-size:12px;font-style:normal;font-weight:normal;text-anchor:start;" transform="rotate(-0, 307.903657, 508.598776)" x="307.903657" y="508.598776">REACTOME_VIF_MEDIATED_DEGRADATION_OF_APOBEC3G</text>
   </g>
   <g id="text_30">
    <text style="font-family:DejaVu Sans;font-size:12px;font-style:normal;font-weight:normal;text-anchor:start;" transform="rotate(-0, 245.545608, 549.046592)" x="245.545608" y="549.046592">REACTOME_SYNTHESIS_OF_DNA</text>
   </g>
   <g id="text_31">
    <text style="font-family:DejaVu Sans;font-size:12px;font-style:normal;font-weight:normal;text-anchor:start;" transform="rotate(-0, 248.1658, 465.071377)" x="248.1658" y="465.071377">REACTOME_CYCLIN_E_ASSOCIATED_EVENTS_DURING_G1_S_TRANSITION_</text>
   </g>
   <g id="text_32">
    <text style="font-family:DejaVu Sans;font-size:12px;font-style:normal;font-weight:normal;text-anchor:start;" transform="rotate(-0, 260.639917, 510.544949)" x="260.639917" y="510.544949">REACTOME_P53_INDEPENDENT_G1_S_DNA_DAMAGE_CHECKPOINT</text>
   </g>
   <g id="text_33">
    <text style="font-family:DejaVu Sans;font-size:12px;font-style:normal;font-weight:normal;text-anchor:start;" transform="rotate(-0, 273.176718, 489.137048)" x="273.176718" y="489.137048">REACTOME_G1_S_TRANSITION</text>
   </g>
   <g id="text_34">
    <text style="font-family:DejaVu Sans;font-size:12px;font-style:normal;font-weight:normal;text-anchor:start;" transform="rotate(-0, 186.760548, 518.681152)" x="186.760548" y="518.681152">KEGG_PROTEASOME</text>
   </g>
   <g id="text_35">
    <text style="font-family:DejaVu Sans;font-size:12px;font-style:normal;font-weight:normal;text-anchor:start;" transform="rotate(-0, 306.486998, 617.618749)" x="306.486998" y="617.618749">REACTOME_G1_PHASE</text>
   </g>
   <g id="text_36">
    <text style="font-family:DejaVu Sans;font-size:12px;font-style:normal;font-weight:normal;text-anchor:start;" transform="rotate(-0, 195.749435, 534.310549)" x="195.749435" y="534.310549">REACTOME_AUTODEGRADATION_OF_THE_E3_UBIQUITIN_LIGASE_COP1</text>
   </g>
   <g id="text_37">
    <text style="font-family:DejaVu Sans;font-size:12px;font-style:normal;font-weight:normal;text-anchor:start;" transform="rotate(-0, 214.429268, 547.414207)" x="214.429268" y="547.414207">REACTOME_ER_PHAGOSOME_PATHWAY</text>
   </g>
   <g id="text_38">
    <text style="font-family:DejaVu Sans;font-size:12px;font-style:normal;font-weight:normal;text-anchor:start;" transform="rotate(-0, 274.693671, 552.379092)" x="274.693671" y="552.379092">REACTOME_MITOTIC_G1_G1_S_PHASES</text>
   </g>
   <g id="text_39">
    <text style="font-family:DejaVu Sans;font-size:12px;font-style:normal;font-weight:normal;text-anchor:start;" transform="rotate(-0, 230.238174, 525.282707)" x="230.238174" y="525.282707">REACTOME_CDT1_ASSOCIATION_WITH_THE_CDC6_ORC_ORIGIN_COMPLEX</text>
   </g>
   <g id="text_40">
    <text style="font-family:DejaVu Sans;font-size:12px;font-style:normal;font-weight:normal;text-anchor:start;" transform="rotate(-0, 305.935379, 491.383291)" x="305.935379" y="491.383291">REACTOME_APC_C_CDH1_MEDIATED_DEGRADATION_OF_CDC20...</text>
   </g>
   <g id="text_41">
    <text style="font-family:DejaVu Sans;font-size:12px;font-style:normal;font-weight:normal;text-anchor:start;" transform="rotate(-0, 294.602111, 474.570758)" x="294.602111" y="474.570758">REACTOME_SCFSKP2_MEDIATED_DEGRADATION_OF_P27_P21</text>
   </g>
   <g id="text_42">
    <text style="font-family:DejaVu Sans;font-size:12px;font-style:normal;font-weight:normal;text-anchor:start;" transform="rotate(-0, 272.788077, 466.666039)" x="272.788077" y="466.666039">REACTOME_APC_C_CDC20_MEDIATED_DEGRADATION_OF_MITOTIC_PROTEINS</text>
   </g>
   <g id="text_43">
    <text style="font-family:DejaVu Sans;font-size:12px;font-style:normal;font-weight:normal;text-anchor:start;" transform="rotate(-0, 354.039084, 506.704044)" x="354.039084" y="506.704044">REACTOME_CELL_CYCLE_MITOTIC</text>
   </g>
   <g id="text_44">
    <text style="font-family:DejaVu Sans;font-size:12px;font-style:normal;font-weight:normal;text-anchor:start;" transform="rotate(-0, 305.935379, 525.068371)" x="305.935379" y="525.068371">REACTOME_M_G1_TRANSITION</text>
   </g>
   <g id="text_45">
    <text style="font-family:DejaVu Sans;font-size:12px;font-style:normal;font-weight:normal;text-anchor:start;" transform="rotate(-0, 235.541241, 480.160647)" x="235.541241" y="480.160647">REACTOME_ORC1_REMOVAL_FROM_CHROMATIN</text>
   </g>
   <g id="text_46">
    <text style="font-family:DejaVu Sans;font-size:12px;font-style:normal;font-weight:normal;text-anchor:start;" transform="rotate(-0, 229.23523, 501.165596)" x="229.23523" y="501.165596">REACTOME_MITOTIC_M_M_G1_PHASES</text>
   </g>
   <g id="text_47">
    <text style="font-family:DejaVu Sans;font-size:12px;font-style:normal;font-weight:normal;text-anchor:start;" transform="rotate(-0, 192.891044, 486.599307)" x="192.891044" y="486.599307">REACTOME_P53_DEPENDENT_G1_DNA_DAMAGE_RESPONSE</text>
   </g>
   <g id="text_48">
    <text style="font-family:DejaVu Sans;font-size:12px;font-style:normal;font-weight:normal;text-anchor:start;" transform="rotate(-0, 294.589574, 538.400084)" x="294.589574" y="538.400084">REACTOME_REGULATION_OF_MITOTIC_CELL_CYCLE</text>
   </g>
   <g id="text_49">
    <text style="font-family:DejaVu Sans;font-size:12px;font-style:normal;font-weight:normal;text-anchor:start;" transform="rotate(-0, 264.965113, 532.6473)" x="264.965113" y="532.6473">REACTOME_SCF_BETA_TRCP_MEDIATED_DEGRADATION_OF_EMI1</text>
   </g>
   <g id="text_50">
    <text style="font-family:DejaVu Sans;font-size:12px;font-style:normal;font-weight:normal;text-anchor:start;" transform="rotate(-0, 209.376937, 471.038498)" x="209.376937" y="471.038498">REACTOME_REGULATION_OF_MRNA_STABILITY_BY_PROTEINS...</text>
   </g>
   <g id="text_51">
    <text style="font-family:DejaVu Sans;font-size:12px;font-style:normal;font-weight:normal;text-anchor:middle;" transform="rotate(-0, 676.652209, 79.58994)" x="676.652209" y="79.58994">Cell Cycle/Development</text>
   </g>
  </g>
 </g>
 <defs>
  <clipPath id="p911a979f06">
   <rect height="538.503372" width="1023.23017" x="165.037124" y="85.58994"/>
  </clipPath>
 </defs>
</svg>
