<?xml version="1.0" encoding="utf-8" standalone="no"?>
<!DOCTYPE svg PUBLIC "-//W3C//DTD SVG 1.1//EN"
  "http://www.w3.org/Graphics/SVG/1.1/DTD/svg11.dtd">
<!-- Created with matplotlib (https://matplotlib.org/) -->
<svg height="259.2pt" version="1.1" viewBox="0 0 1188 259.2" width="1188pt" xmlns="http://www.w3.org/2000/svg" xmlns:xlink="http://www.w3.org/1999/xlink">
 <defs>
  <style type="text/css">
*{stroke-linecap:butt;stroke-linejoin:round;}
  </style>
 </defs>
 <g id="figure_1">
  <g id="patch_1">
   <path d="M 0 259.2 
L 1188 259.2 
L 1188 0 
L 0 0 
z
" style="fill:#ffffff;"/>
  </g>
  <g id="axes_1">
   <g id="patch_2">
    <path clip-path="url(#p1ed025f37a)" d="M 163.593443 45.3735 
C 164.994432 45.3735 166.33823 44.872325 167.328879 43.980353 
C 168.319528 43.088382 168.876148 41.878439 168.876148 40.617 
C 168.876148 39.355561 168.319528 38.145618 167.328879 37.253647 
C 166.33823 36.361675 164.994432 35.8605 163.593443 35.8605 
C 162.192453 35.8605 160.848655 36.361675 159.858006 37.253647 
C 158.867357 38.145618 158.310738 39.355561 158.310738 40.617 
C 158.310738 41.878439 158.867357 43.088382 159.858006 43.980353 
C 160.848655 44.872325 162.192453 45.3735 163.593443 45.3735 
z
" style="fill:#7a0177;"/>
   </g>
   <g id="patch_3">
    <path clip-path="url(#p1ed025f37a)" d="M 163.593443 58.9635 
C 164.994432 58.9635 166.33823 58.462325 167.328879 57.570353 
C 168.319528 56.678382 168.876148 55.468439 168.876148 54.207 
C 168.876148 52.945561 168.319528 51.735618 167.328879 50.843647 
C 166.33823 49.951675 164.994432 49.4505 163.593443 49.4505 
C 162.192453 49.4505 160.848655 49.951675 159.858006 50.843647 
C 158.867357 51.735618 158.310738 52.945561 158.310738 54.207 
C 158.310738 55.468439 158.867357 56.678382 159.858006 57.570353 
C 160.848655 58.462325 162.192453 58.9635 163.593443 58.9635 
z
" style="fill:#7a0177;"/>
   </g>
   <g id="patch_4">
    <path clip-path="url(#p1ed025f37a)" d="M 163.593443 72.5535 
C 164.994432 72.5535 166.33823 72.052325 167.328879 71.160353 
C 168.319528 70.268382 168.876148 69.058439 168.876148 67.797 
C 168.876148 66.535561 168.319528 65.325618 167.328879 64.433647 
C 166.33823 63.541675 164.994432 63.0405 163.593443 63.0405 
C 162.192453 63.0405 160.848655 63.541675 159.858006 64.433647 
C 158.867357 65.325618 158.310738 66.535561 158.310738 67.797 
C 158.310738 69.058439 158.867357 70.268382 159.858006 71.160353 
C 160.848655 72.052325 162.192453 72.5535 163.593443 72.5535 
z
" style="fill:#7a0177;"/>
   </g>
   <g id="patch_5">
    <path clip-path="url(#p1ed025f37a)" d="M 163.593443 86.1435 
C 164.994432 86.1435 166.33823 85.642325 167.328879 84.750353 
C 168.319528 83.858382 168.876148 82.648439 168.876148 81.387 
C 168.876148 80.125561 168.319528 78.915618 167.328879 78.023647 
C 166.33823 77.131675 164.994432 76.6305 163.593443 76.6305 
C 162.192453 76.6305 160.848655 77.131675 159.858006 78.023647 
C 158.867357 78.915618 158.310738 80.125561 158.310738 81.387 
C 158.310738 82.648439 158.867357 83.858382 159.858006 84.750353 
C 160.848655 85.642325 162.192453 86.1435 163.593443 86.1435 
z
" style="fill:#feebe2;"/>
   </g>
   <g id="patch_6">
    <path clip-path="url(#p1ed025f37a)" d="M 163.593443 99.7335 
C 164.994432 99.7335 166.33823 99.232325 167.328879 98.340353 
C 168.319528 97.448382 168.876148 96.238439 168.876148 94.977 
C 168.876148 93.715561 168.319528 92.505618 167.328879 91.613647 
C 166.33823 90.721675 164.994432 90.2205 163.593443 90.2205 
C 162.192453 90.2205 160.848655 90.721675 159.858006 91.613647 
C 158.867357 92.505618 158.310738 93.715561 158.310738 94.977 
C 158.310738 96.238439 158.867357 97.448382 159.858006 98.340353 
C 160.848655 99.232325 162.192453 99.7335 163.593443 99.7335 
z
" style="fill:#feebe2;"/>
   </g>
   <g id="patch_7">
    <path clip-path="url(#p1ed025f37a)" d="M 163.593443 113.3235 
C 164.994432 113.3235 166.33823 112.822325 167.328879 111.930353 
C 168.319528 111.038382 168.876148 109.828439 168.876148 108.567 
C 168.876148 107.305561 168.319528 106.095618 167.328879 105.203647 
C 166.33823 104.311675 164.994432 103.8105 163.593443 103.8105 
C 162.192453 103.8105 160.848655 104.311675 159.858006 105.203647 
C 158.867357 106.095618 158.310738 107.305561 158.310738 108.567 
C 158.310738 109.828439 158.867357 111.038382 159.858006 111.930353 
C 160.848655 112.822325 162.192453 113.3235 163.593443 113.3235 
z
" style="fill:#f768a1;"/>
   </g>
   <g id="patch_8">
    <path clip-path="url(#p1ed025f37a)" d="M 163.593443 126.9135 
C 164.994432 126.9135 166.33823 126.412325 167.328879 125.520353 
C 168.319528 124.628382 168.876148 123.418439 168.876148 122.157 
C 168.876148 120.895561 168.319528 119.685618 167.328879 118.793647 
C 166.33823 117.901675 164.994432 117.4005 163.593443 117.4005 
C 162.192453 117.4005 160.848655 117.901675 159.858006 118.793647 
C 158.867357 119.685618 158.310738 120.895561 158.310738 122.157 
C 158.310738 123.418439 158.867357 124.628382 159.858006 125.520353 
C 160.848655 126.412325 162.192453 126.9135 163.593443 126.9135 
z
" style="fill:#f768a1;"/>
   </g>
   <g id="patch_9">
    <path clip-path="url(#p1ed025f37a)" d="M 163.593443 140.5035 
C 164.994432 140.5035 166.33823 140.002325 167.328879 139.110353 
C 168.319528 138.218382 168.876148 137.008439 168.876148 135.747 
C 168.876148 134.485561 168.319528 133.275618 167.328879 132.383647 
C 166.33823 131.491675 164.994432 130.9905 163.593443 130.9905 
C 162.192453 130.9905 160.848655 131.491675 159.858006 132.383647 
C 158.867357 133.275618 158.310738 134.485561 158.310738 135.747 
C 158.310738 137.008439 158.867357 138.218382 159.858006 139.110353 
C 160.848655 140.002325 162.192453 140.5035 163.593443 140.5035 
z
" style="fill:#f768a1;"/>
   </g>
   <g id="patch_10">
    <path clip-path="url(#p1ed025f37a)" d="M 163.593443 154.0935 
C 164.994432 154.0935 166.33823 153.592325 167.328879 152.700353 
C 168.319528 151.808382 168.876148 150.598439 168.876148 149.337 
C 168.876148 148.075561 168.319528 146.865618 167.328879 145.973647 
C 166.33823 145.081675 164.994432 144.5805 163.593443 144.5805 
C 162.192453 144.5805 160.848655 145.081675 159.858006 145.973647 
C 158.867357 146.865618 158.310738 148.075561 158.310738 149.337 
C 158.310738 150.598439 158.867357 151.808382 159.858006 152.700353 
C 160.848655 153.592325 162.192453 154.0935 163.593443 154.0935 
z
" style="fill:#f768a1;"/>
   </g>
   <g id="patch_11">
    <path clip-path="url(#p1ed025f37a)" d="M 163.593443 167.6835 
C 164.994432 167.6835 166.33823 167.182325 167.328879 166.290353 
C 168.319528 165.398382 168.876148 164.188439 168.876148 162.927 
C 168.876148 161.665561 168.319528 160.455618 167.328879 159.563647 
C 166.33823 158.671675 164.994432 158.1705 163.593443 158.1705 
C 162.192453 158.1705 160.848655 158.671675 159.858006 159.563647 
C 158.867357 160.455618 158.310738 161.665561 158.310738 162.927 
C 158.310738 164.188439 158.867357 165.398382 159.858006 166.290353 
C 160.848655 167.182325 162.192453 167.6835 163.593443 167.6835 
z
" style="fill:#f768a1;"/>
   </g>
   <g id="patch_12">
    <path clip-path="url(#p1ed025f37a)" d="M 163.593443 181.2735 
C 164.994432 181.2735 166.33823 180.772325 167.328879 179.880353 
C 168.319528 178.988382 168.876148 177.778439 168.876148 176.517 
C 168.876148 175.255561 168.319528 174.045618 167.328879 173.153647 
C 166.33823 172.261675 164.994432 171.7605 163.593443 171.7605 
C 162.192453 171.7605 160.848655 172.261675 159.858006 173.153647 
C 158.867357 174.045618 158.310738 175.255561 158.310738 176.517 
C 158.310738 177.778439 158.867357 178.988382 159.858006 179.880353 
C 160.848655 180.772325 162.192453 181.2735 163.593443 181.2735 
z
" style="fill:#f768a1;"/>
   </g>
   <g id="patch_13">
    <path clip-path="url(#p1ed025f37a)" d="M 163.593443 190.107 
L 163.593443 217.287 
" style="fill:#1f77b4;stroke:#000000;stroke-linejoin:miter;"/>
   </g>
   <g id="patch_14">
    <path clip-path="url(#p1ed025f37a)" d="M 163.593443 190.107 
L 163.593443 203.697 
" style="fill:#1f77b4;stroke:#000000;stroke-linejoin:miter;"/>
   </g>
   <g id="patch_15">
    <path clip-path="url(#p1ed025f37a)" d="M 163.593443 194.8635 
C 164.994432 194.8635 166.33823 194.362325 167.328879 193.470353 
C 168.319528 192.578382 168.876148 191.368439 168.876148 190.107 
C 168.876148 188.845561 168.319528 187.635618 167.328879 186.743647 
C 166.33823 185.851675 164.994432 185.3505 163.593443 185.3505 
C 162.192453 185.3505 160.848655 185.851675 159.858006 186.743647 
C 158.867357 187.635618 158.310738 188.845561 158.310738 190.107 
C 158.310738 191.368439 158.867357 192.578382 159.858006 193.470353 
C 160.848655 194.362325 162.192453 194.8635 163.593443 194.8635 
z
" style="fill:#f768a1;"/>
   </g>
   <g id="patch_16">
    <path clip-path="url(#p1ed025f37a)" d="M 163.593443 208.4535 
C 164.994432 208.4535 166.33823 207.952325 167.328879 207.060353 
C 168.319528 206.168382 168.876148 204.958439 168.876148 203.697 
C 168.876148 202.435561 168.319528 201.225618 167.328879 200.333647 
C 166.33823 199.441675 164.994432 198.9405 163.593443 198.9405 
C 162.192453 198.9405 160.848655 199.441675 159.858006 200.333647 
C 158.867357 201.225618 158.310738 202.435561 158.310738 203.697 
C 158.310738 204.958439 158.867357 206.168382 159.858006 207.060353 
C 160.848655 207.952325 162.192453 208.4535 163.593443 208.4535 
z
" style="fill:#f768a1;"/>
   </g>
   <g id="patch_17">
    <path clip-path="url(#p1ed025f37a)" d="M 163.593443 222.0435 
C 164.994432 222.0435 166.33823 221.542325 167.328879 220.650353 
C 168.319528 219.758382 168.876148 218.548439 168.876148 217.287 
C 168.876148 216.025561 168.319528 214.815618 167.328879 213.923647 
C 166.33823 213.031675 164.994432 212.5305 163.593443 212.5305 
C 162.192453 212.5305 160.848655 213.031675 159.858006 213.923647 
C 158.867357 214.815618 158.310738 216.025561 158.310738 217.287 
C 158.310738 218.548439 158.867357 219.758382 159.858006 220.650353 
C 160.848655 221.542325 162.192453 222.0435 163.593443 222.0435 
z
" style="fill:#f768a1;"/>
   </g>
   <g id="text_1">
    <text style="font-family:DejaVu Sans;font-size:12px;font-style:normal;font-weight:normal;text-anchor:start;" transform="rotate(-0, 169.63082, 43.655437)" x="169.63082" y="43.655437">REACTOME_PLATELET_SENSITIZATION_BY_LDL</text>
   </g>
   <g id="text_2">
    <text style="font-family:DejaVu Sans;font-size:12px;font-style:normal;font-weight:normal;text-anchor:start;" transform="rotate(-0, 169.63082, 57.245437)" x="169.63082" y="57.245437">BIOCARTA_AT1R_PATHWAY</text>
   </g>
   <g id="text_3">
    <text style="font-family:DejaVu Sans;font-size:12px;font-style:normal;font-weight:normal;text-anchor:start;" transform="rotate(-0, 169.63082, 70.835437)" x="169.63082" y="70.835437">KEGG_ARRHYTHMOGENIC_RIGHT_VENTRICULAR_CARDIOMYOPATHY_ARVC</text>
   </g>
   <g id="text_4">
    <text style="font-family:DejaVu Sans;font-size:12px;font-style:normal;font-weight:normal;text-anchor:start;" transform="rotate(-0, 169.63082, 84.425437)" x="169.63082" y="84.425437">PID_S1P_S1P3_PATHWAY</text>
   </g>
   <g id="text_5">
    <text style="font-family:DejaVu Sans;font-size:12px;font-style:normal;font-weight:normal;text-anchor:start;" transform="rotate(-0, 169.63082, 98.015437)" x="169.63082" y="98.015437">KEGG_VEGF_SIGNALING_PATHWAY</text>
   </g>
   <g id="text_6">
    <text style="font-family:DejaVu Sans;font-size:12px;font-style:normal;font-weight:normal;text-anchor:start;" transform="rotate(-0, 169.63082, 111.605437)" x="169.63082" y="111.605437">PID_ANGIOPOIETIN_RECEPTOR_PATHWAY</text>
   </g>
   <g id="text_7">
    <text style="font-family:DejaVu Sans;font-size:12px;font-style:normal;font-weight:normal;text-anchor:start;" transform="rotate(-0, 169.63082, 125.195437)" x="169.63082" y="125.195437">REACTOME_FACTORS_INVOLVED_IN_MEGAKARYOCYTE_DEVELOPMENT_AND_PLATELET_PRODUCTION</text>
   </g>
   <g id="text_8">
    <text style="font-family:DejaVu Sans;font-size:12px;font-style:normal;font-weight:normal;text-anchor:start;" transform="rotate(-0, 169.63082, 138.785437)" x="169.63082" y="138.785437">KEGG_HEMATOPOIETIC_CELL_LINEAGE</text>
   </g>
   <g id="text_9">
    <text style="font-family:DejaVu Sans;font-size:12px;font-style:normal;font-weight:normal;text-anchor:start;" transform="rotate(-0, 169.63082, 152.375437)" x="169.63082" y="152.375437">BIOCARTA_KERATINOCYTE_PATHWAY</text>
   </g>
   <g id="text_10">
    <text style="font-family:DejaVu Sans;font-size:12px;font-style:normal;font-weight:normal;text-anchor:start;" transform="rotate(-0, 169.63082, 165.965437)" x="169.63082" y="165.965437">KEGG_LEUKOCYTE_TRANSENDOTHELIAL_MIGRATION</text>
   </g>
   <g id="text_11">
    <text style="font-family:DejaVu Sans;font-size:12px;font-style:normal;font-weight:normal;text-anchor:start;" transform="rotate(-0, 169.63082, 179.555437)" x="169.63082" y="179.555437">BIOCARTA_CARDIACEGF_PATHWAY</text>
   </g>
   <g id="text_12">
    <text style="font-family:DejaVu Sans;font-size:12px;font-style:normal;font-weight:normal;text-anchor:start;" transform="rotate(-0, 169.63082, 193.145437)" x="169.63082" y="193.145437">REACTOME_PLATELET_ACTIVATION_SIGNALING_AND_AGGREGATION</text>
   </g>
   <g id="text_13">
    <text style="font-family:DejaVu Sans;font-size:12px;font-style:normal;font-weight:normal;text-anchor:start;" transform="rotate(-0, 169.63082, 206.735437)" x="169.63082" y="206.735437">REACTOME_RESPONSE_TO_ELEVATED_PLATELET_CYTOSOLIC_CA2_</text>
   </g>
   <g id="text_14">
    <text style="font-family:DejaVu Sans;font-size:12px;font-style:normal;font-weight:normal;text-anchor:start;" transform="rotate(-0, 169.63082, 220.325437)" x="169.63082" y="220.325437">REACTOME_HEMOSTASIS</text>
   </g>
   <g id="text_15">
    <text style="font-family:DejaVu Sans;font-size:12px;font-style:normal;font-weight:normal;text-anchor:middle;" transform="rotate(-0, 608.85, 25.104)" x="608.85" y="25.104">Angiogenesis/BBB</text>
   </g>
  </g>
 </g>
 <defs>
  <clipPath id="p1ed025f37a">
   <rect height="195.696" width="920.7" x="148.5" y="31.104"/>
  </clipPath>
 </defs>
</svg>
