<?xml version="1.0" encoding="utf-8" standalone="no"?>
<!DOCTYPE svg PUBLIC "-//W3C//DTD SVG 1.1//EN"
  "http://www.w3.org/Graphics/SVG/1.1/DTD/svg11.dtd">
<!-- Created with matplotlib (https://matplotlib.org/) -->
<svg height="713.249499pt" version="1.1" viewBox="0 0 1320.296993 713.249499" width="1320.296993pt" xmlns="http://www.w3.org/2000/svg" xmlns:xlink="http://www.w3.org/1999/xlink">
 <defs>
  <style type="text/css">
*{stroke-linecap:butt;stroke-linejoin:round;}
  </style>
 </defs>
 <g id="figure_1">
  <g id="patch_1">
   <path d="M 0 713.249499 
L 1320.296993 713.249499 
L 1320.296993 0 
L 0 0 
z
" style="fill:#ffffff;"/>
  </g>
  <g id="axes_1">
   <g id="patch_2">
    <path clip-path="url(#pc36fcf6df7)" d="M 180.007609 99.85944 
C 181.397186 99.85944 182.730036 99.358265 183.712616 98.466293 
C 184.695195 97.574322 185.247279 96.364378 185.247279 95.10294 
C 185.247279 93.841501 184.695195 92.631558 183.712616 91.739586 
C 182.730036 90.847615 181.397186 90.34644 180.007609 90.34644 
C 178.618033 90.34644 177.285182 90.847615 176.302603 91.739586 
C 175.320024 92.631558 174.76794 93.841501 174.76794 95.10294 
C 174.76794 96.364378 175.320024 97.574322 176.302603 98.466293 
C 177.285182 99.358265 178.618033 99.85944 180.007609 99.85944 
z
" style="fill:#ff0000;"/>
   </g>
   <g id="patch_3">
    <path clip-path="url(#pc36fcf6df7)" d="M 180.007609 113.44944 
C 181.397186 113.44944 182.730036 112.948265 183.712616 112.056293 
C 184.695195 111.164322 185.247279 109.954378 185.247279 108.69294 
C 185.247279 107.431501 184.695195 106.221558 183.712616 105.329586 
C 182.730036 104.437615 181.397186 103.93644 180.007609 103.93644 
C 178.618033 103.93644 177.285182 104.437615 176.302603 105.329586 
C 175.320024 106.221558 174.76794 107.431501 174.76794 108.69294 
C 174.76794 109.954378 175.320024 111.164322 176.302603 112.056293 
C 177.285182 112.948265 178.618033 113.44944 180.007609 113.44944 
z
" style="fill:#ff0000;"/>
   </g>
   <g id="patch_4">
    <path clip-path="url(#pc36fcf6df7)" d="M 180.007609 127.03944 
C 181.397186 127.03944 182.730036 126.538265 183.712616 125.646293 
C 184.695195 124.754322 185.247279 123.544378 185.247279 122.28294 
C 185.247279 121.021501 184.695195 119.811558 183.712616 118.919586 
C 182.730036 118.027615 181.397186 117.52644 180.007609 117.52644 
C 178.618033 117.52644 177.285182 118.027615 176.302603 118.919586 
C 175.320024 119.811558 174.76794 121.021501 174.76794 122.28294 
C 174.76794 123.544378 175.320024 124.754322 176.302603 125.646293 
C 177.285182 126.538265 178.618033 127.03944 180.007609 127.03944 
z
" style="fill:#ff0000;"/>
   </g>
   <g id="patch_5">
    <path clip-path="url(#pc36fcf6df7)" d="M 180.007609 140.62944 
C 181.397186 140.62944 182.730036 140.128265 183.712616 139.236293 
C 184.695195 138.344322 185.247279 137.134378 185.247279 135.87294 
C 185.247279 134.611501 184.695195 133.401558 183.712616 132.509586 
C 182.730036 131.617615 181.397186 131.11644 180.007609 131.11644 
C 178.618033 131.11644 177.285182 131.617615 176.302603 132.509586 
C 175.320024 133.401558 174.76794 134.611501 174.76794 135.87294 
C 174.76794 137.134378 175.320024 138.344322 176.302603 139.236293 
C 177.285182 140.128265 178.618033 140.62944 180.007609 140.62944 
z
" style="fill:#ff0000;"/>
   </g>
   <g id="patch_6">
    <path clip-path="url(#pc36fcf6df7)" d="M 180.007609 154.21944 
C 181.397186 154.21944 182.730036 153.718265 183.712616 152.826293 
C 184.695195 151.934322 185.247279 150.724378 185.247279 149.46294 
C 185.247279 148.201501 184.695195 146.991558 183.712616 146.099586 
C 182.730036 145.207615 181.397186 144.70644 180.007609 144.70644 
C 178.618033 144.70644 177.285182 145.207615 176.302603 146.099586 
C 175.320024 146.991558 174.76794 148.201501 174.76794 149.46294 
C 174.76794 150.724378 175.320024 151.934322 176.302603 152.826293 
C 177.285182 153.718265 178.618033 154.21944 180.007609 154.21944 
z
" style="fill:#ff0000;"/>
   </g>
   <g id="patch_7">
    <path clip-path="url(#pc36fcf6df7)" d="M 180.007609 167.80944 
C 181.397186 167.80944 182.730036 167.308265 183.712616 166.416293 
C 184.695195 165.524322 185.247279 164.314378 185.247279 163.05294 
C 185.247279 161.791501 184.695195 160.581558 183.712616 159.689586 
C 182.730036 158.797615 181.397186 158.29644 180.007609 158.29644 
C 178.618033 158.29644 177.285182 158.797615 176.302603 159.689586 
C 175.320024 160.581558 174.76794 161.791501 174.76794 163.05294 
C 174.76794 164.314378 175.320024 165.524322 176.302603 166.416293 
C 177.285182 167.308265 178.618033 167.80944 180.007609 167.80944 
z
" style="fill:#ff0000;"/>
   </g>
   <g id="patch_8">
    <path clip-path="url(#pc36fcf6df7)" d="M 180.007609 181.39944 
C 181.397186 181.39944 182.730036 180.898265 183.712616 180.006293 
C 184.695195 179.114322 185.247279 177.904378 185.247279 176.64294 
C 185.247279 175.381501 184.695195 174.171558 183.712616 173.279586 
C 182.730036 172.387615 181.397186 171.88644 180.007609 171.88644 
C 178.618033 171.88644 177.285182 172.387615 176.302603 173.279586 
C 175.320024 174.171558 174.76794 175.381501 174.76794 176.64294 
C 174.76794 177.904378 175.320024 179.114322 176.302603 180.006293 
C 177.285182 180.898265 178.618033 181.39944 180.007609 181.39944 
z
" style="fill:#ff0000;"/>
   </g>
   <g id="patch_9">
    <path clip-path="url(#pc36fcf6df7)" d="M 180.007609 194.98944 
C 181.397186 194.98944 182.730036 194.488265 183.712616 193.596293 
C 184.695195 192.704322 185.247279 191.494378 185.247279 190.23294 
C 185.247279 188.971501 184.695195 187.761558 183.712616 186.869586 
C 182.730036 185.977615 181.397186 185.47644 180.007609 185.47644 
C 178.618033 185.47644 177.285182 185.977615 176.302603 186.869586 
C 175.320024 187.761558 174.76794 188.971501 174.76794 190.23294 
C 174.76794 191.494378 175.320024 192.704322 176.302603 193.596293 
C 177.285182 194.488265 178.618033 194.98944 180.007609 194.98944 
z
" style="fill:#ff0000;"/>
   </g>
   <g id="patch_10">
    <path clip-path="url(#pc36fcf6df7)" d="M 180.007609 208.57944 
C 181.397186 208.57944 182.730036 208.078265 183.712616 207.186293 
C 184.695195 206.294322 185.247279 205.084378 185.247279 203.82294 
C 185.247279 202.561501 184.695195 201.351558 183.712616 200.459586 
C 182.730036 199.567615 181.397186 199.06644 180.007609 199.06644 
C 178.618033 199.06644 177.285182 199.567615 176.302603 200.459586 
C 175.320024 201.351558 174.76794 202.561501 174.76794 203.82294 
C 174.76794 205.084378 175.320024 206.294322 176.302603 207.186293 
C 177.285182 208.078265 178.618033 208.57944 180.007609 208.57944 
z
" style="fill:#0000ff;"/>
   </g>
   <g id="patch_11">
    <path clip-path="url(#pc36fcf6df7)" d="M 180.007609 222.16944 
C 181.397186 222.16944 182.730036 221.668265 183.712616 220.776293 
C 184.695195 219.884322 185.247279 218.674378 185.247279 217.41294 
C 185.247279 216.151501 184.695195 214.941558 183.712616 214.049586 
C 182.730036 213.157615 181.397186 212.65644 180.007609 212.65644 
C 178.618033 212.65644 177.285182 213.157615 176.302603 214.049586 
C 175.320024 214.941558 174.76794 216.151501 174.76794 217.41294 
C 174.76794 218.674378 175.320024 219.884322 176.302603 220.776293 
C 177.285182 221.668265 178.618033 222.16944 180.007609 222.16944 
z
" style="fill:#0000ff;"/>
   </g>
   <g id="patch_12">
    <path clip-path="url(#pc36fcf6df7)" d="M 180.007609 235.75944 
C 181.397186 235.75944 182.730036 235.258265 183.712616 234.366293 
C 184.695195 233.474322 185.247279 232.264378 185.247279 231.00294 
C 185.247279 229.741501 184.695195 228.531558 183.712616 227.639586 
C 182.730036 226.747615 181.397186 226.24644 180.007609 226.24644 
C 178.618033 226.24644 177.285182 226.747615 176.302603 227.639586 
C 175.320024 228.531558 174.76794 229.741501 174.76794 231.00294 
C 174.76794 232.264378 175.320024 233.474322 176.302603 234.366293 
C 177.285182 235.258265 178.618033 235.75944 180.007609 235.75944 
z
" style="fill:#0000ff;"/>
   </g>
   <g id="patch_13">
    <path clip-path="url(#pc36fcf6df7)" d="M 180.007609 249.34944 
C 181.397186 249.34944 182.730036 248.848265 183.712616 247.956293 
C 184.695195 247.064322 185.247279 245.854378 185.247279 244.59294 
C 185.247279 243.331501 184.695195 242.121558 183.712616 241.229586 
C 182.730036 240.337615 181.397186 239.83644 180.007609 239.83644 
C 178.618033 239.83644 177.285182 240.337615 176.302603 241.229586 
C 175.320024 242.121558 174.76794 243.331501 174.76794 244.59294 
C 174.76794 245.854378 175.320024 247.064322 176.302603 247.956293 
C 177.285182 248.848265 178.618033 249.34944 180.007609 249.34944 
z
" style="fill:#0000ff;"/>
   </g>
   <g id="patch_14">
    <path clip-path="url(#pc36fcf6df7)" d="M 180.007609 262.93944 
C 181.397186 262.93944 182.730036 262.438265 183.712616 261.546293 
C 184.695195 260.654322 185.247279 259.444378 185.247279 258.18294 
C 185.247279 256.921501 184.695195 255.711558 183.712616 254.819586 
C 182.730036 253.927615 181.397186 253.42644 180.007609 253.42644 
C 178.618033 253.42644 177.285182 253.927615 176.302603 254.819586 
C 175.320024 255.711558 174.76794 256.921501 174.76794 258.18294 
C 174.76794 259.444378 175.320024 260.654322 176.302603 261.546293 
C 177.285182 262.438265 178.618033 262.93944 180.007609 262.93944 
z
" style="fill:#0000ff;"/>
   </g>
   <g id="patch_15">
    <path clip-path="url(#pc36fcf6df7)" d="M 180.007609 276.52944 
C 181.397186 276.52944 182.730036 276.028265 183.712616 275.136293 
C 184.695195 274.244322 185.247279 273.034378 185.247279 271.77294 
C 185.247279 270.511501 184.695195 269.301558 183.712616 268.409586 
C 182.730036 267.517615 181.397186 267.01644 180.007609 267.01644 
C 178.618033 267.01644 177.285182 267.517615 176.302603 268.409586 
C 175.320024 269.301558 174.76794 270.511501 174.76794 271.77294 
C 174.76794 273.034378 175.320024 274.244322 176.302603 275.136293 
C 177.285182 276.028265 178.618033 276.52944 180.007609 276.52944 
z
" style="fill:#0000ff;"/>
   </g>
   <g id="patch_16">
    <path clip-path="url(#pc36fcf6df7)" d="M 180.007609 290.11944 
C 181.397186 290.11944 182.730036 289.618265 183.712616 288.726293 
C 184.695195 287.834322 185.247279 286.624378 185.247279 285.36294 
C 185.247279 284.101501 184.695195 282.891558 183.712616 281.999586 
C 182.730036 281.107615 181.397186 280.60644 180.007609 280.60644 
C 178.618033 280.60644 177.285182 281.107615 176.302603 281.999586 
C 175.320024 282.891558 174.76794 284.101501 174.76794 285.36294 
C 174.76794 286.624378 175.320024 287.834322 176.302603 288.726293 
C 177.285182 289.618265 178.618033 290.11944 180.007609 290.11944 
z
" style="fill:#800080;"/>
   </g>
   <g id="patch_17">
    <path clip-path="url(#pc36fcf6df7)" d="M 180.007609 298.95294 
L 180.007609 312.54294 
" style="fill:#1f77b4;stroke:#000000;stroke-linejoin:miter;"/>
   </g>
   <g id="patch_18">
    <path clip-path="url(#pc36fcf6df7)" d="M 180.007609 303.70944 
C 181.397186 303.70944 182.730036 303.208265 183.712616 302.316293 
C 184.695195 301.424322 185.247279 300.214378 185.247279 298.95294 
C 185.247279 297.691501 184.695195 296.481558 183.712616 295.589586 
C 182.730036 294.697615 181.397186 294.19644 180.007609 294.19644 
C 178.618033 294.19644 177.285182 294.697615 176.302603 295.589586 
C 175.320024 296.481558 174.76794 297.691501 174.76794 298.95294 
C 174.76794 300.214378 175.320024 301.424322 176.302603 302.316293 
C 177.285182 303.208265 178.618033 303.70944 180.007609 303.70944 
z
" style="fill:#ff0000;"/>
   </g>
   <g id="patch_19">
    <path clip-path="url(#pc36fcf6df7)" d="M 180.007609 317.29944 
C 181.397186 317.29944 182.730036 316.798265 183.712616 315.906293 
C 184.695195 315.014322 185.247279 313.804378 185.247279 312.54294 
C 185.247279 311.281501 184.695195 310.071558 183.712616 309.179586 
C 182.730036 308.287615 181.397186 307.78644 180.007609 307.78644 
C 178.618033 307.78644 177.285182 308.287615 176.302603 309.179586 
C 175.320024 310.071558 174.76794 311.281501 174.76794 312.54294 
C 174.76794 313.804378 175.320024 315.014322 176.302603 315.906293 
C 177.285182 316.798265 178.618033 317.29944 180.007609 317.29944 
z
" style="fill:#ff0000;"/>
   </g>
   <g id="patch_20">
    <path clip-path="url(#pc36fcf6df7)" d="M 180.007609 326.13294 
L 180.007609 339.72294 
" style="fill:#1f77b4;stroke:#000000;stroke-linejoin:miter;"/>
   </g>
   <g id="patch_21">
    <path clip-path="url(#pc36fcf6df7)" d="M 180.007609 330.88944 
C 181.397186 330.88944 182.730036 330.388265 183.712616 329.496293 
C 184.695195 328.604322 185.247279 327.394378 185.247279 326.13294 
C 185.247279 324.871501 184.695195 323.661558 183.712616 322.769586 
C 182.730036 321.877615 181.397186 321.37644 180.007609 321.37644 
C 178.618033 321.37644 177.285182 321.877615 176.302603 322.769586 
C 175.320024 323.661558 174.76794 324.871501 174.76794 326.13294 
C 174.76794 327.394378 175.320024 328.604322 176.302603 329.496293 
C 177.285182 330.388265 178.618033 330.88944 180.007609 330.88944 
z
" style="fill:#ff0000;"/>
   </g>
   <g id="patch_22">
    <path clip-path="url(#pc36fcf6df7)" d="M 180.007609 344.47944 
C 181.397186 344.47944 182.730036 343.978265 183.712616 343.086293 
C 184.695195 342.194322 185.247279 340.984378 185.247279 339.72294 
C 185.247279 338.461501 184.695195 337.251558 183.712616 336.359586 
C 182.730036 335.467615 181.397186 334.96644 180.007609 334.96644 
C 178.618033 334.96644 177.285182 335.467615 176.302603 336.359586 
C 175.320024 337.251558 174.76794 338.461501 174.76794 339.72294 
C 174.76794 340.984378 175.320024 342.194322 176.302603 343.086293 
C 177.285182 343.978265 178.618033 344.47944 180.007609 344.47944 
z
" style="fill:#ff0000;"/>
   </g>
   <g id="patch_23">
    <path clip-path="url(#pc36fcf6df7)" d="M 180.007609 376.718835 
L 224.919065 370.689369 
" style="fill:#1f77b4;stroke:#000000;stroke-linejoin:miter;"/>
   </g>
   <g id="patch_24">
    <path clip-path="url(#pc36fcf6df7)" d="M 180.007609 376.718835 
L 205.769109 394.08294 
" style="fill:#1f77b4;stroke:#000000;stroke-linejoin:miter;"/>
   </g>
   <g id="patch_25">
    <path clip-path="url(#pc36fcf6df7)" d="M 180.007609 376.718835 
L 199.110527 353.31294 
" style="fill:#1f77b4;stroke:#000000;stroke-linejoin:miter;"/>
   </g>
   <g id="patch_26">
    <path clip-path="url(#pc36fcf6df7)" d="M 224.919065 370.689369 
L 205.769109 394.08294 
" style="fill:#1f77b4;stroke:#000000;stroke-linejoin:miter;"/>
   </g>
   <g id="patch_27">
    <path clip-path="url(#pc36fcf6df7)" d="M 224.919065 370.689369 
L 199.110527 353.31294 
" style="fill:#1f77b4;stroke:#000000;stroke-linejoin:miter;"/>
   </g>
   <g id="patch_28">
    <path clip-path="url(#pc36fcf6df7)" d="M 205.769109 394.08294 
L 199.110527 353.31294 
" style="fill:#1f77b4;stroke:#000000;stroke-linejoin:miter;"/>
   </g>
   <g id="patch_29">
    <path clip-path="url(#pc36fcf6df7)" d="M 180.007609 381.475335 
C 181.397186 381.475335 182.730036 380.97416 183.712616 380.082189 
C 184.695195 379.190217 185.247279 377.980274 185.247279 376.718835 
C 185.247279 375.457397 184.695195 374.247454 183.712616 373.355482 
C 182.730036 372.46351 181.397186 371.962335 180.007609 371.962335 
C 178.618033 371.962335 177.285182 372.46351 176.302603 373.355482 
C 175.320024 374.247454 174.76794 375.457397 174.76794 376.718835 
C 174.76794 377.980274 175.320024 379.190217 176.302603 380.082189 
C 177.285182 380.97416 178.618033 381.475335 180.007609 381.475335 
z
" style="fill:#ff0000;"/>
   </g>
   <g id="patch_30">
    <path clip-path="url(#pc36fcf6df7)" d="M 224.919065 375.445869 
C 226.308642 375.445869 227.641492 374.944694 228.624071 374.052722 
C 229.606651 373.160751 230.158735 371.950807 230.158735 370.689369 
C 230.158735 369.42793 229.606651 368.217987 228.624071 367.326015 
C 227.641492 366.434044 226.308642 365.932869 224.919065 365.932869 
C 223.529489 365.932869 222.196638 366.434044 221.214059 367.326015 
C 220.23148 368.217987 219.679396 369.42793 219.679396 370.689369 
C 219.679396 371.950807 220.23148 373.160751 221.214059 374.052722 
C 222.196638 374.944694 223.529489 375.445869 224.919065 375.445869 
z
" style="fill:#ff0000;"/>
   </g>
   <g id="patch_31">
    <path clip-path="url(#pc36fcf6df7)" d="M 205.769109 398.83944 
C 207.158686 398.83944 208.491536 398.338265 209.474115 397.446293 
C 210.456694 396.554322 211.008779 395.344378 211.008779 394.08294 
C 211.008779 392.821501 210.456694 391.611558 209.474115 390.719586 
C 208.491536 389.827615 207.158686 389.32644 205.769109 389.32644 
C 204.379532 389.32644 203.046682 389.827615 202.064103 390.719586 
C 201.081524 391.611558 200.529439 392.821501 200.529439 394.08294 
C 200.529439 395.344378 201.081524 396.554322 202.064103 397.446293 
C 203.046682 398.338265 204.379532 398.83944 205.769109 398.83944 
z
" style="fill:#ff0000;"/>
   </g>
   <g id="patch_32">
    <path clip-path="url(#pc36fcf6df7)" d="M 199.110527 358.06944 
C 200.500104 358.06944 201.832954 357.568265 202.815533 356.676293 
C 203.798112 355.784322 204.350197 354.574378 204.350197 353.31294 
C 204.350197 352.051501 203.798112 350.841558 202.815533 349.949586 
C 201.832954 349.057615 200.500104 348.55644 199.110527 348.55644 
C 197.72095 348.55644 196.3881 349.057615 195.405521 349.949586 
C 194.422942 350.841558 193.870857 352.051501 193.870857 353.31294 
C 193.870857 354.574378 194.422942 355.784322 195.405521 356.676293 
C 196.3881 357.568265 197.72095 358.06944 199.110527 358.06944 
z
" style="fill:#ff0000;"/>
   </g>
   <g id="patch_33">
    <path clip-path="url(#pc36fcf6df7)" d="M 180.007609 431.078835 
L 224.919065 425.049369 
" style="fill:#1f77b4;stroke:#000000;stroke-linejoin:miter;"/>
   </g>
   <g id="patch_34">
    <path clip-path="url(#pc36fcf6df7)" d="M 180.007609 431.078835 
L 199.11353 407.67294 
" style="fill:#1f77b4;stroke:#000000;stroke-linejoin:miter;"/>
   </g>
   <g id="patch_35">
    <path clip-path="url(#pc36fcf6df7)" d="M 180.007609 431.078835 
L 205.766111 448.44294 
" style="fill:#1f77b4;stroke:#000000;stroke-linejoin:miter;"/>
   </g>
   <g id="patch_36">
    <path clip-path="url(#pc36fcf6df7)" d="M 224.919065 425.049369 
L 199.11353 407.67294 
" style="fill:#1f77b4;stroke:#000000;stroke-linejoin:miter;"/>
   </g>
   <g id="patch_37">
    <path clip-path="url(#pc36fcf6df7)" d="M 224.919065 425.049369 
L 205.766111 448.44294 
" style="fill:#1f77b4;stroke:#000000;stroke-linejoin:miter;"/>
   </g>
   <g id="patch_38">
    <path clip-path="url(#pc36fcf6df7)" d="M 205.766111 448.44294 
L 199.11353 407.67294 
" style="fill:#1f77b4;stroke:#000000;stroke-linejoin:miter;"/>
   </g>
   <g id="patch_39">
    <path clip-path="url(#pc36fcf6df7)" d="M 180.007609 435.835335 
C 181.397186 435.835335 182.730036 435.33416 183.712616 434.442189 
C 184.695195 433.550217 185.247279 432.340274 185.247279 431.078835 
C 185.247279 429.817397 184.695195 428.607454 183.712616 427.715482 
C 182.730036 426.82351 181.397186 426.322335 180.007609 426.322335 
C 178.618033 426.322335 177.285182 426.82351 176.302603 427.715482 
C 175.320024 428.607454 174.76794 429.817397 174.76794 431.078835 
C 174.76794 432.340274 175.320024 433.550217 176.302603 434.442189 
C 177.285182 435.33416 178.618033 435.835335 180.007609 435.835335 
z
" style="fill:#0000ff;"/>
   </g>
   <g id="patch_40">
    <path clip-path="url(#pc36fcf6df7)" d="M 224.919065 429.805869 
C 226.308642 429.805869 227.641492 429.304694 228.624071 428.412722 
C 229.606651 427.520751 230.158735 426.310807 230.158735 425.049369 
C 230.158735 423.78793 229.606651 422.577987 228.624071 421.686015 
C 227.641492 420.794044 226.308642 420.292869 224.919065 420.292869 
C 223.529489 420.292869 222.196638 420.794044 221.214059 421.686015 
C 220.23148 422.577987 219.679396 423.78793 219.679396 425.049369 
C 219.679396 426.310807 220.23148 427.520751 221.214059 428.412722 
C 222.196638 429.304694 223.529489 429.805869 224.919065 429.805869 
z
" style="fill:#0000ff;"/>
   </g>
   <g id="patch_41">
    <path clip-path="url(#pc36fcf6df7)" d="M 205.766111 453.19944 
C 207.155688 453.19944 208.488538 452.698265 209.471118 451.806293 
C 210.453697 450.914322 211.005781 449.704378 211.005781 448.44294 
C 211.005781 447.181501 210.453697 445.971558 209.471118 445.079586 
C 208.488538 444.187615 207.155688 443.68644 205.766111 443.68644 
C 204.376535 443.68644 203.043684 444.187615 202.061105 445.079586 
C 201.078526 445.971558 200.526442 447.181501 200.526442 448.44294 
C 200.526442 449.704378 201.078526 450.914322 202.061105 451.806293 
C 203.043684 452.698265 204.376535 453.19944 205.766111 453.19944 
z
" style="fill:#0000ff;"/>
   </g>
   <g id="patch_42">
    <path clip-path="url(#pc36fcf6df7)" d="M 199.11353 412.42944 
C 200.503107 412.42944 201.835957 411.928265 202.818536 411.036293 
C 203.801115 410.144322 204.3532 408.934378 204.3532 407.67294 
C 204.3532 406.411501 203.801115 405.201558 202.818536 404.309586 
C 201.835957 403.417615 200.503107 402.91644 199.11353 402.91644 
C 197.723954 402.91644 196.391103 403.417615 195.408524 404.309586 
C 194.425945 405.201558 193.87386 406.411501 193.87386 407.67294 
C 193.87386 408.934378 194.425945 410.144322 195.408524 411.036293 
C 196.391103 411.928265 197.723954 412.42944 199.11353 412.42944 
z
" style="fill:#0000ff;"/>
   </g>
   <g id="patch_43">
    <path clip-path="url(#pc36fcf6df7)" d="M 223.450766 597.797198 
L 348.05089 602.699957 
" style="fill:#1f77b4;stroke:#000000;stroke-linejoin:miter;"/>
   </g>
   <g id="patch_44">
    <path clip-path="url(#pc36fcf6df7)" d="M 223.450766 597.797198 
L 182.215247 583.654162 
" style="fill:#1f77b4;stroke:#000000;stroke-linejoin:miter;"/>
   </g>
   <g id="patch_45">
    <path clip-path="url(#pc36fcf6df7)" d="M 223.450766 597.797198 
L 200.165444 540.338769 
" style="fill:#1f77b4;stroke:#000000;stroke-linejoin:miter;"/>
   </g>
   <g id="patch_46">
    <path clip-path="url(#pc36fcf6df7)" d="M 223.450766 597.797198 
L 273.306585 529.793823 
" style="fill:#1f77b4;stroke:#000000;stroke-linejoin:miter;"/>
   </g>
   <g id="patch_47">
    <path clip-path="url(#pc36fcf6df7)" d="M 223.450766 597.797198 
L 186.57796 552.901343 
" style="fill:#1f77b4;stroke:#000000;stroke-linejoin:miter;"/>
   </g>
   <g id="patch_48">
    <path clip-path="url(#pc36fcf6df7)" d="M 223.450766 597.797198 
L 228.260262 614.580312 
" style="fill:#1f77b4;stroke:#000000;stroke-linejoin:miter;"/>
   </g>
   <g id="patch_49">
    <path clip-path="url(#pc36fcf6df7)" d="M 223.450766 597.797198 
L 305.553864 581.594696 
" style="fill:#1f77b4;stroke:#000000;stroke-linejoin:miter;"/>
   </g>
   <g id="patch_50">
    <path clip-path="url(#pc36fcf6df7)" d="M 223.450766 597.797198 
L 253.779503 613.870769 
" style="fill:#1f77b4;stroke:#000000;stroke-linejoin:miter;"/>
   </g>
   <g id="patch_51">
    <path clip-path="url(#pc36fcf6df7)" d="M 223.450766 597.797198 
L 192.097054 600.090617 
" style="fill:#1f77b4;stroke:#000000;stroke-linejoin:miter;"/>
   </g>
   <g id="patch_52">
    <path clip-path="url(#pc36fcf6df7)" d="M 223.450766 597.797198 
L 277.971533 611.609796 
" style="fill:#1f77b4;stroke:#000000;stroke-linejoin:miter;"/>
   </g>
   <g id="patch_53">
    <path clip-path="url(#pc36fcf6df7)" d="M 223.450766 597.797198 
L 314.410696 565.813992 
" style="fill:#1f77b4;stroke:#000000;stroke-linejoin:miter;"/>
   </g>
   <g id="patch_54">
    <path clip-path="url(#pc36fcf6df7)" d="M 223.450766 597.797198 
L 224.580866 574.659793 
" style="fill:#1f77b4;stroke:#000000;stroke-linejoin:miter;"/>
   </g>
   <g id="patch_55">
    <path clip-path="url(#pc36fcf6df7)" d="M 223.450766 597.797198 
L 308.379115 548.454535 
" style="fill:#1f77b4;stroke:#000000;stroke-linejoin:miter;"/>
   </g>
   <g id="patch_56">
    <path clip-path="url(#pc36fcf6df7)" d="M 223.450766 597.797198 
L 220.296998 530.758664 
" style="fill:#1f77b4;stroke:#000000;stroke-linejoin:miter;"/>
   </g>
   <g id="patch_57">
    <path clip-path="url(#pc36fcf6df7)" d="M 223.450766 597.797198 
L 296.09256 598.236926 
" style="fill:#1f77b4;stroke:#000000;stroke-linejoin:miter;"/>
   </g>
   <g id="patch_58">
    <path clip-path="url(#pc36fcf6df7)" d="M 223.450766 597.797198 
L 269.338093 567.818813 
" style="fill:#1f77b4;stroke:#000000;stroke-linejoin:miter;"/>
   </g>
   <g id="patch_59">
    <path clip-path="url(#pc36fcf6df7)" d="M 223.450766 597.797198 
L 180.007609 567.746236 
" style="fill:#1f77b4;stroke:#000000;stroke-linejoin:miter;"/>
   </g>
   <g id="patch_60">
    <path clip-path="url(#pc36fcf6df7)" d="M 223.450766 597.797198 
L 240.809632 554.579142 
" style="fill:#1f77b4;stroke:#000000;stroke-linejoin:miter;"/>
   </g>
   <g id="patch_61">
    <path clip-path="url(#pc36fcf6df7)" d="M 223.450766 597.797198 
L 284.47618 548.95574 
" style="fill:#1f77b4;stroke:#000000;stroke-linejoin:miter;"/>
   </g>
   <g id="patch_62">
    <path clip-path="url(#pc36fcf6df7)" d="M 223.450766 597.797198 
L 260.415557 589.955515 
" style="fill:#1f77b4;stroke:#000000;stroke-linejoin:miter;"/>
   </g>
   <g id="patch_63">
    <path clip-path="url(#pc36fcf6df7)" d="M 223.450766 597.797198 
L 253.385282 530.878202 
" style="fill:#1f77b4;stroke:#000000;stroke-linejoin:miter;"/>
   </g>
   <g id="patch_64">
    <path clip-path="url(#pc36fcf6df7)" d="M 348.05089 602.699957 
L 228.260262 614.580312 
" style="fill:#1f77b4;stroke:#000000;stroke-linejoin:miter;"/>
   </g>
   <g id="patch_65">
    <path clip-path="url(#pc36fcf6df7)" d="M 348.05089 602.699957 
L 305.553864 581.594696 
" style="fill:#1f77b4;stroke:#000000;stroke-linejoin:miter;"/>
   </g>
   <g id="patch_66">
    <path clip-path="url(#pc36fcf6df7)" d="M 348.05089 602.699957 
L 253.779503 613.870769 
" style="fill:#1f77b4;stroke:#000000;stroke-linejoin:miter;"/>
   </g>
   <g id="patch_67">
    <path clip-path="url(#pc36fcf6df7)" d="M 348.05089 602.699957 
L 277.971533 611.609796 
" style="fill:#1f77b4;stroke:#000000;stroke-linejoin:miter;"/>
   </g>
   <g id="patch_68">
    <path clip-path="url(#pc36fcf6df7)" d="M 348.05089 602.699957 
L 314.410696 565.813992 
" style="fill:#1f77b4;stroke:#000000;stroke-linejoin:miter;"/>
   </g>
   <g id="patch_69">
    <path clip-path="url(#pc36fcf6df7)" d="M 348.05089 602.699957 
L 224.580866 574.659793 
" style="fill:#1f77b4;stroke:#000000;stroke-linejoin:miter;"/>
   </g>
   <g id="patch_70">
    <path clip-path="url(#pc36fcf6df7)" d="M 348.05089 602.699957 
L 308.379115 548.454535 
" style="fill:#1f77b4;stroke:#000000;stroke-linejoin:miter;"/>
   </g>
   <g id="patch_71">
    <path clip-path="url(#pc36fcf6df7)" d="M 348.05089 602.699957 
L 240.809632 554.579142 
" style="fill:#1f77b4;stroke:#000000;stroke-linejoin:miter;"/>
   </g>
   <g id="patch_72">
    <path clip-path="url(#pc36fcf6df7)" d="M 348.05089 602.699957 
L 284.47618 548.95574 
" style="fill:#1f77b4;stroke:#000000;stroke-linejoin:miter;"/>
   </g>
   <g id="patch_73">
    <path clip-path="url(#pc36fcf6df7)" d="M 348.05089 602.699957 
L 260.415557 589.955515 
" style="fill:#1f77b4;stroke:#000000;stroke-linejoin:miter;"/>
   </g>
   <g id="patch_74">
    <path clip-path="url(#pc36fcf6df7)" d="M 348.05089 602.699957 
L 253.385282 530.878202 
" style="fill:#1f77b4;stroke:#000000;stroke-linejoin:miter;"/>
   </g>
   <g id="patch_75">
    <path clip-path="url(#pc36fcf6df7)" d="M 182.215247 583.654162 
L 200.165444 540.338769 
" style="fill:#1f77b4;stroke:#000000;stroke-linejoin:miter;"/>
   </g>
   <g id="patch_76">
    <path clip-path="url(#pc36fcf6df7)" d="M 182.215247 583.654162 
L 273.306585 529.793823 
" style="fill:#1f77b4;stroke:#000000;stroke-linejoin:miter;"/>
   </g>
   <g id="patch_77">
    <path clip-path="url(#pc36fcf6df7)" d="M 182.215247 583.654162 
L 186.57796 552.901343 
" style="fill:#1f77b4;stroke:#000000;stroke-linejoin:miter;"/>
   </g>
   <g id="patch_78">
    <path clip-path="url(#pc36fcf6df7)" d="M 182.215247 583.654162 
L 228.260262 614.580312 
" style="fill:#1f77b4;stroke:#000000;stroke-linejoin:miter;"/>
   </g>
   <g id="patch_79">
    <path clip-path="url(#pc36fcf6df7)" d="M 182.215247 583.654162 
L 305.553864 581.594696 
" style="fill:#1f77b4;stroke:#000000;stroke-linejoin:miter;"/>
   </g>
   <g id="patch_80">
    <path clip-path="url(#pc36fcf6df7)" d="M 182.215247 583.654162 
L 253.779503 613.870769 
" style="fill:#1f77b4;stroke:#000000;stroke-linejoin:miter;"/>
   </g>
   <g id="patch_81">
    <path clip-path="url(#pc36fcf6df7)" d="M 182.215247 583.654162 
L 192.097054 600.090617 
" style="fill:#1f77b4;stroke:#000000;stroke-linejoin:miter;"/>
   </g>
   <g id="patch_82">
    <path clip-path="url(#pc36fcf6df7)" d="M 182.215247 583.654162 
L 277.971533 611.609796 
" style="fill:#1f77b4;stroke:#000000;stroke-linejoin:miter;"/>
   </g>
   <g id="patch_83">
    <path clip-path="url(#pc36fcf6df7)" d="M 182.215247 583.654162 
L 314.410696 565.813992 
" style="fill:#1f77b4;stroke:#000000;stroke-linejoin:miter;"/>
   </g>
   <g id="patch_84">
    <path clip-path="url(#pc36fcf6df7)" d="M 182.215247 583.654162 
L 224.580866 574.659793 
" style="fill:#1f77b4;stroke:#000000;stroke-linejoin:miter;"/>
   </g>
   <g id="patch_85">
    <path clip-path="url(#pc36fcf6df7)" d="M 182.215247 583.654162 
L 308.379115 548.454535 
" style="fill:#1f77b4;stroke:#000000;stroke-linejoin:miter;"/>
   </g>
   <g id="patch_86">
    <path clip-path="url(#pc36fcf6df7)" d="M 182.215247 583.654162 
L 220.296998 530.758664 
" style="fill:#1f77b4;stroke:#000000;stroke-linejoin:miter;"/>
   </g>
   <g id="patch_87">
    <path clip-path="url(#pc36fcf6df7)" d="M 182.215247 583.654162 
L 296.09256 598.236926 
" style="fill:#1f77b4;stroke:#000000;stroke-linejoin:miter;"/>
   </g>
   <g id="patch_88">
    <path clip-path="url(#pc36fcf6df7)" d="M 182.215247 583.654162 
L 269.338093 567.818813 
" style="fill:#1f77b4;stroke:#000000;stroke-linejoin:miter;"/>
   </g>
   <g id="patch_89">
    <path clip-path="url(#pc36fcf6df7)" d="M 182.215247 583.654162 
L 180.007609 567.746236 
" style="fill:#1f77b4;stroke:#000000;stroke-linejoin:miter;"/>
   </g>
   <g id="patch_90">
    <path clip-path="url(#pc36fcf6df7)" d="M 182.215247 583.654162 
L 240.809632 554.579142 
" style="fill:#1f77b4;stroke:#000000;stroke-linejoin:miter;"/>
   </g>
   <g id="patch_91">
    <path clip-path="url(#pc36fcf6df7)" d="M 182.215247 583.654162 
L 284.47618 548.95574 
" style="fill:#1f77b4;stroke:#000000;stroke-linejoin:miter;"/>
   </g>
   <g id="patch_92">
    <path clip-path="url(#pc36fcf6df7)" d="M 182.215247 583.654162 
L 260.415557 589.955515 
" style="fill:#1f77b4;stroke:#000000;stroke-linejoin:miter;"/>
   </g>
   <g id="patch_93">
    <path clip-path="url(#pc36fcf6df7)" d="M 182.215247 583.654162 
L 253.385282 530.878202 
" style="fill:#1f77b4;stroke:#000000;stroke-linejoin:miter;"/>
   </g>
   <g id="patch_94">
    <path clip-path="url(#pc36fcf6df7)" d="M 200.165444 540.338769 
L 273.306585 529.793823 
" style="fill:#1f77b4;stroke:#000000;stroke-linejoin:miter;"/>
   </g>
   <g id="patch_95">
    <path clip-path="url(#pc36fcf6df7)" d="M 200.165444 540.338769 
L 186.57796 552.901343 
" style="fill:#1f77b4;stroke:#000000;stroke-linejoin:miter;"/>
   </g>
   <g id="patch_96">
    <path clip-path="url(#pc36fcf6df7)" d="M 200.165444 540.338769 
L 228.260262 614.580312 
" style="fill:#1f77b4;stroke:#000000;stroke-linejoin:miter;"/>
   </g>
   <g id="patch_97">
    <path clip-path="url(#pc36fcf6df7)" d="M 200.165444 540.338769 
L 305.553864 581.594696 
" style="fill:#1f77b4;stroke:#000000;stroke-linejoin:miter;"/>
   </g>
   <g id="patch_98">
    <path clip-path="url(#pc36fcf6df7)" d="M 200.165444 540.338769 
L 253.779503 613.870769 
" style="fill:#1f77b4;stroke:#000000;stroke-linejoin:miter;"/>
   </g>
   <g id="patch_99">
    <path clip-path="url(#pc36fcf6df7)" d="M 200.165444 540.338769 
L 192.097054 600.090617 
" style="fill:#1f77b4;stroke:#000000;stroke-linejoin:miter;"/>
   </g>
   <g id="patch_100">
    <path clip-path="url(#pc36fcf6df7)" d="M 200.165444 540.338769 
L 277.971533 611.609796 
" style="fill:#1f77b4;stroke:#000000;stroke-linejoin:miter;"/>
   </g>
   <g id="patch_101">
    <path clip-path="url(#pc36fcf6df7)" d="M 200.165444 540.338769 
L 314.410696 565.813992 
" style="fill:#1f77b4;stroke:#000000;stroke-linejoin:miter;"/>
   </g>
   <g id="patch_102">
    <path clip-path="url(#pc36fcf6df7)" d="M 200.165444 540.338769 
L 224.580866 574.659793 
" style="fill:#1f77b4;stroke:#000000;stroke-linejoin:miter;"/>
   </g>
   <g id="patch_103">
    <path clip-path="url(#pc36fcf6df7)" d="M 200.165444 540.338769 
L 308.379115 548.454535 
" style="fill:#1f77b4;stroke:#000000;stroke-linejoin:miter;"/>
   </g>
   <g id="patch_104">
    <path clip-path="url(#pc36fcf6df7)" d="M 200.165444 540.338769 
L 220.296998 530.758664 
" style="fill:#1f77b4;stroke:#000000;stroke-linejoin:miter;"/>
   </g>
   <g id="patch_105">
    <path clip-path="url(#pc36fcf6df7)" d="M 200.165444 540.338769 
L 296.09256 598.236926 
" style="fill:#1f77b4;stroke:#000000;stroke-linejoin:miter;"/>
   </g>
   <g id="patch_106">
    <path clip-path="url(#pc36fcf6df7)" d="M 200.165444 540.338769 
L 269.338093 567.818813 
" style="fill:#1f77b4;stroke:#000000;stroke-linejoin:miter;"/>
   </g>
   <g id="patch_107">
    <path clip-path="url(#pc36fcf6df7)" d="M 200.165444 540.338769 
L 180.007609 567.746236 
" style="fill:#1f77b4;stroke:#000000;stroke-linejoin:miter;"/>
   </g>
   <g id="patch_108">
    <path clip-path="url(#pc36fcf6df7)" d="M 200.165444 540.338769 
L 240.809632 554.579142 
" style="fill:#1f77b4;stroke:#000000;stroke-linejoin:miter;"/>
   </g>
   <g id="patch_109">
    <path clip-path="url(#pc36fcf6df7)" d="M 200.165444 540.338769 
L 284.47618 548.95574 
" style="fill:#1f77b4;stroke:#000000;stroke-linejoin:miter;"/>
   </g>
   <g id="patch_110">
    <path clip-path="url(#pc36fcf6df7)" d="M 200.165444 540.338769 
L 260.415557 589.955515 
" style="fill:#1f77b4;stroke:#000000;stroke-linejoin:miter;"/>
   </g>
   <g id="patch_111">
    <path clip-path="url(#pc36fcf6df7)" d="M 200.165444 540.338769 
L 253.385282 530.878202 
" style="fill:#1f77b4;stroke:#000000;stroke-linejoin:miter;"/>
   </g>
   <g id="patch_112">
    <path clip-path="url(#pc36fcf6df7)" d="M 273.306585 529.793823 
L 186.57796 552.901343 
" style="fill:#1f77b4;stroke:#000000;stroke-linejoin:miter;"/>
   </g>
   <g id="patch_113">
    <path clip-path="url(#pc36fcf6df7)" d="M 273.306585 529.793823 
L 228.260262 614.580312 
" style="fill:#1f77b4;stroke:#000000;stroke-linejoin:miter;"/>
   </g>
   <g id="patch_114">
    <path clip-path="url(#pc36fcf6df7)" d="M 273.306585 529.793823 
L 305.553864 581.594696 
" style="fill:#1f77b4;stroke:#000000;stroke-linejoin:miter;"/>
   </g>
   <g id="patch_115">
    <path clip-path="url(#pc36fcf6df7)" d="M 273.306585 529.793823 
L 253.779503 613.870769 
" style="fill:#1f77b4;stroke:#000000;stroke-linejoin:miter;"/>
   </g>
   <g id="patch_116">
    <path clip-path="url(#pc36fcf6df7)" d="M 273.306585 529.793823 
L 192.097054 600.090617 
" style="fill:#1f77b4;stroke:#000000;stroke-linejoin:miter;"/>
   </g>
   <g id="patch_117">
    <path clip-path="url(#pc36fcf6df7)" d="M 273.306585 529.793823 
L 277.971533 611.609796 
" style="fill:#1f77b4;stroke:#000000;stroke-linejoin:miter;"/>
   </g>
   <g id="patch_118">
    <path clip-path="url(#pc36fcf6df7)" d="M 273.306585 529.793823 
L 314.410696 565.813992 
" style="fill:#1f77b4;stroke:#000000;stroke-linejoin:miter;"/>
   </g>
   <g id="patch_119">
    <path clip-path="url(#pc36fcf6df7)" d="M 273.306585 529.793823 
L 224.580866 574.659793 
" style="fill:#1f77b4;stroke:#000000;stroke-linejoin:miter;"/>
   </g>
   <g id="patch_120">
    <path clip-path="url(#pc36fcf6df7)" d="M 273.306585 529.793823 
L 308.379115 548.454535 
" style="fill:#1f77b4;stroke:#000000;stroke-linejoin:miter;"/>
   </g>
   <g id="patch_121">
    <path clip-path="url(#pc36fcf6df7)" d="M 273.306585 529.793823 
L 220.296998 530.758664 
" style="fill:#1f77b4;stroke:#000000;stroke-linejoin:miter;"/>
   </g>
   <g id="patch_122">
    <path clip-path="url(#pc36fcf6df7)" d="M 273.306585 529.793823 
L 296.09256 598.236926 
" style="fill:#1f77b4;stroke:#000000;stroke-linejoin:miter;"/>
   </g>
   <g id="patch_123">
    <path clip-path="url(#pc36fcf6df7)" d="M 273.306585 529.793823 
L 269.338093 567.818813 
" style="fill:#1f77b4;stroke:#000000;stroke-linejoin:miter;"/>
   </g>
   <g id="patch_124">
    <path clip-path="url(#pc36fcf6df7)" d="M 273.306585 529.793823 
L 180.007609 567.746236 
" style="fill:#1f77b4;stroke:#000000;stroke-linejoin:miter;"/>
   </g>
   <g id="patch_125">
    <path clip-path="url(#pc36fcf6df7)" d="M 273.306585 529.793823 
L 240.809632 554.579142 
" style="fill:#1f77b4;stroke:#000000;stroke-linejoin:miter;"/>
   </g>
   <g id="patch_126">
    <path clip-path="url(#pc36fcf6df7)" d="M 273.306585 529.793823 
L 284.47618 548.95574 
" style="fill:#1f77b4;stroke:#000000;stroke-linejoin:miter;"/>
   </g>
   <g id="patch_127">
    <path clip-path="url(#pc36fcf6df7)" d="M 273.306585 529.793823 
L 260.415557 589.955515 
" style="fill:#1f77b4;stroke:#000000;stroke-linejoin:miter;"/>
   </g>
   <g id="patch_128">
    <path clip-path="url(#pc36fcf6df7)" d="M 273.306585 529.793823 
L 253.385282 530.878202 
" style="fill:#1f77b4;stroke:#000000;stroke-linejoin:miter;"/>
   </g>
   <g id="patch_129">
    <path clip-path="url(#pc36fcf6df7)" d="M 186.57796 552.901343 
L 228.260262 614.580312 
" style="fill:#1f77b4;stroke:#000000;stroke-linejoin:miter;"/>
   </g>
   <g id="patch_130">
    <path clip-path="url(#pc36fcf6df7)" d="M 186.57796 552.901343 
L 305.553864 581.594696 
" style="fill:#1f77b4;stroke:#000000;stroke-linejoin:miter;"/>
   </g>
   <g id="patch_131">
    <path clip-path="url(#pc36fcf6df7)" d="M 186.57796 552.901343 
L 253.779503 613.870769 
" style="fill:#1f77b4;stroke:#000000;stroke-linejoin:miter;"/>
   </g>
   <g id="patch_132">
    <path clip-path="url(#pc36fcf6df7)" d="M 186.57796 552.901343 
L 192.097054 600.090617 
" style="fill:#1f77b4;stroke:#000000;stroke-linejoin:miter;"/>
   </g>
   <g id="patch_133">
    <path clip-path="url(#pc36fcf6df7)" d="M 186.57796 552.901343 
L 277.971533 611.609796 
" style="fill:#1f77b4;stroke:#000000;stroke-linejoin:miter;"/>
   </g>
   <g id="patch_134">
    <path clip-path="url(#pc36fcf6df7)" d="M 186.57796 552.901343 
L 314.410696 565.813992 
" style="fill:#1f77b4;stroke:#000000;stroke-linejoin:miter;"/>
   </g>
   <g id="patch_135">
    <path clip-path="url(#pc36fcf6df7)" d="M 186.57796 552.901343 
L 224.580866 574.659793 
" style="fill:#1f77b4;stroke:#000000;stroke-linejoin:miter;"/>
   </g>
   <g id="patch_136">
    <path clip-path="url(#pc36fcf6df7)" d="M 186.57796 552.901343 
L 308.379115 548.454535 
" style="fill:#1f77b4;stroke:#000000;stroke-linejoin:miter;"/>
   </g>
   <g id="patch_137">
    <path clip-path="url(#pc36fcf6df7)" d="M 186.57796 552.901343 
L 220.296998 530.758664 
" style="fill:#1f77b4;stroke:#000000;stroke-linejoin:miter;"/>
   </g>
   <g id="patch_138">
    <path clip-path="url(#pc36fcf6df7)" d="M 186.57796 552.901343 
L 296.09256 598.236926 
" style="fill:#1f77b4;stroke:#000000;stroke-linejoin:miter;"/>
   </g>
   <g id="patch_139">
    <path clip-path="url(#pc36fcf6df7)" d="M 186.57796 552.901343 
L 269.338093 567.818813 
" style="fill:#1f77b4;stroke:#000000;stroke-linejoin:miter;"/>
   </g>
   <g id="patch_140">
    <path clip-path="url(#pc36fcf6df7)" d="M 186.57796 552.901343 
L 180.007609 567.746236 
" style="fill:#1f77b4;stroke:#000000;stroke-linejoin:miter;"/>
   </g>
   <g id="patch_141">
    <path clip-path="url(#pc36fcf6df7)" d="M 186.57796 552.901343 
L 240.809632 554.579142 
" style="fill:#1f77b4;stroke:#000000;stroke-linejoin:miter;"/>
   </g>
   <g id="patch_142">
    <path clip-path="url(#pc36fcf6df7)" d="M 186.57796 552.901343 
L 284.47618 548.95574 
" style="fill:#1f77b4;stroke:#000000;stroke-linejoin:miter;"/>
   </g>
   <g id="patch_143">
    <path clip-path="url(#pc36fcf6df7)" d="M 186.57796 552.901343 
L 260.415557 589.955515 
" style="fill:#1f77b4;stroke:#000000;stroke-linejoin:miter;"/>
   </g>
   <g id="patch_144">
    <path clip-path="url(#pc36fcf6df7)" d="M 186.57796 552.901343 
L 253.385282 530.878202 
" style="fill:#1f77b4;stroke:#000000;stroke-linejoin:miter;"/>
   </g>
   <g id="patch_145">
    <path clip-path="url(#pc36fcf6df7)" d="M 228.260262 614.580312 
L 305.553864 581.594696 
" style="fill:#1f77b4;stroke:#000000;stroke-linejoin:miter;"/>
   </g>
   <g id="patch_146">
    <path clip-path="url(#pc36fcf6df7)" d="M 228.260262 614.580312 
L 253.779503 613.870769 
" style="fill:#1f77b4;stroke:#000000;stroke-linejoin:miter;"/>
   </g>
   <g id="patch_147">
    <path clip-path="url(#pc36fcf6df7)" d="M 228.260262 614.580312 
L 192.097054 600.090617 
" style="fill:#1f77b4;stroke:#000000;stroke-linejoin:miter;"/>
   </g>
   <g id="patch_148">
    <path clip-path="url(#pc36fcf6df7)" d="M 228.260262 614.580312 
L 277.971533 611.609796 
" style="fill:#1f77b4;stroke:#000000;stroke-linejoin:miter;"/>
   </g>
   <g id="patch_149">
    <path clip-path="url(#pc36fcf6df7)" d="M 228.260262 614.580312 
L 314.410696 565.813992 
" style="fill:#1f77b4;stroke:#000000;stroke-linejoin:miter;"/>
   </g>
   <g id="patch_150">
    <path clip-path="url(#pc36fcf6df7)" d="M 228.260262 614.580312 
L 224.580866 574.659793 
" style="fill:#1f77b4;stroke:#000000;stroke-linejoin:miter;"/>
   </g>
   <g id="patch_151">
    <path clip-path="url(#pc36fcf6df7)" d="M 228.260262 614.580312 
L 308.379115 548.454535 
" style="fill:#1f77b4;stroke:#000000;stroke-linejoin:miter;"/>
   </g>
   <g id="patch_152">
    <path clip-path="url(#pc36fcf6df7)" d="M 228.260262 614.580312 
L 220.296998 530.758664 
" style="fill:#1f77b4;stroke:#000000;stroke-linejoin:miter;"/>
   </g>
   <g id="patch_153">
    <path clip-path="url(#pc36fcf6df7)" d="M 228.260262 614.580312 
L 296.09256 598.236926 
" style="fill:#1f77b4;stroke:#000000;stroke-linejoin:miter;"/>
   </g>
   <g id="patch_154">
    <path clip-path="url(#pc36fcf6df7)" d="M 228.260262 614.580312 
L 269.338093 567.818813 
" style="fill:#1f77b4;stroke:#000000;stroke-linejoin:miter;"/>
   </g>
   <g id="patch_155">
    <path clip-path="url(#pc36fcf6df7)" d="M 228.260262 614.580312 
L 180.007609 567.746236 
" style="fill:#1f77b4;stroke:#000000;stroke-linejoin:miter;"/>
   </g>
   <g id="patch_156">
    <path clip-path="url(#pc36fcf6df7)" d="M 228.260262 614.580312 
L 240.809632 554.579142 
" style="fill:#1f77b4;stroke:#000000;stroke-linejoin:miter;"/>
   </g>
   <g id="patch_157">
    <path clip-path="url(#pc36fcf6df7)" d="M 228.260262 614.580312 
L 284.47618 548.95574 
" style="fill:#1f77b4;stroke:#000000;stroke-linejoin:miter;"/>
   </g>
   <g id="patch_158">
    <path clip-path="url(#pc36fcf6df7)" d="M 228.260262 614.580312 
L 260.415557 589.955515 
" style="fill:#1f77b4;stroke:#000000;stroke-linejoin:miter;"/>
   </g>
   <g id="patch_159">
    <path clip-path="url(#pc36fcf6df7)" d="M 228.260262 614.580312 
L 253.385282 530.878202 
" style="fill:#1f77b4;stroke:#000000;stroke-linejoin:miter;"/>
   </g>
   <g id="patch_160">
    <path clip-path="url(#pc36fcf6df7)" d="M 305.553864 581.594696 
L 253.779503 613.870769 
" style="fill:#1f77b4;stroke:#000000;stroke-linejoin:miter;"/>
   </g>
   <g id="patch_161">
    <path clip-path="url(#pc36fcf6df7)" d="M 305.553864 581.594696 
L 192.097054 600.090617 
" style="fill:#1f77b4;stroke:#000000;stroke-linejoin:miter;"/>
   </g>
   <g id="patch_162">
    <path clip-path="url(#pc36fcf6df7)" d="M 305.553864 581.594696 
L 277.971533 611.609796 
" style="fill:#1f77b4;stroke:#000000;stroke-linejoin:miter;"/>
   </g>
   <g id="patch_163">
    <path clip-path="url(#pc36fcf6df7)" d="M 305.553864 581.594696 
L 314.410696 565.813992 
" style="fill:#1f77b4;stroke:#000000;stroke-linejoin:miter;"/>
   </g>
   <g id="patch_164">
    <path clip-path="url(#pc36fcf6df7)" d="M 305.553864 581.594696 
L 224.580866 574.659793 
" style="fill:#1f77b4;stroke:#000000;stroke-linejoin:miter;"/>
   </g>
   <g id="patch_165">
    <path clip-path="url(#pc36fcf6df7)" d="M 305.553864 581.594696 
L 308.379115 548.454535 
" style="fill:#1f77b4;stroke:#000000;stroke-linejoin:miter;"/>
   </g>
   <g id="patch_166">
    <path clip-path="url(#pc36fcf6df7)" d="M 305.553864 581.594696 
L 220.296998 530.758664 
" style="fill:#1f77b4;stroke:#000000;stroke-linejoin:miter;"/>
   </g>
   <g id="patch_167">
    <path clip-path="url(#pc36fcf6df7)" d="M 305.553864 581.594696 
L 296.09256 598.236926 
" style="fill:#1f77b4;stroke:#000000;stroke-linejoin:miter;"/>
   </g>
   <g id="patch_168">
    <path clip-path="url(#pc36fcf6df7)" d="M 305.553864 581.594696 
L 269.338093 567.818813 
" style="fill:#1f77b4;stroke:#000000;stroke-linejoin:miter;"/>
   </g>
   <g id="patch_169">
    <path clip-path="url(#pc36fcf6df7)" d="M 305.553864 581.594696 
L 180.007609 567.746236 
" style="fill:#1f77b4;stroke:#000000;stroke-linejoin:miter;"/>
   </g>
   <g id="patch_170">
    <path clip-path="url(#pc36fcf6df7)" d="M 305.553864 581.594696 
L 240.809632 554.579142 
" style="fill:#1f77b4;stroke:#000000;stroke-linejoin:miter;"/>
   </g>
   <g id="patch_171">
    <path clip-path="url(#pc36fcf6df7)" d="M 305.553864 581.594696 
L 284.47618 548.95574 
" style="fill:#1f77b4;stroke:#000000;stroke-linejoin:miter;"/>
   </g>
   <g id="patch_172">
    <path clip-path="url(#pc36fcf6df7)" d="M 305.553864 581.594696 
L 260.415557 589.955515 
" style="fill:#1f77b4;stroke:#000000;stroke-linejoin:miter;"/>
   </g>
   <g id="patch_173">
    <path clip-path="url(#pc36fcf6df7)" d="M 305.553864 581.594696 
L 253.385282 530.878202 
" style="fill:#1f77b4;stroke:#000000;stroke-linejoin:miter;"/>
   </g>
   <g id="patch_174">
    <path clip-path="url(#pc36fcf6df7)" d="M 253.779503 613.870769 
L 192.097054 600.090617 
" style="fill:#1f77b4;stroke:#000000;stroke-linejoin:miter;"/>
   </g>
   <g id="patch_175">
    <path clip-path="url(#pc36fcf6df7)" d="M 253.779503 613.870769 
L 277.971533 611.609796 
" style="fill:#1f77b4;stroke:#000000;stroke-linejoin:miter;"/>
   </g>
   <g id="patch_176">
    <path clip-path="url(#pc36fcf6df7)" d="M 253.779503 613.870769 
L 314.410696 565.813992 
" style="fill:#1f77b4;stroke:#000000;stroke-linejoin:miter;"/>
   </g>
   <g id="patch_177">
    <path clip-path="url(#pc36fcf6df7)" d="M 253.779503 613.870769 
L 224.580866 574.659793 
" style="fill:#1f77b4;stroke:#000000;stroke-linejoin:miter;"/>
   </g>
   <g id="patch_178">
    <path clip-path="url(#pc36fcf6df7)" d="M 253.779503 613.870769 
L 308.379115 548.454535 
" style="fill:#1f77b4;stroke:#000000;stroke-linejoin:miter;"/>
   </g>
   <g id="patch_179">
    <path clip-path="url(#pc36fcf6df7)" d="M 253.779503 613.870769 
L 220.296998 530.758664 
" style="fill:#1f77b4;stroke:#000000;stroke-linejoin:miter;"/>
   </g>
   <g id="patch_180">
    <path clip-path="url(#pc36fcf6df7)" d="M 253.779503 613.870769 
L 296.09256 598.236926 
" style="fill:#1f77b4;stroke:#000000;stroke-linejoin:miter;"/>
   </g>
   <g id="patch_181">
    <path clip-path="url(#pc36fcf6df7)" d="M 253.779503 613.870769 
L 269.338093 567.818813 
" style="fill:#1f77b4;stroke:#000000;stroke-linejoin:miter;"/>
   </g>
   <g id="patch_182">
    <path clip-path="url(#pc36fcf6df7)" d="M 253.779503 613.870769 
L 180.007609 567.746236 
" style="fill:#1f77b4;stroke:#000000;stroke-linejoin:miter;"/>
   </g>
   <g id="patch_183">
    <path clip-path="url(#pc36fcf6df7)" d="M 253.779503 613.870769 
L 240.809632 554.579142 
" style="fill:#1f77b4;stroke:#000000;stroke-linejoin:miter;"/>
   </g>
   <g id="patch_184">
    <path clip-path="url(#pc36fcf6df7)" d="M 253.779503 613.870769 
L 284.47618 548.95574 
" style="fill:#1f77b4;stroke:#000000;stroke-linejoin:miter;"/>
   </g>
   <g id="patch_185">
    <path clip-path="url(#pc36fcf6df7)" d="M 253.779503 613.870769 
L 260.415557 589.955515 
" style="fill:#1f77b4;stroke:#000000;stroke-linejoin:miter;"/>
   </g>
   <g id="patch_186">
    <path clip-path="url(#pc36fcf6df7)" d="M 253.779503 613.870769 
L 253.385282 530.878202 
" style="fill:#1f77b4;stroke:#000000;stroke-linejoin:miter;"/>
   </g>
   <g id="patch_187">
    <path clip-path="url(#pc36fcf6df7)" d="M 277.971533 611.609796 
L 192.097054 600.090617 
" style="fill:#1f77b4;stroke:#000000;stroke-linejoin:miter;"/>
   </g>
   <g id="patch_188">
    <path clip-path="url(#pc36fcf6df7)" d="M 277.971533 611.609796 
L 314.410696 565.813992 
" style="fill:#1f77b4;stroke:#000000;stroke-linejoin:miter;"/>
   </g>
   <g id="patch_189">
    <path clip-path="url(#pc36fcf6df7)" d="M 277.971533 611.609796 
L 224.580866 574.659793 
" style="fill:#1f77b4;stroke:#000000;stroke-linejoin:miter;"/>
   </g>
   <g id="patch_190">
    <path clip-path="url(#pc36fcf6df7)" d="M 277.971533 611.609796 
L 308.379115 548.454535 
" style="fill:#1f77b4;stroke:#000000;stroke-linejoin:miter;"/>
   </g>
   <g id="patch_191">
    <path clip-path="url(#pc36fcf6df7)" d="M 277.971533 611.609796 
L 220.296998 530.758664 
" style="fill:#1f77b4;stroke:#000000;stroke-linejoin:miter;"/>
   </g>
   <g id="patch_192">
    <path clip-path="url(#pc36fcf6df7)" d="M 277.971533 611.609796 
L 296.09256 598.236926 
" style="fill:#1f77b4;stroke:#000000;stroke-linejoin:miter;"/>
   </g>
   <g id="patch_193">
    <path clip-path="url(#pc36fcf6df7)" d="M 277.971533 611.609796 
L 269.338093 567.818813 
" style="fill:#1f77b4;stroke:#000000;stroke-linejoin:miter;"/>
   </g>
   <g id="patch_194">
    <path clip-path="url(#pc36fcf6df7)" d="M 277.971533 611.609796 
L 180.007609 567.746236 
" style="fill:#1f77b4;stroke:#000000;stroke-linejoin:miter;"/>
   </g>
   <g id="patch_195">
    <path clip-path="url(#pc36fcf6df7)" d="M 277.971533 611.609796 
L 240.809632 554.579142 
" style="fill:#1f77b4;stroke:#000000;stroke-linejoin:miter;"/>
   </g>
   <g id="patch_196">
    <path clip-path="url(#pc36fcf6df7)" d="M 277.971533 611.609796 
L 284.47618 548.95574 
" style="fill:#1f77b4;stroke:#000000;stroke-linejoin:miter;"/>
   </g>
   <g id="patch_197">
    <path clip-path="url(#pc36fcf6df7)" d="M 277.971533 611.609796 
L 260.415557 589.955515 
" style="fill:#1f77b4;stroke:#000000;stroke-linejoin:miter;"/>
   </g>
   <g id="patch_198">
    <path clip-path="url(#pc36fcf6df7)" d="M 277.971533 611.609796 
L 253.385282 530.878202 
" style="fill:#1f77b4;stroke:#000000;stroke-linejoin:miter;"/>
   </g>
   <g id="patch_199">
    <path clip-path="url(#pc36fcf6df7)" d="M 192.097054 600.090617 
L 314.410696 565.813992 
" style="fill:#1f77b4;stroke:#000000;stroke-linejoin:miter;"/>
   </g>
   <g id="patch_200">
    <path clip-path="url(#pc36fcf6df7)" d="M 192.097054 600.090617 
L 224.580866 574.659793 
" style="fill:#1f77b4;stroke:#000000;stroke-linejoin:miter;"/>
   </g>
   <g id="patch_201">
    <path clip-path="url(#pc36fcf6df7)" d="M 192.097054 600.090617 
L 308.379115 548.454535 
" style="fill:#1f77b4;stroke:#000000;stroke-linejoin:miter;"/>
   </g>
   <g id="patch_202">
    <path clip-path="url(#pc36fcf6df7)" d="M 192.097054 600.090617 
L 220.296998 530.758664 
" style="fill:#1f77b4;stroke:#000000;stroke-linejoin:miter;"/>
   </g>
   <g id="patch_203">
    <path clip-path="url(#pc36fcf6df7)" d="M 192.097054 600.090617 
L 296.09256 598.236926 
" style="fill:#1f77b4;stroke:#000000;stroke-linejoin:miter;"/>
   </g>
   <g id="patch_204">
    <path clip-path="url(#pc36fcf6df7)" d="M 192.097054 600.090617 
L 269.338093 567.818813 
" style="fill:#1f77b4;stroke:#000000;stroke-linejoin:miter;"/>
   </g>
   <g id="patch_205">
    <path clip-path="url(#pc36fcf6df7)" d="M 192.097054 600.090617 
L 180.007609 567.746236 
" style="fill:#1f77b4;stroke:#000000;stroke-linejoin:miter;"/>
   </g>
   <g id="patch_206">
    <path clip-path="url(#pc36fcf6df7)" d="M 192.097054 600.090617 
L 240.809632 554.579142 
" style="fill:#1f77b4;stroke:#000000;stroke-linejoin:miter;"/>
   </g>
   <g id="patch_207">
    <path clip-path="url(#pc36fcf6df7)" d="M 192.097054 600.090617 
L 284.47618 548.95574 
" style="fill:#1f77b4;stroke:#000000;stroke-linejoin:miter;"/>
   </g>
   <g id="patch_208">
    <path clip-path="url(#pc36fcf6df7)" d="M 192.097054 600.090617 
L 260.415557 589.955515 
" style="fill:#1f77b4;stroke:#000000;stroke-linejoin:miter;"/>
   </g>
   <g id="patch_209">
    <path clip-path="url(#pc36fcf6df7)" d="M 192.097054 600.090617 
L 253.385282 530.878202 
" style="fill:#1f77b4;stroke:#000000;stroke-linejoin:miter;"/>
   </g>
   <g id="patch_210">
    <path clip-path="url(#pc36fcf6df7)" d="M 224.580866 574.659793 
L 314.410696 565.813992 
" style="fill:#1f77b4;stroke:#000000;stroke-linejoin:miter;"/>
   </g>
   <g id="patch_211">
    <path clip-path="url(#pc36fcf6df7)" d="M 224.580866 574.659793 
L 308.379115 548.454535 
" style="fill:#1f77b4;stroke:#000000;stroke-linejoin:miter;"/>
   </g>
   <g id="patch_212">
    <path clip-path="url(#pc36fcf6df7)" d="M 224.580866 574.659793 
L 220.296998 530.758664 
" style="fill:#1f77b4;stroke:#000000;stroke-linejoin:miter;"/>
   </g>
   <g id="patch_213">
    <path clip-path="url(#pc36fcf6df7)" d="M 224.580866 574.659793 
L 296.09256 598.236926 
" style="fill:#1f77b4;stroke:#000000;stroke-linejoin:miter;"/>
   </g>
   <g id="patch_214">
    <path clip-path="url(#pc36fcf6df7)" d="M 224.580866 574.659793 
L 269.338093 567.818813 
" style="fill:#1f77b4;stroke:#000000;stroke-linejoin:miter;"/>
   </g>
   <g id="patch_215">
    <path clip-path="url(#pc36fcf6df7)" d="M 224.580866 574.659793 
L 180.007609 567.746236 
" style="fill:#1f77b4;stroke:#000000;stroke-linejoin:miter;"/>
   </g>
   <g id="patch_216">
    <path clip-path="url(#pc36fcf6df7)" d="M 224.580866 574.659793 
L 240.809632 554.579142 
" style="fill:#1f77b4;stroke:#000000;stroke-linejoin:miter;"/>
   </g>
   <g id="patch_217">
    <path clip-path="url(#pc36fcf6df7)" d="M 224.580866 574.659793 
L 284.47618 548.95574 
" style="fill:#1f77b4;stroke:#000000;stroke-linejoin:miter;"/>
   </g>
   <g id="patch_218">
    <path clip-path="url(#pc36fcf6df7)" d="M 224.580866 574.659793 
L 260.415557 589.955515 
" style="fill:#1f77b4;stroke:#000000;stroke-linejoin:miter;"/>
   </g>
   <g id="patch_219">
    <path clip-path="url(#pc36fcf6df7)" d="M 224.580866 574.659793 
L 253.385282 530.878202 
" style="fill:#1f77b4;stroke:#000000;stroke-linejoin:miter;"/>
   </g>
   <g id="patch_220">
    <path clip-path="url(#pc36fcf6df7)" d="M 314.410696 565.813992 
L 308.379115 548.454535 
" style="fill:#1f77b4;stroke:#000000;stroke-linejoin:miter;"/>
   </g>
   <g id="patch_221">
    <path clip-path="url(#pc36fcf6df7)" d="M 314.410696 565.813992 
L 220.296998 530.758664 
" style="fill:#1f77b4;stroke:#000000;stroke-linejoin:miter;"/>
   </g>
   <g id="patch_222">
    <path clip-path="url(#pc36fcf6df7)" d="M 314.410696 565.813992 
L 296.09256 598.236926 
" style="fill:#1f77b4;stroke:#000000;stroke-linejoin:miter;"/>
   </g>
   <g id="patch_223">
    <path clip-path="url(#pc36fcf6df7)" d="M 314.410696 565.813992 
L 269.338093 567.818813 
" style="fill:#1f77b4;stroke:#000000;stroke-linejoin:miter;"/>
   </g>
   <g id="patch_224">
    <path clip-path="url(#pc36fcf6df7)" d="M 314.410696 565.813992 
L 180.007609 567.746236 
" style="fill:#1f77b4;stroke:#000000;stroke-linejoin:miter;"/>
   </g>
   <g id="patch_225">
    <path clip-path="url(#pc36fcf6df7)" d="M 314.410696 565.813992 
L 240.809632 554.579142 
" style="fill:#1f77b4;stroke:#000000;stroke-linejoin:miter;"/>
   </g>
   <g id="patch_226">
    <path clip-path="url(#pc36fcf6df7)" d="M 314.410696 565.813992 
L 284.47618 548.95574 
" style="fill:#1f77b4;stroke:#000000;stroke-linejoin:miter;"/>
   </g>
   <g id="patch_227">
    <path clip-path="url(#pc36fcf6df7)" d="M 314.410696 565.813992 
L 260.415557 589.955515 
" style="fill:#1f77b4;stroke:#000000;stroke-linejoin:miter;"/>
   </g>
   <g id="patch_228">
    <path clip-path="url(#pc36fcf6df7)" d="M 314.410696 565.813992 
L 253.385282 530.878202 
" style="fill:#1f77b4;stroke:#000000;stroke-linejoin:miter;"/>
   </g>
   <g id="patch_229">
    <path clip-path="url(#pc36fcf6df7)" d="M 308.379115 548.454535 
L 220.296998 530.758664 
" style="fill:#1f77b4;stroke:#000000;stroke-linejoin:miter;"/>
   </g>
   <g id="patch_230">
    <path clip-path="url(#pc36fcf6df7)" d="M 308.379115 548.454535 
L 296.09256 598.236926 
" style="fill:#1f77b4;stroke:#000000;stroke-linejoin:miter;"/>
   </g>
   <g id="patch_231">
    <path clip-path="url(#pc36fcf6df7)" d="M 308.379115 548.454535 
L 269.338093 567.818813 
" style="fill:#1f77b4;stroke:#000000;stroke-linejoin:miter;"/>
   </g>
   <g id="patch_232">
    <path clip-path="url(#pc36fcf6df7)" d="M 308.379115 548.454535 
L 180.007609 567.746236 
" style="fill:#1f77b4;stroke:#000000;stroke-linejoin:miter;"/>
   </g>
   <g id="patch_233">
    <path clip-path="url(#pc36fcf6df7)" d="M 308.379115 548.454535 
L 240.809632 554.579142 
" style="fill:#1f77b4;stroke:#000000;stroke-linejoin:miter;"/>
   </g>
   <g id="patch_234">
    <path clip-path="url(#pc36fcf6df7)" d="M 308.379115 548.454535 
L 284.47618 548.95574 
" style="fill:#1f77b4;stroke:#000000;stroke-linejoin:miter;"/>
   </g>
   <g id="patch_235">
    <path clip-path="url(#pc36fcf6df7)" d="M 308.379115 548.454535 
L 260.415557 589.955515 
" style="fill:#1f77b4;stroke:#000000;stroke-linejoin:miter;"/>
   </g>
   <g id="patch_236">
    <path clip-path="url(#pc36fcf6df7)" d="M 308.379115 548.454535 
L 253.385282 530.878202 
" style="fill:#1f77b4;stroke:#000000;stroke-linejoin:miter;"/>
   </g>
   <g id="patch_237">
    <path clip-path="url(#pc36fcf6df7)" d="M 220.296998 530.758664 
L 296.09256 598.236926 
" style="fill:#1f77b4;stroke:#000000;stroke-linejoin:miter;"/>
   </g>
   <g id="patch_238">
    <path clip-path="url(#pc36fcf6df7)" d="M 220.296998 530.758664 
L 269.338093 567.818813 
" style="fill:#1f77b4;stroke:#000000;stroke-linejoin:miter;"/>
   </g>
   <g id="patch_239">
    <path clip-path="url(#pc36fcf6df7)" d="M 220.296998 530.758664 
L 180.007609 567.746236 
" style="fill:#1f77b4;stroke:#000000;stroke-linejoin:miter;"/>
   </g>
   <g id="patch_240">
    <path clip-path="url(#pc36fcf6df7)" d="M 220.296998 530.758664 
L 240.809632 554.579142 
" style="fill:#1f77b4;stroke:#000000;stroke-linejoin:miter;"/>
   </g>
   <g id="patch_241">
    <path clip-path="url(#pc36fcf6df7)" d="M 220.296998 530.758664 
L 284.47618 548.95574 
" style="fill:#1f77b4;stroke:#000000;stroke-linejoin:miter;"/>
   </g>
   <g id="patch_242">
    <path clip-path="url(#pc36fcf6df7)" d="M 220.296998 530.758664 
L 260.415557 589.955515 
" style="fill:#1f77b4;stroke:#000000;stroke-linejoin:miter;"/>
   </g>
   <g id="patch_243">
    <path clip-path="url(#pc36fcf6df7)" d="M 220.296998 530.758664 
L 253.385282 530.878202 
" style="fill:#1f77b4;stroke:#000000;stroke-linejoin:miter;"/>
   </g>
   <g id="patch_244">
    <path clip-path="url(#pc36fcf6df7)" d="M 269.338093 567.818813 
L 296.09256 598.236926 
" style="fill:#1f77b4;stroke:#000000;stroke-linejoin:miter;"/>
   </g>
   <g id="patch_245">
    <path clip-path="url(#pc36fcf6df7)" d="M 269.338093 567.818813 
L 180.007609 567.746236 
" style="fill:#1f77b4;stroke:#000000;stroke-linejoin:miter;"/>
   </g>
   <g id="patch_246">
    <path clip-path="url(#pc36fcf6df7)" d="M 269.338093 567.818813 
L 240.809632 554.579142 
" style="fill:#1f77b4;stroke:#000000;stroke-linejoin:miter;"/>
   </g>
   <g id="patch_247">
    <path clip-path="url(#pc36fcf6df7)" d="M 269.338093 567.818813 
L 284.47618 548.95574 
" style="fill:#1f77b4;stroke:#000000;stroke-linejoin:miter;"/>
   </g>
   <g id="patch_248">
    <path clip-path="url(#pc36fcf6df7)" d="M 269.338093 567.818813 
L 260.415557 589.955515 
" style="fill:#1f77b4;stroke:#000000;stroke-linejoin:miter;"/>
   </g>
   <g id="patch_249">
    <path clip-path="url(#pc36fcf6df7)" d="M 269.338093 567.818813 
L 253.385282 530.878202 
" style="fill:#1f77b4;stroke:#000000;stroke-linejoin:miter;"/>
   </g>
   <g id="patch_250">
    <path clip-path="url(#pc36fcf6df7)" d="M 296.09256 598.236926 
L 180.007609 567.746236 
" style="fill:#1f77b4;stroke:#000000;stroke-linejoin:miter;"/>
   </g>
   <g id="patch_251">
    <path clip-path="url(#pc36fcf6df7)" d="M 296.09256 598.236926 
L 240.809632 554.579142 
" style="fill:#1f77b4;stroke:#000000;stroke-linejoin:miter;"/>
   </g>
   <g id="patch_252">
    <path clip-path="url(#pc36fcf6df7)" d="M 296.09256 598.236926 
L 284.47618 548.95574 
" style="fill:#1f77b4;stroke:#000000;stroke-linejoin:miter;"/>
   </g>
   <g id="patch_253">
    <path clip-path="url(#pc36fcf6df7)" d="M 296.09256 598.236926 
L 260.415557 589.955515 
" style="fill:#1f77b4;stroke:#000000;stroke-linejoin:miter;"/>
   </g>
   <g id="patch_254">
    <path clip-path="url(#pc36fcf6df7)" d="M 296.09256 598.236926 
L 253.385282 530.878202 
" style="fill:#1f77b4;stroke:#000000;stroke-linejoin:miter;"/>
   </g>
   <g id="patch_255">
    <path clip-path="url(#pc36fcf6df7)" d="M 180.007609 567.746236 
L 240.809632 554.579142 
" style="fill:#1f77b4;stroke:#000000;stroke-linejoin:miter;"/>
   </g>
   <g id="patch_256">
    <path clip-path="url(#pc36fcf6df7)" d="M 180.007609 567.746236 
L 284.47618 548.95574 
" style="fill:#1f77b4;stroke:#000000;stroke-linejoin:miter;"/>
   </g>
   <g id="patch_257">
    <path clip-path="url(#pc36fcf6df7)" d="M 180.007609 567.746236 
L 260.415557 589.955515 
" style="fill:#1f77b4;stroke:#000000;stroke-linejoin:miter;"/>
   </g>
   <g id="patch_258">
    <path clip-path="url(#pc36fcf6df7)" d="M 180.007609 567.746236 
L 253.385282 530.878202 
" style="fill:#1f77b4;stroke:#000000;stroke-linejoin:miter;"/>
   </g>
   <g id="patch_259">
    <path clip-path="url(#pc36fcf6df7)" d="M 240.809632 554.579142 
L 284.47618 548.95574 
" style="fill:#1f77b4;stroke:#000000;stroke-linejoin:miter;"/>
   </g>
   <g id="patch_260">
    <path clip-path="url(#pc36fcf6df7)" d="M 240.809632 554.579142 
L 260.415557 589.955515 
" style="fill:#1f77b4;stroke:#000000;stroke-linejoin:miter;"/>
   </g>
   <g id="patch_261">
    <path clip-path="url(#pc36fcf6df7)" d="M 240.809632 554.579142 
L 253.385282 530.878202 
" style="fill:#1f77b4;stroke:#000000;stroke-linejoin:miter;"/>
   </g>
   <g id="patch_262">
    <path clip-path="url(#pc36fcf6df7)" d="M 293.004495 462.03294 
L 253.385282 530.878202 
" style="fill:#1f77b4;stroke:#000000;stroke-linejoin:miter;"/>
   </g>
   <g id="patch_263">
    <path clip-path="url(#pc36fcf6df7)" d="M 284.47618 548.95574 
L 260.415557 589.955515 
" style="fill:#1f77b4;stroke:#000000;stroke-linejoin:miter;"/>
   </g>
   <g id="patch_264">
    <path clip-path="url(#pc36fcf6df7)" d="M 284.47618 548.95574 
L 253.385282 530.878202 
" style="fill:#1f77b4;stroke:#000000;stroke-linejoin:miter;"/>
   </g>
   <g id="patch_265">
    <path clip-path="url(#pc36fcf6df7)" d="M 260.415557 589.955515 
L 253.385282 530.878202 
" style="fill:#1f77b4;stroke:#000000;stroke-linejoin:miter;"/>
   </g>
   <g id="patch_266">
    <path clip-path="url(#pc36fcf6df7)" d="M 223.450766 602.553698 
C 224.840343 602.553698 226.173193 602.052523 227.155772 601.160551 
C 228.138351 600.268579 228.690436 599.058636 228.690436 597.797198 
C 228.690436 596.535759 228.138351 595.325816 227.155772 594.433844 
C 226.173193 593.541872 224.840343 593.040698 223.450766 593.040698 
C 222.061189 593.040698 220.728339 593.541872 219.74576 594.433844 
C 218.763181 595.325816 218.211096 596.535759 218.211096 597.797198 
C 218.211096 599.058636 218.763181 600.268579 219.74576 601.160551 
C 220.728339 602.052523 222.061189 602.553698 223.450766 602.553698 
z
" style="fill:#ff0000;"/>
   </g>
   <g id="patch_267">
    <path clip-path="url(#pc36fcf6df7)" d="M 348.05089 607.456457 
C 349.440467 607.456457 350.773317 606.955282 351.755896 606.06331 
C 352.738475 605.171339 353.29056 603.961396 353.29056 602.699957 
C 353.29056 601.438519 352.738475 600.228575 351.755896 599.336604 
C 350.773317 598.444632 349.440467 597.943457 348.05089 597.943457 
C 346.661314 597.943457 345.328463 598.444632 344.345884 599.336604 
C 343.363305 600.228575 342.81122 601.438519 342.81122 602.699957 
C 342.81122 603.961396 343.363305 605.171339 344.345884 606.06331 
C 345.328463 606.955282 346.661314 607.456457 348.05089 607.456457 
z
" style="fill:#ff0000;"/>
   </g>
   <g id="patch_268">
    <path clip-path="url(#pc36fcf6df7)" d="M 182.215247 588.410662 
C 183.604824 588.410662 184.937674 587.909488 185.920253 587.017516 
C 186.902832 586.125544 187.454917 584.915601 187.454917 583.654162 
C 187.454917 582.392724 186.902832 581.182781 185.920253 580.290809 
C 184.937674 579.398837 183.604824 578.897662 182.215247 578.897662 
C 180.82567 578.897662 179.49282 579.398837 178.510241 580.290809 
C 177.527662 581.182781 176.975577 582.392724 176.975577 583.654162 
C 176.975577 584.915601 177.527662 586.125544 178.510241 587.017516 
C 179.49282 587.909488 180.82567 588.410662 182.215247 588.410662 
z
" style="fill:#ff0000;"/>
   </g>
   <g id="patch_269">
    <path clip-path="url(#pc36fcf6df7)" d="M 200.165444 545.095269 
C 201.555021 545.095269 202.887871 544.594094 203.87045 543.702123 
C 204.85303 542.810151 205.405114 541.600208 205.405114 540.338769 
C 205.405114 539.077331 204.85303 537.867387 203.87045 536.975416 
C 202.887871 536.083444 201.555021 535.582269 200.165444 535.582269 
C 198.775868 535.582269 197.443017 536.083444 196.460438 536.975416 
C 195.477859 537.867387 194.925775 539.077331 194.925775 540.338769 
C 194.925775 541.600208 195.477859 542.810151 196.460438 543.702123 
C 197.443017 544.594094 198.775868 545.095269 200.165444 545.095269 
z
" style="fill:#ff0000;"/>
   </g>
   <g id="patch_270">
    <path clip-path="url(#pc36fcf6df7)" d="M 273.306585 534.550323 
C 274.696161 534.550323 276.029012 534.049148 277.011591 533.157177 
C 277.99417 532.265205 278.546254 531.055262 278.546254 529.793823 
C 278.546254 528.532385 277.99417 527.322442 277.011591 526.43047 
C 276.029012 525.538498 274.696161 525.037323 273.306585 525.037323 
C 271.917008 525.037323 270.584158 525.538498 269.601578 526.43047 
C 268.618999 527.322442 268.066915 528.532385 268.066915 529.793823 
C 268.066915 531.055262 268.618999 532.265205 269.601578 533.157177 
C 270.584158 534.049148 271.917008 534.550323 273.306585 534.550323 
z
" style="fill:#ff0000;"/>
   </g>
   <g id="patch_271">
    <path clip-path="url(#pc36fcf6df7)" d="M 186.57796 557.657843 
C 187.967537 557.657843 189.300387 557.156668 190.282966 556.264697 
C 191.265545 555.372725 191.81763 554.162782 191.81763 552.901343 
C 191.81763 551.639905 191.265545 550.429962 190.282966 549.53799 
C 189.300387 548.646018 187.967537 548.144843 186.57796 548.144843 
C 185.188383 548.144843 183.855533 548.646018 182.872954 549.53799 
C 181.890375 550.429962 181.33829 551.639905 181.33829 552.901343 
C 181.33829 554.162782 181.890375 555.372725 182.872954 556.264697 
C 183.855533 557.156668 185.188383 557.657843 186.57796 557.657843 
z
" style="fill:#ff0000;"/>
   </g>
   <g id="patch_272">
    <path clip-path="url(#pc36fcf6df7)" d="M 228.260262 619.336812 
C 229.649839 619.336812 230.982689 618.835637 231.965269 617.943665 
C 232.947848 617.051693 233.499932 615.84175 233.499932 614.580312 
C 233.499932 613.318873 232.947848 612.10893 231.965269 611.216958 
C 230.982689 610.324986 229.649839 609.823812 228.260262 609.823812 
C 226.870686 609.823812 225.537836 610.324986 224.555256 611.216958 
C 223.572677 612.10893 223.020593 613.318873 223.020593 614.580312 
C 223.020593 615.84175 223.572677 617.051693 224.555256 617.943665 
C 225.537836 618.835637 226.870686 619.336812 228.260262 619.336812 
z
" style="fill:#ff0000;"/>
   </g>
   <g id="patch_273">
    <path clip-path="url(#pc36fcf6df7)" d="M 305.553864 586.351196 
C 306.943441 586.351196 308.276291 585.850021 309.25887 584.958049 
C 310.241449 584.066078 310.793534 582.856135 310.793534 581.594696 
C 310.793534 580.333257 310.241449 579.123314 309.25887 578.231343 
C 308.276291 577.339371 306.943441 576.838196 305.553864 576.838196 
C 304.164287 576.838196 302.831437 577.339371 301.848858 578.231343 
C 300.866279 579.123314 300.314194 580.333257 300.314194 581.594696 
C 300.314194 582.856135 300.866279 584.066078 301.848858 584.958049 
C 302.831437 585.850021 304.164287 586.351196 305.553864 586.351196 
z
" style="fill:#ff0000;"/>
   </g>
   <g id="patch_274">
    <path clip-path="url(#pc36fcf6df7)" d="M 253.779503 618.627269 
C 255.16908 618.627269 256.50193 618.126094 257.484509 617.234122 
C 258.467088 616.342151 259.019173 615.132208 259.019173 613.870769 
C 259.019173 612.60933 258.467088 611.399387 257.484509 610.507416 
C 256.50193 609.615444 255.16908 609.114269 253.779503 609.114269 
C 252.389927 609.114269 251.057076 609.615444 250.074497 610.507416 
C 249.091918 611.399387 248.539833 612.60933 248.539833 613.870769 
C 248.539833 615.132208 249.091918 616.342151 250.074497 617.234122 
C 251.057076 618.126094 252.389927 618.627269 253.779503 618.627269 
z
" style="fill:#ff0000;"/>
   </g>
   <g id="patch_275">
    <path clip-path="url(#pc36fcf6df7)" d="M 277.971533 616.366296 
C 279.36111 616.366296 280.69396 615.865121 281.676539 614.973149 
C 282.659118 614.081178 283.211203 612.871235 283.211203 611.609796 
C 283.211203 610.348357 282.659118 609.138414 281.676539 608.246443 
C 280.69396 607.354471 279.36111 606.853296 277.971533 606.853296 
C 276.581957 606.853296 275.249106 607.354471 274.266527 608.246443 
C 273.283948 609.138414 272.731863 610.348357 272.731863 611.609796 
C 272.731863 612.871235 273.283948 614.081178 274.266527 614.973149 
C 275.249106 615.865121 276.581957 616.366296 277.971533 616.366296 
z
" style="fill:#ff0000;"/>
   </g>
   <g id="patch_276">
    <path clip-path="url(#pc36fcf6df7)" d="M 192.097054 604.847117 
C 193.486631 604.847117 194.819481 604.345942 195.80206 603.45397 
C 196.784639 602.561998 197.336724 601.352055 197.336724 600.090617 
C 197.336724 598.829178 196.784639 597.619235 195.80206 596.727263 
C 194.819481 595.835291 193.486631 595.334117 192.097054 595.334117 
C 190.707477 595.334117 189.374627 595.835291 188.392048 596.727263 
C 187.409469 597.619235 186.857384 598.829178 186.857384 600.090617 
C 186.857384 601.352055 187.409469 602.561998 188.392048 603.45397 
C 189.374627 604.345942 190.707477 604.847117 192.097054 604.847117 
z
" style="fill:#ff0000;"/>
   </g>
   <g id="patch_277">
    <path clip-path="url(#pc36fcf6df7)" d="M 224.580866 579.416293 
C 225.970443 579.416293 227.303293 578.915118 228.285872 578.023147 
C 229.268451 577.131175 229.820536 575.921232 229.820536 574.659793 
C 229.820536 573.398355 229.268451 572.188411 228.285872 571.29644 
C 227.303293 570.404468 225.970443 569.903293 224.580866 569.903293 
C 223.19129 569.903293 221.858439 570.404468 220.87586 571.29644 
C 219.893281 572.188411 219.341196 573.398355 219.341196 574.659793 
C 219.341196 575.921232 219.893281 577.131175 220.87586 578.023147 
C 221.858439 578.915118 223.19129 579.416293 224.580866 579.416293 
z
" style="fill:#ff0000;"/>
   </g>
   <g id="patch_278">
    <path clip-path="url(#pc36fcf6df7)" d="M 314.410696 570.570492 
C 315.800273 570.570492 317.133123 570.069317 318.115702 569.177346 
C 319.098282 568.285374 319.650366 567.075431 319.650366 565.813992 
C 319.650366 564.552554 319.098282 563.342611 318.115702 562.450639 
C 317.133123 561.558667 315.800273 561.057492 314.410696 561.057492 
C 313.02112 561.057492 311.688269 561.558667 310.70569 562.450639 
C 309.723111 563.342611 309.171027 564.552554 309.171027 565.813992 
C 309.171027 567.075431 309.723111 568.285374 310.70569 569.177346 
C 311.688269 570.069317 313.02112 570.570492 314.410696 570.570492 
z
" style="fill:#ff0000;"/>
   </g>
   <g id="patch_279">
    <path clip-path="url(#pc36fcf6df7)" d="M 308.379115 553.211035 
C 309.768691 553.211035 311.101542 552.70986 312.084121 551.817889 
C 313.0667 550.925917 313.618785 549.715974 313.618785 548.454535 
C 313.618785 547.193097 313.0667 545.983154 312.084121 545.091182 
C 311.101542 544.19921 309.768691 543.698035 308.379115 543.698035 
C 306.989538 543.698035 305.656688 544.19921 304.674109 545.091182 
C 303.69153 545.983154 303.139445 547.193097 303.139445 548.454535 
C 303.139445 549.715974 303.69153 550.925917 304.674109 551.817889 
C 305.656688 552.70986 306.989538 553.211035 308.379115 553.211035 
z
" style="fill:#ff0000;"/>
   </g>
   <g id="patch_280">
    <path clip-path="url(#pc36fcf6df7)" d="M 220.296998 535.515164 
C 221.686575 535.515164 223.019425 535.01399 224.002004 534.122018 
C 224.984583 533.230046 225.536668 532.020103 225.536668 530.758664 
C 225.536668 529.497226 224.984583 528.287283 224.002004 527.395311 
C 223.019425 526.503339 221.686575 526.002164 220.296998 526.002164 
C 218.907421 526.002164 217.574571 526.503339 216.591992 527.395311 
C 215.609413 528.287283 215.057328 529.497226 215.057328 530.758664 
C 215.057328 532.020103 215.609413 533.230046 216.591992 534.122018 
C 217.574571 535.01399 218.907421 535.515164 220.296998 535.515164 
z
" style="fill:#ff0000;"/>
   </g>
   <g id="patch_281">
    <path clip-path="url(#pc36fcf6df7)" d="M 269.338093 572.575313 
C 270.72767 572.575313 272.06052 572.074138 273.043099 571.182166 
C 274.025678 570.290194 274.577763 569.080251 274.577763 567.818813 
C 274.577763 566.557374 274.025678 565.347431 273.043099 564.455459 
C 272.06052 563.563488 270.72767 563.062313 269.338093 563.062313 
C 267.948516 563.062313 266.615666 563.563488 265.633087 564.455459 
C 264.650508 565.347431 264.098423 566.557374 264.098423 567.818813 
C 264.098423 569.080251 264.650508 570.290194 265.633087 571.182166 
C 266.615666 572.074138 267.948516 572.575313 269.338093 572.575313 
z
" style="fill:#ff0000;"/>
   </g>
   <g id="patch_282">
    <path clip-path="url(#pc36fcf6df7)" d="M 296.09256 602.993426 
C 297.482136 602.993426 298.814987 602.492251 299.797566 601.600279 
C 300.780145 600.708308 301.332229 599.498365 301.332229 598.236926 
C 301.332229 596.975488 300.780145 595.765544 299.797566 594.873573 
C 298.814987 593.981601 297.482136 593.480426 296.09256 593.480426 
C 294.702983 593.480426 293.370133 593.981601 292.387554 594.873573 
C 291.404974 595.765544 290.85289 596.975488 290.85289 598.236926 
C 290.85289 599.498365 291.404974 600.708308 292.387554 601.600279 
C 293.370133 602.492251 294.702983 602.993426 296.09256 602.993426 
z
" style="fill:#ff0000;"/>
   </g>
   <g id="patch_283">
    <path clip-path="url(#pc36fcf6df7)" d="M 180.007609 572.502736 
C 181.397186 572.502736 182.730036 572.001561 183.712616 571.10959 
C 184.695195 570.217618 185.247279 569.007675 185.247279 567.746236 
C 185.247279 566.484798 184.695195 565.274855 183.712616 564.382883 
C 182.730036 563.490911 181.397186 562.989736 180.007609 562.989736 
C 178.618033 562.989736 177.285182 563.490911 176.302603 564.382883 
C 175.320024 565.274855 174.76794 566.484798 174.76794 567.746236 
C 174.76794 569.007675 175.320024 570.217618 176.302603 571.10959 
C 177.285182 572.001561 178.618033 572.502736 180.007609 572.502736 
z
" style="fill:#ff0000;"/>
   </g>
   <g id="patch_284">
    <path clip-path="url(#pc36fcf6df7)" d="M 240.809632 559.335642 
C 242.199208 559.335642 243.532059 558.834467 244.514638 557.942496 
C 245.497217 557.050524 246.049302 555.840581 246.049302 554.579142 
C 246.049302 553.317704 245.497217 552.107761 244.514638 551.215789 
C 243.532059 550.323817 242.199208 549.822642 240.809632 549.822642 
C 239.420055 549.822642 238.087205 550.323817 237.104626 551.215789 
C 236.122046 552.107761 235.569962 553.317704 235.569962 554.579142 
C 235.569962 555.840581 236.122046 557.050524 237.104626 557.942496 
C 238.087205 558.834467 239.420055 559.335642 240.809632 559.335642 
z
" style="fill:#ff0000;"/>
   </g>
   <g id="patch_285">
    <path clip-path="url(#pc36fcf6df7)" d="M 293.004495 466.78944 
C 294.394072 466.78944 295.726922 466.288265 296.709501 465.396293 
C 297.69208 464.504322 298.244165 463.294378 298.244165 462.03294 
C 298.244165 460.771501 297.69208 459.561558 296.709501 458.669586 
C 295.726922 457.777615 294.394072 457.27644 293.004495 457.27644 
C 291.614918 457.27644 290.282068 457.777615 289.299489 458.669586 
C 288.31691 459.561558 287.764825 460.771501 287.764825 462.03294 
C 287.764825 463.294378 288.31691 464.504322 289.299489 465.396293 
C 290.282068 466.288265 291.614918 466.78944 293.004495 466.78944 
z
" style="fill:#ff0000;"/>
   </g>
   <g id="patch_286">
    <path clip-path="url(#pc36fcf6df7)" d="M 284.47618 553.71224 
C 285.865757 553.71224 287.198607 553.211065 288.181186 552.319094 
C 289.163765 551.427122 289.71585 550.217179 289.71585 548.95574 
C 289.71585 547.694302 289.163765 546.484359 288.181186 545.592387 
C 287.198607 544.700415 285.865757 544.19924 284.47618 544.19924 
C 283.086603 544.19924 281.753753 544.700415 280.771174 545.592387 
C 279.788595 546.484359 279.23651 547.694302 279.23651 548.95574 
C 279.23651 550.217179 279.788595 551.427122 280.771174 552.319094 
C 281.753753 553.211065 283.086603 553.71224 284.47618 553.71224 
z
" style="fill:#ff0000;"/>
   </g>
   <g id="patch_287">
    <path clip-path="url(#pc36fcf6df7)" d="M 260.415557 594.712015 
C 261.805134 594.712015 263.137984 594.21084 264.120563 593.318868 
C 265.103142 592.426896 265.655227 591.216953 265.655227 589.955515 
C 265.655227 588.694076 265.103142 587.484133 264.120563 586.592161 
C 263.137984 585.70019 261.805134 585.199015 260.415557 585.199015 
C 259.02598 585.199015 257.69313 585.70019 256.710551 586.592161 
C 255.727972 587.484133 255.175887 588.694076 255.175887 589.955515 
C 255.175887 591.216953 255.727972 592.426896 256.710551 593.318868 
C 257.69313 594.21084 259.02598 594.712015 260.415557 594.712015 
z
" style="fill:#ff0000;"/>
   </g>
   <g id="patch_288">
    <path clip-path="url(#pc36fcf6df7)" d="M 253.385282 535.634702 
C 254.774859 535.634702 256.107709 535.133527 257.090288 534.241556 
C 258.072867 533.349584 258.624952 532.139641 258.624952 530.878202 
C 258.624952 529.616764 258.072867 528.406821 257.090288 527.514849 
C 256.107709 526.622877 254.774859 526.121702 253.385282 526.121702 
C 251.995706 526.121702 250.662855 526.622877 249.680276 527.514849 
C 248.697697 528.406821 248.145612 529.616764 248.145612 530.878202 
C 248.145612 532.139641 248.697697 533.349584 249.680276 534.241556 
C 250.662855 535.133527 251.995706 535.634702 253.385282 535.634702 
z
" style="fill:#ff0000;"/>
   </g>
   <g id="text_1">
    <text style="font-family:DejaVu Sans;font-size:12px;font-style:normal;font-weight:normal;text-anchor:start;" transform="rotate(-0, 185.995804, 98.141377)" x="185.995804" y="98.141377">KEGG_UBIQUITIN_MEDIATED_PROTEOLYSIS</text>
   </g>
   <g id="text_2">
    <text style="font-family:DejaVu Sans;font-size:12px;font-style:normal;font-weight:normal;text-anchor:start;" transform="rotate(-0, 185.995804, 111.731377)" x="185.995804" y="111.731377">REACTOME_DEVELOPMENTAL_BIOLOGY</text>
   </g>
   <g id="text_3">
    <text style="font-family:DejaVu Sans;font-size:12px;font-style:normal;font-weight:normal;text-anchor:start;" transform="rotate(-0, 185.995804, 125.321377)" x="185.995804" y="125.321377">BIOCARTA_EGF_PATHWAY</text>
   </g>
   <g id="text_4">
    <text style="font-family:DejaVu Sans;font-size:12px;font-style:normal;font-weight:normal;text-anchor:start;" transform="rotate(-0, 185.995804, 138.911377)" x="185.995804" y="138.911377">KEGG_DORSO_VENTRAL_AXIS_FORMATION</text>
   </g>
   <g id="text_5">
    <text style="font-family:DejaVu Sans;font-size:12px;font-style:normal;font-weight:normal;text-anchor:start;" transform="rotate(-0, 185.995804, 152.501377)" x="185.995804" y="152.501377">BIOCARTA_SHH_PATHWAY</text>
   </g>
   <g id="text_6">
    <text style="font-family:DejaVu Sans;font-size:12px;font-style:normal;font-weight:normal;text-anchor:start;" transform="rotate(-0, 185.995804, 166.091377)" x="185.995804" y="166.091377">REACTOME_GROWTH_HORMONE_RECEPTOR_SIGNALING</text>
   </g>
   <g id="text_7">
    <text style="font-family:DejaVu Sans;font-size:12px;font-style:normal;font-weight:normal;text-anchor:start;" transform="rotate(-0, 185.995804, 179.681377)" x="185.995804" y="179.681377">REACTOME_MRNA_SPLICING_MINOR_PATHWAY</text>
   </g>
   <g id="text_8">
    <text style="font-family:DejaVu Sans;font-size:12px;font-style:normal;font-weight:normal;text-anchor:start;" transform="rotate(-0, 185.995804, 193.271377)" x="185.995804" y="193.271377">PID_P38_MK2_PATHWAY</text>
   </g>
   <g id="text_9">
    <text style="font-family:DejaVu Sans;font-size:12px;font-style:normal;font-weight:normal;text-anchor:start;" transform="rotate(-0, 185.995804, 206.861377)" x="185.995804" y="206.861377">PID_P73PATHWAY</text>
   </g>
   <g id="text_10">
    <text style="font-family:DejaVu Sans;font-size:12px;font-style:normal;font-weight:normal;text-anchor:start;" transform="rotate(-0, 185.995804, 220.451377)" x="185.995804" y="220.451377">BIOCARTA_CK1_PATHWAY</text>
   </g>
   <g id="text_11">
    <text style="font-family:DejaVu Sans;font-size:12px;font-style:normal;font-weight:normal;text-anchor:start;" transform="rotate(-0, 185.995804, 234.041377)" x="185.995804" y="234.041377">PID_TAP63_PATHWAY</text>
   </g>
   <g id="text_12">
    <text style="font-family:DejaVu Sans;font-size:12px;font-style:normal;font-weight:normal;text-anchor:start;" transform="rotate(-0, 185.995804, 247.631377)" x="185.995804" y="247.631377">PID_HNF3B_PATHWAY</text>
   </g>
   <g id="text_13">
    <text style="font-family:DejaVu Sans;font-size:12px;font-style:normal;font-weight:normal;text-anchor:start;" transform="rotate(-0, 185.995804, 261.16044)" x="185.995804" y="261.16044">PID_ALK1_PATHWAY</text>
   </g>
   <g id="text_14">
    <text style="font-family:DejaVu Sans;font-size:12px;font-style:normal;font-weight:normal;text-anchor:start;" transform="rotate(-0, 185.995804, 274.811377)" x="185.995804" y="274.811377">KEGG_CELL_CYCLE</text>
   </g>
   <g id="text_15">
    <text style="font-family:DejaVu Sans;font-size:12px;font-style:normal;font-weight:normal;text-anchor:start;" transform="rotate(-0, 185.995804, 288.401377)" x="185.995804" y="288.401377">PID_SMAD2_3NUCLEAR_PATHWAY</text>
   </g>
   <g id="text_16">
    <text style="font-family:DejaVu Sans;font-size:12px;font-style:normal;font-weight:normal;text-anchor:start;" transform="rotate(-0, 185.995804, 301.991377)" x="185.995804" y="301.991377">BIOCARTA_CDC42RAC_PATHWAY</text>
   </g>
   <g id="text_17">
    <text style="font-family:DejaVu Sans;font-size:12px;font-style:normal;font-weight:normal;text-anchor:start;" transform="rotate(-0, 185.995804, 315.581377)" x="185.995804" y="315.581377">BIOCARTA_RHO_PATHWAY</text>
   </g>
   <g id="text_18">
    <text style="font-family:DejaVu Sans;font-size:12px;font-style:normal;font-weight:normal;text-anchor:start;" transform="rotate(-0, 185.995804, 329.171377)" x="185.995804" y="329.171377">PID_CDC42_PATHWAY</text>
   </g>
   <g id="text_19">
    <text style="font-family:DejaVu Sans;font-size:12px;font-style:normal;font-weight:normal;text-anchor:start;" transform="rotate(-0, 185.995804, 342.761377)" x="185.995804" y="342.761377">PID_RAC1_PATHWAY</text>
   </g>
   <g id="text_20">
    <text style="font-family:DejaVu Sans;font-size:12px;font-style:normal;font-weight:normal;text-anchor:start;" transform="rotate(-0, 185.995804, 379.757273)" x="185.995804" y="379.757273">REACTOME_RORA_ACTIVATES_CIRCADIAN_EXPRESSION</text>
   </g>
   <g id="text_21">
    <text style="font-family:DejaVu Sans;font-size:12px;font-style:normal;font-weight:normal;text-anchor:start;" transform="rotate(-0, 230.907259, 373.727806)" x="230.907259" y="373.727806">REACTOME_BMAL1_CLOCK_NPAS2_ACTIVATES_CIRCADIAN_EXPRESSION</text>
   </g>
   <g id="text_22">
    <text style="font-family:DejaVu Sans;font-size:12px;font-style:normal;font-weight:normal;text-anchor:start;" transform="rotate(-0, 211.757303, 397.121377)" x="211.757303" y="397.121377">REACTOME_CIRCADIAN_CLOCK</text>
   </g>
   <g id="text_23">
    <text style="font-family:DejaVu Sans;font-size:12px;font-style:normal;font-weight:normal;text-anchor:start;" transform="rotate(-0, 205.098721, 356.351377)" x="205.098721" y="356.351377">REACTOME_CIRCADIAN_REPRESSION_OF_EXPRESSION_BY_REV_ERBA</text>
   </g>
   <g id="text_24">
    <text style="font-family:DejaVu Sans;font-size:12px;font-style:normal;font-weight:normal;text-anchor:start;" transform="rotate(-0, 185.995804, 434.117273)" x="185.995804" y="434.117273">REACTOME_MEIOTIC_SYNAPSIS</text>
   </g>
   <g id="text_25">
    <text style="font-family:DejaVu Sans;font-size:12px;font-style:normal;font-weight:normal;text-anchor:start;" transform="rotate(-0, 230.907259, 428.087806)" x="230.907259" y="428.087806">REACTOME_MEIOSIS</text>
   </g>
   <g id="text_26">
    <text style="font-family:DejaVu Sans;font-size:12px;font-style:normal;font-weight:normal;text-anchor:start;" transform="rotate(-0, 211.754306, 451.481377)" x="211.754306" y="451.481377">REACTOME_PACKAGING_OF_TELOMERE_ENDS</text>
   </g>
   <g id="text_27">
    <text style="font-family:DejaVu Sans;font-size:12px;font-style:normal;font-weight:normal;text-anchor:start;" transform="rotate(-0, 205.101724, 410.711377)" x="205.101724" y="410.711377">REACTOME_MEIOTIC_RECOMBINATION</text>
   </g>
   <g id="text_28">
    <text style="font-family:DejaVu Sans;font-size:12px;font-style:normal;font-weight:normal;text-anchor:start;" transform="rotate(-0, 229.43896, 600.835635)" x="229.43896" y="600.835635">REACTOME_APC_C_CDC20_MEDIATED_DEGRADATION_OF_MITOTIC_PROTEINS</text>
   </g>
   <g id="text_29">
    <text style="font-family:DejaVu Sans;font-size:12px;font-style:normal;font-weight:normal;text-anchor:start;" transform="rotate(-0, 354.039084, 605.738395)" x="354.039084" y="605.738395">REACTOME_CELL_CYCLE_MITOTIC</text>
   </g>
   <g id="text_30">
    <text style="font-family:DejaVu Sans;font-size:12px;font-style:normal;font-weight:normal;text-anchor:start;" transform="rotate(-0, 188.203441, 586.6926)" x="188.203441" y="586.6926">REACTOME_P53_INDEPENDENT_G1_S_DNA_DAMAGE_CHECKPOINT</text>
   </g>
   <g id="text_31">
    <text style="font-family:DejaVu Sans;font-size:12px;font-style:normal;font-weight:normal;text-anchor:start;" transform="rotate(-0, 206.153638, 543.377207)" x="206.153638" y="543.377207">REACTOME_REGULATION_OF_MRNA_STABILITY_BY_PROTEINS...</text>
   </g>
   <g id="text_32">
    <text style="font-family:DejaVu Sans;font-size:12px;font-style:normal;font-weight:normal;text-anchor:start;" transform="rotate(-0, 279.294779, 532.832261)" x="279.294779" y="532.832261">KEGG_PROTEASOME</text>
   </g>
   <g id="text_33">
    <text style="font-family:DejaVu Sans;font-size:12px;font-style:normal;font-weight:normal;text-anchor:start;" transform="rotate(-0, 192.566154, 555.939781)" x="192.566154" y="555.939781">REACTOME_AUTODEGRADATION_OF_THE_E3_UBIQUITIN_LIGASE_COP1</text>
   </g>
   <g id="text_34">
    <text style="font-family:DejaVu Sans;font-size:12px;font-style:normal;font-weight:normal;text-anchor:start;" transform="rotate(-0, 234.248457, 617.618749)" x="234.248457" y="617.618749">REACTOME_SCF_BETA_TRCP_MEDIATED_DEGRADATION_OF_EMI1</text>
   </g>
   <g id="text_35">
    <text style="font-family:DejaVu Sans;font-size:12px;font-style:normal;font-weight:normal;text-anchor:start;" transform="rotate(-0, 311.542058, 584.633134)" x="311.542058" y="584.633134">REACTOME_REGULATION_OF_MITOTIC_CELL_CYCLE</text>
   </g>
   <g id="text_36">
    <text style="font-family:DejaVu Sans;font-size:12px;font-style:normal;font-weight:normal;text-anchor:start;" transform="rotate(-0, 259.767697, 616.909207)" x="259.767697" y="616.909207">REACTOME_CYCLIN_E_ASSOCIATED_EVENTS_DURING_G1_S_TRANSITION_</text>
   </g>
   <g id="text_37">
    <text style="font-family:DejaVu Sans;font-size:12px;font-style:normal;font-weight:normal;text-anchor:start;" transform="rotate(-0, 283.959727, 614.648233)" x="283.959727" y="614.648233">REACTOME_CDT1_ASSOCIATION_WITH_THE_CDC6_ORC_ORIGIN_COMPLEX</text>
   </g>
   <g id="text_38">
    <text style="font-family:DejaVu Sans;font-size:12px;font-style:normal;font-weight:normal;text-anchor:start;" transform="rotate(-0, 198.085248, 603.129054)" x="198.085248" y="603.129054">REACTOME_ER_PHAGOSOME_PATHWAY</text>
   </g>
   <g id="text_39">
    <text style="font-family:DejaVu Sans;font-size:12px;font-style:normal;font-weight:normal;text-anchor:start;" transform="rotate(-0, 230.56906, 577.698231)" x="230.56906" y="577.698231">REACTOME_SYNTHESIS_OF_DNA</text>
   </g>
   <g id="text_40">
    <text style="font-family:DejaVu Sans;font-size:12px;font-style:normal;font-weight:normal;text-anchor:start;" transform="rotate(-0, 320.398891, 568.85243)" x="320.398891" y="568.85243">REACTOME_MITOTIC_M_M_G1_PHASES</text>
   </g>
   <g id="text_41">
    <text style="font-family:DejaVu Sans;font-size:12px;font-style:normal;font-weight:normal;text-anchor:start;" transform="rotate(-0, 314.367309, 551.492973)" x="314.367309" y="551.492973">REACTOME_ORC1_REMOVAL_FROM_CHROMATIN</text>
   </g>
   <g id="text_42">
    <text style="font-family:DejaVu Sans;font-size:12px;font-style:normal;font-weight:normal;text-anchor:start;" transform="rotate(-0, 226.285192, 533.797102)" x="226.285192" y="533.797102">REACTOME_SCFSKP2_MEDIATED_DEGRADATION_OF_P27_P21</text>
   </g>
   <g id="text_43">
    <text style="font-family:DejaVu Sans;font-size:12px;font-style:normal;font-weight:normal;text-anchor:start;" transform="rotate(-0, 275.326287, 570.85725)" x="275.326287" y="570.85725">REACTOME_VIF_MEDIATED_DEGRADATION_OF_APOBEC3G</text>
   </g>
   <g id="text_44">
    <text style="font-family:DejaVu Sans;font-size:12px;font-style:normal;font-weight:normal;text-anchor:start;" transform="rotate(-0, 302.080754, 601.275364)" x="302.080754" y="601.275364">REACTOME_P53_DEPENDENT_G1_DNA_DAMAGE_RESPONSE</text>
   </g>
   <g id="text_45">
    <text style="font-family:DejaVu Sans;font-size:12px;font-style:normal;font-weight:normal;text-anchor:start;" transform="rotate(-0, 185.995804, 570.784674)" x="185.995804" y="570.784674">REACTOME_CDK_MEDIATED_PHOSPHORYLATION_AND_REMOVAL_OF_CDC6</text>
   </g>
   <g id="text_46">
    <text style="font-family:DejaVu Sans;font-size:12px;font-style:normal;font-weight:normal;text-anchor:start;" transform="rotate(-0, 246.797826, 557.61758)" x="246.797826" y="557.61758">REACTOME_G1_S_TRANSITION</text>
   </g>
   <g id="text_47">
    <text style="font-family:DejaVu Sans;font-size:12px;font-style:normal;font-weight:normal;text-anchor:start;" transform="rotate(-0, 298.992689, 465.071377)" x="298.992689" y="465.071377">REACTOME_G1_PHASE</text>
   </g>
   <g id="text_48">
    <text style="font-family:DejaVu Sans;font-size:12px;font-style:normal;font-weight:normal;text-anchor:start;" transform="rotate(-0, 290.464374, 551.994178)" x="290.464374" y="551.994178">REACTOME_M_G1_TRANSITION</text>
   </g>
   <g id="text_49">
    <text style="font-family:DejaVu Sans;font-size:12px;font-style:normal;font-weight:normal;text-anchor:start;" transform="rotate(-0, 266.403751, 592.993952)" x="266.403751" y="592.993952">REACTOME_APC_C_CDH1_MEDIATED_DEGRADATION_OF_CDC20...</text>
   </g>
   <g id="text_50">
    <text style="font-family:DejaVu Sans;font-size:12px;font-style:normal;font-weight:normal;text-anchor:start;" transform="rotate(-0, 259.373476, 533.91664)" x="259.373476" y="533.91664">REACTOME_MITOTIC_G1_G1_S_PHASES</text>
   </g>
   <g id="text_51">
    <text style="font-family:DejaVu Sans;font-size:12px;font-style:normal;font-weight:normal;text-anchor:middle;" transform="rotate(-0, 676.652209, 79.58994)" x="676.652209" y="79.58994">Cell Cycle/Development</text>
   </g>
  </g>
 </g>
 <defs>
  <clipPath id="pc36fcf6df7">
   <rect height="538.503372" width="1023.23017" x="165.037124" y="85.58994"/>
  </clipPath>
 </defs>
</svg>
